<svg width="398" height="398" viewBox="0 0 398 398" xmlns="http://www.w3.org/2000/svg">
  <title>
    app-store
  </title>
  <g fill-rule="nonzero" stroke="#57C003" stroke-width="2" fill="none">
    <rect x="1.82" y="1.82" width="394.383" height="394.383" rx="14.833"/>
    <path d="M176.101 74.731c-2.867.077-5.76.853-8.427 2.394a17.756 17.756 0 0 0-6.515 24.307l17.883 30.974-56.92 98.588H74.413a17.745 17.745 0 0 0-13.983 9.217 17.765 17.765 0 0 0-2.139 8.494A17.755 17.755 0 0 0 76.085 266.5h161.174c4.679-9.824 2.39-21.486-6.915-29.487-3.131-2.693-6.529-6.019-10.606-6.019H163.12l74.804-129.562a17.756 17.756 0 0 0-6.515-24.307 17.77 17.77 0 0 0-8.427-2.394 17.743 17.743 0 0 0-14.972 7.501L199.54 96.9l-8.466-14.667a17.743 17.743 0 0 0-14.973-7.5zm49.87 67.948c-3.306 1.15-6.476 4.114-9.059 8.963-6.45 12.107-6.863 31.282-1.204 44.275l69.218 119.885a17.75 17.75 0 0 0 23.397 5.099 17.755 17.755 0 0 0 6.512-24.308L297.46 266.5h26.159a17.75 17.75 0 0 0 16.113-17.713 17.755 17.755 0 0 0-17.795-17.793h-44.975l-50.99-88.315zM106.263 273.027c-3.057 0-6.113.385-9.068 1.147l-12.945 22.42A17.755 17.755 0 0 0 90.76 320.9a17.75 17.75 0 0 0 23.397-5.099l17.99-31.158a28.947 28.947 0 0 0-3.529-3.631c-6.193-5.325-14.274-7.986-22.356-7.986z"/>
  </g>
</svg>
