<svg width="1009" height="447" viewBox="0 0 1009 447" xmlns="http://www.w3.org/2000/svg">
  <title>
    App-Decline
  </title>
  <g fill="none" fill-rule="evenodd">
    <text font-family="Poppins-Medium, Poppins" font-size="16" font-weight="400" letter-spacing="-.4" fill="#57C003" transform="translate(0 -5)">
      <tspan x=".768" y="17">100%</tspan>
    </text>
    <text font-family="Poppins-Medium, Poppins" font-size="16" font-weight="400" letter-spacing="-.4" fill="#57C003" transform="translate(0 -5)">
      <tspan x="3.944" y="116">75%</tspan>
    </text>
    <text font-family="Poppins-Medium, Poppins" font-size="16" font-weight="400" letter-spacing="-.4" fill="#57C003" transform="translate(0 -5)">
      <tspan x="3.016" y="217">50%</tspan>
    </text>
    <text font-family="Poppins-Medium, Poppins" font-size="16" font-weight="400" letter-spacing="-.4" fill="#57C003" transform="translate(0 -5)">
      <tspan x="3.464" y="316">25%</tspan>
    </text>
    <text font-family="Poppins-Medium, Poppins" font-size="16" font-weight="400" letter-spacing="-.4" fill="#57C003" transform="translate(0 -5)">
      <tspan x="907.584" y="447">Share</tspan>
    </text>
    <text font-family="Poppins-Medium, Poppins" font-size="16" font-weight="400" letter-spacing="-.4" fill="#57C003" transform="translate(0 -5)">
      <tspan x="714.432" y="447">Create Content</tspan>
    </text>
    <text font-family="Poppins-Medium, Poppins" font-size="16" font-weight="400" letter-spacing="-.4" fill="#57C003" transform="translate(0 -5)">
      <tspan x="580.496" y="447">Sign Up</tspan>
    </text>
    <text font-family="Poppins-Medium, Poppins" font-size="16" font-weight="400" letter-spacing="-.4" fill="#57C003" transform="translate(0 -5)">
      <tspan x="408.552" y="447">Open App</tspan>
    </text>
    <text font-family="Poppins-Medium, Poppins" font-size="16" font-weight="400" letter-spacing="-.4" fill="#57C003" transform="translate(0 -5)">
      <tspan x="263.432" y="447">Install</tspan>
    </text>
    <text font-family="Poppins-Medium, Poppins" font-size="16" font-weight="400" letter-spacing="-.4" fill="#57C003" transform="translate(0 -5)">
      <tspan x="68.906" y="447">App Page Vie</tspan> <tspan x="169.994" y="447" letter-spacing="-4.5">w</tspan>
    </text>
    <path d="M48 406h960M48 306h960M48 206h960M48 106h960M48 6h960" stroke="#57C003" stroke-linecap="square"/>
    <path stroke="#57C003" stroke-width="3" d="M879.5 295.5h97v109h-97zM719.5 261.5h97v143h-97zM559.5 228.5h97v177h-97zM399.5 115.5h97v289h-97zM239.5 83.5h97v321h-97zM79.5 32.5h97v372h-97z"/>
  </g>
</svg>
