<?xml version="1.0" encoding="UTF-8"?>
<svg width="953px" height="846px" viewBox="0 0 953 846" version="1.1" xmlns="http://www.w3.org/2000/svg" xmlns:xlink="http://www.w3.org/1999/xlink">
    <!-- Generator: Sketch 51.2 (57519) - http://www.bohemiancoding.com/sketch -->
    <title>arthur-dent</title>
    <desc>Created with Sketch.</desc>
    <defs></defs>
    <g id="Page-1" stroke="none" stroke-width="1" fill="none" fill-rule="evenodd">
        <g id="arthur-dent" transform="translate(1.000000, 1.000000)" fill-rule="nonzero" stroke="#57C003" stroke-width="2">
            <g id="Group" transform="translate(475.500000, 422.000000) scale(-1, 1) rotate(-180.000000) translate(-475.500000, -422.000000) translate(0.000000, -0.000000)">
                <path d="M811.5,843 C811.8,842.5 812.9,842 813.9,842 C817.3,842 821.8,839 826.6,833.4 C829.3,830.4 832.4,827.4 833.5,826.9 C836,825.8 839.1,823.8 840.5,822.5 C844.3,818.9 849,812.3 849,810.6 C849,809.1 847.3,810.3 842.2,815.7 C838.4,819.7 834.2,823.2 832.7,823.5 C831.2,823.9 830,824.6 830,825 C830,825.4 827.9,827.9 825.3,830.5 C818.5,837.3 811.6,840.2 800.7,840.8 L791.8,841.3 L782.2,836.4 C772,831.3 771.9,831.2 765.3,824.7 C762.9,822.5 761,821.2 761,821.9 C761,823.6 768.7,830.9 777.1,837.2 C782.5,841.2 792.1,843.8 802.2,843.9 C807,844 811.2,843.6 811.5,843 Z M800,815.7 C800,814.9 797.7,813.8 794.3,812.9 C790.6,812.1 787.3,810.4 785,808.4 C781.5,805.3 775.6,802.9 773.3,803.7 C769.6,805 774.1,810.9 781.3,814.4 C787.3,817.3 800,818.2 800,815.7 Z M855.4,788.7 C855.4,768.6 852.2,752.2 847.1,746.5 C845.3,744.5 843.1,738.1 842.3,732.5 C842.1,730.9 841.5,727.9 840.9,726 C839.6,721 839.8,710.7 841.3,708.8 C845.2,703.9 854.4,698.8 866.7,694.9 C873.7,692.6 881.7,689.9 884.4,688.9 C887.1,687.8 890.3,687 891.5,687 C894.8,687 907,680.6 911.1,676.7 C916.1,671.9 920.6,665.2 924.7,656.2 C926.6,652 928.5,647.6 929,646.5 C931.2,641.8 935.1,620.4 937.1,601.5 C937.6,596.6 938.5,588.9 939.1,584.5 C939.6,580.1 940.5,571.6 941,565.5 C942.6,545.3 945,523.5 946.1,519 C946.7,516.5 947.6,510.9 948,506.5 C948.4,502.1 949.3,492.7 950.1,485.6 C951.2,474.3 951.1,470.7 949.7,457.6 C948.7,449.3 947.8,440.9 947.6,439 C947.4,437.1 946.3,429 945.2,421 C938.3,373.9 937.6,365.6 939.1,346.2 C939.8,337 940.4,324.2 940.4,317.8 C940.5,307.1 940.3,305.9 938.2,303.3 C937,301.8 935.2,299 934.3,297.3 C933.1,294.9 930.8,293.1 925.4,290.5 C921.5,288.6 917.4,287 916.3,287 C913.6,287 911.3,284.2 910.8,280.1 C910.1,275.4 911.6,195.3 913,159.5 C914,135.3 913.9,124.9 912.6,96.5 C911.7,77.8 910.8,61.2 910.5,59.5 C910.3,57.9 909.8,49.8 909.5,41.5 C908.9,27.4 907.6,16.3 906.5,15.2 C905.6,14.3 906,35.9 907.5,70 C908.8,99.4 909.3,144.5 908.5,165.5 C908.4,169.4 907.7,195.2 907,223 C906.3,253.3 905.4,274 904.8,274.8 C903.2,276.7 900.2,276.2 898.8,273.8 C898.1,272.4 897.5,266.2 897.3,257.5 C897.1,249.8 896.5,239.5 895.9,234.5 C895.2,228.9 894.7,194.1 894.5,142 C894.3,69.1 894,57.4 892.5,50 C891.6,45.3 890.5,35.8 890,28.8 C889.1,16.2 887.3,3 886.4,2.1 C885.3,0.9 886.2,23 887.6,29.8 C888.5,34.2 889,40 888.7,43.5 C888.5,46.8 888.7,54.2 889.1,60 C889.9,69.8 892.5,151.3 892.3,159 C891.8,176.4 892.1,249.8 892.6,266 C893.5,292.5 893.5,294.7 893.2,318.5 C892.8,343.3 894.5,392.5 896,398 C896.8,400.8 896.8,405.9 896.1,414.9 C895.3,425.9 894.7,428.7 892.3,433.7 C890.4,437.6 888.5,440 886.5,441 C884.9,441.8 883.3,442.6 883.1,442.7 C882.9,442.9 883.9,443.9 885.3,445 C888.5,447.5 889.6,450.6 887.9,452.6 C887,453.7 885.5,453.9 881.6,453.4 C875.4,452.6 874,451.6 874,447.9 C874,444.9 876.3,443 879.9,443 C882.4,443 882.4,442.7 880.5,439 C879.1,436.3 879.1,435.4 880.5,429.8 C884.8,413.1 885.1,409 884.4,371.5 C883.1,290.7 882.8,281.4 881.9,278.5 C878.5,268.3 876.2,202.3 878.1,171.5 C879.5,149.3 879.4,118.3 877.9,104.5 C877.3,99.6 876.5,87.9 876,78.5 C875.2,61.7 874.8,58.7 871.7,48 C870.9,45 869.9,36.9 869.6,30.1 C868.8,15.3 867.4,9 864.8,9 C863.8,9 862.7,9.6 862.4,10.4 C861.2,13.6 858.2,9.7 855.6,1.6 C855.1,0.2 854.6,-1.13742349e-13 853.8,0.8 C853,1.6 853,2.9 853.8,5.8 C854.5,8 855,11.1 855,12.7 C855,14.3 855.4,16 855.8,16.6 C856.3,17.1 857.2,20.2 857.9,23.5 C858.6,26.8 859.5,31.1 860,33 C860.5,34.9 860.8,42.8 860.8,50.6 C860.9,60.9 861.3,65.7 862.4,68.6 C867,80.2 868.1,100.2 865.6,125.5 C864.2,139.7 864.1,216.8 865.5,223.5 C865.8,225.2 866.3,249.9 866.6,278.5 C866.9,307.1 867.4,340.2 867.9,352 C868.3,364.1 868.2,374.7 867.7,376.2 C865.8,382.1 860.2,380 857.5,372.3 C856.6,369.7 855.1,365.7 854.2,363.5 L852.5,359.6 L851.8,364 C850.3,373.8 847,402.3 846.5,410.1 C846.3,414.7 845.4,420.4 844.6,422.9 C843.8,425.4 842.9,429.2 842.5,431.3 C841.6,436.7 839.2,437.8 828.2,437.8 C819.6,437.8 818.8,437.7 817.4,435.5 C815.9,433.1 810.4,407.1 807.6,389 C806.7,383.2 805.5,375.7 805,372.4 C804.4,369 804,361.8 804,356.4 C804,347.9 804.5,345 807.6,335 C817.6,302.7 817.8,302.5 823,307.5 C825.7,310.1 826,311 826,316.6 C826,320.4 824.9,326.5 823.2,332.6 C815.3,360.1 815.7,357.5 817,371.7 C818,383.3 819.6,390.9 822,396.5 C824.3,401.6 826.9,413.3 827.5,420.9 C828.6,433.6 830.4,428.7 831.1,411 C831.5,403 832.5,392.9 833.3,388.5 C834.1,384.1 835.1,373.3 835.4,364.5 C835.8,355.7 836.6,345 837.2,340.7 C838.8,330.3 837.2,317.3 833.6,310.2 C829.3,301.7 827.3,295.3 823.1,277 C818.8,257.7 817.8,247.7 817.5,219 C817.3,198.9 818.4,189.8 823.8,165 C825.5,157.6 827.1,148.1 827.5,144 C827.8,139.9 828.8,133.4 829.7,129.7 C832.1,118.7 831.4,112.5 823.6,78 C820.5,64.1 819,55.8 819,52.7 C819,49 816.7,45 815.6,46.8 C814.5,48.6 812,47 812,44.6 C812,42 813.8,40 815.5,40.6 C816.2,40.9 817.1,40.7 817.4,40.2 C818.2,38.9 814.7,28.6 810.3,19.3 C808.3,15 806.3,10.6 806,9.5 C805.5,8 804.8,9.3 803.1,14.5 C800.2,23.4 798.3,27 796.5,27 C794.8,27 790.8,21 789.1,15.8 C788.3,13.3 787.4,12.3 786.4,12.7 C785.6,13 785,13.8 785,14.4 C785,15.1 784,17.6 782.8,20.1 C780.9,23.7 780.5,25.9 780.7,32.2 C781,42.2 781.8,43.7 786.4,43.2 C789.1,42.9 790.9,41.8 793.4,38.9 C796.7,35 798,34.8 798,38 C798,39 798.7,40.3 799.5,41 C802.8,43.8 800.2,74.7 796,83.1 C794.4,86.1 794,89 794,96.5 C794,106.1 793.6,107.5 789,116 C786.7,120.1 786.5,124.8 788.3,129.3 C789.6,132.4 790.7,137 792.9,149 C793.5,152 794,161.7 794.1,170.5 C794.2,186.5 796.6,226.5 797.5,228 C797.8,228.5 798,239.8 798,253.2 C798,270.6 797.6,279.9 796.5,286 C795.7,290.7 794.3,298.8 793.5,304 C792.6,309.2 791.5,314.9 791,316.5 C790.2,319.2 787.6,333.3 783.5,357 C781.7,366.9 779.4,397.1 778.4,421.8 L777.7,439.1 L774.2,442.5 C772.2,444.4 769.3,446.2 767.6,446.6 C765.1,447.1 764.2,446.8 762.3,444.6 C759.8,441.7 759.4,439 761,435.9 C761.8,434.5 761.7,434 760.7,434 C756.8,434 751,422.2 749,410 C747.8,403.2 748,400.5 750.3,382.5 C755,346.6 755.2,343.2 754.5,313.6 C754.1,294.2 753.3,280.4 751.8,269 C750,254.8 749.8,247.8 749.9,218.5 C750,191.4 750.4,183.3 751.6,178.5 C752.4,175.2 754.2,167.8 755.5,162 C756.8,156.2 758.4,150.2 759,148.5 C759.8,146.6 760.6,135.6 761.1,118.5 C761.6,103.7 762.4,86.6 763,80.5 C763.6,74.5 764.3,64.9 764.7,59.3 L765.3,49 L762.2,50.1 C759.3,51.1 758.8,50.9 756.6,48.4 C754.7,46.1 754,45.8 752.8,46.8 C750.3,48.8 748.1,62.7 746.5,87.5 C745.6,100.7 744.3,114.2 743.5,117.5 C742.1,123.7 741,137 740.5,155 C740.1,167.2 738.5,186.7 737.1,196 C735.9,203.9 732.4,219.5 731.6,220.9 C730.9,221.9 730.9,256.2 731.5,265.5 C731.7,268.3 732.3,287.4 732.9,308 C734.1,348.9 736.7,375.4 741.5,396.5 C742.3,399.8 743.2,406.8 743.6,412 C743.9,417.2 744.9,424.4 745.7,427.9 C747,433.7 747,434.4 745.4,436.1 C743.2,438.5 737.8,438.6 735.7,436.3 C733.2,433.5 730.1,416.8 728,395 C726.9,383.3 725.6,375.5 724,371 C722.9,368 720.2,347.4 718.5,329 C717.3,316.1 717.3,315.8 717.1,323.5 C716.6,344.2 715.9,363.6 715.5,364.7 C715.3,365.4 715.5,371.8 716,378.9 C716.9,391.2 717.8,396.5 722,412.5 C729.9,442.7 730.1,443.3 728.1,446 C726.1,448.8 724,449.5 720.4,448.6 C716.7,447.6 714.2,440.8 710,421 C709.4,418 708.3,413.9 707.5,412 C706.8,410.1 705.7,400.3 705,390.3 C703.9,372.5 701.8,270.9 702.5,268.6 C702.7,268 703.2,223.4 703.5,169.5 C703.8,115.6 704.5,65.9 704.9,59 C705.6,47.1 708,30.7 710,22.9 C710.6,20.9 711,16.3 711,12.6 C711,6.7 710.8,6 709.1,6 C706.4,6 706.1,6.8 705.4,14.2 C705.1,17.6 704.2,22.2 703.4,24.3 C702.6,26.4 702.1,30.7 702.2,34.1 C702.4,37.6 702,40.4 701.4,40.8 C700,41.7 698.6,55.1 698.8,65 C700.1,130.4 700.3,171.7 699.5,229 C698.8,281.7 699.2,279.5 689.4,283 C681.6,285.7 679.1,287.6 673.9,294.6 C671.1,298.4 669.4,302.2 668,307.6 C666.3,314.6 666.2,316.6 667.3,333.9 C668.2,350.4 668.2,353.3 666.7,359.2 C664.6,367.6 664.5,372.9 666.6,375.8 C667.9,377.6 668.1,379.9 667.7,386.3 C667.5,390.8 666.5,410.6 665.5,430.3 C663.8,464.5 663.8,466.4 665.5,474.3 C666.5,478.8 667.4,484.3 667.7,486.5 C668,490.1 671.5,514 674,530.5 C674.5,533.8 675.2,540.3 675.5,545 C676.4,556.3 676.8,560.5 678,566.5 C678.5,569.3 679.4,576 680,581.5 C680.6,587 681.5,593.5 682,596 C682.5,598.5 683.1,604.4 683.4,609.2 C683.7,614 684.5,619.1 685,620.5 C685.5,621.9 686.2,626.6 686.5,630.8 C687.4,644.4 688.7,652.6 690.9,657.6 C693.3,662.9 697.1,669 698.1,669 C698.5,669 700.1,670.2 701.8,671.8 C704.3,674.2 711,677 714,677 C716.6,677 714.6,673.8 710.8,671.9 C704.5,668.8 696.7,662.7 695.4,659.9 C691.1,650.9 690.3,646.6 687,615.5 C686.5,610.6 685.5,603.4 684.9,599.5 C684.3,595.7 683.5,588.2 683,583 C682.5,577.8 681.8,572.7 681.5,571.7 C681,570.5 682,568.9 685.1,565.9 C689.5,561.9 690.1,561.8 695.7,563.5 C697.3,564 698.5,563.6 700.2,561.8 C704.8,557 713.3,555.4 716.6,558.7 C718,560.1 718.1,561.6 717.6,568.8 C717.2,573.4 716.5,578.1 715.9,579.3 C715.4,580.5 714.4,585.9 713.6,591.3 C712.4,599.1 711.5,602 709.1,605.7 C705.7,610.9 705.1,615.4 707.5,619.9 C708.9,622.7 709,622.8 712.7,621.5 C717.3,619.9 717.7,618.4 715.5,611.4 C713.8,605.8 713.8,601.6 716,591 C716.6,588 717.5,582.8 718,579.5 C718.5,576.2 719.3,572.3 719.9,570.8 C721.6,566.3 724.9,546 725.5,535.5 C725.9,530 726.6,523.5 727.1,521.2 C727.6,518.8 727.7,514.6 727.4,511.8 L726.7,506.8 L725,511.7 C722.9,517.8 719.7,518.4 717,513.2 C716,511.4 714.9,510.4 714.5,510.9 C713.8,512.1 715.3,526.9 717.2,538.5 C718.6,547 717.9,550.3 714.4,551.9 C710.6,553.6 687,555.3 683.7,554.1 C679.9,552.6 678.6,549.5 677.8,540 C677.4,535.3 676.7,528.8 676.2,525.5 C675.7,522.2 674.5,513.4 673.6,506 C672.7,498.6 671.5,490 670.9,487 C668.9,475.5 668.3,461.4 669.1,442.8 C672,376.8 671.6,379.9 678,376.8 C679.9,375.8 681.9,374.9 682.4,374.7 C682.9,374.5 682.5,373.2 681.6,371.7 C679.8,369.1 679.8,369 682.3,367.9 C684.5,366.9 684.7,366.5 683.5,365.4 C682.7,364.6 680.1,363.1 677.7,362.1 C672.2,359.7 672.1,359.2 670.9,339 C669.4,313.9 669.2,316 672.5,313.6 C674.1,312.5 676.3,311 677.4,310.5 C678.7,309.9 679.7,308.1 680.1,306 C681,300.2 683,297.9 686.8,298.2 C690.2,298.4 692,297 692,293.9 C692,291.7 695.6,288.6 697,289.5 C700.4,291.6 701,296.5 700.5,318.7 C699.8,354.4 699.2,361.5 696.6,364.3 C694.8,366.2 694.6,367.1 695.4,369 C696.3,370.9 696,371.5 693.7,373.2 C690.2,375.7 690.3,376.9 693.9,378.1 C695.5,378.7 697.1,379.9 697.5,380.8 C697.8,381.7 698.8,389.6 699.6,398.5 C700.4,407.3 701.4,417 701.9,420 C704.4,435.2 706,446.6 707,457 C708.6,473.7 711,492.9 712.1,497.7 C712.6,500 713,503.4 713,505.2 C713,507.7 713.3,508.1 714,507 C714.5,506.2 715,503.7 715,501.4 C715,499.2 715.6,496.5 716.4,495.4 C717.8,493.5 717.9,493.5 720.7,495.6 C722.2,496.8 723.8,499 724.1,500.6 L724.8,503.5 L724.9,500.2 C724.9,498.4 724.1,493.7 723,489.8 C720.8,481.8 720.5,475.9 722.1,472.9 C724.9,467.6 759.7,450 767.4,450 C768.6,450 770.2,449.4 770.8,448.8 C771.7,447.9 778.4,447.3 793.8,447 C812.5,446.5 816,446.2 818.9,444.6 C821.7,443.1 824.2,442.7 831.2,442.9 C836.1,443 841.5,443.7 843.3,444.4 C845.1,445.2 849.9,446.8 854,448.1 C860.9,450.2 866.1,452.3 879.5,458.6 C882.3,459.9 886,462.4 887.9,464.2 C891.1,467.3 891.2,467.7 890.6,472.8 C890.2,475.8 889.5,479 889,480 C888.4,481 888,483 888,484.4 C888,485.8 887.6,487.1 887.1,487.4 C884.1,489.3 885.3,508.6 890.8,546.5 C891.9,554.2 893.3,566.4 893.9,573.5 C894.6,580.7 895.7,590.2 896.5,594.7 C897.3,599.1 898.2,611.2 898.6,621.5 L899.3,640.1 L902.1,642 C905.7,644.7 906,644.6 905.3,640.6 C904.9,637.9 905.3,636.4 907.3,633.8 C909.4,631 909.7,629.8 909.3,625.8 C908.8,621.8 909.1,621 910.9,619.8 C913.6,618.1 913.6,616.3 910.5,611.8 C909.1,609.8 908,607.8 908,607.4 C908,607 906.4,604.5 904.4,601.7 C898.7,593.7 897.1,589.4 897.7,583.6 C898.4,577.4 899.9,576 906.2,576 C909.9,576 910.8,575.7 910.4,574.5 C910,573.6 908,573 904.7,572.8 C899.9,572.5 899.5,572.3 899.5,570 C899.5,567.8 900,567.4 903.5,567 L907.5,566.4 L902.3,563.1 C899.4,561.2 897,559.4 897,559.1 C897,558.3 899.7,539.4 900.9,531.5 C902,524.2 901.4,522.8 899.2,527.2 C897.1,531.3 893.7,532.1 891.7,528.8 C890,526.1 888,509.4 888,497.9 C888,491.2 888.5,488.7 891,482.8 C892.8,478.6 894,474 894,471.4 C894,463.9 898,458.9 902.9,460.5 C906.9,461.7 908.4,474.8 906.6,494 C906.2,499.2 906,503.3 906.3,503 C907.7,501.7 909,484 909.5,459.5 C909.8,444.7 910.5,422.2 911.2,409.7 C912.3,386.2 911.9,380.1 908.4,367.5 C905.6,357.5 905,351.2 904,325.4 C902.9,297.2 903.2,294 907.2,294 C910.8,294.1 913,296.4 913.8,301.1 C914.4,304.8 914.9,305.5 917.7,306.2 C919.4,306.7 921.1,307.9 921.5,308.9 C921.8,309.9 924,312.1 926.3,313.6 C936.6,320.7 937.4,323.2 935.5,341.8 C932.8,366.7 932.7,369.1 934.3,379.5 C938.9,409.5 940.1,417.6 941.1,428.5 C941.7,435.1 942.7,442.3 943.2,444.5 C946.6,457.7 947.5,472.5 946,488.3 C945.4,495 944,510.2 942.8,522 C941.7,533.8 940.5,547.8 940.1,553 C939.2,564.3 938.1,567.3 934.3,568.8 C930.2,570.6 927.3,570.4 919,568.2 C914.9,567.1 911.1,566.4 910.7,566.7 C909.3,567.6 913.2,571 915.6,571 C920.2,571 927.8,573.2 928.4,574.6 C928.8,575.6 927.9,576.6 925.5,577.6 C923.6,578.4 922,579.4 922,579.8 C922,580.3 924.8,581.3 928.3,582.1 L934.5,583.5 L934.4,590.5 C934.4,594.4 933.8,601.1 933.1,605.5 C932.4,609.9 931.5,617.8 931,623 C929.3,641.3 923.9,655.1 913,669.1 C908.6,674.6 906.3,676.6 902.5,678 C900.9,678.7 898.4,679.7 897,680.4 C895.6,681.1 891.8,682.5 888.5,683.4 C885.2,684.3 880.3,685.8 877.6,686.6 C875,687.3 871.7,688 870.4,688 C869.2,688 867.8,688.5 867.5,689 C867.2,689.6 866,690 864.8,690 C863.7,690 861.7,690.9 860.3,692 C857.6,694.1 851.6,694.7 849.1,693.1 C848.3,692.6 847.2,690.7 846.6,688.8 C845.6,685.8 845.1,685.5 841.5,685.4 C839.3,685.4 836.8,685 836,684.4 C831.6,681.7 824,675.7 824,674.9 C824,674.4 825.2,673.3 826.6,672.4 L829.1,670.7 L826,669.3 C824.2,668.6 821.9,668 820.9,668 C819.9,668 817.4,667 815.4,665.8 C810,662.6 796.1,662.9 789.4,666.3 L784.7,668.7 L787.9,669.3 C790.8,669.9 791,670.1 789.6,671.5 C788.8,672.3 786.6,673.3 784.9,673.7 C783.1,674 780.4,674.9 779,675.7 C775.7,677.4 773,677.4 773,675.6 C773,674.8 774.4,673.9 776.3,673.5 C781.2,672.4 784.4,669 780.4,669 C777.1,669 760.8,679.6 759.7,682.5 C759,684.2 751.8,688 749.2,688 C748.2,688 745.9,686.9 744,685.5 C742.1,684.1 739.9,683 739.1,683 C738.2,683 736,682.1 734.2,681 C732.4,679.9 730.1,679 729.2,679 C728.2,679 725.2,678.3 722.6,677.4 C720,676.5 717.6,676.1 717.2,676.5 C716.1,677.5 722.2,682 724.7,682 C725.9,682 729,683.1 731.6,684.5 C734.2,685.9 737.1,687 738,687 C739,687 740.3,687.7 741,688.5 C741.7,689.3 742.8,690 743.5,690 C744.2,690 748,691.4 752.1,693.1 C756.2,694.8 761.7,696.8 764.4,697.5 C770.3,699.2 773.6,702.1 776.2,708 C777.8,711.8 778,713.1 777,717.5 C776.4,720.2 775.4,723.5 774.8,724.7 C774.2,726 774,727.3 774.3,727.7 C774.7,728 775,727.8 775,727.2 C775,725.4 782.2,718.4 787,715.6 C789.5,714.1 794.7,711.3 798.7,709.4 C804.8,706.4 806.6,705.9 810,706.5 C812.2,706.9 814.2,707.6 814.6,708.1 C814.9,708.6 816.2,709 817.4,709 C818.7,709 820.3,709.6 820.9,710.4 C822.1,711.8 826,713.2 826,712.2 C826,711.1 822.6,708 821.3,708 C820.6,708 820,707.6 820,707.2 C820,705.6 812.4,703.6 807.6,703.9 C802.7,704.2 800.6,705.1 791.6,710.9 C783.4,716.1 779,714.9 779,707.4 C779,699.9 778,697 775.5,697 C772.8,697 767,692.5 767,690.5 C767,688.2 772.1,684 778,681.3 C787.6,677 793,675.7 802.6,675.8 C811.1,675.9 815.8,677 825.5,681 C826.6,681.4 828.9,682.3 830.6,683 C834.5,684.4 841.4,695.4 840.4,698.5 C840.1,699.6 839.5,702.8 839.1,705.6 C838.1,712.9 836.7,714.3 831.2,713.5 L826.8,712.8 L831.1,717.2 C834.2,720.3 836.4,723.9 838.3,729 C841.1,736.3 841.2,736.9 841.2,757.1 C841.3,776.6 841.4,777.7 843.1,777.3 C846.5,776.4 849.8,778 852.1,781.6 C854,784.7 854.2,786.1 853.7,792.7 C853.3,798.4 853.4,800 854.3,799.1 C855,798.4 855.4,794.4 855.4,788.7 Z M830.5,785 C830.8,784.5 830.3,781.5 829.3,778.4 C828,774.3 826.7,772.2 824.7,771 C821.4,768.9 813,767.6 811.7,768.9 C810.7,769.9 813.2,778.4 815.5,781.4 C817.7,784.3 829.2,787.1 830.5,785 Z M793.9,783.6 C797.2,781.8 799,778.2 799,772.9 L799,768.9 L791.4,769.2 C784.9,769.5 783.5,769.8 782.6,771.5 C782.1,772.6 780.7,774.8 779.6,776.4 L777.7,779.3 L780.5,781.4 C785.6,785.1 789.6,785.8 793.9,783.6 Z M758.1,771.4 C759.4,769.9 762.5,769.9 766.1,771.4 C767.6,772 767.8,770.8 768.3,760.8 C768.7,754.6 769.3,746.9 769.8,743.8 C770.2,740.6 770.2,738 769.8,738 C769.4,738 769,738.9 769,740 C769,741.2 768.5,742.6 768,743.3 C764.2,747.8 760.5,753 759,756 C757.3,759.3 755,768.4 755,771.5 C755,773.5 756.4,773.4 758.1,771.4 Z M275.2,721.2 C282.2,720.6 288.4,719.9 288.9,719.5 C290.8,718.4 301,716 304,716 C305.6,716 307.9,715.6 309.2,715.1 C310.5,714.6 314.2,713.2 317.5,711.9 C334.8,705.5 340.8,702.3 352.2,693.7 C368,681.8 374.8,673.6 389.8,648.5 C394.1,641.3 395.5,640.3 406,638 C420.4,634.9 421.7,634.5 433,629.8 C448.1,623.6 453.7,620.4 455.4,617.3 C456.7,614.7 456.6,614.4 454.4,612.3 C451.3,609.4 451.7,608.5 461.4,597.6 C465.3,593.1 471,585.9 474,581.5 C479.5,573.6 490.8,551.6 497,537 C498.7,532.9 501.4,527.5 503,525 C504.6,522.5 506.6,518.5 507.6,516 C508.5,513.5 510.1,510.4 511,509 C512,507.6 513.1,505.4 513.5,504 C513.9,502.6 515.3,499.9 516.6,498 C517.8,496.1 520.3,490.7 522.1,486 C525.1,478.1 525.4,476.6 525.4,465.5 C525.4,456.7 525,452.1 523.7,448.5 C517.9,431.4 515.1,403.6 514.5,356 C514.2,338.1 513.6,320.4 513,316.5 C511.9,309.8 508.1,294.8 505.8,288.5 C502,278.2 488.1,252.2 484,247.7 C483.1,246.8 481.7,244.7 481,243.2 C480.2,241.7 478.6,239.4 477.4,238 C476.3,236.6 474.2,233.8 472.8,231.7 C468.4,225.1 458.1,214.3 453.5,211.3 C447.6,207.7 445.1,202.4 443.9,191.8 C441.7,171.2 439,152.8 437,145.5 C436.4,143.3 435.5,139.9 435,138 C433.7,132.7 423.9,104.6 423,103.5 C421.9,102.1 419.4,88.5 418,76.5 C417.4,71 416.4,64.5 415.8,62 C415.2,59.5 414.5,50.8 414.1,42.6 C413.7,32.7 413.1,27.5 412.3,27.3 C410.7,26.7 409.6,45.6 410.4,59.4 C410.8,65.5 411.2,72.1 411.3,74 C411.5,77.3 411.3,77.5 407.9,77.8 C404,78.1 401,76.5 392.3,69.3 C389.6,67.1 383,62.5 377.5,59 C372,55.5 365.5,51.2 363,49.3 C360.5,47.4 355.8,43.9 352.5,41.5 C349.2,39.1 346,36.6 345.4,36.2 C344.8,35.7 341,33.1 336.9,30.4 C332.8,27.7 329.3,25.3 329,25 C328.3,24.3 318.5,19.6 311,16.4 C307.5,14.9 301.9,13.4 298.5,13 C295.2,12.7 291.6,11.9 290.5,11.3 C287.9,9.9 253.7,8.9 244,10 C226.6,11.9 202,21 194,28.5 C192.6,29.7 189,32.3 186,34.1 C183,35.9 178.7,38.8 176.5,40.5 C174.3,42.3 170.5,45 168.1,46.6 C160.1,51.9 159.3,52.5 154.4,56.7 C151.7,59 146.1,63.5 142,66.8 C134.6,72.6 132,75.3 119.1,89.9 C113.5,96.3 112.4,97.1 109.6,96.8 C106.9,96.5 106.5,96.1 106.2,93 C106,91.1 106.5,86.6 107.4,83 C112.9,59.8 114.1,44.7 111.4,33.3 C109.7,25.9 108.7,24.1 107.5,26 C107.1,26.6 107.5,27.9 108.3,28.8 C109.4,29.9 109.6,31 109,32.1 C108.5,33 107.8,39.7 107.5,47 C106.9,60 103.8,75.5 98.1,94.5 C97.1,97.8 95.5,105 94.5,110.5 C92.7,121.1 90,134.2 87.4,145 C84.1,158.5 81.8,168.8 80.1,177 C79.1,181.7 76.9,191.4 75.2,198.5 C73.5,205.7 71.8,212.8 71.5,214.4 C71.2,216 69.2,219 67.2,221.1 C63.9,224.5 61,228.2 50.9,241.4 C49.3,243.5 48,245.6 48,246.1 C48,246.5 45.6,249.8 42.8,253.4 C39.9,257 36.6,261.2 35.5,262.7 C32.1,267.5 25.3,281.3 22.6,289.1 C21.1,293.2 19.5,297.4 19,298.5 C16.6,303.6 12.5,326.8 10.6,346.5 C9.8,354.2 8.5,363.9 7.6,368 C6.5,372.7 5.9,380.5 5.9,389 C5.8,396.4 5.4,403 5,403.5 C4.5,404.1 3.9,408.3 3.7,413 C3.4,417.7 2.5,430.1 1.7,440.5 C-0.8,470.6 0.4,517.2 3.9,531.5 C4.4,533.7 6,540.2 7.3,546 C11.4,563.5 18.6,581.2 26.8,594 C39,613.1 39.9,614.3 47.8,624 C61.1,640.1 86,665.6 93.5,670.7 C96.8,673 101,676.4 102.8,678.4 C104.7,680.4 106.7,682 107.3,682 C108,682.1 110.1,683.3 112.1,684.8 C114.1,686.3 118.2,689.3 121.1,691.5 C127.8,696.6 133.7,700 135.6,700 C136.4,700 137,700.5 137,701 C137,701.6 137.7,702 138.6,702 C139.4,702 142,703.1 144.3,704.4 C149.5,707.4 166.5,713 170.5,713 C172.2,713 174.8,713.7 176.4,714.5 C177.9,715.3 181.1,716 183.4,716 C187.3,716 193,717.6 195.8,719.4 C196.5,719.8 204.8,720.6 214.2,721.1 C223.6,721.5 231.4,722.1 231.6,722.2 C232.2,722.8 263.2,722.1 275.2,721.2 Z M765.3,420.3 C764.5,414.9 764.1,408.7 764.4,406.5 C765,401.7 768.7,365.4 770,352 C771.1,339.1 772.9,327.3 774.2,324.1 C774.7,322.7 775.8,317.9 776.5,313.5 C777.2,309.1 779.3,299 781.1,291 C784.1,278.1 784.4,275 784.4,262.5 C784.3,254.8 783.7,243.6 783,237.5 C782.1,230.1 781.8,214.2 781.9,188.5 C782,166.9 781.6,149.2 781.1,147.5 C777.7,136.7 774.1,127.7 773.7,129 C773.4,129.8 772.9,133.2 772.6,136.5 C772.3,139.9 771.4,144.1 770.7,146 C769.9,147.9 768.9,153.1 768.6,157.4 C768.2,161.8 767.2,168.2 766.4,171.7 C764,182.3 761.8,221.7 762.9,234.5 C764.2,248.6 764.8,258.4 766.2,291.5 C767.5,320.8 767.4,338.2 766,344.5 C765.5,346.7 765,351.7 765,355.5 C765,363.5 762.6,381.3 761.1,385.4 C759.6,389.3 759.8,398.8 761.6,410.5 C762.5,416 763.4,423.4 763.7,426.9 C764.2,432.3 764.5,433.1 765.5,431.7 C766.4,430.4 766.4,428 765.3,420.3 Z M852.3,290.5 C852.5,253.2 852.1,236 851.1,226.5 C850.4,219.4 849.5,200.2 849.1,184 C848.5,156.6 848.7,145 850.5,102.5 C851.1,89.3 850.9,85.3 849.5,79.5 C848.6,75.7 847.5,70.3 847,67.5 C846.5,64.8 845.1,58.3 844,53.1 C842.9,47.9 842,41.8 842,39.5 C842,34.3 838.6,20.5 836.9,18.4 C836.2,17.5 835.4,15 835.1,12.7 L834.5,8.5 L832.5,10.6 L830.5,12.6 L829,9.6 C828.2,8 826.9,6.4 826.1,6.2 C824.1,5.5 825.4,13.1 827.5,14.2 C828.3,14.7 829,16.4 829,18.1 C829,19.7 830.1,23.8 831.5,27.3 C835.6,37.2 836,40.4 835,54 C834.1,65.5 834.2,67.1 836.1,73.5 C842.8,96 844,114.8 840.1,141 C839,149 837.5,159.3 837,164 C836.4,168.7 835.4,175 834.7,178 C832.3,189.1 834.6,271.8 837.8,289.7 C838.8,295.3 839.8,302.9 839.9,306.6 C840,310.4 840.8,315.2 841.6,317.5 C846.1,329.9 849.9,343.5 850.1,347.1 C850.2,348.7 850.5,348.2 851.2,345.5 C851.7,343.2 852.2,319.8 852.3,290.5 Z M718.9,248 C719.5,238.4 720.3,228.5 720.9,226 C723.8,213 725,202.6 726,181.1 C726.6,168.1 727.5,152.3 728.1,146 C731.9,103.3 734.5,48.2 732.7,46.4 C732.3,46 730.3,46.1 728.2,46.6 C725.3,47.3 724.1,48.3 722.7,51.3 C719.7,57.3 717.9,67.8 718.1,77.5 C718.2,82.5 717.8,96.4 717.2,108.5 C716.4,123.6 716.3,134.7 717,144 C718.5,164.8 718.5,177.2 717.1,193.5 C715.2,214.6 714.7,247.6 716.2,258.4 C716.9,263.2 717.5,266.8 717.7,266.4 C717.9,265.9 718.4,257.6 718.9,248 Z M780.5,102.7 C780.7,101.5 780.8,96.2 780.7,91 C780.5,81.8 780.6,81.3 784.3,74.6 C786.3,70.8 788,66.9 788,66 C788,65 788.7,62.6 789.5,60.7 C791.1,56.8 791.5,49.3 790.1,47.2 C789.6,46.4 787.9,46 785.9,46.2 C782.8,46.5 782.4,46.8 781.9,50.5 C781.5,52.7 780.7,57.7 780.1,61.5 C779.4,65.4 778.4,75.5 777.9,84 C777.5,92.5 776.8,101.2 776.4,103.3 C775.8,107 775.9,107.2 777.9,106.1 C779,105.5 780.2,103.9 780.5,102.7 Z M735,31.6 C736.4,21 736.8,11.5 735.9,10.6 C733.8,8.5 729.3,14.2 727.9,20.7 C725.9,30.2 725.8,31.2 726.8,33.3 C727.3,34.5 728.2,36.7 728.9,38.3 C729.5,39.9 730.7,41 731.8,41 C733.5,41 733.9,39.7 735,31.6 Z M757.8,38.9 C758.8,37.4 759.8,37 761.6,37.4 C762.9,37.8 764,37.7 764,37.3 C764,36.8 764.1,30.6 764.3,23.3 L764.5,10.2 L761.3,11.5 C757.9,12.9 757,12.2 757,7.9 C757,6.9 756.5,6 755.9,6 C754.9,6 755,11.4 756.1,14.5 C756.3,15.1 756.1,15.6 755.6,15.7 C755.1,15.8 754.3,16.4 753.9,17.2 C752.9,18.7 752.7,39.4 753.7,40.3 C754.9,41.6 756.5,41 757.8,38.9 Z" id="Shape"></path>
                <path d="M856.3,442.9 C852,441.6 850.6,439 852.7,436.1 C853.5,434.8 854.4,431.7 854.5,429.1 C854.7,426.6 855.9,420.7 857.3,416 C858.6,411.3 860.5,403.2 861.5,398 C862.5,392.8 863.6,388.1 864,387.7 C865.9,385.6 869,388.5 872.7,395.9 C876.5,403.1 876.7,404 876,408.7 C874.9,415.2 869.3,428.8 866.4,431.7 C865.1,433 863.1,434 861.9,434 C860.1,434 860,434.2 861,435.5 C861.7,436.3 862.9,437 863.6,437 C865.8,437 865.2,440.7 862.8,442.4 C861.6,443.3 860.3,444 860,443.9 C859.7,443.9 858,443.4 856.3,442.9 Z" id="Shape"></path>
                <path d="M803.3,179.8 C802,178.3 800.5,148.9 800.6,129 C800.7,111.7 801.7,102.4 803.8,100.4 C805.3,98.9 805.6,99 807.5,101.3 C810.4,104.6 814.3,126.1 815.7,146.5 C816.3,155.3 813.7,171 810.7,176.4 C808.4,180.7 805.2,182.1 803.3,179.8 Z" id="Shape"></path>
                <path d="M241,715 C239.6,714.6 233.3,714.2 227,714.1 C213.1,714 201,712.6 191.5,709.9 C187.7,708.9 183.1,708 181.4,708 C179.7,708 176.4,707.4 173.9,706.6 C171.5,705.8 165.7,704.2 161,702.9 C156.3,701.6 152.1,700.3 151.5,699.9 C151,699.5 144.3,696 136.7,692.1 C129.1,688.2 120.8,683.3 118.2,681.2 C115.6,679.1 111,675.7 108,673.8 C89.9,662.2 62.1,634.3 42.3,607.9 C30.8,592.5 17.8,564.6 13,545 C12.6,543.1 11.5,539 10.6,536 C8.5,528.7 6,501.7 6,486.9 C6,471.9 7.7,433.1 9,417.5 C9.5,410.9 10.4,397.7 10.9,388.2 C11.7,373.4 12.1,370.5 14,367.5 C17,362.7 21.4,359.3 26.3,357.9 C34.7,355.6 43,352.7 44.4,351.6 C45.3,351 46.4,348.3 47.1,345.5 C49.5,335.2 51,332 53.5,332 C54.8,332 56.5,332.7 57.4,333.5 C59.2,335.4 59.5,337.2 61,356 C61.7,364 62.5,374.6 63,379.5 C63.5,385.3 63.2,395.3 62.3,407.5 C61.5,418 60.6,429.9 60.3,434.2 C59.9,439.9 60.2,443 61.4,446.7 C62.6,450.2 63.3,457.7 64,475 C64.5,487.9 65.5,501 66.1,504 C68.7,516.8 73.7,531 76,532.5 C77.9,533.7 77,529 72.9,517.6 C67.3,501.6 66.9,498.5 66.4,474 C66.2,462.2 65.5,450.1 64.9,447.3 C64,443.5 63.9,437.9 64.6,427.3 C65.6,409.4 65.4,381.7 63.8,345.5 C62.7,318.5 63,311.3 66.1,291 C66.6,288 67.4,282.8 67.9,279.5 C68.4,276.2 69.2,270.8 69.8,267.5 C70.4,264.2 71.3,257.9 72,253.5 C72.6,249.1 73.5,243.3 74,240.5 C74.5,237.8 75.4,231 76,225.5 C77.2,215.2 81.3,192.8 83,187.5 C83.6,185.9 85.4,178.7 87,171.5 C95.6,134.8 97.6,129.8 112.1,108 C116.3,101.7 121.9,94.2 124.6,91.5 C132.9,83 145.8,71.3 155,64.1 C160,60.1 160.8,59.8 165,60.4 C169.3,60.9 169.6,60.8 172.3,57.2 C173.8,55.2 178.8,49.7 183.3,45 C191.1,36.8 192.2,36.1 207,28.8 C217.3,23.7 224.5,20.8 228.5,20.1 C231.8,19.6 238.3,18.4 243,17.6 C253.5,15.7 262.5,15.7 280.5,17.5 C294.3,18.9 303.4,20.7 309.4,23.4 C311.1,24.2 314.3,25.4 316.5,26 C318.7,26.7 321,27.7 321.7,28.2 C322.3,28.7 324.1,29.3 325.7,29.6 C327.2,29.8 329.2,30.9 330.2,32 C331.1,33.1 332.3,34 332.8,34 C333.9,34 344.1,42.7 352.5,50.9 C355.8,54.1 361,57.9 364,59.4 C370.4,62.5 381.8,69.6 385.2,72.5 C386.5,73.7 388.8,75.2 390.5,76 C392.1,76.8 397.5,81.7 402.5,86.8 C409.2,93.7 412.6,98.3 415.7,104.3 C422.1,117 425.6,125 427.4,131.5 C428.4,134.8 429.5,138.9 430,140.5 C433.3,152.1 435.1,159.6 436,166.5 C437.2,175.7 437.1,175.6 440.5,203.5 C441.9,215.1 443.3,225.2 443.7,226 C444,226.8 444.6,230.4 445.1,234 C445.6,237.6 446.4,243 446.9,246 C447.4,249 448.5,257.8 449.4,265.5 C450.3,273.2 451.7,283.6 452.5,288.5 C455.5,307 456,319.4 454.2,336.5 C453.6,342.6 452.4,354.3 451.6,362.5 C450.7,370.8 449.6,379.1 449,381 C447.9,384.8 446.3,415.7 445.5,449.5 C444.9,472.6 443.3,496.1 442,500 C440.9,503.4 439.8,517.1 440.9,514.5 C443.2,509 444,504.7 444,497.9 C444,493.8 444.4,490 444.9,489.5 C446.1,488.3 448,465 448,451.6 C448,446 448.7,435 449.5,427 C450.3,419 451,408.2 451,402.9 C451,397.6 451.4,391.1 451.9,388.4 C452.4,385.7 453.3,375.9 454,366.5 C455.9,337.6 457.9,328 461.8,328 C466.6,328 469.5,335.4 471.6,353.4 C472.2,358.7 474.1,363.1 479,370.3 C482.9,376.1 485.8,377.9 492,378.5 C498.2,379.1 505.7,382.6 508.3,386.2 C510,388.4 510.4,391.4 511.1,404.2 C511.6,413.5 512.7,423.2 514,429 C515.2,434.2 516.8,441.4 517.6,445 C521.5,461.8 521.9,465.9 520.4,472.4 C517.5,484.3 516.7,487.1 515.9,487.6 C515.4,487.9 515,488.9 515,489.9 C515,490.8 513.9,494 512.5,496.8 C511.1,499.7 510,502.5 510,503.1 C510,503.7 509.2,505.4 508.2,506.8 C507.2,508.3 502,518.3 496.6,529 C472.4,577.2 473.8,574.9 460,589.9 C451.5,599.2 445.4,604.4 439.5,607.6 C438.4,608.2 436.6,609.1 435.5,609.7 C434.4,610.3 431.2,611.7 428.4,612.9 C425.7,614 419.9,616.5 415.7,618.4 C411.5,620.4 407.4,622 406.7,622 C406,622 404.5,622.7 403.4,623.5 C402.4,624.3 400.7,625 399.8,625 C398.9,625 395.8,627.1 393.1,629.8 C389,633.6 387.7,635.6 386.6,640 C384.1,649.4 380.3,656 369,670.4 C366.5,673.6 363.7,676.3 359,680 C356.6,681.9 353.2,684.7 351.4,686.2 C347.7,689.4 332.1,697.6 323.5,700.9 C320.2,702.2 314.8,704.2 311.5,705.5 C308.2,706.7 301.9,708.5 297.5,709.3 C293.1,710.2 287.7,711.4 285.5,711.9 C280.9,713 251,716.1 246.5,715.9 C244.9,715.9 242.4,715.4 241,715 Z M357,598.4 C358.9,598.1 363.2,598.5 366.5,599.3 C380.1,602.6 388.4,599.8 398.1,588.8 C401.1,585.4 404.4,581.7 405.6,580.6 C410.6,575.6 420,564.2 420,563.2 C420,560.7 417.8,562.2 415.1,566.5 C412,571.5 401.7,581.9 395.5,586.5 C393.3,588.2 390.8,590.1 390,590.9 C389.2,591.7 386.2,593.4 383.4,594.7 L378.2,597.1 L371.6,594.6 C367.9,593.2 363.5,591.4 361.7,590.7 C354.9,587.7 346.2,585 343.2,585 C340.9,585 339.5,585.8 337.8,588 C335.1,591.7 330.8,593 321.5,593 C314.6,593 308.4,591.9 304.4,589.9 C303,589.2 292.9,589 274.9,589.3 C259.8,589.6 244.4,589.9 240.5,590 C224.3,590.2 159.3,588.3 157.5,587.6 C156.4,587.2 154.5,586.3 153.3,585.7 C151.6,585 150.3,585 148.3,585.9 C146.9,586.6 145.4,586.7 145.1,586.3 C144.1,585 137.1,582 134.9,582 C133.8,582 131.2,580.9 129.2,579.5 C127.2,578.1 124.9,577 124.2,577 C122.5,577 116.1,570.5 103.3,555.6 C98.1,549.6 92.2,543.5 90.1,542 C85.5,538.6 80,535.7 79.4,536.3 C78.3,537.3 80.4,539.9 82.9,540.8 C86.2,542 96,551.5 100.7,558.1 C109.3,570.1 127.2,585 133.2,585 C134.7,585 136.2,585.5 136.5,586 C136.8,586.6 138.6,587 140.4,587 C142.1,587 144.1,587.5 144.7,588.1 C146.9,590.3 154.9,591.3 178,592 C192.9,592.5 204.4,593.4 209.3,594.4 C218.2,596.2 239.2,596.5 263.5,595.1 C271.9,594.6 281.9,594.6 286,595 C290.1,595.5 302.5,596.2 313.5,596.5 C326.2,596.9 335,597.7 337.5,598.6 C343,600.4 345.9,600.7 350,599.7 C351.9,599.3 355.1,598.7 357,598.4 Z M215,417.1 C217.1,416.1 221.1,413.3 223.9,411 C228.9,406.8 230.4,404 227.6,404 C226.9,404 225.2,403.2 223.9,402.2 C221.7,400.4 220.2,400.4 203.1,401.1 C193,401.6 183.1,402.4 181.1,403 C179.1,403.5 165.7,404 151,404 L124.5,404 L117.4,400 C113.2,397.7 108.9,394.3 106.6,391.6 C104.2,388.6 102.1,387 100.7,387 C94.3,387.1 93,394.2 98.9,397.2 C100.7,398.1 105,401.4 108.3,404.4 C111.6,407.5 115.1,410 116.1,410 C117.1,410 118.2,410.5 118.5,411 C118.8,411.6 120.6,412 122.3,412 C124.1,412 128.2,413.2 131.5,414.5 C137.5,417 137.6,417 167,416.9 C202.8,416.6 205.1,416.7 208.1,417.9 C209.4,418.4 210.6,418.9 210.8,418.9 C211,419 212.8,418.2 215,417.1 Z M357,414 C362.8,412.2 364.2,412.1 370.7,413.2 C377.5,414.3 378.3,414.2 383.7,412 C391,409.1 401.2,403.2 411.5,395.9 C415.9,392.9 420.2,390.1 421.1,389.8 C422.7,389.2 424.3,384.3 423.1,383.6 C421.8,382.8 402.5,390.1 397.6,393.3 C389.8,398.3 385.6,399.8 376.6,401 C365.6,402.5 336,400.9 323,398.1 C320.5,397.5 316.4,397.1 313.9,397 C311.3,397 307.9,396.3 306.4,395.5 C304.8,394.7 302.5,394 301.4,394 C299.2,394 294,397.5 294,398.9 C294,399.4 296.8,401.7 300.2,404.1 C303.5,406.5 307.7,409.7 309.5,411.2 C312.6,413.8 312.9,413.9 319.5,412.9 C324.7,412.2 328.9,412.4 337.4,413.6 C343.5,414.5 348.7,415.4 348.9,415.6 C349.6,416.2 350.1,416.1 357,414 Z M194.4,391.9 C197.6,390.9 200.8,389.6 201.4,389.2 C202,388.7 206.1,386.4 210.5,384.1 C214.9,381.7 219.1,379.2 219.9,378.4 C221.2,377.3 221.1,377 219.4,376.4 C215.5,375 215.1,374.1 217.1,370.2 C218.4,367.8 218.7,366.4 217.9,366.1 C216.6,365.7 211,370.9 211,372.6 C211,373.3 209.1,375.3 206.8,377.1 C204.4,378.9 200.9,381.8 199,383.5 C197.1,385.3 192.2,388 188.3,389.5 C182.2,391.9 180.4,392.2 177,391.4 C174.7,390.9 172.8,390.1 172.8,389.5 C172.7,388.4 182.7,383 185,383 C185.8,383 187.6,382 189,380.9 C190.4,379.8 194,377.3 197,375.3 C200,373.4 204.2,370.2 206.3,368.4 C208.3,366.5 210.4,365 210.8,365 C212,365 215,359.4 215,357.2 C215,355.8 213.1,354.2 208.1,351.6 C204.3,349.6 200.4,348 199.3,348 C198.3,348 197,347.6 196.5,347.1 C195.9,346.6 193.8,345.7 191.7,345 C188.4,344 187.5,344.1 183.8,346 C180.8,347.5 177.1,348.3 169.9,348.7 C160.7,349.3 159.8,349.1 157.7,347.2 C155.9,345.5 154.9,345.2 152,345.9 C146.5,347.2 140.1,350 132,354.7 C127.9,357.1 123.8,359.4 123,359.9 C121.2,360.9 120.4,365 122,365 C122.6,365 124.6,366.6 126.4,368.5 C128.3,370.4 130.5,372 131.5,372 C132.4,372 135.2,374 137.6,376.4 L142.1,380.8 L139.4,381.3 C137.6,381.6 136.1,381.1 134.9,379.9 C133.8,378.8 132.1,378 131.1,378 C130,378 128.5,377.3 127.6,376.5 C126.8,375.7 125.3,375 124.3,375 C121.4,375 127.2,379.4 136.5,384.1 C140.9,386.4 145,388.6 145.5,389 C146.1,389.4 149,390.6 152,391.5 C163.9,395.3 183.6,395.5 194.4,391.9 Z M383.2,387.5 C388.7,384.9 393.6,381.2 392.7,380.4 C392.4,380.1 390.7,380.7 388.9,381.7 C384.8,383.9 376,386.3 375.1,385.4 C374.4,384.7 382.4,377.6 386.3,375.6 C390.5,373.4 400.6,364.8 402.4,361.9 C403.9,359.4 403.8,359.2 401.2,356.8 C397.7,353.5 394.7,352 391.6,352 C390.2,352 387.1,351.1 384.8,350.1 C370.1,343.6 355.4,342.2 343.2,346.2 C332.5,349.6 332.2,349.8 331.8,352.2 C331.3,355.6 324.7,358.8 318.2,358.9 C315.1,359 311.9,359.7 310.4,360.6 C308.1,362.1 307.8,362.1 306.1,360.6 C304,358.7 302,358.5 302,360.2 C302,362 326.1,385 327.9,385 C328.4,385 331,386 333.7,387.2 C340.1,390 346.6,390.7 363.6,390.4 C376.4,390.1 378.3,389.8 383.2,387.5 Z M209.4,250.7 C208.9,244.5 209.1,242.6 210.8,238.7 C212.2,235.6 213.8,233.6 215.7,232.8 C217.2,232.2 219.6,230.6 221,229.4 C224.6,226.2 232.1,224.3 235.4,225.8 C239.1,227.5 238.6,229.7 234,232 C230.9,233.6 230,234.6 230,236.6 C230,239.5 230.6,239.5 240.4,236.7 C244.3,235.6 245.5,234.7 246.6,232.2 C247.3,230.4 248.3,229 248.8,229 C249.3,229 251.4,227.7 253.5,226 C255.6,224.4 258.1,223 259,223 C260,223 262.1,222.3 263.6,221.5 L266.5,220 L262.8,220 C260.7,220 259,220.5 259,221 C259,221.6 258.1,222 257,222 C255.8,222 253.9,222.7 252.5,223.6 C251.1,224.5 248.5,225 245.8,224.8 C242.1,224.5 241.5,224.2 241.6,222.3 C241.7,219.5 239.2,218.6 233.7,219.4 C227.6,220.3 218.7,223.8 217,225.9 C216.7,226.3 215.3,227.3 213.8,228.3 C212.3,229.2 210.5,231.2 209.8,232.7 C208.7,235.1 203.7,239.3 200.9,240.2 C200.3,240.4 200.4,241.7 201.2,243.6 C202.6,246.9 209.2,258 209.8,258 C209.9,258 209.8,254.7 209.4,250.7 Z M319,231.3 C316.7,228.7 313.6,225.7 312.2,224.8 C306,220.7 290.4,218.2 291.6,221.5 C292,222.3 293,223 293.9,223 C297.4,223 306.2,227 310.2,230.4 C312.5,232.4 314.7,234 315.1,234 C315.8,234 317.2,237.7 318.5,243.5 C319.2,246.5 319.2,246.5 321.2,241.3 L323.2,236.1 L319,231.3 Z M298.7,235.4 C298.9,234.8 297.1,233.6 294.8,232.6 C292.4,231.6 289.1,229.7 287.5,228.5 C283.9,225.8 268.4,220.3 267.4,221.3 C266.4,222.2 270,224.9 272.2,225 C274.4,225 279.5,229.4 281.7,233.1 C282.9,235.1 284,235.8 285.4,235.5 C286.6,235.2 289.5,235.4 292,235.9 C297.1,236.9 298.2,236.8 298.7,235.4 Z M321.5,160.6 C325.9,159.8 330.2,158.9 331.1,158.5 C332,158.2 336.5,157.6 341.1,157.2 C348.6,156.6 349.5,156.3 349.5,154.5 C349.5,152.8 348.8,152.5 344.7,152.3 C342,152.2 338.2,151.6 336.2,151 C334.2,150.5 329.8,150 326.5,150 C321.2,150 305.1,146.4 302.1,144.6 C299.7,143 280.9,139.8 273,139.5 C264.5,139.1 264.5,139.1 270.5,140.1 C273.8,140.6 277.9,141.4 279.5,141.9 C281.2,142.4 286.3,143.8 291,145.1 C299.7,147.5 305,150.4 305,152.7 C305,153.8 300.3,153.9 278.8,153.5 C239.2,152.7 237.3,152.1 250.8,145.3 L255.5,143 L249,143.4 C245.4,143.7 236.4,145.5 229,147.6 C221.6,149.6 212.6,151.4 209,151.6 C205.4,151.7 200.5,152.6 198.1,153.4 C195.7,154.3 191.5,155 188.7,155 C183.7,155 183.6,155 185.9,156.6 C187.8,158 188.8,158.1 192,157.1 C198,155.3 206.4,155.8 217.3,158.6 L227.5,161.3 L236,159.1 C243.1,157.3 247.7,157 264,156.9 C283.6,156.8 292.6,157.6 301,160.3 C306.9,162.3 311.7,162.3 321.5,160.6 Z M252.5,114 C254.5,112.5 263,111 269.3,111 C276,111 286.8,112.7 288.5,114 C290.1,115.2 296.9,116.2 299.1,115.5 C300.9,114.9 300.6,114.5 296.8,112.5 C291.1,109.5 284.3,108.6 267.6,108.8 C252.7,109 250.9,109.2 246.8,112.1 C245.4,113.2 243.5,114 242.6,114 C241.7,114 241,114.5 241,115.1 C241,116.3 250.7,115.4 252.5,114 Z" id="Shape"></path>
                <path d="M162,378.3 C154.9,376.4 153.2,374.8 152.4,369.2 C151.8,365.5 152.1,363.8 154,360.3 C157.1,354.4 160.8,351.9 166.7,351.8 C171.6,351.7 179,353.6 179,354.9 C179,355.3 179.9,356.7 180.9,357.9 L182.8,360.1 L183.8,357 C184.9,353.9 186.3,353.4 190.2,354.9 C201.6,359.3 202.9,360.4 200.9,364.1 C199.2,367.4 192,372 188.6,372 C184,372 183.2,371 182.7,365.5 C182.4,360.5 182.4,360.5 182.2,366.6 C182,371.8 181.6,373 179.3,375.2 C176.6,377.6 170.9,380.1 168.6,379.9 C168,379.8 165,379.1 162,378.3 Z" id="Shape"></path>
                <path d="M139.7,371.4 C134.7,368.8 132.5,365.4 134.3,363.2 C135.8,361.3 142.6,358 144.9,358 C149.7,358 151.8,367.7 148,371.8 C145.5,374.5 145.6,374.5 139.7,371.4 Z" id="Shape"></path>
                <path d="M329.9,383.2 C320.7,377.8 317.3,372 323.3,372 C326.2,372 340.7,379.9 341.5,382 C342.2,383.7 339.4,386 336.6,386 C335.4,386 332.4,384.7 329.9,383.2 Z" id="Shape"></path>
                <path d="M347.1,376.7 C344.4,375.3 343.4,373.8 342.5,369.6 C341.9,367 341.8,366.9 340.1,368.4 C337.4,370.8 332.9,370.4 329.1,367.3 C325.2,363.9 325.6,361.9 330.9,359.5 C335.8,357.4 340.4,357.8 340.8,360.5 C341.5,365.2 342.1,365.4 344.7,361.7 C347.1,358.3 352.8,354.8 358.2,353.5 C360.8,352.8 370.8,356.8 372.9,359.4 C373.6,360.2 374.4,363.6 374.7,367 C375.4,374.1 374,376.4 368.3,377.3 C363.2,378.2 361.8,376.7 362.5,371.6 C363.3,366.3 361.4,363.4 357.8,364.3 C354.5,365.2 353.7,367.4 355.2,371.7 C356.3,374.8 356.3,375.3 354.5,376.6 C352.2,378.3 350.2,378.4 347.1,376.7 Z" id="Shape"></path>
                <path d="M480.9,363.9 C477.9,360.9 475.4,354.6 474.1,346.5 C471.6,331.2 467.5,319.5 461.1,309.5 C457.8,304.2 457.6,300.3 460.6,296.9 C461.4,296.1 462.3,293.8 462.6,291.9 C463.5,287.4 464.6,286.1 467.1,286.7 C469.4,287.3 472,292.9 472,297.3 C472,299 472.3,300.1 472.6,299.7 C473.6,298.8 473.2,289.9 472.1,288.6 C471.6,288 471.1,286.8 470.9,285.8 C470.7,284.9 467.4,281.8 463.6,278.8 C453.5,271 453.3,270.7 451,253.5 C449.8,245.3 448.4,234.8 447.8,230.3 C446.5,221.1 447.2,219 452,219 C455.4,219 460.9,224.2 470.2,236 C484.3,254 490.7,264.7 499.7,285 C505.8,298.7 508.2,310.9 508.4,329.2 C508.5,344.8 507.8,347.6 504.3,345.4 C503,344.6 502.1,341.2 500.9,333.4 C499.1,322.3 497.3,315.4 492.5,302 C491.1,297.9 489.5,293.2 489.1,291.5 C488,287.1 485,281.9 484.1,282.4 C483.6,282.7 484.2,286 485.3,289.7 C486.9,294.9 487.5,300.3 488,312.8 L488.5,329.1 L490.3,326 C492.1,323.1 492.3,323 494,324.5 C497.3,327.4 499.2,337.5 498.8,349.2 C498.5,359.4 498.4,360 495.6,362.9 C493.1,365.5 491.9,366 487.8,366 C484.3,366 482.5,365.5 480.9,363.9 Z" id="Shape"></path>
                <path d="M32.9,341.9 C31.1,340.1 30.9,339 31.3,332.4 C31.5,328.3 31.4,324.7 31,324.5 C30.5,324.2 29,324.4 27.6,325 C24.4,326.2 20.6,324.9 19.6,322.3 C17.7,317.5 24.8,296.1 28.7,294.6 C29.4,294.3 30.9,294.9 32,296 C35.1,299.1 36.7,297.5 38,290 C38.9,284.6 40,282 43.4,277.3 C49,269.7 49.8,266.5 47,263.5 C43.8,260 45,256.9 53.7,246 C62.3,235.2 62.5,235 66.3,235 C70.6,235 71.5,238.6 69.4,247.9 C68.5,252.1 67.4,258.2 67,261.5 C66.6,264.8 66,268.2 65.6,269.1 C65.2,270 61.9,272.1 58.1,273.8 C51.7,276.7 49,279.6 49,283.4 C49,284.1 48.1,286.5 47,288.8 C45.9,291 45,294.2 45,295.8 C45,298.5 47,304 48,304 C48.3,304 48.6,301.6 48.6,298.8 C48.8,291.7 50.2,286 53,281.6 C54.9,278.4 55.7,277.9 58.4,278.2 C62.7,278.6 64.1,283 62.8,292.5 C61.8,300.5 59.8,303.9 55.2,305.4 C52.8,306.3 52.3,306.8 53,308 C54,309.6 53.7,311.4 51,317.5 C48.9,322 47.7,325.8 45.5,334.5 C44.6,337.8 43.2,341.2 42.3,342.2 C40.1,344.6 35.5,344.5 32.9,341.9 Z" id="Shape"></path>
            </g>
        </g>
    </g>
</svg>