<svg width="953" height="846" viewBox="0 0 953 846" xmlns="http://www.w3.org/2000/svg">
  <title>
    arthur-dent
  </title>
  <g fill-rule="nonzero" stroke="#57C003" stroke-width="2" fill="none">
    <path d="M812.5 2c.3.5 1.4 1 2.4 1 3.4 0 7.9 3 12.7 8.6 2.7 3 5.8 6 6.9 6.5 2.5 1.1 5.6 3.1 7 4.4 3.8 3.6 8.5 10.2 8.5 11.9 0 1.5-1.7.3-6.8-5.1-3.8-4-8-7.5-9.5-7.8-1.5-.4-2.7-1.1-2.7-1.5 0-.4-2.1-2.9-4.7-5.5-6.8-6.8-13.7-9.7-24.6-10.3l-8.9-.5-9.6 4.9c-10.2 5.1-10.3 5.2-16.9 11.7-2.4 2.2-4.3 3.5-4.3 2.8 0-1.7 7.7-9 16.1-15.3 5.4-4 15-6.6 25.1-6.7 4.8-.1 9 .3 9.3.9zM801 29.3c0 .8-2.3 1.9-5.7 2.8-3.7.8-7 2.5-9.3 4.5-3.5 3.1-9.4 5.5-11.7 4.7-3.7-1.3.8-7.2 8-10.7 6-2.9 18.7-3.8 18.7-1.3zm55.4 27c0 20.1-3.2 36.5-8.3 42.2-1.8 2-4 8.4-4.8 14-.2 1.6-.8 4.6-1.4 6.5-1.3 5-1.1 15.3.4 17.2 3.9 4.9 13.1 10 25.4 13.9 7 2.3 15 5 17.7 6 2.7 1.1 5.9 1.9 7.1 1.9 3.3 0 15.5 6.4 19.6 10.3 5 4.8 9.5 11.5 13.6 20.5 1.9 4.2 3.8 8.6 4.3 9.7 2.2 4.7 6.1 26.1 8.1 45 .5 4.9 1.4 12.6 2 17 .5 4.4 1.4 12.9 1.9 19 1.6 20.2 4 42 5.1 46.5.6 2.5 1.5 8.1 1.9 12.5.4 4.4 1.3 13.8 2.1 20.9 1.1 11.3 1 14.9-.4 28-1 8.3-1.9 16.7-2.1 18.6-.2 1.9-1.3 10-2.4 18-6.9 47.1-7.6 55.4-6.1 74.8.7 9.2 1.3 22 1.3 28.4.1 10.7-.1 11.9-2.2 14.5-1.2 1.5-3 4.3-3.9 6-1.2 2.4-3.5 4.2-8.9 6.8-3.9 1.9-8 3.5-9.1 3.5-2.7 0-5 2.8-5.5 6.9-.7 4.7.8 84.8 2.2 120.6 1 24.2.9 34.6-.4 63-.9 18.7-1.8 35.3-2.1 37-.2 1.6-.7 9.7-1 18-.6 14.1-1.9 25.2-3 26.3-.9.9-.5-20.7 1-54.8 1.3-29.4 1.8-74.5 1-95.5-.1-3.9-.8-29.7-1.5-57.5-.7-30.3-1.6-51-2.2-51.8-1.6-1.9-4.6-1.4-6 1-.7 1.4-1.3 7.6-1.5 16.3-.2 7.7-.8 18-1.4 23-.7 5.6-1.2 40.4-1.4 92.5-.2 72.9-.5 84.6-2 92-.9 4.7-2 14.2-2.5 21.2-.9 12.6-2.7 25.8-3.6 26.7-1.1 1.2-.2-20.9 1.2-27.7.9-4.4 1.4-10.2 1.1-13.7-.2-3.3 0-10.7.4-16.5.8-9.8 3.4-91.3 3.2-99-.5-17.4-.2-90.8.3-107 .9-26.5.9-28.7.6-52.5-.4-24.8 1.3-74 2.8-79.5.8-2.8.8-7.9.1-16.9-.8-11-1.4-13.8-3.8-18.8-1.9-3.9-3.8-6.3-5.8-7.3l-3.4-1.7c-.2-.2.8-1.2 2.2-2.3 3.2-2.5 4.3-5.6 2.6-7.6-.9-1.1-2.4-1.3-6.3-.8-6.2.8-7.6 1.8-7.6 5.5 0 3 2.3 4.9 5.9 4.9 2.5 0 2.5.3.6 4-1.4 2.7-1.4 3.6 0 9.2 4.3 16.7 4.6 20.8 3.9 58.3-1.3 80.8-1.6 90.1-2.5 93-3.4 10.2-5.7 76.2-3.8 107 1.4 22.2 1.3 53.2-.2 67-.6 4.9-1.4 16.6-1.9 26-.8 16.8-1.2 19.8-4.3 30.5-.8 3-1.8 11.1-2.1 17.9-.8 14.8-2.2 21.1-4.8 21.1-1 0-2.1-.6-2.4-1.4-1.2-3.2-4.2.7-6.8 8.8-.5 1.4-1 1.6-1.8.8s-.8-2.1 0-5c.7-2.2 1.2-5.3 1.2-6.9 0-1.6.4-3.3.8-3.9.5-.5 1.4-3.6 2.1-6.9.7-3.3 1.6-7.6 2.1-9.5.5-1.9.8-9.8.8-17.6.1-10.3.5-15.1 1.6-18 4.6-11.6 5.7-31.6 3.2-56.9-1.4-14.2-1.5-91.3-.1-98 .3-1.7.8-26.4 1.1-55 .3-28.6.8-61.7 1.3-73.5.4-12.1.3-22.7-.2-24.2-1.9-5.9-7.5-3.8-10.2 3.9-.9 2.6-2.4 6.6-3.3 8.8l-1.7 3.9-.7-4.4c-1.5-9.8-4.8-38.3-5.3-46.1-.2-4.6-1.1-10.3-1.9-12.8-.8-2.5-1.7-6.3-2.1-8.4-.9-5.4-3.3-6.5-14.3-6.5-8.6 0-9.4.1-10.8 2.3-1.5 2.4-7 28.4-9.8 46.5-.9 5.8-2.1 13.3-2.6 16.6-.6 3.4-1 10.6-1 16 0 8.5.5 11.4 3.6 21.4 10 32.3 10.2 32.5 15.4 27.5 2.7-2.6 3-3.5 3-9.1 0-3.8-1.1-9.9-2.8-16-7.9-27.5-7.5-24.9-6.2-39.1 1-11.6 2.6-19.2 5-24.8 2.3-5.1 4.9-16.8 5.5-24.4 1.1-12.7 2.9-7.8 3.6 9.9.4 8 1.4 18.1 2.2 22.5.8 4.4 1.8 15.2 2.1 24 .4 8.8 1.2 19.5 1.8 23.8 1.6 10.4 0 23.4-3.6 30.5-4.3 8.5-6.3 14.9-10.5 33.2-4.3 19.3-5.3 29.3-5.6 58-.2 20.1.9 29.2 6.3 54 1.7 7.4 3.3 16.9 3.7 21 .3 4.1 1.3 10.6 2.2 14.3 2.4 11 1.7 17.2-6.1 51.7-3.1 13.9-4.6 22.2-4.6 25.3 0 3.7-2.3 7.7-3.4 5.9-1.1-1.8-3.6-.2-3.6 2.2 0 2.6 1.8 4.6 3.5 4 .7-.3 1.6-.1 1.9.4.8 1.3-2.7 11.6-7.1 20.9-2 4.3-4 8.7-4.3 9.8-.5 1.5-1.2.2-2.9-5-2.9-8.9-4.8-12.5-6.6-12.5-1.7 0-5.7 6-7.4 11.2-.8 2.5-1.7 3.5-2.7 3.1-.8-.3-1.4-1.1-1.4-1.7 0-.7-1-3.2-2.2-5.7-1.9-3.6-2.3-5.8-2.1-12.1.3-10 1.1-11.5 5.7-11 2.7.3 4.5 1.4 7 4.3 3.3 3.9 4.6 4.1 4.6.9 0-1 .7-2.3 1.5-3 3.3-2.8.7-33.7-3.5-42.1-1.6-3-2-5.9-2-13.4 0-9.6-.4-11-5-19.5-2.3-4.1-2.5-8.8-.7-13.3 1.3-3.1 2.4-7.7 4.6-19.7.6-3 1.1-12.7 1.2-21.5.1-16 2.5-56 3.4-57.5.3-.5.5-11.8.5-25.2 0-17.4-.4-26.7-1.5-32.8-.8-4.7-2.2-12.8-3-18-.9-5.2-2-10.9-2.5-12.5-.8-2.7-3.4-16.8-7.5-40.5-1.8-9.9-4.1-40.1-5.1-64.8l-.7-17.3-3.5-3.4c-2-1.9-4.9-3.7-6.6-4.1-2.5-.5-3.4-.2-5.3 2-2.5 2.9-2.9 5.6-1.3 8.7.8 1.4.7 1.9-.3 1.9-3.9 0-9.7 11.8-11.7 24-1.2 6.8-1 9.5 1.3 27.5 4.7 35.9 4.9 39.3 4.2 68.9-.4 19.4-1.2 33.2-2.7 44.6-1.8 14.2-2 21.2-1.9 50.5.1 27.1.5 35.2 1.7 40 .8 3.3 2.6 10.7 3.9 16.5 1.3 5.8 2.9 11.8 3.5 13.5.8 1.9 1.6 12.9 2.1 30 .5 14.8 1.3 31.9 1.9 38 .6 6 1.3 15.6 1.7 21.2l.6 10.3-3.1-1.1c-2.9-1-3.4-.8-5.6 1.7-1.9 2.3-2.6 2.6-3.8 1.6-2.5-2-4.7-15.9-6.3-40.7-.9-13.2-2.2-26.7-3-30-1.4-6.2-2.5-19.5-3-37.5-.4-12.2-2-31.7-3.4-41-1.2-7.9-4.7-23.5-5.5-24.9-.7-1-.7-35.3-.1-44.6.2-2.8.8-21.9 1.4-42.5 1.2-40.9 3.8-67.4 8.6-88.5.8-3.3 1.7-10.3 2.1-15.5.3-5.2 1.3-12.4 2.1-15.9 1.3-5.8 1.3-6.5-.3-8.2-2.2-2.4-7.6-2.5-9.7-.2-2.5 2.8-5.6 19.5-7.7 41.3-1.1 11.7-2.4 19.5-4 24-1.1 3-3.8 23.6-5.5 42-1.2 12.9-1.2 13.2-1.4 5.5-.5-20.7-1.2-40.1-1.6-41.2-.2-.7 0-7.1.5-14.2.9-12.3 1.8-17.6 6-33.6 7.9-30.2 8.1-30.8 6.1-33.5-2-2.8-4.1-3.5-7.7-2.6-3.7 1-6.2 7.8-10.4 27.6-.6 3-1.7 7.1-2.5 9-.7 1.9-1.8 11.7-2.5 21.7-1.1 17.8-3.2 119.4-2.5 121.7.2.6.7 45.2 1 99.1.3 53.9 1 103.6 1.4 110.5.7 11.9 3.1 28.3 5.1 36.1.6 2 1 6.6 1 10.3 0 5.9-.2 6.6-1.9 6.6-2.7 0-3-.8-3.7-8.2-.3-3.4-1.2-8-2-10.1-.8-2.1-1.3-6.4-1.2-9.8.2-3.5-.2-6.3-.8-6.7-1.4-.9-2.8-14.3-2.6-24.2 1.3-65.4 1.5-106.7.7-164-.7-52.7-.3-50.5-10.1-54-7.8-2.7-10.3-4.6-15.5-11.6-2.8-3.8-4.5-7.6-5.9-13-1.7-7-1.8-9-.7-26.3.9-16.5.9-19.4-.6-25.3-2.1-8.4-2.2-13.7-.1-16.6 1.3-1.8 1.5-4.1 1.1-10.5-.2-4.5-1.2-24.3-2.2-44-1.7-34.2-1.7-36.1 0-44 1-4.5 1.9-10 2.2-12.2.3-3.6 3.8-27.5 6.3-44 .5-3.3 1.2-9.8 1.5-14.5.9-11.3 1.3-15.5 2.5-21.5.5-2.8 1.4-9.5 2-15 .6-5.5 1.5-12 2-14.5s1.1-8.4 1.4-13.2c.3-4.8 1.1-9.9 1.6-11.3.5-1.4 1.2-6.1 1.5-10.3.9-13.6 2.2-21.8 4.4-26.8 2.4-5.3 6.2-11.4 7.2-11.4.4 0 2-1.2 3.7-2.8 2.5-2.4 9.2-5.2 12.2-5.2 2.6 0 .6 3.2-3.2 5.1-6.3 3.1-14.1 9.2-15.4 12-4.3 9-5.1 13.3-8.4 44.4-.5 4.9-1.5 12.1-2.1 16-.6 3.8-1.4 11.3-1.9 16.5-.5 5.2-1.2 10.3-1.5 11.3-.5 1.2.5 2.8 3.6 5.8 4.4 4 5 4.1 10.6 2.4 1.6-.5 2.8-.1 4.5 1.7 4.6 4.8 13.1 6.4 16.4 3.1 1.4-1.4 1.5-2.9 1-10.1-.4-4.6-1.1-9.3-1.7-10.5-.5-1.2-1.5-6.6-2.3-12-1.2-7.8-2.1-10.7-4.5-14.4-3.4-5.2-4-9.7-1.6-14.2 1.4-2.8 1.5-2.9 5.2-1.6 4.6 1.6 5 3.1 2.8 10.1-1.7 5.6-1.7 9.8.5 20.4.6 3 1.5 8.2 2 11.5.5 3.3 1.3 7.2 1.9 8.7 1.7 4.5 5 24.8 5.6 35.3.4 5.5 1.1 12 1.6 14.3.5 2.4.6 6.6.3 9.4l-.7 5-1.7-4.9c-2.1-6.1-5.3-6.7-8-1.5-1 1.8-2.1 2.8-2.5 2.3-.7-1.2.8-16 2.7-27.6 1.4-8.5.7-11.8-2.8-13.4-3.8-1.7-27.4-3.4-30.7-2.2-3.8 1.5-5.1 4.6-5.9 14.1-.4 4.7-1.1 11.2-1.6 14.5-.5 3.3-1.7 12.1-2.6 19.5-.9 7.4-2.1 16-2.7 19-2 11.5-2.6 25.6-1.8 44.2 2.9 66 2.5 62.9 8.9 66 1.9 1 3.9 1.9 4.4 2.1.5.2.1 1.5-.8 3-1.8 2.6-1.8 2.7.7 3.8 2.2 1 2.4 1.4 1.2 2.5-.8.8-3.4 2.3-5.8 3.3-5.5 2.4-5.6 2.9-6.8 23.1-1.5 25.1-1.7 23 1.6 25.4 1.6 1.1 3.8 2.6 4.9 3.1 1.3.6 2.3 2.4 2.7 4.5.9 5.8 2.9 8.1 6.7 7.8 3.4-.2 5.2 1.2 5.2 4.3 0 2.2 3.6 5.3 5 4.4 3.4-2.1 4-7 3.5-29.2-.7-35.7-1.3-42.8-3.9-45.6-1.8-1.9-2-2.8-1.2-4.7.9-1.9.6-2.5-1.7-4.2-3.5-2.5-3.4-3.7.2-4.9 1.6-.6 3.2-1.8 3.6-2.7.3-.9 1.3-8.8 2.1-17.7.8-8.8 1.8-18.5 2.3-21.5 2.5-15.2 4.1-26.6 5.1-37 1.6-16.7 4-35.9 5.1-40.7.5-2.3.9-5.7.9-7.5 0-2.5.3-2.9 1-1.8.5.8 1 3.3 1 5.6 0 2.2.6 4.9 1.4 6 1.4 1.9 1.5 1.9 4.3-.2 1.5-1.2 3.1-3.4 3.4-5l.7-2.9.1 3.3c0 1.8-.8 6.5-1.9 10.4-2.2 8-2.5 13.9-.9 16.9 2.8 5.3 37.6 22.9 45.3 22.9 1.2 0 2.8.6 3.4 1.2.9.9 7.6 1.5 23 1.8 18.7.5 22.2.8 25.1 2.4 2.8 1.5 5.3 1.9 12.3 1.7 4.9-.1 10.3-.8 12.1-1.5 1.8-.8 6.6-2.4 10.7-3.7 6.9-2.1 12.1-4.2 25.5-10.5 2.8-1.3 6.5-3.8 8.4-5.6 3.2-3.1 3.3-3.5 2.7-8.6-.4-3-1.1-6.2-1.6-7.2-.6-1-1-3-1-4.4 0-1.4-.4-2.7-.9-3-3-1.9-1.8-21.2 3.7-59.1 1.1-7.7 2.5-19.9 3.1-27 .7-7.2 1.8-16.7 2.6-21.2.8-4.4 1.7-16.5 2.1-26.8l.7-18.6 2.8-1.9c3.6-2.7 3.9-2.6 3.2 1.4-.4 2.7 0 4.2 2 6.8 2.1 2.8 2.4 4 2 8-.5 4-.2 4.8 1.6 6 2.7 1.7 2.7 3.5-.4 8-1.4 2-2.5 4-2.5 4.4 0 .4-1.6 2.9-3.6 5.7-5.7 8-7.3 12.3-6.7 18.1.7 6.2 2.2 7.6 8.5 7.6 3.7 0 4.6.3 4.2 1.5-.4.9-2.4 1.5-5.7 1.7-4.8.3-5.2.5-5.2 2.8 0 2.2.5 2.6 4 3l4 .6-5.2 3.3c-2.9 1.9-5.3 3.7-5.3 4 0 .8 2.7 19.7 3.9 27.6 1.1 7.3.5 8.7-1.7 4.3-2.1-4.1-5.5-4.9-7.5-1.6-1.7 2.7-3.7 19.4-3.7 30.9 0 6.7.5 9.2 3 15.1 1.8 4.2 3 8.8 3 11.4 0 7.5 4 12.5 8.9 10.9 4-1.2 5.5-14.3 3.7-33.5-.4-5.2-.6-9.3-.3-9 1.4 1.3 2.7 19 3.2 43.5.3 14.8 1 37.3 1.7 49.8 1.1 23.5.7 29.6-2.8 42.2-2.8 10-3.4 16.3-4.4 42.1-1.1 28.2-.8 31.4 3.2 31.4 3.6-.1 5.8-2.4 6.6-7.1.6-3.7 1.1-4.4 3.9-5.1 1.7-.5 3.4-1.7 3.8-2.7.3-1 2.5-3.2 4.8-4.7 10.3-7.1 11.1-9.6 9.2-28.2-2.7-24.9-2.8-27.3-1.2-37.7 4.6-30 5.8-38.1 6.8-49 .6-6.6 1.6-13.8 2.1-16 3.4-13.2 4.3-28 2.8-43.8-.6-6.7-2-21.9-3.2-33.7-1.1-11.8-2.3-25.8-2.7-31-.9-11.3-2-14.3-5.8-15.8-4.1-1.8-7-1.6-15.3.6-4.1 1.1-7.9 1.8-8.3 1.5-1.4-.9 2.5-4.3 4.9-4.3 4.6 0 12.2-2.2 12.8-3.6.4-1-.5-2-2.9-3-1.9-.8-3.5-1.8-3.5-2.2 0-.5 2.8-1.5 6.3-2.3l6.2-1.4-.1-7c0-3.9-.6-10.6-1.3-15-.7-4.4-1.6-12.3-2.1-17.5-1.7-18.3-7.1-32.1-18-46.1-4.4-5.5-6.7-7.5-10.5-8.9-1.6-.7-4.1-1.7-5.5-2.4-1.4-.7-5.2-2.1-8.5-3-3.3-.9-8.2-2.4-10.9-3.2-2.6-.7-5.9-1.4-7.2-1.4-1.2 0-2.6-.5-2.9-1-.3-.6-1.5-1-2.7-1-1.1 0-3.1-.9-4.5-2-2.7-2.1-8.7-2.7-11.2-1.1-.8.5-1.9 2.4-2.5 4.3-1 3-1.5 3.3-5.1 3.4-2.2 0-4.7.4-5.5 1-4.4 2.7-12 8.7-12 9.5 0 .5 1.2 1.6 2.6 2.5l2.5 1.7-3.1 1.4c-1.8.7-4.1 1.3-5.1 1.3s-3.5 1-5.5 2.2c-5.4 3.2-19.3 2.9-26-.5l-4.7-2.4 3.2-.6c2.9-.6 3.1-.8 1.7-2.2-.8-.8-3-1.8-4.7-2.2-1.8-.3-4.5-1.2-5.9-2-3.3-1.7-6-1.7-6 .1 0 .8 1.4 1.7 3.3 2.1 4.9 1.1 8.1 4.5 4.1 4.5-3.3 0-19.6-10.6-20.7-13.5-.7-1.7-7.9-5.5-10.5-5.5-1 0-3.3 1.1-5.2 2.5-1.9 1.4-4.1 2.5-4.9 2.5-.9 0-3.1.9-4.9 2-1.8 1.1-4.1 2-5 2-1 0-4 .7-6.6 1.6-2.6.9-5 1.3-5.4.9-1.1-1 5-5.5 7.5-5.5 1.2 0 4.3-1.1 6.9-2.5 2.6-1.4 5.5-2.5 6.4-2.5 1 0 2.3-.7 3-1.5.7-.8 1.8-1.5 2.5-1.5s4.5-1.4 8.6-3.1c4.1-1.7 9.6-3.7 12.3-4.4 5.9-1.7 9.2-4.6 11.8-10.5 1.6-3.8 1.8-5.1.8-9.5-.6-2.7-1.6-6-2.2-7.2-.6-1.3-.8-2.6-.5-3 .4-.3.7-.1.7.5 0 1.8 7.2 8.8 12 11.6 2.5 1.5 7.7 4.3 11.7 6.2 6.1 3 7.9 3.5 11.3 2.9 2.2-.4 4.2-1.1 4.6-1.6.3-.5 1.6-.9 2.8-.9 1.3 0 2.9-.6 3.5-1.4 1.2-1.4 5.1-2.8 5.1-1.8 0 1.1-3.4 4.2-4.7 4.2-.7 0-1.3.4-1.3.8 0 1.6-7.6 3.6-12.4 3.3-4.9-.3-7-1.2-16-7-8.2-5.2-12.6-4-12.6 3.5s-1 10.4-3.5 10.4c-2.7 0-8.5 4.5-8.5 6.5 0 2.3 5.1 6.5 11 9.2 9.6 4.3 15 5.6 24.6 5.5 8.5-.1 13.2-1.2 22.9-5.2 1.1-.4 3.4-1.3 5.1-2 3.9-1.4 10.8-12.4 9.8-15.5-.3-1.1-.9-4.3-1.3-7.1-1-7.3-2.4-8.7-7.9-7.9l-4.4.7 4.3-4.4c3.1-3.1 5.3-6.7 7.2-11.8 2.8-7.3 2.9-7.9 2.9-28.1.1-19.5.2-20.6 1.9-20.2 3.4.9 6.7-.7 9-4.3 1.9-3.1 2.1-4.5 1.6-11.1-.4-5.7-.3-7.3.6-6.4.7.7 1.1 4.7 1.1 10.4zM831.5 60c.3.5-.2 3.5-1.2 6.6-1.3 4.1-2.6 6.2-4.6 7.4-3.3 2.1-11.7 3.4-13 2.1-1-1 1.5-9.5 3.8-12.5 2.2-2.9 13.7-5.7 15-3.6zm-36.6 1.4c3.3 1.8 5.1 5.4 5.1 10.7v4l-7.6-.3c-6.5-.3-7.9-.6-8.8-2.3-.5-1.1-1.9-3.3-3-4.9l-1.9-2.9 2.8-2.1c5.1-3.7 9.1-4.4 13.4-2.2zm-35.8 12.2c1.3 1.5 4.4 1.5 8 0 1.5-.6 1.7.6 2.2 10.6.4 6.2 1 13.9 1.5 17 .4 3.2.4 5.8 0 5.8s-.8-.9-.8-2c0-1.2-.5-2.6-1-3.3-3.8-4.5-7.5-9.7-9-12.7-1.7-3.3-4-12.4-4-15.5 0-2 1.4-1.9 3.1.1zm-482.9 50.2c7 .6 13.2 1.3 13.7 1.7 1.9 1.1 12.1 3.5 15.1 3.5 1.6 0 3.9.4 5.2.9 1.3.5 5 1.9 8.3 3.2 17.3 6.4 23.3 9.6 34.7 18.2 15.8 11.9 22.6 20.1 37.6 45.2 4.3 7.2 5.7 8.2 16.2 10.5 14.4 3.1 15.7 3.5 27 8.2 15.1 6.2 20.7 9.4 22.4 12.5 1.3 2.6 1.2 2.9-1 5-3.1 2.9-2.7 3.8 7 14.7 3.9 4.5 9.6 11.7 12.6 16.1 5.5 7.9 16.8 29.9 23 44.5 1.7 4.1 4.4 9.5 6 12 1.6 2.5 3.6 6.5 4.6 9 .9 2.5 2.5 5.6 3.4 7 1 1.4 2.1 3.6 2.5 5 .4 1.4 1.8 4.1 3.1 6 1.2 1.9 3.7 7.3 5.5 12 3 7.9 3.3 9.4 3.3 20.5 0 8.8-.4 13.4-1.7 17-5.8 17.1-8.6 44.9-9.2 92.5-.3 17.9-.9 35.6-1.5 39.5-1.1 6.7-4.9 21.7-7.2 28-3.8 10.3-17.7 36.3-21.8 40.8-.9.9-2.3 3-3 4.5-.8 1.5-2.4 3.8-3.6 5.2-1.1 1.4-3.2 4.2-4.6 6.3-4.4 6.6-14.7 17.4-19.3 20.4-5.9 3.6-8.4 8.9-9.6 19.5-2.2 20.6-4.9 39-6.9 46.3-.6 2.2-1.5 5.6-2 7.5-1.3 5.3-11.1 33.4-12 34.5-1.1 1.4-3.6 15-5 27-.6 5.5-1.6 12-2.2 14.5-.6 2.5-1.3 11.2-1.7 19.4-.4 9.9-1 15.1-1.8 15.3-1.6.6-2.7-18.3-1.9-32.1.4-6.1.8-12.7.9-14.6.2-3.3 0-3.5-3.4-3.8-3.9-.3-6.9 1.3-15.6 8.5-2.7 2.2-9.3 6.8-14.8 10.3-5.5 3.5-12 7.8-14.5 9.7-2.5 1.9-7.2 5.4-10.5 7.8-3.3 2.4-6.5 4.9-7.1 5.3-.6.5-4.4 3.1-8.5 5.8-4.1 2.7-7.6 5.1-7.9 5.4-.7.7-10.5 5.4-18 8.6-3.5 1.5-9.1 3-12.5 3.4-3.3.3-6.9 1.1-8 1.7-2.6 1.4-36.8 2.4-46.5 1.3-17.4-1.9-42-11-50-18.5-1.4-1.2-5-3.8-8-5.6-3-1.8-7.3-4.7-9.5-6.4-2.2-1.8-6-4.5-8.4-6.1-8-5.3-8.8-5.9-13.7-10.1-2.7-2.3-8.3-6.8-12.4-10.1-7.4-5.8-10-8.5-22.9-23.1-5.6-6.4-6.7-7.2-9.5-6.9-2.7.3-3.1.7-3.4 3.8-.2 1.9.3 6.4 1.2 10 5.5 23.2 6.7 38.3 4 49.7-1.7 7.4-2.7 9.2-3.9 7.3-.4-.6 0-1.9.8-2.8 1.1-1.1 1.3-2.2.7-3.3-.5-.9-1.2-7.6-1.5-14.9-.6-13-3.7-28.5-9.4-47.5-1-3.3-2.6-10.5-3.6-16-1.8-10.6-4.5-23.7-7.1-34.5-3.3-13.5-5.6-23.8-7.3-32-1-4.7-3.2-14.4-4.9-21.5-1.7-7.2-3.4-14.3-3.7-15.9-.3-1.6-2.3-4.6-4.3-6.7-3.3-3.4-6.2-7.1-16.3-20.3-1.6-2.1-2.9-4.2-2.9-4.7 0-.4-2.4-3.7-5.2-7.3-2.9-3.6-6.2-7.8-7.3-9.3-3.4-4.8-10.2-18.6-12.9-26.4-1.5-4.1-3.1-8.3-3.6-9.4-2.4-5.1-6.5-28.3-8.4-48-.8-7.7-2.1-17.4-3-21.5-1.1-4.7-1.7-12.5-1.7-21-.1-7.4-.5-14-.9-14.5-.5-.6-1.1-4.8-1.3-9.5-.3-4.7-1.2-17.1-2-27.5-2.5-30.1-1.3-76.7 2.2-91 .5-2.2 2.1-8.7 3.4-14.5 4.1-17.5 11.3-35.2 19.5-48 12.2-19.1 13.1-20.3 21-30 13.3-16.1 38.2-41.6 45.7-46.7 3.3-2.3 7.5-5.7 9.3-7.7 1.9-2 3.9-3.6 4.5-3.6.7-.1 2.8-1.3 4.8-2.8 2-1.5 6.1-4.5 9-6.7 6.7-5.1 12.6-8.5 14.5-8.5.8 0 1.4-.5 1.4-1 0-.6.7-1 1.6-1 .8 0 3.4-1.1 5.7-2.4 5.2-3 22.2-8.6 26.2-8.6 1.7 0 4.3-.7 5.9-1.5 1.5-.8 4.7-1.5 7-1.5 3.9 0 9.6-1.6 12.4-3.4.7-.4 9-1.2 18.4-1.7 9.4-.4 17.2-1 17.4-1.1.6-.6 31.6.1 43.6 1zm490.1 300.9c-.8 5.4-1.2 11.6-.9 13.8.6 4.8 4.3 41.1 5.6 54.5 1.1 12.9 2.9 24.7 4.2 27.9.5 1.4 1.6 6.2 2.3 10.6.7 4.4 2.8 14.5 4.6 22.5 3 12.9 3.3 16 3.3 28.5-.1 7.7-.7 18.9-1.4 25-.9 7.4-1.2 23.3-1.1 49 .1 21.6-.3 39.3-.8 41-3.4 10.8-7 19.8-7.4 18.5-.3-.8-.8-4.2-1.1-7.5-.3-3.4-1.2-7.6-1.9-9.5-.8-1.9-1.8-7.1-2.1-11.4-.4-4.4-1.4-10.8-2.2-14.3-2.4-10.6-4.6-50-3.5-62.8 1.3-14.1 1.9-23.9 3.3-57 1.3-29.3 1.2-46.7-.2-53-.5-2.2-1-7.2-1-11 0-8-2.4-25.8-3.9-29.9-1.5-3.9-1.3-13.4.5-25.1.9-5.5 1.8-12.9 2.1-16.4.5-5.4.8-6.2 1.8-4.8.9 1.3.9 3.7-.2 11.4zm87 129.8c.2 37.3-.2 54.5-1.2 64-.7 7.1-1.6 26.3-2 42.5-.6 27.4-.4 39 1.4 81.5.6 13.2.4 17.2-1 23-.9 3.8-2 9.2-2.5 12-.5 2.7-1.9 9.2-3 14.4-1.1 5.2-2 11.3-2 13.6 0 5.2-3.4 19-5.1 21.1-.7.9-1.5 3.4-1.8 5.7l-.6 4.2-2-2.1-2-2-1.5 3c-.8 1.6-2.1 3.2-2.9 3.4-2 .7-.7-6.9 1.4-8 .8-.5 1.5-2.2 1.5-3.9 0-1.6 1.1-5.7 2.5-9.2 4.1-9.9 4.5-13.1 3.5-26.7-.9-11.5-.8-13.1 1.1-19.5 6.7-22.5 7.9-41.3 4-67.5-1.1-8-2.6-18.3-3.1-23-.6-4.7-1.6-11-2.3-14-2.4-11.1-.1-93.8 3.1-111.7 1-5.6 2-13.2 2.1-16.9.1-3.8.9-8.6 1.7-10.9 4.5-12.4 8.3-26 8.5-29.6.1-1.6.4-1.1 1.1 1.6.5 2.3 1 25.7 1.1 55zM719.9 597c.6 9.6 1.4 19.5 2 22 2.9 13 4.1 23.4 5.1 44.9.6 13 1.5 28.8 2.1 35.1 3.8 42.7 6.4 97.8 4.6 99.6-.4.4-2.4.3-4.5-.2-2.9-.7-4.1-1.7-5.5-4.7-3-6-4.8-16.5-4.6-26.2.1-5-.3-18.9-.9-31-.8-15.1-.9-26.2-.2-35.5 1.5-20.8 1.5-33.2.1-49.5-1.9-21.1-2.4-54.1-.9-64.9.7-4.8 1.3-8.4 1.5-8 .2.5.7 8.8 1.2 18.4zm61.6 145.3c.2 1.2.3 6.5.2 11.7-.2 9.2-.1 9.7 3.6 16.4 2 3.8 3.7 7.7 3.7 8.6 0 1 .7 3.4 1.5 5.3 1.6 3.9 2 11.4.6 13.5-.5.8-2.2 1.2-4.2 1-3.1-.3-3.5-.6-4-4.3-.4-2.2-1.2-7.2-1.8-11-.7-3.9-1.7-14-2.2-22.5-.4-8.5-1.1-17.2-1.5-19.3-.6-3.7-.5-3.9 1.5-2.8 1.1.6 2.3 2.2 2.6 3.4zM736 813.4c1.4 10.6 1.8 20.1.9 21-2.1 2.1-6.6-3.6-8-10.1-2-9.5-2.1-10.5-1.1-12.6.5-1.2 1.4-3.4 2.1-5 .6-1.6 1.8-2.7 2.9-2.7 1.7 0 2.1 1.3 3.2 9.4zm22.8-7.3c1 1.5 2 1.9 3.8 1.5 1.3-.4 2.4-.3 2.4.1 0 .5.1 6.7.3 14l.2 13.1-3.2-1.3c-3.4-1.4-4.3-.7-4.3 3.6 0 1-.5 1.9-1.1 1.9-1 0-.9-5.4.2-8.5.2-.6 0-1.1-.5-1.2-.5-.1-1.3-.7-1.7-1.5-1-1.5-1.2-22.2-.2-23.1 1.2-1.3 2.8-.7 4.1 1.4z"/>
    <path d="M857.3 402.1c-4.3 1.3-5.7 3.9-3.6 6.8.8 1.3 1.7 4.4 1.8 7 .2 2.5 1.4 8.4 2.8 13.1 1.3 4.7 3.2 12.8 4.2 18 1 5.2 2.1 9.9 2.5 10.3 1.9 2.1 5-.8 8.7-8.2 3.8-7.2 4-8.1 3.3-12.8-1.1-6.5-6.7-20.1-9.6-23-1.3-1.3-3.3-2.3-4.5-2.3-1.8 0-1.9-.2-.9-1.5.7-.8 1.9-1.5 2.6-1.5 2.2 0 1.6-3.7-.8-5.4-1.2-.9-2.5-1.6-2.8-1.5-.3 0-2 .5-3.7 1zM804.3 665.2c-1.3 1.5-2.8 30.9-2.7 50.8.1 17.3 1.1 26.6 3.2 28.6 1.5 1.5 1.8 1.4 3.7-.9 2.9-3.3 6.8-24.8 8.2-45.2.6-8.8-2-24.5-5-29.9-2.3-4.3-5.5-5.7-7.4-3.4zM242 130c-1.4.4-7.7.8-14 .9-13.9.1-26 1.5-35.5 4.2-3.8 1-8.4 1.9-10.1 1.9-1.7 0-5 .6-7.5 1.4-2.4.8-8.2 2.4-12.9 3.7-4.7 1.3-8.9 2.6-9.5 3-.5.4-7.2 3.9-14.8 7.8-7.6 3.9-15.9 8.8-18.5 10.9-2.6 2.1-7.2 5.5-10.2 7.4-18.1 11.6-45.9 39.5-65.7 65.9C31.8 252.5 18.8 280.4 14 300c-.4 1.9-1.5 6-2.4 9-2.1 7.3-4.6 34.3-4.6 49.1 0 15 1.7 53.8 3 69.4.5 6.6 1.4 19.8 1.9 29.3.8 14.8 1.2 17.7 3.1 20.7 3 4.8 7.4 8.2 12.3 9.6 8.4 2.3 16.7 5.2 18.1 6.3.9.6 2 3.3 2.7 6.1 2.4 10.3 3.9 13.5 6.4 13.5 1.3 0 3-.7 3.9-1.5 1.8-1.9 2.1-3.7 3.6-22.5.7-8 1.5-18.6 2-23.5.5-5.8.2-15.8-.7-28-.8-10.5-1.7-22.4-2-26.7-.4-5.7-.1-8.8 1.1-12.5 1.2-3.5 1.9-11 2.6-28.3.5-12.9 1.5-26 2.1-29 2.6-12.8 7.6-27 9.9-28.5 1.9-1.2 1 3.5-3.1 14.9-5.6 16-6 19.1-6.5 43.6-.2 11.8-.9 23.9-1.5 26.7-.9 3.8-1 9.4-.3 20 1 17.9.8 45.6-.8 81.8-1.1 27-.8 34.2 2.3 54.5.5 3 1.3 8.2 1.8 11.5.5 3.3 1.3 8.7 1.9 12 .6 3.3 1.5 9.6 2.2 14 .6 4.4 1.5 10.2 2 13 .5 2.7 1.4 9.5 2 15 1.2 10.3 5.3 32.7 7 38 .6 1.6 2.4 8.8 4 16 8.6 36.7 10.6 41.7 25.1 63.5 4.2 6.3 9.8 13.8 12.5 16.5 8.3 8.5 21.2 20.2 30.4 27.4 5 4 5.8 4.3 10 3.7 4.3-.5 4.6-.4 7.3 3.2 1.5 2 6.5 7.5 11 12.2 7.8 8.2 8.9 8.9 23.7 16.2 10.3 5.1 17.5 8 21.5 8.7 3.3.5 9.8 1.7 14.5 2.5 10.5 1.9 19.5 1.9 37.5.1 13.8-1.4 22.9-3.2 28.9-5.9 1.7-.8 4.9-2 7.1-2.6 2.2-.7 4.5-1.7 5.2-2.2.6-.5 2.4-1.1 4-1.4 1.5-.2 3.5-1.3 4.5-2.4.9-1.1 2.1-2 2.6-2 1.1 0 11.3-8.7 19.7-16.9 3.3-3.2 8.5-7 11.5-8.5 6.4-3.1 17.8-10.2 21.2-13.1 1.3-1.2 3.6-2.7 5.3-3.5 1.6-.8 7-5.7 12-10.8 6.7-6.9 10.1-11.5 13.2-17.5 6.4-12.7 9.9-20.7 11.7-27.2 1-3.3 2.1-7.4 2.6-9 3.3-11.6 5.1-19.1 6-26 1.2-9.2 1.1-9.1 4.5-37 1.4-11.6 2.8-21.7 3.2-22.5.3-.8.9-4.4 1.4-8 .5-3.6 1.3-9 1.8-12s1.6-11.8 2.5-19.5c.9-7.7 2.3-18.1 3.1-23 3-18.5 3.5-30.9 1.7-48-.6-6.1-1.8-17.8-2.6-26-.9-8.3-2-16.6-2.6-18.5-1.1-3.8-2.7-34.7-3.5-68.5-.6-23.1-2.2-46.6-3.5-50.5-1.1-3.4-2.2-17.1-1.1-14.5 2.3 5.5 3.1 9.8 3.1 16.6 0 4.1.4 7.9.9 8.4 1.2 1.2 3.1 24.5 3.1 37.9 0 5.6.7 16.6 1.5 24.6s1.5 18.8 1.5 24.1c0 5.3.4 11.8.9 14.5.5 2.7 1.4 12.5 2.1 21.9 1.9 28.9 3.9 38.5 7.8 38.5 4.8 0 7.7-7.4 9.8-25.4.6-5.3 2.5-9.7 7.4-16.9 3.9-5.8 6.8-7.6 13-8.2 6.2-.6 13.7-4.1 16.3-7.7 1.7-2.2 2.1-5.2 2.8-18 .5-9.3 1.6-19 2.9-24.8 1.2-5.2 2.8-12.4 3.6-16 3.9-16.8 4.3-20.9 2.8-27.4-2.9-11.9-3.7-14.7-4.5-15.2-.5-.3-.9-1.3-.9-2.3 0-.9-1.1-4.1-2.5-6.9-1.4-2.9-2.5-5.7-2.5-6.3 0-.6-.8-2.3-1.8-3.7-1-1.5-6.2-11.5-11.6-22.2-24.2-48.2-22.8-45.9-36.6-60.9-8.5-9.3-14.6-14.5-20.5-17.7-1.1-.6-2.9-1.5-4-2.1-1.1-.6-4.3-2-7.1-3.2-2.7-1.1-8.5-3.6-12.7-5.5-4.2-2-8.3-3.6-9-3.6-.7 0-2.2-.7-3.3-1.5-1-.8-2.7-1.5-3.6-1.5-.9 0-4-2.1-6.7-4.8-4.1-3.8-5.4-5.8-6.5-10.2-2.5-9.4-6.3-16-17.6-30.4-2.5-3.2-5.3-5.9-10-9.6-2.4-1.9-5.8-4.7-7.6-6.2-3.7-3.2-19.3-11.4-27.9-14.7-3.3-1.3-8.7-3.3-12-4.6-3.3-1.2-9.6-3-14-3.8-4.4-.9-9.8-2.1-12-2.6-4.6-1.1-34.5-4.2-39-4-1.6 0-4.1.5-5.5.9zm116 116.6c1.9.3 6.2-.1 9.5-.9 13.6-3.3 21.9-.5 31.6 10.5 3 3.4 6.3 7.1 7.5 8.2 5 5 14.4 16.4 14.4 17.4 0 2.5-2.2 1-4.9-3.3-3.1-5-13.4-15.4-19.6-20-2.2-1.7-4.7-3.6-5.5-4.4-.8-.8-3.8-2.5-6.6-3.8l-5.2-2.4-6.6 2.5c-3.7 1.4-8.1 3.2-9.9 3.9-6.8 3-15.5 5.7-18.5 5.7-2.3 0-3.7-.8-5.4-3-2.7-3.7-7-5-16.3-5-6.9 0-13.1 1.1-17.1 3.1-1.4.7-11.5.9-29.5.6-15.1-.3-30.5-.6-34.4-.7-16.2-.2-81.2 1.7-83 2.4-1.1.4-3 1.3-4.2 1.9-1.7.7-3 .7-5-.2-1.4-.7-2.9-.8-3.2-.4-1 1.3-8 4.3-10.2 4.3-1.1 0-3.7 1.1-5.7 2.5s-4.3 2.5-5 2.5c-1.7 0-8.1 6.5-20.9 21.4-5.2 6-11.1 12.1-13.2 13.6-4.6 3.4-10.1 6.3-10.7 5.7-1.1-1 1-3.6 3.5-4.5 3.3-1.2 13.1-10.7 17.8-17.3 8.6-12 26.5-26.9 32.5-26.9 1.5 0 3-.5 3.3-1 .3-.6 2.1-1 3.9-1 1.7 0 3.7-.5 4.3-1.1 2.2-2.2 10.2-3.2 33.3-3.9 14.9-.5 26.4-1.4 31.3-2.4 8.9-1.8 29.9-2.1 54.2-.7 8.4.5 18.4.5 22.5.1 4.1-.5 16.5-1.2 27.5-1.5 12.7-.4 21.5-1.2 24-2.1 5.5-1.8 8.4-2.1 12.5-1.1 1.9.4 5.1 1 7 1.3zM216 427.9c2.1 1 6.1 3.8 8.9 6.1 5 4.2 6.5 7 3.7 7-.7 0-2.4.8-3.7 1.8-2.2 1.8-3.7 1.8-20.8 1.1-10.1-.5-20-1.3-22-1.9-2-.5-15.4-1-30.1-1h-26.5l-7.1 4c-4.2 2.3-8.5 5.7-10.8 8.4-2.4 3-4.5 4.6-5.9 4.6-6.4-.1-7.7-7.2-1.8-10.2 1.8-.9 6.1-4.2 9.4-7.2 3.3-3.1 6.8-5.6 7.8-5.6s2.1-.5 2.4-1c.3-.6 2.1-1 3.8-1 1.8 0 5.9-1.2 9.2-2.5 6-2.5 6.1-2.5 35.5-2.4 35.8.3 38.1.2 41.1-1 1.3-.5 2.5-1 2.7-1 .2-.1 2 .7 4.2 1.8zm142 3.1c5.8 1.8 7.2 1.9 13.7.8 6.8-1.1 7.6-1 13 1.2 7.3 2.9 17.5 8.8 27.8 16.1 4.4 3 8.7 5.8 9.6 6.1 1.6.6 3.2 5.5 2 6.2-1.3.8-20.6-6.5-25.5-9.7-7.8-5-12-6.5-21-7.7-11-1.5-40.6.1-53.6 2.9-2.5.6-6.6 1-9.1 1.1-2.6 0-6 .7-7.5 1.5-1.6.8-3.9 1.5-5 1.5-2.2 0-7.4-3.5-7.4-4.9 0-.5 2.8-2.8 6.2-5.2 3.3-2.4 7.5-5.6 9.3-7.1 3.1-2.6 3.4-2.7 10-1.7 5.2.7 9.4.5 17.9-.7 6.1-.9 11.3-1.8 11.5-2 .7-.6 1.2-.5 8.1 1.6zm-162.6 22.1c3.2 1 6.4 2.3 7 2.7.6.5 4.7 2.8 9.1 5.1 4.4 2.4 8.6 4.9 9.4 5.7 1.3 1.1 1.2 1.4-.5 2-3.9 1.4-4.3 2.3-2.3 6.2 1.3 2.4 1.6 3.8.8 4.1-1.3.4-6.9-4.8-6.9-6.5 0-.7-1.9-2.7-4.2-4.5-2.4-1.8-5.9-4.7-7.8-6.4-1.9-1.8-6.8-4.5-10.7-6-6.1-2.4-7.9-2.7-11.3-1.9-2.3.5-4.2 1.3-4.2 1.9-.1 1.1 9.9 6.5 12.2 6.5.8 0 2.6 1 4 2.1s5 3.6 8 5.6c3 1.9 7.2 5.1 9.3 6.9 2 1.9 4.1 3.4 4.5 3.4 1.2 0 4.2 5.6 4.2 7.8 0 1.4-1.9 3-6.9 5.6-3.8 2-7.7 3.6-8.8 3.6-1 0-2.3.4-2.8.9-.6.5-2.7 1.4-4.8 2.1-3.3 1-4.2.9-7.9-1-3-1.5-6.7-2.3-13.9-2.7-9.2-.6-10.1-.4-12.2 1.5-1.8 1.7-2.8 2-5.7 1.3-5.5-1.3-11.9-4.1-20-8.8-4.1-2.4-8.2-4.7-9-5.2-1.8-1-2.6-5.1-1-5.1.6 0 2.6-1.6 4.4-3.5 1.9-1.9 4.1-3.5 5.1-3.5.9 0 3.7-2 6.1-4.4l4.5-4.4-2.7-.5c-1.8-.3-3.3.2-4.5 1.4-1.1 1.1-2.8 1.9-3.8 1.9-1.1 0-2.6.7-3.5 1.5-.8.8-2.3 1.5-3.3 1.5-2.9 0 2.9-4.4 12.2-9.1 4.4-2.3 8.5-4.5 9-4.9.6-.4 3.5-1.6 6.5-2.5 11.9-3.8 31.6-4 42.4-.4zm188.8 4.4c5.5 2.6 10.4 6.3 9.5 7.1-.3.3-2-.3-3.8-1.3-4.1-2.2-12.9-4.6-13.8-3.7-.7.7 7.3 7.8 11.2 9.8 4.2 2.2 14.3 10.8 16.1 13.7 1.5 2.5 1.4 2.7-1.2 5.1-3.5 3.3-6.5 4.8-9.6 4.8-1.4 0-4.5.9-6.8 1.9-14.7 6.5-29.4 7.9-41.6 3.9-10.7-3.4-11-3.6-11.4-6-.5-3.4-7.1-6.6-13.6-6.7-3.1-.1-6.3-.8-7.8-1.7-2.3-1.5-2.6-1.5-4.3 0-2.1 1.9-4.1 2.1-4.1.4 0-1.8 24.1-24.8 25.9-24.8.5 0 3.1-1 5.8-2.2 6.4-2.8 12.9-3.5 29.9-3.2 12.8.3 14.7.6 19.6 2.9zM210.4 594.3c-.5 6.2-.3 8.1 1.4 12 1.4 3.1 3 5.1 4.9 5.9 1.5.6 3.9 2.2 5.3 3.4 3.6 3.2 11.1 5.1 14.4 3.6 3.7-1.7 3.2-3.9-1.4-6.2-3.1-1.6-4-2.6-4-4.6 0-2.9.6-2.9 10.4-.1 3.9 1.1 5.1 2 6.2 4.5.7 1.8 1.7 3.2 2.2 3.2.5 0 2.6 1.3 4.7 3 2.1 1.6 4.6 3 5.5 3 1 0 3.1.7 4.6 1.5l2.9 1.5h-3.7c-2.1 0-3.8-.5-3.8-1 0-.6-.9-1-2-1-1.2 0-3.1-.7-4.5-1.6-1.4-.9-4-1.4-6.7-1.2-3.7.3-4.3.6-4.2 2.5.1 2.8-2.4 3.7-7.9 2.9-6.1-.9-15-4.4-16.7-6.5-.3-.4-1.7-1.4-3.2-2.4-1.5-.9-3.3-2.9-4-4.4-1.1-2.4-6.1-6.6-8.9-7.5-.6-.2-.5-1.5.3-3.4 1.4-3.3 8-14.4 8.6-14.4.1 0 0 3.3-.4 7.3zM320 613.7c-2.3 2.6-5.4 5.6-6.8 6.5-6.2 4.1-21.8 6.6-20.6 3.3.4-.8 1.4-1.5 2.3-1.5 3.5 0 12.3-4 16.3-7.4 2.3-2 4.5-3.6 4.9-3.6.7 0 2.1-3.7 3.4-9.5.7-3 .7-3 2.7 2.2l2 5.2-4.2 4.8zm-20.3-4.1c.2.6-1.6 1.8-3.9 2.8-2.4 1-5.7 2.9-7.3 4.1-3.6 2.7-19.1 8.2-20.1 7.2-1-.9 2.6-3.6 4.8-3.7 2.2 0 7.3-4.4 9.5-8.1 1.2-2 2.3-2.7 3.7-2.4 1.2.3 4.1.1 6.6-.4 5.1-1 6.2-.9 6.7.5zm22.8 74.8c4.4.8 8.7 1.7 9.6 2.1.9.3 5.4.9 10 1.3 7.5.6 8.4.9 8.4 2.7 0 1.7-.7 2-4.8 2.2-2.7.1-6.5.7-8.5 1.3-2 .5-6.4 1-9.7 1-5.3 0-21.4 3.6-24.4 5.4-2.4 1.6-21.2 4.8-29.1 5.1-8.5.4-8.5.4-2.5-.6 3.3-.5 7.4-1.3 9-1.8 1.7-.5 6.8-1.9 11.5-3.2 8.7-2.4 14-5.3 14-7.6 0-1.1-4.7-1.2-26.2-.8-39.6.8-41.5 1.4-28 8.2l4.7 2.3-6.5-.4c-3.6-.3-12.6-2.1-20-4.2-7.4-2-16.4-3.8-20-4-3.6-.1-8.5-1-10.9-1.8-2.4-.9-6.6-1.6-9.4-1.6-5 0-5.1 0-2.8-1.6 1.9-1.4 2.9-1.5 6.1-.5 6 1.8 14.4 1.3 25.3-1.5l10.2-2.7 8.5 2.2c7.1 1.8 11.7 2.1 28 2.2 19.6.1 28.6-.7 37-3.4 5.9-2 10.7-2 20.5-.3zm-69 46.6c2 1.5 10.5 3 16.8 3 6.7 0 17.5-1.7 19.2-3 1.6-1.2 8.4-2.2 10.6-1.5 1.8.6 1.5 1-2.3 3-5.7 3-12.5 3.9-29.2 3.7-14.9-.2-16.7-.4-20.8-3.3-1.4-1.1-3.3-1.9-4.2-1.9-.9 0-1.6-.5-1.6-1.1 0-1.2 9.7-.3 11.5 1.1z"/>
    <path d="M163 466.7c-7.1 1.9-8.8 3.5-9.6 9.1-.6 3.7-.3 5.4 1.6 8.9 3.1 5.9 6.8 8.4 12.7 8.5 4.9.1 12.3-1.8 12.3-3.1 0-.4.9-1.8 1.9-3l1.9-2.2 1 3.1c1.1 3.1 2.5 3.6 6.4 2.1 11.4-4.4 12.7-5.5 10.7-9.2-1.7-3.3-8.9-7.9-12.3-7.9-4.6 0-5.4 1-5.9 6.5-.3 5-.3 5-.5-1.1-.2-5.2-.6-6.4-2.9-8.6-2.7-2.4-8.4-4.9-10.7-4.7-.6.1-3.6.8-6.6 1.6zM140.7 473.6c-5 2.6-7.2 6-5.4 8.2 1.5 1.9 8.3 5.2 10.6 5.2 4.8 0 6.9-9.7 3.1-13.8-2.5-2.7-2.4-2.7-8.3.4zM330.9 461.8c-9.2 5.4-12.6 11.2-6.6 11.2 2.9 0 17.4-7.9 18.2-10 .7-1.7-2.1-4-4.9-4-1.2 0-4.2 1.3-6.7 2.8zM348.1 468.3c-2.7 1.4-3.7 2.9-4.6 7.1-.6 2.6-.7 2.7-2.4 1.2-2.7-2.4-7.2-2-11 1.1-3.9 3.4-3.5 5.4 1.8 7.8 4.9 2.1 9.5 1.7 9.9-1 .7-4.7 1.3-4.9 3.9-1.2 2.4 3.4 8.1 6.9 13.5 8.2 2.6.7 12.6-3.3 14.7-5.9.7-.8 1.5-4.2 1.8-7.6.7-7.1-.7-9.4-6.4-10.3-5.1-.9-6.5.6-5.8 5.7.8 5.3-1.1 8.2-4.7 7.3-3.3-.9-4.1-3.1-2.6-7.4 1.1-3.1 1.1-3.6-.7-4.9-2.3-1.7-4.3-1.8-7.4-.1zM481.9 481.1c-3 3-5.5 9.3-6.8 17.4-2.5 15.3-6.6 27-13 37-3.3 5.3-3.5 9.2-.5 12.6.8.8 1.7 3.1 2 5 .9 4.5 2 5.8 4.5 5.2 2.3-.6 4.9-6.2 4.9-10.6 0-1.7.3-2.8.6-2.4 1 .9.6 9.8-.5 11.1-.5.6-1 1.8-1.2 2.8-.2.9-3.5 4-7.3 7-10.1 7.8-10.3 8.1-12.6 25.3-1.2 8.2-2.6 18.7-3.2 23.2-1.3 9.2-.6 11.3 4.2 11.3 3.4 0 8.9-5.2 18.2-17 14.1-18 20.5-28.7 29.5-49 6.1-13.7 8.5-25.9 8.7-44.2.1-15.6-.6-18.4-4.1-16.2-1.3.8-2.2 4.2-3.4 12-1.8 11.1-3.6 18-8.4 31.4-1.4 4.1-3 8.8-3.4 10.5-1.1 4.4-4.1 9.6-5 9.1-.5-.3.1-3.6 1.2-7.3 1.6-5.2 2.2-10.6 2.7-23.1l.5-16.3 1.8 3.1c1.8 2.9 2 3 3.7 1.5 3.3-2.9 5.2-13 4.8-24.7-.3-10.2-.4-10.8-3.2-13.7-2.5-2.6-3.7-3.1-7.8-3.1-3.5 0-5.3.5-6.9 2.1zM33.9 503.1c-1.8 1.8-2 2.9-1.6 9.5.2 4.1.1 7.7-.3 7.9-.5.3-2 .1-3.4-.5-3.2-1.2-7 .1-8 2.7-1.9 4.8 5.2 26.2 9.1 27.7.7.3 2.2-.3 3.3-1.4 3.1-3.1 4.7-1.5 6 6 .9 5.4 2 8 5.4 12.7 5.6 7.6 6.4 10.8 3.6 13.8-3.2 3.5-2 6.6 6.7 17.5 8.6 10.8 8.8 11 12.6 11 4.3 0 5.2-3.6 3.1-12.9-.9-4.2-2-10.3-2.4-13.6-.4-3.3-1-6.7-1.4-7.6-.4-.9-3.7-3-7.5-4.7-6.4-2.9-9.1-5.8-9.1-9.6 0-.7-.9-3.1-2-5.4-1.1-2.2-2-5.4-2-7 0-2.7 2-8.2 3-8.2.3 0 .6 2.4.6 5.2.2 7.1 1.6 12.8 4.4 17.2 1.9 3.2 2.7 3.7 5.4 3.4 4.3-.4 5.7-4.8 4.4-14.3-1-8-3-11.4-7.6-12.9-2.4-.9-2.9-1.4-2.2-2.6 1-1.6.7-3.4-2-9.5-2.1-4.5-3.3-8.3-5.5-17-.9-3.3-2.3-6.7-3.2-7.7-2.2-2.4-6.8-2.3-9.4.3z"/>
  </g>
</svg>
