<svg width="898" height="447" viewBox="0 0 898 447" xmlns="http://www.w3.org/2000/svg" xmlns:xlink="http://www.w3.org/1999/xlink">
  <title>
    babel-fish
  </title>
  <defs>
    <path d="M892 441.8c0-1.8-.7-9.1-1.5-16.3-1.6-13.7-4.6-48.9-6.5-74-.6-8.2-2.4-28.9-4.1-46-1.6-17-3.4-35.5-3.9-41-.6-5.5-1.5-13.6-2.1-17.9-1.2-8.2-.7-26.7 1.1-38.1.5-3.3 1.6-13.6 2.5-23 .8-9.3 2.2-22.8 3-30 2.6-23.6 5.4-50.7 7.5-72.5 1.1-11.8 2.7-27.6 3.5-35 4.3-38.7 4.8-48 2.7-48-1.6 0-70.1 39-75 42.7-1.8 1.4-5.6 5.9-8.5 10-2.9 4.1-9.9 13.9-15.7 21.8-5.8 7.8-12.7 17.4-15.5 21.4-7.6 11-23.7 32.5-24.9 33.3-.6.4-2-.2-3.1-1.2-3.3-3.1-4.2-2.3-1.2.8l2.7 2.9-14.9 19.9c-25.5 34.1-28.3 37.5-32.2 40.3-4.5 3.3-11.2 5.4-16 4.9-3.2-.3-3.7-.9-8.2-9.3-12.8-24.1-23.8-45.3-42.2-81.6-11-21.7-20.5-40.4-21.2-41.4-1-1.8-2.5-1.9-16-2-8.1 0-25.5-.2-38.5-.3L540 62l-2.5-4c-1.4-2.2-3.5-5.8-4.6-8-1.2-2.2-2.5-4-3.1-4-.9 0 2.3 6.3 5.9 11.5 3.1 4.6 3.8 4.5-41 4.5h-42.4l-12.9-3.7c-12.8-3.6-13.1-3.7-36.4-4.2-22.7-.6-23.6-.7-27.5-3.1-2.2-1.3-4.1-2.8-4.3-3.2-.5-1.1-2.2-1-2.2.2 0 .5 1.6 1.7 3.5 2.6 2 .9 3.7 2 4 2.4.3.4-9.8 1-22.3 1.3-21.5.5-23.3.7-34.7 3.7-25.8 6.9-23.3 6.5-27 4.7-1.9-.9-4.4-3-5.6-4.7-1.3-1.6-2.7-3-3.3-3-.5 0 0 1 1.2 2.3 3.1 3.3 2.8 5.3-1 6.1-1.8.3-6.7 2.4-10.9 4.6-4.3 2.2-8.4 4-9.2 4-.7 0-2.6-1.4-4.3-3.1-1.6-1.7-3.8-3.5-4.9-4-1.1-.6-.1.8 2.3 2.9 2.3 2.2 4.2 4.5 4.2 5.1 0 .5-5.3 3.6-11.7 6.8l-11.8 5.8-23.2.1c-23.8.2-27.6.7-34.1 4.6-2.5 1.5-3.6 1.8-4.5.9-.6-.6-1.5-1.1-2.1-1.1-.6 0-.5.5.2 1.2s1.2 1.7 1.2 2.3c0 1.3-21.1 19-46.5 38.9-11 8.6-20.9 16.5-22 17.5-2.7 2.4-16.5 13.6-23.9 19.1-8.5 6.6-10.4 7.4-13.1 6.2-2.4-1.1-17.1-22.7-30.9-45.1-9.3-15.2-9.4-15.4-14-18.5-5.4-3.6-11-3.5-16.3.3-7.8 5.6-7.4.8-7.3 95.4 0 80.6.1 84.1 1.9 88.3 3.2 7.1 11.7 10.7 20.2 8.4 7.6-2.1 8.1-2.9 38.3-54.5 2.2-3.8 5.1-8 6.3-9.3 2.1-2.1 2.5-2.2 5.1-.8 3.3 1.7 24.6 21.2 38.6 35.4 6.7 6.8 9.7 10.5 9.3 11.6-.4 1-.1 1.3.8 1 .8-.3 2-.2 2.9.3.8.4 12.6 11.8 26.3 25.3 23.3 23 25.4 24.8 35.3 30.4 24.4 13.6 40 23 40 23.9 0 .6-.8 1.9-1.7 3-1.8 2-1.8 2 1 .2 2.4-1.5 3.4-1.6 6.6-.6 2.1.6 8.6 1.1 14.3 1.1 8 0 15.5.9 31.4 3.9 11.5 2.2 23.2 4.3 25.9 4.6 7.1 1.1 9.8 2.2 9.1 4-.3.8-.1 1.7.4 2 .5.3 1-.5 1.2-1.7l.3-2.3h77l.5 16.5.6 16.5.3-14.5c.2-8 .3-15 .2-15.7-.1-.6.4-1.5 1.1-2 1.7-1.1 101-.3 102.4.8.6.5 1.7 3.4 2.4 6.4.7 3.1 1.7 5.8 2.2 6.1 2 1.3 2-.8 0-6.3-1.2-3.1-1.8-6.1-1.5-6.6.4-.6 23-.8 61.6-.6l61.1.4 12.3-18.5c6.8-10.2 12.7-18.6 13.2-18.8.5-.2 4.2 3.1 8.2 7.2 4 4.2 7.7 7.6 8.3 7.6.6 0-2.4-3.5-6.7-7.8-4.2-4.2-7.7-8.5-7.7-9.4 0-.9 4.9-9 10.8-18 10.7-16 16.3-24.6 23.5-36 3.6-5.7 3.7-5.8 8.3-5.8 7.8 0 12.2 3.3 19.2 14.7 3.3 5.4 10.8 17 16.6 25.8 10.6 15.9 19.7 30.5 35.3 56.1 9.8 16 11.1 17.7 16 21.2 5.1 3.7 6.7 4.4 22.8 10.3 23 8.5 31.2 11.7 68 26.8 19.9 8.2 21.5 8.5 21.5 3.9z" id="a"/>
  </defs>
  <g fill-rule="nonzero" fill="none">
    <g transform="matrix(1 0 0 -1 1 446)">
      <use stroke="#979797" xlink:href="#a"/>
      <use stroke="#57C003" stroke-width="2" xlink:href="#a"/>
    </g>
    <path d="M861 19.1c-12.9 5-30.2 11.7-38.5 14.8-31.5 12.1-37 14.8-42.4 20.7-2.7 2.9-10.9 15.2-18.2 27.1-7.3 12-16.9 27.4-21.4 34.3-4.5 6.9-12.1 18.9-16.9 26.6-9.7 16-15.5 23-20.3 25-7.1 3-18.1 1.6-33.8-4.4-36-13.8-43.9-16.9-44.2-17.8-.2-.5.2-1.8.9-2.7 1.2-1.6 3.1-1.1 24.8 7.1 12.9 4.9 24.3 9.3 25.3 9.7.9.4 1.7.3 1.7-.2 0-1.8-31.3-50.5-32.9-51-.3-.2-1.5.9-2.6 2.3-2.6 3.3-5.9 6.7-13 12.9-3.2 2.7-7.3 7.4-9.2 10.2-1.8 2.9-3.9 5.3-4.5 5.3-1.4 0-17.4 16.7-19.4 20.2-.8 1.6-1.9 2.8-2.5 2.8-1.5 0-20.9 20.2-20.9 21.7 0 .7-1.2 1.9-2.7 2.7-1.6.8-4.4 3-6.2 5-1.9 2-3.9 3.6-4.5 3.6-.6 0 .9-1.9 3.2-4.3 2.3-2.3 4.2-4.8 4.2-5.4 0-.6 1.2-1.8 2.6-2.8 3.9-2.5 20.4-19.7 20.4-21.1 0-.7 2.1-2.7 4.8-4.5 2.6-1.7 7.9-6.9 11.7-11.6 3.9-4.7 7.6-9 8.4-9.7.8-.6 4.7-4.5 8.8-8.6 4.1-4.1 10.3-10.5 14-14.1 6.1-6.2 6.4-6.8 5.3-9-2.2-4-21-31.6-22.4-32.8-.9-.8-19.3-1.1-61.2-1.1-55.4 0-60 .1-61.2 1.7-.6.9-1 2.4-.7 3.3.3.9-.3 3.7-1.4 6.1-1.1 2.4-2.3 6.9-2.7 9.9-.4 3-1.1 6-1.6 6.7-1.3 1.7-4.8 13.3-4.8 16.1 0 1.3-.7 3.6-1.5 5-1.7 3.1-10.5 34.9-10.5 38.1 0 1.1-.9 3.8-2 5.8-1.1 2.1-2 4.3-2 5 0 .7-.5 1.3-1.1 1.3-1.5 0-.2-10.6 1.6-13.4.7-1.2 2-4.6 2.9-7.6.8-3 3.1-11.1 5-17.9 2-6.8 3.3-12.7 3.1-13.1-.3-.5.6-3 1.9-5.7 1.4-2.7 2.9-7.5 3.5-10.8.5-3.3 1.6-7.3 2.5-8.9.8-1.6 1.8-5.5 2.2-8.5.4-3 1.3-7 2-8.7.7-1.7 1-3.4.7-3.8-.4-.3-13.6-.6-29.4-.6h-28.7l-3 2.5-3 2.5-5.8-2c-4.6-1.6-8.6-2.1-17.6-2.1-6.4-.1-12.1.2-12.7.5-.6.4-1 9.2-1 22.2 0 11.9-.3 21.9-.6 22.2-.3.3-.5-9.6-.5-22V71.2l-2.6-.6c-3.9-1-74.4.5-75 1.6-.3.5-1.2.4-1.9-.2-1-.8-5.3-.4-16.7 1.6-8.4 1.4-15.7 3-16.1 3.4-.5.4 2.9 1.1 7.5 1.4 12.7 1.1 14 1.4 13.6 3.9-.3 2-.8 2.2-6.9 2.1l-6.7-.2-.6 7.2c-1 10.7-.9 10.6-6.9 10.6-7.4 0-10 1.6-11.1 6.8-.6 2.3-1.5 4.2-2 4.2-.6 0-2.4-1.4-4.1-3.1-6.3-6.5-23.9-13.9-32.9-13.9-5.1 0-6.8-1.6-4-3.7 1.3-1 3.2-1.2 5.7-.8 3.7.5 3.8.5 2.4-1.5-.8-1.2-1.3-3-1-4.1 1.1-4.1-.6-3.2-42.7 20.9-10.9 6.3-12.9 8-37 31.5-14 13.7-25.9 25.8-26.4 26.8s-1.4 1.9-2.1 1.9c-.6 0-2.4 1.4-4.1 3.1-9.1 9.7-44.8 42.2-47.3 43-5.5 1.9-8.1-.6-18-17.3C28.8 149.6 26.8 147 18.2 147c-5.9 0-9.7 3.8-10.8 10.5-1.1 7.8.3 22.2 3.5 34.5 8.5 32.6 10 37.9 11.1 39.9 2 3.8 6.8 5 19.4 5.2l11.5.1-2.2 3.8c-1.9 3.3-2.4 3.7-3.7 2.6-.9-.8-5.4-1.6-10.7-2-14.6-.9-13.1-3.6-26 47.9C6.9 303.4 6.1 309.4 7 317c.8 6.8 1.1 7.7 4.4 10.7 7.5 6.9 12.4 3.8 24.8-16 14.2-22.8 29.6-45.4 31.3-46.1.9-.3 3.4-.6 5.5-.6 4.1 0 3.6-.4 26.7 17.7 7.2 5.7 13.4 10.3 13.8 10.3.3 0 1.8 1.4 3.2 3 1.4 1.7 5.3 5.2 8.7 7.7 13 9.9 39.5 31 47 37.5 7.8 6.7 11.1 8.2 12.2 5.4.3-.8 1.3-1.7 2.2-2.1 1.1-.4.9.2-.7 1.9-2.7 2.9-2.2 4.2 2.8 6.4 2.8 1.3 8.2 1.8 25.6 2.2l22 .5 13.5 6.1c18.2 8.3 17.5 8.2 22.7 3l4.3-4.3v-30.4l3.3.3 3.2.3.1 8c.1 11.4.1 11.5 2.8 11.5 2.2 0 10-5.5 11.8-8.4.4-.6.8-3.5.8-6.4 0-5.1 0-5.2 3-5.2 2.3 0 3 .4 3 2 0 1.1.7 2 1.6 2 1.4 0 1.4.2 0 2.2-1.9 2.6-2.1 10.9-.4 12.6.7.7 3.6 1.2 6.5 1.2h5.4l-1.6 3c-.9 1.7-1.3 3.5-1 4 1 1.6 3.1 0 5.5-4.2 2.1-3.7 2.3-5.5 2.4-16.9.1-14.6.6-15.7 7.5-16.6 3.9-.5 5.6.7 3.1 2.2-.6.3-1 2.8-1 5.6 0 6.1 2.5 7 3.6 1.1 1.4-7.8 5-10.5 12.1-9 6.2 1.3 6.7 2.8 6 18.7-.6 12.5-.5 13.7 1.5 17.3 1.2 2.1 2.8 3.8 3.5 3.8 2.2 0 2.6-2.7.8-5.4l-1.7-2.6h9.9c11.7 0 15.8 1.2 17.8 5.1 1.9 3.6 1.9 10.3.1 11.8-1 .9-13.1 1.1-44.7 1-23.9-.1-44.7-.2-46.4-.4-1.6-.1-5.1-.3-7.7-.4-3.4-.1-5.5-.8-7.7-2.7l-3.1-2.5-3.5 2.7c-2 1.5-3.4 3.2-3.2 3.8.1.6 3.4 2.7 7.2 4.6 9.4 4.6 16.5 4.9 20.1.6 1.4-1.5 2.8-2.6 3.1-2.2.3.3-.1 1.4-1 2.4-1 1-1.7 2.1-1.7 2.4 0 1.1 9.3 3.8 12.9 3.8 2 0 7.4 1 12.1 2.1 6.5 1.6 13.4 2.3 29.5 2.9 29 1.1 34.1.7 40.4-2.4 2.8-1.5 5.1-2.2 5.1-1.8 0 .5-1.2 1.4-2.7 2.1-4.7 2.2-1 2.6 15.8 2 15.5-.6 17.3-.9 33.4-5.4 9.4-2.5 19.6-6.1 22.8-7.8 5.5-2.9 5.9-2.9 7.5-1.3 1.6 1.6 1.6 1.8-.5 3.6-1.3 1-2.3 2.1-2.3 2.4 0 .5 64.6.3 73-.2.8-.1 16.4-.1 34.5-.2 18.2-.1 33.7-.3 34.6-.6 2-.6 14.4-23.1 30.3-55.4 6.9-14 17.7-35.5 24-47.7 6.4-12.2 11.2-22.4 10.8-22.7-2.4-1.5-14.3 3-24.6 9.3-6.2 3.8-9.6 4.6-9.6 2.3 0-1.8 21.8-15.3 26.8-16.7 13.4-3.5 27.4-2.7 36.4 2.2 5.7 3.1 7.9 5.4 16 16.4 3.5 4.8 16.2 21.9 28.4 38 12.1 16.2 27.6 37.3 34.5 46.9 23.9 33.4 35.9 48.9 40.2 51.8 2.3 1.6 7.8 4.8 12.2 7.2 4.4 2.4 10.5 5.7 13.5 7.3 6.3 3.4 27.9 15.5 32.7 18.3 1.7 1 3.4 1.6 3.8 1.3.6-.7-.4-12.8-3.4-40.9-1.1-10.2-2.9-28.6-4-41-1.2-12.4-3-30.8-4.1-41-1.1-10.2-3.1-30-4.5-44s-3.5-33.3-4.6-42.8c-2.5-21.1-2.5-18.3-.1-32.7 1.1-6.6 2.5-17.6 3.2-24.5 3-32.2 4.1-43.4 5.5-55.5.8-7.2 1.9-19.6 2.5-27.8 1-15.5 3.4-40.8 5-54.1 1.2-9.4 1.3-20.6.3-20.6-.5.1-11.4 4.1-24.3 9.1zm-558.2 85.7c.2 5.2.6 7.2 1.5 6.9.7-.2 1.3-1.8 1.5-3.5.4-3.8 2.1-4.4 10.7-4l6 .3v14H319c-3.2 0-3.5-.3-3.8-3-.2-1.7-.5-3.6-.8-4.4-.8-2.3-2.6.3-2.8 4.1l-.2 3.3-6.2.3-6.2.3V113c0-8.2-2.4-7.8-2.8.3-.2 3.1-.7 5.7-1.2 5.7-.6 0-1 .7-1 1.5 0 1.3 2.2 1.5 13.9 1.5 8.8 0 14.2.4 14.6 1.1.7 1 .9 10.8.3 11.4-.2.2-4 .5-8.6.6-4.5.2-8.8.6-9.5 1.1-2.5 1.5.9 2.7 8.6 3 9.5.4 10 .9 9.4 11.1l-.3 7.2h-4.5c-12.4.2-14.9.5-14.9 2 0 1.1 1.1 1.5 3.8 1.5 5.7 0 8.2 1 8.2 3.1 0 2.6-.8 2.8-12.9 3.2-6.8.2-10.6.8-10.9 1.5-.2.7 0 1.2.5 1.3.4 0 3 .2 5.7.4 2.7.3 5 .6 5.2.8.2.2.7 1.8 1 3.5.6 2.7.3 3.3-1.8 4.1-3.2 1.2-23.9 1.4-25.7.2-1.2-.8-.9-2.2 1.5-8.7 1.6-4.2 3.4-7.7 3.9-7.8.6-.1 1.1 2 1.3 4.6.2 2.7.7 4.8 1.2 4.8s1-2.1 1.2-4.8c.3-4.2.6-4.7 2.8-5 3.9-.6 5.8-2.9 6.5-8.2.8-5.8 1-6 12.5-5.7 7 .2 8.5-.1 8.5-1.3s-1.9-1.6-10.2-1.8c-5.7-.1-10.3-.6-10.4-1-.1-1.3-.1-8.7 0-10.9.1-2.1.6-2.2 9.4-2.5 7.4-.2 9.2-.6 9.2-1.8 0-1.3-1.8-1.5-11.2-1.2l-11.3.3v-2.8c0-1.5-.4-3.4-.9-4.2-1.4-2.2-3.1-.3-3.1 3.5 0 3-.3 3.4-2.5 3.4-2.4 0-2.5-.2-2.5-7.1 0-6.2-.2-7-1.7-6.7-1.5.3-1.8 1.4-1.6 6.6.3 7.3-1.4 8.4-4.1 2.4-2.8-6.2-1.1-18.1 2.6-18.2.4 0 1 .5 1.3 1 .5.8 1.1.8 1.9 0 .7-.5 2.7-.7 4.5-.4 2.3.5 3.1 1.2 3.1 2.8 0 2.4 1.6 5.3 2.5 4.5.3-.4.8-3.7 1-7.3.3-3.7.7-7.2 1.1-7.7.3-.6 2.7-.9 5.2-.7l4.7.3.3 7.3zm-68-5.3c9.7 2 14.2 3.8 21.7 9.1 26.1 18.2 28.7 58.1 5.1 80.1-9.2 8.7-18.6 12.4-32.3 13.1-11.6.5-16.2-.4-26.6-5.2-15.8-7.3-27.7-26.7-27.7-45.2 0-24 12-41.6 33.9-49.8 10.6-4 14.7-4.3 25.9-2.1zm56.5 33.7c.2 1.3.2 7.5-.2 13.8l-.6 11.5-4.5.3c-4.5.3-4.6.2-4.4-2.5.3-5.8.3-5.8 1.6-4.5 2.3 2.3 2.8 1.1 2.8-7.4 0-6.4-.3-8.5-1.2-8.2-.7.3-1.4 1.9-1.6 3.6-.4 4.3-1.8 4-2.7-.6-.3-2-.9-4.7-1.2-6-.5-2.1-.2-2.2 5.5-2.2 5.4 0 6 .2 6.5 2.2zm109.5 66c.2 22.7 0 28.8-1 28.9-.7 0-7.4 0-14.8-.1l-13.5-.1-15.4 13.3c-14.4 12.4-15.7 13.7-18.3 19.8-1.5 3.6-6.6 15.5-11.3 26.5-4.7 11-10.2 23.9-12.1 28.7-3.8 9.2-6.6 12.2-6.1 6.5.2-2.8-.1-3.2-2.6-3.5-3.4-.4-3.1-2.5.4-3 3.2-.5 4.7-1.8 7-6.5 2.2-4.3 1.4-6.7-2.3-6.7-1.1 0-1.8-.5-1.5-1.3.2-.6 1.8-1.2 3.4-1.2 3.5 0 3.2.2 6.1-4.6 2.9-4.7 2.8-6.7-.3-8.1-3.4-1.5-2.7-3.2 1.6-3.8 2.6-.4 3.8-1.3 5.6-4.5 3.1-5.5 3-7.4-.7-8.2-1.6-.3-3-.9-3-1.4 0-1.2 3.9-3.1 4.9-2.4 1.4.8 4.1-.5 4.1-2 0-1.6-2.3-2.5-6.6-2.5-2.9 0-3.6.5-5.4 4-3 5.8-2.7 8 1.1 8 2.4 0 3 .4 2.7 1.7-.2 1.1-1.4 1.9-2.8 2.1-5.8.6-6.8 1.2-8.4 5.2-1.8 4.5-1.3 7 1.4 7 1.1 0 2.1.4 2.4.8.7 1.1-1.1 3.7-2.6 3.8-.7 0-2.3.2-3.5.2-1.3.1-2.9 1.6-4.2 3.8-2.4 4-2.7 6.3-.8 6.8 4.8 1.5 4.9 1.6 3.7 3.1-.7.8-2.3 1.5-3.6 1.5-1.7 0-3.1 1.2-4.9 4.1-3.2 5-2.9 7.3.8 7.7 5.5.6 2.2 2.7-4.8 3-6.2.3-6.7.1-6-1.5 1.5-3.6 1.1-5.8-1.2-6.1-1.3-.2-2.3-.7-2.3-1.3 0-.8 1.8-1.4 6.4-2.1 2.3-.4 5.8-6.3 5.4-9.2-.2-1.3-1.2-2.2-2.6-2.4-3.4-.5-2.1-2.6 1.9-3.2 2.6-.4 3.8-1.3 5.6-4.5 3-5.2 3-8.3.1-8.7-3.7-.5-2.8-3.2 1.2-3.8 2.9-.4 3.9-1.2 5.9-5.1 2.8-5.2 2.3-7.9-1.4-7.9-2.7 0-2.8-.1-1.9-2.4.4-1 1.8-1.6 4-1.6 2.3 0 3.7-.6 4.1-1.6.8-2.1-1.3-3.4-5.4-3.4-2.8 0-3.7.7-6.2 4.7-3.2 5.1-2.8 8.3 1 8.3 3.6 0 1.8 3.4-2.1 4-2.4.4-3.9 1.3-5.1 3.5-2.6 4.5-3.4 8.4-1.8 8.9 4.6 1.4 5.2 1.7 4.3 2.6-.8.8-4 1.7-7 1.9-.6.1-2.1 2.3-3.4 5.1-1.9 4.1-2.1 5.2-1 6.5.7.8 1.9 1.5 2.7 1.5 3 0 .6 2.4-2.8 2.7-2.4.3-4.3 1.4-6.7 4.1-3.9 4.5-3.8 6.3.6 7.4 2.8.8 3.2 1.1 2.2 2.3-1 1.2-4.3 1.5-16.1 1.5h-14.8l-27.8-14.1c-15.3-7.8-31.2-16.1-35.3-18.4-4.1-2.3-14.5-7.7-23-12-8.5-4.2-15.7-7.9-15.9-8.1-.3-.2.5-1.3 1.6-2.4 2-1.8 2.9-4 6.8-17.3 1-3.1 2.1-5.7 2.5-5.7.4 0 1.1 2.1 1.4 4.7 2.4 17.7 3 19.8 5.6 22.5 2 2 3.4 2.5 5.1 2.1 2.1-.5 13-10.4 36.8-33.1l6.6-6.3 25 .5c83.3 1.9 97.9 2 101 .3 4.3-2.3 10.7-8.5 10.2-10-.2-.8-3.2-1.2-9.6-1.3-5.8 0-9.6-.5-10.4-1.3-1.3-1.3-2.4-43.7-1.2-49.8 1.2-6.5.3-6.4 35.8-6.1l32.2.3.3 28.7zM450 171c4.7.6 12.3 2.2 17 3.7 4.7 1.4 11.4 3.3 15 4.3 3.6 1 10.6 3 15.5 4.5 5 1.5 11 3.3 13.5 4 18.2 5.2 26.6 7.8 27.5 8.4.6.3-.8.8-3 1.1-3.3.4-4.2 1-5.4 3.7-1.3 2.9-1.9 3.3-5.5 3.4-2.3.1-10.1.4-17.5.8-13.1.6-13.4.7-15.4 3.3-1.6 2.2-2.2 4.7-2.5 11.8l-.4 9H408v-22.8c0-12.5.3-25.7.7-29.5l.6-6.7h16.1c8.9 0 20 .5 24.6 1zm78.8 44.2c.7.7 1.2 2.1 1.2 3.3 0 4.1 1.6 4.5 19.1 4.5 12.4 0 16.8-.3 17.1-1.2.3-.9 4-1.4 12.1-1.6l11.7-.4v3c0 6.2.3 6.2-48.7 6.2H497v-4.9c0-2.7.4-6.1 1-7.5l1-2.6h14.3c9.8 0 14.7.4 15.5 1.2zM199.5 238h5L189 252.9c-8.5 8.2-15.8 14.6-16.1 14.3-.4-.4-1.4-5.8-2.2-12.1-1.8-13.3-3.7-16.4-9.6-15.9-5.4.5-6.8 3.2-10.6 20.2-.3 1.5-.8 2.6-1.1 2.4-.2-.3-1.1-4.4-1.9-9.2-1.4-9-3.5-13.6-6-13.6-.7 0-1.7-.5-2.1-1.1-.5-.9 6.7-1 27.2-.6 15.4.4 30.2.7 32.9.7zm190.9 11.9c1.4 1.2 1.6 5.1 1.6 30 0 24.2.3 30.4 2.1 40.6 1.1 6.6 2.7 16.9 3.5 23 .8 6 1.7 12.3 2 13.8.7 3.6-1 5.7-4.7 5.7-2.7 0-2.9-.3-2.9-3.5 0-5.1-2.6-9.4-6.5-11.1-3-1.2-4.3-3.3-11.5-17.4-8.3-16.6-8.8-18.2-9.3-33-.2-4.1-.6-5.5-1.7-5.5-1.2 0-1.6 1.8-1.8 8.5-.4 10.6 1.1 17.8 5.3 25.5 6.4 11.8 10.5 19.6 10.5 20 0 .3-1.7.5-3.8.5-3 0-4.7-.9-8.8-4.5l-5.2-4.4-.4-9.1c-.4-8.2-.7-9.3-3.1-11.8-2.5-2.4-3.3-2.6-10.2-2.6-7.1.1-7.6-.1-8.1-2.3-.7-2.6-2.3-2.9-4.4-1.1-.8.7-.2-.1 1.3-1.8 2.8-3.1 2.8-3.3 2.2-11.5l-.7-8.4 4.7-10.4c9.9-22.3 12.8-26.1 19.3-26.1h4.1l-.2 9c-.1 5.4.2 9 .8 9 .6 0 1.8-3.9 2.8-8.7 1.8-9 4-12.8 8.1-13.7 3.9-.8 13.4 0 15 1.3z" stroke="#57C003" stroke-width="2"/>
    <path d="M220.5 102.6c-12.8 2.7-21.1 6.9-28.5 14.3-10.1 10-15.3 25.8-13.3 39.9 2.8 19.2 17.7 36 35.4 40.1 2.4.6 7.8 1.1 12 1.1 23.6.1 42.9-16.2 47-39.4 4.5-26.1-11.5-49.6-37.6-55.1-6.9-1.4-11-1.7-15-.9zm11 21.3c9.8 4.4 14.4 11.4 14.5 21.7 0 11-5.8 19.7-15.6 23.4-6.6 2.4-8.5 2.5-15.3.4-11.1-3.2-18.3-14.6-16.7-26 1.1-8.4 7.3-16.6 15-20 4.5-1.9 13.4-1.7 18.1.5z" stroke="#57C003" stroke-width="2"/>
    <path d="M216.7 127c-8.1 2.5-13.6 10.5-13.7 19.7 0 8.9 3.7 14.8 11.5 18.4 15.8 7.3 33.8-9.5 27.2-25.4-1.8-4.3-6.3-9.4-9.7-11.2-3.5-1.8-11.8-2.7-15.3-1.5zM238.2 80.7c-1.3.3-2.2.8-2 1.1.2.4 1.2 2.4 2.1 4.5 2 4.3 3.7 4.1 3.7-.4 0-2.6.3-3 2.3-2.7 1.5.2 2.3 1.1 2.5 2.8.5 3.5 2.2 5 2.2 1.9.1-5.8 4.8-6.7 6.2-1.1 1 3.7 2.8 3.4 2.8-.4 0-1.4.7-2.7 1.5-3 2.1-.9 4.5 1.4 4.5 4.2 0 3.4 1.7 3 2.5-.7.9-4.1 4.8-3.8 5.3.3.4 3.1 2 3.7 2.8 1 .3-.9 1-2.5 1.5-3.5.9-1.8.8-1.8-4.6-2.2-17.1-1.1-24.6-1.6-27.5-1.9-1.9-.2-4.5-.1-5.8.1zM324.1 353.6c-1.9 2.4-2.9 6.4-1.6 6.4.3 0 1.7-.7 3-1.6 2-1.3 3-1.4 5.9-.4 1.9.6 7.1 1 11.6.9 6.6-.2 8.4.1 10 1.6 3.3 2.9 4.8.4 2-3.3l-2.2-2.9-8.6.5c-8.3.4-11.1-.1-17.3-3.5-.4-.2-1.6.8-2.8 2.3z" fill="#57C003"/>
  </g>
</svg>
