<?xml version="1.0" encoding="UTF-8"?>
<svg width="898px" height="447px" viewBox="0 0 898 447" version="1.1" xmlns="http://www.w3.org/2000/svg" xmlns:xlink="http://www.w3.org/1999/xlink">
    <!-- Generator: Sketch 51.2 (57519) - http://www.bohemiancoding.com/sketch -->
    <title>babel-fish</title>
    <desc>Created with Sketch.</desc>
    <defs>
        <path d="M892,441.8 C892,440 891.3,432.7 890.5,425.5 C888.9,411.8 885.9,376.6 884,351.5 C883.4,343.3 881.6,322.6 879.9,305.5 C878.3,288.5 876.5,270 876,264.5 C875.4,259 874.5,250.9 873.9,246.6 C872.7,238.4 873.2,219.9 875,208.5 C875.5,205.2 876.6,194.9 877.5,185.5 C878.3,176.2 879.7,162.7 880.5,155.5 C883.1,131.9 885.9,104.8 888,83 C889.1,71.2 890.7,55.4 891.5,48 C895.8,9.3 896.3,2.27373675e-13 894.2,2.27373675e-13 C892.6,2.27373675e-13 824.1,39 819.2,42.7 C817.4,44.1 813.6,48.6 810.7,52.7 C807.8,56.8 800.8,66.6 795,74.5 C789.2,82.3 782.3,91.9 779.5,95.9 C771.9,106.9 755.8,128.4 754.6,129.2 C754,129.6 752.6,129 751.5,128 C748.2,124.9 747.3,125.7 750.3,128.8 L753,131.7 L738.1,151.6 C712.6,185.7 709.8,189.1 705.9,191.9 C701.4,195.2 694.7,197.3 689.9,196.8 C686.7,196.5 686.2,195.9 681.7,187.5 C668.9,163.4 657.9,142.2 639.5,105.9 C628.5,84.2 619,65.5 618.3,64.5 C617.3,62.7 615.8,62.6 602.3,62.5 C594.2,62.5 576.8,62.3 563.8,62.2 L540,62 L537.5,58 C536.1,55.8 534,52.2 532.9,50 C531.7,47.8 530.4,46 529.8,46 C528.9,46 532.1,52.3 535.7,57.5 C538.8,62.1 539.5,62 494.7,62 L452.3,62 L439.4,58.3 C426.6,54.7 426.3,54.6 403,54.1 C380.3,53.5 379.4,53.4 375.5,51 C373.3,49.7 371.4,48.2 371.2,47.8 C370.7,46.7 369,46.8 369,48 C369,48.5 370.6,49.7 372.5,50.6 C374.5,51.5 376.2,52.6 376.5,53 C376.8,53.4 366.7,54 354.2,54.3 C332.7,54.8 330.9,55 319.5,58 C293.7,64.9 296.2,64.5 292.5,62.7 C290.6,61.8 288.1,59.7 286.9,58 C285.6,56.4 284.2,55 283.6,55 C283.1,55 283.6,56 284.8,57.3 C287.9,60.6 287.6,62.6 283.8,63.4 C282,63.7 277.1,65.8 272.9,68 C268.6,70.2 264.5,72 263.7,72 C263,72 261.1,70.6 259.4,68.9 C257.8,67.2 255.6,65.4 254.5,64.9 C253.4,64.3 254.4,65.7 256.8,67.8 C259.1,70 261,72.3 261,72.9 C261,73.4 255.7,76.5 249.3,79.7 L237.5,85.5 L214.3,85.6 C190.5,85.8 186.7,86.3 180.2,90.2 C177.7,91.7 176.6,92 175.7,91.1 C175.1,90.5 174.2,90 173.6,90 C173,90 173.1,90.5 173.8,91.2 C174.5,91.9 175,92.9 175,93.5 C175,94.8 153.9,112.5 128.5,132.4 C117.5,141 107.6,148.9 106.5,149.9 C103.8,152.3 90,163.5 82.6,169 C74.1,175.6 72.2,176.4 69.5,175.2 C67.1,174.1 52.4,152.5 38.6,130.1 C29.3,114.9 29.2,114.7 24.6,111.6 C19.2,108 13.6,108.1 8.3,111.9 C0.5,117.5 0.9,112.7 1,207.3 C1,287.9 1.1,291.4 2.9,295.6 C6.1,302.7 14.6,306.3 23.1,304 C30.7,301.9 31.2,301.1 61.4,249.5 C63.6,245.7 66.5,241.5 67.7,240.2 C69.8,238.1 70.2,238 72.8,239.4 C76.1,241.1 97.4,260.6 111.4,274.8 C118.1,281.6 121.1,285.3 120.7,286.4 C120.3,287.4 120.6,287.7 121.5,287.4 C122.3,287.1 123.5,287.2 124.4,287.7 C125.2,288.1 137,299.5 150.7,313 C174,336 176.1,337.8 186,343.4 C210.4,357 226,366.4 226,367.3 C226,367.9 225.2,369.2 224.3,370.3 C222.5,372.3 222.5,372.3 225.3,370.5 C227.7,369 228.7,368.9 231.9,369.9 C234,370.5 240.5,371 246.2,371 C254.2,371 261.7,371.9 277.6,374.9 C289.1,377.1 300.8,379.2 303.5,379.5 C310.6,380.6 313.3,381.7 312.6,383.5 C312.3,384.3 312.5,385.2 313,385.5 C313.5,385.8 314,385 314.2,383.8 L314.5,381.5 L353,381.5 L391.5,381.5 L392,398 L392.6,414.5 L392.9,400 C393.1,392 393.2,385 393.1,384.3 C393,383.7 393.5,382.8 394.2,382.3 C395.9,381.2 495.2,382 496.6,383.1 C497.2,383.6 498.3,386.5 499,389.5 C499.7,392.6 500.7,395.3 501.2,395.6 C503.2,396.9 503.2,394.8 501.2,389.3 C500,386.2 499.4,383.2 499.7,382.7 C500.1,382.1 522.7,381.9 561.3,382.1 L622.4,382.5 L634.7,364 C641.5,353.8 647.4,345.4 647.9,345.2 C648.4,345 652.1,348.3 656.1,352.4 C660.1,356.6 663.8,360 664.4,360 C665,360 662,356.5 657.7,352.2 C653.5,348 650,343.7 650,342.8 C650,341.9 654.9,333.8 660.8,324.8 C671.5,308.8 677.1,300.2 684.3,288.8 C687.9,283.1 688,283 692.6,283 C700.4,283 704.8,286.3 711.8,297.7 C715.1,303.1 722.6,314.7 728.4,323.5 C739,339.4 748.1,354 763.7,379.6 C773.5,395.6 774.8,397.3 779.7,400.8 C784.8,404.5 786.4,405.2 802.5,411.1 C825.5,419.6 833.7,422.8 870.5,437.9 C890.4,446.1 892,446.4 892,441.8 Z" id="path-1"></path>
    </defs>
    <g id="Page-1" stroke="none" stroke-width="1" fill="none" fill-rule="evenodd">
        <g id="babel-fish" transform="translate(1.000000, 1.000000)" fill-rule="nonzero">
            <g id="Group-2">
                <g id="Group" transform="translate(448.000000, 222.500000) scale(-1, 1) rotate(-180.000000) translate(-448.000000, -222.500000) ">
                    <g id="Shape">
                        <use stroke="#979797" stroke-width="1" xlink:href="#path-1"></use>
                        <use stroke="#57C003" stroke-width="2" xlink:href="#path-1"></use>
                    </g>
                    <path d="M860,426.9 C847.1,421.9 829.8,415.2 821.5,412.1 C790,400 784.5,397.3 779.1,391.4 C776.4,388.5 768.2,376.2 760.9,364.3 C753.6,352.3 744,336.9 739.5,330 C735,323.1 727.4,311.1 722.6,303.4 C712.9,287.4 707.1,280.4 702.3,278.4 C695.2,275.4 684.2,276.8 668.5,282.8 C632.5,296.6 624.6,299.7 624.3,300.6 C624.1,301.1 624.5,302.4 625.2,303.3 C626.4,304.9 628.3,304.4 650,296.2 C662.9,291.3 674.3,286.9 675.3,286.5 C676.2,286.1 677,286.2 677,286.7 C677,288.5 645.7,337.2 644.1,337.7 C643.8,337.9 642.6,336.8 641.5,335.4 C638.9,332.1 635.6,328.7 628.5,322.5 C625.3,319.8 621.2,315.1 619.3,312.3 C617.5,309.4 615.4,307 614.8,307 C613.4,307 597.4,290.3 595.4,286.8 C594.6,285.2 593.5,284 592.9,284 C591.4,284 572,263.8 572,262.3 C572,261.6 570.8,260.4 569.3,259.6 C567.7,258.8 564.9,256.6 563.1,254.6 C561.2,252.6 559.2,251 558.6,251 C558,251 559.5,252.9 561.8,255.3 C564.1,257.6 566,260.1 566,260.7 C566,261.3 567.2,262.5 568.6,263.5 C572.5,266 589,283.2 589,284.6 C589,285.3 591.1,287.3 593.8,289.1 C596.4,290.8 601.7,296 605.5,300.7 C609.4,305.4 613.1,309.7 613.9,310.4 C614.7,311 618.6,314.9 622.7,319 C626.8,323.1 633,329.5 636.7,333.1 C642.8,339.3 643.1,339.9 642,342.1 C639.8,346.1 621,373.7 619.6,374.9 C618.7,375.7 600.3,376 558.4,376 C503,376 498.4,375.9 497.2,374.3 C496.6,373.4 496.2,371.9 496.5,371 C496.8,370.1 496.2,367.3 495.1,364.9 C494,362.5 492.8,358 492.4,355 C492,352 491.3,349 490.8,348.3 C489.5,346.6 486,335 486,332.2 C486,330.9 485.3,328.6 484.5,327.2 C482.8,324.1 474,292.3 474,289.1 C474,288 473.1,285.3 472,283.3 C470.9,281.2 470,279 470,278.3 C470,277.6 469.5,277 468.9,277 C467.4,277 468.7,287.6 470.5,290.4 C471.2,291.6 472.5,295 473.4,298 C474.2,301 476.5,309.1 478.4,315.9 C480.4,322.7 481.7,328.6 481.5,329 C481.2,329.5 482.1,332 483.4,334.7 C484.8,337.4 486.3,342.2 486.9,345.5 C487.4,348.8 488.5,352.8 489.4,354.4 C490.2,356 491.2,359.9 491.6,362.9 C492,365.9 492.9,369.9 493.6,371.6 C494.3,373.3 494.6,375 494.3,375.4 C493.9,375.7 480.7,376 464.9,376 L436.2,376 L433.2,373.5 L430.2,371 L424.4,373 C419.8,374.6 415.8,375.1 406.8,375.1 C400.4,375.2 394.7,374.9 394.1,374.6 C393.5,374.2 393.1,365.4 393.1,352.4 C393.1,340.5 392.8,330.5 392.5,330.2 C392.2,329.9 392,339.8 392,352.2 L392,374.8 L389.4,375.4 C385.5,376.4 315,374.9 314.4,373.8 C314.1,373.3 313.2,373.4 312.5,374 C311.5,374.8 307.2,374.4 295.8,372.4 C287.4,371 280.1,369.4 279.7,369 C279.2,368.6 282.6,367.9 287.2,367.6 C299.9,366.5 301.2,366.2 300.8,363.7 C300.5,361.7 300,361.5 293.9,361.6 L287.2,361.8 L286.6,354.6 C285.6,343.9 285.7,344 279.7,344 C272.3,344 269.7,342.4 268.6,337.2 C268,334.9 267.1,333 266.6,333 C266,333 264.2,334.4 262.5,336.1 C256.2,342.6 238.6,350 229.6,350 C224.5,350 222.8,351.6 225.6,353.7 C226.9,354.7 228.8,354.9 231.3,354.5 C235,354 235.1,354 233.7,356 C232.9,357.2 232.4,359 232.7,360.1 C233.8,364.2 232.1,363.3 190,339.2 C179.1,332.9 177.1,331.2 153,307.7 C139,294 127.1,281.9 126.6,280.9 C126.1,279.9 125.2,279 124.5,279 C123.9,279 122.1,277.6 120.4,275.9 C111.3,266.2 75.6,233.7 73.1,232.9 C67.6,231 65,233.5 55.1,250.2 C27.8,296.4 25.8,299 17.2,299 C11.3,299 7.5,295.2 6.4,288.5 C5.3,280.7 6.7,266.3 9.9,254 C18.4,221.4 19.9,216.1 21,214.1 C23,210.3 27.8,209.1 40.4,208.9 L51.9,208.8 L49.7,205 C47.8,201.7 47.3,201.3 46,202.4 C45.1,203.2 40.6,204 35.3,204.4 C20.7,205.3 22.2,208 9.3,156.5 C5.9,142.6 5.1,136.6 6,129 C6.8,122.2 7.1,121.3 10.4,118.3 C17.9,111.4 22.8,114.5 35.2,134.3 C49.4,157.1 64.8,179.7 66.5,180.4 C67.4,180.7 69.9,181 72,181 C76.1,181 75.6,181.4 98.7,163.3 C105.9,157.6 112.1,153 112.5,153 C112.8,153 114.3,151.6 115.7,150 C117.1,148.3 121,144.8 124.4,142.3 C137.4,132.4 163.9,111.3 171.4,104.8 C179.2,98.1 182.5,96.6 183.6,99.4 C183.9,100.2 184.9,101.1 185.8,101.5 C186.9,101.9 186.7,101.3 185.1,99.6 C182.4,96.7 182.9,95.4 187.9,93.2 C190.7,91.9 196.1,91.4 213.5,91 L235.5,90.5 L249,84.4 C267.2,76.1 266.5,76.2 271.7,81.4 L276,85.7 L276,100.9 L276,116.1 L279.3,115.8 L282.5,115.5 L282.6,107.5 C282.7,96.1 282.7,96 285.4,96 C287.6,96 295.4,101.5 297.2,104.4 C297.6,105 298,107.9 298,110.8 C298,115.9 298,116 301,116 C303.3,116 304,115.6 304,114 C304,112.9 304.7,112 305.6,112 C307,112 307,111.8 305.6,109.8 C303.7,107.2 303.5,98.9 305.2,97.2 C305.9,96.5 308.8,96 311.7,96 L317.1,96 L315.5,93 C314.6,91.3 314.2,89.5 314.5,89 C315.5,87.4 317.6,89 320,93.2 C322.1,96.9 322.3,98.7 322.4,110.1 C322.5,124.7 323,125.8 329.9,126.7 C333.8,127.2 335.5,126 333,124.5 C332.4,124.2 332,121.7 332,118.9 C332,112.8 334.5,111.9 335.6,117.8 C337,125.6 340.6,128.3 347.7,126.8 C353.9,125.5 354.4,124 353.7,108.1 C353.1,95.6 353.2,94.4 355.2,90.8 C356.4,88.7 358,87 358.7,87 C360.9,87 361.3,89.7 359.5,92.4 L357.8,95 L367.7,95 C379.4,95 383.5,93.8 385.5,89.9 C387.4,86.3 387.4,79.6 385.6,78.1 C384.6,77.2 372.5,77 340.9,77.1 C317,77.2 296.2,77.3 294.5,77.5 C292.9,77.6 289.4,77.8 286.8,77.9 C283.4,78 281.3,78.7 279.1,80.6 L276,83.1 L272.5,80.4 C270.5,78.9 269.1,77.2 269.3,76.6 C269.4,76 272.7,73.9 276.5,72 C285.9,67.4 293,67.1 296.6,71.4 C298,72.9 299.4,74 299.7,73.6 C300,73.3 299.6,72.2 298.7,71.2 C297.7,70.2 297,69.1 297,68.8 C297,67.7 306.3,65 309.9,65 C311.9,65 317.3,64 322,62.9 C328.5,61.3 335.4,60.6 351.5,60 C380.5,58.9 385.6,59.3 391.9,62.4 C394.7,63.9 397,64.6 397,64.2 C397,63.7 395.8,62.8 394.3,62.1 C389.6,59.9 393.3,59.5 410.1,60.1 C425.6,60.7 427.4,61 443.5,65.5 C452.9,68 463.1,71.6 466.3,73.3 C471.8,76.2 472.2,76.2 473.8,74.6 C475.4,73 475.4,72.8 473.3,71 C472,70 471,68.9 471,68.6 C471,68.1 535.6,68.3 544,68.8 C544.8,68.9 560.4,68.9 578.5,69 C596.7,69.1 612.2,69.3 613.1,69.6 C615.1,70.2 627.5,92.7 643.4,125 C650.3,139 661.1,160.5 667.4,172.7 C673.8,184.9 678.6,195.1 678.2,195.4 C675.8,196.9 663.9,192.4 653.6,186.1 C647.4,182.3 644,181.5 644,183.8 C644,185.6 665.8,199.1 670.8,200.5 C684.2,204 698.2,203.2 707.2,198.3 C712.9,195.2 715.1,192.9 723.2,181.9 C726.7,177.1 739.4,160 751.6,143.9 C763.7,127.7 779.2,106.6 786.1,97 C810,63.6 822,48.1 826.3,45.2 C828.6,43.6 834.1,40.4 838.5,38 C842.9,35.6 849,32.3 852,30.7 C858.3,27.3 879.9,15.2 884.7,12.4 C886.4,11.4 888.1,10.8 888.5,11.1 C889.1,11.8 888.1,23.9 885.1,52 C884,62.2 882.2,80.6 881.1,93 C879.9,105.4 878.1,123.8 877,134 C875.9,144.2 873.9,164 872.5,178 C871.1,192 869,211.3 867.9,220.8 C865.4,241.9 865.4,239.1 867.8,253.5 C868.9,260.1 870.3,271.1 871,278 C874,310.2 875.1,321.4 876.5,333.5 C877.3,340.7 878.4,353.1 879,361.3 C880,376.8 882.4,402.1 884,415.4 C885.2,424.8 885.3,436 884.3,436 C883.8,435.9 872.9,431.9 860,426.9 Z M301.8,341.2 C302,336 302.4,334 303.3,334.3 C304,334.5 304.6,336.1 304.8,337.8 C305.2,341.6 306.9,342.2 315.5,341.8 L321.5,341.5 L321.5,334.5 L321.5,327.5 L318,327.5 C314.8,327.5 314.5,327.8 314.2,330.5 C314,332.2 313.7,334.1 313.4,334.9 C312.6,337.2 310.8,334.6 310.6,330.8 L310.4,327.5 L304.2,327.2 L298,326.9 L298,333 C298,341.2 295.6,340.8 295.2,332.7 C295,329.6 294.5,327 294,327 C293.4,327 293,326.3 293,325.5 C293,324.2 295.2,324 306.9,324 C315.7,324 321.1,323.6 321.5,322.9 C322.2,321.9 322.4,312.1 321.8,311.5 C321.6,311.3 317.8,311 313.2,310.9 C308.7,310.7 304.4,310.3 303.7,309.8 C301.2,308.3 304.6,307.1 312.3,306.8 C321.8,306.4 322.3,305.9 321.7,295.7 L321.4,288.5 L316.9,288.5 C304.5,288.3 302,288 302,286.5 C302,285.4 303.1,285 305.8,285 C311.5,285 314,284 314,281.9 C314,279.3 313.2,279.1 301.1,278.7 C294.3,278.5 290.5,277.9 290.2,277.2 C290,276.5 290.2,276 290.7,275.9 C291.1,275.9 293.7,275.7 296.4,275.5 C299.1,275.2 301.4,274.9 301.6,274.7 C301.8,274.5 302.3,272.9 302.6,271.2 C303.2,268.5 302.9,267.9 300.8,267.1 C297.6,265.9 276.9,265.7 275.1,266.9 C273.9,267.7 274.2,269.1 276.6,275.6 C278.2,279.8 280,283.3 280.5,283.4 C281.1,283.5 281.6,281.4 281.8,278.8 C282,276.1 282.5,274 283,274 C283.5,274 284,276.1 284.2,278.8 C284.5,283 284.8,283.5 287,283.8 C290.9,284.4 292.8,286.7 293.5,292 C294.3,297.8 294.5,298 306,297.7 C313,297.5 314.5,297.8 314.5,299 C314.5,300.2 312.6,300.6 304.3,300.8 C298.6,300.9 294,301.4 293.9,301.8 C293.8,303.1 293.8,310.5 293.9,312.7 C294,314.8 294.5,314.9 303.3,315.2 C310.7,315.4 312.5,315.8 312.5,317 C312.5,318.3 310.7,318.5 301.3,318.2 L290,317.9 L290,320.7 C290,322.2 289.6,324.1 289.1,324.9 C287.7,327.1 286,325.2 286,321.4 C286,318.4 285.7,318 283.5,318 C281.1,318 281,318.2 281,325.1 C281,331.3 280.8,332.1 279.3,331.8 C277.8,331.5 277.5,330.4 277.7,325.2 C278,317.9 276.3,316.8 273.6,322.8 C270.8,329 272.5,340.9 276.2,341 C276.6,341 277.2,340.5 277.5,340 C278,339.2 278.6,339.2 279.4,340 C280.1,340.5 282.1,340.7 283.9,340.4 C286.2,339.9 287,339.2 287,337.6 C287,335.2 288.6,332.3 289.5,333.1 C289.8,333.5 290.3,336.8 290.5,340.4 C290.8,344.1 291.2,347.6 291.6,348.1 C291.9,348.7 294.3,349 296.8,348.8 L301.5,348.5 L301.8,341.2 Z M233.8,346.5 C243.5,344.5 248,342.7 255.5,337.4 C281.6,319.2 284.2,279.3 260.6,257.3 C251.4,248.6 242,244.9 228.3,244.2 C216.7,243.7 212.1,244.6 201.7,249.4 C185.9,256.7 174,276.1 174,294.6 C174,318.6 186,336.2 207.9,344.4 C218.5,348.4 222.6,348.7 233.8,346.5 Z M290.3,312.8 C290.5,311.5 290.5,305.3 290.1,299 L289.5,287.5 L285,287.2 C280.5,286.9 280.4,287 280.6,289.7 C280.9,295.5 280.9,295.5 282.2,294.2 C284.5,291.9 285,293.1 285,301.6 C285,308 284.7,310.1 283.8,309.8 C283.1,309.5 282.4,307.9 282.2,306.2 C281.8,301.9 280.4,302.2 279.5,306.8 C279.2,308.8 278.6,311.5 278.3,312.8 C277.8,314.9 278.1,315 283.8,315 C289.2,315 289.8,314.8 290.3,312.8 Z M399.8,246.8 C400,224.1 399.8,218 398.8,217.9 C398.1,217.9 391.4,217.9 384,218 L370.5,218.1 L355.1,204.8 C340.7,192.4 339.4,191.1 336.8,185 C335.3,181.4 330.2,169.5 325.5,158.5 C320.8,147.5 315.3,134.6 313.4,129.8 C309.6,120.6 306.8,117.6 307.3,123.3 C307.5,126.1 307.2,126.5 304.7,126.8 C301.3,127.2 301.6,129.3 305.1,129.8 C308.3,130.3 309.8,131.6 312.1,136.3 C314.3,140.6 313.5,143 309.8,143 C308.7,143 308,143.5 308.3,144.3 C308.5,144.9 310.1,145.5 311.7,145.5 C315.2,145.5 314.9,145.3 317.8,150.1 C320.7,154.8 320.6,156.8 317.5,158.2 C314.1,159.7 314.8,161.4 319.1,162 C321.7,162.4 322.9,163.3 324.7,166.5 C327.8,172 327.7,173.9 324,174.7 C322.4,175 321,175.6 321,176.1 C321,177.3 324.9,179.2 325.9,178.5 C327.3,177.7 330,179 330,180.5 C330,182.1 327.7,183 323.4,183 C320.5,183 319.8,182.5 318,179 C315,173.2 315.3,171 319.1,171 C321.5,171 322.1,170.6 321.8,169.3 C321.6,168.2 320.4,167.4 319,167.2 C313.2,166.6 312.2,166 310.6,162 C308.8,157.5 309.3,155 312,155 C313.1,155 314.1,154.6 314.4,154.2 C315.1,153.1 313.3,150.5 311.8,150.4 C311.1,150.4 309.5,150.2 308.3,150.2 C307,150.1 305.4,148.6 304.1,146.4 C301.7,142.4 301.4,140.1 303.3,139.6 C308.1,138.1 308.2,138 307,136.5 C306.3,135.7 304.7,135 303.4,135 C301.7,135 300.3,133.8 298.5,130.9 C295.3,125.9 295.6,123.6 299.3,123.2 C304.8,122.6 301.5,120.5 294.5,120.2 C288.3,119.9 287.8,120.1 288.5,121.7 C290,125.3 289.6,127.5 287.3,127.8 C286,128 285,128.5 285,129.1 C285,129.9 286.8,130.5 291.4,131.2 C293.7,131.6 297.2,137.5 296.8,140.4 C296.6,141.7 295.6,142.6 294.2,142.8 C290.8,143.3 292.1,145.4 296.1,146 C298.7,146.4 299.9,147.3 301.7,150.5 C304.7,155.7 304.7,158.8 301.8,159.2 C298.1,159.7 299,162.4 303,163 C305.9,163.4 306.9,164.2 308.9,168.1 C311.7,173.3 311.2,176 307.5,176 C304.8,176 304.7,176.1 305.6,178.4 C306,179.4 307.4,180 309.6,180 C311.9,180 313.3,180.6 313.7,181.6 C314.5,183.7 312.4,185 308.3,185 C305.5,185 304.6,184.3 302.1,180.3 C298.9,175.2 299.3,172 303.1,172 C306.7,172 304.9,168.6 301,168 C298.6,167.6 297.1,166.7 295.9,164.5 C293.3,160 292.5,156.1 294.1,155.6 C298.7,154.2 299.3,153.9 298.4,153 C297.6,152.2 294.4,151.3 291.4,151.1 C290.8,151 289.3,148.8 288,146 C286.1,141.9 285.9,140.8 287,139.5 C287.7,138.7 288.9,138 289.7,138 C292.7,138 290.3,135.6 286.9,135.3 C284.5,135 282.6,133.9 280.2,131.2 C276.3,126.7 276.4,124.9 280.8,123.8 C283.6,123 284,122.7 283,121.5 C282,120.3 278.7,120 266.9,120 L252.1,120 L224.3,134.1 C209,141.9 193.1,150.2 189,152.5 C184.9,154.8 174.5,160.2 166,164.5 C157.5,168.7 150.3,172.4 150.1,172.6 C149.8,172.8 150.6,173.9 151.7,175 C153.7,176.8 154.6,179 158.5,192.3 C159.5,195.4 160.6,198 161,198 C161.4,198 162.1,195.9 162.4,193.3 C164.8,175.6 165.4,173.5 168,170.8 C170,168.8 171.4,168.3 173.1,168.7 C175.2,169.2 186.1,179.1 209.9,201.8 L216.5,208.1 L241.5,207.6 C324.8,205.7 339.4,205.6 342.5,207.3 C346.8,209.6 353.2,215.8 352.7,217.3 C352.5,218.1 349.5,218.5 343.1,218.6 C337.3,218.6 333.5,219.1 332.7,219.9 C331.4,221.2 330.3,263.6 331.5,269.7 C332.7,276.2 331.8,276.1 367.3,275.8 L399.5,275.5 L399.8,246.8 Z M449,275 C453.7,274.4 461.3,272.8 466,271.3 C470.7,269.9 477.4,268 481,267 C484.6,266 491.6,264 496.5,262.5 C501.5,261 507.5,259.2 510,258.5 C528.2,253.3 536.6,250.7 537.5,250.1 C538.1,249.8 536.7,249.3 534.5,249 C531.2,248.6 530.3,248 529.1,245.3 C527.8,242.4 527.2,242 523.6,241.9 C521.3,241.8 513.5,241.5 506.1,241.1 C493,240.5 492.7,240.4 490.7,237.8 C489.1,235.6 488.5,233.1 488.2,226 L487.8,217 L447.4,217 L407,217 L407,239.8 C407,252.3 407.3,265.5 407.7,269.3 L408.3,276 L424.4,276 C433.3,276 444.4,275.5 449,275 Z M527.8,230.8 C528.5,230.1 529,228.7 529,227.5 C529,223.4 530.6,223 548.1,223 C560.5,223 564.9,223.3 565.2,224.2 C565.5,225.1 569.2,225.6 577.3,225.8 L589,226.2 L589,223.2 C589.000044,217 589.3,217 540.3,217 L496,217 L496,221.9 C496,224.6 496.4,228 497,229.4 L498,232 L512.3,232 C522.1,232 527,231.6 527.8,230.8 Z M198.5,208 L203.5,208 L188,193.1 C179.5,184.9 172.2,178.5 171.9,178.8 C171.5,179.2 170.5,184.6 169.7,190.9 C167.9,204.2 166,207.3 160.1,206.8 C154.7,206.3 153.3,203.6 149.5,186.6 C149.2,185.1 148.7,184 148.4,184.2 C148.2,184.5 147.3,188.6 146.5,193.4 C145.1,202.4 143,207 140.5,207 C139.8,207 138.8,207.5 138.4,208.1 C137.9,209 145.1,209.1 165.6,208.7 C181,208.3 195.8,208 198.5,208 Z M389.4,196.1 C390.8,194.9 391,191 391,166.1 C391,141.9 391.3,135.7 393.1,125.5 C394.2,118.9 395.8,108.6 396.6,102.5 C397.4,96.5 398.3,90.2 398.6,88.7 C399.3,85.1 397.6,83 393.9,83 C391.2,83 391,83.3 391,86.5 C391,91.6 388.4,95.9 384.5,97.6 C381.5,98.8 380.2,100.9 373,115 C364.7,131.6 364.2,133.2 363.7,148 C363.5,152.1 363.1,153.5 362,153.5 C360.8,153.5 360.4,151.7 360.2,145 C359.8,134.4 361.3,127.2 365.5,119.5 C371.9,107.7 376,99.9 376,99.5 C376,99.2 374.3,99 372.2,99 C369.2,99 367.5,99.9 363.4,103.5 L358.2,107.9 L357.8,117 C357.4,125.2 357.1,126.3 354.7,128.8 C352.2,131.2 351.4,131.4 344.5,131.4 C337.4,131.3 336.9,131.5 336.4,133.7 C335.7,136.3 334.1,136.6 332,134.8 C331.2,134.1 331.8,134.9 333.3,136.6 C336.1,139.7 336.1,139.9 335.5,148.1 L334.8,156.5 L339.5,166.9 C349.4,189.2 352.3,193 358.8,193 L362.9,193 L362.7,184 C362.6,178.6 362.9,175 363.5,175 C364.1,175 365.3,178.9 366.3,183.7 C368.1,192.7 370.3,196.5 374.4,197.4 C378.3,198.2 387.8,197.4 389.4,196.1 Z" id="Shape" stroke="#57C003" stroke-width="2"></path>
                    <path d="M219.5,343.4 C206.7,340.7 198.4,336.5 191,329.1 C180.9,319.1 175.7,303.3 177.7,289.2 C180.5,270 195.4,253.2 213.1,249.1 C215.5,248.5 220.9,248 225.1,248 C248.7,247.9 268,264.2 272.1,287.4 C276.6,313.5 260.6,337 234.5,342.5 C227.6,343.9 223.5,344.2 219.5,343.4 Z M230.5,322.1 C240.3,317.7 244.9,310.7 245,300.4 C245,289.4 239.2,280.7 229.4,277 C222.8,274.6 220.9,274.5 214.1,276.6 C203,279.8 195.8,291.2 197.4,302.6 C198.5,311 204.7,319.2 212.4,322.6 C216.9,324.5 225.8,324.3 230.5,322.1 Z" id="Shape" stroke="#57C003" stroke-width="2"></path>
                    <path d="M215.7,319 C207.6,316.5 202.1,308.5 202,299.3 C202,290.4 205.7,284.5 213.5,280.9 C229.3,273.6 247.3,290.4 240.7,306.3 C238.9,310.6 234.4,315.7 231,317.5 C227.5,319.3 219.2,320.2 215.7,319 Z" id="Shape" fill="#57C003"></path>
                    <path d="M237.2,365.3 C235.9,365 235,364.5 235.2,364.2 C235.4,363.8 236.4,361.8 237.3,359.7 C239.3,355.4 241,355.6 241,360.1 C241,362.7 241.3,363.1 243.3,362.8 C244.8,362.6 245.6,361.7 245.8,360 C246.3,356.5 248,355 248,358.1 C248.1,363.9 252.8,364.8 254.2,359.2 C255.2,355.5 257,355.8 257,359.6 C257,361 257.7,362.3 258.5,362.6 C260.6,363.5 263,361.2 263,358.4 C263,355 264.7,355.4 265.5,359.1 C266.4,363.2 270.3,362.9 270.8,358.8 C271.2,355.7 272.8,355.1 273.6,357.8 C273.9,358.7 274.6,360.3 275.1,361.3 C276,363.1 275.9,363.1 270.5,363.5 C253.4,364.6 245.9,365.1 243,365.4 C241.1,365.6 238.5,365.5 237.2,365.3 Z" id="Shape" fill="#57C003"></path>
                    <path d="M323.1,92.4 C321.2,90 320.2,86 321.5,86 C321.8,86 323.2,86.7 324.5,87.6 C326.5,88.9 327.5,89 330.4,88 C332.3,87.4 337.5,87 342,87.1 C348.6,87.3 350.4,87 352,85.5 C355.3,82.6 356.8,85.1 354,88.8 L351.8,91.7 L343.2,91.2 C334.9,90.8 332.1,91.3 325.9,94.7 C325.5,94.9 324.3,93.9 323.1,92.4 Z" id="Shape" fill="#57C003"></path>
                </g>
            </g>
        </g>
    </g>
</svg>