<svg width="705" height="534" viewBox="0 0 705 534" xmlns="http://www.w3.org/2000/svg" xmlns:xlink="http://www.w3.org/1999/xlink">
  <title>
    Belcerebons
  </title>
  <defs>
    <path d="M118.56 336.09c17.32-12.68 17.16-31.2 4.24-46.06-5.93-6.83-18.07-8.07-24.44-3.29 1.1-.06 2.09-.06 3.07-.16 14-1.44 24.47 6.47 27.18 20.32.54 2.75-.17 3.85-2.9 3.43-4.25-.66-8.49-1.4-12.73-2.11l-3-.18-4-.08h-4c-1 .06-2 .19-3 .17-8-.17-15.82 1.45-23.71 2.29-1.59.17-3.7.57-3.56 2.64.12 1.82 2 1.31 3.25 1.12 2.89-.46 3.66 1.21 5 3.44 2.64 4.34.88 13.21 10.42 11.16.1 0 .25.19.38.29 4.81 3.65 10.56 4.36 16.26 5.21l.16.13c6.12-2.46 13-3.62 17.24-9.62-2.06 4.94-4.9 9-10.26 10.68a.68.68 0 0 1-.11.67c1.52 2.4 2.95 1.08 4.51-.05zM96 312.7c.53-1.31 2.33-.89 3.59-1 1.65-.11 3.31 0 5 0v-.17c2.47.23 4.94.53 7.41.66 3.9.2 4.08 2 2.07 4.69a10.64 10.64 0 0 1-16.75-.09c-.92-1.26-1.83-2.73-1.32-4.09zm28.24 6.36c-4 7.35-9.81 12-18.41 11.55-9.76.53-16.31-4.27-21.08-11.92-1.1-1.77-3.2-4.46.3-5.7 2.64-.93 6-2.74 8.15 1.47 5.76 11.52 17.11 12.09 24.54 1.19 1.73-2.55 3.76-2.32 6-1.41 3.26 1.25 1.35 3.31.53 4.82h-.03z" id="a"/>
  </defs>
  <g fill-rule="nonzero" fill="none">
    <path d="M139.45 285.55c-4.89-7.91-12.21-10.09-21.1-9.82-9.43.29-18.88-.35-28.32-.43-9.44-.08-15.44 6.74-22.14 12-1 .81-2 1.64-3 2.46v.24c-2.73 6.8-2.73 6.8-1.24 9.17.33-.7.64-1.26.88-1.84 4.14-10.05 14.71-17 25.66-17.27 9.34-.21 18.72 1.15 28 .47 11.2-.83 17.87 4.05 22.35 13.48a16.78 16.78 0 0 0 1.72 3 18.09 18.09 0 0 1 3.51 15.13c-2.21 10.47-1.9 20.81-.38 31.28 1.14 7.93-1.72 15.48-2.95 23.17-.27 1.74.8 4.29-1 5-2.26.92-4.5-.78-6.35-2.15-3.62-2.69-3.58-6.2-.24-10.79.71-1 2.88-1.69 1.77-3.07-1.38-1.72-2.48.66-3.78 1h-.18a28.44 28.44 0 0 0-5.7 18.34l2 .72c2-5.83 2.67-5.9 9.45-.94v-.05a5.67 5.67 0 0 1 4.76 2.3l1.11.75c4.36 2 3.68 5.68 3.22 9.3-.72 5.57-1.08 11.11.28 16.66.81 3.31 3 4 6 3.68 3.11-.35 3.58-2.41 3.16-5l-2.15.61c-1.93 3-3.89 2.72-4.62-.56-1.33-5.88-.84-11.89-.24-17.85.11-1 .56-2.12 1.73-2.15 6.25-.16 10.15-4.41 14.4-8.08a11.87 11.87 0 0 1 2.16-1.2c1.19-.56 2.42-1 3.58-1.67 3.56-1.93 4.92-.77 4.47 3.08l1.4 1.4.18-.21.26.08c.36-.93.72-1.87 1.07-2.8a6.08 6.08 0 0 1-.12-3.95c-1.89-4.14-.9-9.05-3.41-13l-.3-.23-2-.15c-.06.45-.11.89-.17 1.34a9.93 9.93 0 0 1 2 5.07c.43 3.43-2.81 6.7-7.47 7.28-4.07.5-1.69-2.87-2.33-4.42-.47-1.13-.19-3.19-2-2.82-1.81.37-.77 2.22-.69 3.42.33 4.74-1.11 8.78-4.87 11.73-4.71 3.7-10.16 2-11.58-3.87a29.64 29.64 0 0 1 1.77-18.51l-.12-.12c1.56-9.87-1.66-19.5-1.52-29.3 0-2.34 0-4.67 1.67-6.58h-.07c2.67-10.82-1-20.34-6-29.59-1.48-.79-2-2.2-2.3-3.7l.36-.2-.58.16zM211.76 327.53l1-.58c1.95-1.24 3.81-4.08 6.12-2.79s2.6.07 3.42-1.08a15.2 15.2 0 0 0 2.34-6c.59-2.76.81-6.19 5-6.32a1.71 1.71 0 0 0 1.81-1.94c-.14-.95-1-1.28-1.81-1.48a9.32 9.32 0 0 0-2.47-.28c-15.68.11-31.48-1.9-47 2.17-1.72.45-2.61.34-2.28-1.53 1.66-9.72 9.81-17.23 19.84-18.87 5.31-.86 10.41.92 15.67.66-5.2-5.89-19.13-4.91-28.44 2-9.899 7.453-12.445 21.243-5.86 31.74 4.82 7.81 13.59 12.6 19.19 9.77-7.84-2.23-14.59-5.32-18.2-13.31 9.45 8.7 19.7 11.83 31.67 7.84zm-18.35-17.13c2.48-.21 5-.31 7.45-.46v.17a25.24 25.24 0 0 1 3.48 0c1.86.25 4.6-1.06 5.33 1.29.82 2.64-1.9 4-3.71 5.32-4.12 2.95-11.39 1.09-13.94-3.32-1.02-1.75-.75-2.81 1.39-3zm-11.06 6.6c-1-1.2-3.67-2.66-1.18-4.24 1.82-1.15 4.5-2.64 6.83-.3.5.66.941 1.363 1.32 2.1 6.4 9 17.91 8.54 23.64-1 .93-1.55 1.41-3.41 3.84-3.14 1.78.2 4-.51 5.16 1.05 1.32 1.78-.54 3.5-1.43 4.87-4.36 6.76-10.72 10.12-18.76 10.18-8.04.06-14.4-3.46-19.42-9.52zM243.2 248.9h.05c3.51 2.69 2.2 8.41 6.73 11 .68-5.49-3.69-9-4.12-13.66-13.26-22.08-54.93-22.17-74.35-.13-2.41 2.73-4.92 5.36-7.38 8-.2 1.57-.82 3.13-.06 4.71 3 .09 2.29-3.43 4.28-4.29l-.1-.25.21-.15c1.38-2.14 2.54-4.5 5.23-5.35a29 29 0 0 1 13.39-10.17l.14-.22.26.06a2.62 2.62 0 0 1 2.32-1.54h.06c3.83-1.91 7.72-3.58 12.1-3.68a55.07 55.07 0 0 1 18 .17c10.21 1.49 18.62 5.66 23.24 15.5zM178.46 417.94a1.4 1.4 0 0 1 .93.27c2.68 1.68 2.74-.33 2.76-2 .02-1.67.39-3.66-1.52-6.15-1.44 5.57-5.3 5.39-9.19 4.66a22.22 22.22 0 0 1-6.59-2.18c-8.08-4.43-16-4.2-24.09 0a42.26 42.26 0 0 1-6.82 3c-2.54.8-5.28 1.24-7.35-1.17-.72-.84-1.16-2.53-2.48-1.25-1.57 1.51-1.09 3.73-.94 5.71.07 1 .74 2.41 1.74 1.86 4.59-2.51 9.53-.11 14.2-1.3 13-3.39 26.33 1.89 39.35-1.45zM152.74 415c-4-.28-7.83.62-12.2 1.46 6.46-6 17.94-6.18 24.31-.48-4.34-.31-8.22-.66-12.11-.98zM161.45 425.74a16.09 16.09 0 0 1-15.2-.47c-.92-.5-2.06-1.22-3.15-.12 4 5.27 15 6.88 20 2.93.69-.55 1.26-1.32.86-2.12-.57-1.25-1.69-.6-2.51-.22z" stroke="#57C003" stroke-width="2"/>
    <path d="M235.2 294.21c1.71-.61.86-2.28.54-3.46a9.15 9.15 0 0 0-1.5-3.09 63.7 63.7 0 0 0-13.39-12.58c-2.41-1.77-5.17-2.05-8.08-1.81-9.77.8-19.53 1.69-29.32 2.28-5.42.32-9.44 2.25-11.89 7.36a75.16 75.16 0 0 1-5 8 .69.69 0 0 1 0 .13c-1.72 3.38-3.56 6.71-5.13 10.17-2 4.35-1.92 8.7.33 14a8.28 8.28 0 0 0 1.11-6.66 11.06 11.06 0 0 1 1.82-8.1c3.88-5.42 6.9-11.33 10.49-16.91a4.48 4.48 0 0 1 3.95-2.47c10.15-.21 20.2-1.77 30.31-2.54 11.4-.86 18.7 3.85 23.66 13.5.4.9.57 2.72 2.1 2.18z" stroke="#57C003" stroke-width="2"/>
    <g transform="translate(2 1)">
      <use stroke="#979797" xlink:href="#a"/>
      <use stroke="#979797" xlink:href="#a"/>
      <use stroke="#979797" xlink:href="#a"/>
      <use stroke="#57C003" stroke-width="2" xlink:href="#a"/>
    </g>
    <path d="M144.79 158.48c0-1.51-.94-2.4-1.76-3.41l-33.3-6c-1.41-.25-2.8-1-2.41-2.58.49-2 2.4-1.57 3.78-1.28 9.91 2.11 19.81 4.3 29.92 5.3 1.32.14 2.63.33 3.94.49-.1-7.46-.28-14.92-.26-22.38 0-3.56-1.08-5.29-5.05-5.65-9.91-.91-19.73-3-29.64-3.43-10.31-.47-20.19-3.26-30.36-4.26-4.06-.41-5.69.62-4.52 4.75.34-.14.68-.33 1-.44-.35.11-.69.3-1 .44.06 1 .13 2 .19 3 0 3.81 0 7.63-.11 11.44 0 1.64.87 4.25-1.85 4.32-3 .08-2.32-2.66-2.4-4.53-.21-5.3-.49-10.6-.42-15.9 0-2.88-1.2-4.2-3.78-4.91-11-3-22.06-6-33-9.33-4.61-1.41-5.74 1.66-7.43 4.44-2.08 9.39-4.41 18.75-4.18 28.48.347 1.907.7 3.817 1.06 5.73v.05c6.14.35 12.28.68 18.42 1.09 1.58.11 3.84-.19 3.88 2.09 0 2.7-2.42 2.28-4.13 2.3-6.32.06-12.64 0-19 0l-.5.88c-1 6.63.25 13.38-1 20 .12.58.25 1.16.38 1.74 1.83.71 1.69 2.45 1.64 3.81-.22 5.29 2.67 6.52 7.24 6 8.23-.9 16.45-1.8 24.7-2.51 2.9-.25 3.55-1.61 3.32-4.23-.26-3-.19-5.94-.26-8.92l-.82-.89L54 164c-4.95 2-10.16 1-15.26 1.23-1 .05-2.18-.34-2.29-1.48-.14-1.42 1.06-2 2.26-2.16 4.46-.5 8.92-1.07 13.4-1.3 3-.15 4.12-1.26 3.94-4.29-.4-6.29.5-12.62-.48-18.91-1.35-.21-2.77.16-4.27 0 1.5.15 2.92-.22 4.27 0 .08-.7.15-1.4.23-2.1.41-2.59-.79-4-3.24-4.67-3.17-.88-6.29-2-9.47-2.83-1.54-.42-3-.78-2.78-2.76.22-1.98 1.93-2.24 3.37-1.88 4.47 1.13 9.17 1.81 13.17 4.19 4.39 2.63 2.74 7.28 3 11.23l1.29 20.62c7.29-.27 14.59-.7 21.88-.75 3.23 0 4.44-1.07 4.27-4.35-.35-6.63-.3-13.29-.65-19.92-.17-3.29 1.39-4.84 4.32-4.68 11.11.61 22.21 1.42 33.31 2.18 1.16.08 2.51.24 2.59 1.75.08 1.84-1.44 2.12-2.77 2-5.29-.26-10.63.06-15.85-1.14l-8.12-.29c-3.35.08-6.81-1.09-10 .81l-.14.36c1.25 5.07 1 10.24 1 15.39 0 8.61-1 8.35 9.21 10.63 8.11 1.82 16.24 3.53 24.15 6.13a5 5 0 0 1 3.79 5.14c.21 6.65.63 13.3.8 20 0 1.65.75 4.36-1.77 4.44-2.52.08-2.08-2.57-2.14-4.32-.2-5.66-.2-11.32-.46-17-.09-1.9-.15-3.93-2.68-4.81-8.35-2.87-16.89-5-25.46-7-1.15-.26-2.58-.56-2.44 1.76a2353.76 2353.76 0 0 1 1.83 36.88 4.15 4.15 0 0 0 3.34 4.29 46.32 46.32 0 0 1 6.06 2.24c3.39 1.58 5.15 1.41 4.8-3.13-.59-7.79.35-15.64-.87-23.43-.22-1.35-.64-3.49 1.38-3.68 1.78-.17 2.15 1.78 2.36 3.28.16 1.16.21 2.33.26 3.49.32 7.65.65 15.3.91 23 .07 1.88 0 3.54 2.23 4.47 7.53 3.19 15 6.57 23.52 4.83h4.25c.88 0 1.18-.42 1-1.25v-4.11c.75-17.92-.22-35.77-.26-53.62zm-45.23-18.55c-.25-.91-.6-1.76-1.56-1.51 1-.25 1.31.58 1.56 1.51zM34.66 100.29c10.85 3 21.65 6.24 32.47 9.38 1.78.51 2.82.27 3.84-1.77 3-6.08 6.4-12 9.81-17.88 1.79-3.09 2.13-5.78-.59-8.55-3.36-3.41-6.54-7-9.81-10.49-1.09-1.18-2.75-2.46-1.61-4.1 1.59-2.27 3.06-.07 4 .9 4.57 4.69 9.06 9.46 13.37 14.39 2.18 2.48.54 5-.68 7.41-3.06 5.89-6 11.83-9.32 17.6-1.68 3-.33 4 2.21 4.41 7.73 1.12 15.5 2 23.23 3.14 2.32.35 3.34-.69 4.16-2.56 2-4.55 4.14-9 6-13.59 1.06-2.55 3.47-5.69-1.8-6.71-.37-.07-.81-1.05-.8-1.59 0-1 1-1.38 1.78-1.38 5.15 0 10.3.12 15.45.24a1.43 1.43 0 0 1 1.63 1.58c0 1-.66 1.84-1.45 1.69-7.71-1.44-9.7 4.1-12.16 9.48-1.62 3.55-2.91 7.19-4.29 10.82-.91 2.38.19 2.9 2.22 3.13 9.253 1.06 18.497 2.16 27.73 3.3 3.09.38 5-.3 4.21-4a1.91 1.91 0 0 0 0-2.08c.19-1.26.37-2.52.56-3.78l-.75-1.25c-5.64-.47-11.29-.91-16.92-1.43-1.55-.14-3.82.17-3.56-2.32.24-2.24 2.37-2.09 4-1.9 5.44.65 10.84 1.65 16.36 1.54 0-6.48-.1-13 0-19.45.06-3.18-1.38-3.84-4.28-3.81-10.81.14-21.63 0-32.44 0l-1 .46c-3.14 7.92-8.42 14.61-12.57 22-.64 1.12-1.94 1.76-3 1-1.29-1-.63-2.49 0-3.62 3-5.32 6.17-10.58 9.25-15.88 1.35-2.3 2.77-4.59 1.91-7.46-2.09-6-7.25-9.89-9.92-15.63-3.29-7.11-8-13.58-12.08-20.32a8.62 8.62 0 0 0-6 1.61c-9 5.5-16.34 12.82-23.67 20.19a14.84 14.84 0 0 1-4.6 6.39l-.09.12c-1.42 4 0 6.5 3.64 8.49 4.49 2.45 8.73 5.36 13.05 8.11 1.59 1 3.31 2.39 2.13 4.39-1.42 2.4-3.14.51-4.61-.37-4.227-2.52-8.45-5.08-12.67-7.68-6.29-3.89-6.28-3.91-10.52 1.87l-.11.19c-1.49 3.11-3.07 6.19-4.47 9.34-1.4 3.15-1.11 5.35 2.76 6.43zm106.12 15.36z" stroke="#57C003" stroke-width="2"/>
    <path d="M104.24 72.86c2.05 3.06 4.86 3.67 8.49 3.51 8.48-.38 17-.4 25.47-.18 4.31.11 5.43-1.57 5.26-5.6-.43-9.81-1-19.63-.46-29.47l-1-1.21c-4.93.61-9.85 1.27-14.78 1.79-1.26.13-2.88.11-3-1.76-.12-1.87 1.41-1.94 2.75-2.1l15.78-1.9c.04-2.667.087-5.317.14-7.95l-.6-5-.29-.19c-5-.59-9.89 1.49-14.91 1.25l-11.92 1.13c-3.27.78-3.2 3.41-3.28 6l.24 1.81c2.71 4.45 3.3 9.59 4.6 14.47 1.09 4.08.71 9.05 7.27 8.25a1.72 1.72 0 0 1 1.86 1.9c0 1-.84 1.4-1.67 1.52-4.11.6-8.23 1.18-12.35 1.7-1.16.14-2.51.06-2.8-1.4-.29-1.46.79-2.06 2-2.29 3-.54 2.25-2.53 1.92-4.57-1.06-6.36-4.63-12-5-18.56l-.06-.46c-1.49-4.36-4.16-6.18-8.68-4.07-.82 2-2.56 1.75-4.18 1.83A6.65 6.65 0 0 1 90 33.1a.91.91 0 0 1-.62.27c-5.82 4.54-5.92 4.9-1.91 11.63 5.53 9.31 11.18 18.57 16.77 27.86zM151.58 75.46c8 .1 15.92.51 23.88.71 1.75 0 3.69.4 4.75-1.77 5.14-10.55 10.35-21.07 15.49-31.63a8.36 8.36 0 0 0 .4-2.43 17.13 17.13 0 0 0 .01 0c3.95-.94 2.66-3.75 2.22-6.25l-.27-.22c-1.81-.11-3-1.24-4.18-2.46-3.46-1.74-6.82-3.71-10.68-4.47a18.58 18.58 0 0 1-2.82-.33c-4.34-1.14-5.31.63-4 4.48 2.06 1.14 3.7 2.91 5.62 4.28-1.92-1.37-3.56-3.14-5.62-4.27-2.91 6.4-2.52 13.66-5.19 20.17-.7 1.69-.89 4.17 2 5.41 1.94.82 1.75 2.22-.54 2.82-5.08 1.33-9.67-1-14.44-1.9-.32-.07-.69-1.17-.59-1.71.21-1.18 1.3-1.22 2.31-1.45 2.47-.57 5.72 2.17 7.42-1.74a25.52 25.52 0 0 0 1.65-8.2c.56-6.45 3.08-12.64 2.76-19.23-6.91-1.8-14-2-21.07-2.34-1.8-.08-3.76-.4-4.27 2.13.14.472.247.953.32 1.44.7 9.5.69 9.5 10 10.1.82 0 1.65 0 2.47.13 1.51.19 3.21.45 2.92 2.49-.23 1.61-1.72 1.83-3.11 1.66-2.76-.33-5.51-.73-8.26-1.11l-.35-.08-.07-.35v.2l-1.2.6H148l-1.2.78c.21 10.12.6 20.24.51 30.36 0 3.45 1.22 4.14 4.27 4.18zm32.91-38.69zM86.79 162.38c-8.26.78-16.61.1-24.82 1.69v1.49c.46 11.64.46 11.64 11.65 10.67.83-.08 1.67-.08 2.49-.21 3.4-.49 5 1.22 5.35 4.38.47 4.12.89 8.26 1.32 12.39.13 1.23 0 2.56-1.39 2.84-1.73.34-2.24-1.06-2.47-2.45-.51-3.12-1.11-6.23-1.39-9.37-.22-2.49-1.12-3.48-3.76-3.28-14.79 1.11-29.46 3.17-44.17 5-3.3.41-4.8 2.24-4.39 5.41.37 2.8 1.46 5.52 1.64 8.31.26 4.09 2.52 4.68 5.73 3.8 4-1.1 7.9-2.62 11.94-3.57 2.28-.54 3.79-1.09 3.31-3.81-.17-1 0-2.09 1.22-2.38 1.45-.34 2.25.63 2.56 1.79.833 3.22 1.57 6.46 2.21 9.72a1.85 1.85 0 0 1-1.38 2.33c-.72.12-2.09-.16-2.24-.59-2-5.73-5.92-2.41-9.07-1.82-2.41.45-4.68 1.63-7.06 2.34-2.07.62-4.39.73-4.24 3.84.15 3.11 2.37 3.13 4.59 3.21l22.46.84a6.32 6.32 0 0 1 4.69-3.29v-.07c3.13-1.78 4-4.37 3.29-7.87-.64-3.25-.81-6.59-1.19-9.89-.16-1.43-.89-3.41 1.21-3.65 2.1-.24 1.89 1.89 2.15 3.3.67 3.59 1.47 7.16 1.89 10.78.27 2.26.94 3.28 3.39 3 5.46-.53 10.93-.87 16.4-1.26 2.24-.16 3.24-1.26 3.12-3.56-.67-12.27-1.33-24.55-1.86-36.83-.04-2.3-.91-3.44-3.18-3.23z" stroke="#57C003" stroke-width="2"/>
    <path d="M154.48 119.15c9-1 17.89-2.74 26.9-4.46-1.67-4.19-3-8.29-5.83-11.69-1.17-1.41-1.55-3.44-3.44-4.25.09-5-4-5.23-7.44-6.54 4-.71 7.52-3.82 11.73-1-3.34 3.39.69 5.31 1.57 7.85 2.15 4.64 5.77 8.46 7.33 13.45.78 2.48 3 1.46 4.67 1.18 7.35-1.22 14.6-3 22.06-3.55.2-.73.4-1.46.59-2.2l-.45-.94c-4-6.66-6.76-14-11.06-20.51a5.22 5.22 0 0 1 .16-6.49c3.72-4.9 7.27-9.92 10.78-15 1.15-1.66 2.53-3 4.37-1.75 1.84 1.25.34 3.17-.46 4.39a125.33 125.33 0 0 1-9 12.53c-2 2.37-1.9 4.21-.68 6.69 3.16 6.4 6.16 12.88 9.22 19.32l.49 1.6c3.63.35 6.75-1.4 10.05-2.45 9.32-3 18.25-7.09 27.83-9.29a.66.66 0 0 0 .2-.61c2.27-2.91-1.19-4.31-1.7-6.49-2.08-5.48-5.33-10.32-8.52-15.18-3.26.32-5.09 3.11-7.73 4.5-1.34-.88-2.7 1.71-3.85.13-.72-1-.17-2.13.92-2.83 3.69-2.57 7.13-5.26 4.88-10.57a180.84 180.84 0 0 0-27.17-23.92l-1-.7-.18-.17-1.14-.81a.9.9 0 0 1-.56-.33c-4.65-1.67-6.53.6-8.36 4.74-4.2 9.52-8.87 18.86-13.78 28.05-2.53 4.75-2.73 8.52.83 13s6.33 9.7 9.46 14.57c.68 1.06 1.23 2.14 0 3.06a1.94 1.94 0 0 1-3-.81c-3.92-6.9-9.25-12.91-12.56-20.18l-1.52-1.25-30.94-.11-.22.26v23.72c6.83 1.08 13.18-2.67 20-2 .12.65.23 1.3.35 2-6.19 3.72-13.45 2.49-20.05 4.3v4.67c-.58 6.92-.59 6.8 6.25 6.07zm77.19-43.8zm-10.54 10.21c2.24-1.89 4.55-3.7 6.84-5.55 2.08 0 3.72.34 2.89 3.07A48.87 48.87 0 0 0 243 91.7a48.87 48.87 0 0 1-12.17-8.62c-2.52 1.78-5 3.61-7.57 5.35-1.11.75-2.57 1.38-3.47 0-.72-1.2.49-2.15 1.34-2.87zM179.86 95z" stroke="#57C003" stroke-width="2"/>
    <path d="M286 148.25a4.31 4.31 0 0 1-.84-.33.71.71 0 0 1-.59.18c-2.61 1.22-4.32-.94-6.39-1.71l-12.4-3.75c-7.32 2.07-14.81 1.2-22.24 1.26-1.1 0-2.46-.17-2.44-1.85 0-1.89 1.58-2 2.83-2.12 4.81-.36 9.63-.55 14.44-.82 6.57-.36 6.55-.36 5.8-7.12-.05-1-.05-2 0-3l-.3.15c.13-7.32-1.72-14.3-3.78-21.24a.5.5 0 0 0-.24-.7c-1.64-2-2.92-4.5-5.13-5.68 2.21 1.18 3.49 3.69 5.13 5.67-1.23-3.47-.51-8.55-6.6-8-.76.57-1.51 1.15-2.26 1.73-2.1.29-4.18.63-5.88 2.07-4.41.34-8.25 4-13.18 2.15-.48-.19-2.13 2.86-3.92 3.7l-10.83 3.24-.08.12c-.13 7.24-.25 14.49-.41 21.74 0 1.64.37 4-2.55 2-1.61-6-.05-12.11-.74-18.14-.87-1.73 1.25-5.49-3.24-4.76-6.08 2.87-12.83 2.7-19.24 4-12.68 2.54-25.54 4.2-38.34 6.15-3.13.48-4.57 1.84-4.46 5.26.25 7.48.11 15 .13 22.45 7 .8 13.29-2.23 20-3.17 4.1-.58 8.12-1.72 12.2-2.44 1.33-.24 3.36-.83 3.6 1.36.2 1.88-1.53 2.22-3.08 2.52-8.63 1.67-17.24 3.5-25.89 5-4.84.86-6.92 3-6.77 8.31.28 9.57 1.6 19.16.07 28.75-.14.87.51 1.87.79 2.8l3.16-.69-3.16.69c-1 .29-1 .62 0 1l.39.94c-1.48 6.05-.12 12.08 0 18.12.06 2.68 1.19 3.77 3.88 4 7.57.7 14.83.51 21.76-3.45 2.85-1.64 4.2-3.2 4-6.51-.4-8.31-.53-16.63-.77-24.95a18.93 18.93 0 0 1-.09-2c.13-1.58-.29-3.78 2.15-3.72 2.19.06 1.67 2.16 1.71 3.53.19 6.82.27 13.64.4 20.47 0 1.66.22 3.33.14 5-.17 3.29 1.05 4.24 4.1 2.78a107.3 107.3 0 0 1 7.29-3.2c2.17-.86 2.13-2.62 2.29-4.5 1.13-13.47.52-26.95.57-40.43-5.4-.43-9.7 3.14-14.73 4.09-1.94.37-3.74 1.39-5.64 2-11.64 3.64-9.26 1-9.5 13.4-.11 5.66 0 11.32 0 17 0 1.15.1 2.72-1.33 2.86-1.7.16-2.11-1.42-2.14-2.79-.17-8.81-.26-17.63-.41-26.45 0-2.74 1.76-3.54 4-4.32 9.4-3.3 18.71-6.87 28.15-10.05 2.74-.93 3.59-2.54 3.65-5.07.11-5.33.15-10.65.41-16 .15-3.11-1.19-3.5-3.94-3.15-8.24 1-16.52 1.84-24.79 2.66-1.88.19-4.91 1.4-5.3-.88-.5-2.9 3-2.15 4.82-2.88.3-.12.63-.2.94-.3a27.66 27.66 0 0 0 9-1.09 109.93 109.93 0 0 0 17.38-1.51c4-.55 6 .56 5.77 5-.37 6.47-.33 13-.77 19.45-.18 2.66.69 3.73 3.2 3.75 6.16.06 12.32 0 18.47.2 3.34.09 3.77-2 3.89-4.54.453-8.787.883-17.583 1.29-26.39a.42.42 0 0 0 .18-.52l2.15-2.18c4.44-1.78 8.887-3.56 13.34-5.34 1.67-.66 3.84-1.83 4.84.32 1.24 2.63-1.4 3.22-3.17 4-1.51.68-3 1.65-4.6 1.88-8.69 1.24-9.92 7.12-9.66 14.43a104.07 104.07 0 0 1-.67 15c-.29 2.71.63 3.66 3.08 3.86 5.15.42 10.29.84 15.42 1.37 1.2.12 3-.05 2.7 2-.26 1.79-1.77 1.73-3.13 1.62-5-.41-9.85-1.46-14.89-1.25-2.77.11-3.83.82-3.79 3.7.2 12.84-2.11 10.27 10.44 12.12 7.71 1.13 15.45 2.09 23.28 1.67.09-1.73.17-3.47.3-5.21.26-3.18 1.58-2 2.92-.69 2.83 2.74 6.68 1.63 10 2.65 1.54.26 2.9 1.38 4.58 1 4.77-1.77-1.23-2.56-.36-4l-4-2.59c-3.26-2.5-6.41-5.19-10.66-5.86-1.27-.2-2.2-.6-2.05-2.16.49-5.19-.51-10.48.79-16.06l13.42 10.47 4 .35c2.66-.74 4.94 2 7.77 1.15-1.41-3.77-8.06-4.07-5.64-9.58zm-57.63-24.65z" stroke="#57C003" stroke-width="2"/>
    <path d="M557.82 157.41a5.16 5.16 0 0 0-1.83-4.32c-10.34-2-20.68-3.89-31-6-1.15-.23-3.1-.51-2.83-2.2.33-2.07 2.26-1.51 3.66-1.24 7 1.31 14 2.63 20.94 4.1 3.73.78 7.4 1.81 11.26 1.31-.08-8.11-.89-16.22 0-24.33-.37-2.41-2.57-3.06-4.15-4.3-11.38-.51-22.55-2.87-33.82-4-9.43-.94-18.44-4.25-28-4.16-2.57 3.58-3.1.33-4.14-1.23L448.28 98c-3.57 8.39-5.06 17.29-6.32 26.24a24.82 24.82 0 0 1-.94 8.35c-.89 4 0 6.27 4.85 6.07a153 153 0 0 1 15.42.61c1.18.07 3-.21 3 1.78 0 1.81-1.69 2-2.95 2-5.95 0-11.91-.12-17.87-.2-2.15.06-3.3 1-3.29 3.34 0 6.27-.05 12.54-.09 18.8 1.4 3.27 1.1 6.83 1.58 10.24.39 2.77 1.45 3.86 4.13 3.53l15.27-1.83c4.6-.48 9.28-.3 13.74-1.79 2.45-4.64-.22-9.42.37-14.12L474 160c-3.47.38-6.94.72-10.4 1.14-3.46.42-6.61.59-9.78-.56 3.1-3.22 8.11-4.12 19.3-3.4l1.18-.75a.63.63 0 0 1 .53-.28c-.47-8.26-.87-16.52-1.47-24.77-.21-2.91-1.36-5.25-4.67-6.24C465 124 461.5 122.39 458 121c-1.08-.42-2.42-.74-2.29-2.22.17-1.81 1.84-1.36 2.75-1.17a51.17 51.17 0 0 1 17 6.37c1.63 1 1.12 3.39 1.25 5.16.62 8.92 1.11 17.86 1.65 26.8a.42.42 0 0 1 .45.22l1.13-.21c-.57-2.56.75-3.35 2.3-3.81-1.55.46-2.87 1.25-2.3 3.81 5.1.38 10.2.59 15.27-.46l8.14-.11c-.16-7.76-.14-15.52-.55-23.27-.23-4.14 1.38-5.31 5.23-4.87 9.9 1.11 19.83 2.07 29.74 3.1 1.33.14 3 .24 2.74 2.06-.26 1.82-2.06 1.22-3.32 1.21-8.33-.06-16.55-1.35-24.8-2.35-4-.48-6-.08-6.17 5.16-.17 6 1.29 11.82 1.1 17.76l1.32 1a1.25 1.25 0 0 1 1.71.6h.05c9.79 3.12 19.56 6.26 29.36 9.34 2.91.91 3.73 3.09 3.75 5.73.06 7.73 1.08 15.44.4 23.18-.15 1.78.13 4.3-2.16 4.25-1.93 0-1.63-2.52-1.66-4.13-.11-7.13-.29-14.27-.21-21.4 0-3-1.26-4.38-4.05-5.26-8.36-2.62-16.65-5.49-25-8.26l-.39.05-.38-.07a6.85 6.85 0 0 0-.95 4.29c.587 12.833 1.22 25.66 1.9 38.48.136.976.364 1.937.68 2.87l.21.1c2.12-.12 3.81.89 5.44 2.07h.29l.25.17c7.14 2 7.08 2 6.95-6.18-.11-6.93-.08-13.86 0-20.8 0-1.71-.59-4.29 2-4.22 2.59.07 1.62 2.77 1.76 4.37.36 4.43-.78 8.88.12 13.32a19.07 19.07 0 0 0-.16 7.6c-.93 2.94.61 6-.57 8.95a.49.49 0 0 0 .48-.2l-.06 1.5L531 213l1.06-.38 1.09.45a2.57 2.57 0 0 0 2.7 1c6.09 3.72 13.24 4.61 19.65 7.47 2.82 1.17 2.55-.59 2.26-2.37.61-20.59.24-41.17.06-61.76zm-88.32 17.22zm20.31-59.06c1.72 0 2.33 1.35 2.27 3.13-.07 2.47.29 5 .12 7.42v7.42c0 1-.35 2.14-1.57 2.15a1.69 1.69 0 0 1-1.67-2c.49-5-.92-9.84-1-14.77.04-1.44-.21-3.35 1.85-3.35z"/>
    <path d="M505.43 167.74c-.32-2.79-.24-5.63-.35-8.44l-1.07-.4c-7.94 0-15.8 1.89-23.78 1.06l-2.37 1.3c.86 4.36 2 8.68 1.07 13.44 4.36-.54 8.39-1 12.39-1.55 2.83-.39 4.45.54 4.78 3.52.46 4.14 1.09 8.25 1.57 12.38.14 1.15.24 2.62-1.2 2.91-1.62.32-2.29-.91-2.56-2.39-.5-2.78-1.43-5.54-1.51-8.33-.11-3.85-2-4.05-5.16-3.86-11.75.7-23.26 3.6-35.07 3.86-3 .06-5.77 2.71-9.1 1.42l-.72 2.43c.29.65.63 1.31-.38 1.66-1.49.35-3.17.76-1.13 2.52a5.22 5.22 0 0 1 1.57 2.84c2.39.88 1.09 3.74 2.69 5 .2.76.57.83 1.09.26a5.56 5.56 0 0 0 4.1-1.13l-.69-.07.69.07c2.69-.4 5.29-1.16 8.08-1.19 2.79-.03 5.41-.74 4.57-4.66-.26-1.22.22-2.58 1.52-2.71 1.47-.15 1.59 1.32 1.85 2.46.81 3.63-.1 7.52 1.88 11a1.89 1.89 0 0 1-1.26 2.77c-1.68.41-1.94-1.1-2-2.15-.3-3.39-2.61-3.21-5-3l-3.83.38a27.89 27.89 0 0 1-4.34 1c-6.27.35-6.58.4-4.46 6.56 1.73 5.06 1.91 11.06 6.9 14.53 1.7 1.18 4.71 5.06 4.82-1.23 0-1.18 1.08-1.52 2.06-1.85 5.27-1.77 9.21-6 14.89-7.49 2-.52 6.13-3.79 4.67-8.51a47.67 47.67 0 0 1-1.6-9.84c-.15-1.77-1.34-4.61 1.24-5.05 2.58-.44 2.68 2.66 3.1 4.4a44.42 44.42 0 0 1 1.35 9.85c0 3.2 1.47 4 4.27 3.95 6-.2 11.94-.33 17.91-.48a242.42 242.42 0 0 0-1.48-37.24zM488.16 107.24h.1l.8-.87.67-1.22c2.94-6.64 5.71-13.37 8.91-19.89 1.32-2.68 1-4.6-.75-6.71-3.15-3.82-6.06-7.85-9.38-11.49a5.94 5.94 0 0 1-1.42-6.77c1.36-.4 2.37.38 3.43 1 3.41 3.93 4.82 9.34 9.29 12.49 1.54 3.45 6.4 5.68 3.94 10.63-3.43 6.13-6.35 12.49-9.27 18.88-2.48 5.42 1.2 5.91 3.75 6.43 5.84 1.2 11.71 2.63 17.78 2.47 1.92 0 3.37 0 4.44-2.11 2.82-5.6 5.9-11.06 8.95-16.54.92-1.63 1.06-2.78-1.13-3.21-.2-2 .06-3.91 2.7-3.58a74.09 74.09 0 0 1 8.21 1.65c.74.18 1.61.68 1.51 1.7a1.52 1.52 0 0 1-1.83 1.28c-4.27-.43-5.67 2.57-7.07 5.69-2.53 5.65-7 10.43-7.7 16.92 9.08.42 18 2.17 27 3.32 1.31.17 2.7.16 3.18 1.8l2.57-1.1 1.1-1h-.08c0-2.6-.027-5.207-.08-7.82-.22-3.3-3-2.57-4.95-3.11-5-2.32-11.61.32-15.56-5 5.21.166 10.405.634 15.56 1.4 3.15.42 5-.37 4.85-4-.24-5.3-.48-10.61-.37-15.91.07-3.4-1-4.72-4.52-4.56a157 157 0 0 1-19.4.1c-6.54-.53-10.31 2.21-12.5 8-2.8 4.41-5.58 8.84-8.41 13.24-.82 1.28-1.92 2.7-3.58 1.68-1.66-1.02-.45-2.4.13-3.5 1.46-2.77 3-5.47 4.53-8.2 8.92-8.43 9.67-12.61 3.66-20.19a6.19 6.19 0 0 0-1.94-4.14c-3.86-8.24-8.55-16-13.11-23.89-.46-1.21-.91-2.43-1.37-3.65l-.13-.08c-4.86-2.38-6.87 3.11-10.67 3.78a.49.49 0 0 1-.46.31 1.18 1.18 0 0 1-1.21 1l-.24-.37.22.38-1.22.73c-.2.59-.41 1.18-.61 1.78-3.54 1.31-5.89 4.18-8.58 6.59-2.89 2.86-6.07 5.49-8.58 8.64-2.23 2.81-5.67 5.18-5.15 9.54l1.07 1 8.58 5.56c3.08 2.43 6.17 4.85 9.23 7.31 1.17.94 2.62 2.2 1.7 3.69-1.25 2-2.64.15-3.65-.61-6-4.5-12-9.1-17.95-13.67-.49 0-1.27-.31-1.43-.11-4.74 6.29-10.09 12.25-11.57 20.4 2.85 2.89 6.82 3.24 10.36 4.49 9.22 3.27 18.49 6.31 27.65 9.42zm1.57-62.75c-.42 0-.83.12-1.24.19.41-.07.82-.14 1.24-.19zM472 71.87c.15.22.32.44.49.66-.16-.22-.33-.44-.49-.66zm1 1.32z"/>
    <path d="M262.79 182.84c-12.06-1.19-24.11-2.43-36.18-3.53-3.76-.34-8.56-1.73-11.06 0s-2 6.94-2.31 10.7c0 .34-.09.67-.15 1-.26 1.36-.6 2.77-2.35 2.68-2-.09-1.79-1.72-1.67-3 .37-4 .92-7.93 1.33-11.9.44-4.2 2.07-5.33 6.34-3.62 7.59 3.05 10.15 1.08 10.14-7a21.44 21.44 0 0 1 0-3c.39-3-.63-4-3.81-4-7-.07-13.92-.66-20.88-1l-.23.16h-.29l-.09.3-.31-.09a1.54 1.54 0 0 1-.5.75c0 1.33.14 2.65.11 4-.25 11.59-.3 23.2-.88 34.78-.25 5.18 1.68 6.83 6.57 6.38a59.17 59.17 0 0 1 10.48 0c3.65.34 5.1-.91 5.26-4.6a76.14 76.14 0 0 1 1.55-10.34c.27-1.49-.14-3.86 2.35-3.59 2.21.24 2 2.32 1.89 4-.5 5.29-1.06 10.58-1.6 15.86l.71 1.1 4.38 2.36c6.26 3.4 12.18 7.47 19 9.8 2.16.73 4 .73 5.15-1.47 2.78-5.44 5.45-10.93 4.85-17.32-4.24-.67-8.58-1-12.7-2.13-3.13-.84-5.05-.73-6 2.73-.22.81-.84 2.09-2 1.82-1.54-.35-1.24-1.76-1.09-2.89.48-3.46 1-6.91 1.52-10.36.2-1.33.34-2.94 2.16-2.73 1.42.16 1.69 1.55 1.45 2.75-.65 3.34 1.54 3.91 4 4.32l2.94.51c5 .89 10.51 4 14-2.81l3.26.19a2.86 2.86 0 0 1 2.51.5c1.26-.4 2.94.86 4-1-3.5-4.15-9.09-5.6-11.85-10.31z" stroke="#57C003" stroke-width="2"/>
    <path d="M576 115.12l2-.25 2-.13c2.07.14 4.14.36 6.06-.71l5.78-.52c4 .47 5.8-.51 3.11-4.6-.79-1.21-1.37-2.56-2-3.84a6.06 6.06 0 0 0-1.83-4.11c-2.49-5.56-3.25-13-12.47-11.16a1.6 1.6 0 0 1-1.74-1.93 1.68 1.68 0 0 1 1.78-1.41c5.12-.167 10.24-.293 15.36-.38a1.6 1.6 0 0 1 1.75 1.42 1.4 1.4 0 0 1-1.47 1.61c-4.17.2-2.7 2.62-1.88 4.75.88 2.3 1.71 4.65 3.43 6.52 1.39 3 3 5.85 4.11 8.92 1 2.9 2.81 3.67 5.28 2.4 3.12-1.62 6.37-1.48 9.67-1.48 3.93-.57 7.86-1.26 11.81-1.69 3.73-.41 5.32-1.65 2.67-5.22a24.27 24.27 0 0 1-1.27-2.15 2 2 0 0 0-1.31-2.08l-.86-1.48c-.35-.52-.69-1-1-1.55-1.89-3.69-3.72-7.41-5.68-11.07-1.13-2.12-1.28-4.17.25-6.06 4.28-5.28 8.63-10.51 13-15.72.85-1 2-2.27 3.36-1.2 1.56 1.22.7 2.74-.32 3.92-3.14 3.64-6.22 7.35-9.56 10.81-3.85 4-3.85 7.76-.18 11.72 1.2 2.56 2.43 5.11 4.59 7a.58.58 0 0 0 .31.71c0 3.55 3.2 5.61 4.06 8.86.51 1.93 2.71 1 4.33.63a207.65 207.65 0 0 0 24.08-7.34 3.42 3.42 0 0 0 2.92-1.12l8.1-1.91.07-.11c-.05-1.71-.09-3.42-.14-5.12a1.13 1.13 0 0 1-.25-.7c-1.49-1.09-1.71-2.73-1.88-4.38-1.05-1.64-2.17-3.25-3.15-4.93-1.36-2.36-2.08-5.41-5.84-4.85-5.57 5-12.55 7.8-18.63 12-.94.65-2.19 1.08-3.17 0a2 2 0 0 1 .43-3.07c5.74-4.39 11.48-8.81 18.39-11.32 1.39-3.06.62-5.35-1.49-8.1-7.81-10.13-17.7-17.82-28-25-2.17-1.5-4.64-2.82-7.4-1-6.413 11.2-12.807 22.4-19.18 33.6-2 3.51-1 8.32 1.48 11.74a120.38 120.38 0 0 1 8.8 14.52c1.6 3-.54 2.5-2.34 1.74-.28 2.19-1.45 2.67-2.83 2.76 1.38-.09 2.55-.57 2.83-2.76-2.34-3.387-4.673-6.77-7-10.15a67 67 0 0 1-4-7.33c-1.52-3.74-3.87-5.11-8-5-10.61.28-21.24.06-31.87 0l-1.12 1.21c1.61 1.29.75 3 .78 4.58.09 5.08 0 10.17 0 15.25 0 2.79.76 4.53 4 3 4.14-2 8.77-.25 13.07-1.73 1.47-.51 4.19-.18 3.36 3l-1.2 1.09c-5.64-.5-11.12.51-16.58 1.78-1.16.27-2.4.26-2.06 2-.12.7-.25 1.4-.37 2.1-1.28 2.88-1.85 5.53 2.08 6.82 4.47.32 8.71-.83 12.97-1.8zm54.46-19.64c.33-.75.63-1.52 1-2.25-.36.77-.66 1.5-.99 2.25h-.01zm1-2.27c.13-.25.26-.5.4-.74-.14.24-.27.53-.4.74zm30.91 4.56z"/>
    <path d="M578.94 39a37 37 0 0 0-3.94.08c-4.71.56-10.74-3.22-13.83 1-2.85 3.91-.72 9.88-.46 14.94v1.43a1.9 1.9 0 0 0 .22 2.62v.11c0 3.65.17 7.32-.08 11-.22 3.32 1.46 3.83 4.2 3.82 8.61 0 17.23.38 25.81-.08 3.07-.16 7 1.19 9.26-3.07 4.39-8.37 9.14-16.54 13.74-24.8a5.88 5.88 0 0 0 1.89-3.9c5.12-5.76 4.57-8.3-2.41-11.48a8.05 8.05 0 0 1-1.79-1.54 71.28 71.28 0 0 1-10.28-3.53c-2.63-1.17-4.72-.87-5.23 2.78-.92 6.52-3.78 12.48-5.77 18.7.18 3-2.09 7.18 3.6 7.71a1.38 1.38 0 0 1 1 1.9c-.69 1.88-2.48 1.08-3.81 1.4a.89.89 0 0 0-.75-.2c-3.35-1.12-6.87-.79-10.3-1.17-1-.11-2-.49-2-1.76a1.48 1.48 0 0 1 1.7-1.43c6.11 1.14 5.38-4.2 6.95-7.29.79-1.57.2-3.66 1.7-5 .63-3.38 1.18-6.77 1.88-10.13 1.64-7.79.33-9.38-7.82-9.27-.49.032-.979.1-1.46.2l-20.68-.92-.22.24c.06 3 .23 5.94.15 8.9-.08 2.96 1.07 4.24 4 4.38 3.95.19 7.9.6 11.84.92 2.15.18 4.2.47 2.92 3.51l-.03-.07zM562 59.24z"/>
    <path d="M653.23 39.05c-22.21-20.56-50-28.93-79.1-31.85-35.6-3.56-68.86 3.82-97.56 26.68-1 .78-.61 1.32-.15 2l-1.82.28c-4.28 3.46-8.49 7-11.77 11.47-3.25-.27-2 3.54-4 4.42a7 7 0 0 0-1.51 1.28 176 176 0 0 0-23.61 49.75c-7.48 25.93-9.9 52.08-5.41 78.76.9 1.42 3.85.84 3.51 3.28-.26 1.87-2.24.33-3.18 1.12 1.28 3.16.09 7.24 3.57 9.58 3.35-.27 6.11.34 7.09 4.55-3.14.13-5.62-.09-7-2.93-1.86 5.94 1.13 11.17 2.39 16.65l2.89 4.23c.19-.11.37-.23.55-.35-.18.12-.36.24-.55.35-.36.57-.72 1.14-1.09 1.71 3.83 14.88 10.14 28.79 16.6 42.82a30.62 30.62 0 0 0 1.7-7.23c3.18-20.3 16.33-33.53 36.53-36.33 22.61-3.14 40.6 5.12 54.6 22.78-.28.61-.57 1.22-.85 1.84-1.89-.57-2.64-2.39-3.94-3.6-2.83-2.66-5.07-6-8.85-7.55-4.79-5.65-11.24-8.18-18.23-9.67l-3.85-.5c-12.33-3.05-24.14-1.49-35 4.92-12.71 7.51-17.46 20.27-19 33.84-1.71 14.79 5 28.15 9.94 41.66l.34 3.08.41 1.16h-.13c1.58 10.52 2.88 21.1 4.82 31.55 1.56 8.4 4.55 16.31 11.49 22l3 2.18a14.45 14.45 0 0 0 5.94 4.17l.37.13c6.76 7 16.47 10.14 23.29 17.18-2.34.38-3.91-.88-5.55-1.91-3.09-1.94-6.14-4-9.23-5.91-.85-.54-1.86-1-2.75-.19a1.73 1.73 0 0 0-.47 2.25c4 6.47 5.6 14.19 10.28 20.34 3.51 8.85 7 17.72 10.54 26.55 2.46 6.14 6.72 11 11.44 15.46 5.43 8.44 14.11 11.64 23.19 13.46 8.27 1.65 16.38.42 23.29-5.13a4.32 4.32 0 0 0 3.31-2.18l.33-.14c1.29-.12 2-1.09 2.84-1.88 15.34-14.29 23-32.87 29.31-52.24 2-3.83 3.93-7.64 5.8-11.51.48-1 1.19-2.29 0-3.17-.91-.64-1.9.12-2.75.61-3.45 2-6.85 4.06-10.34 6-1.16.63-2.7 2.31-3.82.35-.95-1.69 1.06-2 2.11-2.69 7.19-4.43 14.59-8.56 21.52-13.38 8.32-5.79 16.68-12.17 19.23-22.57 2.77-11.23 4.24-22.78 6.27-34.2 3.55-10.29 6.82-20.66 8.62-31.44l.41-2.91c1.75-8-.49-15.5-2.82-22.92-1-3.2-1.81-6.83-5.1-8.85l-.49-1.29c-.89-2.54-2.8-4.31-4.63-6.14a7.71 7.71 0 0 0-4.2-3.73 4.09 4.09 0 0 0-2.57-2.17c-12.29-9-26-10.23-40.47-7.5l-1.91.4c-8.3 1.74-15 6.93-22.51 10.24 14.32-13.7 31.66-17.55 50.29-12.48 27 7.33 36.64 27.82 37.54 54a4.58 4.58 0 0 0 2.43-2.65c3.13-7.11 6.44-14.16 9.83-21.13a269.83 269.83 0 0 0 21.06-61.91c6.08-28.57 4.43-57.4-1.58-85.81-5.72-26.96-21-48.63-40.88-67.04zm22.64 54.52zm.07-1.17zm-2-4.35v-.63c-.02.21 0 .42 0 .63zm-50.89-49.38c2.76-1.77 5.23-.45 7.4 1 10.34 7.2 20.23 14.89 28 25 2.11 2.75 2.88 5 1.49 8.1 0 1.75 1.18 2.09 2.44 2.31-1.26-.22-2.43-.56-2.44-2.31-6.91 2.51-12.65 6.93-18.39 11.32a2 2 0 0 0-.43 3.07c1 1.11 2.23.68 3.17 0 6.08-4.22 13.06-7 18.63-12 3.76-.56 4.48 2.49 5.84 4.85 1 1.68 2.1 3.29 3.15 4.93a2.89 2.89 0 0 1 1.79 1.77A2.89 2.89 0 0 0 672 85c.17 1.65.39 3.29 1.88 4.38.002.255.09.502.25.7 0 1.7.09 3.41.14 5.12l-.07.11-8.1 1.91a3.42 3.42 0 0 1-2.92 1.12 207.65 207.65 0 0 1-24.08 7.34c-1.62.36-3.82 1.3-4.33-.63-.86-3.25-4.09-5.31-4.06-8.86a.58.58 0 0 1-.31-.71c-2.16-1.94-3.39-4.49-4.59-7-3.67-4-3.67-7.76.18-11.72 3.34-3.46 6.42-7.17 9.56-10.81 1-1.18 1.88-2.7.32-3.92-1.38-1.07-2.51.18-3.36 1.2-4.36 5.21-8.71 10.44-13 15.72-1.53 1.89-1.38 3.94-.25 6.06 2 3.66 3.79 7.38 5.68 11.07.35.51.69 1 1 1.55l.86 1.48a2 2 0 0 1 1.31 2.08c.386.738.81 1.456 1.27 2.15 2.65 3.57 1.06 4.81-2.67 5.22-4 .43-7.88 1.12-11.81 1.69-3.3 0-6.55-.14-9.67 1.48-2.47 1.27-4.25.5-5.28-2.4-1.1-3.07-2.72-6-4.11-8.92-1.72-1.87-2.55-4.22-3.43-6.52-.82-2.13-2.29-4.55 1.88-4.75a1.4 1.4 0 0 0 1.47-1.61 1.6 1.6 0 0 0-1.76-1.45c-5.12.08-10.24.207-15.36.38a1.68 1.68 0 0 0-1.78 1.41 1.6 1.6 0 0 0 1.74 1.93c9.22-1.87 10 5.6 12.47 11.16a6.06 6.06 0 0 1 1.83 4.11c.67 1.28 1.25 2.63 2 3.84 2.69 4.09.9 5.07-3.11 4.6l-5.77.52c-1.93 1.07-4 .85-6.07.71l-2 .13-2 .25c-4.27 1-8.51 2.12-13 1.83-3.93-1.29-3.36-3.94-2.08-6.82.12-.7.25-1.4.37-2.1-.34-1.73.9-1.72 2.06-2 5.46-1.27 10.94-2.28 16.58-1.78l1.2-1.09c.83-3.18-1.89-3.51-3.36-3-4.3 1.48-8.93-.23-13.07 1.73-3.25 1.55-4-.19-4-3 0-5.08.06-10.17 0-15.25 0-1.53.83-3.29-.78-4.58l1.12-1.21c10.63 0 21.26.23 31.87 0 4.13-.12 6.48 1.25 8 5a67 67 0 0 0 4 7.33c2.34 3.38 4.673 6.763 7 10.15 1.8.76 3.94 1.31 2.34-1.74A120.38 120.38 0 0 0 605.52 84C603 80.62 602 75.81 604 72.3a5370.274 5370.274 0 0 0 19-33.63l-.44-.24.49.24zm51 57.38a1.14 1.14 0 0 0 .16-.48 1.14 1.14 0 0 1-.21.48h.05zm-.74.93l.4-.47-.4.47zm-110 23.22l-.15-.13.15.13zm-.67-.61l-.11-.06.11.06zm19.84-97.8c8.15-.11 9.46 1.48 7.82 9.27-.7 3.36-1.25 6.75-1.88 10.13.25 1.54-.59 3.43.31 4.77-.9-1.34-.06-3.23-.31-4.77-1.5 1.38-.91 3.47-1.7 5-1.57 3.09-.84 8.43-6.95 7.29A1.48 1.48 0 0 0 578 55c0 1.27 1 1.65 2 1.76 3.43.38 6.95 0 10.3 1.17a.89.89 0 0 1 .75.2c1.33-.32 3.12.48 3.81-1.4a1.38 1.38 0 0 0-1-1.9c-5.69-.53-3.42-4.67-3.6-7.71 2-6.22 4.85-12.18 5.77-18.7.51-3.65 2.6-3.95 5.23-2.78a71.28 71.28 0 0 0 10.28 3.53 8.05 8.05 0 0 0 1.79 1.54c7 3.18 7.53 5.72 2.41 11.48a5.88 5.88 0 0 1-1.89 3.9c-4.6 8.26-9.35 16.43-13.74 24.8-2.22 4.26-6.19 2.91-9.26 3.07-8.58.46-17.2 0-25.81.08-2.74 0-4.42-.5-4.2-3.82.25-3.63.07-7.3.08-11v-.11a1.9 1.9 0 0 1-.22-2.62v-1.43c-.26-5.06-2.39-11 .46-14.94 3.09-4.23 9.12-.45 13.83-1a37 37 0 0 1 3.94-.08c1.28-3-.77-3.33-2.92-3.51-3.94-.32-7.89-.73-11.84-.92-2.93-.14-4.08-1.52-4-4.38.08-2.86-.09-5.93-.15-8.9l.22-.24 20.68.92a10.45 10.45 0 0 1 1.48-.22h.08zm-19.52-2.54a2.83 2.83 0 0 0-2.15.82 2.83 2.83 0 0 1 2.07-.82h.08zM527.06 29c1.93.11 2.3-1.08 2.63-2.3-.33 1.22-.7 2.41-2.63 2.3 1.06 4.84 2.17 9.66 3.16 14.52.65 3.21 1.92 6.58 1.48 9.67-.75 5.38-1.07 5.42 4.78 4.29 1.94-.38 4-.36 5.89-.82 1.27-.3 3.55.3 3.43-1.91-.14-2.6-2.41-1.39-3.89-1.64-2-.35-4.94 1.68-5.9-1.71-1.48-5.23-3.37-10.39-3.49-15.93v-.1c-.67-.25-.75-.75-.58-1.36l-.09-3.85c-.54-1.67-1.07-3.34-1.61-5 3.61-3.7 8.54-3 13-3.83 2.59-.46 5.27-.45 7.91-.66l3.28-.32 1.07.76v7.48c0 5.62-1.68 7.15-7.48 6.94-2.32-.09-4.64 0-7-.06l-1.08.62c0 3.22 2.18 3.15 4.49 3.06 3.79-.16 7.59-.2 11.39-.3l.24.39c.31 9.94.51 19.89 1 29.83.17 3.63-.88 5-4.73 4.93-7.46-.14-14.93.18-22.39.49-2.54.11-4.87-.37-6-2.57-6.54-12.92-15.6-24.65-20.03-38.72 5.27-3.61 11.26-5.54 17.24-7.52 3.24-1.07 5.55-.68 5.91 3.32zm-33.81 7.73a8.21 8.21 0 0 0-1.07 1.13 8.21 8.21 0 0 1 1.07-1.14v.01zm-55 170.67c1.14-1.55 3.25-.43 4.88.28.57 1.12 1.13 2.23 1.69 3.31-1.57 1.84-3.16-.29-4.62.31-1.43-.97-2.88-2.67-1.96-3.91l.01.01zm6.41 13.6l-1.83-2.2c0-2.32 1.6-2.21 3-1.66s3.15.92 3.61 2.84c.46 1.92-1.08 1.61-2 2a1.06 1.06 0 0 0-.81-.29l-2-.69c0 .92.28 1.32.63 1.38-.32-.05-.56-.45-.6-1.38zm8.19 2.86a13.16 13.16 0 0 0 3.38.67 13.16 13.16 0 0 1-3.38-.66v-.01zm46.6-16.71h.66-.66zm28.92 4.27l.06-1.5a.49.49 0 0 1-.48.2 2.51 2.51 0 0 1 0 0c1.18-2.92-.36-6 .57-8.95a19.07 19.07 0 0 1 .16-7.6c-.91-4.44.23-8.89-.13-13.32-.14-1.6 1-4.3-1.76-4.37-2.76-.07-2 2.51-2 4.22 0 6.94-.06 13.87 0 20.8.13 8.2.19 8.2-6.95 6.18l-.25-.17h-.29c-1.63-1.18-3.32-2.19-5.44-2.07l-.21-.1-4.75.24 4.75-.24a15.72 15.72 0 0 1-.68-2.87c-.667-12.827-1.3-25.653-1.9-38.48a6.85 6.85 0 0 1 .95-4.29l.38.07.39-.05c8.31 2.77 16.6 5.64 25 8.26 2.79.88 4.08 2.23 4.05 5.26-.08 7.13.1 14.27.21 21.4 0 1.61-.27 4.09 1.66 4.13 2.29.05 2-2.47 2.16-4.25.68-7.74-.34-15.45-.4-23.18 0-2.64-.84-4.82-3.75-5.73-9.8-3.08-19.57-6.22-29.36-9.34h-.05a1.23 1.23 0 0 0-1.7-.59l-1.33-1c.19-5.94-1.27-11.73-1.1-17.76.15-5.24 2.2-5.64 6.17-5.16 8.25 1 16.47 2.29 24.8 2.35 1.26 0 3 .6 3.32-1.21.32-1.81-1.41-1.92-2.74-2.06-9.91-1-19.84-2-29.74-3.1-3.85-.44-5.46.73-5.23 4.87.41 7.75.39 15.51.55 23.27l-8.14.11c-5.07 1.05-10.17.84-15.27.46l-1.13.2a.42.42 0 0 0-.45-.21c-.54-8.94-1-17.88-1.65-26.8-.13-1.77.38-4.16-1.25-5.16a51.17 51.17 0 0 0-17-6.37c-.91-.19-2.58-.64-2.75 1.17-.13 1.48 1.21 1.8 2.29 2.22 3.54 1.4 7 3 10.65 4.12 3.31 1 4.46 3.33 4.67 6.24.6 8.25 1 16.51 1.47 24.77a.63.63 0 0 0-.53.28l-1.18.75c-11.19-.72-16.2.18-19.3 3.4 3.17 1.15 6.46 1 9.78.56 3.32-.44 6.93-.76 10.4-1.14l1.19 1 2.7.33 2.37-1.3c8 .83 15.84-1.09 23.78-1.06l1.07.39c.11 2.82 0 5.66.35 8.45a242.42 242.42 0 0 1 1.51 37.31c-6 .15-11.94.28-17.91.48-2.8.09-4.24-.75-4.27-3.95a44.42 44.42 0 0 0-1.35-9.85c-.42-1.74-.6-4.83-3.1-4.4-2.5.43-1.39 3.28-1.24 5.05a47.67 47.67 0 0 0 1.6 9.84c1.46 4.72-2.64 8-4.67 8.51-5.68 1.45-9.62 5.72-14.89 7.49-1 .33-2 .67-2.06 1.85-.11 6.29-3.12 2.41-4.82 1.23-5-3.47-5.17-9.47-6.9-14.53-2.12-6.16-1.81-6.21 4.46-6.56a27.89 27.89 0 0 0 4.34-1l3.83-.38c2.38-.19 4.69-.37 5 3 .09 1.05.35 2.56 2 2.15a1.89 1.89 0 0 0 1.26-2.77c-2-3.49-1.07-7.38-1.88-11-.26-1.14-.38-2.61-1.85-2.46-1.3.13-1.78 1.49-1.52 2.71.84 3.92-1.86 4.64-4.57 4.66-2.71.02-5.39.79-8.08 1.19a5.56 5.56 0 0 1-4.1 1.13c-.52.57-.89.5-1.09-.26-1.6-1.3-.3-4.16-2.69-5a5.22 5.22 0 0 0-1.57-2.84c-2-1.76-.36-2.17 1.13-2.52 1-.34.67-1 .38-1.65v.15-.15l.72-2.43c3.33 1.29 6.08-1.36 9.1-1.42 11.81-.26 23.32-3.16 35.07-3.86 3.16-.19 5.05 0 5.16 3.86.08 2.79 1 5.55 1.51 8.33.27 1.48.94 2.71 2.56 2.39 1.44-.29 1.34-1.76 1.2-2.91-.48-4.13-1.11-8.24-1.57-12.38-.33-3-2-3.91-4.78-3.52-4 .57-8 1-12.39 1.55.9-4.76-.21-9.08-1.07-13.44l-2.7-.33c-.59 4.7 2.08 9.48-.37 14.12-4.46 1.49-9.14 1.31-13.74 1.79l-15.27 1.83c-2.68.33-3.74-.76-4.13-3.53-.48-3.41-.18-7-1.58-10.24 0-6.26.13-12.53.09-18.8 0-2.35 1.14-3.28 3.3-3.34 6 .08 11.91.21 17.86.2 1.26 0 2.93-.15 2.95-2 0-2-1.8-1.71-3-1.78a153 153 0 0 0-15.42-.61c-4.88.2-5.74-2.11-4.85-6.07a24.82 24.82 0 0 0 .94-8.35c1.26-9 2.75-17.85 6.32-26.24L488 111.1c1 1.56 1.57 4.81 4.14 1.23 9.51-.09 18.52 3.22 28 4.16 11.27 1.12 22.44 3.48 33.82 4 .11-.46.23-.92.34-1.37-.48-1.64-1.87-1.63-3.18-1.8-9-1.15-17.9-2.9-27-3.32.7-6.49 5.17-11.27 7.7-16.92 1.4-3.12 2.8-6.12 7.07-5.69a1.52 1.52 0 0 0 1.83-1.28c.1-1-.77-1.52-1.51-1.7a74.09 74.09 0 0 0-8.21-1.67c-2.64-.33-2.9 1.55-2.7 3.58 2.19.43 2.05 1.58 1.13 3.21-3 5.48-6.13 10.94-8.95 16.54-1.07 2.1-2.52 2.07-4.44 2.11-6.07.16-11.94-1.27-17.78-2.47-2.55-.52-6.23-1-3.75-6.43 2.92-6.39 5.84-12.75 9.27-18.88 2.46-5-2.4-7.18-3.94-10.63-4.47-3.15-5.88-8.56-9.3-12.49-1.06-.62-2.07-1.4-3.43-1a5.94 5.94 0 0 0 1.42 6.77c3.32 3.64 6.23 7.67 9.38 11.49 1.75 2.11 2.07 4 .75 6.71-3.2 6.52-6 13.25-8.91 19.89l-.67 1.22-.8.87h-.1c-9.2-3.11-18.43-6.15-27.6-9.37-3.54-1.25-7.51-1.6-10.36-4.49 1.48-8.15 6.83-14.11 11.57-20.4.16-.2.94.06 1.43.11 6 4.57 11.92 9.17 17.95 13.67 1 .76 2.4 2.63 3.65.61.92-1.49-.53-2.75-1.7-3.69-3.06-2.46-6.15-4.88-9.23-7.31l-8.58-5.56-1.07-1c-.52-4.36 2.92-6.73 5.15-9.54 2.51-3.15 5.69-5.78 8.58-8.64.214-.61.381-1.235.5-1.87.05-.3.08-.6.1-.9 0 .3-.05.6-.1.9a12.69 12.69 0 0 1-.5 1.87c2.69-2.41 5-5.28 8.58-6.59.2-.6.41-1.19.61-1.78l1.22-.73-.22-.38.24.37a1.18 1.18 0 0 0 1.21-1 .49.49 0 0 0 .46-.31c3.76-.67 5.77-6.2 10.63-3.83l.13.08 3.11-4.21-3.11 4.21 1.37 3.65c4.56 7.86 9.25 15.65 13.11 23.89a6.19 6.19 0 0 1 1.9 4.01c6 7.58 5.26 11.76-3.66 20.19-1.51 2.73-3.07 5.43-4.53 8.2-.58 1.1-1.66 2.55-.13 3.5 1.53.95 2.76-.4 3.58-1.68 2.83-4.4 5.61-8.83 8.41-13.24 2.19-5.77 6-8.51 12.5-8a157 157 0 0 0 19.4-.1c3.54-.16 4.59 1.16 4.52 4.56-.11 5.3.13 10.61.37 15.91.17 3.65-1.7 4.44-4.85 4a135.26 135.26 0 0 0-15.56-1.4c4 5.33 10.61 2.69 15.56 5 2 .54 4.73-.19 4.95 3.11 0 2.607.027 5.213.08 7.82l-1.07 1-2.57 1.1c-.11.45-.23.91-.34 1.37 1.58 1.25 3.78 1.9 4.15 4.31-.93 8.11-.12 16.22 0 24.33-3.86.5-7.53-.53-11.26-1.31-7-1.47-13.95-2.79-20.94-4.1-1.4-.27-3.33-.83-3.66 1.24-.27 1.69 1.68 2 2.83 2.2 10.31 2.06 20.65 4 31 6a5.16 5.16 0 0 1 1.83 4.32c.21 20.58.55 41.17 0 61.75.29 1.78.56 3.54-2.26 2.37-6.41-2.86-13.56-3.75-19.65-7.47a2.57 2.57 0 0 1-2.7-1l-1.09-.45-1.12.47c.63.52 1.29 1 2 1.47-.67-.46-1.33-.95-2-1.47l-2.63-1.58zM513.93 207zm-10.48-49.88a2.2 2.2 0 0 0 0-.03v.03zm7.75 1.12v-.21.21zm-.88-1.86c.16.49.56 1 .74 1.43-.14-.51-.54-.97-.7-1.46l-.04.03zm-32.69.05a1.56 1.56 0 0 1-.33.14c.13-.04.255-.097.37-.17l-.04.03zm-13.72-83.74zm.57-.51zm.46-.62zm98 150.55zm.27 2.68a3.7 3.7 0 0 0-.67-.8 3.7 3.7 0 0 1 .65.8h.02zM535.4 216c1.15.67 2.32 1.28 3.51 1.85-1.19-.54-2.36-1.15-3.51-1.85zm-49.31 37.63c-.7-.15-1.28-.51-1.3-1.26.02.78.6 1.14 1.3 1.29v-.03zm-19.44-9c.2-.7.42-1.42.67-2.14 1.74-5 4.7-10.24 7.68-12.46-3 2.22-5.94 7.42-7.68 12.46-.25.77-.47 1.51-.67 2.19v-.05zm1.58 62.42a4.88 4.88 0 0 0 2.88-1.72 4.88 4.88 0 0 1-2.88 1.77v-.05zm5.85-25.32c-.44 1.3-.3 3.69-2.41 2.78-1.45-.63-.72-2.68 0-4A57.18 57.18 0 0 1 484 265.16l.05-.06c4.19-3.31 8.86-3.51 14-2.94 6.57.72 13.23.54 19.86.75l6.09.09c4.93-.56 7.29 2.92 9.76 6.22.19 4.8 3.73 8.4 4.6 13 .18.29.35.58.53.86a9.51 9.51 0 0 0 3 6.05c-.23 2.1.92 3.73 1.76 5.5 2.73 5.81 5.38 11.65 3 18.31h-1.47c-.35-14.63-8.84-26.47-13.61-39.58-1.36-3.73-3.95-5.3-8-5.42-9.48-.27-18.94-1.05-28.41-1.32-9.04-.24-18.09 6.38-21.08 15.16v-.05zm63 81.2s0 .07-.07.1c0 0 .04-.03.07-.03v-.07zm-17-33c-1.57.83-3.32 3.76-4.63-.44-.42-1.35-2.09-.68-3.15-.44-4.077.8-8.265.85-12.36.15a.71.71 0 0 0-.71-.25 2.09 2.09 0 0 0-2.17-.56l-2-.79c-7.61-5.43-13.29-12.14-13.36-22-.12-15 14.58-26.72 29.26-23.42 1.42.32 2.79 1.16 4.34.48-1.3-2.16-1.3-2.16-11-5.41 3.77-3 11.12-1.27 14.27 3.52 2.82 4.28 5.36 8.75 8.12 13.07 6.22 9.64 3.31 30.87-6.57 36.16l-.04-.07zM563 434.06l-1.12.92a.36.36 0 0 1 0-.09l-6.31 2h-1.2A8.41 8.41 0 0 0 550 436l-.22-.24h-.33l-3.34-2-1.21-1.74c1.29-.83 2.45-.46 3.73.17 5 2.47 10.1.23 15.16.32l.16-.07-.95 1.62zm.84-2.17a7.85 7.85 0 0 1 3.66-6.23 7.85 7.85 0 0 0-3.65 6.23h-.01zm20.86-13.79c-.18 1.67-.35 3.34-.53 5a.51.51 0 0 0-.25.59c-5.44-3.33-11.06-5.5-16.75-.84-6.83 5.6-14 6.77-22 2.85-6.48-5.52-6.75-5.57-13.8-1.63-1.49.83-2.15.08-2.62-1.14a13.12 13.12 0 0 1-.78-5.86c2.93.29 6.3 2.38 8.11-2 3.57-3 6-6.85 9-10.38a35.09 35.09 0 0 1 4-3.66c4.32-.43 8.61 1.52 12.94.16 5.18 2.77 6.9 8.95 11.81 12a2.33 2.33 0 0 0 2.19 2.1l.28.15c1.89 4.2 5.82 1.15 8.53 2.4l-.08.24-.05.02zm-14.35-41.92zm50.87-56.41v.37a9.56 9.56 0 0 0-3.49 4.63 8.25 8.25 0 0 0-4.17 4.08l-1.77.58A26.53 26.53 0 0 1 595.9 332c-2.23-.38-4.76-1.39-4.21 2.89.19 1.51-1.93.07-2.88.6a.37.37 0 0 0-.25-.58c-8.74-7.2-12.4-16.57-12.63-27.78-.18-8.74 5.32-14.61 9.37-21.29 4-6.52 9.9-8.89 17.3-8.1l.22.35c-.88 3.15-3.69 2.24-5.8 2.68-2.49.52-5.25.49-5.83 3.89 1.59.77 2.86.19 4.15 0a24.63 24.63 0 0 1 20.42 5.77c4 3.39 5.44 8.17 8 12.36v9.37c-1.06 2.45-2.5 4.84-2.54 7.61zm-41.48 25.76l-.42.72-.48-.49.48.49.42-.72zM606.27 279zm-9.72-51.86a11.18 11.18 0 0 0-.53 2.62 11.08 11.08 0 0 1 .53-2.66v.04zm-21.22 40.33c1.58-2.43 3.48-3.76 5.93-3.78 14.24-.11 28.47-1.92 42.74-.56 1.33.94 2.66 1.89 4 2.82 6.34 4.36 12.63 8.8 17.39 15 1.18 1.53 2.8 3.36-.51 4.49l-.19-.27c-.21-.42-.42-.83-.62-1.25.23-2.82-2.32-3-3.9-4.16-4.65-6.95-11.2-11.63-19.36-12.26-11.92-.92-23.93.17-35.88 1-4.88.36-8.48 2.45-10.55 7-3.77 8.31-8.43 16.18-11.74 24.72a14.57 14.57 0 0 0-.75 9.68c2.71 9.57 2.45 19.37 2.12 29.16l-.15 1.81c-2.45 9.42 2.13 18.34 2 27.61 0 1.11.84 1 1.77.9 6.08-.47 9.08-6.41 5.71-11.46-.85-1.26-3.29-2.62-1.5-3.94 2-1.42 3.58.71 4.56 2.48a34 34 0 0 1 4.4 16.54c-1.52 1.26-2.5.76-3.11-.94-1.18-3.84-1.18-3.84-5.5.12l-.12.13c-2.22.48-4.47.88-6 2.76l-4 3.2c-2 1.15-1.43 3.07-1.42 4.83 0 3.93.64 7.87-.44 11.77-.51 1.81.17 4.2-2.46 4.83a4.89 4.89 0 0 1-5.81-2.62l.33-1.75-2-1.22 2 1.22c-.27-.66-.47-1.41-1.17-1.68.7.27.9 1 1.17 1.67l1.76-.17c2.22 2.28 4.06 2.88 4.17-1.27.08-3.45-.18-6.9-.33-10.35-.05-1.24-.49-2.45-1.92-2.42-3.9.11-6.64-2.54-9.9-3.93l-.13-.06c-2.35-3.83-6.76-4.66-10.12-7-2.26-1.59-3.87-2.1-4.22 1.51-.1 1.1-.24 2.67-1.94 2.14-1.24-.39-1.45-1.8-1.3-3 .356-3.81.91-7.598 1.66-11.35.44-1.85.76-5.35 3.26-4.61 2.5.74.35 3.38-.16 5.1-.82 2.71.45 4.55 2.33 6.09 1.66 1.36 3.83 3.12 5.71 2.22 1.88-.9.59-3.65.94-5.55.063-.498.097-.998.1-1.5a1 1 0 0 0 .76-.38c3.28.7 1.91 3.41 2.19 5.31.91 6.12 6 11.67 10.22 11 5.13-.76 7.7-6.48 6.15-13.73a1.34 1.34 0 0 0-.25-.43l-.27-1.89a24.57 24.57 0 0 0-.72-8.1l-.24-3.92c.14-3.45.31-6.91.4-10.36.16-5.9 1.18-11.81-.26-17.68-.06-.65-.13-1.3-.19-1.95-2-9.78-1.1-19.17 3.87-28 4.37-7.58 6.67-16.18 11.49-23.61v.04zM568 313.08l1.15-.68-1.15.68zm0 2v-2 2zm-3.33-3.45a1.57 1.57 0 0 1-.28-1.14 1.57 1.57 0 0 0 .31 1.14h-.03zm-4.91-88.72a2.75 2.75 0 0 1 1.46-1.58 2.75 2.75 0 0 0-1.43 1.58h-.03zm6.83-1.16c5.14-1.46 10.28-2.91 14.23-6.9h1.3-1.3c-3.92 3.99-9.06 5.44-14.2 6.9h-.03zm15.54-6.9c.41 0 .81-.06 1.21-.11-.34.05-.77.09-1.18.11h-.03zm1.27-.12c.79-.11 1.57-.286 2.33-.53-.75.242-1.52.42-2.3.53h-.03zm2.41-.55c.64-.2 1.27-.45 1.88-.71-.58.26-1.21.53-1.85.71h-.03zm20.43-7.51a8.11 8.11 0 0 0 4.6-3.76l2.75.6-2.75-.6a8.11 8.11 0 0 1-4.57 3.76h-.03zm-2.28.47c.44 0 .86-.11 1.28-.2-.39.06-.81.15-1.24.2h-.04zm13.18-57.33c.147.143.266.313.35.5a1.61 1.61 0 0 0-.32-.5h-.03zm62.41 52a16.83 16.83 0 0 0 2.12-3.35 16.83 16.83 0 0 1-2.09 3.32l-.03.03zM682.4 191c-.14.72-.27 1.44-.4 2.16a5.53 5.53 0 0 0-.75 1.8c-.11 5.15-2.83 5.63-7 4.24-3.62-1.21-7.35-2.1-11-3.08-2.1-.55-3.76-1.35-3.46-4 .13-1.2 0-2.57-1.66-2.43-1.28.11-2.64.58-2.8 2.29-.27 3-.54 5.94-.83 8.91-.12 1.14-.54 2.59 1 2.91 2 .4 2.52-1.05 2.49-2.76l.3-1c1.62-.82 3.1-.37 4.75.13 4.88 1.48 9.84 2.71 14.76 4 1.51 3.78-1.58 14.91-4.83 16.7a5.7 5.7 0 0 1-5.77 0c-6.23-3.79-13-6.76-18.63-11.48l-1.47-.67c-2-.78-4-1.55-5.11-3.66l.72-4.07c.52-2.66-.31-5.55 1.31-8 0-.82-.11-1.64-.1-2.45 0-1.43.79-3.47-1.11-3.83-2.3-.43-2.34 1.91-2.59 3.43-.52 3.11-.89 6.24-1.19 9.37-.35 3.65-2 5.33-5.87 4.71a79.59 79.59 0 0 0-9.4-.76c-8.53-.38-8.61-.61-8.22-9.35.47-10.37.93-20.74.25-31.12l.12-2.94a11.51 11.51 0 0 1 6.26-.47.37.37 0 0 0 0-.48l3.71.09L628 159c5.19 1.85 10.63.61 15.91 1.34h.49l.48.09 3.27.83L650 160a4.55 4.55 0 0 0 3.83.25l2.2.3c3.22.72 6.43 1.48 9.66 2.14 2.07.42 3.82-.3 4.21-2.44.44-2.38-1.61-2.58-3.26-2.72-4.31-.36-8.63-.68-13-.86-2.61-.1-4-.89-3.72-3.86.31-4.15.24-8.33.3-12.49.2-12.62.15-12.76 11.9-16.39 3.48-1.08 4.44-2.49 2.67-5.64l-9.79 2.76c-7.87 1.43-9.4 6.65-9 13.76.35 5.43-.58 10.94-.64 16.41 0 3.59-1.18 5-5 4.65-7.11-.57-14.26-.62-21.39-.88-.12-.6-.25-1.19-.37-1.78.19-6.59.45-13.17.57-19.76.12-6.8-.95-7.68-7.69-7.28-6.25.38-12.39 2-18.71 1.56l-4.73.35c-1.33 1-2.8.77-4.28.52l-1.73.11-3.08.59c-.71 3.49 1.31 3.91 4 3.69 9.28-.71 18.58-1.2 27.83-2.17 2.95-.31 3.91.3 4 3.17.15 5.1.54 10.19.83 15.28 0 1.15.05 2.31.07 3.46a2.12 2.12 0 0 0-.5 2.42l-.19.3-1.12.64c-11.27 2.06-22.17 5.54-33.14 8.73-1.82.53-2 2-2 3.59-.08 7-.23 14-.18 21 0 1.63-.88 4.44 1.62 4.5 2.5.06 1.85-2.71 1.87-4.42.09-5.82.09-11.65 0-17.47 0-2.26.6-3.63 3.07-4.31 7.84-2.18 15.62-4.59 23.39-7 2.33-.72 3.49-.2 3.55 2.37.28 13.29.4 26.57-1.44 39.79a37.22 37.22 0 0 0-10.61 4.25c.53 0 1.07.08 1.6.09-.53 0-1.07 0-1.6-.09l-1.11.29c-1.93-1.5-1.31-3.64-1.28-5.56.08-7.33.33-14.66.34-22 0-1.55 1.11-4.24-1.75-4.34-2.86-.1-1.91 2.51-2 4.15-.373 8.94-.707 17.88-1 26.82a3.62 3.62 0 0 1-2.58 3.73c-3.36 1.34-6.57 3.07-9.84 4.63-5.17 2.18-11 2.93-15.21 7.2l-2.67.06-.93-1c-.11-13.4-.4-26.8-.27-40.2.09-9.24-1.1-18.51.37-27.73l-6.06-.07 2-4-2 4 6.06.07c.317-.012.63-.07.93-.17 7.91-.71 15.41-3.56 23.34-4.31 3.59-.34 7.09-1.66 10.62-2.58 1.15-.3 2.36-.76 2-2.3a2.09 2.09 0 0 0-2.71-1.53c-1 .19-1.91.59-2.88.78-9.24 1.89-18.49 3.73-27.74 5.62-3 .62-4.57.08-4.44-3.63.23-6.29-.07-12.6-.21-18.91 0-2.08.15-4 2.24-5.07h.3l.26-.16c6.19-1.48 12.74.07 18.84-2.16 15.02-2.267 30.043-4.537 45.07-6.81 2.75-.41 4.07.8 3.77 3.61-.16 1.48-.37 3-.55 4.42 0 1.07.06 2.14.1 3.21 0 3 0 6 .08 8.94 0 1.42-.25 3.45 1.75 3.53 2.21.09 2.3-1.85 2.31-3.6 0-5.63 0-11.26.12-16.88 0-1.88-.28-4.29 2.88-4.1 4.41-2 8.54-5 13.82-3.81 6.71-4.39 14.92-4.67 22-8.12 4.1-.22 5 3.35 5.72 5.87 3 10 4.9 20.29 4.44 30.85a6.81 6.81 0 0 1-1.52 4.09c-5.79.19-11.59.29-17.37.6-1.46.08-3.92-.57-3.93 1.85 0 2.88 2.64 1.85 4.21 1.94 6.07.38 12.19-.67 18.23.63.15 1.42 1.59 2.53 1 4.13 1.17 7.63-.3 15.2-.5 22.8-.1 4.2-2.13 5.6-6 5.25-6.78-.61-13.55-1.24-20.32-1.84-9.13-.8-9.13-.79-9.6-9.64-.08-1.49-.14-3-.21-4.46l-3.27-.83-1.14 13.38.37.42-.37-.42c-4.49.68-8.86-.61-13.29-.91-2.5-.17-3.55.55-4.65 3.07-1.5 3.42 0 6.94-1.4 10.17l-.36 5c2.38 2.84 3.83 2.07 4.47-1.22.29-1.45.3-3 .46-4.44 1-9.22-.78-8.63 9.12-7.57l2.5-.47 38.48 4.09 2.06.58c1.78 2.79 1 5.95 1.25 8.95.31-.53.59-1 .82-1.52-.17.51-.46 1.01-.77 1.51zm-58.33-33.92c.366.028.702.214.92.51a1.26 1.26 0 0 0-.92-.48v-.03zm59.45 31.7c1.18-3 .43-5-2.37-6.73 2.85 1.78 3.55 3.78 2.37 6.76v-.03z" stroke="#57C003" stroke-width="2"/>
    <path d="M602.61 287.16c-6.43-1.28-15.7.2-19 7.61 14 .62 20.06 5.57 19.07 15.52-.76 7.69-8.57 12.45-18.82 11.06 4.55 6.79 14.14 9.89 21.89 7.43a21.51 21.51 0 0 0 15.43-21.42c-.3-10.36-6.79-17.85-18.57-20.2z" stroke="#57C003" stroke-width="2"/>
    <path d="M600.18 308.73c-.016-5.956-4.834-10.783-10.79-10.81-6.18-.13-10.69 4.67-10.58 11.28.1 6 4.47 9.83 11.35 9.83 4.84-.03 10-5.31 10.02-10.3zM590.52 331.4c-.11 0-.22.18-.33.28.1.1.2.29.31.29.11 0 .21-.17.32-.27-.1-.11-.2-.29-.3-.3zM522.25 292.14c-6.27-8.05-19.7-9.91-27.5-4.12-1.29 1-3.47 1.78-3.07 3.56.47 2.09 2.79 1.13 4.29 1.22 5.6.34 9.58 3.2 11.44 8.24 1.86 5.04 1.19 10.1-2.82 14.33s-8.92 4.6-14.41 3.8c4 6.57 14.23 10.24 21.65 7.75 15.47-5.18 20.5-21.85 10.42-34.78z" stroke="#57C003" stroke-width="2"/>
    <path d="M505.73 306.26c.09-5.26-5.84-10.74-11.58-10.69-5.38.05-9.15 4.3-9.11 10.28 0 6.14 3.93 10.57 9.34 10.64 5.91.08 11.27-4.75 11.35-10.23zM569.37 415.6c-2.24-2-4.5-4.45-7.55-4.58-8.29-.37-16.61-.27-22.49 7.58a43.58 43.58 0 0 1 5 2.88c8.63 6.56 16.45 4 24-1.94 1.42-1.08 2.96-2.26 1.04-3.94zM564.93 408c-5-5.82-15.66-5.19-19.06 1.52 6.37-2.61 12.75-1.52 19.06-1.52zM216.8 310.38c-2.43-.27-2.91 1.59-3.84 3.14-5.73 9.57-17.24 10.05-23.64 1a14.35 14.35 0 0 0-1.32-2.1c-2.33-2.34-5-.85-6.83.3-2.49 1.58.18 3 1.18 4.24 5 6.07 11.42 9.44 19.42 9.49 8 .05 14.4-3.42 18.76-10.18.89-1.37 2.75-3.09 1.43-4.87-1.15-1.53-3.38-.82-5.16-1.02z" stroke="#57C003" stroke-width="2"/>
    <path d="M206 316.75c1.81-1.3 4.53-2.68 3.71-5.32-.73-2.35-3.47-1-5.33-1.29a25.24 25.24 0 0 0-3.48 0v-.17c-2.48.15-5 .25-7.45.46-2.14.19-2.4 1.25-1.38 3 2.51 4.41 9.78 6.27 13.93 3.32zM140.54 416.5c4.37-.84 8.24-1.74 12.2-1.46 3.96.28 7.77.63 12.11 1-6.37-5.72-17.85-5.5-24.31.46zM125.82 315.24c-2.29-.91-4.32-1.14-6 1.41-7.43 10.9-18.78 10.33-24.54-1.19-2.11-4.21-5.51-2.4-8.15-1.47-3.5 1.24-1.4 3.93-.3 5.7 4.77 7.65 11.32 12.45 21.08 11.92 8.6.45 14.4-4.2 18.41-11.55.77-1.51 2.68-3.57-.5-4.82z" stroke="#57C003" stroke-width="2"/>
    <path d="M116.07 317.87c2-2.72 1.83-4.49-2.07-4.69-2.47-.13-4.94-.43-7.41-.66v.17c-1.65 0-3.31-.08-5 0-1.26.09-3.06-.33-3.59 1-.53 1.33.37 2.83 1.29 4.08a10.64 10.64 0 0 0 16.78.1z" stroke="#57C003" stroke-width="2"/>
    <path d="M4.15 188.59a14.66 14.66 0 0 1 2.08 8.32l-.08.08c3.3 13.94 8.21 27.38 13 40.84.32.74.63 1.48.95 2.21 4.55 7 6.37 15.29 10.53 22.48.94 1.64.16 2.94-1.45 3.6-5.54 2.3-5.9 7-5.84 12a44.67 44.67 0 0 0 5.53 20.46 81.91 81.91 0 0 1 6.83 16.52c.15.58.29 1.17.43 1.75 4.38 6.73 4.32 14.81 6.58 22.18 1.16 3.77 2 7.66 3.5 11.33 2.62 6.37 6.38 8.54 12.84 6.54 4.37-1.36 4.88 2 6.49 4.22L78 375c6.94 6.73 11.31 15 14.13 24.11.06.41.13.82.2 1.24 4.42 4.39 5.18 10.58 7.21 16 2.63 7 5.25 14.21 6.32 21.75l.16 1c3.54 8.42 3.84 17.44 4.82 26.32.48 4.29.4 8.64.6 13 .11 2.28-.14 4.36-2.66 5.32l-.09.2c-1.28 3.05-2.59 6.09-3.85 9.15a29.09 29.09 0 0 1-15.56 16c-11.26 5.05-22.79 9.42-34.9 11.87a40.07 40.07 0 0 0-21.61 12h7.56c5.34-3.86 11.79-6 18.35-8 11-3.36 22.37-5.42 32.77-10.38 7.09-3.39 6.61-3.27 8.43 3.71a28.75 28.75 0 0 0 8.67 14.64h9.57a15 15 0 0 1-1.89-1.59c1.49.59 3 1.11 4.47 1.59h50.7a159 159 0 0 0 9.43-19.36c3.59-9.28 6.81-18.17 6.9-28.14 0-3.65 2.48-2.55 4-1.18a17.27 17.27 0 0 1 5.8 15.75c-1.17 8.53-2.06 17.09-4.21 25.55-.62 2.42-1.32 4.87-1.93 7.34h5.52l1.84-8.48c1.91.4 1.8 1.73 2.16 2.76.36 1.03.61 2.5 2.22 2.06 1.27-.34.91-1.61.88-2.55-.08-2.66-.15-5.33-.38-8-.48-5.47-1.2-10.93-1.51-16.4-.09-1.68-.62-4.79 2.54-4.24 3.32.58 6.41 1.87 8.42 5.27 3.86 6.53 4.61 13.69 5.1 20.93.19 2.88.3 5.75.38 8.63h5a209.35 209.35 0 0 0-1.93-23.58c-.59-3.93 1.2-4.48 4.26-3.33 4.2 1.56 6.45 5.08 8.15 8.93a152.93 152.93 0 0 1 6.69 18h6a66.06 66.06 0 0 1-2.88-8.91c-.41-2.19-3.41-4.91-.49-6.55 2.57-1.45 4.86 1.26 6.77 3.1a22.72 22.72 0 0 1 2.56 3 56 56 0 0 1 5.28 9.31h7.12a127.72 127.72 0 0 1-8.09-12.07c-3.14-4.9-7.43-8.71-13.58-9.15a8.24 8.24 0 0 1-6.22-3.19c-4.66-5.26-9.58-10.56-17.92-7.65-1.85.64-3.06-1-4.23-2.14-2.78-2.73-5.84-5.09-9.79-5.54-3-.33-4.31-2.07-5.16-4.61-1.65-4.91-4.45-8.93-9.25-11.23-1.86-.89-2.83-2.13-2.7-4.27.17-2.66-.08-5.36.27-8 3.12-22.92 6.59-45.76 17.65-66.59 5.12-9.63 8-20.48 15.86-28.58 4.26-4.38 9.47-7.87 12.43-13.48 1.19-2.28 2.58-.81 4.1-.05 4.22 2.12 7.69.95 10.15-3.07 1.78-2.92 2.36-6.15 2.85-9.47 1.53-10.36 3.31-20.63 6.63-30.65 2.89-8.7 6.85-16.93 10.14-25.45 2.38-6.19 4.07-12.27 1.41-18.85-1-2.47-2.38-4-5.05-4-5.53 0-5.82-.28-3.77-5.64 2.66-7 6-13.71 8.22-20.8a359.68 359.68 0 0 0 13.46-61.84c-1.68.41-3-.71-4.58-1a246.05 246.05 0 0 1-10.6 53.35c-1 3.1-1 6.61-3.23 9.29a1 1 0 0 1-.25.87c-2.65 7.12-4.05 15.11-8.25 21.15-6.25 9-6 19.57-9.75 29-5.69 14.25-6.56 29.46-8.66 44.4-.76 5.39-1.84 10.59-4.29 15.47l-.77 1.26c-.1 4.08-2.43 6.77-5.56 9l-1.74 1.69c-.93 2.15-2.79 3.19-4.8 4.07a3.66 3.66 0 0 1-2.75 2.11l-5.27 3.93-.27.19-.32-.06c-2.37 3.09-5.8 4.57-9.21 6.08-3.3 2.89-8.41 3.65-10.66 9.52 7.37-2.63 12.08-8.16 19.87-11-5 12-9.55 22.93-15.21 33.39v.1c-4.64 14.69-11 28.58-22.82 38.83-16.27 14.09-40.57 10.39-54-6.58-10.72-13.6-17.13-29.11-23.34-44.92-2.27-5.78-5.12-11.33-7.94-17.49 6.95 1.37 11.61 6.47 18.78 8.21-5.22-5.91-11.71-8.36-17.31-11.94-7.05-4.5-13.79-9.24-19.47-15.38-6.89-7.43-7.09-17.18-9-26.36a322 322 0 0 0-10.05-37.3C48 286.94 49 275.93 53 266c.72-1.77.89-4 2.83-5.12a22.7 22.7 0 0 1 4.17-7.74c11.21-18 35.14-24.11 55-14 7.8 3 13.24 8.73 17.54 15.7.18.35.35.71.52 1.07l1.1 1.06c1.71 0 1.61-1.23 1.66-2.38-3.27-3.93-5.93-8.44-10-11.61-11.29-8.82-24-12.85-38.38-10.52-1.46.24-3 .31-4.42.45l-1.64.29c-8.64 4-15.75 10.11-22.83 16.29l-.06.08c-2.51 6.47-7.19 11.86-8.73 18.89a86.66 86.66 0 0 0-2.18 16.82c-5-9.35-9.7-17.2-13.5-25.46-5.41-11.75-10.63-23.62-15-35.84a207.54 207.54 0 0 1-11.61-85.85c1.72-23.1 6.14-45.56 18.34-65.66C36 55.76 48.17 40.44 65 30c19.55-12.16 41.17-18.9 64.17-21.14 23.23-2.26 46.05-.31 67.61 8.7 19.21 8 35.93 20.14 48.74 36.84 13 17 22.66 35.78 27.64 56.72.78 3.28 3 6.68.72 10.26l6.29 1.86c-.65-9.54-4.3-18.31-7.09-27.29-.49-1.57-1.33-3-1.16-4.76-4.3-6.69-6.1-14.5-9.68-21.56-4-7.8-10.48-13.43-15.43-20.34-1.78-2.49-4-4.7-5.43-7.43v-.09a29.69 29.69 0 0 1-6.87-5.87l-.11-.12c-8.57-6.25-17.06-12.6-26.52-17.56-6.48-3.4-13.46-5.59-20-8.81l-.16.1C178 7.74 168.6 5.16 158.84 4c-11-1.34-21.9.53-32.84.11l-1.91.19-24 5.11-.23.17-.18-.23c-5.36 3.43-11.61 4.78-17.44 7a110.05 110.05 0 0 0-26.88 15.43 20.71 20.71 0 0 1-3 1.61h-.07a191.17 191.17 0 0 0-24.46 27.3c-2.93 4-4 9-7.65 12.5v.06c-8.16 15.12-12.21 31.6-16 48.17l-.33 3.65a74.53 74.53 0 0 1-1.06 17.35c-2.26 14.33 1.14 28.43 1.16 42.65l.2 3.52zm234.18 159.47c2.75-6.41 2.11-13.43 3.79-20 .92-3.62 1.94-6.22 6.19-3 .92-2.56 0-5-1.61-5.46-4.17-1.17-3.31-3.87-2.84-6.64 1.25-7.38 2.79-14.68 6.15-21.46.64-1.3.84-2.94 3.15-3.4a5.76 5.76 0 0 1-1 5.38c-3.26 3.52-1.59 8-2.69 11.85a1.22 1.22 0 0 0 .76 1.62c1.12.32 1.39-.6 1.63-1.37 1.38-4.45 2.51-9 4.17-13.34 1.66-4.34 1.83-9.61 6.69-12.29a1.65 1.65 0 0 0 .65-2.54c-.78-1-1.82-.44-2.71 0-2.31 1.15-3.9 3.61-6.74 3.89-1-5.1 2.1-8.11 5.36-10.94 2.8-2.43 5.9-1.4 6.75 2.19a18.45 18.45 0 0 1-1 10.75c-4.25 11.7-9.29 23.12-12.74 35.12a133.46 133.46 0 0 0-4.29 23.42 18.94 18.94 0 0 1-3 8.85c-1.06 1.56-2.75 2.57-4.73 1.57a3.28 3.28 0 0 1-1.94-4.2zM122 451a18.19 18.19 0 0 1 5.38 3.86.53.53 0 0 1 .59.28l1.23.81a1 1 0 0 1 .85.45l.95.57c9.83 4.22 19.85 5.7 30.45 2.94 10.06-2.61 16.94-9.2 23-17 .67-.87.89-2.19 2.77-2.18.55 3.59-.38 7-1.26 10.43a1 1 0 0 1-.19.9c-2.51 16-2.15 32.43-5.36 48.4-.34 1.67-.25 3.82-2.6 4.4l-.12.1c-4 6.09-9.72 9.16-16.81 10l-2 .2a34 34 0 0 1-15.08 0c-9-.42-17-3-23.24-9.82h-.08c-5.44-4.73-4.72-11-4.37-17.23V485a19.22 19.22 0 0 1-.21-6.93c-.38-1.65-.34-3.37.12-5L112 441.24c5 1.5 6.48 6.76 10 9.76zm-8.86 48.75c2.26 7.35 7.66 11.65 14.24 14.27 14.67 5.86 29.56 7.92 44.46.45 1.1-.55 2.25-2.09 3.49-.85 1.24 1.24-.43 2.38-.8 3.56-4.64 14.59-17.05 14.38-29.71 15.29-11.54-1.54-24.29-1.38-33.69-11.78-7.25-8-6.19-15.19-1.84-22.72 2.36-3.97 3.63 1.03 3.88 1.81l-.03-.03zM36.38 274c1.61 3.1 3.45 6.08 5.2 9.1.52.9 1 1.95.36 2.81-.79 1.12-1.8.11-2.64-.19-2.26-.8-4.48-1.72-6.72-2.6 6 7.51 7.75 16.35 10.71 24.64.39 1.09.72 2.21 1.13 3.31.3.82.84 1.57 1.82 1.27.98-.3.94-1.33.69-2.08-1-3-2.11-5.93-3.06-8.93a22.42 22.42 0 0 1-1-4.85c-.1-1.17-.7-2.89 1.31-3.19 1.79-.27 2.38 1.5 2.55 2.51 1.23 7.05 4.36 13.41 6.78 20 1.16 3.18 2.53 6.95-3.14 7.63-1.9.22-2 2-2.38 3.41-.22.78-.63 1.68.23 2.29 1.06.74 1.87.11 2.5-.76 2.14-3 4.34-2 5.13.67 2 6.66 3.93 13.4 3.05 20.54-.24 1.94-.44 3.67-2.81 4a4.26 4.26 0 0 1-4.66-2.16c-1.37-2.43-3.06-4.69-3.53-7.61-1.26-7.88-3.31-15.63-5.31-23.29-2.11-8.09-5.81-15.85-9.73-23.36-3.35-6.42-5.51-13.18-5.38-20.54 0-2.84.49-5.45 3.73-6.24 2.9-.68 4.03 1.41 5.17 3.62zM520 481.69c-1.53-.55-2.35.95-3.27 1.8-6.56 6-5.64 13.91-4.92 21.47.91 9.48 3.47 18.67 5.73 27.9H538c-8-13-14.74-26.53-16.49-42.24-.2-1.81-.16-3.65-.21-5.48-.05-1.31.23-2.89-1.3-3.45zM506.41 502.94c.14-1.81.8-3.95-.85-5.15-1.65-1.2-3.91-.36-5.61.71a15.86 15.86 0 0 0-7.76 11c-1.38 7.73-1.33 15.56-1.65 23.35h21.74c-1.33-4.85-2.9-9.69-3.59-14.83-.24 2.59-.42 5.19-.74 7.77-.13 1.12-.31 2.58-1.85 2.5-2-.09-1.62-1.6-1.5-3 .63-7.43 1.21-14.89 1.81-22.35zM612.89 510.56c-2-1-2.45.37-2.94 2-1.23 4.1-2.13 8.22-4.13 12.17a22.58 22.58 0 0 1-6.91 8.12h72.85c-5.86-5.29-13.29-8-21.24-9.84-3.25-.74-6.1-2.77-9.54-2.74L639 520c-8.67-3.17-17.79-5.19-26.11-9.44z" stroke="#57C003" stroke-width="2"/>
    <path d="M203.13 529.2c-1.61.44-1.85-1-2.22-2.06-.37-1.06-.25-2.36-2.16-2.76l-1.84 8.48h21.65c-.08-2.88-.19-5.75-.38-8.63-.49-7.24-1.24-14.4-5.1-20.93-2-3.4-5.1-4.69-8.42-5.27-3.16-.55-2.63 2.56-2.54 4.24.31 5.47 1 10.93 1.51 16.4.23 2.65.3 5.32.38 8-.01.92.39 2.19-.88 2.53zM234 514.88c-1.7-3.85-3.95-7.37-8.15-8.93-3.06-1.15-4.85-.6-4.26 3.33a209.35 209.35 0 0 1 1.93 23.58h17.17a152.93 152.93 0 0 0-6.69-17.98zM252.73 523.55a22.72 22.72 0 0 0-2.56-3c-1.91-1.84-4.2-4.55-6.77-3.1-2.92 1.64.08 4.36.49 6.55a66.06 66.06 0 0 0 2.88 8.91H258a56 56 0 0 0-5.27-9.36zM486.19 505.35a6.6 6.6 0 0 0-7.24 2c-3.59 3.94-5.31 8.74-7 13.61-1.34 3.95-2.72 7.9-3.91 11.89h17.27c.15-7.46.62-14.9 1.48-22.33.21-1.63 2.21-4.25-.6-5.17zM99.91 518.22c-1.82-7-1.34-7.1-8.43-3.71-10.4 5-21.81 7-32.77 10.38-6.56 2-13 4.11-18.35 8h68.22a28.75 28.75 0 0 1-8.67-14.67zM191.76 484.18c-1.55-1.37-4-2.47-4 1.18-.09 10-3.31 18.86-6.9 28.14a159 159 0 0 1-9.43 19.36h20c.61-2.47 1.31-4.92 1.93-7.34 2.15-8.46 3-17 4.21-25.55a17.27 17.27 0 0 0-5.81-15.79zM465.83 516.66c-1.51-1-3.24-.09-4.64.85-3.7 2.5-6.08 6.13-8 10-.87 1.76-1.71 3.54-2.53 5.32h11.17c1.26-4 2.79-8 3.9-12.08.35-1.27 1.71-2.99.1-4.09z" stroke="#57C003" stroke-width="2"/>
    <path d="M424.05 182.71c1.17-1.58 2.71-1.26 4.27-.82-4.5-26.69-2.08-52.84 5.4-78.77a176 176 0 0 1 23.61-49.75 7 7 0 0 1 1.51-1.28c2-.88.74-4.69 4-4.42 3.28-4.48 7.49-8 11.77-11.47l1.82-.28c-.46-.72-.82-1.26.15-2 28.7-22.86 62-30.24 97.56-26.68 29.15 2.92 56.89 11.29 79.1 31.85 19.88 18.41 35.16 40.08 40.87 67 6 28.41 7.66 57.24 1.58 85.81a269.83 269.83 0 0 1-21.06 61.91c-3.39 7-6.7 14-9.83 21.13a4.58 4.58 0 0 1-2.43 2.65c-.9-26.17-10.58-46.66-37.54-54-18.63-5.07-36-1.22-50.29 12.48 7.48-3.31 14.21-8.5 22.51-10.24l1.91-.4c14.46-2.73 28.18-1.46 40.47 7.5a4.09 4.09 0 0 1 2.57 2.17 7.71 7.71 0 0 1 4.16 3.86c1.84 1.84 3.76 3.61 4.65 6.16.16.43.33.86.49 1.28 3.29 2 4.1 5.66 5.1 8.86 2.33 7.42 4.57 15 2.82 22.92l-.41 2.91c-1.8 10.78-5.07 21.15-8.62 31.44-2 11.42-3.5 23-6.27 34.2-2.55 10.4-10.91 16.78-19.23 22.57-6.93 4.82-14.33 9-21.52 13.38-1 .65-3.06 1-2.11 2.69 1.12 2 2.66.28 3.82-.35 3.49-1.91 6.89-4 10.34-6 .85-.49 1.84-1.25 2.75-.6 1.23.87.52 2.18 0 3.16-1.87 3.87-3.85 7.68-5.8 11.51-6.28 19.37-14 37.95-29.31 52.24-.85.79-1.55 1.76-2.84 1.88l-.33.14a4.29 4.29 0 0 1-3.31 2.18c-6.92 5.55-15 6.78-23.3 5.13-9.08-1.82-17.76-5-23.19-13.46-4.72-4.48-9-9.32-11.44-15.46-3.55-8.83-7-17.7-10.54-26.55-4.68-6.15-6.25-13.87-10.28-20.34a1.73 1.73 0 0 1 .47-2.25c.89-.82 1.9-.35 2.75.19 3.09 1.95 6.14 4 9.23 5.91 1.64 1 3.21 2.29 5.55 1.91-6.82-7-16.53-10.15-23.29-17.18l-.37-.13a14.45 14.45 0 0 1-5.94-4.17l-3-2.18c-6.94-5.72-9.93-13.63-11.49-22-1.94-10.46-3.24-21-4.82-31.56h.14l-.42-1.17-.34-3.08c-5-13.51-11.65-26.87-9.94-41.66 1.57-13.57 6.32-26.33 19-33.84 10.86-6.41 22.67-8 35-4.92l3.85.5c7 1.49 13.44 4 18.23 9.67 3.78 1.54 6 4.89 8.85 7.55 1.3 1.21 2 3 3.94 3.6.28-.62.57-1.23.85-1.84-14-17.66-32-25.92-54.6-22.78-20.2 2.8-33.35 16-36.53 36.33a30.62 30.62 0 0 1-1.7 7.23c-6.46-14-12.77-27.94-16.6-42.82-1.56-.15-3.22.12-4.53-1.11-.07 4.32 3.06 7.82 3.22 12.11 1.46 2.55 1 5.77 2.78 8.2 3 7 6 13.92 8.93 20.92.54 1.29.43 2.35-1.33 3.09-8.58 3.59-10.73 8.62-8.3 17.85 2.72 10.32 7.81 19.72 11.34 29.71a150.92 150.92 0 0 1 7.44 30.26 63.45 63.45 0 0 0 2.24 9.68c1.6 5.37 5.67 7.18 10.7 4.62 2.5-1.27 3.9-1 5.11 1.58a26.7 26.7 0 0 0 2.86 4h.06a61.25 61.25 0 0 1 10.28 9.93 1 1 0 0 1 .72.58c.79 1.19 1.58 2.38 2.38 3.56a96.34 96.34 0 0 1 9.73 18.81c1.75 3.15 3.75 6.18 4.31 9.84l-.07.08a65.12 65.12 0 0 1 7.83 19.09v.04c4.74 15.31 7.15 31 8.5 47 .26 3.09-.36 5.25-3.53 6.73-4.65 2.16-6.87 6.55-8.66 11.12-.56 1.43-18 12.27-19.38 11.83-6.85-2.12-12.12 1.25-15.75 6-3.34 4.34-7.38 5.08-12 5.7l-.08.09c-5.51 2.85-9.2 7.37-12.33 12.64-1.72 2.9-3.05 6.1-5.09 8.79h6.8c.82-1.78 1.66-3.56 2.53-5.32 1.92-3.9 4.3-7.53 8-10 1.4-.94 3.13-1.88 4.64-.85 1.51 1.03.25 2.82-.1 4.12-1.11 4.08-2.64 8.05-3.9 12.08h6.24c1.19-4 2.57-7.94 3.91-11.89 1.66-4.87 3.38-9.67 7-13.61a6.6 6.6 0 0 1 7.24-2c2.84.92.82 3.54.63 5.18-.86 7.43-1.33 14.87-1.48 22.33h5.2c.32-7.79.27-15.62 1.65-23.35a15.86 15.86 0 0 1 7.76-11c1.7-1.07 3.81-2 5.61-.71 1.8 1.29 1 3.34.85 5.15-.6 7.46-1.18 14.92-1.81 22.38-.12 1.38-.46 2.89 1.5 3 1.54.08 1.72-1.38 1.85-2.5.32-2.58.5-5.18.74-7.77.69 5.14 2.26 10 3.59 14.83h5.24c-2.26-9.23-4.82-18.42-5.73-27.9-.72-7.56-1.64-15.47 4.92-21.47.92-.85 1.74-2.35 3.27-1.8s1.27 2.14 1.31 3.45c.05 1.83 0 3.67.21 5.48 1.75 15.71 8.47 29.26 16.49 42.24h43.78a58.42 58.42 0 0 0 13.88-5.5c-.85 2-3.14 3.91-6.3 5.5h9.56a22.58 22.58 0 0 0 6.91-8.12c2-4 2.91-8.07 4.13-12.17.49-1.64.9-3.05 2.94-2 8.32 4.25 17.44 6.27 26.15 9.44l1.94.28c3.44 0 6.29 2 9.54 2.74 8 1.81 15.38 4.55 21.24 9.84h6.67a38 38 0 0 0-14-10.88c-7.24-3.12-15.4-3-22.38-6.84h-.11c-17.61-4.34-33.07-10.61-41.56-29.2-4.73-10.35-2.5-19.76-1.89-29.48.89-14.05 4.86-27.62 9.64-40.88a25.87 25.87 0 0 1 1.87-3.47l.37-1.08.51-1.33a.47.47 0 0 1 .3-.56 108.28 108.28 0 0 1 10.75-25.21c1.92-4.15 4.81-7.6 7.83-11l14.83-16.21c2-5.47 4.9-.77 7.4-.64h2l2-.7 3.74-2.39c4.78-8.31 6.38-17.53 7.8-26.83.82-5.39 3.12-10.31 5.35-15.23a1.82 1.82 0 0 1 .85-1.92c.7-5.74 3.64-10.65 6.1-15.68A49.87 49.87 0 0 0 685 276.2c.53-5.23-1-9.58-6-12-3-1.47-3.1-3.37-1.7-6a239.41 239.41 0 0 0 14-33c8.85-25.1 13.33-50.9 12.23-77.57-.17-4.15-.18-8.31-.27-12.47l-.27-3c-.74-4.56-1.56-9.1-2.21-13.67-2.45-17.1-7.64-33.3-16.55-48.12-9.36-15.59-20.54-29.69-35.51-40.4a18.09 18.09 0 0 1-2.12-2.08l-.09-.07c-1.39-.22-2.51-.76-2.8-2.31h-.11c-1.62 0-2.72-1.12-4-1.88a155.19 155.19 0 0 0-66.48-21.21A146.81 146.81 0 0 0 514 8.9a2.5 2.5 0 0 1-2.35.32L510 10l-1.35.33a2.63 2.63 0 0 1-2.56 1c-4.22 3-9.23 4.18-14 5.84a5.58 5.58 0 0 1-1.22 1.51C479 26 468.73 35.38 458.12 44.31l-1 1c-2.63 3.53-5.4 7-7.84 10.64-1.81 2.72-3.06 2.26-3.78-.43-.72-2.69-2.36-4.43-5.23-6.31.67 3.12 1.18 5.48 1.69 7.84a.3.3 0 0 1 .32.39c2.68 1.65 3.27 3.76 2 6.73-1.92 4.36-3.28 9-6.21 12.84-2.31 7.8-6.42 14.94-8.21 23-1.29 5.72-1.44 5.68-5.88 2.2-.14-.1-.56.16-.85.25a3.42 3.42 0 0 0-.13 1 4 4 0 0 0 .47 1.41c3.26 5 3.13 10.14 1.39 15.68a82.2 82.2 0 0 0-3.67 17.88 179.15 179.15 0 0 0-.15 22.72l3.01 21.56zm42.54 168.77c-2.35.77-3.79-.7-4.61-2.74-2.14-5.31-2.49-11-3.55-16.56a188.87 188.87 0 0 0-6.1-22.56c-3.23-10-8.15-19.38-10.72-29.62-1.5-6-.75-11.21 2.48-11.41 4.79-.3 7 3.6 8.76 7.39.66 1.45 1.8 2.87 1.21 5.35-2.92-.53-4.82-2.41-7-3.84-.58-.39-1.16-.69-1.78-.2-.62.49-.43 1.25 0 1.76 5.82 7 4.78 16.5 8.67 24.21.7 1.39.68 4 2.62 3.48 2.56-.66 1.1-3 .62-4.59a76.21 76.21 0 0 1-3.36-15 5.34 5.34 0 0 1 3.52 3.66c2.55 7.71 5.46 15.34 6.14 23.55.17 2.07.52 3.74-2.34 4.43a3.54 3.54 0 0 0-2.29 4c.57 2.47 2.07.07 3.1.27 2.55.49 3.43 2.61 3.67 4.74a134.36 134.36 0 0 0 3.65 19.08c.64 2.37-.65 3.94-2.69 4.6zm65.18 153.22c-3.48-2.42-4.19-6.27-4.61-10-2-17.47-2.78-35.06-5.82-52.41a29.8 29.8 0 0 1 0-3.66 126.05 126.05 0 0 0 15.38 15.5l1.4.87c11.65 5.48 23.53 6.67 35.71 1.82l12.17-7.75c2.16-2.49 4.33-5 6.45-7.5.66-.79 1.3-1.57 2.44-1.32 1.67.37 1.24 1.78 1.13 2.82-.5 4.78-.89 9.58-1.72 14.3-1.93 11-1.55 22.11-1.42 33.2.07 5.94-.84 11.53-6.77 14.75-.31.83-1 1-1.75.94-.28 1.74-1.74 2.41-3.05 3-15.06 6.76-30.15 8.74-45.16-.07-1.64-1-3.64-1.8-4-4.1a.39.39 0 0 1-.38-.39zm.64 6.86l.46-.23c0 .23 0 .46.07.7l-.53-.47zm68.09 4.34c-2.69 5.42-8.26 9.2-14.44 11.22a81.21 81.21 0 0 1-30.47 3.82c-12.38-.74-19.53-6.61-22.57-18.82a6.19 6.19 0 0 1 3.75.89c17.33 8 33.92 5.45 50-3.57 6.56-3.68 8.39-10.27 9.92-17.61 5.47 7.9 7.78 16.09 3.81 24.07zm79-245.68c1.88 2.83 1.6 5.89 1 9.14-1.92 9.59-7.22 17.82-10.68 26.79a129.69 129.69 0 0 0-7.43 28.36 35.52 35.52 0 0 1-4.39 13.13c-1.28 2.16-2.89 4.57-5.79 3.68-3.17-1-4.06-3.88-3.56-6.9.94-5.67 2-11.34 3.32-16.93.92-3.91 2.59-3.9 7.95.42.27-4-.88-6.27-4.27-6.8-2.17-.33-2.93-1.33-2.36-3.38 2.05-7.46 3.9-15 6.29-22.32a8.19 8.19 0 0 1 6.44-5.88c-1.6 5.06-3.07 9.7-4.56 14.33a25.38 25.38 0 0 0-1.16 3.26c-.2 1.18-1 2.92.94 3.3 1.43.29 1.76-1.23 2.09-2.33a137.65 137.65 0 0 1 7.23-19.61c1-2.2 1.82-4.17 4.16-5.16.77-.33 1.6-1 1.18-1.9-.6-1.34-1.76-.61-2.55-.26-2.4 1.07-4.73 2.29-8.49 4.13 2.51-6.74 5.14-11.93 8.86-16.39 1.96-2.38 4.28-.83 5.75 1.32h.03z" stroke="#57C003" stroke-width="2"/>
  </g>
</svg>
