<svg width="321" height="344" viewBox="0 0 321 344" xmlns="http://www.w3.org/2000/svg">
  <title>
    deep-thought
  </title>
  <g transform="translate(1)" stroke="#57C003" stroke-width="2" fill="none" fill-rule="evenodd">
    <path d="M215 1.7c-55 4.1-159.4 24-199 37.8C2.3 44.3-.2 45.7.4 47.8c.2.9.8 3.7 1.2 6.2 1 6.8 8.7 34.1 15 53.4 11.7 35.6 28.9 79.2 41.3 104.5 3 6.1 5.1 11.8 5.1 13.7 0 9.9 13.1 34.5 18.3 34.4.7 0 .4-.6-.5-1.4-1-.7-1.8-1.9-1.8-2.7 0-.7.8-.2 1.7 1.1 1 1.4 1.7 2.8 1.5 3.3-.1.4.9 1.3 2.3 1.9 1.4.6 2.4 1.6 2.1 2.2-.2.6-4 9.5-8.4 19.8-4.4 10.4-8.6 20.3-9.2 22.2-.6 1.9-1.8 4-2.6 4.7-.8.7-7.2 1.8-14.1 2.5-8 .8-13.2 1.8-14.1 2.7-1.9 2-5.2 15.1-5.2 20.8v4.8l4.8.7c6.5 1 221.6-.4 253.6-1.6 18.9-.7 26.2-1.3 26.8-2.2 1.4-2 .4-17.9-1.2-21.2-1.9-3.7-3.6-4.1-22-5.5-11.8-.9-14.7-1.4-15.8-2.8-2.5-3.2-30-59.7-31.7-65.1-1.9-5.8-2.3-4.9 5.2-14.1 6.4-7.9 7.7-14.6 7.9-42.1 0-12.4.6-27.5 1.2-33.5 2-18.5 3.2-47.6 3.2-77 0-48.6-3.6-70.9-12-75.2-2.4-1.2-25.3-1.6-38-.6zm-20.9 212c1.3 3.4.7 3.8-10.6 5.8-4.9.9-18.2 3.4-29.5 5.5-11.3 2.2-22.4 4.2-24.7 4.6-2.4.4-4 1-3.8 1.4.3.5-.3.6-1.2.4-1-.3-7.4.6-14.3 2-6.8 1.3-12.8 2.2-13.2 2-.4-.3-.8-1.1-.8-1.8 0-1.4 2.6-2.5 7-3.1 7.9-.9 14.9-2.8 14.3-3.9-.4-.6.2-.4 1.2.4 1.2 1 2 1.1 2.2.4.2-.6 1.6-1 3.1-.9 1.5.1 1.9 0 1-.2-1-.2-1.8-.8-1.8-1.3s1.5-.4 3.2.1c4.3 1.2 7.1 1.2 6.3-.1-.3-.5 0-.8.7-.5.7.3 3.6.1 6.3-.5 7.5-1.6 20.5-4 25-4.6 2.2-.2 4.7-.7 5.5-1 .8-.4 3.1-.8 5-1.1 1.9-.2 6.8-1.1 10.9-2 6.7-1.4 7.3-1.7 5.6-2.9-1.7-1.3-1.7-1.4-.2-1.4 1 0 2.2 1.2 2.8 2.7zm33.8 24.5c1.9 4.3 2.4 6.4 1.6 6.6-.7.2-9.2-.6-19-1.7-12.5-1.4-18.3-2.5-19.4-3.6-1-1-1.2-1.8-.5-2.5 1.3-1.3 21.6-4.8 28.7-4.9l5.8-.1 2.8 6.2zm-102.8 39.5c2 5.4 1.3 9.7-2.4 14.9-1.9 2.7-5.1 8.1-7.1 12.1-2.8 5.7-4.1 7.2-6.3 7.7-3.8.8-22.1 1.2-22.8.5-1.5-1.6 33-37.9 36-37.9.9 0 2 1.2 2.6 2.7zm107.3-1.1c.9.8 1.6 2 1.6 2.5s.7.9 1.5.9c.9 0 1.8.7 2.2 1.6.3.9 2.5 3.5 4.7 5.8 2.3 2.3 6.9 8.3 10.3 13.3 6.9 10 6.8 10.3-1.1 10.3-4.1 0-4.4-.2-8.1-6-2.1-3.3-4.2-6-4.6-6-.4 0-3-3.2-5.8-7.2-5-7-6.1-10.9-4.5-15.2.8-2 1.8-2 3.8 0z" fill-rule="nonzero"/>
    <circle cx="218.5" cy="186.5" r="3.5"/>
    <circle cx="218.5" cy="185.5" r="7.5"/>
    <circle cx="87.5" cy="204.5" r="3.5"/>
    <circle cx="87.5" cy="203.5" r="7.5"/>
    <path d="M63.044 225.907c15.359 17.21 26.43 21.862 49.641 23.35M224.64 232.034c19.729-5.58 26.255-4.128 34.737-20.585M112.697 249.076c72.016-7.866 46.006-.748 80.122-11.196M87.975 294.286c13.582-21.409 9.284-10.913 14.832-30.623"/>
  </g>
</svg>
