<?xml version="1.0" encoding="UTF-8"?>
<svg width="321px" height="344px" viewBox="0 0 321 344" version="1.1" xmlns="http://www.w3.org/2000/svg" xmlns:xlink="http://www.w3.org/1999/xlink">
    <!-- Generator: Sketch 51.2 (57519) - http://www.bohemiancoding.com/sketch -->
    <title>deep-thought</title>
    <desc>Created with Sketch.</desc>
    <defs></defs>
    <g id="Page-1" stroke="none" stroke-width="1" fill="none" fill-rule="evenodd">
        <g id="deep-thought" transform="translate(1.000000, 0.000000)" stroke="#57C003" stroke-width="2">
            <g id="Group" transform="translate(159.600000, 172.400000) scale(-1, 1) rotate(-180.000000) translate(-159.600000, -172.400000) translate(0.100000, 0.900000)" fill-rule="nonzero">
                <path d="M214.9,342.2 C159.9,338.1 55.5,318.2 15.9,304.4 C2.2,299.6 -0.3,298.2 0.3,296.1 C0.5,295.2 1.1,292.4 1.5,289.9 C2.5,283.1 10.2,255.8 16.5,236.5 C28.2,200.9 45.4,157.3 57.8,132 C60.8,125.9 62.9,120.2 62.9,118.3 C62.9,108.4 76,83.8 81.2,83.9 C81.9,83.9 81.6,84.5 80.7,85.3 C79.7,86 78.9,87.2 78.9,88 C78.9,88.7 79.7,88.2 80.6,86.9 C81.6,85.5 82.3,84.1 82.1,83.6 C82,83.2 83,82.3 84.4,81.7 C85.8,81.1 86.8,80.1 86.5,79.5 C86.3,78.9 82.5,70 78.1,59.7 C73.7,49.3 69.5,39.4 68.9,37.5 C68.3,35.6 67.1,33.5 66.3,32.8 C65.5,32.1 59.1,31 52.2,30.3 C44.2,29.5 39,28.5 38.1,27.6 C36.2,25.6 32.9,12.5 32.9,6.8 L32.9,2 L37.7,1.3 C44.2,0.3 259.3,1.7 291.3,2.9 C310.2,3.6 317.5,4.2 318.1,5.1 C319.5,7.1 318.5,23 316.9,26.3 C315,30 313.3,30.4 294.9,31.8 C283.1,32.7 280.2,33.2 279.1,34.6 C276.6,37.8 249.1,94.3 247.4,99.7 C245.5,105.5 245.1,104.6 252.6,113.8 C259,121.7 260.3,128.4 260.5,155.9 C260.5,168.3 261.1,183.4 261.7,189.4 C263.7,207.9 264.9,237 264.9,266.4 C264.9,315 261.3,337.3 252.9,341.6 C250.5,342.8 227.6,343.2 214.9,342.2 Z M194,130.2 C195.3,126.8 194.7,126.4 183.4,124.4 C178.5,123.5 165.2,121 153.9,118.9 C142.6,116.7 131.5,114.7 129.2,114.3 C126.8,113.9 125.2,113.3 125.4,112.9 C125.7,112.4 125.1,112.3 124.2,112.5 C123.2,112.8 116.8,111.9 109.9,110.5 C103.1,109.2 97.1,108.3 96.7,108.5 C96.3,108.8 95.9,109.6 95.9,110.3 C95.9,111.7 98.5,112.8 102.9,113.4 C110.8,114.3 117.8,116.2 117.2,117.3 C116.8,117.9 117.4,117.7 118.4,116.9 C119.6,115.9 120.4,115.8 120.6,116.5 C120.8,117.1 122.2,117.5 123.7,117.4 C125.2,117.3 125.6,117.4 124.7,117.6 C123.7,117.8 122.9,118.4 122.9,118.9 C122.9,119.4 124.4,119.3 126.1,118.8 C130.4,117.6 133.2,117.6 132.4,118.9 C132.1,119.4 132.4,119.7 133.1,119.4 C133.8,119.1 136.7,119.3 139.4,119.9 C146.9,121.5 159.9,123.9 164.4,124.5 C166.6,124.7 169.1,125.2 169.9,125.5 C170.7,125.9 173,126.3 174.9,126.6 C176.8,126.8 181.7,127.7 185.8,128.6 C192.5,130 193.1,130.3 191.4,131.5 C189.7,132.8 189.7,132.9 191.2,132.9 C192.2,132.9 193.4,131.7 194,130.2 Z M227.8,105.7 C229.7,101.4 230.2,99.3 229.4,99.1 C228.7,98.9 220.2,99.7 210.4,100.8 C197.9,102.2 192.1,103.3 191,104.4 C190,105.4 189.8,106.2 190.5,106.9 C191.8,108.2 212.1,111.7 219.2,111.8 L225,111.9 L227.8,105.7 Z M125,66.2 C127,60.8 126.3,56.5 122.6,51.3 C120.7,48.6 117.5,43.2 115.5,39.2 C112.7,33.5 111.4,32 109.2,31.5 C105.4,30.7 87.1,30.3 86.4,31 C84.9,32.6 119.4,68.9 122.4,68.9 C123.3,68.9 124.4,67.7 125,66.2 Z M232.3,67.3 C233.2,66.5 233.9,65.3 233.9,64.8 C233.9,64.3 234.6,63.9 235.4,63.9 C236.3,63.9 237.2,63.2 237.6,62.3 C237.9,61.4 240.1,58.8 242.3,56.5 C244.6,54.2 249.2,48.2 252.6,43.2 C259.5,33.2 259.4,32.9 251.5,32.9 C247.4,32.9 247.1,33.1 243.4,38.9 C241.3,42.2 239.2,44.9 238.8,44.9 C238.4,44.9 235.8,48.1 233,52.1 C228,59.1 226.9,63 228.5,67.3 C229.3,69.3 230.3,69.3 232.3,67.3 Z" id="Shape"></path>
            </g>
            <circle id="Oval" cx="218.5" cy="186.5" r="3.5"></circle>
            <circle id="Oval-2" cx="218.5" cy="185.5" r="7.5"></circle>
            <circle id="Oval" cx="87.5" cy="204.5" r="3.5"></circle>
            <circle id="Oval-2" cx="87.5" cy="203.5" r="7.5"></circle>
            <path d="M63.0440555,225.906539 C78.4030177,243.116055 89.4734917,247.769489 112.685044,249.257348" id="Path-2"></path>
            <path d="M224.639918,232.034413 C244.369043,226.454827 250.895146,227.906396 259.377409,211.449162" id="Path-3"></path>
            <path d="M112.696631,249.07581 C184.712967,241.209549 158.702693,248.328094 192.818623,237.880323" id="Path-4"></path>
            <path d="M87.9746312,294.286499 C101.556889,272.877177 97.2585363,283.373374 102.806673,263.662582" id="Path-5"></path>
        </g>
    </g>
</svg>