<svg xmlns="http://www.w3.org/2000/svg" viewBox="0 0 297.49 297.49"><defs><style>.cls-1{fill:#57c003;}</style></defs><title>globe outline_1</title><g id="Layer_2" data-name="Layer 2"><g id="Layer_1-2" data-name="Layer 1"><path class="cls-1" d="M172.82,66.37h.38l1,0,0-1c0-1-.17-1.87-.29-2.75-.21-1.61-.4-3,0-4,2.06-4.66,4.55-9.35,10.22-11.17a13.25,13.25,0,0,0,3.73-2.2c.49-.36,1-.73,1.48-1.05l2.87-1.86-3.42,0c-9.76.06-20.32,9.14-21.32,18.32a5.08,5.08,0,0,0,1.08,4.21A5.57,5.57,0,0,0,172.82,66.37Zm-3.38-5.48c.76-6.92,7.93-14,15.4-16a5.81,5.81,0,0,1-1.34.63c-6.45,2.08-9.28,7.42-11.43,12.27-.65,1.48-.42,3.21-.17,5,.07.49.14,1,.19,1.5a3.18,3.18,0,0,1-2.09-.82A3.28,3.28,0,0,1,169.44,60.89Z"/><path class="cls-1" d="M284,132.58l-13.28,10.68h2.88c5.47,0,8.33-.76,9.85-2.61,1.18-1.43,1.45-3.48.87-6.45Zm-2.09,6.8c-.82,1-2.53,1.57-5.4,1.79l6.08-4.9A4.25,4.25,0,0,1,281.91,139.38Z"/><path class="cls-1" d="M252.06,180.15a3.56,3.56,0,0,0-3.09.47c-2,1.48-4,3-6.13,4.68l-2.42,1.88-.33.26-.05.41a5,5,0,0,0,1.21,4.05,6.28,6.28,0,0,0,4.73,1.92h0c2.09,0,4.54-2,5.78-4a14.76,14.76,0,0,0,1.73-5.61c.07-.42.14-.84.22-1.25A3,3,0,0,0,252.06,180.15Zm-.54,3.77a13.25,13.25,0,0,1-1.44,4.85c-.93,1.44-2.88,3-4.1,3h0a4.34,4.34,0,0,1-3.24-1.25,3,3,0,0,1-.74-2.09l2.07-1.6c2.1-1.64,4.08-3.18,6.07-4.64a1.72,1.72,0,0,1,1.15-.24,1.58,1.58,0,0,1,.45.63C251.66,183.05,251.59,183.48,251.52,183.92Z"/><path class="cls-1" d="M158.09,216.61a6.23,6.23,0,0,0,.94,3.19c.21.41.4.79.54,1.15l.38,1,1-.46a7,7,0,0,1,1-.34c1-.34,2.07-.69,2.4-1.64,1.14-3.28,2.1-6.58,3.2-10.4.38-1.32.78-2.7,1.21-4.16l.59-2-1.92.76C159.87,206.73,158.48,211.69,158.09,216.61Zm7.46-8c-1.09,3.76-2,7-3.14,10.22a6.89,6.89,0,0,1-1.17.47l-.21.07q-.1-.22-.21-.42a4.94,4.94,0,0,1-.73-2.14h0c.34-4.36,1.56-7.82,6.06-10.25C165.94,207.21,165.74,207.9,165.55,208.57Z"/><path class="cls-1" d="M114.21,33.21a11.67,11.67,0,0,1,.62,1.4c.6,1.55,1.44,3.69,4,3.81a3.7,3.7,0,0,0-.66,2.21c.08,1.93,1.88,3.15,3.62,4.34l1.08.73,4.72-10.23L126.7,34l.47-.38-.57.22-.46-.72a9.21,9.21,0,0,0,.93.31l.49.12a12,12,0,0,0,3.12.55,4.6,4.6,0,0,0,2.35-.6c1.37-.8,2.35-2.38,3-4.83l.41-1.55-12.5,2.52h0l-.17,0-4.45-3.43,2.51,3.83-1.36.28.11.05-7,1.61Zm7.87,9.5c-1-.71-1.85-1.44-1.89-2.17s.72-1.75,2.16-2.93l2.79-2.3.2.32Zm11.48-12.94a4.08,4.08,0,0,1-1.54,2c-1.06.61-2.46.24-4-.15l-.5-.13a7.6,7.6,0,0,1-1-.34ZM123,31.92l1.71,2.69-3.34,1.29c-3.37,1.31-3.86.05-4.67-2-.06-.16-.12-.31-.19-.47Z"/><path class="cls-1" d="M224.54,182l-1.95,0,13.23,17.38.44-2.17c.62-3.09-.7-7-3.55-10.36C230.13,183.76,227,181.88,224.54,182Zm2.64,2.77a14.82,14.82,0,0,1,4,3.41,13.9,13.9,0,0,1,3.06,5.86Z"/><path class="cls-1" d="M244.16,52.86l1.37.06c1.26.06,2.57.12,3.82.29a28.84,28.84,0,0,1,3.32.72l.66.16,2.82.64-8.83-10.87-10.9,9.86,2.15,2.68Zm2.93-6.1,3.82,4.69c-.41-.08-.85-.16-1.28-.22-1.35-.19-2.7-.25-4-.31-.56,0-1.11,0-1.66-.08l-.32,0L240.2,53Z"/><path class="cls-1" d="M254.08,43.65A146.53,146.53,0,0,0,149.44,0h0C67.08,0,.06,66.51,0,148.26A147.89,147.89,0,0,0,43.44,253.84c28.2,28.16,66.05,43.65,106.61,43.65h.4A145.94,145.94,0,0,0,254.34,253.7a149.07,149.07,0,0,0-.26-210Zm-1.16,208.64a144,144,0,0,1-102.47,43.2h-.4c-40,0-77.37-15.28-105.2-43.06A145.92,145.92,0,0,1,2,148.26C2.06,67.6,68.18,2,149.4,2h0A144.54,144.54,0,0,1,252.66,45.06a147,147,0,0,1,42.83,104A145.51,145.51,0,0,1,252.92,252.29Z"/><path class="cls-1" d="M288.57,117.57c-.23-.81-1-.78-1.61-.75h-.73c0-1,0-1.91,0-2.85.1-5,.2-10.23-3.08-15.18l-.74-1.11L274.63,107l7.37,2c1.13,3.3.41,7.34-2,11.17-2.61,4.13-5,6.62-7.42,7.61-5.35,2.21-8.08,4.73-6.17,11.08a5.11,5.11,0,0,1-.2,2.32c0,.16-.07.32-.11.48-.37-5.59-4.76-7.58-8.68-9.36l-.69-.31-6.22,4.83,5.23,2.46-2.13,2.53.45.63c2.72,3.85,3.2,9.82-.75,12.75l-.66.49c-3.6,2.68-7,5.2-11.81,4.75-.32,0-1.3-.12-2.88,2.89-1.06,2-.87,2.71-.51,3.14,1.84,2.19,2.61,4,2.33,5.57-.24,1.36-1.29,2.61-3.2,3.82l-6.9-6.08-.75,2a4.32,4.32,0,0,0-.94-3.47c-.85-.9-2.26-1.31-4.26-1.24a2.6,2.6,0,0,1-.1-.25c-.12-.32-.25-.64-.37-.89-.79-1.55-1.59-3.1-2.38-4.62l-1.12-2.17-.74.14c-9.1,1.85-14.72,7.72-17.63,18.44l-.34-.13-5.19-15.25-.25-.19c-.66-.48-1.24-.87-1.76-1.22a10.57,10.57,0,0,1-2.07-1.62c-2.08-2.38-4.28-4.5-8.36-4.06a18.57,18.57,0,0,1-7.38-1.05c-2.67-.84-5.32-2-7.88-3.06l-3.36-1.4-.55-.22-1.9,1.58,6.65,8.61,4.46-2.1,3.71,3.49c-3.49,4.68-8.45,7.92-15.12,9.91a3.88,3.88,0,0,1-3.07-.9,56,56,0,0,1-4.77-8.46c-.88-1.81-1.64-3.68-2.44-5.66l-1.13-2.75-.2-.47-5.89-1.34,5,15.55.38.18c1.61.77,2.92,2.48,4.31,4.28,2.55,3.29,5.64,7.29,11.56,5.76a36.07,36.07,0,0,1-6.39,8.69c-4.38,4.07-9.34,8.69-5.62,16.62a4.6,4.6,0,0,1,.12,3.5,18.25,18.25,0,0,1-2.94,3.59l-.78.81-1.9-1.7-.21,1.94c-.63,6-2.11,13.64-7.88,18.79-2.09,1.86-5.6,2.56-9.12,3a24.94,24.94,0,0,1-2.08-4.11l-.61-1.37c-2.17-4.85-4.41-9.87-6.26-14.92a9.48,9.48,0,0,1-.1-3.86c0-.52.1-1,.13-1.54,0-.83.17-1.68.3-2.58a15.31,15.31,0,0,0,.18-5.27,13.18,13.18,0,0,0-2.68-5c-1.79-2.46-3.34-4.58-1.86-7.79a1.27,1.27,0,0,0-.16-1.23,1.16,1.16,0,0,0-1-.6,8.19,8.19,0,0,1-4-1.54c-2-1.18-4.22-2.5-7.33-1.61l-1.63.48c-5.69,1.7-11.06,3.31-14.95-3.62a11.5,11.5,0,0,0-2.18-2.56c-1.48-1.43-2.65-2.56-2.22-4.88a21.79,21.79,0,0,0,.2-4.57c0-2-.09-4,.63-5.44a63.55,63.55,0,0,1,9.83-14.13c1.24-1.36,3.88-1.89,6.21-2.37l1.48-.31c3-.68,6.14-1.17,9.15-1.65l3-.48c1.78,4.14,8.12,9.49,11.59,9.54h0c.61,0,2.15-.21,2.61-1.21,1-2.14,1.8-1.81,3.72-1a12.76,12.76,0,0,0,1.8.64c5.71,1.46,10.2,1.05,12.65-1.17,1.83-1.66,2.5-4.19,2-7.53l-.1-.63-.62-.18a12.45,12.45,0,0,0-3.91-.24c-3.09.14-5.58.25-6.7-4.26l20.65-1.72L152.52,127l-.69-10.81-5.62,9.53-4.49-3.78-4.87,10.66a4,4,0,0,0-2.84.24c-1.56.84-2,2.78-2.43,4.5,0,.15-.07.31-.11.47l-11-13.6L117,126.86l.53.79c.32.49.65,1,1,1.48.64,1,1.31,2,2,3l-5.42-4.85-.58.23c-7.41,3-7.77,3.45-12.21,9.42l-.78,1A7,7,0,0,1,96.12,140a3.6,3.6,0,0,1-2.64-1.48,3.51,3.51,0,0,1-.1-3,9.15,9.15,0,0,0,.2-3.65c0-.18,0-.36,0-.53a5.53,5.53,0,0,1,3.26.08c1.92.4,4.81,1,5.71-2.88.43-1.85-.71-3.79-1.71-5.5-.19-.33-.38-.64-.54-.94L115,109.9c2.35,1.39,4.78.78,6.94.24a9.47,9.47,0,0,1,3.46-.47c4.09.58,4.77-2.62,5.18-4.54.18-.82.4-1.84.76-2,.1,0,.52-.16,1.66.37l1.5.7-.23-5,6.34-1.36-.62-3.6-10.42,1.2c.32-.71.64-1.39,1-2,1.27-2.76,2.38-5.14,3.31-7.61a6,6,0,0,0,0-3.16,10.09,10.09,0,0,1-.16-1.18l-.13-1.82-1.47,1.09c-.3.22-.62.43-.94.64a10,10,0,0,0-2.27,1.85,18.68,18.68,0,0,0-1.61,2.44,16.69,16.69,0,0,1-1.4,2.13c-1.69,2.08-4.79,5.88-.8,9.82l-4.89,7.75-.17-.42c-.45-1.1-.76-1.88-1.09-2.66s-.69-1.66-1.06-2.53l-.93-2.23-5.13,2.4c-2.89-6-2.7-6.19,1.59-10.68l.36-.39a62.11,62.11,0,0,0,7.28-10c.41-.63.8-1.27,1.21-1.9a4.36,4.36,0,0,0,.2-3.08c0-.22-.08-.45-.11-.67l2.45-1.45c2.32-1.38,4.72-2.81,7.18-4a8.26,8.26,0,0,1,9.69,1.23l6,5.14,3.49,3,1,.85c-.38.32-.89.74-1.13.74a21.26,21.26,0,0,1-4.27-.5c-.68-.12-1.39-.24-2.14-.35l-1.95-.29,6.8,12.86.86-4.08.55,2.09L157.58,79l1.84.89V79.1l.59-.27c.44-.19.83-.35,1.18-.48a7.58,7.58,0,0,0,1.89-.94,21,21,0,0,0,1.7-1.53c1.77-1.74,3.06-3,6-1.83a8.79,8.79,0,0,0,6.75-.75,5.89,5.89,0,0,0,2.6-3.78l10.3,4.76-.2-1.76c-1-9.15-1.1-10,1.39-14.62,2.41,5.2,2.28,15.36-.53,20.05l-.83,1.36,1.59.15c4.36.39,5.25-2.53,6-4.88a17.89,17.89,0,0,1,.6-1.75l3,3.87L202,75c.7-1.91.73-3.37.1-4.48-.89-1.55-2.81-1.89-4.35-2.17l-.64-.12V62.73l3.31,3,1.07-6,7.57,3.59L205.92,56c.65-.23,1.33-.44,2-.66,2.74-.87,4.55-1.44,4.63-2.82.23-3.75,2.67-4.7,5.49-5.79l1.1-.44c1.39-.57,2.89-1,4.33-1.47a31.45,31.45,0,0,0,6.8-2.65c1.65-.95,2.7-2.69,3.82-4.52.48-.81,1-1.64,1.56-2.42l.76-1.05-1.2-.47-2.58-1c-2.25-.87-4.59-1.78-6.91-2.75l-.66-.27a14.06,14.06,0,0,1-2.36-1.11c-.12-3.91-2.91-5.15-5.17-6.15-.5-.22-1-.44-1.47-.69C188,6.68,157.13,1.74,124.31,7A112.19,112.19,0,0,0,83.7,21.44l-.5.3,0,.59c.09,2.55-.4,2.87-.4,2.87a44.39,44.39,0,0,1-5.15,2.48l-2.12.92-1.73.79L76,30.68l-3.55,9.13,3.51,3.29-5,.25,1.54,1.58c.76.78,1.28,3.28,1.11,5.34a1.83,1.83,0,0,0,.5,1.3,1.12,1.12,0,0,0,.14.15l.09.41a4.12,4.12,0,0,1,.16,1.64,21.39,21.39,0,0,1-1.12,2.89c-1.21,2.74-2.59,5.84-.29,9.38h0l-6-4.71-2,6.26,5.87,2.28a46.85,46.85,0,0,1-5.78,3.2c-3.61,1.77-7.33,3.6-9.79,7.14a1,1,0,0,0-.67.28c-.49.46-1,.89-1.61,1.35a11.22,11.22,0,0,0-3.57,3.89,42.31,42.31,0,0,0-2.28,7.68c-.15.69-.31,1.38-.47,2.07l-.49-.21a4.89,4.89,0,0,1-2-1.18,107.63,107.63,0,0,1-7.63-12.55,10,10,0,0,1-.6-4.17c0-.66,0-1.34-.08-2,2-1.49,2.88-2.83,2.92-4.2.06-1.92-1.6-3.3-3.36-4.78a23.82,23.82,0,0,1-2.67-2.47l-1-1.11L28,70.39c-4.67,9.31-9.08,18.11-13.41,27a3.51,3.51,0,0,0,1.05,3.78,4,4,0,0,0,3.74-.25,5.27,5.27,0,0,0,1.46-1.48c.58.91,1.14,1.84,1.69,2.74a43.7,43.7,0,0,0,6,8.35c.68.68,2.73,2.74,2.61,3.59a1.25,1.25,0,0,1-.5.66v0a20.84,20.84,0,0,1-2.79,1.72l-.3.17a5.39,5.39,0,0,1-2.28.37,13.72,13.72,0,0,0-1.68.13c-1.37.21-2.74.46-4.1.72l-2.69.48.38,3,2.27.28-.25.25,3.54,5c-1.31-.37-2.42-.57-3.19.1-1.09.94-2.3,1.89-3.47,2.81-3.85,3-7.83,6.16-9.47,10.3-1.78,4.49-1.47,9.77-1.17,14.87.1,1.7.21,3.45.23,5.12A9.16,9.16,0,0,0,6.94,164c.2.39.4.79.58,1.19-1.9,2.34-1.64,5.55.89,12.87l.27.81.84-.15c6.36-1.11,13.78-1.63,20.69,3a21.33,21.33,0,0,0,5.53,2.37l.94.3c5.2,1.72,4.56,4.7,4.34,5.67l-.19.88.86.28L47,193c4.1,1.37,8.33,2.79,12.5,4.12a2.7,2.7,0,0,1,1.72,1.12c.34.7,0,1.87-.51,3.1-.68,1.83-1.29,3.71-1.88,5.53-.76,2.31-1.53,4.71-2.46,7-.86,2.09-2.07,3.69-3.08,4.06-4.32,1.61-6.1,4-6.15,8.2a6.35,6.35,0,0,1-2.33,4.71,5.16,5.16,0,0,1-4.12,1.3l-3.82-.63,4.49,3.56-3.64.3.6,1.3c.47,1,.86,2.07,1.25,3.1a17.1,17.1,0,0,0,3.17,6c29.18,31.09,64.49,46.79,105.13,46.79q7.26,0,14.75-.67c39.9-3.57,73.27-21.77,99.18-54.1a37.48,37.48,0,0,0,3.64-5.92c.53-1,1.09-2,1.7-3.09l1.25-2.15-23.22,6.63c0-1.08,0-2.12,0-3.12a87,87,0,0,1,.15-8.82,6.11,6.11,0,0,1,2-4c4.93-3.42,10.1-6.38,14.06-8.57a13,13,0,0,1,3.23-1.08,21.67,21.67,0,0,0,2.52-.72c1.64-.61,3.21-1.31,4.47-1.87l.4-.18,5.26,8.31.81-1.49c.37-.68.67-1.18.89-1.57a7.42,7.42,0,0,0,.79-1.58,13.19,13.19,0,0,1,1-2.24c1.3-2.5,2.93-5.62-1.44-9.13A9.54,9.54,0,0,1,278,196a9.07,9.07,0,0,0-2.83-2.41c2.14,0,4.29-.13,6.56-.31,1.11-.09,2.26-.18,3.47-.25l.71-.05.19-.68C294.09,164.58,294.88,140.15,288.57,117.57Zm-119,39.62-3.79-4.89,1.56.65c2,.84,4,1.7,6,2.44Zm-27.16-32,4.27,3.61,3.53-6,.32,5,4,4.15-15.81,1.32ZM127.39,89A17.77,17.77,0,0,0,129,86.65a17,17,0,0,1,1.43-2.17,7.05,7.05,0,0,1,1.51-1.24,4.08,4.08,0,0,1,0,1.84c-.9,2.4-2,4.75-3.25,7.47L127,96.22l-.14.32C124.09,94.15,124.88,92.12,127.39,89Zm-.06,8.68,9.33-1.07-4.49,1,.16,3.53a3,3,0,0,0-1.91.17c-1.23.62-1.53,2-1.82,3.4-.48,2.23-.81,3.29-2.95,3a11.13,11.13,0,0,0-4.22.51l-.85.2ZM200.4,71.52a1.74,1.74,0,0,1,.18.84l-1.22-1.58A1.94,1.94,0,0,1,200.4,71.52Zm77.77,34.34,4-4.79a18.64,18.64,0,0,1,2.06,8.69,11,11,0,0,0-.58-2l-.19-.46Zm-180.35,1.9c-1.37-1.39-2-2.53-2-3.61a3.67,3.67,0,0,1,.92-2.21c.39.67.78,1.35,1.17,2,2,3.36,3.81,6.53,5.48,9.84a5,5,0,0,1-1.7,2,6.49,6.49,0,0,1-2.63.4l-.44,0,.12-.49a20.14,20.14,0,0,0,.73-4.13A5.76,5.76,0,0,0,97.82,107.76Zm99.61-37.43.16,0-.06.06A10,10,0,0,0,195.91,74c-.58,1.9-1,3-2.3,3.39a24.68,24.68,0,0,0,1.61-7.58l.65.19A14.83,14.83,0,0,0,197.43,70.33ZM67.53,66.41l.57-1.74,5,3.89ZM284.4,191l-2.8.21a54.29,54.29,0,0,1-7.56.26c-.35,0-1.11-1-1.55-1.52a13.6,13.6,0,0,0-1.1-1.26l-.73-.72-2.61,2.8.83.67c.41.34.81.73,1.23,1.14a8.87,8.87,0,0,0,3.47,2.44h0a6.11,6.11,0,0,1,2.94,2.23,11.41,11.41,0,0,0,1.47,1.48c3.09,2.48,2.17,4.23.91,6.65a15.57,15.57,0,0,0-1.14,2.57,7.21,7.21,0,0,1-.6,1.16l-.09.15-4.38-6.91-.78.34-1.2.53c-1.24.55-2.77,1.24-4.36,1.83a20.56,20.56,0,0,1-2.29.65,14.43,14.43,0,0,0-3.73,1.27c-4,2.22-9.23,5.21-14.23,8.68a8,8,0,0,0-2.85,5.51,88.2,88.2,0,0,0-.16,9c0,1.39,0,2.85,0,4.42V236l21.05-6-.55,1a36,36,0,0,1-3.43,5.62c-25.56,31.89-58.46,49.84-97.8,53.36-46.24,4.12-86-11.18-118.24-45.5a15.92,15.92,0,0,1-2.76-5.36c-.24-.64-.48-1.29-.75-1.94l5.88-.49L43.13,234a7.86,7.86,0,0,0,2.92-1.57,8.41,8.41,0,0,0,3.05-6.22c0-3.42,1.26-5,4.85-6.35,2.24-.84,3.7-3.9,4.23-5.18,1-2.34,1.74-4.77,2.51-7.12.58-1.79,1.19-3.65,1.86-5.44s1.12-3.26.43-4.68a4.5,4.5,0,0,0-2.91-2.15c-4.16-1.32-8.39-2.73-12.47-4.1l-4.48-1.5c.24-2.46-.73-5.41-5.82-7.09l-.95-.31a20,20,0,0,1-5-2.13c-7.19-4.85-14.75-4.57-21.31-3.49-2.37-7.07-2.09-9.06-.62-10.52l.47-.46L9.62,165c-.27-.67-.58-1.3-.89-1.9a7.79,7.79,0,0,1-1.07-3c0-1.72-.13-3.5-.23-5.22-.29-4.88-.58-9.93,1-14,1.44-3.65,5.2-6.61,8.85-9.47,1.16-.92,2.37-1.87,3.48-2.82a8,8,0,0,1,2.1.47,18.39,18.39,0,0,0,2.06.55l2.43.47-5.57-8,2-2-3.38-.43c1.15-.21,2.3-.42,3.46-.6a10.73,10.73,0,0,1,1.44-.1,6.85,6.85,0,0,0,3.19-.63l.3-.16.72-.41-2,5.62,12.14,2.13-7.75-9.3a3,3,0,0,0,1.19-1.92c.22-1.54-1-3.1-3.17-5.28a41.32,41.32,0,0,1-5.71-8c-.8-1.32-1.63-2.69-2.52-4L21,96l-.85,1c-.2.25-.4.53-.59.81a5.21,5.21,0,0,1-1.21,1.38,2.39,2.39,0,0,1-1.57.27,2.16,2.16,0,0,1-.35-1.23c4.33-8.84,8.73-17.64,13.4-26.95l2.49-5c.63.6,1.28,1.14,1.88,1.64,1.43,1.2,2.67,2.24,2.64,3.18,0,.74-.84,1.72-2.37,2.85a1.58,1.58,0,0,0-.56,1.37C34,76,34,76.67,34,77.4a11.51,11.51,0,0,0,.81,5,109.3,109.3,0,0,0,7.77,12.78,6.14,6.14,0,0,0,2.93,1.91,15.92,15.92,0,0,1,1.46.66l1.12.6.32-1.23c.28-1.09.53-2.19.79-3.29a38.46,38.46,0,0,1,2.15-7.32,9.65,9.65,0,0,1,3-3.14c.45-.36.91-.73,1.35-1.11a1,1,0,0,0,1-.46c2.14-3.43,5.64-5.15,9.34-7a38.4,38.4,0,0,0,7.58-4.5l1.33-1.08L74.21,69l.31-1a7.08,7.08,0,0,1,.28-.78,2.06,2.06,0,0,0,.1-2c-1.89-2.72-.87-5,.31-7.68a23,23,0,0,0,1.22-3.18,5.37,5.37,0,0,0-.14-2.59l-.08-.38a2.52,2.52,0,0,0-.52-1l-.08-.1a12.61,12.61,0,0,0-.71-5.09l5.84-.29-6-5.58,3.67-9.44-.3-.18.33-.15a44.23,44.23,0,0,0,5.38-2.59c1.19-.71,1.4-2.46,1.39-4.07A110.3,110.3,0,0,1,124.63,9c32.38-5.21,62.82-.34,90.48,14.47.51.27,1,.51,1.6.76,2.47,1.09,4,1.9,4,4.57,0,1.27,1.68,1.94,3.61,2.72l.63.26c2.36,1,4.7,1.89,7,2.77l1.4.54c-.33.5-.63,1-.93,1.5-1,1.68-1.91,3.13-3.11,3.83a30.11,30.11,0,0,1-6.38,2.47c-1.49.45-3,.92-4.51,1.53l-1.07.42c-3,1.16-6.36,2.48-6.74,7.34a17.87,17.87,0,0,1-3.25,1.24c-1.05.33-2.13.67-3.1,1.07l-.94.38,1.89,4.42L200,56.85l-.9,5-4-3.62v5.93c-.34-3.57-1.26-6.84-2.72-8.86L191.49,54l-.76,1.38c-3.44,6.25-3.62,6.8-2.67,15.6l-9.6-4.45-.1,1.45a4.33,4.33,0,0,1-1.87,3.63,7,7,0,0,1-5,.58c-4.16-1.64-6.37.52-8.15,2.26a17.24,17.24,0,0,1-1.52,1.37,5.19,5.19,0,0,1-1.25.61V72.24l-3.19,0v4.54l-.48-.23-5.22,7.25-.32-1.22-2.36.06-.41,1.93-2.34-4.44.11,0a26.83,26.83,0,0,0,4.63.53,4.14,4.14,0,0,0,2.5-1.31c.26-.21.51-.43.76-.6L155.4,78l-1.67-1.37c-.44-.36-.89-.71-1.32-1.08l-3.49-3c-2-1.72-4-3.44-6-5.14A10.23,10.23,0,0,0,131,65.88c-2.53,1.25-5,2.7-7.31,4.1-1,.6-2,1.19-3,1.76l-.53.3,0,.62a14.09,14.09,0,0,0,.19,1.49,4,4,0,0,1,.09,1.68l-1.21,1.91a60.43,60.43,0,0,1-7,9.71l-.37.39c-5.06,5.3-5.35,5.89-1.52,13.82l.43.89,5-2.36.13.32c.37.86.71,1.68,1.05,2.51s.64,1.56,1.08,2.65l1.21,3a4.73,4.73,0,0,1-3.81-.79l-.63-.48-10.74,8.88c.87-1,1.58-2.29,1.14-3.17-1.72-3.44-3.63-6.7-5.64-10.15L97.8,99.77l-.63-1.1-.92.87a6.54,6.54,0,0,0-2.42,4.58,5.53,5.53,0,0,0,1,3.07l-2.46-1L88.23,117l1.81-.41c2.79-.62,4.57-1.65,5.43-3.13,1-1.65.63-3.51.15-5.18.24.28.49.56.77.85a3.82,3.82,0,0,1,1.09,2.35,18.75,18.75,0,0,1-.67,3.72c-.15.6-.3,1.21-.43,1.84l-.29,1.35,1.37-.14c.58-.06,1.14-.08,1.68-.1a8.15,8.15,0,0,0,3.39-.59l-4.74,3.92.3.69a15.72,15.72,0,0,0,1,1.82c.78,1.32,1.74,3,1.49,4-.44,1.9-1.1,1.85-3.35,1.37-1.6-.34-3.59-.75-5.3.54l-.39.3v.5c0,.37,0,.8.07,1.25a7.28,7.28,0,0,1-.1,2.84,5.33,5.33,0,0,0,.31,4.72A5.55,5.55,0,0,0,95.85,142a8.89,8.89,0,0,0,7.25-2.84l.78-1c4.26-5.72,4.46-6,10.78-8.52L124,137.9l2.4-1.86-.68-.8-1-1.19c-.76-.85-1.54-1.74-2.21-2.65-.81-1.08-1.56-2.24-2.3-3.36-.15-.24-.3-.48-.46-.72l.47-.35,12,14.83.66-1.51a15,15,0,0,0,.75-2.49c.32-1.37.66-2.78,1.43-3.19a1.62,1.62,0,0,1,1-.13l0,.16c1.28,7.33,5.73,7.14,9,7a15.3,15.3,0,0,1,2.64,0c.23,2.29-.26,4-1.44,5.07-1.91,1.72-5.85,2-10.81.71a12.39,12.39,0,0,1-1.54-.55c-1.77-.72-4.42-1.81-6.23,1.91a2.43,2.43,0,0,1-.86.18c-2.59,0-9-5.39-10-8.94l-.25-.86-.88.15-3.82.62c-3,.48-6.18,1-9.27,1.67l-1.44.3c-2.63.54-5.61,1.14-7.28,3a64,64,0,0,0-10.15,14.59c-1,1.91-.89,4.18-.84,6.38a20.22,20.22,0,0,1-.17,4.15c-.63,3.38,1.28,5.22,2.81,6.69a9.69,9.69,0,0,1,1.81,2.1c4.68,8.32,11.37,6.32,17.28,4.55l1.6-.47c2.29-.65,3.89.3,5.75,1.41a12,12,0,0,0,4,1.74c-1.29,3.78.68,6.48,2.44,8.88a11.72,11.72,0,0,1,2.33,4.27,13.82,13.82,0,0,1-.19,4.58c-.14.9-.28,1.84-.33,2.76,0,.48-.07,1-.12,1.45a10.64,10.64,0,0,0,.22,4.74c1.86,5.12,4.12,10.17,6.3,15.06l.6,1.36c1.69,3.83,2.55,5.49,3.9,5.32,3.93-.51,7.92-1.29,10.47-3.56,5.67-5.05,7.51-12.12,8.32-18.15l.5.45.67-.75c.44-.51.92-1,1.39-1.49a19.58,19.58,0,0,0,3.24-4,6.51,6.51,0,0,0,0-5.33c-2.88-6.15.18-9.66,5.17-14.31,3.34-3.1,5.73-7.23,8.09-11.53l1.47-2.69-2.77,1.3c-6.22,2.92-8.78-.39-11.73-4.22a16.79,16.79,0,0,0-4.64-4.64l-3.67-11.41,1.45.33c.32.76.62,1.52.92,2.25.82,2,1.59,3.92,2.51,5.79a58.17,58.17,0,0,0,4.94,8.76,5.72,5.72,0,0,0,5.26,1.63c7.45-2.21,12.91-5.93,16.7-11.38l.49-.7-5.38-5.06,1,.33a20.38,20.38,0,0,0,8.2,1.12c3.13-.31,4.79,1.27,6.64,3.39a11.85,11.85,0,0,0,2.46,2c.44.29.91.61,1.44,1l5.29,15.55,3.32,1.25.27-1.09c2.54-10.27,7.51-16,15.63-17.88l.43.82c.78,1.52,1.58,3.06,2.37,4.61.09.19.19.44.28.68.3.81.6,1.67,1.5,1.58,1.67-.12,2.8.08,3.29.59s.42,1.87.27,3.1c-.17,1.49-.37,3.18.68,4.34l1.09,1.21,1.94-5.13,5.81,5.12L237,178c2.85-1.63,4.42-3.45,4.79-5.57s-.46-4.38-2.55-6.94a10.34,10.34,0,0,1,1.72-3c5.45.43,9.24-2.42,12.93-5.17l.65-.48c4.7-3.49,4.49-10.24,1.62-14.87l2.83-3.36-4.63-2.17,2.69-2.09c4.1,1.87,7.55,3.62,7.07,9.14l-.14,1.65,3.91-1.65.07-.57c.05-.41.15-.84.24-1.26a6.62,6.62,0,0,0,.17-3.33c-1.38-4.6-.31-6.46,5-8.66,2.78-1.15,5.51-3.9,8.34-8.4a18.18,18.18,0,0,0,2.55-6.22,41.76,41.76,0,0,0,.34,6.95l.91,5.83,1.52-8.32C292.77,141.12,291.91,164.55,284.4,191Zm-253-72.33,3.31,4-4.44-.78Zm62.4-6.21a4.26,4.26,0,0,1-2.28,1.64l2-5.3.25.09C94.13,110.41,94.27,111.6,93.75,112.49Z"/><path class="cls-1" d="M84.69,84.1c.16-.39.32-.77.51-1.13l.55-1.06-1.14-.36c-.42-.13-.83-.28-1.24-.44a12.52,12.52,0,0,0-3.16-.86A49.22,49.22,0,0,0,75,80.16c-.74,0-1.48,0-2.24,0H71.47l.37,1.27c1.18,4.14,2.93,6.59,5.21,7.27a4.54,4.54,0,0,0,1.32.2A7.41,7.41,0,0,0,83,86.85,6.82,6.82,0,0,0,84.69,84.1Zm-1.85-.76a5.48,5.48,0,0,1-1.12,2c-1.57,1.33-3,1.83-4.1,1.49-1.35-.41-2.54-2-3.46-4.64l.92,0a47.59,47.59,0,0,1,5,.08,10.47,10.47,0,0,1,2.64.75l.28.1C82.91,83.17,82.88,83.26,82.84,83.34Z"/></g></g></svg>