<svg xmlns="http://www.w3.org/2000/svg" viewBox="0 0 297.48 297.47">
  <defs>
    <style>
      .cls-1{fill:#57c003}
    </style>
  </defs>
  <title>
    globe_outline_2
  </title>
  <g id="Layer_2" data-name="Layer 2">
    <g id="Layer_1-2" data-name="Layer 1">
      <path class="cls-1" d="M139.42 76.15l2.58-9.42-6-.46 4.24-1.59a45.32 45.32 0 0 0 4.94-2.12l.53-.89.25.48c4.35-2.43 7.71-6 7.85-12.72v-1.49l1.37.6c.34.15.65.25.91.34.65.22 1.26.44 1.47 1.1.38 1.22.68 2.46 1 3.66.1.41.19.83.29 1.24l.24 1-1 .23c-1.21.27-1.35 1.2-1.42 3.42-.05 1.62-.11 3.47-1.41 4.63a5.13 5.13 0 0 1-4 1c-.32 0-1.18 1-1.69 1.5a19 19 0 0 1-1.49 1.49l-1 .83-1.55-3.1zm7.45-12.22l.86 1.74.4-.42c1.07-1.15 2.08-2.24 3.32-2.14a3.4 3.4 0 0 0 2.5-.46c.66-.59.7-1.86.74-3.21.05-1.71.12-4 2-5l-.09-.38c-.25-1.07-.51-2.17-.83-3.22-.59 6.83-4.36 10.59-8.9 13.09zM122.6 146.82l-2.87-4.49-.37 2.54-3 .07-.9-10 1.17.08c2.63.19 4.45 1 5.54 2.4 1.56 2 1.23 4.89.86 6.89zm-3.53-9.25l2.3 3.62a4.18 4.18 0 0 0-.74-2.51 3.62 3.62 0 0 0-1.56-1.11zm-1.36-.38l.29 3.21.45-3z"/>
      <path class="cls-1" d="M153.39 48.26l-2.13-1.94 5.47-8L168 42.21zm4.13-7.51L154 45.84l8.33-3.44zM155.78 220c-2.78 0-5.64-.22-7.94-1.44-1.88-1-2.66-3.59-3.42-6.08-.29-.94-.56-1.84-.88-2.62a5.14 5.14 0 0 1-.31-1.54l-3.54 2.21-.53-.85c-3.9-6.3-11.75-7.77-20-3.74-4 1.95-8.5 2.78-12.86 3.59a2 2 0 0 1-1.57-.5 6.9 6.9 0 0 1-2.49-3.86c-.26-2.56-.34-5.18-.42-7.7a92.06 92.06 0 0 0-.65-9.53c-.56-4 .89-6.45 4.71-8.07 1.39-.58 2.83-1.06 4.22-1.52a42.35 42.35 0 0 0 5.25-2 7 7 0 0 0 2-1.93 11.9 11.9 0 0 1 1.82-1.94c2.23-1.78 4.52-3.45 6.94-5.22 1-.74 2-1.49 3.1-2.27l.68-.5.61.59c1.16 1.12 2.13 1.63 2.91 1.52s1.73-1 2.65-2.61a7.1 7.1 0 0 1 4.5-3.41 10.53 10.53 0 0 1 7.91 1.43l.33.2.1.38c.33 1.14.56 2.23.76 3.19.37 1.84.67 3.29 1.44 4.1 1.37 1.47 4.19 2.63 5.37 2.22.73-.26 1.41-2.25 1.91-3.71.22-.64.44-1.27.66-1.83l.38-1a11.55 11.55 0 0 1 2.72-4.64l1.1-1.1 1.8 4.88c1.15 3.12 2.3 6.24 3.48 9.36.1.27.2.58.3.9a6 6 0 0 0 .66 1.6c4.62 1.82 6 5.83 7.26 9.37a30 30 0 0 0 1.48 3.72c3.09 6.08-.24 11.79-3 15.55a148.8 148.8 0 0 1-9.74 12.18 9.15 9.15 0 0 1-6.08 2.62h-3.62zm-10.88-15l.19 1.56c0 .48.08.9.11 1.27a5.08 5.08 0 0 0 .19 1.35c.36.87.65 1.84.94 2.79.64 2.1 1.3 4.28 2.46 4.89 2.49 1.33 6 1.26 9.31 1.18h1.26a7.19 7.19 0 0 0 4.64-1.88 148.14 148.14 0 0 0 9.6-12c4-5.37 4.84-9.52 2.84-13.45a33.88 33.88 0 0 1-1.59-4c-1.2-3.44-2.34-6.7-6.13-8.18-1-.41-1.43-1.65-1.81-2.85-.08-.28-.17-.55-.26-.8-1.18-3.12-2.33-6.24-3.48-9.37l-.66-1.78a13.44 13.44 0 0 0-1.22 2.65l-.39 1c-.22.52-.42 1.12-.63 1.72-.73 2.14-1.49 4.36-3.14 4.94-2.3.82-5.92-1-7.5-2.73-1.14-1.23-1.51-3-1.93-5.06-.18-.86-.36-1.74-.61-2.67a8.36 8.36 0 0 0-6-1 5 5 0 0 0-3.29 2.42c-1.26 2.21-2.6 3.38-4.11 3.6a5.07 5.07 0 0 1-3.95-1.49l-2.45 1.79c-2.4 1.75-4.67 3.41-6.87 5.16a10.53 10.53 0 0 0-1.52 1.64 8.48 8.48 0 0 1-2.67 2.46 41.06 41.06 0 0 1-5.51 2.11c-1.35.45-2.76.92-4.07 1.48-3 1.26-4 2.87-3.51 5.94a94.49 94.49 0 0 1 .67 9.74c.08 2.5.16 5.07.41 7.57a5.17 5.17 0 0 0 1.86 2.57c4.18-.78 8.49-1.59 12.2-3.4 8.87-4.33 17.4-2.88 22 3.65zM173.1 156.27l-10.1-5.2c-2.87 4-6.26 2.24-8.55 1.08a11.5 11.5 0 0 0-2.13-.92l-.56-.14-2.26-7.67a5.47 5.47 0 0 1-3.94.82c-2.49-.46-4.77-2.7-6.95-6.83l-.46-.87.86-.47c1.72-.95 3-1.15 4-.64 1.32.68 1.51 2.27 1.64 3.33v.12h3.63a56.83 56.83 0 0 1 8.66.46c6.24 1 10 5.62 12.31 9a11.26 11.26 0 0 0 3.16 2.72c.6.41 1.22.83 1.8 1.29l.67.53zm-10.77-7.82l10 5.15.09-.15-1-.69a13.15 13.15 0 0 1-3.7-3.26c-3.36-5-6.74-7.48-11-8.15a40.42 40.42 0 0 0-5.81-.42l2.51 8.54a16.58 16.58 0 0 1 2 .9c2.84 1.44 4.53 2.09 6.46-1.12zm-18.84-7.61a5.06 5.06 0 0 0 2.47 1.43 4.09 4.09 0 0 0 3.48-1.26l.11-.09h-1.19c-1.43 0-2.91 0-4.46-.06zm-2.57-3.45a17.07 17.07 0 0 0 2.18 3.06l-.07-.15a4 4 0 0 1-.29-1.31c-.07-.59-.19-1.59-.56-1.78a1.75 1.75 0 0 0-1.26.18zM157 32.37l-.17-1.45c-.5-4.13-.65-8.13 3-11.66l1-1 .58 1.28c2.38 5.25 1.2 9.78-3.17 12.11zm3.21-10.51c-1.49 2-1.79 4.22-1.56 7.19 1.97-1.68 2.51-4.16 1.54-7.19zM213.55 217.08l-3.42-5.45 5.01 1.93-1.59 3.52zM189.86 239.21a12.54 12.54 0 0 1-3.91-.71l-2-.65 1.79-1.14 4.36-2.81c4-2.55 8.06-5.2 12.22-7.58 1.17-.68 2.63-.5 4-.34.48.06 1 .12 1.41.14l3 .11-2.45 1.71c-1.38.95-2.74 1.91-4.1 2.88-3.65 2.57-7.42 5.24-11.29 7.63a5.69 5.69 0 0 1-3.03.76zm-1.08-2.08a4.64 4.64 0 0 0 3.07-.38c3.82-2.36 7.56-5 11.18-7.57l1.89-1.33a3.07 3.07 0 0 0-1.62.2c-4.11 2.36-8.19 5-12.12 7.53z"/>
      <path class="cls-1" d="M205.87 229.27l7.39-16.41L219 222zm7.68-12.19l-3.38 7.51 6-3.34z"/>
      <path class="cls-1" d="M208.57 228.13l-.83-.01-2.89-.18 1.47-1.06-.1-.1 1.09-.6.67-.46.06.06 2.16-1.19-1.63 3.54zM152.46 233.31L150 222.52l10 2.88zm.25-7.93l.88 3.85 2.69-2.82zM129.44 126l-8.92-5.13 11.19-5.85zm-4.76-5l3.36 1.93.86-4.14zM16.25 174.77l-.19-.84c-.23-1-.52-2.05-.79-3.05-1.47-5.29-3.12-11.28 2.69-17.66l1.74-1.9v23.22zm1.45-17.94c-2.95 4.66-1.76 9-.51 13.52.17.61.35 1.23.51 1.86z"/>
      <path class="cls-1" d="M148.67 297.47h-.34a147.35 147.35 0 0 1-105-43.66A149.23 149.23 0 0 1 0 147.18 146.4 146.4 0 0 1 44 42.89 148.3 148.3 0 0 1 148.76 0h.49a148.74 148.74 0 0 1 148.23 149.42c-.24 81.7-66.96 148.05-148.81 148.05zM148.76 2a146.29 146.29 0 0 0-103.4 42.31A144.43 144.43 0 0 0 2 147.19 147.25 147.25 0 0 0 44.8 252.4a145.37 145.37 0 0 0 103.53 43.07h.34c80.75 0 146.58-65.45 146.81-146.06A146.74 146.74 0 0 0 149.24 2zM71.82 270.93l-2.16-1.68c-1.86-1.45-3.65-2.8-5.38-4.11-3.52-2.66-6.85-5.18-10-7.89-20-17.4-34.12-38.57-41.95-62.93-1.7-5.28-2.07-11-2.43-16.57-.1-1.42-.19-2.83-.3-4.24-.27-3.29-.3-6.65-.34-9.89 0-2.56 0-5.2-.19-7.78a46.68 46.68 0 0 0-1.4-8.07c-1.9-8.17 1.46-15.07 4.71-21.77l.24-.51a65 65 0 0 0 3.26-8.81c.31-1 .62-2 1-3l-5.78 1.49-2.2-2.49.58-.66c.34-.39.67-.79 1-1.19a34.92 34.92 0 0 1 2.4-2.66C14 107.1 15.17 106 16.33 105s2.2-2 3.27-3c.92-.89 1.82-1.84 2.7-2.75 1.07-1.12 2.18-2.27 3.33-3.35.92-.86 2.14-2.12 2.12-3.2a2.11 2.11 0 0 0-.88-1.53c-.53-.47-1.86-.47-3.05-.47h-1.39l-1.85 2.94-2-7.2 1-.26q.51-.14 1-.3a12.61 12.61 0 0 1 2.51-.6 17.21 17.21 0 0 1 5.58.69c3.17.75 5.91 1.4 8.73-.94.58-.48 1.42-.34 3 .51 2.24 1.21 3.32 2.3 3.22 3.25-.15 1.42.13 1.74.16 1.77.19.18 1 0 1.59 0a9.44 9.44 0 0 1 1.6-.17h.8l4.58 22.15c2.32-.63 3.28-2.52 3.62-11.54v-.7l.67-.21c1.92-.63 3.49-2.18 5.15-3.82 3-3 6.39-6.3 12.44-4.15l.3.11.18.25a11.85 11.85 0 0 1 1.62 4.79C77 100.42 77.45 103 82 103h1l.78 9.5 1.54-4.5 8.42 9c6.05-3.92 6.38-5.73 3-12.45l-.35-.66a6.15 6.15 0 0 1-1.08-3.68 11.15 11.15 0 0 1 2.6-5.64c.79-.84 2.11-.27 3.79.45.36.15.72.31 1 .43 8.38-2.8 14.14-9.42 19.08-16.23-.3-1-.64-2.11-1-3.19a62.78 62.78 0 0 1-2.64-10.2c-.25-1.69.65-3.35 1.64-5.11l-2.54 1.12-4.67-6.2 13.53-4.59 7.29 11.72c.47-2.64.61-4.35-1.36-6.29-1.25-1.23-1.42-4.81-.29-6.08l.82-1c1.95-2.25 4-4.57 7.6-6.2 2.45-1.1 10.46-5.5 10.53-15.82v-4.37l2.52 5.32 3-6.32L145.15 20l18-11.85h.26c.78 0 1.69-.15 2.7-.26a51.67 51.67 0 0 1 9.68-.37 51.31 51.31 0 0 1 9.55 2.09c1.44.41 2.92.83 4.43 1.2l1.29.32-.66 1.15c-2.37 4.17-4.82 8.48-1.88 14.27l2.27-2c2.3-2 4.47-3.95 6.44-6 2.83-3 5.33-3.47 8.93-1.85a148.19 148.19 0 0 1 57.21 45.08c2.15 2.8 3.85 5.67 1 10-2.53 3.86-.69 13.46 2.48 17.55a22.53 22.53 0 0 1 3.57 8.3l3.11-.71.23 1c.52 2.18 1.15 4.4 1.76 6.55 1.4 5 2.84 10.07 3.13 15.23a31.26 31.26 0 0 0 7.61 19.4c2.47 3 2.93 7.75 3.33 11.94.07.78.15 1.54.23 2.28.64 5.59.73 11.32.81 16.85v1.45c0 1.31-1 4.06-2.5 4.22-3.73.44-6.76 3.17-9 8.13-2.8 6.21-3.94 12.87-3.07 17.83 1.58 9-.88 15.69-8 21.7a9.71 9.71 0 0 0-1.89 2.69c-.29.53-.58 1-.91 1.55l-.83 1.27-.81-1.23c-.26.45-.5.9-.75 1.35a29.65 29.65 0 0 1-3.92 6c-2.51 2.73-5.22 5.33-7.83 7.84-2.46 2.37-5 4.81-7.35 7.33-3.64 3.9-6.84 7.47-9 11.57-4.23 7.88-12.12 11-20.12 7.95-10.06-3.84-20.25-6.94-29.77-9.72-.84-.25-2.22.36-3.43.89a18.13 18.13 0 0 1-2 .79l-.27.08-1.92-.47c-1.32-.32-2.67-.65-4-1-.5-.13-1-.25-1.51-.36a18.41 18.41 0 0 1-4.23-1.34l-.18-.08c-2.24-1.14-3.17-1.61-5 .47-1.11 1.26-3.74.61-8.52-1.13l-.91-.35c-1.24-.48-2.42-.94-3-.59-.45.25-.8 1-1 2.23l-.42 2.3-1.37-1.9c-1.34-1.86-7-3.32-13.12-1.47a41.07 41.07 0 0 0-8.66 4.26c-1.34.8-2.73 1.61-4.16 2.37l-1.57.84.36-6.15h-2.45c-4.46.08-9.07.16-12.69-4a11.77 11.77 0 0 0-3.14 1.26 35.43 35.43 0 0 0-3.07 2.16 23.78 23.78 0 0 1-5.46 3.37c-2 .79-4.57.28-6.79-.17l-.94-.18c-4-.76-8-1.64-12.18-2.56l-4-.89zm112.62-13a3.47 3.47 0 0 1 1 .14c9.56 2.79 19.8 5.91 29.92 9.77 7.11 2.71 13.87 0 17.64-7 2.31-4.31 5.6-8 9.34-12 2.39-2.56 5-5 7.42-7.4s5.28-5.07 7.74-7.75a27.58 27.58 0 0 0 3.65-5.58c.51-.92 1-1.87 1.59-2.79l.81-1.33.85 1.27v-.09a11.12 11.12 0 0 1 2.35-3.25c6.59-5.57 8.78-11.5 7.31-19.82-.95-5.42.22-12.34 3.21-19 2.52-5.58 6-8.7 10.44-9.27a4.41 4.41 0 0 0 .88-2.23v-1.45c-.08-5.48-.16-11.16-.79-16.65-.09-.75-.16-1.53-.24-2.32-.4-4.09-.8-8.33-2.88-10.86a33.51 33.51 0 0 1-8.07-20.56c-.27-4.93-1.69-10-3.06-14.79-.52-1.86-1.06-3.77-1.54-5.67l3.1 15.2-3.43.54-.18-1a382.4 382.4 0 0 1-.83-4.68c-.64-3.66-1.29-7.44-2.17-11.08a21.13 21.13 0 0 0-3.26-7.78c-3.34-4.3-5.82-14.91-2.57-19.87 2-3 1.34-4.73-.93-7.68a146.11 146.11 0 0 0-56.44-44.47c-2.81-1.27-4.43-.93-6.66 1.4-2 2.13-4.24 4.08-6.57 6.14-1 .91-2.09 1.85-3.17 2.84l-.9.81-.63-1c-4.09-6.75-1.85-11.8.61-16.22l-3.22-.9a49.9 49.9 0 0 0-9.18-2 49.58 49.58 0 0 0-9.29.36c-.93.1-1.78.19-2.52.25l-13.43 8.85 8.82 1.69-5.87 12.48-.92-1.95a19.21 19.21 0 0 1-11.35 14c-3.24 1.45-5 3.51-6.91 5.69q-.4.48-.84 1a4.25 4.25 0 0 0 .2 3.34c2.88 2.83 2.39 5.55 1.82 8.7-.11.61-.23 1.24-.32 1.91l-.39 2.71-9.3-14.92-9.41 3.19 2 2.72 6-2.67-1 2.35c-.38.88-.85 1.72-1.3 2.53-.84 1.49-1.63 2.91-1.47 4a62 62 0 0 0 2.56 9.88c.41 1.27.8 2.5 1.15 3.71l.14.47-.29.39c-5.27 7.32-11.43 14.5-20.7 17.47l-.31.1-.31-.1c-.45-.15-1-.37-1.5-.6a14.9 14.9 0 0 0-1.76-.68 9.39 9.39 0 0 0-1.87 4.36 5 5 0 0 0 .88 2.4l.37.71c4 7.93 3.18 10.68-4.43 15.49l-.7.44-7.31-7.85L82.51 122l-1.4-17c-5.39-.36-6.12-4.26-6.71-7.43a11.36 11.36 0 0 0-1.11-3.74c-4.67-1.51-7.17.95-10.05 3.79a17.54 17.54 0 0 1-5.28 4c-.38 9.06-1.4 12.23-6.21 13l-.94.14-4.64-22.43-.46.07c-1.11.18-2.37.39-3.29-.48-.67-.64-.93-1.66-.79-3.2a11 11 0 0 0-3.24-2c-3.49 2.69-7 1.86-10.17 1.12a15.51 15.51 0 0 0-4.93-.65 10.9 10.9 0 0 0-2.1.52h-.14l.25.9.09-.14.62.07a17.26 17.26 0 0 0 1.8.06c1.61 0 3.29 0 4.39 1a4 4 0 0 1 1.55 3c0 1.84-1.38 3.4-2.75 4.69-1.12 1-2.2 2.17-3.26 3.27-.89.93-1.81 1.89-2.75 2.81s-2.22 2.08-3.32 3.07-2.32 2.11-3.44 3.2a32.69 32.69 0 0 0-2.23 2.52c-.16.18-.31.36-.46.55l.23.26 8.19-2.12-.61 1.77c-.57 1.61-1.06 3.17-1.54 4.69a67.13 67.13 0 0 1-3.37 9.08l-.24.5c-3.24 6.66-6.3 13-4.53 20.42a47.6 47.6 0 0 1 1.44 8.42c.15 2.63.18 5.29.2 7.86 0 3.21.07 6.53.33 9.76.12 1.41.21 2.84.3 4.27.36 5.43.72 11 2.34 16.09 7.72 24 21.64 44.87 41.37 62 3.06 2.66 6.36 5.16 9.86 7.81 1.06.8 2.14 1.61 3.24 2.46l-2.18-10.3 1.51.33 5.55 1.21c4.2.93 8.17 1.8 12.12 2.55l1 .19c2 .4 4.17.84 5.67.26a22 22 0 0 0 5-3.1 38.15 38.15 0 0 1 3.24-2.27s4.28-2.57 5.49-1.09c3 3.71 7.07 3.64 11.33 3.56h3.59l1 .05-.26 4.6c.85-.48 1.68-1 2.5-1.46a42.13 42.13 0 0 1 9.11-4.45c5.27-1.59 11-1.13 14 .94a3.67 3.67 0 0 1 1.56-1.94c1.44-.8 3.11-.15 4.73.48l.83.31c1.42.52 5.6 2 6.46 1.64 2.79-3.17 5-2.05 7.34-.87l.17.09a16.3 16.3 0 0 0 3.77 1.16l1.58.38c1.33.35 2.67.68 4 1l1.39.34c.47-.16 1-.38 1.51-.62a10 10 0 0 1 3.68-1.08zm103.48-84.14z"/>
      <path class="cls-1" d="M93.38 145.92l-1-.41c-5.25-2.15-7.27-6.58-9.22-10.87-1.53-3.34-3-6.5-5.86-8.51l-4.27-3 5.08 1.18c5 1.18 10.81 7.31 13.71 12.49 1.31 2.33 2.7 5.63 1.89 8.08zm-10.93-17.09a44 44 0 0 1 2.54 5c1.7 3.73 3.31 7.27 7 9.28a13.1 13.1 0 0 0-1.87-5.3 32.22 32.22 0 0 0-7.67-8.98zM128.41 119.68l-3.72-2.53c-4-2.7-6.16-5.38-6.63-8.19-.39-2.26.31-4.56 2.14-7l.89-1.21 8.34 14-1.89 1.72-3.48-4zM121 104.4a6.31 6.31 0 0 0-.93 4.23 5.72 5.72 0 0 0 .54 1.62l2.66-1.9.29.34z"/>
      <path class="cls-1" d="M88.37 133.66l-4.52-10.13 4.2-1.83 4.18 9.94zm-1.87-9.11l2.83 6.35.34-.18-2.67-6.38zM108.4 142.31a14.32 14.32 0 0 1-4.1-.85c-3.77-1.18-5.71-4-5.63-8.23 0-1 1.06-1.65 2.07-2.26.25-.15.51-.3.72-.45 2.45-1.71 4.92-3.41 7.81-5.4l4.22-2.9 4.44 1.82-.3.89c-.49 1.46-1 2.89-1.43 4.31-1.07 3.26-2.08 6.33-3.19 9.42-1.01 2.84-2.76 3.65-4.61 3.65zm-7.73-8.88c0 3.26 1.32 5.21 4.23 6.12 3.34 1 5.14 1.46 6.23-1.56s2.11-6.13 3.17-9.37c.38-1.14.75-2.28 1.14-3.44l-1.71-.7-3.33 2.29c-2.88 2-5.35 3.69-7.8 5.4-.24.17-.54.34-.83.52a7.74 7.74 0 0 0-1.1.74zM107.93 152.24l-15.14-4.51 1.1-3.52 15.86 4zm-7.84-4.42l6.73 2 .13-.29z"/>
    </g>
  </g>
</svg>
