<svg width="402" height="402" viewBox="0 0 402 402" xmlns="http://www.w3.org/2000/svg" xmlns:xlink="http://www.w3.org/1999/xlink">
  <title>
    Google__G__Logo
  </title>
  <defs>
    <path d="M395.349 163.636H204.65v77.273H314.42C304.186 290 261.395 318.182 204.65 318.182c-66.977 0-120.93-52.727-120.93-118.182 0-65.455 53.953-118.182 120.93-118.182 28.837 0 54.884 10 75.349 26.364L339.535 50c-36.28-30.91-82.79-50-134.884-50C91.163 0 0 89.09 0 200s91.163 200 204.651 200C306.977 400 400 327.273 400 200c0-11.818-1.86-24.545-4.651-36.364z" id="a"/>
    <path d="M395.349 163.636H204.65v77.273H314.42C304.186 290 261.395 318.182 204.65 318.182c-66.977 0-120.93-52.727-120.93-118.182 0-65.455 53.953-118.182 120.93-118.182 28.837 0 54.884 10 75.349 26.364L339.535 50c-36.28-30.91-82.79-50-134.884-50C91.163 0 0 89.09 0 200s91.163 200 204.651 200C306.977 400 400 327.273 400 200c0-11.818-1.86-24.545-4.651-36.364z" id="c"/>
    <path d="M395.349 163.636H204.65v77.273H314.42C304.186 290 261.395 318.182 204.65 318.182c-66.977 0-120.93-52.727-120.93-118.182 0-65.455 53.953-118.182 120.93-118.182 28.837 0 54.884 10 75.349 26.364L339.535 50c-36.28-30.91-82.79-50-134.884-50C91.163 0 0 89.09 0 200s91.163 200 204.651 200C306.977 400 400 327.273 400 200c0-11.818-1.86-24.545-4.651-36.364z" id="e"/>
    <path d="M395.349 163.636H204.65v77.273H314.42C304.186 290 261.395 318.182 204.65 318.182c-66.977 0-120.93-52.727-120.93-118.182 0-65.455 53.953-118.182 120.93-118.182 28.837 0 54.884 10 75.349 26.364L339.535 50c-36.28-30.91-82.79-50-134.884-50C91.163 0 0 89.09 0 200s91.163 200 204.651 200C306.977 400 400 327.273 400 200c0-11.818-1.86-24.545-4.651-36.364z" id="g"/>
  </defs>
  <g fill="none" fill-rule="evenodd">
    <g transform="translate(1 1)">
      <mask id="b" fill="#fff">
        <use xlink:href="#a"/>
      </mask>
      <path stroke="#57C003" stroke-width="2" fill-rule="nonzero" mask="url(#b)" d="M-18.605 318.182V81.818L139.535 200z"/>
    </g>
    <g transform="translate(1 1)">
      <mask id="d" fill="#fff">
        <use xlink:href="#c"/>
      </mask>
      <path stroke="#57C003" stroke-width="2" fill-rule="nonzero" mask="url(#d)" d="M-18.605 81.818L139.535 200l65.116-55.455 223.256-35.454V-18.182H-18.605z"/>
    </g>
    <g transform="translate(1 1)">
      <mask id="f" fill="#fff">
        <use xlink:href="#e"/>
      </mask>
      <path stroke="#57C003" stroke-width="2" fill-rule="nonzero" mask="url(#f)" d="M-18.605 318.182l279.07-209.091 73.488 9.09 93.954-136.363v436.364H-18.605z"/>
    </g>
    <g transform="translate(1 1)">
      <mask id="h" fill="#fff">
        <use xlink:href="#g"/>
      </mask>
      <use stroke="#57C003" stroke-width="2" xlink:href="#g"/>
      <path stroke="#57C003" stroke-width="2" fill-rule="nonzero" mask="url(#h)" d="M427.907 418.182L139.535 200l-37.21-27.273 325.582-90.909z"/>
    </g>
  </g>
</svg>
