<?xml version="1.0" encoding="UTF-8"?>
<svg width="402px" height="402px" viewBox="0 0 402 402" version="1.1" xmlns="http://www.w3.org/2000/svg" xmlns:xlink="http://www.w3.org/1999/xlink">
    <!-- Generator: Sketch 51.2 (57519) - http://www.bohemiancoding.com/sketch -->
    <title>Google__G__Logo</title>
    <desc>Created with Sketch.</desc>
    <defs>
        <path d="M395.348837,163.636364 L204.651163,163.636364 L204.651163,240.909091 L314.418605,240.909091 C304.186047,290 261.395349,318.181818 204.651163,318.181818 C137.674419,318.181818 83.7209302,265.454545 83.7209302,200 C83.7209302,134.545455 137.674419,81.8181818 204.651163,81.8181818 C233.488372,81.8181818 259.534884,91.8181818 280,108.181818 L339.534884,50 C303.255814,19.0909091 256.744186,0 204.651163,0 C91.1627907,0 0,89.0909091 0,200 C0,310.909091 91.1627907,400 204.651163,400 C306.976744,400 400,327.272727 400,200 C400,188.181818 398.139535,175.454545 395.348837,163.636364 Z" id="path-1"></path>
        <path d="M395.348837,163.636364 L204.651163,163.636364 L204.651163,240.909091 L314.418605,240.909091 C304.186047,290 261.395349,318.181818 204.651163,318.181818 C137.674419,318.181818 83.7209302,265.454545 83.7209302,200 C83.7209302,134.545455 137.674419,81.8181818 204.651163,81.8181818 C233.488372,81.8181818 259.534884,91.8181818 280,108.181818 L339.534884,50 C303.255814,19.0909091 256.744186,0 204.651163,0 C91.1627907,0 0,89.0909091 0,200 C0,310.909091 91.1627907,400 204.651163,400 C306.976744,400 400,327.272727 400,200 C400,188.181818 398.139535,175.454545 395.348837,163.636364 Z" id="path-3"></path>
        <path d="M395.348837,163.636364 L204.651163,163.636364 L204.651163,240.909091 L314.418605,240.909091 C304.186047,290 261.395349,318.181818 204.651163,318.181818 C137.674419,318.181818 83.7209302,265.454545 83.7209302,200 C83.7209302,134.545455 137.674419,81.8181818 204.651163,81.8181818 C233.488372,81.8181818 259.534884,91.8181818 280,108.181818 L339.534884,50 C303.255814,19.0909091 256.744186,0 204.651163,0 C91.1627907,0 0,89.0909091 0,200 C0,310.909091 91.1627907,400 204.651163,400 C306.976744,400 400,327.272727 400,200 C400,188.181818 398.139535,175.454545 395.348837,163.636364 Z" id="path-5"></path>
        <path d="M395.348837,163.636364 L204.651163,163.636364 L204.651163,240.909091 L314.418605,240.909091 C304.186047,290 261.395349,318.181818 204.651163,318.181818 C137.674419,318.181818 83.7209302,265.454545 83.7209302,200 C83.7209302,134.545455 137.674419,81.8181818 204.651163,81.8181818 C233.488372,81.8181818 259.534884,91.8181818 280,108.181818 L339.534884,50 C303.255814,19.0909091 256.744186,0 204.651163,0 C91.1627907,0 0,89.0909091 0,200 C0,310.909091 91.1627907,400 204.651163,400 C306.976744,400 400,327.272727 400,200 C400,188.181818 398.139535,175.454545 395.348837,163.636364 Z" id="path-7"></path>
    </defs>
    <g id="Page-1" stroke="none" stroke-width="1" fill="none" fill-rule="evenodd">
        <g id="Google__G__Logo" transform="translate(1.000000, 1.000000)">
            <g id="Clipped">
                <mask id="mask-2" fill="white">
                    <use xlink:href="#path-1"></use>
                </mask>
                <g id="a"></g>
                <polygon id="Shape" stroke="#57C003" stroke-width="2" fill-rule="nonzero" mask="url(#mask-2)" points="-18.6046512 318.181818 -18.6046512 81.8181818 139.534884 200"></polygon>
            </g>
            <g id="Clipped">
                <mask id="mask-4" fill="white">
                    <use xlink:href="#path-3"></use>
                </mask>
                <g id="a"></g>
                <polygon id="Shape" stroke="#57C003" stroke-width="2" fill-rule="nonzero" mask="url(#mask-4)" points="-18.6046512 81.8181818 139.534884 200 204.651163 144.545455 427.906977 109.090909 427.906977 -18.1818182 -18.6046512 -18.1818182"></polygon>
            </g>
            <g id="Clipped">
                <mask id="mask-6" fill="white">
                    <use xlink:href="#path-5"></use>
                </mask>
                <g id="a"></g>
                <polygon id="Shape" stroke="#57C003" stroke-width="2" fill-rule="nonzero" mask="url(#mask-6)" points="-18.6046512 318.181818 260.465116 109.090909 333.953488 118.181818 427.906977 -18.1818182 427.906977 418.181818 -18.6046512 418.181818"></polygon>
            </g>
            <g id="Clipped">
                <mask id="mask-8" fill="white">
                    <use xlink:href="#path-7"></use>
                </mask>
                <use id="a" stroke="#57C003" stroke-width="2" xlink:href="#path-7"></use>
                <polygon id="Shape" stroke="#57C003" stroke-width="2" fill-rule="nonzero" mask="url(#mask-8)" points="427.906977 418.181818 139.534884 200 102.325581 172.727273 427.906977 81.8181818"></polygon>
            </g>
        </g>
    </g>
</svg>