<svg width="1330" height="870" viewBox="0 0 1330 870" xmlns="http://www.w3.org/2000/svg">
  <title>
    heart-of-gold
  </title>
  <g fill-rule="nonzero" stroke="#57C003" stroke-width="2" fill="none">
    <path d="M968 1.7c-25.6 1.1-39.9 4.7-46.5 11.9-1.2 1.2-4.8 4.3-8.1 6.7-3.3 2.4-7.2 5.5-8.5 6.8-1.4 1.3-4.9 4.2-7.8 6.4-3 2.2-6.1 4.7-7 5.6-.9.9-3.8 3.1-6.6 4.9-2.7 1.9-6.3 4.6-8 6.2-1.6 1.6-5.9 4.7-9.5 7-3.6 2.4-6.8 4.7-7.2 5.3-.5.6-.8.6-.8 0s-.3-.6-.8.1c-1 1.5-14.3 9.7-23.7 14.5-4.4 2.3-8.2 4.4-8.5 4.8-.3.4-3.6 2.1-7.5 3.9-3.8 1.9-8.1 3.9-9.5 4.7-1.4.7-5.4 2.1-9 3.1-3.6 1-6.7 2.1-7 2.5-.3.4-3.9 1.7-8 2.9-4.1 1.1-8.2 2.5-9.1 3-.9.4-3.8 1.1-6.5 1.5-2.7.4-7.1 1.3-9.9 2-2.7.8-7.5 1.7-10.5 2.1-3 .3-5.7 1-6 1.4-1.1 1.6-29.9 4.2-83 7.5-53.7 3.2-58.7 3.4-100 2.9-23.9-.3-45.7-.6-48.5-.8-19.8-1.3-25-1.8-29.1-2.5-2.6-.5-5.2-.7-5.8-.5-.7.3-4.5-.2-8.6-1s-7.8-1.2-8.2-1c-.4.3-3.5 0-6.9-.6-3.4-.6-7.6-1.2-9.3-1.2-1.7 0-6.2-.6-10.1-1.4-3.8-.7-7.3-1-7.7-.8-.5.3-3.2.1-6.1-.5-2.8-.6-7.7-1.3-10.7-1.5-3-.2-10.2-1-16-1.6-5.8-.7-12.5-1.4-15-1.5-2.5-.2-8.1-.6-12.5-.9-13-1-27.4-1.7-37-1.7-12.8-.1-63.4 2.9-67 4-1.6.5-6.5 1.3-10.8 1.6-4.2.4-7.9 1.1-8.2 1.5-.3.4-3.6 1.1-7.5 1.5-3.9.4-7.2 1.1-7.5 1.5-.3.4-4.3 1.4-9 2.1-4.7.7-8.5 1.5-8.5 1.9 0 .3-3.6 1.2-8 1.9-4.4.8-8 1.7-8 2.1 0 .4-3.7 1.5-8.3 2.5-4.5.9-8.7 2.1-9.3 2.7-.7.5-4.5 1.8-8.5 2.9-4.1 1.1-7.8 2.4-8.4 2.9-.5.4-3.7 1.6-6.9 2.5-3.2 1-8 2.7-10.5 4-2.5 1.2-6.4 2.8-8.6 3.5-2.2.7-4.9 1.9-6 2.5-1.1.7-5.1 2.3-9 3.5-3.8 1.3-7.2 2.6-7.5 3-.3.5-4.2 2.2-8.7 4-4.6 1.7-8.3 3.5-8.3 3.9 0 .4-3.6 2.2-8 4-4.4 1.9-8 3.7-8 4.1 0 .5-2.1 1.6-4.7 2.6s-6.5 3.2-8.8 4.9c-2.2 1.7-6.9 4.8-10.5 7-3.8 2.2-11.3 8.6-17.9 15.2C28.9 201.9 23 207 22 207c-2.6 0-5 1.1-5 2.2 0 .6-1.5 2.8-3.2 4.9-10 11.6-12.1 17.1-11.9 31.3.1 9.6.6 13.5 2 14.6.4.3 1.9 2.9 3.4 5.8 2.6 4.9 20.2 24.3 21.7 23.9.4-.1 3.9 2.3 7.9 5.3s8 5.9 9 6.5c8.7 5.2 11.5 6.6 17.6 9 3.9 1.5 8.8 3.6 10.9 4.7 2.1 1.1 4.9 2.2 6.1 2.4 1.2.2 5.2 1.8 8.9 3.4 3.8 1.7 7 2.9 7.3 2.6.2-.2 3.7.7 7.6 2 4 1.4 8.6 2.6 10.3 2.9 1.8.2 5.6 1.1 8.5 1.9 3 .9 7.2 1.8 9.4 2.1 2.2.3 6.4 1.2 9.4 2s5.7 1.2 6.1 1c.3-.2 2.4 0 4.6.6 2.1.5 6.6 1.1 9.9 1.4 3.3.3 8.8 1 12.3 1.6 3.5.5 6.6.8 7 .5.4-.2 3.2 0 6.2.5s7.8 1 10.5 1c2.8 0 7.1.7 9.7 1.5 2.6.9 5.1 1.3 5.6 1 .4-.2 2.8 0 5.1.5 2.4.5 7.6 1.2 11.5 1.4 14.9 1 21.2 1.5 25.6 2 2.5.3 8.6.8 13.5 1.1 5 .4 10.6.8 12.5.9 11.8.9 31.8 2.3 33.5 2.2 5 0 23.6 1.4 25 1.9.8.3 1.5 1.2 1.5 2 0 1.8 3.9 1.8 6.5.1 1.1-.7 4.7-2.3 8-3.6 3.3-1.3 6.9-3.2 8-4.1 1.1-1 5.4-3.5 9.5-5.5 4.1-2.1 7.7-4.1 8-4.5.3-.5 3.9-2.7 8-5.1 4.1-2.3 7.7-4.5 8-4.9.3-.4 3.9-2.4 8-4.5s7.7-4.1 7.8-4.6c.2-.5.9-.9 1.4-.9.6 0 5.9-2.7 11.7-5.9 5.8-3.3 12.6-6.7 15.1-7.7s4.7-2.1 5-2.5c.3-.4 3.6-2.1 7.5-3.8 3.8-1.7 7.6-3.8 8.5-4.5.8-.7 5.1-2.6 9.5-4.1 4.4-1.6 8.2-3.2 8.5-3.6.3-.3 3.7-1.6 7.5-2.7 3.9-1.2 9.7-3 12.9-4.2 3.3-1.1 6.7-2 7.7-2s2-.4 2.4-.9c.3-.6 4-1.7 8.3-2.6 4.2-.9 8.5-2.1 9.5-2.6s5.4-1.5 9.8-2.2c4.3-.6 7.9-1.4 7.9-1.8 0-.4 3.6-1 8-1.4 4.4-.4 8-1.1 8-1.5 0-.5 3.8-1.1 8.5-1.5 4.7-.4 8.5-1.1 8.5-1.5 0-.5 2.8-1 6.3-1.2 3.4-.3 13.6-1.4 22.7-2.6 30.4-4.1 40.5-5.2 46.3-5.2 3.2 0 6.5-.4 7.5-.9 2.2-1.2 51.9-4 87.7-4.9 52.5-1.3 194.9-.4 226.5 1.4 8.4.4 25.3 1.3 37.5 2 15.3.8 60.3.6 61.7-.2 1.9-1.2 40.6-3.3 46.2-2.5 2.9.4 12.9.2 22.2-.5 15.9-1.2 23.2-2.2 41.4-5.8 11.3-2.2 12.4-2.3 12.5-.6 0 1.2 1.3 1.4 6.4 1.2 3.5-.1 6.9-.6 7.5-1.1.6-.5 4.2-1.4 8.1-2 3.8-.7 7.4-1.6 8-2 .5-.4 4.2-1.6 8-2.6 3.9-.9 7.9-2.3 9-2.9 1.1-.7 5.3-2.5 9.3-4.1 3.9-1.5 7.2-3.2 7.2-3.7 0-1.4 3.7-.9 5 .7 1.1 1.3 1.8 1.2 5.9-1.2 2.6-1.4 6-3.6 7.6-4.9l2.8-2.3-.1-11.5c-.1-6.3-.7-15.5-1.3-20.3-1.1-9.1-2.3-20.3-3.7-35.6l-.8-8.7-7.3-6.7c-4-3.7-8.7-7.4-10.5-8.4-1.7-.9-5.8-3.3-9.1-5.3s-6.6-3.6-7.4-3.6c-.7 0-4.7-1.8-8.7-4.1-4.1-2.2-7.4-3.7-7.4-3.4 0 .4-3.9-1.4-8.6-3.9-4.7-2.5-9-4.6-9.4-4.6-.5 0-4-1.8-7.9-4-3.9-2.2-7.7-4-8.6-4-.9 0-4.8-1.8-8.8-4.1-4-2.3-8-4.3-8.9-4.4-1-.2-4.6-2-8.1-3.9-3.5-2-7-3.6-7.7-3.6-1.2 0-6.8-2.6-25.1-11.7-3.7-1.8-7.2-3.3-7.8-3.3-.5 0-7.6-3.2-15.6-7-7.9-3.9-16.9-7.9-19.8-9-2.9-1.1-8-3.6-11.3-5.6-3.2-1.9-5.9-3.4-5.9-3.2 0 .2-3.4-1.3-7.5-3.3-4.1-2-13.6-6.6-21-10.2-7.4-3.6-16.8-7.5-20.8-8.6-4.1-1.1-9.8-2.9-12.7-4-2.9-1.1-5.5-1.8-5.8-1.5-.3.3-3.7-.4-7.6-1.6-3.9-1.1-7.5-1.9-7.9-1.6-.4.2-4.3-.3-8.7-1.3-4.4-.9-10.5-1.5-13.5-1.4zM1047.3 434c-2.9.4-7.1 1.7-9.5 2.8-2.4 1.2-7 3.1-10.3 4.3-3.3 1.2-6.9 2.9-8 3.9-1.1 1-5.1 3.4-9 5.4-8.7 4.6-19.6 11.4-22.7 14.2-1.3 1.2-5.3 4-9 6.2-3.6 2.3-7.5 4.8-8.5 5.6-2.6 2.3-15.9 12-22.3 16.3-3 2-7.1 5.1-9 6.8-1.9 1.8-6.6 5.1-10.3 7.4-3.7 2.3-7.6 5-8.7 5.9-3 2.8-4.2 3.6-9.5 6.6-2.7 1.6-5.2 3.2-5.5 3.5-.3.4-3.9 2.8-8 5.3-4.1 2.6-8.3 5.6-9.2 6.7-1 1.1-4.6 3.5-8 5.2-3.5 1.7-6.5 3.5-6.8 3.9-.3.4-3 2-6 3.5s-7.1 4-9 5.6c-2 1.5-6.7 4-10.5 5.5-3.9 1.5-7.2 3.1-7.5 3.5-.3.3-4 1.4-8.3 2.3-4.3.9-8.5 2-9.5 2.5-.9.5-4.4 1.2-7.7 1.6-3.3.4-6.4 1.1-7 1.5-.5.4-4.4 1.1-8.5 1.4-4.1.4-8.4 1.1-9.5 1.6-3.9 1.7-48.3 6.9-59.3 7-3.5 0-7.2.5-8.3 1-1.4.8-33.3 2.2-49.9 2.3-4.5 0-20.3-1.5-25.4-2.4-3.2-.6-6-.8-6.3-.6-.2.3-4.1-.4-8.5-1.4-4.5-1-8.5-1.6-8.8-1.4-.3.2-3.9-.5-8-1.6-4-1-8.2-1.9-9.2-1.9s-4.6-1.1-8-2.5c-3.5-1.4-7.2-2.7-8.5-2.9-1.2-.3-4.3-1.4-7-2.6-4.2-2-8.8-3.7-23.3-9-1.9-.7-6.9-2.7-11-4.4-4.1-1.7-8.2-3.2-9-3.2-.8-.1-4.1-1.4-7.3-2.8-3.3-1.5-7.1-2.8-8.5-3-1.5-.2-5.6-1.6-9.2-3.1-3.6-1.5-7.4-2.9-8.5-3-1.1-.2-5.3-1.5-9.4-2.9-4.1-1.4-7.6-2.4-7.9-2.2-.2.2-2.8-.4-5.7-1.4-3-1-7.3-2.1-9.7-2.4-2.4-.3-7.5-1.4-11.5-2.5-4-1-7.4-1.7-7.6-1.4-.3.2-3.7-.5-7.7-1.6s-7.6-1.8-8-1.6c-.4.2-3.8-.5-7.6-1.6-8.4-2.4-10.9-2.7-29.4-3.5-41.4-1.6-92.7-.7-95.4 1.7-.6.5-5 .9-9.8.9-4.8 0-8.8.4-8.8.9s-3.9 1.2-8.7 1.5c-11.6.7-22.2 2.1-25.3 3.4-1.4.5-5 1.3-8 1.7-3 .4-5.9 1.1-6.5 1.5-.5.4-3.9 1.3-7.5 1.9-3.6.7-7.8 1.9-9.5 2.6-1.6.8-5.9 2.4-9.5 3.5-3.6 1.2-6.7 2.5-7 2.9-.3.5-3.6 1.8-7.5 3.1-3.8 1.2-7.5 2.7-8.1 3.1-.6.5-4.4 2.1-8.5 3.4-4 1.4-7.5 2.8-7.8 3.3-.4.4-4.4 2.6-9.1 5-10.7 5.4-22.4 12.2-22.8 13.3-.2.5-4.4 3.4-9.3 6.4-4.9 3-9.7 6.1-10.6 6.9-1 .8-4.6 3.4-8 5.8-19 13.3-34.9 28.7-39.8 38.4-1.6 3.2-4.1 7.4-5.5 9.1-1.4 1.8-2.5 3.6-2.5 4 0 .5-1.4 2.8-3.1 5.3-1.7 2.5-4.6 7.2-6.4 10.5-1.8 3.3-4.7 8.4-6.3 11.3-1.6 2.9-3 5.8-3.1 6.5-.1.7-1 3.6-1.9 6.6-2 6.5-3.4 26.5-2 28.4.6.6 1.6 4.7 2.3 9 .7 4.2 1.7 7.7 2.1 7.7.5 0 .9.6.9 1.4 0 1.8 5.1 13.9 6.1 14.6.4.3 2 3.4 3.5 7s3.5 7.4 4.5 8.5c.9 1.1 3 4.9 4.6 8.5 1.6 3.6 3.6 7.2 4.4 8 .8.8 2.4 3.1 3.6 5.1 2.2 3.9 4.5 6.9 8 10.6 1.3 1.3 3.4 4.8 4.8 7.8 1.4 2.9 3.7 6.4 5.1 7.7 1.4 1.3 3.5 3.3 4.6 4.5 2.4 2.6 14 12 14.2 11.5 0-.2 3.9 1.8 8.5 4.3 4.7 2.6 9.2 4.8 10.1 5 1 .2 4.6 1.8 8.1 3.6s7.3 3.3 8.5 3.4c1.1.2 4.9 1.4 8.5 2.7 11.5 4.3 22.4 8 24.6 8.3 1.2.2 4.8 1.3 8 2.5s7.4 2.3 9.3 2.6c1.9.2 6.2 1 9.5 1.8 11 2.7 23 5.1 23.8 4.8.4-.1 3.6.5 7 1.4 3.4.9 7.8 1.7 9.8 1.9 2 .2 5.5.8 7.8 1.5 6.9 1.8 24.2 2.9 53.4 3.4 16.3.2 61.4-1.8 66.6-3 1.3-.3 6.9-1 12.5-1.5 5.6-.6 12.8-1.4 16.1-1.8 3.3-.5 10.5-1.4 16-2.1 5.5-.6 10.7-1.5 11.5-1.8.8-.3 4.4-1.1 8-1.8 14.2-2.8 39.3-9.4 39.8-10.6.2-.5.8-.6 1.3-.2.5.3.9.1.9-.4s3.3-2.1 7.2-3.7c4-1.5 8-3.3 8.8-4 .8-.6 3.1-1.7 5-2.5 1.9-.7 7.6-3.2 12.5-5.5 18.5-8.8 24.1-11.3 27.8-12.6 2-.7 3.7-1.6 3.7-2 0-.4 1-1.1 2.3-1.4 4-1.2 30.7-14.8 30.7-15.7 0-.4.5-.8 1.1-.8 1.7 0 14.2-5.1 15.9-6.5.8-.7 3.3-1.8 5.5-2.5 6.7-2.2 22.5-10 22.5-11.1 0-.7 1.1-.9 2.5-.7 2 .4 2.3.3 1.4-.8-1.8-2.2-.2-3.2 7.9-5 4.2-.9 8.2-2 8.7-2.4.6-.5 3.9-1.4 7.5-2 3.6-.7 7.3-1.7 8.4-2.2 3.4-1.8 27.6-5.5 41.9-6.4 4.8-.3 8.7-.9 8.7-1.3 0-1 45.9-3.5 60.5-3.4 6.1 0 16.2.4 22.5.8 11.9.8 20.6.8 30 .1 3-.2 8.3.3 11.7 1 3.4.8 8.1 1.6 10.5 1.9 2.4.2 5.6.9 7.1 1.4 1.6.6 4.5 1.3 6.7 1.6 2.1.2 6.3 1.4 9.4 2.5 3 1.2 6.6 2.3 8 2.6 1.3.2 5.7 1.8 9.7 3.4 4.1 1.6 7.9 3 8.5 3 .7 0 4.1 1.4 7.7 3 3.5 1.7 7.3 3.3 8.3 3.5 2.8.6 16.9 6.3 25.6 10.3 4.2 1.9 7.8 3.4 8 3.2.2-.2 3.2 1.2 6.8 3.2 3.6 2 8.1 4.1 10.1 4.7 2.1.7 6.3 3 9.5 5.3 3.2 2.2 6.3 4.1 6.9 4.2.5.1 1.5.4 2 .8 3.6 2.2 15 7.8 16 7.8.6 0 4.5 2.3 8.5 5.1 4.1 2.8 8.1 5.2 9 5.4.8.2 4.3 1.7 7.8 3.4 3.4 1.7 6.8 3.1 7.6 3.1.7 0 4.8 1.6 9.1 3.5 4.3 2 8 3.4 8.2 3.1.3-.3 2.9.6 5.8 1.9 2.9 1.2 6.8 2.6 8.6 3 1.9.4 6.3 1.6 9.9 2.7 3.6 1 8.5 2.1 11 2.3 2.5.3 6.1.7 8 1 5.3.7 40-3 41-4.4.3-.5 3.7-1.3 7.5-1.8 9.6-1.5 23.6-4.3 26-5.3 1.1-.5 4.9-1.3 8.5-1.9 3.6-.6 9.4-1.8 13-2.6 3.6-.8 7.7-1.5 9.3-1.5 1.5 0 2.7-.4 2.7-.8 0-.5 3.4-1.4 7.7-2 4.2-.7 8.1-1.6 8.7-2.1.6-.5 3.6-1.2 6.6-1.6 3-.3 7.5-1.2 10-2s7-1.7 10-2c3-.4 6-1.1 6.5-1.5.6-.4 4.5-1.1 8.8-1.5 4.2-.4 8-1.1 8.3-1.6.3-.5 3.9-.9 8-.9 4.3 0 7.4-.4 7.4-1s1.3-1 2.9-1c6.3 0 9.4-2.2 12.7-8.9.9-1.9 3.6-6.1 6-9.3 6.5-8.8 13.4-23.6 12.6-27-.1-.3.7-3.2 1.8-6.3 1.1-3.1 2.2-7.3 2.4-9.3.3-2 1.5-6.4 2.6-9.7 1.2-3.3 2.3-6.9 2.5-8 .2-1.1 1-3.9 1.9-6.3 2.4-6.6 3-20.5 3-70.7 0-33.7-.3-47.6-1.2-52-.8-3.3-1.8-9.5-2.4-13.8-.6-4.2-1.4-7.7-1.8-7.7-.5 0-1.1-3.6-1.5-8-.4-4.4-1.1-8-1.5-8-.4 0-1.1-3.5-1.5-7.7-.4-4.2-1.1-8.4-1.5-9.2-.5-.9-1.5-5-2.3-9.1-1.9-9.5-5.5-23-6.5-24.4-.5-.6-2.1-4.5-3.7-8.6-1.5-4.1-3.2-7.7-3.6-8-.5-.3-2.4-4-4.3-8.3-2-4.2-3.9-7.7-4.4-7.7-.5 0-1.7-1.8-2.7-4-1-2.2-2.1-4-2.5-4-.4 0-1.2-1.1-1.8-2.5-1.6-3.4-13.3-17.7-14-17-.3.3-1.2-.1-2.1-.9-2.4-2.1-14.8-8.6-15.3-8-.3.2-1.8 0-3.4-.6-1.5-.6-6.9-1.3-11.9-1.5-4.9-.3-13.3-.7-18.5-1.1-5.2-.3-12.2-.7-15.5-.9-14.7-.9-23.3-1.5-26.5-2-1.9-.3-6.4-.8-10-1-12.2-.8-19.5-1.5-25.4-2.5-3.2-.5-6.3-.7-6.7-.4-.5.3-3.5 0-6.6-.5-5.5-1-16.1-2-26.3-2.6-2.5-.1-6.4-.5-8.8-.9-2.3-.5-6.6-.9-9.5-1.1-13.8-.9-26.5-2.1-30.7-2.9-.8-.2-3.8 0-6.7.4z"/>
  </g>
</svg>
