<?xml version="1.0" encoding="UTF-8"?>
<svg width="1330px" height="870px" viewBox="0 0 1330 870" version="1.1" xmlns="http://www.w3.org/2000/svg" xmlns:xlink="http://www.w3.org/1999/xlink">
    <!-- Generator: Sketch 51.2 (57519) - http://www.bohemiancoding.com/sketch -->
    <title>heart-of-gold</title>
    <desc>Created with Sketch.</desc>
    <defs></defs>
    <g id="Page-1" stroke="none" stroke-width="1" fill="none" fill-rule="evenodd">
        <g id="heart-of-gold" transform="translate(1.000000, 1.000000)" fill-rule="nonzero" stroke="#57C003" stroke-width="2">
            <g id="Group" transform="translate(664.100000, 434.050000) scale(-1, 1) rotate(-180.000000) translate(-664.100000, -434.050000) translate(0.800000, 0.600000)">
                <path d="M966.2,866.8 C940.6,865.7 926.3,862.1 919.7,854.9 C918.5,853.7 914.9,850.6 911.6,848.2 C908.3,845.8 904.4,842.7 903.1,841.4 C901.7,840.1 898.2,837.2 895.3,835 C892.3,832.8 889.2,830.3 888.3,829.4 C887.4,828.5 884.5,826.3 881.7,824.5 C879,822.6 875.4,819.9 873.7,818.3 C872.1,816.7 867.8,813.6 864.2,811.3 C860.6,808.9 857.4,806.6 857,806 C856.5,805.4 856.2,805.4 856.2,806 C856.2,806.6 855.9,806.6 855.4,805.9 C854.4,804.4 841.1,796.2 831.7,791.4 C827.3,789.1 823.5,787 823.2,786.6 C822.9,786.2 819.6,784.5 815.7,782.7 C811.9,780.8 807.6,778.8 806.2,778 C804.8,777.3 800.8,775.9 797.2,774.9 C793.6,773.9 790.5,772.8 790.2,772.4 C789.9,772 786.3,770.7 782.2,769.5 C778.1,768.4 774,767 773.1,766.5 C772.2,766.1 769.3,765.4 766.6,765 C763.9,764.6 759.5,763.7 756.7,763 C754,762.2 749.2,761.3 746.2,760.9 C743.2,760.6 740.5,759.9 740.2,759.5 C739.1,757.9 710.3,755.3 657.2,752 C603.5,748.8 598.5,748.6 557.2,749.1 C533.3,749.4 511.5,749.7 508.7,749.9 C488.9,751.2 483.7,751.7 479.6,752.4 C477,752.9 474.4,753.1 473.8,752.9 C473.1,752.6 469.3,753.1 465.2,753.9 C461.1,754.7 457.4,755.1 457,754.9 C456.6,754.6 453.5,754.9 450.1,755.5 C446.7,756.1 442.5,756.7 440.8,756.7 C439.1,756.7 434.6,757.3 430.7,758.1 C426.9,758.8 423.4,759.1 423,758.9 C422.5,758.6 419.8,758.8 416.9,759.4 C414.1,760 409.2,760.7 406.2,760.9 C403.2,761.1 396,761.9 390.2,762.5 C384.4,763.2 377.7,763.9 375.2,764 C372.7,764.2 367.1,764.6 362.7,764.9 C349.7,765.9 335.3,766.6 325.7,766.6 C312.9,766.7 262.3,763.7 258.7,762.6 C257.1,762.1 252.2,761.3 247.9,761 C243.7,760.6 240,759.9 239.7,759.5 C239.4,759.1 236.1,758.4 232.2,758 C228.3,757.6 225,756.9 224.7,756.5 C224.4,756.1 220.4,755.1 215.7,754.4 C211,753.7 207.2,752.9 207.2,752.5 C207.2,752.2 203.6,751.3 199.2,750.6 C194.8,749.8 191.2,748.9 191.2,748.5 C191.2,748.1 187.5,747 182.9,746 C178.4,745.1 174.2,743.9 173.6,743.3 C172.9,742.8 169.1,741.5 165.1,740.4 C161,739.3 157.3,738 156.7,737.5 C156.2,737.1 153,735.9 149.8,735 C146.6,734 141.8,732.3 139.3,731 C136.8,729.8 132.9,728.2 130.7,727.5 C128.5,726.8 125.8,725.6 124.7,725 C123.6,724.3 119.6,722.7 115.7,721.5 C111.9,720.2 108.5,718.9 108.2,718.5 C107.9,718 104,716.3 99.5,714.5 C94.9,712.8 91.2,711 91.2,710.6 C91.2,710.2 87.6,708.4 83.2,706.6 C78.8,704.7 75.2,702.9 75.2,702.5 C75.2,702 73.1,700.9 70.5,699.9 C67.9,698.9 64,696.7 61.7,695 C59.5,693.3 54.8,690.2 51.2,688 C47.4,685.8 39.9,679.4 33.3,672.8 C27.1,666.6 21.2,661.5 20.2,661.5 C17.6,661.5 15.2,660.4 15.2,659.3 C15.2,658.7 13.7,656.5 12,654.4 C2,642.8 -0.1,637.3 0.1,623.1 C0.2,613.5 0.7,609.6 2.1,608.5 C2.5,608.2 4,605.6 5.5,602.7 C8.1,597.8 25.7,578.4 27.2,578.8 C27.6,578.9 31.1,576.5 35.1,573.5 C39.1,570.5 43.1,567.6 44.1,567 C52.8,561.8 55.6,560.4 61.7,558 C65.6,556.5 70.5,554.4 72.6,553.3 C74.7,552.2 77.5,551.1 78.7,550.9 C79.9,550.7 83.9,549.1 87.6,547.5 C91.4,545.8 94.6,544.6 94.9,544.9 C95.1,545.1 98.6,544.2 102.5,542.9 C106.5,541.5 111.1,540.3 112.8,540 C114.6,539.8 118.4,538.9 121.3,538.1 C124.3,537.2 128.5,536.3 130.7,536 C132.9,535.7 137.1,534.8 140.1,534 C143.1,533.2 145.8,532.8 146.2,533 C146.5,533.2 148.6,533 150.8,532.4 C152.9,531.9 157.4,531.3 160.7,531 C164,530.7 169.5,530 173,529.4 C176.5,528.9 179.6,528.6 180,528.9 C180.4,529.1 183.2,528.9 186.2,528.4 C189.2,527.9 194,527.4 196.7,527.4 C199.5,527.4 203.8,526.7 206.4,525.9 C209,525 211.5,524.6 212,524.9 C212.4,525.1 214.8,524.9 217.1,524.4 C219.5,523.9 224.7,523.2 228.6,523 C243.5,522 249.8,521.5 254.2,521 C256.7,520.7 262.8,520.2 267.7,519.9 C272.7,519.5 278.3,519.1 280.2,519 C292,518.1 312,516.7 313.7,516.8 C318.7,516.8 337.3,515.4 338.7,514.9 C339.5,514.6 340.2,513.7 340.2,512.9 C340.2,511.1 344.1,511.1 346.7,512.8 C347.8,513.5 351.4,515.1 354.7,516.4 C358,517.7 361.6,519.6 362.7,520.5 C363.8,521.5 368.1,524 372.2,526 C376.3,528.1 379.9,530.1 380.2,530.5 C380.5,531 384.1,533.2 388.2,535.6 C392.3,537.9 395.9,540.1 396.2,540.5 C396.5,540.9 400.1,542.9 404.2,545 C408.3,547.1 411.9,549.1 412,549.6 C412.2,550.1 412.9,550.5 413.4,550.5 C414,550.5 419.3,553.2 425.1,556.4 C430.9,559.7 437.7,563.1 440.2,564.1 C442.7,565.1 444.9,566.2 445.2,566.6 C445.5,567 448.8,568.7 452.7,570.4 C456.5,572.1 460.3,574.2 461.2,574.9 C462,575.6 466.3,577.5 470.7,579 C475.1,580.6 478.9,582.2 479.2,582.6 C479.5,582.9 482.9,584.2 486.7,585.3 C490.6,586.5 496.4,588.3 499.6,589.5 C502.9,590.6 506.3,591.5 507.3,591.5 C508.3,591.5 509.3,591.9 509.7,592.4 C510,593 513.7,594.1 518,595 C522.2,595.9 526.5,597.1 527.5,597.6 C528.5,598.1 532.9,599.1 537.3,599.8 C541.6,600.4 545.2,601.2 545.2,601.6 C545.2,602 548.8,602.6 553.2,603 C557.6,603.4 561.2,604.1 561.2,604.5 C561.2,605 565,605.6 569.7,606 C574.4,606.4 578.2,607.1 578.2,607.5 C578.2,608 581,608.5 584.5,608.7 C587.9,609 598.1,610.1 607.2,611.3 C637.6,615.4 647.7,616.5 653.5,616.5 C656.7,616.5 660,616.9 661,617.4 C663.2,618.6 712.9,621.4 748.7,622.3 C801.2,623.6 943.6,622.7 975.2,620.9 C983.6,620.5 1000.5,619.6 1012.7,618.9 C1028,618.1 1073,618.3 1074.4,619.1 C1076.3,620.3 1115,622.4 1120.6,621.6 C1123.5,621.2 1133.5,621.4 1142.8,622.1 C1158.7,623.3 1166,624.3 1184.2,627.9 C1195.5,630.1 1196.6,630.2 1196.7,628.5 C1196.7,627.3 1198,627.1 1203.1,627.3 C1206.6,627.4 1210,627.9 1210.6,628.4 C1211.2,628.9 1214.8,629.8 1218.7,630.4 C1222.5,631.1 1226.1,632 1226.7,632.4 C1227.2,632.8 1230.9,634 1234.7,635 C1238.6,635.9 1242.6,637.3 1243.7,637.9 C1244.8,638.6 1249,640.4 1253,642 C1256.9,643.5 1260.2,645.2 1260.2,645.7 C1260.2,647.1 1263.9,646.6 1265.2,645 C1266.3,643.7 1267,643.8 1271.1,646.2 C1273.7,647.6 1277.1,649.8 1278.7,651.1 L1281.5,653.4 L1281.4,664.9 C1281.3,671.2 1280.7,680.4 1280.1,685.2 C1279,694.3 1277.8,705.5 1276.4,720.8 L1275.6,729.5 L1268.3,736.2 C1264.3,739.9 1259.6,743.6 1257.8,744.6 C1256.1,745.5 1252,747.9 1248.7,749.9 C1245.4,751.9 1242.1,753.5 1241.3,753.5 C1240.6,753.5 1236.6,755.3 1232.6,757.6 C1228.5,759.8 1225.2,761.3 1225.2,761 C1225.2,760.6 1221.3,762.4 1216.6,764.9 C1211.9,767.4 1207.6,769.5 1207.2,769.5 C1206.7,769.5 1203.2,771.3 1199.3,773.5 C1195.4,775.7 1191.6,777.5 1190.7,777.5 C1189.8,777.5 1185.9,779.3 1181.9,781.6 C1177.9,783.9 1173.9,785.9 1173,786 C1172,786.2 1168.4,788 1164.9,789.9 C1161.4,791.9 1157.9,793.5 1157.2,793.5 C1156,793.5 1150.4,796.1 1132.1,805.2 C1128.4,807 1124.9,808.5 1124.3,808.5 C1123.8,808.5 1116.7,811.7 1108.7,815.5 C1100.8,819.4 1091.8,823.4 1088.9,824.5 C1086,825.6 1080.9,828.1 1077.6,830.1 C1074.4,832 1071.7,833.5 1071.7,833.3 C1071.7,833.1 1068.3,834.6 1064.2,836.6 C1060.1,838.6 1050.6,843.2 1043.2,846.8 C1035.8,850.4 1026.4,854.3 1022.4,855.4 C1018.3,856.5 1012.6,858.3 1009.7,859.4 C1006.8,860.5 1004.2,861.2 1003.9,860.9 C1003.6,860.6 1000.2,861.3 996.3,862.5 C992.4,863.6 988.8,864.4 988.4,864.1 C988,863.9 984.1,864.4 979.7,865.4 C975.3,866.3 969.2,866.9 966.2,866.8 Z" id="Shape"></path>
                <path d="M1045.5,434.5 C1042.6,434.1 1038.4,432.8 1036,431.7 C1033.6,430.5 1029,428.6 1025.7,427.4 C1022.4,426.2 1018.8,424.5 1017.7,423.5 C1016.6,422.5 1012.6,420.1 1008.7,418.1 C1000,413.5 989.1,406.7 986,403.9 C984.7,402.7 980.7,399.9 977,397.7 C973.4,395.4 969.5,392.9 968.5,392.1 C965.9,389.8 952.6,380.1 946.2,375.8 C943.2,373.8 939.1,370.7 937.2,369 C935.3,367.2 930.6,363.9 926.9,361.6 C923.2,359.3 919.3,356.6 918.2,355.7 C915.2,352.9 914,352.1 908.7,349.1 C906,347.5 903.5,345.9 903.2,345.6 C902.9,345.2 899.3,342.8 895.2,340.3 C891.1,337.7 886.9,334.7 886,333.6 C885,332.5 881.4,330.1 878,328.4 C874.5,326.7 871.5,324.9 871.2,324.5 C870.9,324.1 868.2,322.5 865.2,321 C862.2,319.5 858.1,317 856.2,315.4 C854.2,313.9 849.5,311.4 845.7,309.9 C841.8,308.4 838.5,306.8 838.2,306.4 C837.9,306.1 834.2,305 829.9,304.1 C825.6,303.2 821.4,302.1 820.4,301.6 C819.5,301.1 816,300.4 812.7,300 C809.4,299.6 806.3,298.9 805.7,298.5 C805.2,298.1 801.3,297.4 797.2,297.1 C793.1,296.7 788.8,296 787.7,295.5 C783.8,293.8 739.4,288.6 728.4,288.5 C724.9,288.5 721.2,288 720.1,287.5 C718.7,286.7 686.8,285.3 670.2,285.2 C665.7,285.2 649.9,286.7 644.8,287.6 C641.6,288.2 638.8,288.4 638.5,288.2 C638.3,287.9 634.4,288.6 630,289.6 C625.5,290.6 621.5,291.2 621.2,291 C620.9,290.8 617.3,291.5 613.2,292.6 C609.2,293.6 605,294.5 604,294.5 C603,294.5 599.4,295.6 596,297 C592.5,298.4 588.8,299.7 587.5,299.9 C586.3,300.2 583.2,301.3 580.5,302.5 C576.3,304.5 571.7,306.2 557.2,311.5 C555.3,312.2 550.3,314.2 546.2,315.9 C542.1,317.6 538,319.1 537.2,319.1 C536.4,319.2 533.1,320.5 529.9,321.9 C526.6,323.4 522.8,324.7 521.4,324.9 C519.9,325.1 515.8,326.5 512.2,328 C508.6,329.5 504.8,330.9 503.7,331 C502.6,331.2 498.4,332.5 494.3,333.9 C490.2,335.3 486.7,336.3 486.4,336.1 C486.2,335.9 483.6,336.5 480.7,337.5 C477.7,338.5 473.4,339.6 471,339.9 C468.6,340.2 463.5,341.3 459.5,342.4 C455.5,343.4 452.1,344.1 451.9,343.8 C451.6,343.6 448.2,344.3 444.2,345.4 C440.2,346.5 436.6,347.2 436.2,347 C435.8,346.8 432.4,347.5 428.6,348.6 C420.2,351 417.7,351.3 399.2,352.1 C357.8,353.7 306.5,352.8 303.8,350.4 C303.2,349.9 298.8,349.5 294,349.5 C289.2,349.5 285.2,349.1 285.2,348.6 C285.2,348.1 281.3,347.4 276.5,347.1 C264.9,346.4 254.3,345 251.2,343.7 C249.8,343.2 246.2,342.4 243.2,342 C240.2,341.6 237.3,340.9 236.7,340.5 C236.2,340.1 232.8,339.2 229.2,338.6 C225.6,337.9 221.4,336.7 219.7,336 C218.1,335.2 213.8,333.6 210.2,332.5 C206.6,331.3 203.5,330 203.2,329.6 C202.9,329.1 199.6,327.8 195.7,326.5 C191.9,325.3 188.2,323.8 187.6,323.4 C187,322.9 183.2,321.3 179.1,320 C175.1,318.6 171.6,317.2 171.3,316.7 C170.9,316.3 166.9,314.1 162.2,311.7 C151.5,306.3 139.8,299.5 139.4,298.4 C139.2,297.9 135,295 130.1,292 C125.2,289 120.4,285.9 119.5,285.1 C118.5,284.3 114.9,281.7 111.5,279.3 C92.5,266 76.6,250.6 71.7,240.9 C70.1,237.7 67.6,233.5 66.2,231.8 C64.8,230 63.7,228.2 63.7,227.8 C63.7,227.3 62.3,225 60.6,222.5 C58.9,220 56,215.3 54.2,212 C52.4,208.7 49.5,203.6 47.9,200.7 C46.3,197.8 44.9,194.9 44.8,194.2 C44.7,193.5 43.8,190.6 42.9,187.6 C40.9,181.1 39.5,161.1 40.9,159.2 C41.5,158.6 42.5,154.5 43.2,150.2 C43.9,146 44.9,142.5 45.3,142.5 C45.8,142.5 46.2,141.9 46.2,141.1 C46.2,139.3 51.3,127.2 52.3,126.5 C52.7,126.2 54.3,123.1 55.8,119.5 C57.3,115.9 59.3,112.1 60.3,111 C61.2,109.9 63.3,106.1 64.9,102.5 C66.5,98.9 68.5,95.3 69.3,94.5 C70.1,93.7 71.7,91.4 72.9,89.4 C75.1,85.5 77.4,82.5 80.9,78.8 C82.2,77.5 84.3,74 85.7,71 C87.1,68.1 89.4,64.6 90.8,63.3 C92.2,62 94.3,60 95.4,58.8 C97.8,56.2 109.4,46.8 109.6,47.3 C109.6,47.5 113.5,45.5 118.1,43 C122.8,40.4 127.3,38.2 128.2,38 C129.2,37.8 132.8,36.2 136.3,34.4 C139.8,32.6 143.6,31.1 144.8,31 C145.9,30.8 149.7,29.6 153.3,28.3 C164.8,24 175.7,20.3 177.9,20 C179.1,19.8 182.7,18.7 185.9,17.5 C189.1,16.3 193.3,15.2 195.2,14.9 C197.1,14.7 201.4,13.9 204.7,13.1 C215.7,10.4 227.7,8 228.5,8.3 C228.9,8.4 232.1,7.8 235.5,6.9 C238.9,6 243.3,5.2 245.3,5 C247.3,4.8 250.8,4.2 253.1,3.5 C260,1.7 277.3,0.6 306.5,0.1 C322.8,-0.1 367.9,1.9 373.1,3.1 C374.4,3.4 380,4.1 385.6,4.6 C391.2,5.2 398.4,6 401.7,6.4 C405,6.9 412.2,7.8 417.7,8.5 C423.2,9.1 428.4,10 429.2,10.3 C430,10.6 433.6,11.4 437.2,12.1 C451.4,14.9 476.5,21.5 477,22.7 C477.2,23.2 477.8,23.3 478.3,22.9 C478.8,22.6 479.2,22.8 479.2,23.3 C479.2,23.8 482.5,25.4 486.4,27 C490.4,28.5 494.4,30.3 495.2,31 C496,31.6 498.3,32.7 500.2,33.5 C502.1,34.2 507.8,36.7 512.7,39 C531.2,47.8 536.8,50.3 540.5,51.6 C542.5,52.3 544.2,53.2 544.2,53.6 C544.2,54 545.2,54.7 546.5,55 C550.5,56.2 577.2,69.8 577.2,70.7 C577.2,71.1 577.7,71.5 578.3,71.5 C580,71.5 592.5,76.6 594.2,78 C595,78.7 597.5,79.8 599.7,80.5 C606.4,82.7 622.2,90.5 622.2,91.6 C622.2,92.3 623.3,92.5 624.7,92.3 C626.7,91.9 627,92 626.1,93.1 C624.3,95.3 625.9,96.3 634,98.1 C638.2,99 642.2,100.1 642.7,100.5 C643.3,101 646.6,101.9 650.2,102.5 C653.8,103.2 657.5,104.2 658.6,104.7 C662,106.5 686.2,110.2 700.5,111.1 C705.3,111.4 709.2,112 709.2,112.4 C709.2,113.4 755.1,115.9 769.7,115.8 C775.8,115.8 785.9,115.4 792.2,115 C804.1,114.2 812.8,114.2 822.2,114.9 C825.2,115.1 830.5,114.6 833.9,113.9 C837.3,113.1 842,112.3 844.4,112 C846.8,111.8 850,111.1 851.5,110.6 C853.1,110 856,109.3 858.2,109 C860.3,108.8 864.5,107.6 867.6,106.5 C870.6,105.3 874.2,104.2 875.6,103.9 C876.9,103.7 881.3,102.1 885.3,100.5 C889.4,98.9 893.2,97.5 893.8,97.5 C894.5,97.5 897.9,96.1 901.5,94.5 C905,92.8 908.8,91.2 909.8,91 C912.6,90.4 926.7,84.7 935.4,80.7 C939.6,78.8 943.2,77.3 943.4,77.5 C943.6,77.7 946.6,76.3 950.2,74.3 C953.8,72.3 958.3,70.2 960.3,69.6 C962.4,68.9 966.6,66.6 969.8,64.3 C973,62.1 976.1,60.2 976.7,60.1 C977.2,60 978.2,59.7 978.7,59.3 C982.3,57.1 993.7,51.5 994.7,51.5 C995.3,51.5 999.2,49.2 1003.2,46.4 C1007.3,43.6 1011.3,41.2 1012.2,41 C1013,40.8 1016.5,39.3 1020,37.6 C1023.4,35.9 1026.8,34.5 1027.6,34.5 C1028.3,34.5 1032.4,32.9 1036.7,31 C1041,29 1044.7,27.6 1044.9,27.9 C1045.2,28.2 1047.8,27.3 1050.7,26 C1053.6,24.8 1057.5,23.4 1059.3,23 C1061.2,22.6 1065.6,21.4 1069.2,20.3 C1072.8,19.3 1077.7,18.2 1080.2,18 C1082.7,17.7 1086.3,17.3 1088.2,17 C1093.5,16.3 1128.2,20 1129.2,21.4 C1129.5,21.9 1132.9,22.7 1136.7,23.2 C1146.3,24.7 1160.3,27.5 1162.7,28.5 C1163.8,29 1167.6,29.8 1171.2,30.4 C1174.8,31 1180.6,32.2 1184.2,33 C1187.8,33.8 1191.9,34.5 1193.5,34.5 C1195,34.5 1196.2,34.9 1196.2,35.3 C1196.2,35.8 1199.6,36.7 1203.9,37.3 C1208.1,38 1212,38.9 1212.6,39.4 C1213.2,39.9 1216.2,40.6 1219.2,41 C1222.2,41.3 1226.7,42.2 1229.2,43 C1231.7,43.8 1236.2,44.7 1239.2,45 C1242.2,45.4 1245.2,46.1 1245.7,46.5 C1246.3,46.9 1250.2,47.6 1254.5,48 C1258.7,48.4 1262.5,49.1 1262.8,49.6 C1263.1,50.1 1266.7,50.5 1270.8,50.5 C1275.1,50.5 1278.2,50.9 1278.2,51.5 C1278.2,52.1 1279.5,52.5 1281.1,52.5 C1287.4,52.5 1290.5,54.7 1293.8,61.4 C1294.7,63.3 1297.4,67.5 1299.8,70.7 C1306.3,79.5 1313.2,94.3 1312.4,97.7 C1312.3,98 1313.1,100.9 1314.2,104 C1315.3,107.1 1316.4,111.3 1316.6,113.3 C1316.9,115.3 1318.1,119.7 1319.2,123 C1320.4,126.3 1321.5,129.9 1321.7,131 C1321.9,132.1 1322.7,134.9 1323.6,137.3 C1326,143.9 1326.6,157.8 1326.6,208 C1326.6,241.7 1326.3,255.6 1325.4,260 C1324.6,263.3 1323.6,269.5 1323,273.8 C1322.4,278 1321.6,281.5 1321.2,281.5 C1320.7,281.5 1320.1,285.1 1319.7,289.5 C1319.3,293.9 1318.6,297.5 1318.2,297.5 C1317.8,297.5 1317.1,301 1316.7,305.2 C1316.3,309.4 1315.6,313.6 1315.2,314.4 C1314.7,315.3 1313.7,319.4 1312.9,323.5 C1311,333 1307.4,346.5 1306.4,347.9 C1305.9,348.5 1304.3,352.4 1302.7,356.5 C1301.2,360.6 1299.5,364.2 1299.1,364.5 C1298.6,364.8 1296.7,368.5 1294.8,372.8 C1292.8,377 1290.9,380.5 1290.4,380.5 C1289.9,380.5 1288.7,382.3 1287.7,384.5 C1286.7,386.7 1285.6,388.5 1285.2,388.5 C1284.8,388.5 1284,389.6 1283.4,391 C1281.8,394.4 1270.1,408.7 1269.4,408 C1269.1,407.7 1268.2,408.1 1267.3,408.9 C1264.9,411 1252.5,417.5 1252,416.9 C1251.7,416.7 1250.2,416.9 1248.6,417.5 C1247.1,418.1 1241.7,418.8 1236.7,419 C1231.8,419.3 1223.4,419.7 1218.2,420.1 C1213,420.4 1206,420.8 1202.7,421 C1188,421.9 1179.4,422.5 1176.2,423 C1174.3,423.3 1169.8,423.8 1166.2,424 C1154,424.8 1146.7,425.5 1140.8,426.5 C1137.6,427 1134.5,427.2 1134.1,426.9 C1133.6,426.6 1130.6,426.9 1127.5,427.4 C1122,428.4 1111.4,429.4 1101.2,430 C1098.7,430.1 1094.8,430.5 1092.4,430.9 C1090.1,431.4 1085.8,431.8 1082.9,432 C1069.1,432.9 1056.4,434.1 1052.2,434.9 C1051.4,435.1 1048.4,434.9 1045.5,434.5 Z" id="Shape"></path>
            </g>
        </g>
    </g>
</svg>