<?xml version="1.0" encoding="UTF-8"?>
<svg width="467px" height="385px" viewBox="0 0 467 385" version="1.1" xmlns="http://www.w3.org/2000/svg" xmlns:xlink="http://www.w3.org/1999/xlink">
    <!-- Generator: Sketch 51.2 (57519) - http://www.bohemiancoding.com/sketch -->
    <title>Infinite-improbability-drive</title>
    <desc>Created with Sketch.</desc>
    <defs></defs>
    <g id="Page-1" stroke="none" stroke-width="1" fill="none" fill-rule="evenodd">
        <g id="Infinite-improbability-drive" transform="translate(-4.000000, 1.000000)" stroke="#57C003" stroke-width="2">
            <g id="Group">
                <path d="M138.512791,0 C81.8849023,0 42,40.4983535 42,81.7494186 C42,135.890009 71.1926953,165.261628 121.325581,165.261628 C176.904609,165.261628 227.093023,105.326744 227.093023,105.326744 C227.093023,105.326744 284.854386,165.261628 341.674419,165.261628 C385.962772,165.261628 421,134.826165 421,85.3490372 C421,32.9712372 381.23056,3.96627907 334.623256,3.96627907 C291.383763,3.96627907 249.714916,62.1383721 249.714916,62.1383721 C249.714916,62.1383721 191.219351,0 138.509265,0 L138.512791,0 Z M319.348674,31.8765442 C358.663314,31.8765442 405.725419,64.8680535 405.725419,96.8071767 C405.725419,123.353042 382.252098,141.463953 359.305851,141.463953 C318.549249,141.463953 256.77313,68.969186 256.77313,68.969186 C256.77313,68.969186 283.231737,31.8765442 319.3522,31.8765442 L319.348674,31.8765442 Z M112.511628,36.3540326 C166.194774,36.3540326 220.04186,98.4924047 220.04186,98.4924047 C220.04186,98.4924047 183.887905,137.714498 147.767442,137.714498 C101.988649,137.714498 57.6447674,112.730465 57.6447674,77.5592651 C57.6447674,47.7822047 89.5653814,36.3540326 112.511628,36.3540326 Z" id="path19510" fill-rule="nonzero"></path>
                <text id="Infinite-Improbabili" font-family="Arial-Black, Arial Black" font-size="72" font-weight="700" line-spacing="75" letter-spacing="-4.5" fill="#9B9B9B" fill-opacity="0">
                    <tspan x="109.652344" y="244">Infinite</tspan>
                    <tspan x="0" y="319">Improbability</tspan>
                    <tspan x="141.873047" y="394">Drive</tspan>
                </text>
            </g>
        </g>
    </g>
</svg>