<svg width="898" height="962" viewBox="0 0 898 962" xmlns="http://www.w3.org/2000/svg">
  <title>
    manifest
  </title>
  <path d="M129 769h256v64H129v-64zm320-384H129v64h320v-64zm128 192V449L385 641l192 192V705h320V577H577zm-288-64H129v64h160v-64zM129 705h160v-64H129v64zm576 64h64v128c-1 18-7 33-19 45s-27 18-45 19H65c-35 0-64-29-64-64V193c0-35 29-64 64-64h192C257 58 314 1 385 1s128 57 128 128h192c35 0 64 29 64 64v320h-64V321H65v576h640V769zM129 257h512c0-35-29-64-64-64h-64c-35 0-64-29-64-64s-29-64-64-64-64 29-64 64-29 64-64 64h-64c-35 0-64 29-64 64z" fill-rule="nonzero" stroke="#57C003" stroke-width="2" fill="none"/>
</svg>
