<?xml version="1.0" encoding="UTF-8"?>
<svg width="603px" height="656px" viewBox="0 0 603 656" version="1.1" xmlns="http://www.w3.org/2000/svg" xmlns:xlink="http://www.w3.org/1999/xlink">
    <!-- Generator: Sketch 51.2 (57519) - http://www.bohemiancoding.com/sketch -->
    <title>marvin</title>
    <desc>Created with Sketch.</desc>
    <defs></defs>
    <g id="Page-1" stroke="none" stroke-width="1" fill="none" fill-rule="evenodd">
        <g id="marvin" transform="translate(1.000000, 0.000000)" fill-rule="nonzero" stroke="#57C003" stroke-width="2">
            <g id="Group" transform="translate(300.800000, 327.500000) scale(-1, 1) rotate(-180.000000) translate(-300.800000, -327.500000) translate(0.800000, 0.500000)">
                <path d="M212.3,650.4 C209,644.9 205,617.3 206.2,608.3 C206.7,605.2 207.2,602.3 207.5,601.8 C207.8,601.4 209,596.3 210.1,590.6 C212.2,580.5 212.2,580.2 210.4,577.1 C208.6,574.1 207.8,567 207.9,556.5 C208.1,535.8 208.6,523.2 209.3,519 C209.8,516.3 210.4,498.5 210.6,479.5 C210.9,460.5 211.4,438.3 211.7,430 C212.3,416 212.6,414.6 215.4,409 C218.8,402.2 222,397.6 226.9,392.4 C229.3,389.9 230.5,387.5 230.9,384.7 C231.4,380.8 231.3,380.6 227.4,378.6 C220.9,375.3 218.8,371.4 218.2,361.5 L217.7,353 L209,352.5 C203.1,352.1 199.8,351.4 198.5,350.4 C196.4,348.5 180.3,346 172.2,346.2 C162.3,346.6 124.8,344.5 121.4,343.4 C119.7,342.8 117.7,341.4 117.1,340.3 C116.5,339.2 115.8,332.4 115.5,325.2 L114.9,312.1 L110.8,320.6 C106.8,328.7 106.8,329.1 108.1,332.5 C110.1,337.4 109.9,349.9 107.7,356.6 C105.4,363.6 101.7,370.9 99.6,372.6 C97.7,374.2 90.3,389 88.2,395.4 C87.2,398.6 85.4,400.9 81.3,404.2 C78.2,406.7 73,411.9 69.6,415.9 C66.3,419.8 60,426.7 55.6,431.2 L47.7,439.4 L41,440.1 C37.4,440.5 33.3,440.5 32,440.2 C30.8,439.8 27,437.1 23.8,434.1 C20.6,431 17.6,428.4 17.3,428.3 C16.8,428 10.1,420.4 3.6,412.7 C0.3,408.8 -0.4,404.2 0.4,392.2 C1.7,372.9 3.5,367.5 14.2,349.5 C22.7,335.3 22.4,336.2 20.6,332 C17.5,324.5 22.7,315.1 33.6,308.3 C37.1,306.1 38,304.7 42.2,294 C46.8,282.4 46.9,282.1 45.1,280.1 C44.1,279 43,277.3 42.6,276.3 C42.3,275.3 41.5,274.5 40.8,274.5 C40.1,274.5 38.6,272.4 37.6,269.8 C34.8,262.5 35.2,244.2 38.5,230.5 C39.9,224.7 41.3,218.9 41.5,217.5 C44.4,203.6 52.1,186.5 59.2,178.8 C61.9,175.8 64.2,172.9 64.2,172.4 C64.2,171.9 65,171.5 66,171.5 C67.9,171.4 71.6,167 70.8,165.6 C70.5,165.1 71.8,162.3 73.8,159.3 C75.8,156.4 78.1,152.5 78.8,150.8 C80.4,147.1 81.2,146.9 92.2,148.5 C95.8,149 103.9,150.1 110.2,150.9 C135.1,154.3 139.1,155.3 148.4,160.3 C155.2,163.9 158.6,166.6 163.3,171.8 C171.2,180.6 172.7,185.2 171.1,195 C169.1,207.6 171,211.5 177.5,208 C180.3,206.5 182.3,206.3 188.8,206.7 L196.7,207.3 L196.7,182.1 L196.8,156.8 L191.7,156.6 C189,156.5 183.6,156 179.7,155.4 C175.9,154.9 169.1,154.2 164.7,153.9 C160.3,153.7 151.8,152.8 145.7,152 C139.7,151.3 130.4,150.1 125.2,149.5 C106.9,147.4 89.6,143.6 73.3,138.1 C63.8,135 63.8,135 53.1,124.3 C41,112.1 38.4,107.6 37,96.7 C33.8,70.6 37.3,38.1 45.5,17.6 L47.7,12.2 L55.7,10 C62.6,8 68.6,7.5 100.7,6.2 C121.1,5.4 149.4,4.6 163.7,4.5 C178,4.4 191.5,4 193.7,3.5 C195.9,3.1 201.7,2.6 206.5,2.6 C211.3,2.6 215.7,2.3 216.1,2 C217.1,1.4 281.8,-0.1 297.2,0.1 C354.4,0.9 403.1,2.6 464.7,6.1 C480.1,7 496.8,7.9 501.7,8.2 C509.6,8.6 528.9,10.8 549.2,13.5 C552.8,14 560.7,14.9 566.7,15.5 C593.4,18 595.4,19.2 597.8,34.7 C599.3,44.2 599.8,77.9 598.6,92 C597.3,108.4 588.6,127.4 576.8,139.6 C574.8,141.7 572.7,142.4 566,143.3 C561.4,144 554.9,145 551.5,145.6 C545.3,146.7 545.2,146.7 545.2,150 C545.2,151.9 545.6,154.5 546.2,155.9 C546.7,157.4 546.9,160.7 546.5,163.3 C546,167.2 545.2,168.7 541.5,172.1 C537.6,175.9 537.3,176.5 538.2,179 C538.7,180.4 539.2,184.9 539.2,188.9 C539.2,192.9 539.6,198.4 540.1,201.1 C541.5,208.7 542.6,233.9 541.5,233.2 C541,232.9 540.5,227.7 540.3,221.8 C540.2,215.9 539.7,207.2 539.1,202.5 C538.6,197.8 538,192.7 537.9,191 C537.6,188.1 537.5,188 532.7,188 C523.8,188.1 524,187.8 524.6,201.2 C524.9,207.7 525.6,218.6 526.2,225.5 C527.4,241.1 527.4,240.5 526.2,240.5 C525.7,240.5 525.5,239.8 525.8,239 C526.1,238.2 525.7,236.6 524.8,235.4 L523.3,233.2 L522.6,236 C522.1,237.9 522.4,239 523.3,239.6 C524.1,240.1 525.2,240.8 525.9,241.2 C528.2,242.8 529.6,269 527.4,270.4 C526.6,270.9 526.1,274.5 526.8,274.5 C526.9,274.5 527.8,273.8 528.6,273 C529.9,271.7 531.1,271.6 535.2,272.3 C538,272.8 540.5,272.9 540.7,272.4 C541.5,271.3 541.4,239.3 540.7,237.4 C540.3,236.4 540.5,235.4 541,235.1 C542.5,234.2 543.1,241.6 542.6,258.6 C542.4,267.3 542.7,275.6 543.2,276.9 C544.3,279.8 546.8,295.1 548.1,306.5 C549.3,317.9 548.3,326.5 545.7,326.5 C544.9,326.5 544.2,327.2 544.2,328.1 C544.2,328.9 544.6,329.4 545.2,329 C547.2,327.8 544,334.4 540.7,338.3 C535.8,343.9 529.6,345.9 516.8,345.6 C512,345.5 511.2,345.3 512.1,344.2 C512.7,343.4 512.9,342.6 512.6,342.2 C512.3,341.9 513,341.2 514.1,340.5 C516.7,339.2 516.8,335.9 514.5,334.7 C512.4,333.6 497.3,332.6 476.5,332.1 C462.3,331.8 461.2,331.9 461.2,333.5 C461.2,334.5 460.7,335.5 460.1,335.7 C459.4,335.9 459.2,337 459.6,338.3 C460.3,340.3 461,340.5 469,340.6 C496.7,341 513.6,342.1 510.2,343.3 C509.4,343.6 508.3,344.4 507.7,345.1 C507,345.9 505.1,346.1 501.2,345.5 C498.2,345.1 488,344.7 478.7,344.6 C462.5,344.4 461.5,344.5 459.7,346.5 C457.9,348.5 456.9,348.6 441.7,348.4 C427.4,348.3 425.2,348.5 422.6,350.1 C421,351.2 417.2,352.2 413.7,352.5 L407.7,353 L407.7,365.3 L407.7,377.6 L404.1,380.8 C402.2,382.6 399.8,384.5 398.9,385 C397.6,385.8 397.1,387.9 396.9,394.3 L396.5,402.7 L400.9,406.3 C409.6,413.6 415.3,428.6 416.7,448.5 C417.1,453.7 418.1,462.7 418.8,468.5 C421.6,488.7 423.1,502.9 423.7,515.4 C424,522.3 424.7,531.4 425.2,535.5 C425.8,539.6 426.3,551.8 426.4,562.5 C426.6,581.7 426.6,582.1 423.8,590 C422.2,594.4 419.2,601.6 417.2,606 C413.6,613.6 410.3,620.8 402.6,637.5 C399.8,643.7 398.4,645.5 395.4,647 C393.4,648.1 391.3,649.5 390.9,650.2 C390.3,651.2 385.4,651.5 371.4,651.5 C361.1,651.5 350.3,651.8 347.5,652.3 C341.8,653.3 307.7,653.1 273.2,651.9 C248.5,651.1 240.1,651.2 235.2,652.5 C233.3,653.1 227.8,653.5 222.9,653.5 C214.2,653.5 214.2,653.5 212.3,650.4 Z M236.5,650.4 C239.5,649.6 248.8,649.5 268.7,650 C307.5,651.1 339,651.1 350.2,650 C355.4,649.5 365.3,649.1 372.2,649.1 L384.7,649 L384.7,638.5 C384.7,632.7 384.5,624.9 384.2,621 L383.7,614 L376.2,612.7 C371.8,611.9 366.2,611.7 362.7,612 C350.2,613.4 317.6,613.5 315.8,612.2 C314.3,611.1 314.1,607 313.6,569.5 C313,514.1 312.5,491.5 312.1,491.1 C311.9,490.9 306.2,490.5 299.5,490.4 C289.9,490.1 287.1,490.3 286.7,491.3 C286.4,492.1 286.2,502.9 286.2,515.3 C286.1,555.5 284.4,612.7 283.3,613.8 C282.7,614.4 278.5,614.7 273,614.5 C261.9,614.1 261.5,614.1 239.2,614.4 C229.6,614.5 218.7,615.1 215,615.7 C207,617 207.2,616.3 209.8,632.8 C212.3,649.2 213,651.3 216.1,651.7 C220.8,652.3 232.2,651.6 236.5,650.4 Z M396.5,613.1 C401,610.2 407.3,606.3 410.5,604.4 C416.2,601.1 420.2,595.8 420.2,591.7 C420.2,590 421,589.5 406.6,600.6 C401.1,604.8 394.6,609.2 392.2,610.5 C387.3,613 386.2,614.1 386.2,616.8 C386.2,619.4 387.5,618.9 396.5,613.1 Z M366.6,606.8 C368.1,603.7 374.2,584.5 374.2,582.6 C374.2,581.9 373.2,581.5 372.1,581.7 C369.8,582 367.6,586.5 363.2,600 C361.9,603.9 360.7,607.6 360.4,608.3 C360.1,609 360.9,609.5 362.6,609.5 C364.4,609.5 365.6,608.7 366.6,606.8 Z M395,606.3 C405.6,599.6 421.1,587 422.7,583.7 C426,577 424.1,576.8 417.2,582.9 C413.6,586.1 408.2,590.5 405.2,592.6 C395.3,599.7 391.8,602.6 390,605.3 C386.6,610.5 387.8,610.7 395,606.3 Z M397.8,595.4 C398.8,594.2 402,591.8 404.7,590 C407.5,588.2 413.1,583.8 417.2,580.3 C424.6,574 425,573.3 424.3,568 C424.3,567.5 420.5,570.7 416,575.1 C411.4,579.5 405.3,585.1 402.4,587.5 C399.5,589.8 396.5,593 395.6,594.6 C393.9,598 395.1,598.4 397.8,595.4 Z M404.1,583.4 C406.6,581.1 412.2,575.8 416.5,571.7 C423.2,565.1 424.2,563.7 424.2,560.7 L424.2,557.1 L414,567.3 C408.3,572.8 402.5,578.5 401,579.9 C398.5,582.1 397,587.5 398.8,587.5 C399.2,587.5 401.6,585.6 404.1,583.4 Z M261.6,579 C273.2,578.7 282.7,578.4 282.8,578.2 C282.8,578.1 283.2,567.9 283.6,555.5 L284.2,533 L272.7,545 L261.2,557 L257.7,553 C255.8,550.8 254.2,548.6 254.2,548.1 C254.2,547.5 253.1,546 251.8,544.6 C245.2,537.5 221.2,499.3 221.2,495.9 C221.2,493.6 239.1,501.4 255.8,510.9 C259.9,513.2 272.4,521.6 279,526.5 C281.8,528.6 282.4,528.7 283.3,527.5 C283.8,526.6 284.2,517.6 284.1,506.8 C284,488.7 284.1,487.4 286.2,484 L288.4,480.5 L296,480.5 C300.2,480.5 307.4,480.8 312,481.2 C319,481.7 320.5,482.1 321.4,483.9 C322.1,485.1 322.6,493.1 322.7,504 C323,529.7 322.9,528.7 325,527.6 C325.9,527.1 331.7,522.5 337.7,517.3 C355.8,502 365.7,495.1 368.1,496 C369,496.3 369.3,496.3 368.9,495.9 C367.9,494.8 370.2,492.5 372.3,492.5 C374.7,492.5 374.7,493.4 371.7,502.5 C370.3,506.6 369.2,510.6 369.2,511.5 C369.1,512.3 368.3,514.8 367.2,517 C366.1,519.2 365.3,521.4 365.2,521.9 C365.2,522.3 363.9,525.5 362.3,528.9 C360.7,532.2 357.5,539.6 355.3,545.3 C351.3,555.4 348.7,560.3 346.8,561.7 C345.6,562.5 340.7,560.2 331.8,554.8 C327.9,552.4 324.4,550.5 324,550.5 C323.5,550.5 323.4,552.9 323.7,555.8 C324,558.6 324.4,565 324.7,569.9 C325,574.8 325.5,579.1 325.8,579.4 C326.5,580.1 394,579.7 395.2,579 C396,578.5 395.7,519.7 394.7,498 C393.6,471.9 390.6,447.2 387,435.5 C384.7,428.1 380.2,421.4 373.5,415.6 C368.2,410.9 367.6,410.8 347.2,410 C331.2,409.4 324.7,409 312.7,408.1 C286.7,406 238.6,405.6 230.8,407.3 C223.6,409 216.6,413.1 215.3,416.5 C213.5,421.2 213.2,430.6 213.2,468 C213.2,493.6 212.7,509.4 211.8,518.2 C211,525.2 210.4,532.6 210.4,534.5 C210.5,536.4 210.4,545.1 210.3,553.7 C209.9,580.5 210,580.6 230.7,579.9 C236.2,579.7 250.1,579.3 261.6,579 Z M411.6,558.4 C423.4,547.1 424.8,545.1 423.7,541.4 C423.1,539.5 422.6,539.8 418.4,544.6 C415.8,547.6 410.2,553.7 406,558.2 C399,565.5 396.6,569.5 399.1,569.5 C399.6,569.5 405.2,564.5 411.6,558.4 Z M347.6,557.3 C348.4,556 350.2,551.9 351.7,548 C353.2,544.2 356.1,537.4 358.1,533 C364.7,518.9 372.6,497.2 371.5,496.1 C369.9,494.6 350.9,508.9 331.5,526.4 C324,533.1 323.2,534.1 323.2,537.4 L323.2,541 L331,532.9 C335.2,528.4 341.2,522.6 344.2,520 C366.8,500.5 368.1,500.2 361.3,515 C359.8,518.3 357.2,523.9 355.6,527.5 C350.3,539.2 343.6,551 342,551.3 C341.1,551.5 338.2,550 335.7,548 C331.8,545.1 325.2,541.5 323.6,541.5 C323.4,541.5 323.2,542.8 323.2,544.4 C323.2,546.9 324.1,547.9 330.5,551.8 C344.3,560.4 345.4,560.7 347.6,557.3 Z M269.5,544.9 C274.1,540.2 278.5,535.3 279.2,533.9 C280.4,531.8 280.3,531.2 278.1,528.9 C276,526.6 257.1,513.5 255.9,513.5 C255.7,513.5 251.5,511.2 246.6,508.4 C237.8,503.3 227.8,498.5 226.1,498.5 C225.6,498.5 225.2,499 225.2,499.6 C225.2,501.6 236,519.1 247.9,536.4 C258.4,551.7 259.7,553.5 260.3,553.5 C260.7,553.5 264.8,549.6 269.5,544.9 Z M345.9,542.4 C347.7,539.4 349.1,535.9 349.2,534.5 C349.2,531.5 347,528 344,526.4 C342.2,525.4 341.2,526.1 335.1,532.1 C331.3,535.9 328.2,539.4 328.2,540 C328.2,541.2 340.3,548.6 341.7,548.2 C342.2,548 344.1,545.4 345.9,542.4 Z M401.9,534.9 C403.4,532.9 408.4,526.9 413,521.7 C418.4,515.4 421.2,511.3 421.2,509.8 C421.2,508.4 420.8,507.5 420.3,507.7 C419.8,507.9 414.4,513.5 408.3,520.3 C399.4,530.1 397.2,533.1 397.2,535.5 C397.2,539.5 398.5,539.3 401.9,534.9 Z M41.1,437 C41.4,436.6 40.8,435.9 39.8,435.3 C38.7,434.7 35.3,431.9 32.2,429.1 C29,426.3 23.5,421.6 19.8,418.6 C16.1,415.6 13.2,412.5 13.2,411.4 C13.2,409.1 9.5,406.5 6,406.5 C1.8,406.5 1.9,407.9 6.5,413.1 C8.9,415.8 11.8,419.3 12.9,420.8 C15.8,424.5 29.2,436.5 31.7,437.6 C33.8,438.5 40,438.1 41.1,437 Z M49.7,432.8 C51,431.2 52.2,429.5 52.2,428.9 C52.2,427.6 46.2,422.1 38.3,416.4 C35,414 32.2,411.5 32.2,410.8 C32.2,409.2 19.2,408.6 19.2,410.2 C19.2,410.8 20.4,412.8 21.8,414.5 C24.8,418.1 45.3,435.4 46.5,435.5 C46.9,435.5 48.4,434.3 49.7,432.8 Z M59.7,422.7 C62.2,419.8 62.3,419.4 60.5,420.3 C58.1,421.6 54.2,421.9 54.2,420.8 C54.3,420.3 55.7,419.1 57.4,418 C60.5,416 62.7,411.8 68.3,397 C69.6,393.7 71.2,390.3 71.8,389.5 C74.2,386.5 74.6,382.5 72.6,381 C70.3,379.3 68.2,379.1 68.2,380.6 C68.2,381.8 62.2,396.1 56.6,408.3 C54.8,412.2 52.7,415.5 52,415.5 C51.3,415.5 49.7,415.8 48.5,416.1 C45,417.1 45.7,414.4 49.6,411.8 C52.3,410.1 53.8,407.5 57.6,398.7 C60.1,392.6 62.9,386.4 63.7,384.9 C65.8,380.9 65.6,377.1 63.2,375 C60.7,372.8 59.1,373.9 58.6,378.2 C58.2,382 47.5,405.4 44.9,408.3 C42.8,410.5 38.2,411.4 38.2,409.5 C38.2,408.9 39.3,408 40.7,407.3 C42,406.7 43.8,404.6 44.8,402.6 C45.7,400.6 47.3,397.2 48.4,395 C51.3,389.3 57.2,374.5 57.2,373 C57.2,372.3 56.5,371.4 55.6,371.1 C54.4,370.6 52.9,373 49.1,381.3 C42.7,395.1 40.7,398.9 36.5,404.8 C34.6,407.5 33.2,409.8 33.4,409.9 C40.6,414.8 47.6,420.2 50.6,423.3 C52.7,425.5 55,427.1 55.6,426.8 C56.2,426.6 58,424.7 59.7,422.7 Z M70.4,410.8 C75.5,404.4 81.2,393.9 81.2,390.8 C81.2,389.1 77.1,387.4 75.8,388.6 C75.3,389 74.3,390.9 73.6,392.7 C73,394.5 70.6,400.4 68.3,405.8 C62.4,419.9 62.6,420.5 70.4,410.8 Z M34.8,402.2 C37.9,398.1 41.5,391.3 50.6,372.5 C57,359.3 56.3,360.1 60.3,361.8 C62.2,362.6 64.3,364 65.1,364.9 C66.5,366.5 66.7,366.5 68.3,364.3 L70.1,362 L75.4,364.8 C78.3,366.3 82.3,369 84.4,370.9 L88,374.2 L90.8,372 C93.5,369.9 93.5,369.7 92,367.4 C91.1,366.1 84.3,358.8 76.9,351.3 C64,338.2 63.3,337.6 60.4,338.4 C56.3,339.6 49.5,347 46.5,353.5 C45.1,356.5 41.9,363.5 39.2,369 C36.6,374.5 33.4,381 32.3,383.5 C31.1,386 29.4,389.4 28.4,391 C24.3,398.2 20.2,405.6 20.2,406.1 C20.2,406.3 22.8,406.5 26,406.5 C31.5,406.4 31.8,406.3 34.8,402.2 Z M11.3,396.7 C9.3,383.6 9.5,382.4 16.5,372.3 C24.8,360.2 29.8,352.6 31.8,349.1 C33.3,346.4 33.3,346.2 30.5,343.3 C25.1,337.6 24.9,337.7 19.1,346.8 C11.9,358 6.5,368.9 4.7,375.7 C3.9,378.9 2.9,386.4 2.6,392.4 L1.9,403.4 L4.3,403.9 C9.6,405 10.7,405.1 11.5,404.4 C12,404 11.9,400.5 11.3,396.7 Z M394.4,399.3 C394.6,398.6 394.9,394.9 395.1,391 C395.4,382 393.2,377.6 387.7,375.7 C385.5,375 383.3,374.6 382.7,374.9 C382,375.1 381.5,378.8 381.3,384.9 L381.1,394.4 L386.9,397.4 C393.6,400.9 393.8,400.9 394.4,399.3 Z M269.6,386.9 C269.9,386 270.2,381.9 270.2,377.8 L270.2,370.3 L255.9,370.7 C235.6,371.4 233.2,372.7 233.2,383.8 L233.2,388.5 L251.1,388.5 C266.5,388.5 269.1,388.3 269.6,386.9 Z M103.5,360.8 C106.4,354.5 106.7,353.2 106.7,343.5 C106.7,330.8 105.5,328.3 95.5,320.4 C84,311.4 69.4,306.2 55.2,306.1 C46.1,306 45.4,306.2 38.2,309.8 C29.4,314.3 26.7,316.6 24.1,321.7 C21.5,326.8 21.7,329.5 25.1,334.1 C31.8,343.4 37.1,345.4 44.7,341.5 C46.8,340.4 50.1,339 52.1,338.4 C54.1,337.8 56.2,336.8 56.9,336.3 C57.5,335.8 60.5,335.1 63.4,334.8 L68.7,334.3 L77.7,343.7 C82.7,348.9 89.4,356.4 92.7,360.3 C96,364.2 99.1,367.5 99.5,367.5 C100,367.5 101.8,364.5 103.5,360.8 Z M405.5,355.9 C406.2,343.2 405.5,340.8 401,340.1 C366.2,335.1 338,332.2 334.1,333.2 C332.7,333.6 332.3,335.5 331.7,343.2 C331.3,348.4 331.2,352.9 331.5,353.2 C331.8,353.5 335.4,353.9 339.4,354.1 C347.4,354.5 360.3,355.8 378.7,358.1 C388.6,359.3 391.8,360.2 397.2,362.9 C400.8,364.8 404,366.3 404.3,366.4 C404.6,366.5 405.2,361.7 405.5,355.9 Z M229,358.6 C232.5,356.8 233.2,356 233.1,353.7 L232.9,351 L232.5,353.8 C232.2,355.3 231.4,356.5 230.6,356.5 C229.8,356.5 229.3,356.2 229.6,355.7 C229.8,355.3 230.3,351.3 230.6,346.7 C231.3,337.5 231.1,337.3 224.8,339.9 C221.6,341.2 221.4,341.5 221,347.6 C220.8,351.1 220.8,356.2 221,358.8 C221.4,363.2 221.6,363.5 223.1,362.2 C224,361.4 226.6,359.8 229,358.6 Z M254.5,352.8 C254.8,352.3 255.3,347.6 255.7,342.3 L256.4,332.5 L253,333.1 C245,334.4 245.5,333.9 244.8,341.5 C244.5,345.4 244.5,349.7 244.8,351 C245.3,353.2 246,353.5 249.7,353.5 C252.1,353.5 254.3,353.2 254.5,352.8 Z M316.2,342.3 C316.2,328.7 314.6,328.9 313.8,342.5 C313.5,347.7 313.3,352.1 313.2,352.3 C313.2,352.4 312.8,352.5 312.3,352.5 C311.8,352.5 311.6,348.1 311.9,342.6 C312.5,330.9 313.9,331.8 295.3,331.6 C280.6,331.4 282.1,330.5 280.7,340.5 C280.4,343 279.8,346.7 279.6,348.7 L279,352.4 L284.4,352.8 C287.3,353 295.7,353.2 303,353.3 L316.2,353.5 L316.2,342.3 Z M417.3,347.4 C420.7,345.7 424.5,343.3 425.9,341.9 C428.5,339.2 431.2,338.7 431.2,340.9 C431.2,342.7 435.3,343.1 447.7,342.5 C456.2,342.1 457.7,341.7 458,340.3 C458.3,338.7 457.5,338.5 451.5,338.4 C442.9,338.3 431.1,337.6 429.4,337 C428.7,336.7 425.3,338.7 421.8,341.4 C418.4,344.1 413.8,347.2 411.6,348.3 C405.3,351.7 410.6,350.8 417.3,347.4 Z M197.1,338.3 C197.1,334.3 197.5,327 197.9,322 C198.3,317.1 198.4,309.9 198.1,306 C197.7,302.2 197.4,294.5 197.3,288.9 L197.2,278.9 L189.5,277.6 C185.2,276.9 179.8,276.1 177.5,275.9 L173.4,275.6 L172.6,283.3 C171.8,292.1 172.7,338.1 173.7,340.7 C174,341.6 175.1,342.7 176,343.1 C178.2,344 186.4,345.2 192.4,345.4 L197.1,345.5 L197.1,338.3 Z M170.8,336.5 C170.8,332.9 170.7,328.1 170.4,325.8 L170,321.6 L164.3,322 C161.2,322.2 149.9,322.7 139.1,323 C128.3,323.4 118.9,324 118.3,324.4 C117.6,324.9 117.5,327.4 117.9,331.9 C118.7,340.9 119.8,341.6 133.9,342.2 C139.9,342.5 144.8,342.8 145,343 C145.1,343.1 151,343.2 158,343.1 L170.7,343 L170.8,336.5 Z M425.8,334.9 C429.1,332.4 432.5,328.8 433.5,326.9 C435.7,322.7 436.6,322.5 435.7,326.5 C435.3,328.2 435.4,329.5 435.9,329.5 C450.3,330.2 458,330.7 459,331 C459.7,331.3 460.2,330.6 460.2,329.4 C460.2,327.6 460.4,327.5 461.7,328.8 C462.8,330 466.7,330.3 479.9,330.4 C496.6,330.6 499.1,330.7 510.8,331.9 C515.7,332.4 517.1,332.3 517.5,331.1 C518.3,329.1 515.7,328.4 506.9,328 C502.9,327.9 491.4,327.4 481.2,327.1 C471,326.7 462.1,326.2 461.4,325.9 C460.4,325.6 460.1,322.7 460.3,313.7 C460.4,307.3 460.9,301.1 461.3,300 C462,298.3 462.1,298.4 462.1,300.7 C462.2,302.7 462.8,303.6 464.5,303.9 C468.3,304.7 515.8,305.4 516.9,304.7 C517.6,304.2 518,298.6 518,288.7 L518,273.3 L514.4,271.8 C511.4,270.5 506.3,270.2 487.5,270.1 C474.8,270.1 464.1,270.3 463.8,270.6 C463.5,270.9 463.2,276.8 463.1,283.8 C463.1,290.8 462.6,296.5 462.1,296.5 C461.6,296.5 461.4,292.4 461.7,287 C461.9,281.7 461.9,276.9 461.6,276.2 C461.3,275.3 458,274.9 450.2,274.8 L439.2,274.7 L439.2,283.7 C439.2,288.7 439,292.6 438.8,292.4 C438.3,291.9 437.3,277.2 437.2,269.8 L437.2,264.5 L430.7,264.5 C427.2,264.5 423.1,265 421.7,265.7 C419.6,266.6 419.2,267.5 419.2,271.2 C419.2,274.9 419.7,276.1 422.1,278.1 C423.8,279.5 425.4,281.5 425.7,282.5 C426.5,285.1 424.6,288.5 422.2,288.5 C420.8,288.5 420.2,289.2 420.2,290.9 C420.2,293.7 422.5,294.3 432.9,294.1 L439.4,294 L438.8,300.5 C437.2,320.2 436.9,322.5 435.8,322.5 C435.2,322.5 432,325.1 428.7,328.3 C416.5,339.8 415,343.3 425.8,334.9 Z M535.1,334.6 C535.9,334.1 536.7,331.4 536.9,327.9 C537.3,323.2 537,321.8 535.6,320.8 C532.9,318.9 530.4,319.2 527.7,322 C523.5,326.1 525.2,333.8 530.5,334.8 C531.7,335 532.9,335.3 533.2,335.3 C533.5,335.4 534.3,335.1 535.1,334.6 Z M167,319.6 C168.5,319.5 169.2,318.9 169.2,317.5 C169.2,315 166.4,315 138,316.7 C119,317.8 118.2,317.9 118.2,319.9 C118.2,322 118.2,322 141.4,320.8 C154.2,320.2 165.7,319.6 167,319.6 Z M518.2,321.1 C518.2,319 513.3,318.5 495.1,318.5 C486.1,318.5 475.1,318.2 470.7,317.7 C463,316.8 459.7,317.4 461.8,319.4 C462.3,319.9 474.2,320.6 488.2,320.9 C502.2,321.3 513.8,321.8 514.1,322 C515.1,323.1 518.2,322.4 518.2,321.1 Z M436.3,312 C436.7,308.7 437,305.6 437.2,305 C437.3,304.5 437.4,302.6 437.3,300.9 L437.2,297.8 L422,297.5 C413.6,297.4 402.2,297 396.7,296.6 C388.4,296 371.2,295.9 362.7,296.4 C360.9,296.5 360.6,297.3 360.4,302.1 C360.3,305.2 359.9,308.2 359.6,308.7 C359.2,309.2 355.9,309.4 351.8,309.1 C341.8,308.2 302.9,307 269.1,306.5 C265.8,306.5 262.2,303.1 262.2,300.1 C262.2,298 261.7,297.7 257.5,297.3 C254.8,297.1 243.3,296.9 231.7,297 C220.2,297.1 210.2,296.8 209.6,296.4 C209.1,295.9 206.6,295.4 204.1,295.3 C200.2,295 199.7,295.2 199.9,297 C199.9,298.1 200.3,302.4 200.7,306.6 L201.3,314.3 L205.3,314.9 C207.5,315.3 209.8,315.3 210.3,315 C210.8,314.6 216.2,314.9 222.3,315.5 C228.4,316.1 252.2,316.8 275,317.1 C297.9,317.3 316.8,317.8 317.1,318 C317.3,318.3 344.1,318.4 376.6,318.2 L435.7,318 L436.3,312 Z M518.2,315.5 C518.2,315 516.7,314.4 515,314.1 C505,312.6 462.4,311.4 461.6,312.6 C460,315.2 469,316.1 497.5,316.3 C510.1,316.4 518.2,316.1 518.2,315.5 Z M518,309.9 C518.3,307.9 517.8,307.8 504.5,307.2 C496.9,306.8 484.4,306.4 476.7,306.3 C464.4,306.2 462.7,306.4 462.4,307.8 C462.1,309.2 463,309.5 467.9,309.6 C481.6,310 493.4,310.6 503.7,311.4 C517.4,312.4 517.6,312.4 518,309.9 Z M121.5,307.9 C129.8,303.7 130.3,300.4 123.2,295.8 C120.5,294 117.7,292.5 117,292.5 C116.3,292.5 113.1,289.6 109.7,286 L103.7,279.5 L95.7,278.5 C91.3,277.9 79,277 68.5,276.5 C57.9,276 48.1,275.3 46.7,274.9 C43.4,274.1 43.5,275.7 47,279.6 C49.7,282.6 49.8,282.6 54.4,281.5 C57.3,280.7 63.7,280.4 70.9,280.7 C82.3,281.1 83,281.3 92.2,285.4 C109.9,293.5 118,300.6 116.7,306.7 C115.9,310 116.9,310.2 121.5,307.9 Z M357.9,223 L357.8,139.5 L350.3,139.6 C342.7,139.7 342.7,139.7 346.7,140.9 C350.5,142.1 350.7,142.4 351.5,147.6 C352,150.6 352.2,156.5 351.9,160.8 C351.7,165.9 351.9,168.5 352.6,168.5 C353.3,168.5 353.3,168.8 352.6,169.3 C351.2,170.1 350.7,177.2 349.3,213 C348.7,227.3 348,244.3 347.7,250.8 C347.5,257.3 347.2,268.7 347.1,276.1 C347,287 346.6,289.9 345.4,291.2 C344,292.6 341.5,292.7 325.7,292.1 C315.8,291.8 303.2,291.2 297.7,290.9 C292.2,290.5 284.6,290.2 280.7,290.1 L273.7,290 L273.8,280.5 C273.9,275.3 274.3,262 274.8,251 C276.3,218.3 275.6,157.6 273.7,148.1 C271.8,139.1 272.3,138.1 278.2,139 C280.2,139.3 282.9,139.1 284.2,138.6 C286.1,137.8 284.1,137.6 276.2,137.8 L265.7,138 L266,142.5 C266.2,145 266.7,149.5 267.3,152.6 C268.4,158.9 268.7,211.9 267.8,232 C267,249.8 265.3,270.1 264.1,275.2 C263.1,280 262.9,291.1 263.8,297.8 C264.4,301.8 264.9,302.5 267.5,303.4 C270.4,304.4 277.2,304.9 277.2,304.1 C277.2,303.9 276.5,302.1 275.7,300.1 C274.8,298.1 274.4,296 274.7,295.5 C275.6,294.1 278.7,294.3 282.7,296 C285.3,297 286.4,298.2 286.8,300.5 C287.2,302.2 288.1,303.5 288.9,303.5 C290,303.5 290.3,302.9 289.8,301.3 C287.8,294 287.6,294.5 292.5,294.5 C297.8,294.5 299.7,296 300.6,301 C301.2,304.2 301.6,304.6 303.9,304.3 C306.3,304 306.6,303.6 306.6,300 C306.7,296.4 307,296 309.4,295.7 C312.7,295.3 316.2,298.5 316.2,301.9 C316.2,304.4 318.3,305.5 323.5,305.5 C326.2,305.5 326.3,305.4 326,300.3 C325.7,295.2 325.8,295 328.5,294.7 C332.3,294.2 336.2,296.9 336.2,299.9 C336.2,301.3 336.5,303 336.8,303.9 C338,307 339,305.4 338.8,300.8 C338.7,296.1 338.7,296 342,295.7 C346.8,295.2 349.8,297.6 350.6,302.4 C351.2,306.3 351.4,306.5 354.6,306.5 L357.9,306.5 L357.9,223 Z M417.7,291.2 C418,290 418.1,279.8 418,268.5 C417.7,247.7 418.9,198.7 419.8,197.4 C420,197 420.3,188.2 420.4,177.8 L420.6,159 L405.2,159 L389.7,159 L388.5,169.5 C387.9,175.3 387.1,184.5 386.8,190 C386.4,195.5 385.7,205.4 385.2,212 C384.7,218.6 384.1,238.6 383.8,256.5 C383.6,274.4 383.2,289.6 383.1,290.4 C382.8,291.5 384.8,291.9 392.7,292.2 C398.1,292.4 402.8,292.7 402.9,292.9 C403.1,293.1 406.4,293.2 410.2,293.3 C416.6,293.3 417.3,293.1 417.7,291.2 Z M244.3,289.8 C244.3,288.3 244.4,265.4 244.4,239 C244.4,212.6 244.7,187.9 245,184 C245.4,180.2 245.5,171.9 245.4,165.7 L245,154.4 L230.5,154.8 C222.6,155.1 215.9,155.5 215.6,155.7 C214.1,157.3 213.3,176.8 213.2,215.9 C213.2,240.6 213,261.1 212.7,261.4 C212.5,261.8 212.1,268.7 211.7,276.7 L211.1,291.4 L215.4,291.7 C217.8,291.9 225.2,292.1 232,292.3 L244.2,292.6 L244.3,289.8 Z M261.3,285.5 C261.7,281.9 262.3,275.4 262.7,270.9 C263.5,262.9 263.4,262.8 261.1,262.2 C256.5,260.9 253,261.5 249.8,264 C246.7,266.4 246.5,266.8 247,271.2 C247.3,274.3 248.3,276.6 249.8,277.9 C253.6,281.5 253.8,284.2 250.3,287.4 C248.6,289 247.2,290.5 247.2,290.8 C247.2,291.4 254.3,292.2 258.2,292.1 C260.5,292 260.7,291.6 261.3,285.5 Z M380.8,291 C381.2,290.1 380.4,288.5 378.8,287 C375.6,284 375.6,279.8 378.7,278.1 C381.6,276.5 381.9,275.9 382,271 C382.2,267.9 381.8,266.5 380.9,266.5 C380.2,266.5 379.1,266 378.4,265.3 C376.9,263.8 361.4,263.4 360.5,264.8 C360.2,265.3 359.8,271 359.6,277.6 C359.2,291.6 358.9,291.2 370.1,291.4 C374.2,291.5 377.8,291.7 378,292 C379,293 380.3,292.5 380.8,291 Z M343.8,289.2 C344.2,288.8 344.8,281.2 345,272.2 L345.4,256 L318.6,255.8 C303.8,255.7 288.5,255.2 284.5,254.7 L277.3,253.9 L276.8,258.9 C276.5,261.7 276.1,269.4 276,276 L275.7,288 L287.7,288.1 C299.4,288.2 331.5,289.5 331.9,289.9 C332.6,290.5 343.2,289.9 343.8,289.2 Z M208.2,288.5 C208.2,288 207.4,287.1 206.3,286.6 C205.3,286 204.2,284.3 203.9,282.8 C203.4,280.6 203.9,279.5 206.1,277.5 C207.9,275.9 209.1,273.6 209.5,271 C210,267.5 209.7,266.6 207.2,263.7 C205.5,261.9 203.2,260.4 202,260.2 C199.7,260 199.7,260.2 199.6,272.5 C199.4,287.2 199.6,288.2 202.5,288.8 C206.5,289.6 208.2,289.5 208.2,288.5 Z M170.2,267.6 C170.2,259.4 170.4,252.1 170.6,251.3 C171.2,249.5 163.8,243.3 162,244 C160.8,244.5 160.3,247.7 159.8,258.7 C159.4,266.5 158.9,273.2 158.6,273.6 C158.3,274.1 154.6,274.2 150.3,273.8 L142.4,273.2 L140.3,277.3 C139.1,279.6 138.2,281.7 138.2,282 C138.2,282.3 145.4,282.5 154.2,282.5 L170.2,282.5 L170.2,267.6 Z M101.8,271.9 C101.5,269.3 101.2,266.4 101.2,265.4 C101.2,264.4 100.5,263.6 99.5,263.7 C96.7,263.7 76.2,261.4 71.2,260.5 C68.8,260 66.5,259.8 66.1,260.1 C65.8,260.3 59.5,259.8 52.1,259.1 C44.7,258.4 38.4,258 37.9,258.2 C37.5,258.4 37.4,259.6 37.7,260.8 C37.9,262 38.4,264.8 38.7,267 C39.3,271.3 40.4,272.5 44.2,272.5 C55.6,272.6 90.3,274.7 92.7,275.4 C94.4,275.9 97.2,276.4 99.1,276.4 L102.5,276.5 L101.8,271.9 Z M517.8,268.1 C518.1,266.7 518,256.2 517.5,244.5 C516.7,225.5 516.4,223.2 514.6,221.4 C511.8,218.6 502.6,217.4 483.5,217.2 C469.2,217 467.1,217.2 465.5,218.8 C463.9,220.3 463.7,223.1 463.5,244 C463.3,267.6 463.6,270.1 466.8,267.4 C468,266.4 468.2,263.3 468,249.6 C467.8,240.5 468,232.5 468.4,231.9 C468.9,231.2 470.8,231.2 474.9,232 C480,233 480.8,233.5 481.7,236.1 C483.3,240.9 484.1,241.5 488.7,241.5 C493.4,241.5 496.2,239.1 496.2,235.2 C496.2,233.5 496.8,233.3 501.6,233.7 C504.6,233.9 508.2,234.9 509.6,235.8 C512.1,237.5 512.2,237.9 512.2,248 C512.2,254.1 511.8,258.6 511.2,259 C510.5,259.5 510.2,256.3 510.3,249.5 C510.4,241.2 510.1,239 508.8,237.7 C504.4,233.3 501.9,241.7 502.4,259 L502.7,268 L505.6,268.3 C507.8,268.6 509.1,268 510.5,266.3 L512.4,264 L511.8,266.7 C511.3,268.7 511.6,269.5 512.9,269.8 C516.4,270.7 517.2,270.5 517.8,268.1 Z M473.1,265.7 C473.6,264.7 474.2,257.5 474.4,249.7 C474.7,235.2 474.1,232.6 470.8,233.8 C469.5,234.3 469.3,236.9 469.3,251 C469.4,264.3 469.6,267.5 470.7,267.5 C471.5,267.5 472.6,266.7 473.1,265.7 Z M101.2,258.3 C101.2,256.5 101.5,253.3 101.8,251.3 C102.4,247.8 102.3,247.5 100.1,247.5 C98.8,247.5 94.5,246.8 90.7,246 C82.5,244.3 59.3,241.7 47.5,241.2 C41,241 39.2,241.2 38.7,242.3 C38.4,243.1 38.3,243.9 38.4,244 C38.6,244.1 47,244.8 57.2,245.4 C75.9,246.7 97.9,249.8 99.6,251.5 C101.5,253.4 99.3,253.6 93.6,252.1 C88.5,250.9 80.2,249.7 65.2,248 C63.3,247.8 56.4,247.3 50,247 L38.2,246.3 L38,249.2 C37.7,256.5 37.1,255.9 44.7,256.6 C48.6,257 57.8,257.8 65.2,258.5 C72.6,259.2 81.9,260 85.7,260.5 C89.6,260.9 94.6,261.3 97,261.4 C101.1,261.5 101.2,261.4 101.2,258.3 Z M437.1,253.7 C437.1,250 437.4,246 437.6,244.7 C438.4,240.7 437.5,240 431.4,240 C427,240.1 425.8,240.4 426,241.5 C426.7,244.6 425.1,247.7 422.2,248.7 C415.3,251.1 421.2,259.1 430.3,259.7 C432.5,259.8 434.6,260.3 434.8,260.7 C436.1,262.8 437,259.9 437.1,253.7 Z M378,257.9 C381.6,256.3 382.2,255.6 382.2,252.8 C382.2,250.3 381.6,249.3 379.5,248.3 C377.3,247.3 376.6,246.2 376.4,243.2 L376.1,239.5 L368.3,239.5 L360.4,239.5 L360,245.1 C359.7,248.2 359.7,252.8 360,255.4 L360.4,260 L367.2,259.9 C371.5,259.8 375.4,259.1 378,257.9 Z M263,257.6 C263.9,257 264.6,253.5 264.9,246.6 L265.5,236.5 L257.3,236.5 C249.4,236.5 248.1,237 250.3,239.2 C252.1,241 250.9,245.9 248.5,247 C246.9,247.7 246.2,248.8 246.2,250.6 C246.2,254 250.2,256.8 256.2,257.6 C258.7,257.9 260.9,258.2 261.2,258.3 C261.5,258.4 262.3,258.1 263,257.6 Z M210.2,251.9 C210.2,250.3 209.2,248.3 207.7,246.9 C204.6,244 204.5,240.1 207.4,238.1 C210.1,236.2 209.8,235.9 204.5,235.2 C199.6,234.6 199.9,233.9 199.8,246.6 L199.7,254.2 L204.9,254.4 C210,254.5 210.2,254.5 210.2,251.9 Z M338,252.9 C343.2,252.4 345.2,251.9 345.2,250.9 C345.2,249.9 344.5,249.6 343,250 C339.9,250.6 305.5,251.1 296.2,250.6 C292.1,250.4 286.4,249.4 283.5,248.4 C278.1,246.6 277.2,246.7 277.2,249.6 C277.2,251.3 278.4,251.6 295.2,252.8 C303.9,253.4 331.4,253.5 338,252.9 Z M342.9,246.8 C345.7,245.8 346.2,244.5 346.2,237.9 L346.2,231.7 L342.7,231.7 C339.4,231.7 339.3,231.9 338.6,236.2 C338.1,239.8 337.4,240.8 335.3,241.7 C332.6,242.7 293,242.1 286.4,240.9 C283.4,240.3 283.1,239.9 283.2,237.1 C283.6,230.8 283.4,230.3 280.5,230.7 C278,231 277.9,231.3 277.5,237.7 C277.2,244.4 277.2,244.5 279.9,245.1 C281.5,245.4 283.4,245.9 284.2,246.3 C288.9,248.2 338,248.6 342.9,246.8 Z M103.5,238.3 C103.9,237.1 103.6,235.8 103,235.4 C101.5,234.4 89.5,232.9 69.2,231 C60.1,230.2 50.1,229.2 47,228.9 C41.7,228.4 41.2,228.5 41.2,230.2 C41.2,232.2 41.4,232.3 79.7,236.5 C84.1,237 90.6,238.1 94.2,238.9 C103,240.8 102.9,240.8 103.5,238.3 Z M332.8,238.7 C330.1,238.4 330,238.2 330.6,234.2 L331.3,230.1 L327.9,234 C325.9,236.3 324.1,237.6 323.4,237.1 C321.1,235.7 322.3,230.6 327.3,221 C330.1,215.7 332.2,211.1 332,210.9 C331.3,210.2 324.5,219 322.2,223.5 C317.5,232.7 313.3,238.5 311.2,238.5 C307,238.5 308.2,233.5 316.4,215.4 C318.1,211.7 319.3,208.2 319.1,207.6 C318.6,206.1 305,226.3 302,233 C300.8,235.8 299.6,238.3 299.4,238.7 C299.2,239.1 304.2,239.6 310.4,239.7 C322.5,240 337.6,239.4 332.8,238.7 Z M294.2,236.3 C294.2,233.2 297.4,223.3 300.7,216.2 C302.2,213.1 303.2,209.9 302.9,209.2 C302.7,208.6 300.9,211.6 298.9,216 C292.8,229.2 291.8,231 290,231.3 C287.5,231.8 287.6,226.5 290.2,219 C292.5,212.2 292.6,211.7 291,213.3 C288.3,216 286.9,214.7 287.5,209.9 C287.8,207.2 287.6,205.7 287.1,206.2 C286.4,206.9 285.7,230.2 286.2,237.8 C286.2,238.2 288,238.5 290.2,238.5 C293.7,238.5 294.2,238.2 294.2,236.3 Z M300.8,230.3 C303.9,223.6 312.2,210.4 315.5,206.8 C316.6,205.5 317.4,204.5 317.1,204.4 C316.9,204.3 314.1,204.2 311,204 C305.5,203.7 305.2,203.8 305.8,205.9 C306.3,208.2 306.1,209 299.8,225.4 C296,235.3 295.7,236.5 297,236.5 C297.5,236.5 299.2,233.7 300.8,230.3 Z M318.2,225.3 C324.6,213.9 329.7,207.5 332.3,207.5 C336,207.5 335.1,211.9 329,223.3 C326.3,228.5 324.2,232.9 324.5,233.1 C324.7,233.4 326.6,231.3 328.7,228.5 C333.9,221.5 337.8,221.8 334.7,229.1 C332.8,233.6 332.8,235.5 334.6,235.5 C335.5,235.5 336.2,233.8 336.6,230.6 C337.3,225.6 337.6,205.5 337,205 C336.8,204.8 333.6,204.6 329.7,204.4 L322.8,204 L322.1,207.1 C321.8,208.8 320.6,212.2 319.4,214.6 C316.7,220.3 311.2,233.8 311.2,234.8 C311.2,236.8 313.3,233.9 318.2,225.3 Z M382.5,225.4 L382.7,215.8 L371.8,215.2 C365.8,214.8 360.6,214.7 360.4,215 C359.6,215.8 359,228.4 359.6,231.8 L360.3,235.3 L371.3,235.2 L382.4,235 L382.5,225.4 Z M436.6,234.9 C437.9,234.4 438.2,232.7 438.2,226.6 L438.2,219 L429.5,219 L420.7,219 L420.4,227.3 L420.1,235.5 L427.6,235.5 C431.7,235.5 435.7,235.2 436.6,234.9 Z M171.6,232 C171.9,231.2 171.7,230.5 171.1,230.5 C170.1,230.5 160.7,225.9 137.7,214.2 C129,209.7 127.2,209.3 127.2,211.8 C127.2,213.1 166.6,233.4 169.3,233.5 C170.2,233.5 171.2,232.8 171.6,232 Z M264.7,232.5 C265.1,231.9 265.6,228.1 265.9,224 C266.4,218 266.2,216.5 265.1,216.4 C264.3,216.3 262.8,216.1 261.7,216 C250.8,214.5 247.4,214.5 246.8,216 C246.5,216.9 246.5,220.9 246.9,225 L247.5,232.4 L251.1,232.8 C258.7,233.6 264.1,233.5 264.7,232.5 Z M104.7,231.4 C105.1,230.8 105.2,230.2 104.9,229.9 C104.1,229.1 66.4,224.2 50.6,222.9 C42.9,222.3 42.5,222.3 41.9,224.4 C41.6,225.9 41.8,226.5 42.9,226.5 C44.3,226.5 70,228.7 85.2,230.1 C88.8,230.4 93.7,231 96.2,231.5 C102.8,232.6 104,232.6 104.7,231.4 Z M211.2,221.5 C211.2,212.7 211.1,212.5 208.8,212.5 C207.5,212.5 205,212.2 203.3,211.9 L200.199931,211.3 L200.2,220.3 C200.2,230.3 200.1,230.2 207.5,230.4 L211.2,230.5 L211.2,221.5 Z M459.4,228.5 C461.2,228.5 461.8,227.2 462.7,221 C463,218.8 463.9,216.7 464.8,216.2 C465.6,215.8 466,215 465.7,214.5 C465.4,214.1 466.1,210.9 467.2,207.5 C468.3,204 469.2,200.4 469.2,199.4 C469.2,196.5 467.3,197.1 466.6,200.3 C466.3,201.8 465.4,205.3 464.7,208 C464,210.8 463,214.4 462.6,216 C461.9,218.9 461.8,218.9 461.2,214.5 C460.8,212 460.8,209.5 461.3,209 C462.7,207.1 465.5,198 465.4,195.6 C465.3,194.3 465.7,192.6 466.3,191.9 C466.9,191.1 467,190.5 466.5,190.5 C465.5,190.5 465.6,184.5 466.7,180.1 C467.2,178.2 466.8,175.7 465.5,172.1 C464.3,169.3 462.7,163.9 461.7,160.2 L460,153.4 L451.3,153.7 L442.7,154 L442.2,158.5 C441.8,161.7 441.3,162.9 440.3,162.7 C435.7,161.7 430.8,161.4 428.6,161.9 C426.5,162.5 426.2,162.8 427.2,164 C429,166.1 427.6,170.4 424.7,171.7 C423,172.5 422.2,173.6 422.2,175.4 C422.2,178.6 425.4,180.1 433.4,180.7 L439.1,181.2 L439.7,176.6 C440.7,169.3 441,169.5 441.1,177.3 C441.2,185.4 441.8,184.9 431.7,184.5 C428.3,184.4 427.4,184.8 426.2,186.9 C425.5,188.3 424.3,189.5 423.5,189.5 C422.8,189.5 422.2,190.1 422.2,190.9 C422.2,191.7 421.9,193 421.6,193.9 C421.2,195.1 421.6,195.5 423.1,195.5 C425.7,195.5 427.7,199.4 426.9,202.7 C426.5,204 424.9,205.8 423.3,206.7 C421,207.9 420.4,208.9 420.7,210.6 C421,211.8 421.7,213.2 422.4,213.7 C424.2,214.8 436.9,214.7 437.6,213.6 C437.9,213.1 438.5,207.2 438.8,200.4 C439.1,193.6 439.6,187.8 439.8,187.6 C440,187.4 440.2,190.9 440.2,195.4 C440.2,200.1 440.6,203.4 441.1,203.1 C442.5,202.2 453.9,205.1 456.8,206.9 C459.7,208.8 460,210 457.3,208.5 C454,206.8 442,204.3 441,205.3 C440.2,206.1 439.8,214.1 440.1,224.7 L440.2,229.4 L449,229 C453.8,228.7 458.5,228.5 459.4,228.5 Z M106.2,225 C106.2,224.2 104.8,223.4 103,223.1 C79,219.5 66.2,218 53.1,217 C45.9,216.5 44.3,216.7 43.9,217.9 C43.5,218.8 43.6,219.6 44,219.9 C44.4,220.1 51.5,221 59.7,221.9 C68,222.8 81.2,224.2 89.2,225.1 C97.2,226 103.9,226.8 104.1,227 C104.8,227.8 106.2,226.4 106.2,225 Z M108,219.8 C108.6,218.8 109.3,216.6 109.6,214.9 L110.3,211.8 L103.5,210.7 C80.5,207 49.6,203.2 48.3,204 C47.3,204.6 44.8,213.4 45.4,214 C45.7,214.3 56.6,215.6 69.8,217 C100.4,220.2 103.6,220.6 104.1,221.1 C105.1,222.1 107.2,221.4 108,219.8 Z M197.2,216.7 C197.2,214.1 196.7,211.4 196,210.7 C195.3,210 191.9,209.5 187.6,209.5 C181.2,209.5 180.1,209.8 178.8,211.7 C177.9,212.9 177.2,215.1 177.2,216.5 C177.2,218.7 177.8,219.3 181,220.2 C183,220.8 187.5,221.3 191,221.4 L197.2,221.5 L197.2,216.7 Z M283.8,209.4 C284.3,204.8 285,203.1 286.6,202.2 C289.1,200.8 332,200.7 336.7,202.2 C339.5,203.1 339.7,203.5 340,208.2 C340.3,213.5 341.4,214.8 345,213.9 C346.6,213.4 346.9,212.4 347.1,207.7 C347.1,204.6 346.9,201.5 346.4,200.8 C345.2,198.9 308.5,195.6 294.7,196.1 C276.8,196.8 278.2,195.9 278.2,206.4 C278.2,212.7 278.6,215.5 279.5,215.8 C282.1,216.7 283.1,215.1 283.8,209.4 Z M266.5,208.8 C267.3,205 267.3,196.8 266.6,192.3 L266,188.5 L258.2,188.5 C251,188.5 250.3,188.7 248.8,191 C246.7,194.3 246.8,196.8 249.2,199 C251.6,201.1 251.9,206.7 249.7,208.8 C247.5,211 248.9,211.5 257.8,211.5 C266,211.5 266,211.5 266.5,208.8 Z M383,209.2 C383.2,208.1 382.2,206 380.7,204.5 C377.4,201 377.7,197.7 381.6,195.6 C383.2,194.7 384.4,193.6 384.3,193.2 C384.3,192.8 384.2,191.9 384.2,191.2 C384.2,189.1 379.1,187.7 369.5,187.2 C358.8,186.6 359.5,185.6 359.6,200 L359.7,210 L366.2,210.6 C377.8,211.7 382.6,211.2 383,209.2 Z M113.1,205.9 C113.9,204.3 117.1,199 120.3,194.2 C123.6,189.3 126.2,185 126.2,184.6 C126.2,183.5 120,181.9 110.2,180.5 C105.5,179.8 98.3,178.7 94.2,177.9 C90.1,177.1 82.2,176.2 76.6,175.8 L66.3,175.2 L61.3,180.6 C56.8,185.4 48.3,200 49.4,201 C49.6,201.3 54.3,201.9 59.8,202.5 C65.2,203.1 72.4,204.1 75.7,204.7 C83.1,206 109.3,209.3 110.7,209 C111.3,208.9 112.3,207.5 113.1,205.9 Z M205.6,204.8 C205.1,201.4 205.4,200.8 208.1,198.7 C210.3,197.1 211.2,195.6 211.2,193.6 C211.2,190 208.7,187.9 203.5,187.1 L199.2,186.5 L199.2,195.9 C199.2,205.9 200.2,208.5 204.3,208.5 C206,208.5 206.1,208 205.6,204.8 Z M512.7,189.5 L512.7,183 L503.3,182.2 C492.3,181.2 492.2,181.3 492.2,189.7 L492.2,195.4 L501,195.8 C505.8,196 510.4,196.1 511.2,196 C512.4,196 512.7,194.6 512.7,189.5 Z M346.5,193.6 C347.4,192.7 348.6,161.1 347.8,157.9 C346.7,153.7 330.4,151.5 302.9,151.8 C284.6,152 282.1,152.2 280.5,153.8 C278.9,155.4 278.7,157.6 278.7,173.8 L278.7,192 L287.7,191.7 C299.3,191.4 331.8,193.2 335.7,194.5 C338.8,195.4 345.1,194.9 346.5,193.6 Z M488.5,194.8 C488.7,194.3 488.7,191.2 488.4,187.8 C487.9,180.5 487.5,180.3 477.4,180.3 C473.4,180.3 470.4,180.9 469.6,181.7 C468.9,182.4 468.1,185.6 467.9,188.7 C467.5,194.2 467.5,194.4 470.1,194.8 C474.9,195.5 488.1,195.5 488.5,194.8 Z M266.2,173.6 L266.2,163.7 L259.2,163.9 C252.9,164 252.2,164.2 252.2,166 C252.2,167.1 251.3,169.5 250.2,171.3 C249.1,173.1 248.2,175.9 248.2,177.5 C248.2,182.2 250.4,183.5 258.8,183.5 L266.2,183.5 L266.2,173.6 Z M380.3,180.4 C380.8,179.3 382.1,178.5 383.1,178.5 C386.4,178.5 387.4,171 384.2,170 C383,169.6 381.9,168.2 381.5,166.4 C380.8,163 380.2,162.8 369,162.6 L360.2,162.5 L360.2,172.4 L360.2,182.4 L367,182.7 C376.1,183.1 379.1,182.6 380.3,180.4 Z M209.4,178.8 C211.9,176.6 211.7,173.2 209,172 C206.4,170.9 205.4,165.8 207.1,162.7 C208,161 207.7,160.7 203.9,160.2 C201.6,159.9 199.7,159.7 199.6,159.8 C199.5,159.9 199.2,164.4 199,169.7 C198.6,180.3 198.5,180.1 204.6,180.4 C206.2,180.4 208.4,179.8 209.4,178.8 Z M511.8,179.1 C511.8,179 511.6,176.5 511.3,173.5 L510.7,168 L499.2,167.7 C492.9,167.5 483.1,167.7 477.5,168 C466.3,168.7 465.8,169.1 468.5,174.5 C469.7,176.8 470.4,177 479.7,177.7 C485.2,178.1 491.7,178.4 494.2,178.5 C496.7,178.5 500.5,178.9 502.7,179.4 C505.8,180 511.2,179.9 511.8,179.1 Z M146.2,168.9 C148.1,168.2 150.8,167.6 152.2,167.5 C154.3,167.5 153.9,166.9 149.2,163.9 C141.9,159.3 136.9,157.9 116.2,154.9 C106.6,153.5 97.4,152.2 95.7,152 C94.1,151.7 90.5,151.3 87.7,150.9 L82.7,150.4 L78.8,156.5 C76.7,159.8 75.1,162.7 75.3,162.9 C76.4,163.8 91.3,165.8 112.5,168 C125.5,169.3 137,170.6 138,170.8 C139.7,171.3 140.2,171.2 146.2,168.9 Z M532,164.5 L536.2,162.4 L535.6,155.7 C535.2,152 534.6,148.6 534.2,148.1 C533.2,147.1 523.6,148.7 524,149.8 C524.1,150.2 524.2,154.1 524.2,158.5 C524.2,167.7 524.7,168 532,164.5 Z M388.4,157.2 C390.9,155.8 409.2,155.7 429.3,157 C441.7,157.8 441.2,158.3 441.2,145.8 C441.2,141.9 441.7,138.3 442.2,138 C442.8,137.6 443,136.9 442.7,136.4 C442.3,135.9 442.5,135.5 443,135.5 C444.1,135.5 447,138.8 450.7,144.3 C454,149.3 455,150.1 456.4,148.7 C457.1,148 455.8,145.5 452.1,140.8 C448.1,135.5 446.3,133.9 444.4,134 C442.9,134 441.6,134.8 441.1,136 C440.4,137.9 440.3,137.9 440.3,136.1 C440.2,134.4 439.6,134.3 434.5,134.9 C431.3,135.2 424.8,135.8 420,136.2 C411.7,136.8 411.2,136.9 411.2,139.1 C411.2,140.4 412,141.9 413,142.5 C414.2,143.3 414.3,143.8 413.5,144.1 C412.8,144.4 412.2,145.8 412.2,147.2 C412.2,149.1 411.8,149.6 410.6,149.1 C409.7,148.8 408.6,148.5 408.1,148.5 C407.6,148.5 407.2,148 407.2,147.4 C407.2,146.8 408.1,146.6 409.2,147 C411.6,147.8 412.1,144.8 409.7,143.9 C408.6,143.4 408.5,142.9 409.1,142.1 C409.7,141.4 409.9,139.9 409.5,138.7 C409,136.6 408.5,136.5 403.3,136.9 C400.2,137.2 390.5,137.9 381.7,138.5 C372.9,139.2 364.6,139.7 363.2,139.8 C361,140 360.6,140.6 360.2,144.5 C359.9,147 359.9,151.1 360,153.6 L360.4,158.2 L373.3,158.4 C382.5,158.5 386.8,158.2 388.4,157.2 Z M264.8,149.8 C263.5,136.6 264.7,137.8 251.9,137 C245.7,136.7 231.7,136.5 220.7,136.7 L200.7,137 L200.4,145.1 C200.1,152.9 200.2,153.3 202.4,153.9 C206.3,154.9 212.9,154.6 214,153.3 C214.7,152.3 219.4,152 230.9,152 C246.3,152 246.7,152.1 247.7,154.3 C248.6,156.3 249.3,156.5 257.1,156.5 L265.4,156.5 L264.8,149.8 Z M492.6,151.1 C509.9,150.9 510.7,150.8 511,148.9 C511.3,147 510.4,146.8 500.5,145.8 C493.5,145.1 485.2,145 476.7,145.5 C469.6,146 463.4,146.4 463,146.5 C462.5,146.5 462.2,147.9 462.2,149.6 L462.2,152.7 L468.4,152 C471.8,151.6 482.7,151.2 492.6,151.1 Z M513.4,139.5 C514.3,137.6 515.9,135.2 516.8,134.3 C517.9,133.1 518.1,132.5 517.3,132.5 C516.6,132.5 516.4,132 516.8,131.3 C517.3,130.5 513.5,130.4 501.1,130.9 C478.1,131.9 464.7,133.9 465.4,136.2 C465.5,136.7 465.1,138 464.4,139.1 C463.8,140.3 463.5,141.4 463.7,141.7 C463.9,141.9 466.7,141.8 469.9,141.4 C477.4,140.6 500.7,141.2 505.2,142.4 C510.4,143.8 511.5,143.4 513.4,139.5 Z M578.2,130.7 C576.5,130.1 577.1,128.8 579.2,128.2 C582,127.5 581.7,126.5 577.7,121.8 C575.8,119.5 574.2,117.2 574.2,116.6 C574.2,115.3 571.3,115.2 569.3,116.4 C568.2,117.1 568.7,118.3 571.7,122.2 L575.6,127 L570.2,121.8 C564.7,116.4 563.7,115.9 561.4,117.4 C560.4,118 560.9,119.1 563.6,122.1 C565.6,124.2 567.2,126.3 567.2,126.8 C567.2,127.2 567.8,127.5 568.5,127.5 C569.1,127.6 571.1,129.3 572.7,131.5 L575.7,135.3 L577.4,133.2 C578.3,132 578.7,130.9 578.2,130.7 Z" id="Shape"></path>
                <path d="M295.7,459.8 C284.1,459.2 273.6,457.5 262.4,454.2 L251.2,451 L251.3,445.2 C251.5,439.5 251.5,439.5 255.1,438.6 C257.1,438.1 263.9,437.3 270.2,437 C276.5,436.6 282,436.1 282.3,435.9 C283.3,435.3 322.8,435.4 328.7,436 C337.8,436.9 349.6,438.6 353.9,439.7 L358.1,440.7 L357.5,445.9 C356.8,451.8 354.5,455 349.9,455.9 C334.4,459.1 312.4,460.7 295.7,459.8 Z M337.3,456.1 C342.5,455.3 347.9,454.2 349.3,453.6 C352.9,452.3 355.2,448.8 355.2,444.9 C355.2,441.3 356.4,441.7 338.7,439.3 C327,437.8 283.1,437.7 267.8,439.2 C254.6,440.4 252.8,441.4 253.4,446.9 C253.7,449.4 254.3,450 258.2,451.1 C277.7,456.6 282.5,457.2 308.8,457.4 C320.9,457.5 331.3,457 337.3,456.1 Z" id="Shape"></path>
                <path d="M261,543.6 C260.2,543.3 258.2,541.4 256.5,539.5 C253.8,536.3 251.7,533.5 241.7,519.1 C240.1,516.7 237.2,513.2 235.5,511.1 C229.6,504.5 232.1,502.3 239.5,507.4 C241.8,508.9 245.2,511 247.1,512 C249,512.9 253.3,515.9 256.7,518.6 C260.2,521.3 263.4,523.5 263.9,523.5 C264.3,523.5 266.4,524.9 268.5,526.6 C273,530.3 272.8,531.5 266.8,539 C264,542.4 262,544 261,543.6 Z M267.3,533.8 C268.4,532 269.1,530.1 268.7,529.6 C267.8,528 256.6,521.5 254.8,521.5 C254,521.5 252.5,522.6 251.7,523.9 C249.8,526.8 250.3,528.2 256.5,536.3 L260.5,541.6 L262.9,539.3 C264.2,538.1 266.2,535.6 267.3,533.8 Z" id="Shape"></path>
                <path d="M98.7,358.5 C97.9,356.9 96.3,355.1 95.1,354.5 C94,353.9 92.2,351.4 91.2,349.1 C89.9,345.9 88.6,344.6 86.6,344.1 C85.1,343.7 81.4,340.9 78.4,337.9 C73,332.5 72.9,332.4 75,330.9 C77.6,329.1 79.5,322.9 78.2,320.4 C76.9,318.1 76.9,317.5 78.3,317.5 C80.1,317.5 82.1,320.7 82.2,323.7 C82.2,325.2 81.5,328.3 80.6,330.5 C79.1,334.3 79.1,334.7 80.7,336.5 C83.1,339.2 83.9,339 85.8,335.3 C88.4,330.2 89.3,326.3 88.1,324.9 C86.3,322.7 88.1,321.1 90.2,323 C93,325.5 93.5,329.6 91.8,334.6 C90.9,337 90.2,339.8 90.2,340.8 C90.2,343.1 93.2,347.6 94.3,346.9 C95.3,346.3 97.4,338.9 97.4,335.8 C97.5,333.2 99.7,332.7 100.6,335.1 C101.6,337.8 101.3,341.9 99.6,346.8 C98,351.5 98.2,354.5 100.1,354.5 C100.6,354.5 101.3,353.2 101.7,351.5 C102.1,349.9 102.8,348.5 103.3,348.5 C104.9,348.5 104.7,353.8 102.9,357 C102.3,358.1 101.9,359.6 102,360.3 C102.5,362.7 100.2,361.5 98.7,358.5 Z" id="Shape"></path>
                <path d="M291.5,285.1 C285.9,284.5 281,283.6 280.5,283.2 C279.2,281.9 280.6,259.7 282,258.4 C283,257.5 340.3,259.2 341.2,260.2 C341.6,260.6 341.4,266.2 340.6,272.5 C339.6,281 338.9,284.3 337.6,285.2 C335.4,286.8 306.2,286.7 291.5,285.1 Z M315.8,283.2 C316.1,282.9 314.4,280.1 312,277 C309.7,273.8 307,270.3 306.2,269.1 C302.5,263.6 300.2,261.4 298.6,261.7 C297.3,261.9 298.6,264.1 303.9,271 C307.7,276 311.2,280.7 311.6,281.5 C313.1,284.4 303.1,273 299.5,267.7 C296.2,262.7 293.7,260.6 292.7,261.7 C292.4,261.9 295.4,266.5 299.2,271.8 C303,277.1 305.8,281.5 305.4,281.5 C304.5,281.4 296.3,271 292.6,265.1 C291,262.6 288.9,260.6 288,260.5 C285.4,260.5 285.7,261.4 291,268.1 C301.9,282.1 302.7,283.3 296.8,277 C293.8,273.7 289.5,268.6 287.5,265.6 C284.4,261.2 283.6,260.6 283.4,262.3 C283,264.7 286.3,269.6 293.1,276.9 C295.6,279.5 296.8,281.3 295.7,280.7 C294.6,280.1 291.5,276.9 288.8,273.6 C284.3,268 282.2,266.8 282.2,269.8 C282.2,270.5 284.8,273.8 288.1,277.2 C293.8,283.2 294.1,283.4 299.8,283.8 C306.9,284.3 315,284 315.8,283.2 Z" id="Shape"></path>
                <path d="M294.3,188.1 L283.8,187 L282.9,183.5 C282,179.9 282.3,158.1 283.3,157.1 C284.8,155.6 305.7,153.6 316.7,154 C335.5,154.5 343.7,156.2 344.7,159.6 C345.6,162.4 344.3,184.4 343.1,186.7 C342.6,187.7 341.4,188.5 340.4,188.6 C330.6,189.2 302.5,188.9 294.3,188.1 Z" id="Shape"></path>
            </g>
        </g>
    </g>
</svg>