<svg width="603" height="656" viewBox="0 0 603 656" xmlns="http://www.w3.org/2000/svg">
  <title>
    marvin
  </title>
  <g fill-rule="nonzero" stroke="#57C003" stroke-width="2" fill="none">
    <path d="M214.1 4.1c-3.3 5.5-7.3 33.1-6.1 42.1.5 3.1 1 6 1.3 6.5.3.4 1.5 5.5 2.6 11.2 2.1 10.1 2.1 10.4.3 13.5-1.8 3-2.6 10.1-2.5 20.6.2 20.7.7 33.3 1.4 37.5.5 2.7 1.1 20.5 1.3 39.5.3 19 .8 41.2 1.1 49.5.6 14 .9 15.4 3.7 21 3.4 6.8 6.6 11.4 11.5 16.6 2.4 2.5 3.6 4.9 4 7.7.5 3.9.4 4.1-3.5 6.1-6.5 3.3-8.6 7.2-9.2 17.1l-.5 8.5-8.7.5c-5.9.4-9.2 1.1-10.5 2.1-2.1 1.9-18.2 4.4-26.3 4.2-9.9-.4-47.4 1.7-50.8 2.8-1.7.6-3.7 2-4.3 3.1-.6 1.1-1.3 7.9-1.6 15.1l-.6 13.1-4.1-8.5c-4-8.1-4-8.5-2.7-11.9 2-4.9 1.8-17.4-.4-24.1-2.3-7-6-14.3-8.1-16-1.9-1.6-9.3-16.4-11.4-22.8-1-3.2-2.8-5.5-6.9-8.8-3.1-2.5-8.3-7.7-11.7-11.7-3.3-3.9-9.6-10.8-14-15.3l-7.9-8.2-6.7-.7c-3.6-.4-7.7-.4-9-.1-1.2.4-5 3.1-8.2 6.1-3.2 3.1-6.2 5.7-6.5 5.8-.5.3-7.2 7.9-13.7 15.6-3.3 3.9-4 8.5-3.2 20.5C3.5 281.6 5.3 287 16 305c8.5 14.2 8.2 13.3 6.4 17.5-3.1 7.5 2.1 16.9 13 23.7 3.5 2.2 4.4 3.6 8.6 14.3 4.6 11.6 4.7 11.9 2.9 13.9-1 1.1-2.1 2.8-2.5 3.8-.3 1-1.1 1.8-1.8 1.8s-2.2 2.1-3.2 4.7c-2.8 7.3-2.4 25.6.9 39.3 1.4 5.8 2.8 11.6 3 13 2.9 13.9 10.6 31 17.7 38.7 2.7 3 5 5.9 5 6.4s.8.9 1.8.9c1.9.1 5.6 4.5 4.8 5.9-.3.5 1 3.3 3 6.3 2 2.9 4.3 6.8 5 8.5 1.6 3.7 2.4 3.9 13.4 2.3 3.6-.5 11.7-1.6 18-2.4 24.9-3.4 28.9-4.4 38.2-9.4 6.8-3.6 10.2-6.3 14.9-11.5 7.9-8.8 9.4-13.4 7.8-23.2-2-12.6-.1-16.5 6.4-13 2.8 1.5 4.8 1.7 11.3 1.3l7.9-.6v25.2l.1 25.3-5.1.2c-2.7.1-8.1.6-12 1.2-3.8.5-10.6 1.2-15 1.5-4.4.2-12.9 1.1-19 1.9-6 .7-15.3 1.9-20.5 2.5-18.3 2.1-35.6 5.9-51.9 11.4-9.5 3.1-9.5 3.1-20.2 13.8-12.1 12.2-14.7 16.7-16.1 27.6-3.2 26.1.3 58.6 8.5 79.1l2.2 5.4 8 2.2c6.9 2 12.9 2.5 45 3.8 20.4.8 48.7 1.6 63 1.7 14.3.1 27.8.5 30 1 2.2.4 8 .9 12.8.9 4.8 0 9.2.3 9.6.6 1 .6 65.7 2.1 81.1 1.9 57.2-.8 105.9-2.5 167.5-6 15.4-.9 32.1-1.8 37-2.1 7.9-.4 27.2-2.6 47.5-5.3 3.6-.5 11.5-1.4 17.5-2 26.7-2.5 28.7-3.7 31.1-19.2 1.5-9.5 2-43.2.8-57.3-1.3-16.4-10-35.4-21.8-47.6-2-2.1-4.1-2.8-10.8-3.7-4.6-.7-11.1-1.7-14.5-2.3-6.2-1.1-6.3-1.1-6.3-4.4 0-1.9.4-4.5 1-5.9.5-1.5.7-4.8.3-7.4-.5-3.9-1.3-5.4-5-8.8-3.9-3.8-4.2-4.4-3.3-6.9.5-1.4 1-5.9 1-9.9s.4-9.5.9-12.2c1.4-7.6 2.5-32.8 1.4-32.1-.5.3-1 5.5-1.2 11.4-.1 5.9-.6 14.6-1.2 19.3-.5 4.7-1.1 9.8-1.2 11.5-.3 2.9-.4 3-5.2 3-8.9-.1-8.7.2-8.1-13.2.3-6.5 1-17.4 1.6-24.3 1.2-15.6 1.2-15 0-15-.5 0-.7.7-.4 1.5.3.8-.1 2.4-1 3.6l-1.5 2.2-.7-2.8c-.5-1.9-.2-3 .7-3.6.8-.5 1.9-1.2 2.6-1.6 2.3-1.6 3.7-27.8 1.5-29.2-.8-.5-1.3-4.1-.6-4.1.1 0 1 .7 1.8 1.5 1.3 1.3 2.5 1.4 6.6.7 2.8-.5 5.3-.6 5.5-.1.8 1.1.7 33.1 0 35-.4 1-.2 2 .3 2.3 1.5.9 2.1-6.5 1.6-23.5-.2-8.7.1-17 .6-18.3 1.1-2.9 3.6-18.2 4.9-29.6 1.2-11.4.2-20-2.4-20-.8 0-1.5-.7-1.5-1.6 0-.8.4-1.3 1-.9 2 1.2-1.2-5.4-4.5-9.3-4.9-5.6-11.1-7.6-23.9-7.3-4.8.1-5.6.3-4.7 1.4.6.8.8 1.6.5 2-.3.3.4 1 1.5 1.7 2.6 1.3 2.7 4.6.4 5.8-2.1 1.1-17.2 2.1-38 2.6-14.2.3-15.3.2-15.3-1.4 0-1-.5-2-1.1-2.2-.7-.2-.9-1.3-.5-2.6.7-2 1.4-2.2 9.4-2.3 27.7-.4 44.6-1.5 41.2-2.7-.8-.3-1.9-1.1-2.5-1.8-.7-.8-2.6-1-6.5-.4-3 .4-13.2.8-22.5.9-16.2.2-17.2.1-19-1.9-1.8-2-2.8-2.1-18-1.9-14.3.1-16.5-.1-19.1-1.7-1.6-1.1-5.4-2.1-8.9-2.4l-6-.5v-24.6l-3.6-3.2c-1.9-1.8-4.3-3.7-5.2-4.2-1.3-.8-1.8-2.9-2-9.3l-.4-8.4 4.4-3.6c8.7-7.3 14.4-22.3 15.8-42.2.4-5.2 1.4-14.2 2.1-20 2.8-20.2 4.3-34.4 4.9-46.9.3-6.9 1-16 1.5-20.1.6-4.1 1.1-16.3 1.2-27 .2-19.2.2-19.6-2.6-27.5-1.6-4.4-4.6-11.6-6.6-16-3.6-7.6-6.9-14.8-14.6-31.5-2.8-6.2-4.2-8-7.2-9.5-2-1.1-4.1-2.5-4.5-3.2-.6-1-5.5-1.3-19.5-1.3-10.3 0-21.1-.3-23.9-.8-5.7-1-39.8-.8-74.3.4-24.7.8-33.1.7-38-.6-1.9-.6-7.4-1-12.3-1-8.7 0-8.7 0-10.6 3.1zm24.2 0c3 .8 12.3.9 32.2.4 38.8-1.1 70.3-1.1 81.5 0 5.2.5 15.1.9 22 .9l12.5.1V16c0 5.8-.2 13.6-.5 17.5l-.5 7-7.5 1.3c-4.4.8-10 1-13.5.7-12.5-1.4-45.1-1.5-46.9-.2-1.5 1.1-1.7 5.2-2.2 42.7-.6 55.4-1.1 78-1.5 78.4-.2.2-5.9.6-12.6.7-9.6.3-12.4.1-12.8-.9-.3-.8-.5-11.6-.5-24-.1-40.2-1.8-97.4-2.9-98.5-.6-.6-4.8-.9-10.3-.7-11.1.4-11.5.4-33.8.1-9.6-.1-20.5-.7-24.2-1.3-8-1.3-7.8-.6-5.2-17.1 2.5-16.4 3.2-18.5 6.3-18.9 4.7-.6 16.1.1 20.4 1.3zm160 37.3c4.5 2.9 10.8 6.8 14 8.7 5.7 3.3 9.7 8.6 9.7 12.7 0 1.7.8 2.2-13.6-8.9-5.5-4.2-12-8.6-14.4-9.9-4.9-2.5-6-3.6-6-6.3 0-2.6 1.3-2.1 10.3 3.7zm-29.9 6.3c1.5 3.1 7.6 22.3 7.6 24.2 0 .7-1 1.1-2.1.9-2.3-.3-4.5-4.8-8.9-18.3-1.3-3.9-2.5-7.6-2.8-8.3-.3-.7.5-1.2 2.2-1.2 1.8 0 3 .8 4 2.7zm28.4.5c10.6 6.7 26.1 19.3 27.7 22.6 3.3 6.7 1.4 6.9-5.5.8-3.6-3.2-9-7.6-12-9.7-9.9-7.1-13.4-10-15.2-12.7-3.4-5.2-2.2-5.4 5-1zm2.8 10.9c1 1.2 4.2 3.6 6.9 5.4 2.8 1.8 8.4 6.2 12.5 9.7 7.4 6.3 7.8 7 7.1 12.3 0 .5-3.8-2.7-8.3-7.1-4.6-4.4-10.7-10-13.6-12.4-2.9-2.3-5.9-5.5-6.8-7.1-1.7-3.4-.5-3.8 2.2-.8zm6.3 12c2.5 2.3 8.1 7.6 12.4 11.7 6.7 6.6 7.7 8 7.7 11v3.6l-10.2-10.2c-5.7-5.5-11.5-11.2-13-12.6-2.5-2.2-4-7.6-2.2-7.6.4 0 2.8 1.9 5.3 4.1zm-142.5 4.4c11.6.3 21.1.6 21.2.8 0 .1.4 10.3.8 22.7l.6 22.5-11.5-12-11.5-12-3.5 4c-1.9 2.2-3.5 4.4-3.5 4.9 0 .6-1.1 2.1-2.4 3.5-6.6 7.1-30.6 45.3-30.6 48.7 0 2.3 17.9-5.5 34.6-15 4.1-2.3 16.6-10.7 23.2-15.6 2.8-2.1 3.4-2.2 4.3-1 .5.9.9 9.9.8 20.7-.1 18.1 0 19.4 2.1 22.8l2.2 3.5h7.6c4.2 0 11.4-.3 16-.7 7-.5 8.5-.9 9.4-2.7.7-1.2 1.2-9.2 1.3-20.1.3-25.7.2-24.7 2.3-23.6.9.5 6.7 5.1 12.7 10.3 18.1 15.3 28 22.2 30.4 21.3.9-.3 1.2-.3.8.1-1 1.1 1.3 3.4 3.4 3.4 2.4 0 2.4-.9-.6-10-1.4-4.1-2.5-8.1-2.5-9-.1-.8-.9-3.3-2-5.5s-1.9-4.4-2-4.9c0-.4-1.3-3.6-2.9-7-1.6-3.3-4.8-10.7-7-16.4-4-10.1-6.6-15-8.5-16.4-1.2-.8-6.1 1.5-15 6.9-3.9 2.4-7.4 4.3-7.8 4.3-.5 0-.6-2.4-.3-5.3.3-2.8.7-9.2 1-14.1.3-4.9.8-9.2 1.1-9.5.7-.7 68.2-.3 69.4.4.8.5.5 59.3-.5 81-1.1 26.1-4.1 50.8-7.7 62.5-2.3 7.4-6.8 14.1-13.5 19.9-5.3 4.7-5.9 4.8-26.3 5.6-16 .6-22.5 1-34.5 1.9-26 2.1-74.1 2.5-81.9.8-7.2-1.7-14.2-5.8-15.5-9.2-1.8-4.7-2.1-14.1-2.1-51.5 0-25.6-.5-41.4-1.4-50.2-.8-7-1.4-14.4-1.4-16.3.1-1.9 0-10.6-.1-19.2-.4-26.8-.3-26.9 20.4-26.2 5.5.2 19.4.6 30.9.9zm150 20.6c11.8 11.3 13.2 13.3 12.1 17-.6 1.9-1.1 1.6-5.3-3.2-2.6-3-8.2-9.1-12.4-13.6-7-7.3-9.4-11.3-6.9-11.3.5 0 6.1 5 12.5 11.1zm-64 1.1c.8 1.3 2.6 5.4 4.1 9.3 1.5 3.8 4.4 10.6 6.4 15 6.6 14.1 14.5 35.8 13.4 36.9-1.6 1.5-20.6-12.8-40-30.3-7.5-6.7-8.3-7.7-8.3-11v-3.6l7.8 8.1c4.2 4.5 10.2 10.3 13.2 12.9 22.6 19.5 23.9 19.8 17.1 5-1.5-3.3-4.1-8.9-5.7-12.5-5.3-11.7-12-23.5-13.6-23.8-.9-.2-3.8 1.3-6.3 3.3-3.9 2.9-10.5 6.5-12.1 6.5-.2 0-.4-1.3-.4-2.9 0-2.5.9-3.5 7.3-7.4 13.8-8.6 14.9-8.9 17.1-5.5zm-78.1 12.4c4.6 4.7 9 9.6 9.7 11 1.2 2.1 1.1 2.7-1.1 5-2.1 2.3-21 15.4-22.2 15.4-.2 0-4.4 2.3-9.3 5.1-8.8 5.1-18.8 9.9-20.5 9.9-.5 0-.9-.5-.9-1.1 0-2 10.8-19.5 22.7-36.8 10.5-15.3 11.8-17.1 12.4-17.1.4 0 4.5 3.9 9.2 8.6zm76.4 2.5c1.8 3 3.2 6.5 3.3 7.9 0 3-2.2 6.5-5.2 8.1-1.8 1-2.8.3-8.9-5.7-3.8-3.8-6.9-7.3-6.9-7.9 0-1.2 12.1-8.6 13.5-8.2.5.2 2.4 2.8 4.2 5.8zm56 7.5c1.5 2 6.5 8 11.1 13.2 5.4 6.3 8.2 10.4 8.2 11.9 0 1.4-.4 2.3-.9 2.1-.5-.2-5.9-5.8-12-12.6-8.9-9.8-11.1-12.8-11.1-15.2 0-4 1.3-3.8 4.7.6zM42.9 217.5c.3.4-.3 1.1-1.3 1.7-1.1.6-4.5 3.4-7.6 6.2-3.2 2.8-8.7 7.5-12.4 10.5-3.7 3-6.6 6.1-6.6 7.2 0 2.3-3.7 4.9-7.2 4.9-4.2 0-4.1-1.4.5-6.6 2.4-2.7 5.3-6.2 6.4-7.7C17.6 230 31 218 33.5 216.9c2.1-.9 8.3-.5 9.4.6zm8.6 4.2c1.3 1.6 2.5 3.3 2.5 3.9 0 1.3-6 6.8-13.9 12.5-3.3 2.4-6.1 4.9-6.1 5.6 0 1.6-13 2.2-13 .6 0-.6 1.2-2.6 2.6-4.3 3-3.6 23.5-20.9 24.7-21 .4 0 1.9 1.2 3.2 2.7zm10 10.1c2.5 2.9 2.6 3.3.8 2.4-2.4-1.3-6.3-1.6-6.3-.5.1.5 1.5 1.7 3.2 2.8 3.1 2 5.3 6.2 10.9 21 1.3 3.3 2.9 6.7 3.5 7.5 2.4 3 2.8 7 .8 8.5-2.3 1.7-4.4 1.9-4.4.4 0-1.2-6-15.5-11.6-27.7-1.8-3.9-3.9-7.2-4.6-7.2-.7 0-2.3-.3-3.5-.6-3.5-1-2.8 1.7 1.1 4.3 2.7 1.7 4.2 4.3 8 13.1 2.5 6.1 5.3 12.3 6.1 13.8 2.1 4 1.9 7.8-.5 9.9-2.5 2.2-4.1 1.1-4.6-3.2-.4-3.8-11.1-27.2-13.7-30.1-2.1-2.2-6.7-3.1-6.7-1.2 0 .6 1.1 1.5 2.5 2.2 1.3.6 3.1 2.7 4.1 4.7.9 2 2.5 5.4 3.6 7.6 2.9 5.7 8.8 20.5 8.8 22 0 .7-.7 1.6-1.6 1.9-1.2.5-2.7-1.9-6.5-10.2-6.4-13.8-8.4-17.6-12.6-23.5-1.9-2.7-3.3-5-3.1-5.1 7.2-4.9 14.2-10.3 17.2-13.4 2.1-2.2 4.4-3.8 5-3.5.6.2 2.4 2.1 4.1 4.1zm10.7 11.9c5.1 6.4 10.8 16.9 10.8 20 0 1.7-4.1 3.4-5.4 2.2-.5-.4-1.5-2.3-2.2-4.1-.6-1.8-3-7.7-5.3-13.1-5.9-14.1-5.7-14.7 2.1-5zm-35.6 8.6c3.1 4.1 6.7 10.9 15.8 29.7 6.4 13.2 5.7 12.4 9.7 10.7 1.9-.8 4-2.2 4.8-3.1 1.4-1.6 1.6-1.6 3.2.6l1.8 2.3 5.3-2.8c2.9-1.5 6.9-4.2 9-6.1l3.6-3.3 2.8 2.2c2.7 2.1 2.7 2.3 1.2 4.6-.9 1.3-7.7 8.6-15.1 16.1-12.9 13.1-13.6 13.7-16.5 12.9-4.1-1.2-10.9-8.6-13.9-15.1-1.4-3-4.6-10-7.3-15.5-2.6-5.5-5.8-12-6.9-14.5-1.2-2.5-2.9-5.9-3.9-7.5-4.1-7.2-8.2-14.6-8.2-15.1 0-.2 2.6-.4 5.8-.4 5.5.1 5.8.2 8.8 4.3zm-23.5 5.5c-2 13.1-1.8 14.3 5.2 24.4 8.3 12.1 13.3 19.7 15.3 23.2 1.5 2.7 1.5 2.9-1.3 5.8-5.4 5.7-5.6 5.6-11.4-3.5-7.2-11.2-12.6-22.1-14.4-28.9-.8-3.2-1.8-10.7-2.1-16.7l-.7-11 2.4-.5c5.3-1.1 6.4-1.2 7.2-.5.5.4.4 3.9-.2 7.7zm383.1-2.6c.2.7.5 4.4.7 8.3.3 9-1.9 13.4-7.4 15.3-2.2.7-4.4 1.1-5 .8-.7-.2-1.2-3.9-1.4-10l-.2-9.5 5.8-3c6.7-3.5 6.9-3.5 7.5-1.9zm-124.8 12.4c.3.9.6 5 .6 9.1v7.5l-14.3-.4c-20.3-.7-22.7-2-22.7-13.1V266h17.9c15.4 0 18 .2 18.5 1.6zm-166.1 26.1c2.9 6.3 3.2 7.6 3.2 17.3 0 12.7-1.2 15.2-11.2 23.1-11.5 9-26.1 14.2-40.3 14.3-9.1.1-9.8-.1-17-3.7-8.8-4.5-11.5-6.8-14.1-11.9-2.6-5.1-2.4-7.8 1-12.4 6.7-9.3 12-11.3 19.6-7.4 2.1 1.1 5.4 2.5 7.4 3.1 2 .6 4.1 1.6 4.8 2.1.6.5 3.6 1.2 6.5 1.5l5.3.5 9-9.4c5-5.2 11.7-12.7 15-16.6 3.3-3.9 6.4-7.2 6.8-7.2.5 0 2.3 3 4 6.7zm302 4.9c.7 12.7 0 15.1-4.5 15.8-34.8 5-63 7.9-66.9 6.9-1.4-.4-1.8-2.3-2.4-10-.4-5.2-.5-9.7-.2-10 .3-.3 3.9-.7 7.9-.9 8-.4 20.9-1.7 39.3-4 9.9-1.2 13.1-2.1 18.5-4.8 3.6-1.9 6.8-3.4 7.1-3.5.3-.1.9 4.7 1.2 10.5zm-176.5-2.7c3.5 1.8 4.2 2.6 4.1 4.9l-.2 2.7-.4-2.8c-.3-1.5-1.1-2.7-1.9-2.7-.8 0-1.3.3-1 .8.2.4.7 4.4 1 9 .7 9.2.5 9.4-5.8 6.8-3.2-1.3-3.4-1.6-3.8-7.7-.2-3.5-.2-8.6 0-11.2.4-4.4.6-4.7 2.1-3.4.9.8 3.5 2.4 5.9 3.6zm25.5 5.8c.3.5.8 5.2 1.2 10.5l.7 9.8-3.4-.6c-8-1.3-7.5-.8-8.2-8.4-.3-3.9-.3-8.2 0-9.5.5-2.2 1.2-2.5 4.9-2.5 2.4 0 4.6.3 4.8.7zm61.7 10.5c0 13.6-1.6 13.4-2.4-.2-.3-5.2-.5-9.6-.6-9.8 0-.1-.4-.2-.9-.2s-.7 4.4-.4 9.9c.6 11.7 2 10.8-16.6 11-14.7.2-13.2 1.1-14.6-8.9-.3-2.5-.9-6.2-1.1-8.2l-.6-3.7 5.4-.4c2.9-.2 11.3-.4 18.6-.5l13.2-.2v11.2zm101.1-5.1c3.4 1.7 7.2 4.1 8.6 5.5 2.6 2.7 5.3 3.2 5.3 1 0-1.8 4.1-2.2 16.5-1.6 8.5.4 10 .8 10.3 2.2.3 1.6-.5 1.8-6.5 1.9-8.6.1-20.4.8-22.1 1.4-.7.3-4.1-1.7-7.6-4.4-3.4-2.7-8-5.8-10.2-6.9-6.3-3.4-1-2.5 5.7.9zm-220.2 9.1c0 4 .4 11.3.8 16.3.4 4.9.5 12.1.2 16-.4 3.8-.7 11.5-.8 17.1l-.1 10-7.7 1.3c-4.3.7-9.7 1.5-12 1.7l-4.1.3-.8-7.7c-.8-8.8.1-54.8 1.1-57.4.3-.9 1.4-2 2.3-2.4 2.2-.9 10.4-2.1 16.4-2.3l4.7-.1v7.2zm-26.3 1.8c0 3.6-.1 8.4-.4 10.7l-.4 4.2-5.7-.4c-3.1-.2-14.4-.7-25.2-1-10.8-.4-20.2-1-20.8-1.4-.7-.5-.8-3-.4-7.5.8-9 1.9-9.7 16-10.3 6-.3 10.9-.6 11.1-.8.1-.1 6-.2 13-.1l12.7.1.1 6.5zm255 1.6c3.3 2.5 6.7 6.1 7.7 8 2.2 4.2 3.1 4.4 2.2.4-.4-1.7-.3-3 .2-3 14.4-.7 22.1-1.2 23.1-1.5.7-.3 1.2.4 1.2 1.6 0 1.8.2 1.9 1.5.6 1.1-1.2 5-1.5 18.2-1.6 16.7-.2 19.2-.3 30.9-1.5 4.9-.5 6.3-.4 6.7.8.8 2-1.8 2.7-10.6 3.1-4 .1-15.5.6-25.7.9-10.2.4-19.1.9-19.8 1.2-1 .3-1.3 3.2-1.1 12.2.1 6.4.6 12.6 1 13.7.7 1.7.8 1.6.8-.7.1-2 .7-2.9 2.4-3.2 3.8-.8 51.3-1.5 52.4-.8.7.5 1.1 6.1 1.1 16v15.4l-3.6 1.5c-3 1.3-8.1 1.6-26.9 1.7-12.7 0-23.4-.2-23.7-.5-.3-.3-.6-6.2-.7-13.2 0-7-.5-12.7-1-12.7s-.7 4.1-.4 9.5c.2 5.3.2 10.1-.1 10.8-.3.9-3.6 1.3-11.4 1.4l-11 .1v-9c0-5-.2-8.9-.4-8.7-.5.5-1.5 15.2-1.6 22.6v5.3h-6.5c-3.5 0-7.6-.5-9-1.2-2.1-.9-2.5-1.8-2.5-5.5s.5-4.9 2.9-6.9c1.7-1.4 3.3-3.4 3.6-4.4.8-2.6-1.1-6-3.5-6-1.4 0-2-.7-2-2.4 0-2.8 2.3-3.4 12.7-3.2l6.5.1-.6-6.5c-1.6-19.7-1.9-22-3-22-.6 0-3.8-2.6-7.1-5.8-12.2-11.5-13.7-15-2.9-6.6zm109.3.3c.8.5 1.6 3.2 1.8 6.7.4 4.7.1 6.1-1.3 7.1-2.7 1.9-5.2 1.6-7.9-1.2-4.2-4.1-2.5-11.8 2.8-12.8 1.2-.2 2.4-.5 2.7-.5.3-.1 1.1.2 1.9.7zm-368.1 15c1.5.1 2.2.7 2.2 2.1 0 2.5-2.8 2.5-31.2.8-19-1.1-19.8-1.2-19.8-3.2 0-2.1 0-2.1 23.2-.9 12.8.6 24.3 1.2 25.6 1.2zm351.2-1.5c0 2.1-4.9 2.6-23.1 2.6-9 0-20 .3-24.4.8-7.7.9-11 .3-8.9-1.7.5-.5 12.4-1.2 26.4-1.5 14-.4 25.6-.9 25.9-1.1 1-1.1 4.1-.4 4.1.9zm-81.9 9.1c.4 3.3.7 6.4.9 7 .1.5.2 2.4.1 4.1l-.1 3.1-15.2.3c-8.4.1-19.8.5-25.3.9-8.3.6-25.5.7-34 .2-1.8-.1-2.1-.9-2.3-5.7-.1-3.1-.5-6.1-.8-6.6-.4-.5-3.7-.7-7.8-.4-10 .9-48.9 2.1-82.7 2.6-3.3 0-6.9 3.4-6.9 6.4 0 2.1-.5 2.4-4.7 2.8-2.7.2-14.2.4-25.8.3-11.5-.1-21.5.2-22.1.6-.5.5-3 1-5.5 1.1-3.9.3-4.4.1-4.2-1.7 0-1.1.4-5.4.8-9.6l.6-7.7 4-.6c2.2-.4 4.5-.4 5-.1.5.4 5.9.1 12-.5s29.9-1.3 52.7-1.6c22.9-.2 41.8-.7 42.1-.9.2-.3 27-.4 59.5-.2l59.1.2.6 6zM520 339c0 .5-1.5 1.1-3.2 1.4-10 1.5-52.6 2.7-53.4 1.5-1.6-2.6 7.4-3.5 35.9-3.7 12.6-.1 20.7.2 20.7.8zm-.2 5.6c.3 2-.2 2.1-13.5 2.7-7.6.4-20.1.8-27.8.9-12.3.1-14-.1-14.3-1.5-.3-1.4.6-1.7 5.5-1.8 13.7-.4 25.5-1 35.8-1.8 13.7-1 13.9-1 14.3 1.5zm-396.5 2c8.3 4.2 8.8 7.5 1.7 12.1-2.7 1.8-5.5 3.3-6.2 3.3-.7 0-3.9 2.9-7.3 6.5l-6 6.5-8 1c-4.4.6-16.7 1.5-27.2 2-10.6.5-20.4 1.2-21.8 1.6-3.3.8-3.2-.8.3-4.7 2.7-3 2.8-3 7.4-1.9 2.9.8 9.3 1.1 16.5.8 11.4-.4 12.1-.6 21.3-4.7 17.7-8.1 25.8-15.2 24.5-21.3-.8-3.3.2-3.5 4.8-1.2zm236.4 84.9l-.1 83.5-7.5-.1c-7.6-.1-7.6-.1-3.6-1.3 3.8-1.2 4-1.5 4.8-6.7.5-3 .7-8.9.4-13.2-.2-5.1 0-7.7.7-7.7s.7-.3 0-.8c-1.4-.8-1.9-7.9-3.3-43.7-.6-14.3-1.3-31.3-1.6-37.8-.2-6.5-.5-17.9-.6-25.3-.1-10.9-.5-13.8-1.7-15.1-1.4-1.4-3.9-1.5-19.7-.9-9.9.3-22.5.9-28 1.2-5.5.4-13.1.7-17 .8l-7 .1.1 9.5c.1 5.2.5 18.5 1 29.5 1.5 32.7.8 93.4-1.1 102.9-1.9 9-1.4 10 4.5 9.1 2-.3 4.7-.1 6 .4 1.9.8-.1 1-8 .8l-10.5-.2.3-4.5c.2-2.5.7-7 1.3-10.1 1.1-6.3 1.4-59.3.5-79.4-.8-17.8-2.5-38.1-3.7-43.2-1-4.8-1.2-15.9-.3-22.6.6-4 1.1-4.7 3.7-5.6 2.9-1 9.7-1.5 9.7-.7 0 .2-.7 2-1.5 4-.9 2-1.3 4.1-1 4.6.9 1.4 4 1.2 8-.5 2.6-1 3.7-2.2 4.1-4.5.4-1.7 1.3-3 2.1-3 1.1 0 1.4.6.9 2.2-2 7.3-2.2 6.8 2.7 6.8 5.3 0 7.2-1.5 8.1-6.5.6-3.2 1-3.6 3.3-3.3 2.4.3 2.7.7 2.7 4.3.1 3.6.4 4 2.8 4.3 3.3.4 6.8-2.8 6.8-6.2 0-2.5 2.1-3.6 7.3-3.6 2.7 0 2.8.1 2.5 5.2-.3 5.1-.2 5.3 2.5 5.6 3.8.5 7.7-2.2 7.7-5.2 0-1.4.3-3.1.6-4 1.2-3.1 2.2-1.5 2 3.1-.1 4.7-.1 4.8 3.2 5.1 4.8.5 7.8-1.9 8.6-6.7.6-3.9.8-4.1 4-4.1h3.3v83.5zm59.8-68.2c.3 1.2.4 11.4.3 22.7-.3 20.8.9 69.8 1.8 71.1.2.4.5 9.2.6 19.6l.2 18.8h-30.9l-1.2-10.5c-.6-5.8-1.4-15-1.7-20.5-.4-5.5-1.1-15.4-1.6-22s-1.1-26.6-1.4-44.5c-.2-17.9-.6-33.1-.7-33.9-.3-1.1 1.7-1.5 9.6-1.8 5.4-.2 10.1-.5 10.2-.7.2-.2 3.5-.3 7.3-.4 6.4 0 7.1.2 7.5 2.1zm-173.4 1.4c0 1.5.1 24.4.1 50.8s.3 51.1.6 55c.4 3.8.5 12.1.4 18.3l-.4 11.3-14.5-.4c-7.9-.3-14.6-.7-14.9-.9-1.5-1.6-2.3-21.1-2.4-60.2 0-24.7-.2-45.2-.5-45.5-.2-.4-.6-7.3-1-15.3l-.6-14.7 4.3-.3c2.4-.2 9.8-.4 16.6-.6l12.2-.3.1 2.8zm17 4.3c.4 3.6 1 10.1 1.4 14.6.8 8 .7 8.1-1.6 8.7-4.6 1.3-8.1.7-11.3-1.8-3.1-2.4-3.3-2.8-2.8-7.2.3-3.1 1.3-5.4 2.8-6.7 3.8-3.6 4-6.3.5-9.5-1.7-1.6-3.1-3.1-3.1-3.4 0-.6 7.1-1.4 11-1.3 2.3.1 2.5.5 3.1 6.6zm119.5-5.5c.4.9-.4 2.5-2 4-3.2 3-3.2 7.2-.1 8.9 2.9 1.6 3.2 2.2 3.3 7.1.2 3.1-.2 4.5-1.1 4.5-.7 0-1.8.5-2.5 1.2-1.5 1.5-17 1.9-17.9.5-.3-.5-.7-6.2-.9-12.8-.4-14-.7-13.6 10.5-13.8 4.1-.1 7.7-.3 7.9-.6 1-1 2.3-.5 2.8 1zm-37 1.8c.4.4 1 8 1.2 17l.4 16.2-26.8.2c-14.8.1-30.1.6-34.1 1.1l-7.2.8-.5-5c-.3-2.8-.7-10.5-.8-17.1l-.3-12 12-.1c11.7-.1 43.8-1.4 44.2-1.8.7-.6 11.3 0 11.9.7zM210 366c0 .5-.8 1.4-1.9 1.9-1 .6-2.1 2.3-2.4 3.8-.5 2.2 0 3.3 2.2 5.3 1.8 1.6 3 3.9 3.4 6.5.5 3.5.2 4.4-2.3 7.3-1.7 1.8-4 3.3-5.2 3.5-2.3.2-2.3 0-2.4-12.3-.2-14.7 0-15.7 2.9-16.3 4-.8 5.7-.7 5.7.3zm-38 20.9c0 8.2.2 15.5.4 16.3.6 1.8-6.8 8-8.6 7.3-1.2-.5-1.7-3.7-2.2-14.7-.4-7.8-.9-14.5-1.2-14.9-.3-.5-4-.6-8.3-.2l-7.9.6-2.1-4.1c-1.2-2.3-2.1-4.4-2.1-4.7 0-.3 7.2-.5 16-.5h16v14.9zm-68.4-4.3c-.3 2.6-.6 5.5-.6 6.5s-.7 1.8-1.7 1.7c-2.8 0-23.3 2.3-28.3 3.2-2.4.5-4.7.7-5.1.4-.3-.2-6.6.3-14 1s-13.7 1.1-14.2.9c-.4-.2-.5-1.4-.2-2.6.2-1.2.7-4 1-6.2.6-4.3 1.7-5.5 5.5-5.5 11.4-.1 46.1-2.2 48.5-2.9 1.7-.5 4.5-1 6.4-1l3.4-.1-.7 4.6zm416 3.8c.3 1.4.2 11.9-.3 23.6-.8 19-1.1 21.3-2.9 23.1-2.8 2.8-12 4-31.1 4.2-14.3.2-16.4 0-18-1.6-1.6-1.5-1.8-4.3-2-25.2-.2-23.6.1-26.1 3.3-23.4 1.2 1 1.4 4.1 1.2 17.8-.2 9.1 0 17.1.4 17.7.5.7 2.4.7 6.5-.1 5.1-1 5.9-1.5 6.8-4.1 1.6-4.8 2.4-5.4 7-5.4 4.7 0 7.5 2.4 7.5 6.3 0 1.7.6 1.9 5.4 1.5 3-.2 6.6-1.2 8-2.1 2.5-1.7 2.6-2.1 2.6-12.2 0-6.1-.4-10.6-1-11-.7-.5-1 2.7-.9 9.5.1 8.3-.2 10.5-1.5 11.8-4.4 4.4-6.9-4-6.4-21.3l.3-9 2.9-.3c2.2-.3 3.5.3 4.9 2l1.9 2.3-.6-2.7c-.5-2-.2-2.8 1.1-3.1 3.5-.9 4.3-.7 4.9 1.7zm-44.7 2.4c.5 1 1.1 8.2 1.3 16 .3 14.5-.3 17.1-3.6 15.9-1.3-.5-1.5-3.1-1.5-17.2.1-13.3.3-16.5 1.4-16.5.8 0 1.9.8 2.4 1.8zM103 396.2c0 1.8.3 5 .6 7 .6 3.5.5 3.8-1.7 3.8-1.3 0-5.6.7-9.4 1.5-8.2 1.7-31.4 4.3-43.2 4.8-6.5.2-8.3 0-8.8-1.1-.3-.8-.4-1.6-.3-1.7.2-.1 8.6-.8 18.8-1.4 18.7-1.3 40.7-4.4 42.4-6.1 1.9-1.9-.3-2.1-6-.6-5.1 1.2-13.4 2.4-28.4 4.1-1.9.2-8.8.7-15.2 1l-11.8.7-.2-2.9c-.3-7.3-.9-6.7 6.7-7.4 3.9-.4 13.1-1.2 20.5-1.9s16.7-1.5 20.5-2c3.9-.4 8.9-.8 11.3-.9 4.1-.1 4.2 0 4.2 3.1zm335.9 4.6c0 3.7.3 7.7.5 9 .8 4-.1 4.7-6.2 4.7-4.4-.1-5.6-.4-5.4-1.5.7-3.1-.9-6.2-3.8-7.2-6.9-2.4-1-10.4 8.1-11 2.2-.1 4.3-.6 4.5-1 1.3-2.1 2.2.8 2.3 7zm-59.1-4.2c3.6 1.6 4.2 2.3 4.2 5.1 0 2.5-.6 3.5-2.7 4.5-2.2 1-2.9 2.1-3.1 5.1l-.3 3.7h-15.7l-.4-5.6c-.3-3.1-.3-7.7 0-10.3l.4-4.6 6.8.1c4.3.1 8.2.8 10.8 2zm-115 .3c.9.6 1.6 4.1 1.9 11l.6 10.1h-8.2c-7.9 0-9.2-.5-7-2.7 1.8-1.8.6-6.7-1.8-7.8-1.6-.7-2.3-1.8-2.3-3.6 0-3.4 4-6.2 10-7 2.5-.3 4.7-.6 5-.7.3-.1 1.1.2 1.8.7zm-52.8 5.7c0 1.6-1 3.6-2.5 5-3.1 2.9-3.2 6.8-.3 8.8 2.7 1.9 2.4 2.2-2.9 2.9-4.9.6-4.6 1.3-4.7-11.4l-.1-7.6 5.2-.2c5.1-.1 5.3-.1 5.3 2.5zm127.8-1c5.2.5 7.2 1 7.2 2s-.7 1.3-2.2.9c-3.1-.6-37.5-1.1-46.8-.6-4.1.2-9.8 1.2-12.7 2.2-5.4 1.8-6.3 1.7-6.3-1.2 0-1.7 1.2-2 18-3.2 8.7-.6 36.2-.7 42.8-.1zm4.9 6.1c2.8 1 3.3 2.3 3.3 8.9v6.2h-3.5c-3.3 0-3.4-.2-4.1-4.5-.5-3.6-1.2-4.6-3.3-5.5-2.7-1-42.3-.4-48.9.8-3 .6-3.3 1-3.2 3.8.4 6.3.2 6.8-2.7 6.4-2.5-.3-2.6-.6-3-7-.3-6.7-.3-6.8 2.4-7.4 1.6-.3 3.5-.8 4.3-1.2 4.7-1.9 53.8-2.3 58.7-.5zm-239.4 8.5c.4 1.2.1 2.5-.5 2.9-1.5 1-13.5 2.5-33.8 4.4-9.1.8-19.1 1.8-22.2 2.1-5.3.5-5.8.4-5.8-1.3 0-2 .2-2.1 38.5-6.3 4.4-.5 10.9-1.6 14.5-2.4 8.8-1.9 8.7-1.9 9.3.6zm229.3-.4c-2.7.3-2.8.5-2.2 4.5l.7 4.1-3.4-3.9c-2-2.3-3.8-3.6-4.5-3.1-2.3 1.4-1.1 6.5 3.9 16.1 2.8 5.3 4.9 9.9 4.7 10.1-.7.7-7.5-8.1-9.8-12.6-4.7-9.2-8.9-15-11-15-4.2 0-3 5 5.2 23.1 1.7 3.7 2.9 7.2 2.7 7.8-.5 1.5-14.1-18.7-17.1-25.4-1.2-2.8-2.4-5.3-2.6-5.7-.2-.4 4.8-.9 11-1 12.1-.3 27.2.3 22.4 1zm-38.6 2.4c0 3.1 3.2 13 6.5 20.1 1.5 3.1 2.5 6.3 2.2 7-.2.6-2-2.4-4-6.8-6.1-13.2-7.1-15-8.9-15.3-2.5-.5-2.4 4.8.2 12.3 2.3 6.8 2.4 7.3.8 5.7-2.7-2.7-4.1-1.4-3.5 3.4.3 2.7.1 4.2-.4 3.7-.7-.7-1.4-24-.9-31.6 0-.4 1.8-.7 4-.7 3.5 0 4 .3 4 2.2zm6.6 6c3.1 6.7 11.4 19.9 14.7 23.5 1.1 1.3 1.9 2.3 1.6 2.4-.2.1-3 .2-6.1.4-5.5.3-5.8.2-5.2-1.9.5-2.3.3-3.1-6-19.5-3.8-9.9-4.1-11.1-2.8-11.1.5 0 2.2 2.8 3.8 6.2zm17.4 5c6.4 11.4 11.5 17.8 14.1 17.8 3.7 0 2.8-4.4-3.3-15.8-2.7-5.2-4.8-9.6-4.5-9.8.2-.3 2.1 1.8 4.2 4.6 5.2 7 9.1 6.7 6-.6-1.9-4.5-1.9-6.4-.1-6.4.9 0 1.6 1.7 2 4.9.7 5 1 25.1.4 25.6-.2.2-3.4.4-7.3.6l-6.9.4-.7-3.1c-.3-1.7-1.5-5.1-2.7-7.5-2.7-5.7-8.2-19.2-8.2-20.2 0-2 2.1.9 7 9.5zm64.3-.1l.2 9.6-10.9.6c-6 .4-11.2.5-11.4.2-.8-.8-1.4-13.4-.8-16.8l.7-3.5 11 .1 11.1.2.1 9.6zm54.1-9.5c1.3.5 1.6 2.2 1.6 8.3v7.6h-17.5l-.3-8.3-.3-8.2h7.5c4.1 0 8.1.3 9 .6zm-265 2.9c.3.8.1 1.5-.5 1.5-1 0-10.4 4.6-33.4 16.3-8.7 4.5-10.5 4.9-10.5 2.4 0-1.3 39.4-21.6 42.1-21.7.9 0 1.9.7 2.3 1.5zm93.1-.5c.4.6.9 4.4 1.2 8.5.5 6 .3 7.5-.8 7.6-.8.1-2.3.3-3.4.4-10.9 1.5-14.3 1.5-14.9 0-.3-.9-.3-4.9.1-9l.6-7.4 3.6-.4c7.6-.8 13-.7 13.6.3zm-160 1.1c.4.6.5 1.2.2 1.5-.8.8-38.5 5.7-54.3 7-7.7.6-8.1.6-8.7-1.5-.3-1.5-.1-2.1 1-2.1 1.4 0 27.1-2.2 42.3-3.6 3.6-.3 8.5-.9 11-1.4 6.6-1.1 7.8-1.1 8.5.1zM213 433c0 8.8-.1 9-2.4 9-1.3 0-3.8.3-5.5.6l-3.1.6v-9c0-10-.1-9.9 7.3-10.1l3.7-.1v9zm248.2-7c1.8 0 2.4 1.3 3.3 7.5.3 2.2 1.2 4.3 2.1 4.8.8.4 1.2 1.2.9 1.7-.3.4.4 3.6 1.5 7 1.1 3.5 2 7.1 2 8.1 0 2.9-1.9 2.3-2.6-.9-.3-1.5-1.2-5-1.9-7.7-.7-2.8-1.7-6.4-2.1-8-.7-2.9-.8-2.9-1.4 1.5-.4 2.5-.4 5 .1 5.5 1.4 1.9 4.2 11 4.1 13.4-.1 1.3.3 3 .9 3.7.6.8.7 1.4.2 1.4-1 0-.9 6 .2 10.4.5 1.9.1 4.4-1.2 8-1.2 2.8-2.8 8.2-3.8 11.9l-1.7 6.8-8.7-.3-8.6-.3-.5-4.5c-.4-3.2-.9-4.4-1.9-4.2-4.6 1-9.5 1.3-11.7.8-2.1-.6-2.4-.9-1.4-2.1 1.8-2.1.4-6.4-2.5-7.7-1.7-.8-2.5-1.9-2.5-3.7 0-3.2 3.2-4.7 11.2-5.3l5.7-.5.6 4.6c1 7.3 1.3 7.1 1.4-.7.1-8.1.7-7.6-9.4-7.2-3.4.1-4.3-.3-5.5-2.4-.7-1.4-1.9-2.6-2.7-2.6-.7 0-1.3-.6-1.3-1.4 0-.8-.3-2.1-.6-3-.4-1.2 0-1.6 1.5-1.6 2.6 0 4.6-3.9 3.8-7.2-.4-1.3-2-3.1-3.6-4-2.3-1.2-2.9-2.2-2.6-3.9.3-1.2 1-2.6 1.7-3.1 1.8-1.1 14.5-1 15.2.1.3.5.9 6.4 1.2 13.2.3 6.8.8 12.6 1 12.8.2.2.4-3.3.4-7.8 0-4.7.4-8 .9-7.7 1.4.9 12.8-2 15.7-3.8 2.9-1.9 3.2-3.1.5-1.6-3.3 1.7-15.3 4.2-16.3 3.2-.8-.8-1.2-8.8-.9-19.4l.1-4.7 8.8.4c4.8.3 9.5.5 10.4.5zM108 429.5c0 .8-1.4 1.6-3.2 1.9-24 3.6-36.8 5.1-49.9 6.1-7.2.5-8.8.3-9.2-.9-.4-.9-.3-1.7.1-2 .4-.2 7.5-1.1 15.7-2 8.3-.9 21.5-2.3 29.5-3.2 8-.9 14.7-1.7 14.9-1.9.7-.8 2.1.6 2.1 2zm1.8 5.2c.6 1 1.3 3.2 1.6 4.9l.7 3.1-6.8 1.1c-23 3.7-53.9 7.5-55.2 6.7-1-.6-3.5-9.4-2.9-10 .3-.3 11.2-1.6 24.4-3 30.6-3.2 33.8-3.6 34.3-4.1 1-1 3.1-.3 3.9 1.3zm89.2 3.1c0 2.6-.5 5.3-1.2 6-.7.7-4.1 1.2-8.4 1.2-6.4 0-7.5-.3-8.8-2.2-.9-1.2-1.6-3.4-1.6-4.8 0-2.2.6-2.8 3.8-3.7 2-.6 6.5-1.1 10-1.2l6.2-.1v4.8zm86.6 7.3c.5 4.6 1.2 6.3 2.8 7.2 2.5 1.4 45.4 1.5 50.1 0 2.8-.9 3-1.3 3.3-6 .3-5.3 1.4-6.6 5-5.7 1.6.5 1.9 1.5 2.1 6.2 0 3.1-.2 6.2-.7 6.9-1.2 1.9-37.9 5.2-51.7 4.7-17.9-.7-16.5.2-16.5-10.3 0-6.3.4-9.1 1.3-9.4 2.6-.9 3.6.7 4.3 6.4zm-17.3.6c.8 3.8.8 12 .1 16.5l-.6 3.8H260c-7.2 0-7.9-.2-9.4-2.5-2.1-3.3-2-5.8.4-8 2.4-2.1 2.7-7.7.5-9.8-2.2-2.2-.8-2.7 8.1-2.7 8.2 0 8.2 0 8.7 2.7zm116.5-.4c.2 1.1-.8 3.2-2.3 4.7-3.3 3.5-3 6.8.9 8.9 1.6.9 2.8 2 2.7 2.4 0 .4-.1 1.3-.1 2 0 2.1-5.1 3.5-14.7 4-10.7.6-10 1.6-9.9-12.8l.1-10 6.5-.6c11.6-1.1 16.4-.6 16.8 1.4zm-269.9 3.3c.8 1.6 4 6.9 7.2 11.7 3.3 4.9 5.9 9.2 5.9 9.6 0 1.1-6.2 2.7-16 4.1-4.7.7-11.9 1.8-16 2.6s-12 1.7-17.6 2.1l-10.3.6-5-5.4c-4.5-4.8-13-19.4-11.9-20.4.2-.3 4.9-.9 10.4-1.5 5.4-.6 12.6-1.6 15.9-2.2 7.4-1.3 33.6-4.6 35-4.3.6.1 1.6 1.5 2.4 3.1zm92.5 1.1c-.5 3.4-.2 4 2.5 6.1 2.2 1.6 3.1 3.1 3.1 5.1 0 3.6-2.5 5.7-7.7 6.5l-4.3.6v-9.4c0-10 1-12.6 5.1-12.6 1.7 0 1.8.5 1.3 3.7zM514.5 465v6.5l-9.4.8c-11 1-11.1.9-11.1-7.5v-5.7l8.8-.4c4.8-.2 9.4-.3 10.2-.2 1.2 0 1.5 1.4 1.5 6.5zm-166.2-4.1c.9.9 2.1 32.5 1.3 35.7-1.1 4.2-17.4 6.4-44.9 6.1-18.3-.2-20.8-.4-22.4-2-1.6-1.6-1.8-3.8-1.8-20v-18.2l9 .3c11.6.3 44.1-1.5 48-2.8 3.1-.9 9.4-.4 10.8.9zm142-1.2c.2.5.2 3.6-.1 7-.5 7.3-.9 7.5-11 7.5-4 0-7-.6-7.8-1.4-.7-.7-1.5-3.9-1.7-7-.4-5.5-.4-5.7 2.2-6.1 4.8-.7 18-.7 18.4 0zM268 480.9v9.9l-7-.2c-6.3-.1-7-.3-7-2.1 0-1.1-.9-3.5-2-5.3-1.1-1.8-2-4.6-2-6.2 0-4.7 2.2-6 10.6-6h7.4v9.9zm114.1-6.8c.5 1.1 1.8 1.9 2.8 1.9 3.3 0 4.3 7.5 1.1 8.5-1.2.4-2.3 1.8-2.7 3.6-.7 3.4-1.3 3.6-12.5 3.8l-8.8.1v-19.9l6.8-.3c9.1-.4 12.1.1 13.3 2.3zm-170.9 1.6c2.5 2.2 2.3 5.6-.4 6.8-2.6 1.1-3.6 6.2-1.9 9.3.9 1.7.6 2-3.2 2.5-2.3.3-4.2.5-4.3.4-.1-.1-.4-4.6-.6-9.9-.4-10.6-.5-10.4 5.6-10.7 1.6 0 3.8.6 4.8 1.6zm302.4-.3c0 .1-.2 2.6-.5 5.6l-.6 5.5-11.5.3c-6.3.2-16.1 0-21.7-.3-11.2-.7-11.7-1.1-9-6.5 1.2-2.3 1.9-2.5 11.2-3.2 5.5-.4 12-.7 14.5-.8 2.5 0 6.3-.4 8.5-.9 3.1-.6 8.5-.5 9.1.3zM148 485.6c1.9.7 4.6 1.3 6 1.4 2.1 0 1.7.6-3 3.6-7.3 4.6-12.3 6-33 9-9.6 1.4-18.8 2.7-20.5 2.9-1.6.3-5.2.7-8 1.1l-5 .5-3.9-6.1c-2.1-3.3-3.7-6.2-3.5-6.4 1.1-.9 16-2.9 37.2-5.1 13-1.3 24.5-2.6 25.5-2.8 1.7-.5 2.2-.4 8.2 1.9zm385.8 4.4l4.2 2.1-.6 6.7c-.4 3.7-1 7.1-1.4 7.6-1 1-10.6-.6-10.2-1.7.1-.4.2-4.3.2-8.7 0-9.2.5-9.5 7.8-6zm-143.6 7.3c2.5 1.4 20.8 1.5 40.9.2 12.4-.8 11.9-1.3 11.9 11.2 0 3.9.5 7.5 1 7.8.6.4.8 1.1.5 1.6-.4.5-.2.9.3.9 1.1 0 4-3.3 7.7-8.8 3.3-5 4.3-5.8 5.7-4.4.7.7-.6 3.2-4.3 7.9-4 5.3-5.8 6.9-7.7 6.8-1.5 0-2.8-.8-3.3-2-.7-1.9-.8-1.9-.8-.1-.1 1.7-.7 1.8-5.8 1.2-3.2-.3-9.7-.9-14.5-1.3-8.3-.6-8.8-.7-8.8-2.9 0-1.3.8-2.8 1.8-3.4 1.2-.8 1.3-1.3.5-1.6-.7-.3-1.3-1.7-1.3-3.1 0-1.9-.4-2.4-1.6-1.9-.9.3-2 .6-2.5.6s-.9.5-.9 1.1c0 .6.9.8 2 .4 2.4-.8 2.9 2.2.5 3.1-1.1.5-1.2 1-.6 1.8.6.7.8 2.2.4 3.4-.5 2.1-1 2.2-6.2 1.8-3.1-.3-12.8-1-21.6-1.6-8.8-.7-17.1-1.2-18.5-1.3-2.2-.2-2.6-.8-3-4.7-.3-2.5-.3-6.6-.2-9.1l.4-4.6 12.9-.2c9.2-.1 13.5.2 15.1 1.2zm-123.6 7.4c-1.3 13.2-.1 12-12.9 12.8-6.2.3-20.2.5-31.2.3l-20-.3-.3-8.1c-.3-7.8-.2-8.2 2-8.8 3.9-1 10.5-.7 11.6.6.7 1 5.4 1.3 16.9 1.3 15.4 0 15.8-.1 16.8-2.3.9-2 1.6-2.2 9.4-2.2h8.3l-.6 6.7zm227.8-1.3c17.3.2 18.1.3 18.4 2.2.3 1.9-.6 2.1-10.5 3.1-7 .7-15.3.8-23.8.3-7.1-.5-13.3-.9-13.7-1-.5 0-.8-1.4-.8-3.1v-3.1l6.2.7c3.4.4 14.3.8 24.2.9zm20.8 11.6c.9 1.9 2.5 4.3 3.4 5.2 1.1 1.2 1.3 1.8.5 1.8-.7 0-.9.5-.5 1.2.5.8-3.3.9-15.7.4-23-1-36.4-3-35.7-5.3.1-.5-.3-1.8-1-2.9-.6-1.2-.9-2.3-.7-2.6.2-.2 3-.1 6.2.3 7.5.8 30.8.2 35.3-1 5.2-1.4 6.3-1 8.2 2.9zm64.8 8.8c-1.7.6-1.1 1.9 1 2.5 2.8.7 2.5 1.7-1.5 6.4-1.9 2.3-3.5 4.6-3.5 5.2 0 1.3-2.9 1.4-4.9.2-1.1-.7-.6-1.9 2.4-5.8l3.9-4.8-5.4 5.2c-5.5 5.4-6.5 5.9-8.8 4.4-1-.6-.5-1.7 2.2-4.7 2-2.1 3.6-4.2 3.6-4.7 0-.4.6-.7 1.3-.7.6-.1 2.6-1.8 4.2-4l3-3.8 1.7 2.1c.9 1.2 1.3 2.3.8 2.5z"/>
    <path d="M297.5 194.7c-11.6.6-22.1 2.3-33.3 5.6l-11.2 3.2.1 5.8c.2 5.7.2 5.7 3.8 6.6 2 .5 8.8 1.3 15.1 1.6 6.3.4 11.8.9 12.1 1.1 1 .6 40.5.5 46.4-.1 9.1-.9 20.9-2.6 25.2-3.7l4.2-1-.6-5.2c-.7-5.9-3-9.1-7.6-10-15.5-3.2-37.5-4.8-54.2-3.9zm41.6 3.7c5.2.8 10.6 1.9 12 2.5 3.6 1.3 5.9 4.8 5.9 8.7 0 3.6 1.2 3.2-16.5 5.6-11.7 1.5-55.6 1.6-70.9.1-13.2-1.2-15-2.2-14.4-7.7.3-2.5.9-3.1 4.8-4.2 19.5-5.5 24.3-6.1 50.6-6.3 12.1-.1 22.5.4 28.5 1.3zM262.8 110.9c-.8.3-2.8 2.2-4.5 4.1-2.7 3.2-4.8 6-14.8 20.4-1.6 2.4-4.5 5.9-6.2 8-5.9 6.6-3.4 8.8 4 3.7 2.3-1.5 5.7-3.6 7.6-4.6 1.9-.9 6.2-3.9 9.6-6.6 3.5-2.7 6.7-4.9 7.2-4.9.4 0 2.5-1.4 4.6-3.1 4.5-3.7 4.3-4.9-1.7-12.4-2.8-3.4-4.8-5-5.8-4.6zm6.3 9.8c1.1 1.8 1.8 3.7 1.4 4.2-.9 1.6-12.1 8.1-13.9 8.1-.8 0-2.3-1.1-3.1-2.4-1.9-2.9-1.4-4.3 4.8-12.4l4-5.3 2.4 2.3c1.3 1.2 3.3 3.7 4.4 5.5zM100.5 296c-.8 1.6-2.4 3.4-3.6 4-1.1.6-2.9 3.1-3.9 5.4-1.3 3.2-2.6 4.5-4.6 5-1.5.4-5.2 3.2-8.2 6.2-5.4 5.4-5.5 5.5-3.4 7 2.6 1.8 4.5 8 3.2 10.5-1.3 2.3-1.3 2.9.1 2.9 1.8 0 3.8-3.2 3.9-6.2 0-1.5-.7-4.6-1.6-6.8-1.5-3.8-1.5-4.2.1-6 2.4-2.7 3.2-2.5 5.1 1.2 2.6 5.1 3.5 9 2.3 10.4-1.8 2.2 0 3.8 2.1 1.9 2.8-2.5 3.3-6.6 1.6-11.6-.9-2.4-1.6-5.2-1.6-6.2 0-2.3 3-6.8 4.1-6.1 1 .6 3.1 8 3.1 11.1.1 2.6 2.3 3.1 3.2.7 1-2.7.7-6.8-1-11.7-1.6-4.7-1.4-7.7.5-7.7.5 0 1.2 1.3 1.6 3 .4 1.6 1.1 3 1.6 3 1.6 0 1.4-5.3-.4-8.5-.6-1.1-1-2.6-.9-3.3.5-2.4-1.8-1.2-3.3 1.8zM293.3 369.4c-5.6.6-10.5 1.5-11 1.9-1.3 1.3.1 23.5 1.5 24.8 1 .9 58.3-.8 59.2-1.8.4-.4.2-6-.6-12.3-1-8.5-1.7-11.8-3-12.7-2.2-1.6-31.4-1.5-46.1.1zm24.3 1.9c.3.3-1.4 3.1-3.8 6.2-2.3 3.2-5 6.7-5.8 7.9-3.7 5.5-6 7.7-7.6 7.4-1.3-.2 0-2.4 5.3-9.3 3.8-5 7.3-9.7 7.7-10.5 1.5-2.9-8.5 8.5-12.1 13.8-3.3 5-5.8 7.1-6.8 6-.3-.2 2.7-4.8 6.5-10.1s6.6-9.7 6.2-9.7c-.9.1-9.1 10.5-12.8 16.4-1.6 2.5-3.7 4.5-4.6 4.6-2.6 0-2.3-.9 3-7.6 10.9-14 11.7-15.2 5.8-8.9-3 3.3-7.3 8.4-9.3 11.4-3.1 4.4-3.9 5-4.1 3.3-.4-2.4 2.9-7.3 9.7-14.6 2.5-2.6 3.7-4.4 2.6-3.8-1.1.6-4.2 3.8-6.9 7.1-4.5 5.6-6.6 6.8-6.6 3.8 0-.7 2.6-4 5.9-7.4 5.7-6 6-6.2 11.7-6.6 7.1-.5 15.2-.2 16 .6zM296.1 466.4l-10.5 1.1-.9 3.5c-.9 3.6-.6 25.4.4 26.4 1.5 1.5 22.4 3.5 33.4 3.1 18.8-.5 27-2.2 28-5.6.9-2.8-.4-24.8-1.6-27.1-.5-1-1.7-1.8-2.7-1.9-9.8-.6-37.9-.3-46.1.5z"/>
  </g>
</svg>
