<?xml version="1.0" encoding="UTF-8"?>
<svg width="568px" height="291px" viewBox="0 0 568 291" version="1.1" xmlns="http://www.w3.org/2000/svg" xmlns:xlink="http://www.w3.org/1999/xlink">
    <!-- Generator: Sketch 51.2 (57519) - http://www.bohemiancoding.com/sketch -->
    <title>mice</title>
    <desc>Created with Sketch.</desc>
    <defs></defs>
    <g id="Page-1" stroke="none" stroke-width="1" fill="none" fill-rule="evenodd">
        <g id="mice" transform="translate(-1.000000, 0.000000)" fill-rule="nonzero">
            <g id="Group" transform="translate(284.700000, 145.500000) scale(-1, 1) rotate(-180.000000) translate(-284.700000, -145.500000) translate(0.700000, 0.000000)">
                <path d="M364.4,288.4 C362.7,287 360.8,284.1 360.2,281.9 C359.3,278.9 358.6,278.1 357.3,278.5 C356,278.9 355.4,278.3 355,276 C354.6,274 352.1,270.9 347.6,266.8 C338.4,258.2 336.5,256.1 335.8,253.9 C335.4,252.9 333.3,251.2 331,250.2 C325.3,247.7 324,245.8 323.7,239.7 C323.3,232.9 322.9,230.6 321,224 C320.1,221 318.9,216.4 318.2,213.8 C317.2,209.6 316.7,209 314.4,209 C309.9,209 287.3,197.2 287.3,194.8 C287.3,194.3 288.5,194.7 290.1,195.8 C295,199.3 309.2,206.1 312.8,206.7 C315.6,207.1 316.3,206.9 316.3,205.6 C316.3,204.7 315.5,204 314.5,204 C313.5,204 311.7,203.2 310.4,202.3 C304.4,197.7 295.9,190.3 295.2,189 C294.8,188.2 292.5,184.2 290.2,180.2 C287.9,176.2 286.3,172.7 286.6,172.4 C287.1,171.8 296.3,186.5 296.3,188 C296.3,189.4 309,199.6 313,201.5 C316.2,203 316.7,203 318,201.7 C319.4,200.3 319,199.3 313.9,192.1 C303.8,177.9 299.8,166.4 298.9,150 C298.5,142.1 298.5,141.4 299.3,146 C299.8,149 300.5,154.4 300.8,157.9 C301.7,167.2 305.8,177.2 313.5,188.7 C320,198.4 320.5,198.9 322.9,198 C324.3,197.4 326.4,197.2 327.7,197.6 C328.9,197.9 331.2,197.6 332.7,197 C334.7,196.3 337.8,196.3 343.7,197.1 C350.8,198.1 352.5,198 357.3,196.3 C361.6,194.9 363,193.9 363.8,191.7 C364.7,189.1 364.4,188.5 360.7,185.1 C357.6,182.1 355.1,180.9 349.3,179.5 C339.1,177 334.9,174.2 332.8,168.5 C331.4,164.9 331.2,163.4 332.1,161.5 C332.8,160.1 333.9,159 334.7,159 C335.6,159 337.2,157.7 338.4,156 C340.2,153.7 341,153.3 342.4,154 C345,155.4 350.3,155.2 350.4,153.8 C350.5,153.1 350.7,150.2 350.8,147.3 C351,141.6 352.5,139 355.5,139 C356.5,139 357.6,138.4 357.9,137.6 C359.2,134.3 367.4,135.4 369.4,139.1 C369.9,140.1 371.4,141 372.7,141 C373.9,141 377.5,142.3 380.6,143.9 C385,146.1 387.6,146.8 392.1,146.7 C397.7,146.7 409.9,149.2 413.6,151.1 C414.6,151.7 418,151.8 421.4,151.4 C426.6,150.8 427.3,150.9 426.7,152.4 C426.4,153.3 426.6,154 427.2,154 C429.1,154 428.4,156.2 426.3,156.7 C423,157.6 424.1,158.6 427.8,158.2 C432,157.7 432.4,159.1 428.6,161 C427,161.8 425.4,162.6 424.9,162.9 C424.4,163.1 424.3,162.5 424.6,161.6 C425.2,160.1 424.9,159.9 422.8,160.4 C420.1,161.1 419.6,160.1 421.5,158.2 C423.1,156.6 422.3,156.7 417.9,158.5 C415.9,159.3 414.3,159.6 414.3,159.1 C414.3,158.6 415.7,157.7 417.3,157 C421.1,155.4 422.3,153.7 419,154.5 C417.7,154.9 410.8,154.2 403.7,153 C396.6,151.8 388.9,151 386.6,151.3 C384.2,151.5 382.3,151.4 382.3,150.9 C382.3,149.2 372.8,144 369.8,144 C367.9,144 366.3,143.3 365.5,142 C364.3,140 359.9,139.2 358.9,140.9 C358.2,142 360,144 364.6,147.4 C366.7,148.9 368.2,150.5 367.9,150.8 C367.6,151.1 366.5,150.6 365.5,149.7 C364.5,148.7 363.2,148 362.7,148 C362.1,148 360.2,146.9 358.3,145.5 C354.6,142.8 352.9,143.1 353.9,146.3 C354.9,149.7 357.4,152 359.9,152 C361.2,152 362.5,152.5 362.9,153.1 C363.4,154 362.2,154.1 358.7,153.6 C354.2,153 354,153.1 355.7,154.5 C356.8,155.3 358.5,156 359.5,156 C364.4,156 372.2,162 374.2,167.3 C375.6,170.9 375.6,176.7 374.3,177.5 C373.7,177.9 373.5,179.6 373.9,181.6 C374.2,183.4 374.2,185.8 373.8,186.7 C373.3,188.1 372.8,187.5 371.8,184.1 C370.6,180.4 370.6,179.4 371.7,177.8 C373.4,175.5 372.3,169.8 369.5,166.1 C367,162.7 360.4,161.3 354.5,162.9 C348.5,164.5 348,164.3 348.5,161.5 C349.2,158.2 347.8,157.4 344.8,159.4 C342,161.3 341.6,164.1 343.8,166 C344.6,166.7 345.3,167.7 345.3,168.3 C345.3,168.9 344.1,168.3 342.7,166.9 C340.6,165 340.2,163.9 340.7,161.2 C341.1,158.3 341,158 339.7,159.1 C336.6,161.7 336.2,163.7 338.4,166.4 C339.6,167.9 340.2,169.4 339.8,169.8 C339.5,170.2 338.3,169.4 337.3,168 C336.2,166.6 335.3,166 335.3,166.7 C335.3,167.4 336.6,169.4 338.2,171.3 C340.6,174 342.4,174.8 348,175.9 C355.9,177.5 360.8,179.7 364.2,183.4 C366.1,185.4 366.9,185.7 368,184.9 C369,184 369.3,184.3 369.5,186.1 C369.7,190.3 369.3,192.5 367.7,194 C366.3,195.3 366.2,195.2 366.8,192.5 L367.4,189.5 L365.6,192.9 C364.3,195.3 362.3,196.9 358.4,198.6 C352.5,201.3 348.9,201.5 341.3,199.9 C336.8,198.9 335.9,199 334.2,200.6 C333.2,201.5 332.3,202.9 332.3,203.7 C332.3,205.5 331.7,205.4 328.3,202.9 C324.1,199.8 320.3,200.9 320.3,205.3 C320.3,207 320.6,209.5 320.9,210.8 C321.5,212.9 322,213.1 325.3,212.5 C328.2,212 329.2,212.2 329.6,213.4 C330.2,214.9 328.8,215.5 325.6,215.1 C324.8,215 324.6,215.6 324.9,216.7 C325.4,218.3 325.3,218.3 323.9,216.6 C321.6,213.8 321.8,216.2 324.3,223.5 C325.4,226.7 326.3,230.6 326.3,232.1 C326.3,233.8 328.1,237.3 330.8,241.2 C333.3,244.7 336.1,248.9 337.1,250.5 C338,252.2 343.2,257.8 348.6,263 C355.2,269.5 358.3,273.2 358.3,274.8 C358.3,276 358.8,276.9 359.5,276.8 C360.1,276.6 361.7,278.6 363,281.2 C365.6,286.7 369.3,289 374.6,288.6 C379,288.2 380.8,286.8 383.3,281.9 L385.2,278.2 L382.5,277.5 C380.9,277.1 379.7,277.3 379.5,277.9 C379.2,278.7 378.6,278.7 377.2,277.9 C373.7,276.1 376.2,274.8 381.9,275.5 C386.6,276.1 387.2,275.9 386.7,274.6 C386.2,273.3 386.9,273 390.1,273 C396.2,273 397.2,270.9 393,267 C391.1,265.3 388.7,263.3 387.7,262.5 C386.6,261.8 386.2,260.8 386.6,260.4 C387.8,259.1 394.3,263.1 397.1,266.8 C400.3,271 403.8,272.8 409.3,273.2 C413,273.4 413.9,273 416.4,270.2 C418.9,267.5 419.3,266.1 419.3,261.4 C419.3,256.2 419,255.4 415.9,252.5 C411.7,248.5 408.5,247.9 402.2,249.5 C396.2,251.1 395.8,249.9 401.6,247.6 C406.9,245.6 409.1,245.6 413.7,247.5 C415.7,248.3 417.3,248.6 417.3,248.1 C417.3,247.7 415.2,246.5 412.6,245.5 C410,244.5 408.4,243.5 409.1,243.2 C410.5,242.8 416.4,245.3 420.6,248.2 C423.5,250.3 424.3,252.6 421.8,251.6 C420.1,251 419.8,252.5 421.4,253.6 C422.2,254 422.4,256.8 422.1,261.6 L421.6,269 L431.3,269 C439.6,269 441.3,268.7 443.3,267 C445.9,264.8 446.9,264.5 447.8,266 C448.1,266.6 447.4,267 446.1,267.1 C443.9,267.1 443.9,267.2 445.8,267.9 C446.9,268.4 448.1,268.3 448.4,267.7 C449.1,266.7 456.3,268.6 456.3,269.8 C456.3,270.2 453,270.5 449.1,270.6 C426.5,270.9 418.6,271.6 416,273.7 C412.9,276.1 405,276.6 401.1,274.6 C398.8,273.4 398.2,273.4 397.2,274.6 C396.6,275.4 394.6,276 392.9,276 C390,276 389.3,276.6 386.4,281.8 C382.4,288.9 379.2,291 372.5,291 C368.5,291 366.8,290.4 364.4,288.4 Z" id="Shape" fill="#57C003"></path>
                <path d="M190.2,275.2 C185.5,270.4 181.8,269.4 180.6,272.6 C180,274.2 177.3,274.5 177.3,272.9 C177.3,272.4 175.7,273.1 173.8,274.6 C167.8,279.2 156.1,277.9 150.8,272 C148.7,269.7 144,269.4 134.8,271.1 C130.4,271.9 128.4,271.9 126.8,271 C124.3,269.7 118.8,270.1 115.6,271.9 C112,273.8 110.6,273.1 113.7,271.1 C115.4,270 117,269.3 117.5,269.6 C117.9,269.9 118.3,269.6 118.3,269.1 C118.3,268.5 117.4,268 116.2,268 C114.6,268 114.3,267.6 114.8,266 C115.4,264.2 115,264 109.6,263.9 C102.7,263.9 96.8,262.1 96.8,260 C96.8,259 94.9,258.1 90.8,257.2 C84.7,256 80.9,255.3 78.3,255.1 C75.5,254.9 79.1,252.7 82.3,252.8 C83.9,252.8 85.3,252.7 85.3,252.5 C85.3,251.8 76.7,248.2 73.3,247.5 C71.3,247.1 69.9,246 69.2,244.3 C67.3,239.1 68.4,238.8 75.7,242.5 C78.4,243.9 81.1,246 81.7,247.2 C82.4,248.7 84.3,249.9 87,250.5 C91.8,251.7 93.3,252.8 91.5,253.9 C90.6,254.4 91.7,255.1 94.7,256 C97.2,256.7 99.8,257.9 100.4,258.6 C101.2,259.5 103.8,260 108.2,260 C114.1,260 115.2,260.3 117,262.4 C118.8,264.5 119.7,264.8 123.5,264.3 C127.4,263.7 127.7,263.8 126.4,265.3 C125.2,266.9 125.4,267 128.4,267 C130.3,267 132.7,267 133.8,267.1 C137.3,267.3 146.3,265.8 145.8,265 C145.6,264.6 144.9,260.2 144.3,255.2 C142.9,243.6 143.9,240 149.4,236.3 C154.1,233.2 157.9,232.8 164.8,234.5 C172.5,236.4 171.5,237.8 162.3,237.8 C157.8,237.9 153.1,238.5 151.5,239.2 C148.8,240.5 148.8,240.6 148.8,250.6 C148.9,261.4 150,264.6 155.8,270 C158.1,272.2 159.4,272.5 165.5,272.5 C172.4,272.5 172.7,272.4 174.3,269.5 C175.2,267.9 176.5,264.9 177.2,262.9 C178.4,259.1 183.8,253.2 185,254.3 C185.3,254.7 184.7,256 183.6,257.3 C182.6,258.5 180.9,261.4 180.1,263.8 C178.3,268.4 179,269 183.2,266.6 C184.6,265.8 186.2,265.4 186.9,265.7 C187.6,265.9 189.5,265.4 191.2,264.6 C192.8,263.7 195,263 196,263 C197.3,263.1 196.8,263.9 194,266.4 L190.1,269.7 L193.4,272.4 C196.2,274.8 197.2,275 200.7,274.4 C206,273.6 207.7,272.6 210.1,269.3 C212.5,265.9 213.5,261.9 212.4,260.2 C211.8,259.2 211.4,259.2 210.3,260.4 C209.6,261.3 208.7,261.7 208.2,261.4 C207.7,261.1 205.4,262.3 203,264 C200.3,266 198.7,266.6 198.4,265.8 C197.8,264.1 205.5,257.9 207.4,258.6 C208.3,258.8 209.3,258.4 209.7,257.5 C210,256.7 211.4,256 212.7,256 C214.3,256 216.6,254.6 218.9,252.3 C222.2,248.9 222.5,248.8 221.8,251 C221.3,252.4 221,255.2 220.9,257.3 C220.9,259.9 220.5,260.9 219.7,260.6 C218.9,260.3 218.2,261.3 217.8,263.1 C216.9,267.1 210.2,275.4 206.7,276.8 C205.1,277.4 201.8,278.4 199.3,278.9 C194.9,279.9 194.9,279.9 190.2,275.2 Z" id="Shape" fill="#57C003"></path>
                <path d="M453.3,265.5 C453.3,264.6 454.2,264 455.7,264 C457.1,264 458.5,263.6 458.8,263 C459.1,262.5 460.5,262 461.9,262 C463.2,262 464.3,261.6 464.3,261 C464.3,260.5 465.8,260 467.7,260 C469.5,260 471.6,259.4 472.2,258.7 C473.6,257 479.4,254.4 485.1,253 C488.6,252.1 491.2,250.1 499.3,241.7 C504.7,236.1 511.1,228.8 513.6,225.5 C519.7,217.4 527.8,210 530.6,210.1 C532.2,210.2 532.3,210.4 531.1,210.7 C530.2,210.9 529.6,211.7 529.8,212.3 C530.1,213 527.9,215.1 525.1,217 C522.2,218.9 518.4,222.5 516.6,225 C512.5,230.7 496.9,247.7 492.4,251.3 C490.5,252.8 487.1,254.5 484.9,255.1 C479.4,256.6 478.6,257.2 480.9,258.1 C482.1,258.6 481,258.9 477.3,259 C474.3,259.1 472.4,259.4 473.1,259.7 C475.6,260.7 474.2,262 470.6,262.1 L466.8,262.2 L470.3,263.5 C473.6,264.8 473.7,264.9 471.1,264.9 C469.6,265 468.1,265.5 467.8,266 C467.5,266.6 464.1,267 460.2,267 C454.7,267 453.3,266.7 453.3,265.5 Z" id="Shape" fill="#57C003"></path>
                <path d="M225.3,248.8 C225.3,247.7 226.9,245.3 228.8,243.5 C230.7,241.7 233.2,238.2 234.4,235.9 C235.7,233.5 237.6,230.3 238.8,228.8 C244.3,222.2 250.8,206.6 251.7,198.1 C252.1,194.2 251.8,193.3 249.4,191.1 C247.8,189.6 246.3,187.5 245.9,186.2 C244.9,183.2 242.4,182 235.6,181.6 C231,181.4 228.9,181.8 225.3,183.6 C219.8,186.5 214.5,186.6 207.1,184.1 C200,181.6 196.9,179.6 195.4,176.4 C194.5,174.4 194,174 192.9,174.9 C191.3,176.3 190.3,174.4 190.3,170.1 C190.3,168.6 189.8,166.9 189.2,166.3 C187.6,164.7 189.6,161.5 193.4,159.6 C197.9,157.4 199,157.6 196.5,160.3 C193.9,163 192.3,167.3 192.4,170.8 C192.5,173.4 192.5,173.4 193.2,170.4 C194.5,165.2 195.7,164.1 196.3,167.5 C196.8,170.4 196.9,170.3 199.8,164.5 C202.8,158.6 206.4,155.2 213.9,151.6 C217.2,150 220.1,143.6 219,140.5 C218,138 214.9,140.1 208.9,147.5 C207.6,149.2 206.1,150.2 205.7,149.8 C205.3,149.3 205.7,148.2 206.6,147.2 C209.5,144 207.3,144 201.2,147.1 C198,148.7 195,150 194.6,149.9 C194.3,149.9 193,152.3 191.7,155.2 C190.5,158.1 188.8,160.6 187.9,160.8 C185.7,161.3 185.9,160.4 190.2,152.5 C192.8,147.7 194.7,145.4 196.4,144.9 C197.8,144.6 200.8,143.1 203.1,141.6 C206.5,139.5 207.3,138.4 207.3,136 C207.3,131.9 205.8,132.2 201,137.2 C198.3,139.9 196.8,140.9 196.5,140.1 C196.2,139.3 196.8,138.3 197.8,137.8 C199.8,136.6 204.3,127.4 204.3,124.3 C204.3,119.2 200.2,122.6 198.9,128.8 C198.1,132.1 193.8,136 190.9,136 C189.5,136 189.5,135.7 190.5,134 C191.2,132.9 192.3,132 193,132 C194.6,132 195.9,123.2 194.5,121.8 C193.7,121 192.6,122 190.6,125.1 C189,127.8 185.6,131 182.2,133.3 C177.2,136.5 175.3,137 167.1,137.9 C162,138.4 157.5,138.6 157.2,138.4 C156,137.7 149.8,140.7 147.9,142.9 C145.4,145.6 144.1,145.6 144.5,142.8 C144.7,141.2 144.1,140.5 141.8,139.7 C140.2,139.2 136.8,136.8 134.3,134.4 C131.8,132 129.2,130 128.5,130 C127.8,130 127.3,129.6 127.3,129.1 C127.3,128.5 126.1,127.5 124.6,126.8 C122.9,126 121.4,124.3 120.8,122.3 C119.9,119.2 118.3,117.8 118.3,120 C118.3,121.5 115.9,121.2 109,118.9 C102.1,116.6 91.8,115.7 89.1,117.1 C87.7,117.8 87.3,117.7 87.3,116.6 C87.3,115.7 85.9,114.8 83.8,114.4 C79.9,113.7 79.7,113.2 81.7,110.5 C83.3,108.3 86.6,109.1 85.7,111.5 C85.2,112.8 85.6,113 87.9,112.5 C93.3,111.3 93.8,110.9 95.8,107.7 C96.9,106 99.6,103.5 101.8,102.3 C105.7,100.2 119.9,96.6 121.3,97.5 C122.1,98 136.7,94.4 139.3,93 C141.7,91.7 143.6,88.3 142.8,86.9 C141.9,85.5 138.3,86.8 135.3,89.5 C133.9,90.8 131.8,92.1 130.6,92.4 C129.3,92.7 127.4,93.3 126.3,93.6 C125.2,93.9 124.3,93.7 124.3,93.1 C124.3,92.6 125.6,91.9 127.3,91.5 C131,90.7 140.3,81.7 140.3,79 C140.3,76.8 137.8,76.3 136.6,78.3 C135.4,80.3 129.1,84.7 126.3,85.5 C124.9,85.9 123.5,86.8 123.1,87.4 C122.7,88 122.1,88.1 121.7,87.7 C120.9,86.9 124.1,83 125.6,83 C126.2,83 128.1,81.9 130,80.4 C132.4,78.6 133.3,77.1 133.3,74.9 L133.3,71.9 L128.1,75.8 C124.8,78.2 121.1,79.9 118.4,80.4 C113.9,81.1 108.6,83.5 106.8,85.7 C106.3,86.4 104.2,87.2 102.2,87.4 C100.2,87.7 96,88.9 92.7,90.1 C89.2,91.4 84.2,92.3 80.3,92.4 C71.9,92.6 70,93.3 66.9,97.5 C63.9,101.4 63.7,102.7 65.9,105.8 C67.1,107.6 67.2,108.4 66.3,109.5 C65.6,110.3 64.5,111 63.8,111 C62.4,111 60.3,106.7 60.3,103.8 C60.3,101.6 67.9,89.4 70.8,87 C72.7,85.4 81.9,85.4 83.8,87 C84.7,87.8 86.3,87.3 90.1,84.9 C93.9,82.6 96.5,81.7 100.6,81.6 C104.3,81.4 107,80.6 109.1,79.1 C113.4,76.1 119.2,73.8 121,74.4 C122.6,75.1 125.5,73.6 130.1,69.8 C134,66.5 136.8,66.2 138.3,69 C138.9,70.1 139,71.1 138.6,71.1 C138.2,71.2 139.6,71.6 141.8,71.9 C145.8,72.5 145.8,72.5 145.5,76.8 C145.3,79.7 145.7,81 146.6,81 C149.6,81 150.2,83.2 148.2,86.7 C147.1,88.6 146.6,90 147,89.8 C147.5,89.6 149.5,88.5 151.5,87.5 C154.5,85.9 155.4,85.8 156.7,86.9 C158.8,88.7 158.7,91.8 156.3,95.7 C154.4,98.9 154.4,98.9 156.3,99.5 C159.7,100.6 158.5,103.7 153.1,108.3 C147.6,112.9 145.6,113.8 133.9,116.7 C127.3,118.4 123.8,121 128.1,121 C129.4,121 130.7,122.2 131.7,124.5 C132.7,126.4 134.5,128.7 135.7,129.5 C139.4,132 151.3,135.1 153.2,134.1 C154.1,133.6 159.3,133.2 164.7,133.1 C174.4,132.9 174.6,132.9 178.6,129.5 C180.8,127.6 183.2,126 183.9,126 C184.7,126 185.8,125 186.4,123.8 C188.8,119.1 193.5,114 195.3,114 C196.3,114 197.9,115 198.7,116.2 C200.1,118.1 200.5,118.2 202.9,117.1 C206.6,115.4 209.4,117.9 208.6,122.3 C208.3,124.2 208.8,126.7 209.7,128.5 C210.6,130.2 211.3,132.7 211.3,134.3 C211.3,137.6 211.6,137.6 215.4,134.8 C217.7,133.1 218.8,132.8 220,133.6 C223.1,135.6 223.6,137.4 222.3,143.3 C220.9,150 217.8,154.2 212.5,156.3 C210.4,157.1 207.3,159.2 205.5,160.8 C201.5,164.5 201.2,169.6 204.6,175.5 C206.7,179.1 207.4,179.6 213.2,180.8 C219.3,182.2 219.6,182.1 224.5,179.6 C227.3,178.1 231.1,177 233.4,177 C237.7,177 237.3,177.7 240.9,162.5 C242.6,155 242.3,140.8 240.4,137.1 C237.6,132 234.5,116 236.2,116 C236.8,116 237.3,116.8 237.4,117.8 C237.5,119.8 237.7,121 239.2,126.5 C245.1,149 245.2,151.3 241.8,167.2 C240.7,172 240.1,176.1 240.3,176.3 C240.6,176.6 242.2,177.1 243.9,177.4 C246.8,178 247.2,177.7 250.6,172.8 C254.9,166.6 258.3,157.9 258.3,153.3 C258.3,151.5 258.8,150 259.3,150 C259.9,150 260.3,151.8 260.3,153.9 C260.3,156.1 259.9,158.2 259.3,158.5 C258.8,158.8 258.3,160 258.3,161.1 C258.3,163.5 254.4,171.2 250.9,175.9 C247.8,180.1 248.2,182.2 253,186.8 C256.4,189.9 256.5,190.3 255.8,195.3 C254.7,203.5 251.8,212 246.6,222 C243.6,227.9 241,231.6 239.5,232.3 C237.5,233.3 237.2,234 237.5,237.7 C237.7,240.4 237.4,242 236.7,242 C236.1,242 235,242.7 234.3,243.5 C233.6,244.4 232.4,244.9 231.7,244.6 C231,244.3 230,245.4 229.3,247 C227.8,250.6 225.3,251.8 225.3,248.8 Z M126.8,114.1 C127.3,113.7 129.7,112.8 132.1,112.1 C134.4,111.5 136.1,110.5 135.9,110.1 C135.2,109 138.3,106.3 141.9,104.9 C145.1,103.7 153.7,94.7 153.1,93.1 C153,92.6 147.9,94.1 141.8,96.5 C134.9,99.2 127.8,101.3 122.6,102 C114.5,103.1 103.4,105.6 102.4,106.6 C101.4,107.6 104,110.4 107.8,112.4 C116,116.6 122.6,117.2 126.8,114.1 Z" id="Shape" fill="#57C003"></path>
                <path d="M360.7,242.7 C355.6,240.2 352.5,229 356.3,227 C359,225.6 366.8,225.8 370.6,227.4 C374.3,229 378,232.9 377.8,235 C377.7,235.8 377.5,237.3 377.5,238.3 C377.1,241.9 373.6,244 368.1,243.9 C365.2,243.8 361.8,243.3 360.7,242.7 Z" id="Shape" stroke="#57C003" stroke-width="2"></path>
                <path d="M63.8,237.8 C59.4,236.2 53.3,232.2 53.3,230.9 C53.3,230.1 54.6,229.9 57.1,230.3 L60.8,230.9 L53.6,223.9 C46.7,217.2 45.1,215 47.3,215 C47.8,215 51.2,217.1 54.8,219.6 C59.5,222.9 61.2,224.7 60.9,225.9 C60.5,227 61.5,228.2 63.8,229.8 C68.4,232.7 68.4,234.4 63.8,233.7 C61.9,233.4 60.3,233.3 60.3,233.6 C60.3,234.6 67.3,237 70.3,237 C71.9,237 73.3,237.5 73.3,238 C73.3,239.3 67.7,239.2 63.8,237.8 Z" id="Shape" fill="#57C003"></path>
                <path d="M213.5,231.2 C212.8,230.7 212,228.8 211.7,226.8 C210.8,221.6 213.4,217.5 219.3,214.5 C227.6,210.3 231.3,211.4 231.3,218.2 C231.3,226 225.9,232 218.9,232 C216.7,232 214.2,231.6 213.5,231.2 Z" id="Shape" stroke="#57C003" stroke-width="2"></path>
                <path d="M521.3,206.9 C521.3,204.8 527.2,198 528.9,198 C531.9,198 534.2,189.8 535.2,175.9 C535.7,168.6 536.1,162.4 536,162.1 C535.9,161.8 537.7,159.5 540.1,157 C544.9,151.9 545.4,153 541.7,160.3 C539.8,164.2 539,167.9 538.2,176.4 C537.7,182.5 536.8,189.1 536.1,191.2 C534.7,195.9 529.3,202.6 528.3,200.9 C527.8,200.1 526.5,201.1 524.4,204 C522.7,206.4 521.3,207.7 521.3,206.9 Z" id="Shape" fill="#57C003"></path>
                <path d="M34.7,167.8 C34.3,167.1 33.6,164.5 33.2,162 C32.6,158.4 32.9,157.1 34.3,155.5 C35.4,154.3 36.2,151.3 36.5,147.7 L37,142 L31.4,140.4 C22.5,137.9 13.4,130.6 8.1,121.9 C5.6,117.8 1.6,104.9 0.8,98.6 C0.1,93.5 1.5,83.4 3.4,80.1 C5.1,76.9 9.3,67.3 9.3,66.5 C9.3,64.9 27.9,46 29.5,46 C30,46 32.8,44.5 35.7,42.6 C38.6,40.8 42.7,38.7 44.9,38 C48.7,36.7 53.8,34.8 57.8,33 C66.9,28.9 81,25 85.9,25.1 C87.5,25.2 94.8,24.6 102.1,23.9 C113.9,22.8 116.7,22.8 128.6,24.4 C149,27.2 158.5,28.9 159.9,30.1 C160.6,30.6 164.7,32 169,33 C173.3,34 181.1,36.4 186.3,38.3 C191.5,40.1 200.1,42.5 205.3,43.4 C210.5,44.4 217.1,45.6 219.8,46 C226.7,47.3 238.3,48.5 241.3,48.2 C242.7,48.1 249.1,46.8 255.5,45.3 C265.1,43.2 267.5,42.9 268.8,44 C269.6,44.7 270.3,45.8 270.3,46.4 C270.3,49.7 258.9,54.8 242.3,59 C235.9,60.7 231.1,61.2 223.1,61.1 C213.4,60.9 197.6,58.9 195.4,57.5 C194.9,57.2 191,56.3 186.6,55.5 C178.8,54.1 163.4,49.6 160,47.8 C159,47.3 150.9,46.2 142,45.4 C133.1,44.6 122,43.6 117.3,43.1 C102.5,41.6 78.9,42.5 69.9,45 C59.3,47.8 42,56.9 36,62.8 C28.5,70 22.8,78.1 21.6,83 C19.2,92.6 23.5,106.1 31,112.9 C36.4,117.9 39.6,119.6 45.7,121 C50.2,122 50.5,121.9 52.8,119.1 C55.5,116 61.1,113 64.6,112.7 C65.8,112.6 68.5,111.3 70.7,109.8 C72.8,108.3 75,107.3 75.6,107.7 C76.3,108.1 76,108.8 74.8,109.4 C73.8,110 71.5,111.7 69.8,113.3 C66.5,116 64.7,116.8 65.8,115 C66.6,113.7 66.2,113.7 62.2,115.4 C58.9,116.8 51.3,123.6 51.3,125.1 C51.3,125.5 49.9,128 48.2,130.5 C46,133.8 45.2,135.9 45.5,138.1 C45.8,140.1 45.5,141 44.6,141 C42.2,141 43.1,134.4 45.9,131.1 L48.5,128 L44.5,128 C35.3,128 22.4,119 18.2,109.7 C16.2,105.4 15.8,102.8 15.8,95 C15.8,86.9 16.2,84.8 18.2,81 C19.5,78.5 20.8,76.3 21.2,76 C21.5,75.7 23.1,73.6 24.6,71.4 C28,66.4 38.9,55.4 42.3,53.6 C46.4,51.5 52.3,48.1 54.7,46.5 C56,45.6 61.2,43.6 66.4,41.9 C75.6,38.8 76.3,38.7 98.7,38.3 C114.4,38 121.9,38.2 122.6,38.9 C123.2,39.5 127.5,40 132.3,40 C141.8,40 156.7,41.6 159.8,43 C163.4,44.6 181.7,49.8 187.8,51 C191.1,51.7 194.7,52.6 195.8,53 C196.9,53.5 202.2,54.6 207.5,55.5 C221.3,57.9 237,57.2 248.1,53.6 C257.6,50.5 258.6,49.1 249.6,51.4 C246.3,52.3 241,53.1 237.7,53.2 C228.2,53.6 199.5,49.6 193.8,47 C192.7,46.6 188.2,45.2 183.8,44 C170.4,40.4 163.1,38.3 155.6,35.7 C144.9,32 123.2,29 105.8,28.9 C83.8,28.7 75.4,30.2 56.3,37.4 C35.6,45.4 30.9,48.1 20.7,58.5 C13.3,65.9 11.1,68.9 9.3,73.6 C8.1,76.8 6.7,80.1 6.1,80.8 C4.1,83.1 3.9,96.9 5.7,104 C10.3,121.8 20.3,133.5 33.3,136 C40.3,137.3 42.5,139.3 41.2,142.8 C40.6,144.3 40.3,147.9 40.5,150.9 C40.7,154.6 40.4,156.5 39.6,156.7 C38.9,157 38.3,156.7 38.3,156.1 C38.3,155.5 37.8,155 37.2,155 C36.1,155 36.4,159.8 37.9,166.3 C38.4,168.4 38.2,169 37,169 C36.1,169 35.1,168.5 34.7,167.8 Z" id="Shape" fill="#57C003"></path>
                <path d="M529.4,157.8 C529.3,156.9 530.8,154.3 532.7,152.1 C535.8,148.4 536.1,147.6 535.2,145.1 C534.5,143.1 534.5,140.9 535.2,138.3 C536.5,133.5 541.7,126 543.7,126 C545.2,126 554.8,115.7 558.8,109.8 C561.1,106.4 563.8,97.1 564.9,88.5 C566.2,78.3 559.1,63.3 547.2,51.3 C540.4,44.3 537.8,42.4 529,38.1 C512.6,30.2 501.1,28.9 444.3,28.5 C392.7,28.1 389,27.9 375.4,23.5 C365.2,20.2 349.2,12 344.6,7.7 C340.1,3.6 342.4,8.2 348,14.3 C354.1,21.1 360.1,25.1 367.8,27.6 C370.6,28.5 375.1,30.3 377.8,31.6 C385.3,34.9 394,36.9 404.5,37.6 C409.6,38 414.3,38.6 414.9,39.1 C415.5,39.6 431.4,39.9 450.4,40 C469.3,40 488.4,40.4 492.7,41 C502.6,42.2 514.3,44.6 518,46.1 C524.2,48.6 535.5,54.2 537.1,55.5 C538,56.2 540.3,58.1 542.1,59.5 C543.9,61 546.1,63.6 547,65.4 C550.7,72.5 552.5,84.8 550.4,88.8 C549.9,89.7 548.3,93.1 546.8,96.2 C543.8,102.7 533.8,112.6 526.9,116 C522,118.3 521.2,118.4 521.6,116.8 C521.7,116 520.9,115.6 519.8,115.7 C512.7,116.5 511.2,116.7 510.6,117.3 C509,119 508.2,117.8 509.8,116 C512.3,113.2 510.6,113.5 506.6,116.6 C503.2,119.2 501.9,118.5 505.1,115.8 C506.6,114.4 513.7,111 515,111 C515.3,111 515.2,111.7 514.9,112.6 C514.5,113.8 514.7,114.1 515.8,113.6 C516.6,113.3 519.6,112.8 522.5,112.4 C525.4,112 529.4,110.9 531.3,110 C536.3,107.5 543.8,99.1 545.3,94.4 C546,92.3 547,89.9 547.6,89.2 C549.1,87.3 547.8,76.1 545.4,70.4 C540.6,59.4 522.1,48.9 502.3,46 C498.2,45.4 492.8,44.4 490.3,43.9 C487.8,43.4 469.7,42.9 450,42.9 C429,42.9 414.1,42.5 413.8,41.9 C413.4,41.4 410.8,41 407.9,41 C399.3,41 384.2,38 377.8,35.1 C374.5,33.5 370,31.7 367.8,31 C358.9,28.2 351.8,23.7 345.8,17.2 C338.2,9 335.8,4.7 337.3,2 C338.5,-0.2 338.6,-0.2 344.8,4.1 C355.6,11.4 373.4,18.9 387.3,22.1 C389.8,22.7 412.3,23.3 438.8,23.6 C464.6,23.8 487.8,24.4 490.3,25 C492.8,25.5 497.5,26.2 500.8,26.5 C509.5,27.4 520.1,29.9 525.3,32.2 C541,39.3 547.1,42.8 551.9,47.7 C562.2,58.1 570.1,79.7 567.4,90.5 C563,108.3 563,108.5 557.7,115 C554.9,118.6 550.5,123.4 548.1,125.7 C543.5,130 540.3,137.2 540.3,143.3 C540.3,145.4 539.1,147.6 536.1,151 C533.7,153.5 531.3,156.5 530.6,157.6 C529.6,159.2 529.4,159.2 529.4,157.8 Z" id="Shape" fill="#57C003"></path>
                <path d="M430.1,125.7 C429.9,124.2 428.2,123 423.8,121.3 C420.6,120 416.9,119 415.6,119 C414.4,119 413.2,118.6 412.9,118.1 C412.6,117.6 411.1,116.9 409.6,116.5 C408.1,116.2 403.4,114.5 399.2,112.9 C393.3,110.6 391,109.2 389,106.3 C385.9,102 386.9,99.4 391.1,100.5 C393,101 393.4,100.8 393,99.6 C392.7,98.8 393,97.4 393.7,96.5 C394.7,95 396,94.8 400.4,95.2 C404.1,95.6 406.7,95.3 408.7,94.3 C412.4,92.4 416.4,93.5 425.6,99 C431.5,102.6 433.2,103.1 440.5,103.7 C445.1,104 449.3,104.6 449.8,105 C450.4,105.4 452.3,106 454.2,106.4 C456.1,106.7 458.4,107.6 459.2,108.3 C461,109.8 473.3,109.4 473.3,107.9 C473.3,106.3 465.9,102.1 460.3,100.7 C454.2,99.1 446.9,96.3 443.8,94.4 C442.7,93.8 439,93.2 435.5,93.2 C428.7,93.1 417.3,89.9 415.3,87.4 C414.6,86.6 414.4,86 414.8,86 C415.2,86 413.7,84 411.4,81.5 C406.9,76.6 406.5,74.1 410.1,72.5 C411.4,71.9 412.3,70.6 412.3,69.3 C412.3,67.2 412.8,67 417.4,67 C420.2,67 423.3,67.4 424.3,68 C425.8,68.8 426.5,68.4 428.2,65.5 C429.3,63.6 431,62 432,62 C434.4,62 438.6,64.9 441.3,68.3 C442.5,69.8 445.5,72.4 448,74.1 L452.5,77.2 L463.3,76.5 C473.6,75.9 482.3,77 482.3,78.8 C482.3,80.1 489.5,83.5 491.5,83.2 C494.8,82.6 504.4,85.1 506.4,87.1 C509,89.7 508.8,93.2 505.8,99.2 C503.6,103.5 503.4,104.8 504.3,107.8 C504.8,109.8 504.9,111.7 504.5,112.1 C502.9,113.6 496,115.2 495.4,114.2 C494.5,112.8 471,110.7 464.9,111.5 C453.9,112.9 446.3,116 446.3,119 C446.3,120 445.8,121.2 445.2,121.6 C444.4,122 444.3,121.2 444.7,118.9 C445.3,115.6 445.2,115.6 443.2,119.8 C442.1,122.1 440.8,124 440.2,124 C438,124 444.8,113.8 448,112.2 C453.2,109.7 450.5,108.4 437.7,106.9 C431.2,106.2 425.5,105.1 424.8,104.4 C422.4,102 413.2,97 411.3,97 C408.4,97 408.8,98 414.3,103.4 C422.5,111.4 419.7,111.8 410.3,104 C405.2,99.7 396.3,96.5 396.3,98.9 C396.3,100.9 404,108 406.1,108 C407.3,108 408.3,108.5 408.3,109 C408.3,110.9 403.8,110 398.8,107 C393.4,103.8 392.3,103.5 392.3,105 C392.3,106.5 398,109.7 403.8,111.6 C406.6,112.5 410.2,113.8 411.8,114.5 C413.5,115.2 417.3,116.3 420.3,116.9 C423.3,117.6 427.4,118.9 429.3,119.9 C432.8,121.6 432.8,121.6 437,118.6 C439.4,117 441.4,115.9 441.6,116.1 C441.7,116.3 439.3,119 436.1,122.1 C431.2,127 430.4,127.5 430.1,125.7 Z M495.8,107.6 C498.6,106.6 500.3,105.3 501.5,102.9 C503.7,98.4 503.7,96.4 501.3,92.5 C499.3,89.3 496.9,88.2 487.3,86.4 C485.4,86.1 481.6,84.6 478.8,83.2 C474.6,81 472,80.6 461.8,80.1 C448.2,79.4 442.4,77.3 437.5,71.5 C434.3,67.7 430.7,65.6 429.8,67 C428.6,68.9 430.6,73.1 434.1,76 C436.1,77.6 437.4,79.3 437,79.6 C436.6,80 435.5,79.6 434.5,78.7 C433.5,77.7 432.1,77 431.4,77 C430.6,77 428.5,75.7 426.6,74 C420.3,68.4 412.4,71 418.6,76.7 C419.8,77.9 422.7,79.1 425,79.5 C427.2,79.8 429.9,80.8 431,81.6 C432.7,83.1 432.6,83.1 430.3,82.5 C428.9,82.1 425.6,81.4 422.8,80.9 C420.1,80.5 416.6,79.1 415,77.9 C412.3,76 412.1,75.9 412.5,77.7 C412.9,80 421.3,84.6 426.6,85.4 C431.6,86.2 430.6,87.5 425,87.2 C421,87.1 421.1,87.1 427.3,89 C430.9,90.1 436,90.9 438.8,90.8 C442.6,90.7 445,91.3 448.8,93.3 C451.6,94.8 456.3,96.4 459.3,97 C466.3,98.3 472.7,101.5 475.4,104.8 C478.6,108.9 488.1,110.2 495.8,107.6 Z" id="Shape" fill="#57C003"></path>
            </g>
        </g>
    </g>
</svg>