<?xml version="1.0" encoding="UTF-8"?>
<svg width="638px" height="982px" viewBox="0 0 638 982" version="1.1" xmlns="http://www.w3.org/2000/svg" xmlns:xlink="http://www.w3.org/1999/xlink">
    <!-- Generator: Sketch 51.2 (57519) - http://www.bohemiancoding.com/sketch -->
    <title>pan-galactic</title>
    <desc>Created with Sketch.</desc>
    <defs></defs>
    <g id="Page-1" stroke="none" stroke-width="1" fill="none" fill-rule="evenodd">
        <g id="pan-galactic" transform="translate(1.000000, 1.000000)" fill-rule="nonzero" stroke="#57C003" stroke-width="2">
            <g id="Group" transform="translate(318.000000, 490.000000) scale(-1, 1) rotate(-180.000000) translate(-318.000000, -490.000000) translate(0.000000, -0.000000)">
                <path d="M423.3,979.3 C422,979.1 421,978.4 421,977.9 C421,977.4 420.6,977 420.1,977 C419.5,977 417.9,975.9 416.4,974.5 C414.9,973.1 414,972 414.4,972 C414.7,972 414.1,971.1 413,970 C409.8,966.8 410.3,960.4 414.1,954.6 C418.1,948.6 421.9,946.6 428,947.2 C436.9,948.1 444.7,956.6 443.7,964.3 C443,969.1 440.8,972.4 435.1,976.8 C431,979.9 428.8,980.4 423.3,979.3 Z" id="Shape"></path>
                <path d="M381.5,928.4 C377,926.1 373.9,922.9 371.9,918.5 C369.5,913.4 369.5,911.6 372.1,906.3 C375.8,898.6 385.9,894.8 392.8,898.4 C396.4,900.3 401.6,905.9 402.9,909.1 C405,914.8 400.3,924.8 393.9,928 C389.3,930.4 385.5,930.5 381.5,928.4 Z" id="Shape"></path>
                <path d="M327.7,884.4 C317.6,881.3 310.1,869.6 311.3,858.9 C312.4,849.6 318.8,840.7 326.7,837.3 C331,835.6 340.2,835.6 344.6,837.5 C358.2,843.2 364.8,857.8 359.3,870.1 C353.4,883.4 341.6,888.7 327.7,884.4 Z" id="Shape"></path>
                <path d="M427.8,838.6 C423.8,837.2 415.8,830.6 416.8,829.6 C417.1,829.3 416.8,829 416.1,829 C415.4,829 415.2,828.6 415.5,828 C415.8,827.5 415.6,827 414.9,827 C414.2,827 413.9,826.7 414.3,826.4 C414.6,826 414.3,825.1 413.5,824.3 C412.5,823.3 412,820.7 412,816.2 C412,807.8 415.1,800.8 420.9,795.9 C426,791.5 431.2,789.8 439.2,790.1 C446.8,790.4 453,794.2 457.4,801.3 C469.4,820.7 449.1,846.2 427.8,838.6 Z" id="Shape"></path>
                <path d="M342,793.1 C334.2,790.7 327.2,784.1 325.1,776.9 C323.5,771.8 323.5,763.4 325,759.5 C329.3,748.1 343.2,741.5 355.8,744.9 C365.1,747.5 373,758.5 373,769.1 C373,784.9 356.7,797.5 342,793.1 Z" id="Shape"></path>
                <path d="M157,764 C155.9,761.9 154.1,757.8 153,754.9 C151.8,752 150,747.6 148.8,745.1 C147.7,742.6 142.7,729.5 137.8,716 C132.9,702.5 128.6,690.8 128.3,690 C128,689.2 127.8,688.2 127.8,687.8 C127.9,687.3 127.5,687 126.9,687 C126.3,687 126,686.3 126.4,685.5 C126.7,684.7 126.5,684 125.9,684 C125.3,684 125,683.4 125.3,682.6 C125.6,681.8 125.5,681 125.1,680.8 C123.9,680.4 111.2,641.3 103.5,614.5 C97.3,592.6 90.2,563.9 87.9,550.5 C87.2,546.7 86.4,543.3 86.1,543 C85.8,542.7 85.4,541.6 85.2,540.5 C85.1,539.4 84.5,536 84,533 C82.3,523.2 81,495.8 81.6,483 C82.8,456.6 85.8,445.5 100,414 C108.2,395.7 110.2,390.9 110.1,390.2 C110,390.1 111.7,386.5 113.9,382.2 C120.1,370 126.9,353.4 129.2,345.1 C131,338.7 131.4,334.8 131.4,320.5 C131.4,301.8 130,292.5 123.4,265.2 C121.5,257.1 119.8,249.9 119.8,249.3 C119.7,248.6 119.2,248 118.7,248 C118.2,248 118,247.1 118.3,246 C118.6,245 118.5,244 118.1,243.8 C117.7,243.6 113.2,226.2 108.1,205 C93.5,144.7 91.5,138.7 84.6,132.1 L81.1,128.7 L63.8,129.1 C15.4,130.3 0,129.3 0,125.1 C0,116.9 25.2,106.8 81.5,92.6 C109.9,85.5 146,76.9 148.8,76.8 C149.4,76.7 150,76.2 150,75.7 C150,75.2 151.3,75 153,75.2 C154.6,75.4 156.1,75.3 156.2,74.9 C156.8,73.4 179.4,70.8 188.7,71.2 C196.7,71.5 198.4,71.9 200.2,73.8 L202.4,76 L197.1,81 C192.9,84.9 186.4,88.7 166.3,98.7 C152.3,105.8 139.8,112.4 138.5,113.5 C137.3,114.6 135.4,116 134.4,116.6 C131.7,118.1 129.1,123.8 129,128.3 C129,131.6 134.6,158.5 141.5,187.5 C148.8,218.4 157.3,251.6 158.2,252.7 C158.7,253.4 158.9,254.4 158.6,254.9 C158.2,255.4 158.5,256.2 159.1,256.5 C159.6,256.9 159.9,257.8 159.6,258.5 C159.3,259.3 159.4,260 159.9,260.2 C160.3,260.4 161.9,265.5 163.5,271.5 C167.5,287.1 173.6,304.3 177.8,312.5 C181.9,320.3 194.2,333.7 207.3,344.8 C211.8,348.6 225.4,359.2 237.5,368.2 C267.8,391 279.4,401.8 290.8,418 C293.4,421.6 295.7,424.7 296.1,425 C297.1,425.8 301.2,434.1 302,437.1 C302.6,439 301.8,444.2 299.8,453.2 C292.9,484.2 282.5,541.3 283.4,543.6 C283.6,544.2 283.6,545.1 283.2,545.5 C282.9,545.8 282.7,547.7 282.9,549.6 C283,551.6 282.7,553 282,553 C281.4,553 281.1,553.4 281.5,554 C281.8,554.5 280.1,569.2 277.6,586.7 C273.8,613.4 271.5,632.2 268.5,658.7 C268.1,662.2 268.4,663.1 270,664 C273,665.6 295.1,670.9 296.5,670.4 C297.2,670.1 298.1,670.4 298.5,670.9 C298.8,671.5 299.6,671.8 300.1,671.5 C300.6,671.1 301.6,671.2 302.3,671.7 C302.9,672.1 304.2,672.5 305,672.7 C305.8,672.8 318.3,675.7 332.8,679.1 L359,685.4 L359,688.2 C359,689.7 359.4,691 359.8,691 C360.2,691 360.6,691.8 360.7,692.8 C360.8,693.7 361.3,697.4 361.9,701 C362.5,704.6 363,709.8 363,712.7 L363,717.9 L357.8,719.4 C354.9,720.3 339.5,724.2 323.5,728.1 C307.6,732.1 294.2,735.8 293.9,736.3 C293.5,736.9 292.5,737 291.7,736.7 C290.8,736.4 290,736.5 289.8,736.9 C289.4,738.1 164.9,768 160.5,768 C159.7,768 158.1,766.2 157,764 Z" id="Shape"></path>
                <path d="M464,693.9 C453.3,691.2 443,688.9 441.2,688.8 C439.4,688.7 437.7,688.3 437.4,687.8 C437.1,687.4 436.4,687.2 435.9,687.5 C435.4,687.9 434.4,687.8 433.8,687.4 C433.1,686.9 431.9,686.5 431,686.5 C428.5,686.2 425.3,685.5 359.2,669.4 C324.3,660.9 295.4,654.2 294.9,654.6 C294.4,654.9 294,654.7 294,654.2 C294,653.6 293.1,653.4 292,653.7 C290.8,654 290,653.7 290,653.1 C290,652.4 289.6,652.2 289,652.5 C288.5,652.8 286.2,652.6 284,652 C280.6,651.1 280.1,650.6 280.5,648.7 C280.8,647.5 283,631 285.5,612 C288,593 291.2,570 292.5,560.8 C293.9,551.5 294.7,543.3 294.4,542.5 C294,541.7 294.3,540.4 294.9,539.6 C295.5,538.9 295.7,538.1 295.4,537.8 C294.6,536.9 299.6,506.2 305.1,478.6 C310.6,450.7 316.9,425.2 322.6,408 C324.7,401.7 326.4,395.9 326.3,395.3 C326.3,394.6 326.6,394 327.1,394 C327.6,394 327.7,393.3 327.4,392.5 C327,391.7 327.3,391 328,391 C328.6,391 328.8,390.6 328.5,390 C328.2,389.5 328.4,389 329,389 C329.6,389 329.8,388.6 329.5,388 C328.8,386.8 337.3,368.7 343,359.5 C357,336.8 376,318 411,292.5 C427,280.9 436.3,272.9 446.1,262.5 C456.4,251.6 460.3,246.6 459.3,245.6 C459,245.3 459.2,245 459.9,245 C460.6,245 460.8,244.6 460.5,244 C460.2,243.5 460.4,243 461,243 C461.6,243 461.8,242.6 461.5,242 C461.2,241.5 461.4,241 461.9,241 C462.5,241 462.9,240.7 462.8,240.3 C462.7,239.8 464,235.9 465.7,231.5 C470.1,220.3 474.8,203.8 482.4,173.5 C493.3,129.8 499.1,104.7 498.6,103.3 C498.3,102.6 498.5,102 499.1,102 C499.7,102 499.9,101.1 499.5,100 C499.1,98.8 499.3,98 500,98 C500.6,98 500.9,97.6 500.5,97.1 C500.2,96.5 501.5,89.2 503.4,80.8 C508,60.2 508.4,56.8 507,52.6 C505.1,46.8 499.8,43.3 475,31.3 C441.6,15.1 434,10.4 434,6.1 C434,5.5 435.9,3.8 438.2,2.4 C442.2,-0.1 442.9,-0.2 451.4,0.3 C470.1,1.6 528.1,14 573.9,26.6 C580.7,28.4 586.7,29.7 587.1,29.4 C587.6,29.1 588,29.4 588,30 C588,30.7 588.7,31 589.5,30.6 C590.3,30.3 596.9,32 604.2,34.4 C631.9,43.5 640,49 634.1,54.9 C631.5,57.5 626.2,57.9 587.7,58.4 C550.8,59 551.3,58.8 546.8,68 C543.7,74.1 535.5,104.5 536.5,106 C536.8,106.6 536.7,107 536.2,107 C535.6,107 535.4,107.9 535.7,109 C536,110.2 535.7,111 535.1,111 C534.4,111 534.1,111.4 534.4,111.9 C534.8,112.4 532.7,122.2 530,133.7 C522,166.4 512.4,209.2 509.6,224 C506.9,238.9 505.5,254 506.8,254 C507.3,254 508,257.1 508.3,260.9 C509.1,270.6 514.5,286 525.1,308.9 C546.6,355.2 551.4,367 555.6,384 C557,389.8 558.6,395.4 559.2,396.6 C559.7,397.8 560.1,400 559.9,401.6 C559.8,403.2 560.1,405.3 560.5,406.3 C561.9,409.6 560.2,445.7 558,460 C555.2,478.6 550.7,500.3 545.4,521 C542.9,530.6 540.8,539.5 540.7,540.7 C540.6,542 540.1,543 539.7,543 C539.2,543 539.2,543.9 539.5,545 C539.9,546.1 539.7,547 539.1,547 C538.5,547 538.3,547.7 538.6,548.5 C539,549.3 538.7,550 538,550 C537.4,550 537.2,550.4 537.5,551 C539.2,553.7 514.2,627.3 496.1,673 C492.7,681.4 489.8,689.4 489.6,690.6 C488.9,694.1 486.1,699 484.7,698.9 C484.1,698.8 474.7,696.6 464,693.9 Z" id="Shape"></path>
            </g>
        </g>
    </g>
</svg>