<svg width="638" height="982" viewBox="0 0 638 982" xmlns="http://www.w3.org/2000/svg">
  <title>
    pan-galactic
  </title>
  <g fill-rule="nonzero" stroke="#57C003" stroke-width="2" fill="none">
    <path d="M424.3 1.7c-1.3.2-2.3.9-2.3 1.4 0 .5-.4.9-.9.9-.6 0-2.2 1.1-3.7 2.5S415 9 415.4 9c.3 0-.3.9-1.4 2-3.2 3.2-2.7 9.6 1.1 15.4 4 6 7.8 8 13.9 7.4 8.9-.9 16.7-9.4 15.7-17.1-.7-4.8-2.9-8.1-8.6-12.5-4.1-3.1-6.3-3.6-11.8-2.5zM382.5 52.6c-4.5 2.3-7.6 5.5-9.6 9.9-2.4 5.1-2.4 6.9.2 12.2 3.7 7.7 13.8 11.5 20.7 7.9 3.6-1.9 8.8-7.5 10.1-10.7 2.1-5.7-2.6-15.7-9-18.9-4.6-2.4-8.4-2.5-12.4-.4zM328.7 96.6c-10.1 3.1-17.6 14.8-16.4 25.5 1.1 9.3 7.5 18.2 15.4 21.6 4.3 1.7 13.5 1.7 17.9-.2 13.6-5.7 20.2-20.3 14.7-32.6-5.9-13.3-17.7-18.6-31.6-14.3zM428.8 142.4c-4 1.4-12 8-11 9 .3.3 0 .6-.7.6s-.9.4-.6 1c.3.5.1 1-.6 1s-1 .3-.6.6c.3.4 0 1.3-.8 2.1-1 1-1.5 3.6-1.5 8.1 0 8.4 3.1 15.4 8.9 20.3 5.1 4.4 10.3 6.1 18.3 5.8 7.6-.3 13.8-4.1 18.2-11.2 12-19.4-8.3-44.9-29.6-37.3zM343 187.9c-7.8 2.4-14.8 9-16.9 16.2-1.6 5.1-1.6 13.5-.1 17.4 4.3 11.4 18.2 18 30.8 14.6 9.3-2.6 17.2-13.6 17.2-24.2 0-15.8-16.3-28.4-31-24zM158 217c-1.1 2.1-2.9 6.2-4 9.1-1.2 2.9-3 7.3-4.2 9.8-1.1 2.5-6.1 15.6-11 29.1-4.9 13.5-9.2 25.2-9.5 26-.3.8-.5 1.8-.5 2.2.1.5-.3.8-.9.8-.6 0-.9.7-.5 1.5.3.8.1 1.5-.5 1.5s-.9.6-.6 1.4c.3.8.2 1.6-.2 1.8-1.2.4-13.9 39.5-21.6 66.3-6.2 21.9-13.3 50.6-15.6 64-.7 3.8-1.5 7.2-1.8 7.5-.3.3-.7 1.4-.9 2.5-.1 1.1-.7 4.5-1.2 7.5-1.7 9.8-3 37.2-2.4 50 1.2 26.4 4.2 37.5 18.4 69 8.2 18.3 10.2 23.1 10.1 23.8-.1.1 1.6 3.7 3.8 8 6.2 12.2 13 28.8 15.3 37.1 1.8 6.4 2.2 10.3 2.2 24.6 0 18.7-1.4 28-8 55.3-1.9 8.1-3.6 15.3-3.6 15.9-.1.7-.6 1.3-1.1 1.3-.5 0-.7.9-.4 2 .3 1 .2 2-.2 2.2-.4.2-4.9 17.6-10 38.8-14.6 60.3-16.6 66.3-23.5 72.9l-3.5 3.4-17.3-.4c-48.4-1.2-63.8-.2-63.8 4 0 8.2 25.2 18.3 81.5 32.5 28.4 7.1 64.5 15.7 67.3 15.8.6.1 1.2.6 1.2 1.1 0 .5 1.3.7 3 .5 1.6-.2 3.1-.1 3.2.3.6 1.5 23.2 4.1 32.5 3.7 8-.3 9.7-.7 11.5-2.6l2.2-2.2-5.3-5c-4.2-3.9-10.7-7.7-30.8-17.7-14-7.1-26.5-13.7-27.8-14.8-1.2-1.1-3.1-2.5-4.1-3.1-2.7-1.5-5.3-7.2-5.4-11.7 0-3.3 5.6-30.2 12.5-59.2 7.3-30.9 15.8-64.1 16.7-65.2.5-.7.7-1.7.4-2.2-.4-.5-.1-1.3.5-1.6.5-.4.8-1.3.5-2-.3-.8-.2-1.5.3-1.7.4-.2 2-5.3 3.6-11.3 4-15.6 10.1-32.8 14.3-41 4.1-7.8 16.4-21.2 29.5-32.3 4.5-3.8 18.1-14.4 30.2-23.4 30.3-22.8 41.9-33.6 53.3-49.8 2.6-3.6 4.9-6.7 5.3-7 1-.8 5.1-9.1 5.9-12.1.6-1.9-.2-7.1-2.2-16.1-6.9-31-17.3-88.1-16.4-90.4.2-.6.2-1.5-.2-1.9-.3-.3-.5-2.2-.3-4.1.1-2-.2-3.4-.9-3.4-.6 0-.9-.4-.5-1 .3-.5-1.4-15.2-3.9-32.7-3.8-26.7-6.1-45.5-9.1-72-.4-3.5-.1-4.4 1.5-5.3 3-1.6 25.1-6.9 26.5-6.4.7.3 1.6 0 2-.5.3-.6 1.1-.9 1.6-.6.5.4 1.5.3 2.2-.2.6-.4 1.9-.8 2.7-1 .8-.1 13.3-3 27.8-6.4l26.2-6.3v-2.8c0-1.5.4-2.8.8-2.8s.8-.8.9-1.8c.1-.9.6-4.6 1.2-8.2.6-3.6 1.1-8.8 1.1-11.7v-5.2l-5.2-1.5c-2.9-.9-18.3-4.8-34.3-8.7-15.9-4-29.3-7.7-29.6-8.2-.4-.6-1.4-.7-2.2-.4-.9.3-1.7.2-1.9-.2-.4-1.2-124.9-31.1-129.3-31.1-.8 0-2.4 1.8-3.5 4z"/>
    <path d="M465 287.1c-10.7 2.7-21 5-22.8 5.1-1.8.1-3.5.5-3.8 1-.3.4-1 .6-1.5.3-.5-.4-1.5-.3-2.1.1-.7.5-1.9.9-2.8.9-2.5.3-5.7 1-71.8 17.1-34.9 8.5-63.8 15.2-64.3 14.8-.5-.3-.9-.1-.9.4 0 .6-.9.8-2 .5-1.2-.3-2 0-2 .6 0 .7-.4.9-1 .6-.5-.3-2.8-.1-5 .5-3.4.9-3.9 1.4-3.5 3.3.3 1.2 2.5 17.7 5 36.7 2.5 19 5.7 42 7 51.2 1.4 9.3 2.2 17.5 1.9 18.3-.4.8-.1 2.1.5 2.9.6.7.8 1.5.5 1.8-.8.9 4.2 31.6 9.7 59.2 5.5 27.9 11.8 53.4 17.5 70.6 2.1 6.3 3.8 12.1 3.7 12.7 0 .7.3 1.3.8 1.3s.6.7.3 1.5c-.4.8-.1 1.5.6 1.5.6 0 .8.4.5 1-.3.5-.1 1 .5 1s.8.4.5 1c-.7 1.2 7.8 19.3 13.5 28.5 14 22.7 33 41.5 68 67 16 11.6 25.3 19.6 35.1 30 10.3 10.9 14.2 15.9 13.2 16.9-.3.3-.1.6.6.6s.9.4.6 1c-.3.5-.1 1 .5 1s.8.4.5 1c-.3.5-.1 1 .4 1 .6 0 1 .3.9.7-.1.5 1.2 4.4 2.9 8.8 4.4 11.2 9.1 27.7 16.7 58 10.9 43.7 16.7 68.8 16.2 70.2-.3.7-.1 1.3.5 1.3s.8.9.4 2c-.4 1.2-.2 2 .5 2 .6 0 .9.4.5.9-.3.6 1 7.9 2.9 16.3 4.6 20.6 5 24 3.6 28.2-1.9 5.8-7.2 9.3-32 21.3-33.4 16.2-41 20.9-41 25.2 0 .6 1.9 2.3 4.2 3.7 4 2.5 4.7 2.6 13.2 2.1 18.7-1.3 76.7-13.7 122.5-26.3 6.8-1.8 12.8-3.1 13.2-2.8.5.3.9 0 .9-.6 0-.7.7-1 1.5-.6.8.3 7.4-1.4 14.7-3.8 27.7-9.1 35.8-14.6 29.9-20.5-2.6-2.6-7.9-3-46.4-3.5-36.9-.6-36.4-.4-40.9-9.6-3.1-6.1-11.3-36.5-10.3-38 .3-.6.2-1-.3-1-.6 0-.8-.9-.5-2 .3-1.2 0-2-.6-2-.7 0-1-.4-.7-.9.4-.5-1.7-10.3-4.4-21.8-8-32.7-17.6-75.5-20.4-90.3-2.7-14.9-4.1-30-2.8-30 .5 0 1.2-3.1 1.5-6.9.8-9.7 6.2-25.1 16.8-48 21.5-46.3 26.3-58.1 30.5-75.1 1.4-5.8 3-11.4 3.6-12.6.5-1.2.9-3.4.7-5-.1-1.6.2-3.7.6-4.7 1.4-3.3-.3-39.4-2.5-53.7-2.8-18.6-7.3-40.3-12.6-61-2.5-9.6-4.6-18.5-4.7-19.7-.1-1.3-.6-2.3-1-2.3-.5 0-.5-.9-.2-2 .4-1.1.2-2-.4-2-.6 0-.8-.7-.5-1.5.4-.8.1-1.5-.6-1.5-.6 0-.8-.4-.5-1 1.7-2.7-23.3-76.3-41.4-122-3.4-8.4-6.3-16.4-6.5-17.6-.7-3.5-3.5-8.4-4.9-8.3-.6.1-10 2.3-20.7 5z"/>
  </g>
</svg>
