<?xml version="1.0" encoding="UTF-8"?>
<svg width="353px" height="353px" viewBox="0 0 353 353" version="1.1" xmlns="http://www.w3.org/2000/svg" xmlns:xlink="http://www.w3.org/1999/xlink">
    <!-- Generator: Sketch 51.2 (57519) - http://www.bohemiancoding.com/sketch -->
    <title>pinterest</title>
    <desc>Created with Sketch.</desc>
    <defs></defs>
    <g id="Page-1" stroke="none" stroke-width="1" fill="none" fill-rule="evenodd">
        <g id="pinterest" transform="translate(1.000000, 1.000000)" fill-rule="nonzero" stroke="#57C003" stroke-width="2">
            <path d="M350.7,175.5 C350.7,272.3 272.2,350.8 175.4,350.8 C78.6,350.8 0.1,272.3 0.1,175.5 C0.1,78.7 78.6,0.2 175.4,0.2 C272.2,0.2 350.7,78.7 350.7,175.5 Z" id="Shape"></path>
            <path d="M160.7,58.9 C111.3,64.2 62.1,102.2 60.1,156.6 C58.8,189.8 72.7,214.7 105.9,221.7 C109.7,206 110.4,197.5 110.4,197.5 C110.4,197.5 95.8,183.5 94.3,174.6 C82.1,103 181,54.1 232.9,104.1 C268.7,138.8 245.1,245.5 187.3,234.4 C131.9,223.8 214.4,138.9 170.2,122.2 C134.3,108.6 115.2,163.7 132.2,191 C122.2,238 100.7,282.3 109.4,341.2 C137.7,321.7 147.2,284.3 155,245.3 C169.2,253.5 176.8,262.1 194.9,263.4 C261.7,268.3 299,199.9 289.9,136.7 C281.7,80.7 223.1,52.2 160.7,58.9 Z" id="Shape"></path>
        </g>
    </g>
</svg>