<svg width="353" height="353" viewBox="0 0 353 353" xmlns="http://www.w3.org/2000/svg">
  <title>
    pinterest
  </title>
  <g fill-rule="nonzero" stroke="#57C003" stroke-width="2" fill="none">
    <path d="M351.7 176.5c0 96.8-78.5 175.3-175.3 175.3-96.8 0-175.3-78.5-175.3-175.3C1.1 79.7 79.6 1.2 176.4 1.2c96.8 0 175.3 78.5 175.3 175.3z"/>
    <path d="M161.7 59.9c-49.4 5.3-98.6 43.3-100.6 97.7-1.3 33.2 12.6 58.1 45.8 65.1 3.8-15.7 4.5-24.2 4.5-24.2s-14.6-14-16.1-22.9C83.1 104 182 55.1 233.9 105.1c35.8 34.7 12.2 141.4-45.6 130.3-55.4-10.6 27.1-95.5-17.1-112.2-35.9-13.6-55 41.5-38 68.8-10 47-31.5 91.3-22.8 150.2 28.3-19.5 37.8-56.9 45.6-95.9 14.2 8.2 21.8 16.8 39.9 18.1 66.8 4.9 104.1-63.5 95-126.7-8.2-56-66.8-84.5-129.2-77.8z"/>
  </g>
</svg>
