<?xml version="1.0" encoding="UTF-8"?>
<svg width="788px" height="314px" viewBox="0 0 788 314" version="1.1" xmlns="http://www.w3.org/2000/svg" xmlns:xlink="http://www.w3.org/1999/xlink">
    <!-- Generator: Sketch 51.2 (57519) - http://www.bohemiancoding.com/sketch -->
    <title>pwa-logo</title>
    <desc>Created with Sketch.</desc>
    <defs></defs>
    <g id="Page-1" stroke="none" stroke-width="1" fill="none" fill-rule="evenodd">
        <g id="pwa-logo" transform="translate(1.000000, 1.000000)" fill-rule="nonzero" stroke="#57C003" stroke-width="2">
            <g id="Group">
                <g id="Shape">
                    <polygon points="578.24 258.918 600.918 201.572 666.396 201.572 635.319 114.58 674.185 16.299 785.5 311.853 703.409 311.853 684.385 258.918"></polygon>
                    <polygon points="508.205 295.702 627.37 0.147 548.367 0.147 466.85 191.141 408.883 0.148 348.159 0.148 285.919 191.141 242.026 104.109 202.304 226.485 242.633 295.702 320.382 295.702 376.625 124.421 430.25 295.702"></polygon>
                    <path d="M75.491,194.243 L124.153,194.243 C138.893,194.243 152.019,192.598 163.531,189.308 L176.115,150.537 L211.287,42.179 C208.607,37.931 205.547,33.915 202.108,30.131 C184.05,10.142 157.628,0.148 122.843,0.148 L0.5,0.148 L0.5,295.702 L75.491,295.702 L75.491,194.243 Z M139.902,68.143 C146.956,75.242 150.483,84.742 150.483,96.644 C150.483,108.637 147.381,118.148 141.178,125.179 C134.377,132.991 121.855,136.896 103.613,136.896 L75.491,136.896 L75.491,57.494 L103.82,57.494 C120.821,57.494 132.849,61.043 139.902,68.143 Z"></path>
                </g>
            </g>
        </g>
    </g>
</svg>