<svg width="788" height="314" viewBox="0 0 788 314" xmlns="http://www.w3.org/2000/svg">
  <title>
    pwa-logo
  </title>
  <g fill-rule="nonzero" stroke="#57C003" stroke-width="2" fill="none">
    <path d="M579.24 259.918l22.678-57.346h65.478l-31.077-86.992 38.866-98.281L786.5 312.853h-82.091l-19.024-52.935zM509.205 296.702L628.37 1.147h-79.003L467.85 192.141 409.883 1.148h-60.724l-62.24 190.993-43.893-87.032-39.722 122.376 40.329 69.217h77.749l56.243-171.281 53.625 171.281zM76.491 195.243h48.662c14.74 0 27.866-1.645 39.378-4.935l12.584-38.771 35.172-108.358a86.576 86.576 0 0 0-9.179-12.048c-18.058-19.989-44.48-29.983-79.265-29.983H1.5v295.554h74.991V195.243zm64.411-126.1c7.054 7.099 10.581 16.599 10.581 28.501 0 11.993-3.102 21.504-9.305 28.535-6.801 7.812-19.323 11.717-37.565 11.717H76.491V58.494h28.329c17.001 0 29.029 3.549 36.082 10.649z"/>
  </g>
</svg>
