<svg width="214" height="430" viewBox="0 0 214 430" xmlns="http://www.w3.org/2000/svg">
  <title>
    robot
  </title>
  <path d="M89.5 3.2c-13.3 3.7-22.2 8.2-36.1 18.4-18.9 13.9-33.5 39.1-38.3 65.9-.5 3.3-1.2 12.1-1.5 19.5-.4 11.6-.2 15.1 1.9 24.7 2.5 11.8 7.2 24 13.2 33.8 4.3 7 15 20.3 18.7 23 3 2.2 3.3 3.7 1.1 5.5-2.5 2.1-9 12.2-10.9 17-2.7 6.7-8.1 15.6-15.1 24.5-3.4 4.4-6.9 9.4-7.8 11.1-2.3 4.4-2.7 10.3-1 14.4.9 2.2 1.2 4.8.8 7-.9 4.5-8.4 27.2-9.6 28.6-.5.6-.6 1.4-.2 1.7.3.4.1 1.2-.5 1.9-4.2 5.2-4.2 36.8.1 52.3 1.5 5.3 3.3 9.6 4.4 10.5 1.5 1.2 2.1 3.3 2.6 9 .5 6.3 1.3 8.9 5.2 16.5 5.6 10.8 9.7 15.5 12.2 13.9 3.7-2.3 5.3-5.9 5.8-13.2.2-3.9.1-7.2-.3-7.2-.4-.1-2-1.1-3.5-2.4l-2.9-2.3 1.7-3.9c1.5-3.5 1.8-3.7 2.8-2 4.1 6.6 5.5 8.1 7.5 8.4 7.4 1.1 6.8-8.8-1.1-18.7-2.6-3.3-3.3-4.9-2.7-6.1.8-1.5 4.9-15.9 6.4-22.3 1-4.3 2.2-3.2 3.4 3 1.9 10.3 2.3 18.6 1.4 29.1-.6 6.6-.6 11.8.1 14.6.8 3.4.6 5.5-.8 10-3.1 9.7-.3 26.7 5.3 32.8 3.8 4.1 14.7 6.3 27.6 5.5 16.9-1 18.6-1.8 22.7-9.8 1.6-3.2 3.4-6.1 4-6.4 1.3-.9 1-17.4-.4-19.3-.5-.6-.7-1.2-.3-1.2.4 0-.1-1.5-1.1-3.3-1.3-2.4-1.7-5.9-1.8-14.7-.1-6.3-.5-12.6-1-13.9-.8-2.4-.7-2.4 4.5-1.9 2.9.3 5.6 1.1 6.1 1.9.5.8.9 4.3.9 7.9.1 3.6.8 8.3 1.7 10.5 1.8 4.5 2 12.9.3 15-.6.7-1.4 4.5-1.7 8.3-.5 6.2-.3 7.8 2.2 13.6 2.5 5.9 3.2 6.6 7.6 8.5 11.9 5.1 35.2 6.8 49 3.4 6-1.4 7.1-2.1 9.4-5.4 1.4-2.1 2.5-4.8 2.5-5.9 0-2.5-4.3-11.3-7.9-15.9-2-2.6-2.6-4.6-2.6-8.2 0-3.7-.7-5.7-3.3-9.3l-3.2-4.7-.3-16.2c-.2-16-.2-16.3 3.1-25.9 1.9-5.4 3.7-9.8 4.2-9.8.4 0 2 3.9 3.5 8.8 1.5 4.8 3.3 9.4 4.1 10.3.8.8 1.4 1.8 1.4 2.2 0 .3-2.3 4.3-5 8.9-4.2 6.8-5 8.8-4.4 11.3.9 4.1 1.2 4.5 3.9 4.5 2.2 0 5.2-2.6 9-7.5 1.5-2 1.5-2 3-.1 1.9 2.4 1.1 5.2-2.3 8.9-2.3 2.4-2.5 3-1.3 4.9 1.1 1.8.9 2.4-1.8 5.2-3.7 3.8-4 7.2-.8 8.2 1.2.3 3.4 1.5 4.9 2.6 5.4 3.8 8.2 1.1 14.3-13.7 3.8-9.2 4.5-11.9 4.5-17.7 0-5.3.4-7.2 1.9-8.7 3.1-3.1 4.4-14.1 3.8-33.4-.5-19.2-.7-20.7-3.7-29.2-5.9-17-8-26.2-8-35.6 0-10.7-2.3-17-8.5-22.9-6.8-6.5-14.9-19.2-16-25.3-.3-1.2-1.6-4.4-3-7-1.4-2.7-2.5-5.4-2.5-5.9 0-.6 3.5-4.7 7.8-9.2 4.2-4.5 9-10.1 10.7-12.6 1.6-2.5 3.3-4.7 3.7-5 1.6-1.3 8.9-18.3 11.2-26 2.8-10.1 5.6-27.7 5.6-35.9 0-7.3-2.4-21.6-5.1-30.1-2.6-8.4-9.3-23-13.7-30-4.4-7-22.4-24.9-28.8-28.6-2.7-1.5-5.1-3.1-5.4-3.6-.9-1.3-13.2-6.5-19.5-8.3-4.1-1.2-11.6-2-23.9-2.4-15.1-.5-18.9-.3-24.1 1.1zm37.7 6.2c12.1 2.3 18.7 4.8 28.6 10.8 11.1 6.9 23.5 18.6 30.6 29.1 3.1 4.7 5.6 8.9 5.6 9.4 0 .6 1.3 3.9 2.9 7.4 5.3 11.8 9.1 28.2 9.1 39.7 0 6.9-3.3 27.7-5.5 35.3-.5 1.4-6.7 3.6-13.1 4.4-1.6.2-6.3 1-10.4 1.8-31.6 6.3-49.9 7.4-92 5.8-25.5-1-50-3-55-4.6-2.2-.7-5.3-9.4-7.5-21C18.6 117 19.9 92.4 23 80c2.5-10.1 10.4-26.5 16.8-35.3C44.4 38.4 57.7 25 59.3 25c.5 0 2.2-.9 3.7-2 9.1-6.5 28.4-14.8 31.6-13.6.7.3 1.5.2 1.8-.2.9-1.5 22.4-1.4 30.8.2zM193 154.9c-5.5 10.9-17.6 25.9-26.9 33.5-16 13.1-34.4 19.6-55.2 19.6-11.4 0-21.5-2.1-34-7.1-7.5-2.9-21.4-12.8-29.1-20.6-6.8-7-16.8-20.6-16.8-23 0-1.6 0-1.6 9.5-.2 7.4 1.1 7.7 1.3 12.8 6.7 2.9 3 5.8 6.1 6.5 6.8 2.2 2.3 3.5 1.7 10.2-4.4l6.4-5.7 29-.1c16.2 0 32.9-.6 37.6-1.3 4.7-.6 11.1-1.4 14.2-1.7l5.6-.7 5.5 5.2c3 2.8 6 5.1 6.8 5.1.8 0 2.8-2.1 4.4-4.6 5.4-8.6 8.5-11.2 13.3-11.3l2.2-.1-2 3.9zM59 197.7c1.6.9 3.1 2.5 3.3 3.5 1.2 4.4-1.2 22.1-5.9 43.5-.6 2.9-1.6 2.9-2.9.1-3.1-6.8-15-8.6-23.7-3.5-2.6 1.5-5.6 3.9-6.7 5.4-1.2 1.4-2.4 2.3-2.7 2-.3-.3 1.9-3.6 4.8-7.4 8-10 11.4-15.3 16-25s7.8-14.7 11.7-18c3.1-2.7 2.6-2.7 6.1-.6zm112 10.6c3.1 9.3 8.7 18.4 16.1 26.2 3.8 4 6.9 7.9 6.9 8.8 0 1.1-.9.7-3.1-1.4-7.5-7-22-5.5-29.2 3.1-2.9 3.4-3.7 3.7-3.7 1.4 0-.9-.9-4.6-2-8.2-1.1-3.7-3.1-12.1-4.5-18.7-2.8-13.7-3.6-11.6 7-18.4l6-3.9 2.2 2.7c1.3 1.4 3.2 5.2 4.3 8.4zm-90 .7c4.7 1.6 9.5 3 10.7 3 1.2 0 2.4.4 2.7.8.9 1.4 17.4 2.1 26 1.1 4.4-.4 11.3-1.8 15.3-3s7.5-2 7.8-1.8c.2.3 1.3 5.2 2.5 10.9 1.2 5.8 3.7 15.7 5.5 22 3.3 11.4 5.2 21 4.2 21-.3 0-4.2-4.4-8.7-9.8-13.3-15.8-9.7-14.3-34.3-14.2-11.7.1-22.2.4-23.4.7-1.2.3-7.4 6.9-14.4 15.4-11.8 14.5-14.8 17.3-13 12.6 1.2-3 3.6-21 5.6-41.2C69 212 70.3 206 71.9 206c.3 0 4.4 1.4 9.1 3zm112.4 47.2c.8 2.9 2.6 9.6 4 14.8 1.4 5.2 3.9 13.5 5.6 18.4 1.6 4.9 2.7 9.2 2.5 9.7-.3.4-.2 1 .3 1.3 1.3.8 1.7 7 1.7 25.6 0 12.3-.4 18.2-1.3 19.7-1.2 2.2-1.4 2.2-5 .8-2-.9-5.5-2.9-7.8-4.5-2.2-1.6-5.2-3.2-6.5-3.5-2.2-.5-3-2.2-6.7-13.3-3.5-10.9-4.7-16-5.7-25-.1-1-.7-3-1.4-4.6-1.5-3.6-6.3-32.4-5.6-33.5.2-.5 2.3-1.1 4.5-1.4 5-.6 15-5.4 16.8-7.9 2.1-2.9 3-2.2 4.6 3.4zm-161.5 2.5c3.5 1.7 8.1 3.5 10.3 3.8l4.1.7-.6 6.7c-.4 3.6-.9 10.6-1.2 15.6-.3 4.9-1.3 13.7-2.1 19.5-2 13.9-8.3 40.1-9.8 40.5-.6.2-2.7.6-4.7.9-2 .4-6.4 2.4-9.8 4.6-3.4 2.2-6.5 4-7 4-.4 0-1.6-3.9-2.7-8.8-3.2-15.1-2.2-41.8 1.9-47 .5-.6.6-1.2.2-1.2-.4 0-.3-.6.2-1.3 1.6-1.9 7-18.3 9.8-29.7 2.8-11 3.3-12.3 4.3-11.8.4.2 3.6 1.8 7.1 3.5zm110.2 1.9c3.9.5 4.9 1.2 8.3 5.8 5.3 7 11.8 20.8 12.4 26.2.4 3.6 0 5.1-2.2 8.4-1.4 2.2-2.6 4.3-2.6 4.8 0 .4-.8 1.7-1.7 2.8-1 1.1-3.6 4.6-5.8 7.9-5.4 7.9-22.5 25.2-30.3 30.4-5.2 3.5-7.1 4.2-11.1 4.3-2.7 0-5.8-.3-6.9-.6-3.1-1-29.1-30.8-40.5-46.5-3.4-4.6-4.7-7.3-4.7-9.7 0-6.3 4.5-15.1 12.2-23.7 4-4.5 7.3-8.4 7.4-8.5.2-.2 11.4-.6 25.1-.9 13.6-.3 25-.7 25.2-.9.7-.6 10.3-.5 15.2.2zm27.9 49.3c0 6.6-.7 10-4.1 20.3-2.8 8.6-4.2 14.9-4.7 21.1l-.7 8.7-13.8.4c-17.6.5-18.1.7-23.3 13.3-.9 2.4-2.1 4.3-2.6 4.3-1.5 0-2.8-5-2.8-11.3v-6.2l6.4-2.3c8.1-2.9 17.6-10.7 26.5-21.8 6.8-8.4 14.7-22.8 15.7-28.6.8-4.9 1.2-5.8 2.4-5.8.6 0 1 3.1 1 7.9zm-119.5-.8c1.4 4.2 12.8 20 19.3 26.7 3.7 3.8 9.4 8.9 12.7 11.3 8.9 6.5 13.6 12.1 15.1 18.1.8 2.8 1.2 5.4.9 5.7-.3.2-2.1-1.1-4.1-3l-3.5-3.4-12.1-.3c-14.3-.4-17.4 0-22.2 3.3-2 1.4-3.8 2.5-3.9 2.5-.2 0-.3-6.9-.3-15.3 0-13.5-.3-16.3-2.7-25.2-2.8-10.1-3.2-13.9-2.1-19.4.7-3.6 2-4 2.9-1zM89.3 373c1.4 1.1 2.9 3.1 3.3 4.3.4 1.2 1.7 3.8 3 5.8 2.7 4.3 2.1 5.6-1.5 3.2-2.2-1.5-5-1.8-18.1-1.8-14.3 0-15.8.2-19.8 2.3-5 2.7-4.9 3.1-.9-7.3 1.5-3.9 3.2-6.4 4.8-7.2 1.5-.8 6.9-1.3 14.5-1.3 10.7 0 12.4.2 14.7 2zm70.5 2.4c1.7 2.5 2.8 4.7 2.4 5-.3.3-3 .6-6.1.6-9.8.1-21.1 2.6-25.5 5.7-6.2 4.4-7.7 7.1-8.4 15.4-.5 5.6-1.1 7.4-2.2 7.4-1.2 0-1.5-1.4-1.2-7.4.1-4.1.6-7.9 1.1-8.5.4-.6 1.1-2.6 1.4-4.3.4-1.8 2.2-5.6 4.2-8.4 1.9-2.8 3.5-5.8 3.5-6.5 0-2.5 4-3.3 16.2-3.3l11.7-.1 2.9 4.4zm-73.7 16.7c7.6 1.6 11.8 5.9 12.6 12.6.7 6.2-.9 10.9-4.1 12-4 1.3-5.1 1.5-16.6 2-13.4.6-19-.5-23.2-4.7-2.4-2.4-2.8-3.6-2.8-8.2 0-5.8.8-7.3 5.6-10.6 5.8-4 18.1-5.3 28.5-3.1zm76.5 1.7c8.2 6 17.2 18.8 14.8 21.2-1.5 1.5-24.1 3.3-32.8 2.5-4.4-.4-10.4-1.6-13.3-2.7-5.3-1.9-5.3-2-4.8-5.6.2-2 .7-5.8 1-8.3.8-6.3 2.7-7.8 11.6-8.8 14.9-1.7 19.2-1.4 23.5 1.7z" fill-rule="nonzero" stroke="#57C003" stroke-width="2" fill="none"/>
</svg>
