<?xml version="1.0" encoding="UTF-8"?>
<svg width="214px" height="430px" viewBox="0 0 214 430" version="1.1" xmlns="http://www.w3.org/2000/svg" xmlns:xlink="http://www.w3.org/1999/xlink">
    <!-- Generator: Sketch 51.2 (57519) - http://www.bohemiancoding.com/sketch -->
    <title>robot</title>
    <desc>Created with Sketch.</desc>
    <defs></defs>
    <g id="Page-1" stroke="none" stroke-width="1" fill="none" fill-rule="evenodd">
        <g id="robot" transform="translate(1.000000, 1.000000)" fill-rule="nonzero" stroke="#57C003" stroke-width="2">
            <g id="Group" transform="translate(106.000000, 213.600000) scale(-1, 1) rotate(-180.000000) translate(-106.000000, -213.600000) translate(-0.000000, 0.100000)">
                <path d="M88.5,424.9 C75.2,421.2 66.3,416.7 52.4,406.5 C33.5,392.6 18.9,367.4 14.1,340.6 C13.6,337.3 12.9,328.5 12.6,321.1 C12.2,309.5 12.4,306 14.5,296.4 C17,284.6 21.7,272.4 27.7,262.6 C32,255.6 42.7,242.3 46.4,239.6 C49.4,237.4 49.7,235.9 47.5,234.1 C45,232 38.5,221.9 36.6,217.1 C33.9,210.4 28.5,201.5 21.5,192.6 C18.1,188.2 14.6,183.2 13.7,181.5 C11.4,177.1 11,171.2 12.7,167.1 C13.6,164.9 13.9,162.3 13.5,160.1 C12.6,155.6 5.1,132.9 3.9,131.5 C3.4,130.9 3.3,130.1 3.7,129.8 C4,129.4 3.8,128.6 3.2,127.9 C-1,122.7 -1,91.1 3.3,75.6 C4.8,70.3 6.6,66 7.7,65.1 C9.2,63.9 9.8,61.8 10.3,56.1 C10.8,49.8 11.6,47.2 15.5,39.6 C21.1,28.8 25.2,24.1 27.7,25.7 C31.4,28 33,31.6 33.5,38.9 C33.7,42.8 33.6,46.1 33.2,46.1 C32.8,46.2 31.2,47.2 29.7,48.5 L26.8,50.8 L28.5,54.7 C30,58.2 30.3,58.4 31.3,56.7 C35.4,50.1 36.8,48.6 38.8,48.3 C46.2,47.2 45.6,57.1 37.7,67 C35.1,70.3 34.4,71.9 35,73.1 C35.8,74.6 39.9,89 41.4,95.4 C42.4,99.7 43.6,98.6 44.8,92.4 C46.7,82.1 47.1,73.8 46.2,63.3 C45.6,56.7 45.6,51.5 46.3,48.7 C47.1,45.3 46.9,43.2 45.5,38.7 C42.4,29 45.2,12 50.8,5.9 C54.6,1.8 65.5,-0.4 78.4,0.4 C95.3,1.4 97,2.2 101.1,10.2 C102.7,13.4 104.5,16.3 105.1,16.6 C106.4,17.5 106.1,34 104.7,35.9 C104.2,36.5 104,37.1 104.4,37.1 C104.8,37.1 104.3,38.6 103.3,40.4 C102,42.8 101.6,46.3 101.5,55.1 C101.4,61.4 101,67.7 100.5,69 C99.7,71.4 99.8,71.4 105,70.9 C107.9,70.6 110.6,69.8 111.1,69 C111.6,68.2 112,64.7 112,61.1 C112.1,57.5 112.8,52.8 113.7,50.6 C115.5,46.1 115.7,37.7 114,35.6 C113.4,34.9 112.6,31.1 112.3,27.3 C111.8,21.1 112,19.5 114.5,13.7 C117,7.8 117.7,7.1 122.1,5.2 C134,0.1 157.3,-1.6 171.1,1.8 C177.1,3.2 178.2,3.9 180.5,7.2 C181.9,9.3 183,12 183,13.1 C183,15.6 178.7,24.4 175.1,29 C173.1,31.6 172.5,33.6 172.5,37.2 C172.5,40.9 171.8,42.9 169.2,46.5 L166,51.2 L165.7,67.4 C165.5,83.4 165.5,83.7 168.8,93.3 C170.7,98.7 172.5,103.1 173,103.1 C173.4,103.1 175,99.2 176.5,94.3 C178,89.5 179.8,84.9 180.6,84 C181.4,83.2 182,82.2 182,81.8 C182,81.5 179.7,77.5 177,72.9 C172.8,66.1 172,64.1 172.6,61.6 C173.5,57.5 173.8,57.1 176.5,57.1 C178.7,57.1 181.7,59.7 185.5,64.6 C187,66.6 187,66.6 188.5,64.7 C190.4,62.3 189.6,59.5 186.2,55.8 C183.9,53.4 183.7,52.8 184.9,50.9 C186,49.1 185.8,48.5 183.1,45.7 C179.4,41.9 179.1,38.5 182.3,37.5 C183.5,37.2 185.7,36 187.2,34.9 C192.6,31.1 195.4,33.8 201.5,48.6 C205.3,57.8 206,60.5 206,66.3 C206,71.6 206.4,73.5 207.9,75 C211,78.1 212.3,89.1 211.7,108.4 C211.2,127.6 211,129.1 208,137.6 C202.1,154.6 200,163.8 200,173.2 C200,183.9 197.7,190.2 191.5,196.1 C184.7,202.6 176.6,215.3 175.5,221.4 C175.2,222.6 173.9,225.8 172.5,228.4 C171.1,231.1 170,233.8 170,234.3 C170,234.9 173.5,239 177.8,243.5 C182,248 186.8,253.6 188.5,256.1 C190.1,258.6 191.8,260.8 192.2,261.1 C193.8,262.4 201.1,279.4 203.4,287.1 C206.2,297.2 209,314.8 209,323 C209,330.3 206.6,344.6 203.9,353.1 C201.3,361.5 194.6,376.1 190.2,383.1 C185.8,390.1 167.8,408 161.4,411.7 C158.7,413.2 156.3,414.8 156,415.3 C155.1,416.6 142.8,421.8 136.5,423.6 C132.4,424.8 124.9,425.6 112.6,426 C97.5,426.5 93.7,426.3 88.5,424.9 Z M126.2,418.7 C138.3,416.4 144.9,413.9 154.8,407.9 C165.9,401 178.3,389.3 185.4,378.8 C188.5,374.1 191,369.9 191,369.4 C191,368.8 192.3,365.5 193.9,362 C199.2,350.2 203,333.8 203,322.3 C203,315.4 199.7,294.6 197.5,287 C197,285.6 190.8,283.4 184.4,282.6 C182.8,282.4 178.1,281.6 174,280.8 C142.4,274.5 124.1,273.4 82,275 C56.5,276 32,278 27,279.6 C24.8,280.3 21.7,289 19.5,300.6 C17.6,311.1 18.9,335.7 22,348.1 C24.5,358.2 32.4,374.6 38.8,383.4 C43.4,389.7 56.7,403.1 58.3,403.1 C58.8,403.1 60.5,404 62,405.1 C71.1,411.6 90.4,419.9 93.6,418.7 C94.3,418.4 95.1,418.5 95.4,418.9 C96.3,420.4 117.8,420.3 126.2,418.7 Z M192,273.2 C186.5,262.3 174.4,247.3 165.1,239.7 C149.1,226.6 130.7,220.1 109.9,220.1 C98.5,220.1 88.4,222.2 75.9,227.2 C68.4,230.1 54.5,240 46.8,247.8 C40,254.8 30,268.4 30,270.8 C30,272.4 30,272.4 39.5,271 C46.9,269.9 47.2,269.7 52.3,264.3 C55.2,261.3 58.1,258.2 58.8,257.5 C61,255.2 62.3,255.8 69,261.9 L75.4,267.6 L104.4,267.7 C120.6,267.7 137.3,268.3 142,269 C146.7,269.6 153.1,270.4 156.2,270.7 L161.8,271.4 L167.3,266.2 C170.3,263.4 173.3,261.1 174.1,261.1 C174.9,261.1 176.9,263.2 178.5,265.7 C183.9,274.3 187,276.9 191.8,277 L194,277.1 L192,273.2 Z M58,230.4 C59.6,229.5 61.1,227.9 61.3,226.9 C62.5,222.5 60.1,204.8 55.4,183.4 C54.8,180.5 53.8,180.5 52.5,183.3 C49.4,190.1 37.5,191.9 28.8,186.8 C26.2,185.3 23.2,182.9 22.1,181.4 C20.9,180 19.7,179.1 19.4,179.4 C19.1,179.7 21.3,183 24.2,186.8 C32.2,196.8 35.6,202.1 40.2,211.8 C44.8,221.5 48,226.5 51.9,229.8 C55,232.5 54.5,232.5 58,230.4 Z M170,219.8 C173.1,210.5 178.7,201.4 186.1,193.6 C189.9,189.6 193,185.7 193,184.8 C193,183.7 192.1,184.1 189.9,186.2 C182.4,193.2 167.9,191.7 160.7,183.1 C157.8,179.7 157,179.4 157,181.7 C157,182.6 156.1,186.3 155,189.9 C153.9,193.6 151.9,202 150.5,208.6 C147.7,222.3 146.9,220.2 157.5,227 L163.5,230.9 L165.7,228.2 C167,226.8 168.9,223 170,219.8 Z M80,219.1 C84.7,217.5 89.5,216.1 90.7,216.1 C91.9,216.1 93.1,215.7 93.4,215.3 C94.3,213.9 110.8,213.2 119.4,214.2 C123.8,214.6 130.7,216 134.7,217.2 C138.7,218.4 142.2,219.2 142.5,219 C142.7,218.7 143.8,213.8 145,208.1 C146.2,202.3 148.7,192.4 150.5,186.1 C153.8,174.7 155.7,165.1 154.7,165.1 C154.4,165.1 150.5,169.5 146,174.9 C132.7,190.7 136.3,189.2 111.7,189.1 C100,189 89.5,188.7 88.3,188.4 C87.1,188.1 80.9,181.5 73.9,173 C62.1,158.5 59.1,155.7 60.9,160.4 C62.1,163.4 64.5,181.4 66.5,201.6 C68,216.1 69.3,222.1 70.9,222.1 C71.2,222.1 75.3,220.7 80,219.1 Z M192.4,171.9 C193.2,169 195,162.3 196.4,157.1 C197.8,151.9 200.3,143.6 202,138.7 C203.6,133.8 204.7,129.5 204.5,129 C204.2,128.6 204.3,128 204.8,127.7 C206.1,126.9 206.5,120.7 206.5,102.1 C206.5,89.8 206.1,83.9 205.2,82.4 C204,80.2 203.8,80.2 200.2,81.6 C198.2,82.5 194.7,84.5 192.4,86.1 C190.2,87.7 187.2,89.3 185.9,89.6 C183.7,90.1 182.9,91.8 179.2,102.9 C175.7,113.8 174.5,118.9 173.5,127.9 C173.4,128.9 172.8,130.9 172.1,132.5 C170.6,136.1 165.8,164.9 166.5,166 C166.7,166.5 168.8,167.1 171,167.4 C176,168 186,172.8 187.8,175.3 C189.9,178.2 190.8,177.5 192.4,171.9 Z M30.9,169.4 C34.4,167.7 39,165.9 41.2,165.6 L45.3,164.9 L44.7,158.2 C44.3,154.6 43.8,147.6 43.5,142.6 C43.2,137.7 42.2,128.9 41.4,123.1 C39.4,109.2 33.1,83 31.6,82.6 C31,82.4 28.9,82 26.9,81.7 C24.9,81.3 20.5,79.3 17.1,77.1 C13.7,74.9 10.6,73.1 10.1,73.1 C9.7,73.1 8.5,77 7.4,81.9 C4.2,97 5.2,123.7 9.3,128.9 C9.8,129.5 9.9,130.1 9.5,130.1 C9.1,130.1 9.2,130.7 9.7,131.4 C11.3,133.3 16.7,149.7 19.5,161.1 C22.3,172.1 22.8,173.4 23.8,172.9 C24.2,172.7 27.4,171.1 30.9,169.4 Z M141.1,167.5 C145,167 146,166.3 149.4,161.7 C154.7,154.7 161.2,140.9 161.8,135.5 C162.2,131.9 161.8,130.4 159.6,127.1 C158.2,124.9 157,122.8 157,122.3 C157,121.9 156.2,120.6 155.3,119.5 C154.3,118.4 151.7,114.9 149.5,111.6 C144.1,103.7 127,86.4 119.2,81.2 C114,77.7 112.1,77 108.1,76.9 C105.4,76.9 102.3,77.2 101.2,77.5 C98.1,78.5 72.1,108.3 60.7,124 C57.3,128.6 56,131.3 56,133.7 C56,140 60.5,148.8 68.2,157.4 C72.2,161.9 75.5,165.8 75.6,165.9 C75.8,166.1 87,166.5 100.7,166.8 C114.3,167.1 125.7,167.5 125.9,167.7 C126.6,168.3 136.2,168.2 141.1,167.5 Z M169,118.2 C169,111.6 168.3,108.2 164.9,97.9 C162.1,89.3 160.7,83 160.2,76.8 L159.5,68.1 L145.7,67.7 C128.1,67.2 127.6,67 122.4,54.4 C121.5,52 120.3,50.1 119.8,50.1 C118.3,50.1 117,55.1 117,61.4 L117,67.6 L123.4,69.9 C131.5,72.8 141,80.6 149.9,91.7 C156.7,100.1 164.6,114.5 165.6,120.3 C166.4,125.2 166.8,126.1 168,126.1 C168.6,126.1 169,123 169,118.2 Z M49.5,119 C50.9,114.8 62.3,99 68.8,92.3 C72.5,88.5 78.2,83.4 81.5,81 C90.4,74.5 95.1,68.9 96.6,62.9 C97.4,60.1 97.8,57.5 97.5,57.2 C97.2,57 95.4,58.3 93.4,60.2 L89.9,63.6 L77.8,63.9 C63.5,64.3 60.4,63.9 55.6,60.6 C53.6,59.2 51.8,58.1 51.7,58.1 C51.5,58.1 51.4,65 51.4,73.4 C51.4,86.9 51.1,89.7 48.7,98.6 C45.9,108.7 45.5,112.5 46.6,118 C47.3,121.6 48.6,122 49.5,119 Z M88.3,55.1 C89.7,54 91.2,52 91.6,50.8 C92,49.6 93.3,47 94.6,45 C97.3,40.7 96.7,39.4 93.1,41.8 C90.9,43.3 88.1,43.6 75,43.6 C60.7,43.6 59.2,43.4 55.2,41.3 C50.2,38.6 50.3,38.2 54.3,48.6 C55.8,52.5 57.5,55 59.1,55.8 C60.6,56.6 66,57.1 73.6,57.1 C84.3,57.1 86,56.9 88.3,55.1 Z M158.8,52.7 C160.5,50.2 161.6,48 161.2,47.7 C160.9,47.4 158.2,47.1 155.1,47.1 C145.3,47 134,44.5 129.6,41.4 C123.4,37 121.9,34.3 121.2,26 C120.7,20.4 120.1,18.6 119,18.6 C117.8,18.6 117.5,20 117.8,26 C117.9,30.1 118.4,33.9 118.9,34.5 C119.3,35.1 120,37.1 120.3,38.8 C120.7,40.6 122.5,44.4 124.5,47.2 C126.4,50 128,53 128,53.7 C128,56.2 132,57 144.2,57 L155.9,57.1 L158.8,52.7 Z M85.1,36 C92.7,34.4 96.9,30.1 97.7,23.4 C98.4,17.2 96.8,12.5 93.6,11.4 C89.6,10.1 88.5,9.9 77,9.4 C63.6,8.8 58,9.9 53.8,14.1 C51.4,16.5 51,17.7 51,22.3 C51,28.1 51.8,29.6 56.6,32.9 C62.4,36.9 74.7,38.2 85.1,36 Z M161.6,34.3 C169.8,28.3 178.8,15.5 176.4,13.1 C174.9,11.6 152.3,9.8 143.6,10.6 C139.2,11 133.2,12.2 130.3,13.3 C125,15.2 125,15.3 125.5,18.9 C125.7,20.9 126.2,24.7 126.5,27.2 C127.3,33.5 129.2,35 138.1,36 C153,37.7 157.3,37.4 161.6,34.3 Z" id="robot"></path>
            </g>
        </g>
    </g>
</svg>