<?xml version="1.0" encoding="UTF-8"?>
<svg width="259px" height="239px" viewBox="0 0 259 239" version="1.1" xmlns="http://www.w3.org/2000/svg" xmlns:xlink="http://www.w3.org/1999/xlink">
    <!-- Generator: Sketch 51.2 (57519) - http://www.bohemiancoding.com/sketch -->
    <title>service-worker</title>
    <desc>Created with Sketch.</desc>
    <defs></defs>
    <g id="Page-1" stroke="none" stroke-width="1" fill="none" fill-rule="evenodd">
        <g id="service-worker" transform="translate(1.000000, 1.000000)" fill-rule="nonzero" stroke="#57C003" stroke-width="2">
            <g id="Group" transform="translate(128.500000, 118.500000) scale(-1, 1) rotate(-180.000000) translate(-128.500000, -118.500000) translate(0.000000, 0.000000)">
                <path d="M74.1,229.3 C70.9,220.1 67.8,215.4 63,213 C56.9,209.9 51,210.4 41.7,214.7 L33.9,218.4 L26,210.5 C21.6,206.1 18,202 18,201.4 C18,200.7 19.6,196.9 21.5,192.9 C25.5,184.5 25.9,179.6 23.1,173.4 C20.6,168 17.4,165.7 7.9,162.3 L0,159.5 L0,147.5 L0,135.5 L7.9,132.7 C17.4,129.3 20.6,127 23.1,121.6 C25.9,115.4 25.5,110.5 21.5,102.1 C19.6,98.1 18,94.3 18,93.6 C18,93 21.6,88.9 26,84.5 L33.9,76.6 L41.7,80.3 C51,84.6 56.9,85.1 63,82 C67.8,79.6 70.9,74.9 74.1,65.7 L76.4,58.9 L88.3,59.2 L100.2,59.5 L103,67.3 C108.9,83.9 118.2,87.8 134.3,80.3 L142.1,76.6 L150.6,85.2 L159.2,93.7 L155.7,100.6 C151.3,109.3 150.6,112.8 152,118 C153.8,124.8 158.8,129.4 168,132.6 L176,135.3 L176,147.5 L176,159.7 L168,162.4 C158.8,165.6 153.8,170.2 152,177 C150.6,182.2 151.3,185.7 155.7,194.4 L159.2,201.3 L150.6,209.8 L142.1,218.4 L134.3,214.7 C118.2,207.2 108.9,211.1 103,227.7 L100.2,235.5 L88.3,235.8 L76.4,236.1 L74.1,229.3 Z M102.7,176 C109,172.9 113.9,168 117.6,161 C120.3,156 120.3,139 117.6,134 C113.8,126.9 109,122.1 102.3,118.8 C89.1,112.3 74.9,115 64.8,125.8 C53.5,137.9 53.2,156.7 64.3,168.7 C74.9,180.2 88.8,182.8 102.7,176 Z" id="Shape"></path>
                <path d="M200.6,113.6 C199.3,110.6 197.3,107.7 196.2,107.1 C193.1,105.4 188.4,105.8 184.1,107.9 L180.3,109.9 L176,105.5 L171.7,101.1 L173.3,96.8 C176.8,87.7 174.5,82.4 166.1,79.9 L161.9,78.7 L162.2,72.2 L162.5,65.7 L166.5,64.3 C172.5,62.3 175.3,58.6 174.7,53.6 C174.5,51.3 173.7,48 172.9,46.3 C171.6,43.1 171.7,42.9 175.5,39 C177.6,36.8 179.9,35 180.6,35 C181.2,35 183.7,35.9 186.1,36.9 C193.5,40.1 198.5,37.7 201.3,29.5 L202.7,25.5 L208.8,25.2 L215,24.9 L217.5,30.5 C219.4,34.9 220.7,36.4 223.4,37.5 C226.6,38.9 227.4,38.8 232.6,36.9 L238.2,34.8 L242.5,39 L246.9,43.3 L244.9,47.1 C240.9,55 243.1,60.9 251.1,64 L255.5,65.8 L255.8,72.2 L256.1,78.7 L251.9,79.9 C243.4,82.5 240.8,88.8 244.9,96.9 L246.9,100.7 L242.2,105.3 L237.5,109.9 L234,108 C226.1,103.7 219.5,106.4 216.9,114.9 L215.7,119 L209.3,119 L203,119 L200.6,113.6 Z M216.7,87.4 C225.3,83.3 228.6,72.1 223.6,63.6 C217.6,53.3 204.3,52.2 196.3,61.3 C184.3,75 200.1,95.2 216.7,87.4 Z" id="Shape"></path>
                <path d="M128.6,61 C127.9,57 125.5,56.2 122.6,58.9 C119.9,61.4 119.2,61.5 116.2,59.2 C114.3,57.7 114.1,57 114.9,54.9 C116.3,51.1 114.9,49.6 110.6,50.3 C107.3,50.8 106.8,50.6 105.4,47.8 C103.9,45 104,44.7 106,42.4 C108.8,39.5 108,37.2 104,36.3 C101.2,35.8 100.9,35.4 101.2,32.2 C101.5,29.1 101.9,28.5 104.8,27.8 C108.6,26.8 109,24.6 105.9,21.4 C104,19.3 103.9,19 105.4,16.2 C106.9,13.4 107.2,13.2 110.2,14.1 C114.4,15.3 116.4,13.2 114.9,9.2 C113.9,6.6 114.1,6.3 118.3,3.9 C119.8,3.1 120.7,3.3 122.4,4.9 C125.5,7.8 126.9,7.5 128.6,3.5 C129.8,0.6 130.5,0 133,0 C135.5,0 136.2,0.6 137.4,3.5 C139.1,7.5 140.5,7.8 143.6,4.9 C145.7,3 146,2.9 148.8,4.4 C151.5,5.8 151.8,6.3 151.3,9.8 C150.7,14.4 151.6,15.3 155.9,14 C158.8,13.2 159.1,13.4 160.6,16.2 C162.1,19.1 162,19.3 159.9,21.6 C157.2,24.5 158.1,27.1 162.1,28 C164,28.5 164.6,29.3 164.8,32.2 C165.1,35.4 164.9,35.8 162,36.3 C157.9,37.2 157.2,39.5 160.1,42.6 C162.3,45 162.3,45.2 160.8,47.8 C159.3,50.2 158.6,50.5 155,50.2 L150.8,49.8 L151.2,54 C151.5,57.6 151.2,58.3 148.8,59.8 C146.2,61.3 146,61.3 143.6,59.1 C140.5,56.2 138.2,56.9 137.4,61 C136.8,63.7 136.4,64 133,64 C129.6,64 129.2,63.7 128.6,61 Z M137.7,43.5 C138.9,43.2 141.1,41.5 142.5,39.9 C145.5,36.3 146,28.8 143.4,25.2 C138.5,18.1 126.4,18.5 122.5,26 C118.9,33 122.2,41.9 129.3,43.9 C132.5,44.8 133.4,44.7 137.7,43.5 Z" id="Shape"></path>
            </g>
        </g>
    </g>
</svg>