<svg width="259" height="239" viewBox="0 0 259 239" xmlns="http://www.w3.org/2000/svg">
  <title>
    service-worker
  </title>
  <g fill-rule="nonzero" stroke="#57C003" stroke-width="2" fill="none">
    <path d="M75.1 8.7C71.9 17.9 68.8 22.6 64 25c-6.1 3.1-12 2.6-21.3-1.7l-7.8-3.7-7.9 7.9c-4.4 4.4-8 8.5-8 9.1 0 .7 1.6 4.5 3.5 8.5 4 8.4 4.4 13.3 1.6 19.5-2.5 5.4-5.7 7.7-15.2 11.1L1 78.5v24l7.9 2.8c9.5 3.4 12.7 5.7 15.2 11.1 2.8 6.2 2.4 11.1-1.6 19.5-1.9 4-3.5 7.8-3.5 8.5 0 .6 3.6 4.7 8 9.1l7.9 7.9 7.8-3.7c9.3-4.3 15.2-4.8 21.3-1.7 4.8 2.4 7.9 7.1 11.1 16.3l2.3 6.8 11.9-.3 11.9-.3 2.8-7.8c5.9-16.6 15.2-20.5 31.3-13l7.8 3.7 8.5-8.6 8.6-8.5-3.5-6.9c-4.4-8.7-5.1-12.2-3.7-17.4 1.8-6.8 6.8-11.4 16-14.6l8-2.7V78.3l-8-2.7c-9.2-3.2-14.2-7.8-16-14.6-1.4-5.2-.7-8.7 3.7-17.4l3.5-6.9-8.6-8.5-8.5-8.6-7.8 3.7c-16.1 7.5-25.4 3.6-31.3-13l-2.8-7.8-11.9-.3-11.9-.3-2.3 6.8zM103.7 62c6.3 3.1 11.2 8 14.9 15 2.7 5 2.7 22 0 27-3.8 7.1-8.6 11.9-15.3 15.2-13.2 6.5-27.4 3.8-37.5-7-11.3-12.1-11.6-30.9-.5-42.9 10.6-11.5 24.5-14.1 38.4-7.3zM201.6 124.4c-1.3 3-3.3 5.9-4.4 6.5-3.1 1.7-7.8 1.3-12.1-.8l-3.8-2-4.3 4.4-4.3 4.4 1.6 4.3c3.5 9.1 1.2 14.4-7.2 16.9l-4.2 1.2.3 6.5.3 6.5 4 1.4c6 2 8.8 5.7 8.2 10.7-.2 2.3-1 5.6-1.8 7.3-1.3 3.2-1.2 3.4 2.6 7.3 2.1 2.2 4.4 4 5.1 4 .6 0 3.1-.9 5.5-1.9 7.4-3.2 12.4-.8 15.2 7.4l1.4 4 6.1.3 6.2.3 2.5-5.6c1.9-4.4 3.2-5.9 5.9-7 3.2-1.4 4-1.3 9.2.6l5.6 2.1 4.3-4.2 4.4-4.3-2-3.8c-4-7.9-1.8-13.8 6.2-16.9l4.4-1.8.3-6.4.3-6.5-4.2-1.2c-8.5-2.6-11.1-8.9-7-17l2-3.8-4.7-4.6-4.7-4.6-3.5 1.9c-7.9 4.3-14.5 1.6-17.1-6.9l-1.2-4.1H204l-2.4 5.4zm16.1 26.2c8.6 4.1 11.9 15.3 6.9 23.8-6 10.3-19.3 11.4-27.3 2.3-12-13.7 3.8-33.9 20.4-26.1zM129.6 177c-.7 4-3.1 4.8-6 2.1-2.7-2.5-3.4-2.6-6.4-.3-1.9 1.5-2.1 2.2-1.3 4.3 1.4 3.8 0 5.3-4.3 4.6-3.3-.5-3.8-.3-5.2 2.5-1.5 2.8-1.4 3.1.6 5.4 2.8 2.9 2 5.2-2 6.1-2.8.5-3.1.9-2.8 4.1.3 3.1.7 3.7 3.6 4.4 3.8 1 4.2 3.2 1.1 6.4-1.9 2.1-2 2.4-.5 5.2 1.5 2.8 1.8 3 4.8 2.1 4.2-1.2 6.2.9 4.7 4.9-1 2.6-.8 2.9 3.4 5.3 1.5.8 2.4.6 4.1-1 3.1-2.9 4.5-2.6 6.2 1.4 1.2 2.9 1.9 3.5 4.4 3.5 2.5 0 3.2-.6 4.4-3.5 1.7-4 3.1-4.3 6.2-1.4 2.1 1.9 2.4 2 5.2.5 2.7-1.4 3-1.9 2.5-5.4-.6-4.6.3-5.5 4.6-4.2 2.9.8 3.2.6 4.7-2.2 1.5-2.9 1.4-3.1-.7-5.4-2.7-2.9-1.8-5.5 2.2-6.4 1.9-.5 2.5-1.3 2.7-4.2.3-3.2.1-3.6-2.8-4.1-4.1-.9-4.8-3.2-1.9-6.3 2.2-2.4 2.2-2.6.7-5.2-1.5-2.4-2.2-2.7-5.8-2.4l-4.2.4.4-4.2c.3-3.6 0-4.3-2.4-5.8-2.6-1.5-2.8-1.5-5.2.7-3.1 2.9-5.4 2.2-6.2-1.9-.6-2.7-1-3-4.4-3-3.4 0-3.8.3-4.4 3zm9.1 17.5c1.2.3 3.4 2 4.8 3.6 3 3.6 3.5 11.1.9 14.7-4.9 7.1-17 6.7-20.9-.8-3.6-7-.3-15.9 6.8-17.9 3.2-.9 4.1-.8 8.4.4z"/>
  </g>
</svg>
