<?xml version="1.0" encoding="UTF-8"?>
<svg width="530px" height="248px" viewBox="0 0 530 248" version="1.1" xmlns="http://www.w3.org/2000/svg" xmlns:xlink="http://www.w3.org/1999/xlink">
    <!-- Generator: Sketch 51.2 (57519) - http://www.bohemiancoding.com/sketch -->
    <title>ssc</title>
    <desc>Created with Sketch.</desc>
    <defs></defs>
    <g id="Page-1" stroke="none" stroke-width="1" fill="none" fill-rule="evenodd">
        <g id="ssc" transform="translate(3.000000, 1.000000)" fill-rule="nonzero" stroke="#57C003" stroke-width="2">
            <g id="Group" transform="translate(262.950000, 122.950000) scale(-1, 1) rotate(-180.000000) translate(-262.950000, -122.950000) translate(0.000000, 0.000000)">
                <path d="M104.4,224.2 C98.6,212.2 90.2,194.9 85.8,185.7 L77.7,168.9 L60.2,168.7 L42.7,168.4 L21.4,124.1 C9.6,99.7 0,79.6 0,79.3 C0,79.1 53.6,78.9 119.1,78.9 C233.8,78.9 238.1,78.8 237.6,77.1 C237.2,76.1 228.9,58.5 219,38 C209.1,17.5 201,0.6 201,0.3 C201,0.1 246.7,6.9388939e-18 302.6,0.1 L404.3,0.4 L423.1,39.4 L441.9,78.4 L463.3,78.7 L484.7,78.9 L505.1,123.1 C516.3,147.4 525.7,167.6 525.8,168.1 C526,168.5 480,168.9 423.6,168.9 C363.4,168.9 321,169.3 321,169.8 C321,170.3 329.1,187.5 339,207.9 C348.9,228.4 357,245.3 357,245.5 C357,245.7 302.5,245.9 236,245.9 L114.9,245.9 L104.4,224.2 Z M332.6,225.7 C330.7,221.7 323.8,207.3 317.2,193.7 L305.1,168.9 L199,168.9 C137.7,168.9 93,169.3 93.2,169.8 C93.4,170.3 100.3,184.7 108.5,201.7 L123.5,232.8 L229.7,232.9 L335.9,232.9 L332.6,225.7 Z M498.8,140.7 C495,132.3 488.3,118 484.1,108.9 L476.4,92.4 L248.7,92.1 C123.5,92 21,92.2 21,92.6 C21,93.1 27.8,107.5 36.2,124.7 L51.3,155.9 L278.6,155.9 L505.9,155.9 L498.8,140.7 Z M422.6,69.7 C411.2,45.2 395.8,14.4 394.7,13.7 C394,13.3 355.1,12.9 308.3,12.9 C240.8,12.9 223,13.2 223,14.1 C223,14.8 229.9,29.7 238.3,47.1 L253.5,78.9 L340.2,78.9 L426.9,78.9 L422.6,69.7 Z" id="Shape"></path>
                <path d="M175.1,203.6 C169.3,191.4 164.3,180.6 163.8,179.7 C163,178.1 163.6,177.9 169,177.9 L175,177.9 L179.2,186.9 C181.4,191.8 183.6,195.6 184,195.4 C184.5,195.1 185.1,191.1 185.5,186.4 L186.2,177.9 L192.2,177.9 C197.4,177.9 198.1,178.1 197.6,179.7 C197.4,180.6 197,184.8 196.8,188.9 L196.5,196.4 L201,196.4 L205.5,196.4 L212.2,209.9 C215.9,217.3 218.9,224 218.9,224.7 C219,225.6 215,225.9 202.3,225.9 L185.5,225.9 L175.1,203.6 Z" id="Shape"></path>
                <path d="M121.1,212.4 C112.3,194.1 111.9,195.9 124.9,195.9 L135.8,195.9 L134.3,191.9 L132.7,187.9 L121,187.9 L109.2,187.9 L107.1,183 C106,180.3 105,177.8 105,177.5 C105,177.2 112.6,176.9 121.8,176.9 L138.7,176.9 L145.3,191.2 C149,199 152,205.7 152,206.2 C152,206.6 147.3,206.9 141.5,206.9 C135.7,206.9 131,207.1 131,207.4 C131,207.6 131.8,209.4 132.7,211.4 L134.4,214.9 L145.5,214.9 L156.6,214.9 L158.8,219.4 C160,221.9 161,224.2 161,224.4 C161,224.7 153.4,224.9 144,224.9 L127.1,224.9 L121.1,212.4 Z" id="Shape"></path>
                <path d="M165.2,218.7 C155.3,197.8 146,177.9 146,177.4 C146,176.3 156.8,177 157.7,178.2 C158.6,179.3 172,207.2 177.6,219.7 L180,224.9 L174.1,224.9 L168.2,224.9 L165.2,218.7 Z" id="Shape"></path>
                <path d="M223.1,220.2 C218.6,211.2 203,177.8 203,177.4 C203,177.1 205.6,176.9 208.8,176.9 L214.5,176.9 L225.5,200.1 C231.6,212.8 236.7,223.6 236.8,224.1 C237,224.5 234.5,224.9 231.3,224.9 L225.4,224.9 L223.1,220.2 Z" id="Shape"></path>
                <path d="M245.7,224.2 C244.2,221.8 224,178.6 224,177.8 C224,177.3 231.3,176.9 240.5,176.9 C255.1,176.9 257.1,177.1 258,178.7 C258.6,179.6 263.8,190.3 269.5,202.4 L279.9,224.4 L274.2,224.7 C271.1,224.9 268.4,224.7 268.3,224.2 C268.1,223.8 264.2,215.5 259.7,205.9 L251.3,188.4 L246.2,188.1 C243.3,187.9 241,188 241,188.3 C241,189 244.5,196.7 251.4,211.2 L257.9,224.9 L252,224.9 C248.8,224.9 245.9,224.6 245.7,224.2 Z" id="Shape"></path>
                <path d="M285.4,217.2 C278.5,202.5 276,196.9 276,196.5 C276,196.2 280.9,195.8 286.9,195.7 L297.8,195.4 L296.3,191.7 L294.8,187.9 L283,187.9 L271.3,187.9 L269.4,183.2 C268.3,180.5 267.4,178.1 267.2,177.7 C267,177.2 274.5,176.9 283.8,176.9 L300.7,176.9 L307.3,190.9 C311,198.7 314,205.4 314,205.9 C314,206.5 309.5,206.9 303.5,206.9 C297.7,206.9 293,207.1 293,207.4 C293,207.6 293.8,209.4 294.7,211.4 L296.4,214.9 L307.5,214.9 L318.6,214.9 L320.8,219.4 C322,221.9 323,224.2 323,224.4 C323,224.7 315.4,224.9 306,224.9 L289.1,224.9 L285.4,217.2 Z" id="Shape"></path>
                <path d="M49.3,134.2 C45.7,126.6 40.6,115.8 37.9,110.2 L33.1,99.9 L52.4,99.9 L71.6,99.9 L74.3,105.4 L77,110.9 L64,110.9 C56.8,110.9 51,111.2 51,111.7 C51,112.1 53.6,117.9 56.7,124.6 L62.5,136.9 L78.8,136.9 C87.7,136.9 95,136.7 95,136.5 C95,136.3 93.2,132.3 91,127.6 C88.8,122.9 87,118.8 87,118.5 C87,118.2 89.3,117.9 92,117.9 C95.4,117.9 97,117.5 97,116.6 C97,115.9 95.4,112.1 93.5,108 C91.6,104 90,100.5 90,100.3 C90,100.1 92.6,99.9 95.8,99.9 L101.7,99.9 L105.9,108.9 L110.2,117.9 L115.4,117.9 L120.5,117.9 L127.8,132.4 C131.7,140.4 135,147.1 135,147.4 C135,147.7 132.4,147.9 129.2,147.9 L123.4,147.9 L118.5,137.9 L113.6,127.9 L108.8,127.9 C106.2,127.9 104,128.4 104,128.9 C104,129.5 106,134 108.5,138.9 L113,147.9 L84.4,147.9 L55.9,147.9 L49.3,134.2 Z" id="Shape"></path>
                <path d="M138.3,134.2 C134.7,126.6 129.6,115.8 126.9,110.2 L122.1,99.9 L139.3,99.9 L156.5,99.9 L160.5,108.7 C163.1,114.3 164.4,118.5 164.2,120.4 C163.9,122.7 164.5,123.9 166.9,125.9 C168.8,127.4 171.7,132.2 174.4,138.2 L178.9,147.9 L161.9,147.9 L144.9,147.9 L138.3,134.2 Z" id="Shape"></path>
                <path d="M173.1,124.4 C167,111.5 162,100.7 162,100.4 C162,100.1 169,99.9 177.5,99.9 L193.1,99.9 L195.5,105.2 L198,110.4 L188.5,110.7 C183.3,110.8 179,111.2 179,111.4 C179,111.6 179.8,113.4 180.7,115.4 C182.3,118.8 182.5,118.9 188,118.9 L193.6,118.9 L195.8,123.4 C197,125.9 198,128.2 198,128.4 C198,128.7 195.8,128.9 193,128.9 C187.6,128.9 187.2,129.4 189.5,133.9 L191.1,136.9 L200.8,136.9 L210.6,136.9 L213.3,142.4 L216,147.9 L200.1,147.9 L184.3,147.9 L173.1,124.4 Z" id="Shape"></path>
                <path d="M218.6,136.7 C215.6,130.5 210.5,119.7 207.2,112.7 L201.1,99.9 L207.1,99.9 L213.1,99.9 L217.3,108.9 C219.6,113.8 221.8,117.9 222.1,117.9 C222.5,117.9 223.1,115.3 223.4,112.2 C224.9,99.2 224.5,99.9 230.6,99.9 L236,99.9 L235.4,108.2 C235,112.7 234.7,116.9 234.6,117.4 C234.6,118 236.8,118.5 239.5,118.7 L244.6,119 L248.9,128.2 C251.3,133.3 254.3,139.8 255.6,142.7 L258,147.9 L240.9,147.9 L223.9,147.9 L218.6,136.7 Z" id="Shape"></path>
                <path d="M256.4,124.8 C250.4,112 245.4,101.2 245.2,100.8 C245,100.3 247.5,99.9 250.8,99.9 L256.7,99.9 L261.6,110.2 L266.4,120.4 L267.1,115.4 C267.5,112.7 267.9,108 267.9,105.1 L268,99.8 L273.6,100.1 L279.2,100.4 L290.1,123.4 C296.1,136.1 301,146.7 301,147.2 C301,147.6 298.6,147.9 295.6,147.9 L290.3,147.9 L285.3,137.7 L280.3,127.4 L279.6,135.4 C278.5,148.4 278.8,147.9 272.7,147.9 L267.3,147.9 L256.4,124.8 Z" id="Shape"></path>
                <path d="M301.5,125.2 C295.6,112.6 290.6,101.8 290.3,101.2 C289.9,100.2 293.3,99.9 305.4,99.9 L321,99.9 L323.5,104.9 C324.9,107.6 326,110.1 326,110.4 C326,110.7 321.7,110.9 316.5,110.9 C311.3,110.9 307,111.2 307,111.7 C307,112.1 307.9,113.9 309,115.7 C310.8,118.7 311.3,118.9 316.5,118.9 L322.1,118.9 L324,123.5 C325.1,126 326,128.3 326,128.5 C326,128.7 323.8,128.9 321,128.9 C318.3,128.9 316,129.1 316,129.4 C316,129.7 316.7,131.5 317.4,133.4 L318.9,136.9 L339.4,136.9 L359.9,136.9 L353.4,123.2 C346.6,109 343,101 343,100.3 C343,100.1 345.6,99.9 348.8,99.9 L354.5,99.9 L363.1,118.2 L371.6,136.4 L377.1,136.7 C382.6,137 382.7,137 384.8,141.5 C386,143.9 387,146.4 387,146.9 C387,147.5 373.2,147.9 349.7,147.9 L312.3,147.9 L301.5,125.2 Z" id="Shape"></path>
                <path d="M397.5,144.8 C396.6,143.1 391.4,132.3 386,120.8 L376.2,99.9 L382.1,99.9 L388.1,99.9 L394.2,112.7 C397.5,119.7 402.6,130.5 405.5,136.7 L410.9,147.9 L405,147.9 C399.4,147.9 399,147.7 397.5,144.8 Z" id="Shape"></path>
                <path d="M411.6,133.1 C407.8,125 402.8,114.2 400.4,109.1 L396.1,99.9 L434,100.1 L472,100.4 L478.5,114.1 C482.1,121.6 485,128 485,128.3 C485,128.6 480.3,128.9 474.5,128.9 C468.7,128.9 464,129.1 464,129.4 C464,129.7 464.7,131.5 465.4,133.4 L466.9,136.9 L478.3,136.9 L489.7,136.9 L491.6,141.6 C492.7,144.3 493.7,146.7 493.8,147.1 C494,147.6 486.5,147.9 477.2,147.9 L460.3,147.9 L454,134.7 C450.6,127.4 447.6,120.8 447.3,120.2 C446.9,119.2 449.4,118.9 457.9,118.9 C464,118.9 469,118.7 469,118.4 C469,118.2 468.2,116.4 467.3,114.4 L465.6,110.9 L439.4,110.9 L413.2,110.9 L419.3,123.9 L425.5,136.9 L436.5,136.9 L447.6,136.9 L450.3,142.4 L453,147.9 L435.7,147.9 L418.5,147.8 L411.6,133.1 Z" id="Shape"></path>
                <path d="M254.6,62.7 C252.7,58.7 247.8,48.2 243.6,39.5 C239.4,30.8 236,23.2 236,22.8 C236,22.3 243.6,21.9 252.8,21.9 L269.6,21.9 L271.8,26.4 C273,28.9 274,31.4 274,31.9 C274,32.5 269.6,32.9 263.5,32.9 C257.7,32.9 253,33.1 253,33.3 C253,33.6 255.7,39.4 258.9,46.3 L264.9,58.9 L275.9,58.9 L287,58.9 L289.5,63.9 C290.9,66.6 292,69.1 292,69.4 C292,69.7 284.3,69.9 274.9,69.9 L257.9,69.9 L254.6,62.7 Z" id="Shape"></path>
                <path d="M295.2,63.7 C293.6,60.2 288.6,49.7 284.1,40.3 C279.7,30.8 276,22.9 276,22.5 C276,22.2 283.6,21.9 292.8,21.9 L309.7,21.9 L314.5,32.2 C317.2,37.8 322.2,48.4 325.7,55.7 C329.2,63.1 332,69.3 332,69.5 C332,69.7 324.4,69.9 315,69.9 L298,69.9 L295.2,63.7 Z M315,58.3 C315,57.9 312.4,52.1 309.3,45.3 L303.6,32.9 L298.3,32.9 C295.4,32.9 293,33.1 293,33.3 C293,33.5 295.7,39.4 298.9,46.3 L304.9,58.9 L309.9,58.9 C312.7,58.9 315,58.6 315,58.3 Z" id="Shape"></path>
                <path d="M330.6,53.1 C326.3,43.9 321.2,33.1 319.4,29.2 L316.1,21.9 L322,21.9 L328,21.9 L332.2,30.9 C334.4,35.9 336.6,39.9 337,39.9 C337.4,39.9 338,36.6 338.4,32.7 C339.5,20.9 338,21.9 354.8,21.9 L369.5,21.9 L373.9,31.4 L378.3,40.9 L389.5,40.9 L400.7,40.9 L407,54.2 C410.4,61.4 413.4,68 413.7,68.7 C414.1,69.7 410.7,69.9 397.1,69.7 L379.9,69.4 L371.2,50.9 L362.4,32.4 L356.2,32.1 C351.4,31.9 350,32.1 350,33.2 C350,34 349.7,36 349.4,37.7 L348.8,40.8 L354.1,41.1 L359.4,41.4 L366.1,55.7 L372.9,69.9 L355.7,69.9 L338.5,69.9 L330.6,53.1 Z" id="Shape"></path>
            </g>
        </g>
    </g>
</svg>