<svg width="530" height="248" viewBox="0 0 530 248" xmlns="http://www.w3.org/2000/svg">
  <title>
    ssc
  </title>
  <g fill-rule="nonzero" stroke="#57C003" stroke-width="2" fill="none">
    <path d="M107.4 22.7c-5.8 12-14.2 29.3-18.6 38.5L80.7 78l-17.5.2-17.5.3-21.3 44.3C12.6 147.2 3 167.3 3 167.6c0 .2 53.6.4 119.1.4 114.7 0 119 .1 118.5 1.8-.4 1-8.7 18.6-18.6 39.1-9.9 20.5-18 37.4-18 37.7 0 .2 45.7.3 101.6.2l101.7-.3 18.8-39 18.8-39 21.4-.3 21.4-.2 20.4-44.2c11.2-24.3 20.6-44.5 20.7-45 .2-.4-45.8-.8-102.2-.8-60.2 0-102.6-.4-102.6-.9s8.1-17.7 18-38.1c9.9-20.5 18-37.4 18-37.6 0-.2-54.5-.4-121-.4H117.9l-10.5 21.7zm228.2-1.5c-1.9 4-8.8 18.4-15.4 32L308.1 78H202c-61.3 0-106-.4-105.8-.9.2-.5 7.1-14.9 15.3-31.9l15-31.1 106.2-.1h106.2l-3.3 7.2zm166.2 85c-3.8 8.4-10.5 22.7-14.7 31.8l-7.7 16.5-227.7.3c-125.2.1-227.7-.1-227.7-.5 0-.5 6.8-14.9 15.2-32.1L54.3 91h454.6l-7.1 15.2zm-76.2 71c-11.4 24.5-26.8 55.3-27.9 56-.7.4-39.6.8-86.4.8-67.5 0-85.3-.3-85.3-1.2 0-.7 6.9-15.6 15.3-33l15.2-31.8h173.4l-4.3 9.2z"/>
    <path d="M178.1 43.3c-5.8 12.2-10.8 23-11.3 23.9-.8 1.6-.2 1.8 5.2 1.8h6l4.2-9c2.2-4.9 4.4-8.7 4.8-8.5.5.3 1.1 4.3 1.5 9l.7 8.5h6c5.2 0 5.9-.2 5.4-1.8-.2-.9-.6-5.1-.8-9.2l-.3-7.5h9l6.7-13.5c3.7-7.4 6.7-14.1 6.7-14.8.1-.9-3.9-1.2-16.6-1.2h-16.8l-10.4 22.3zM124.1 34.5c-8.8 18.3-9.2 16.5 3.8 16.5h10.9l-1.5 4-1.6 4h-23.5l-2.1 4.9c-1.1 2.7-2.1 5.2-2.1 5.5 0 .3 7.6.6 16.8.6h16.9l6.6-14.3c3.7-7.8 6.7-14.5 6.7-15 0-.4-4.7-.7-10.5-.7s-10.5-.2-10.5-.5c0-.2.8-2 1.7-4l1.7-3.5h22.2l2.2-4.5c1.2-2.5 2.2-4.8 2.2-5 0-.3-7.6-.5-17-.5h-16.9l-6 12.5zM168.2 28.2C158.3 49.1 149 69 149 69.5c0 1.1 10.8.4 11.7-.8.9-1.1 14.3-29 19.9-41.5L183 22h-11.8l-3 6.2zM226.1 26.7c-4.5 9-20.1 42.4-20.1 42.8 0 .3 2.6.5 5.8.5h5.7l11-23.2c6.1-12.7 11.2-23.5 11.3-24 .2-.4-2.3-.8-5.5-.8h-5.9l-2.3 4.7zM248.7 22.7c-1.5 2.4-21.7 45.6-21.7 46.4 0 .5 7.3.9 16.5.9 14.6 0 16.6-.2 17.5-1.8.6-.9 5.8-11.6 11.5-23.7l10.4-22-5.7-.3c-3.1-.2-5.8 0-5.9.5-.2.4-4.1 8.7-8.6 18.3l-8.4 17.5-5.1.3c-2.9.2-5.2.1-5.2-.2 0-.7 3.5-8.4 10.4-22.9l6.5-13.7H255c-3.2 0-6.1.3-6.3.7zM288.4 29.7C281.5 44.4 279 50 279 50.4c0 .3 4.9.7 10.9.8l10.9.3-1.5 3.7-1.5 3.8h-23.5l-1.9 4.7c-1.1 2.7-2 5.1-2.2 5.5-.2.5 7.3.8 16.6.8h16.9l6.6-14c3.7-7.8 6.7-14.5 6.7-15 0-.6-4.5-1-10.5-1-5.8 0-10.5-.2-10.5-.5 0-.2.8-2 1.7-4l1.7-3.5h22.2l2.2-4.5c1.2-2.5 2.2-4.8 2.2-5 0-.3-7.6-.5-17-.5h-16.9l-3.7 7.7zM52.3 112.7c-3.6 7.6-8.7 18.4-11.4 24L36.1 147h38.5l2.7-5.5L80 136H67c-7.2 0-13-.3-13-.8 0-.4 2.6-6.2 5.7-12.9l5.8-12.3h16.3c8.9 0 16.2.2 16.2.4s-1.8 4.2-4 8.9-4 8.8-4 9.1c0 .3 2.3.6 5 .6 3.4 0 5 .4 5 1.3 0 .7-1.6 4.5-3.5 8.6-1.9 4-3.5 7.5-3.5 7.7 0 .2 2.6.4 5.8.4h5.9l4.2-9 4.3-9h10.3l7.3-14.5c3.9-8 7.2-14.7 7.2-15 0-.3-2.6-.5-5.8-.5h-5.8l-4.9 10-4.9 10h-4.8c-2.6 0-4.8-.5-4.8-1 0-.6 2-5.1 4.5-10l4.5-9H58.9l-6.6 13.7zM141.3 112.7c-3.6 7.6-8.7 18.4-11.4 24l-4.8 10.3h34.4l4-8.8c2.6-5.6 3.9-9.8 3.7-11.7-.3-2.3.3-3.5 2.7-5.5 1.9-1.5 4.8-6.3 7.5-12.3l4.5-9.7h-34l-6.6 13.7zM176.1 122.5c-6.1 12.9-11.1 23.7-11.1 24 0 .3 7 .5 15.5.5h15.6l2.4-5.3 2.5-5.2-9.5-.3c-5.2-.1-9.5-.5-9.5-.7 0-.2.8-2 1.7-4 1.6-3.4 1.8-3.5 7.3-3.5h5.6l2.2-4.5c1.2-2.5 2.2-4.8 2.2-5 0-.3-2.2-.5-5-.5-5.4 0-5.8-.5-3.5-5l1.6-3h19.5l2.7-5.5L219 99H187.3l-11.2 23.5zM221.6 110.2c-3 6.2-8.1 17-11.4 24l-6.1 12.8h12l4.2-9c2.3-4.9 4.5-9 4.8-9 .4 0 1 2.6 1.3 5.7 1.5 13 1.1 12.3 7.2 12.3h5.4l-.6-8.3c-.4-4.5-.7-8.7-.8-9.2 0-.6 2.2-1.1 4.9-1.3l5.1-.3 4.3-9.2c2.4-5.1 5.4-11.6 6.7-14.5L261 99h-34.1l-5.3 11.2zM259.4 122.1c-6 12.8-11 23.6-11.2 24-.2.5 2.3.9 5.6.9h5.9l4.9-10.3 4.8-10.2.7 5c.4 2.7.8 7.4.8 10.3l.1 5.3 5.6-.3 5.6-.3 10.9-23c6-12.7 10.9-23.3 10.9-23.8 0-.4-2.4-.7-5.4-.7h-5.3l-5 10.2-5 10.3-.7-8c-1.1-13-.8-12.5-6.9-12.5h-5.4l-10.9 23.1zM304.5 121.7c-5.9 12.6-10.9 23.4-11.2 24-.4 1 3 1.3 15.1 1.3H324l2.5-5c1.4-2.7 2.5-5.2 2.5-5.5 0-.3-4.3-.5-9.5-.5s-9.5-.3-9.5-.8c0-.4.9-2.2 2-4 1.8-3 2.3-3.2 7.5-3.2h5.6l1.9-4.6c1.1-2.5 2-4.8 2-5 0-.2-2.2-.4-5-.4-2.7 0-5-.2-5-.5s.7-2.1 1.4-4l1.5-3.5h41l-6.5 13.7c-6.8 14.2-10.4 22.2-10.4 22.9 0 .2 2.6.4 5.8.4h5.7l8.6-18.3 8.5-18.2 5.5-.3c5.5-.3 5.6-.3 7.7-4.8 1.2-2.4 2.2-4.9 2.2-5.4 0-.6-13.8-1-37.3-1h-37.4l-10.8 22.7zM400.5 102.1c-.9 1.7-6.1 12.5-11.5 24l-9.8 20.9h11.9l6.1-12.8c3.3-7 8.4-17.8 11.3-24l5.4-11.2H408c-5.6 0-6 .2-7.5 3.1zM414.6 113.8c-3.8 8.1-8.8 18.9-11.2 24l-4.3 9.2 37.9-.2 38-.3 6.5-13.7c3.6-7.5 6.5-13.9 6.5-14.2 0-.3-4.7-.6-10.5-.6s-10.5-.2-10.5-.5.7-2.1 1.4-4l1.5-3.5h22.8l1.9-4.7c1.1-2.7 2.1-5.1 2.2-5.5.2-.5-7.3-.8-16.6-.8h-16.9l-6.3 13.2c-3.4 7.3-6.4 13.9-6.7 14.5-.4 1 2.1 1.3 10.6 1.3 6.1 0 11.1.2 11.1.5 0 .2-.8 2-1.7 4l-1.7 3.5h-52.4l6.1-13 6.2-13h22.1l2.7-5.5L456 99h-17.3l-17.2.1-6.9 14.7zM257.6 184.2c-1.9 4-6.8 14.5-11 23.2s-7.6 16.3-7.6 16.7c0 .5 7.6.9 16.8.9h16.8l2.2-4.5c1.2-2.5 2.2-5 2.2-5.5 0-.6-4.4-1-10.5-1-5.8 0-10.5-.2-10.5-.4 0-.3 2.7-6.1 5.9-13l6-12.6H290l2.5-5c1.4-2.7 2.5-5.2 2.5-5.5 0-.3-7.7-.5-17.1-.5h-17l-3.3 7.2zM298.2 183.2c-1.6 3.5-6.6 14-11.1 23.4-4.4 9.5-8.1 17.4-8.1 17.8 0 .3 7.6.6 16.8.6h16.9l4.8-10.3c2.7-5.6 7.7-16.2 11.2-23.5 3.5-7.4 6.3-13.6 6.3-13.8 0-.2-7.6-.4-17-.4h-17l-2.8 6.2zm19.8 5.4c0 .4-2.6 6.2-5.7 13l-5.7 12.4h-5.3c-2.9 0-5.3-.2-5.3-.4s2.7-6.1 5.9-13l6-12.6h5c2.8 0 5.1.3 5.1.6zM333.6 193.8c-4.3 9.2-9.4 20-11.2 23.9l-3.3 7.3H331l4.2-9c2.2-5 4.4-9 4.8-9 .4 0 1 3.3 1.4 7.2 1.1 11.8-.4 10.8 16.4 10.8h14.7l4.4-9.5 4.4-9.5h22.4l6.3-13.3c3.4-7.2 6.4-13.8 6.7-14.5.4-1-3-1.2-16.6-1l-17.2.3-8.7 18.5-8.8 18.5-6.2.3c-4.8.2-6.2 0-6.2-1.1 0-.8-.3-2.8-.6-4.5l-.6-3.1 5.3-.3 5.3-.3 6.7-14.3 6.8-14.2h-34.4l-7.9 16.8z"/>
  </g>
</svg>
