<svg width="992" height="909" viewBox="0 0 992 909" xmlns="http://www.w3.org/2000/svg">
  <title>
    Thumb (1)
  </title>
  <path d="M489.5 2c-10.6.9-36.6 4.4-45 6-2.7.5-7.5 1.4-10.5 2-20.9 3.8-58.3 15.1-80.5 24.4-2.2.9-5.8 2.4-8 3.4-2.2.9-12.3 5.8-22.5 10.9-22.2 11.1-47.5 26.3-62.6 37.9-6.1 4.6-11.6 8.4-12.3 8.4-1 0-17.4-7-30.6-13-3.2-1.5-13.8-5.7-31.5-12.5-29.2-11.2-60.9-19.8-87.5-23.7-9.8-1.4-35-1.3-43.1.1C27 51.1 9.9 66.2 4 91.4c-2.2 9.5-2.7 25-1.1 33.3.6 2.6 1.5 7.5 2.1 10.8 3.6 18.4 11.9 41.2 24.6 67 5.5 11.1 16.5 31.8 21 39.2 1 1.7 4.4 7.4 7.4 12.5s10.1 16.3 15.9 24.8c5.8 8.5 13.3 19.7 16.8 24.9 4.7 6.9 6.3 10 5.8 11.5-1.7 5.6-4.9 17.9-6.5 25.1-1 4.4-2.5 11.4-3.5 15.5-.9 4.1-2 10.4-2.5 14-.4 3.6-1.5 11.4-2.3 17.5-3.7 26-4.3 67.6-1.6 97.5 2.1 23.3 6.9 51 12 70 10.5 38.7 24.7 73.2 47 114 7.3 13.2 30.5 47.4 34 50 .3.3 3.3 3.9 6.6 8 10.3 12.9 43.9 47.6 50.1 51.7 2 1.4 2.5 1.4 5-.3 1.5-.9 3.2-2.3 3.7-2.9.6-.7 4.2-3.8 8-7 3.9-3.2 7.5-6.4 8-7.1.6-.6 6-5.6 12.1-11 12-10.7 31.7-28.8 42.9-39.3 3.9-3.6 12.6-11.7 19.5-18 6.9-6.3 13-12 13.5-12.5.6-.6 3.5-3.3 6.5-6 19.2-17.3 51-47.8 51-49 0-1.2-7-8.2-13-13.1-4.2-3.3-11.8-9.9-30.6-26.5-7.7-6.9-15.9-14-18-15.8-2.1-1.9-8.2-7.5-13.4-12.5-5.2-5.1-12.2-11.6-15.5-14.6-14.9-13.5-66.9-65.8-86.5-87-5.8-6.3-11-11.9-11.6-12.5-1.8-2-15.8-17.7-20.4-23-14.9-17.4-29.8-34.7-33-38.6-2.1-2.5-7.6-9-12.2-14.5s-11-13.4-14.3-17.6c-3.3-4.2-8.7-10.9-12-14.9-3.3-4-6.7-8.2-7.4-9.4-.8-1.1-3.5-4.5-5.9-7.4l-4.4-5.2 1.2-5.3c1.6-6.6 6.6-22 9-27.2 1-2.2 3.2-7 4.9-10.8 1.6-3.7 3.6-6.7 4.4-6.7.7 0 3.1 2.5 5.3 5.5 2.1 3.1 4.6 6.4 5.4 7.5.8 1 4.2 5.6 7.5 10.1 8.4 11.6 29.5 39.2 30.9 40.4.6.5 2.9 3.3 5.1 6 6.3 8 32.5 38.2 44.9 51.9 18.2 20 43.8 46.7 63.7 66.5 20.9 20.9 74.4 71.6 82.3 78.1 1 .8 3.9 3.3 6.5 5.6 2.5 2.3 8.3 7.4 12.9 11.5s10.9 9.6 14 12.3c3.1 2.6 7.8 6.7 10.3 9 9.4 8.5 28.2 24.1 29.3 24.4 1.5.3 12.5-11.2 19.3-20.3 5.9-7.8 11.3-18.3 13.7-26.4 1.9-6.6 2-18.6.2-26.1-1.9-7.7-9.4-23.2-15.5-32-4-5.6-26.3-35.4-27.8-37-2.7-2.8-18.4-24.5-25-34.4-6.3-9.5-17.4-30.1-20.2-37.6-.7-1.9-3.9-11-7.1-20.3-3.2-9.2-6.9-18.4-8.1-20.4-5.5-8.8-33.7-38.1-50.5-52.3-19.7-16.7-40.3-23-75.9-23-13 0-17.7-.7-24.8-3.8-4.1-1.8-7.7-6.6-7.7-10.3 0-4.1 4.6-12.6 9.4-17.3 8.5-8.6 25.8-20.5 39.1-27.1 16.2-8 25.1-10.4 42-11.2 20.7-.9 34.4 1.7 48.5 9.5 7 3.8 26.8 16.8 28.5 18.6.6.6 3 2.7 5.5 4.6 23.3 18 60.1 52.2 75.9 70.5 25.8 30 29.7 32.6 65.6 43.9 36.4 11.5 65.8 29.2 92.1 55.3 14.2 14.1 21.7 23.3 32.9 40.2 9.3 14.1 24.5 43.4 24.5 47.3 0 .8.4 1.8.8 2.3 1.2 1.3 4.2 9.7 8.1 22.5 5 16.1 5.1 16.5 5.1 18.3 0 .9 1.5 7.4 3.2 14.4l3.3 12.8-.2 34.7c-.2 35-.8 42.2-4.9 64.8-4.2 22.8-10.3 42.3-19.3 61.5-2.1 4.4-4.8 10-5.9 12.5-1.2 2.5-4.2 8.3-6.7 12.9-3.2 5.7-4.5 9.1-4.1 10.6.6 2.2 6.1 6 24.6 16.8 22.4 13.1 48.7 28.1 65.7 37.6 10.6 5.8 19.3 11.1 19.3 11.7 0 1.9-39.7 24.4-43.1 24.4-4.3 0-66.6-34.8-88.5-49.4-5.4-3.6-10.4-6.6-11-6.6-.6 0-3.8 2.8-7.1 6.2-8.2 8.4-46.6 46.2-74.6 73.3-12.5 12.1-22.7 22.5-22.7 23.1 0 .7.7 1.5 1.6 1.8 2.3.9 40.4-.2 51.4-1.5 11.4-1.3 37.9-5.6 43.5-7 2.2-.5 6-1.4 8.5-1.9 22.8-4.6 53.6-15 87.2-29.1l11.6-5 10.9 5.2c25.1 12 38.7 18 66.6 29.5 11.9 4.9 44.7 15.8 55.2 18.3 2.8.7 7.5 1.9 10.5 2.7 6.2 1.5 28.2 5.6 40.6 7.4 15.4 2.3 43.2-1.8 56.3-8.3 7.2-3.6 16.6-11.7 21-18.2 1.6-2.3 4.3-8 6.2-12.6 3.1-8 3.3-9.2 3.7-23.9.4-15.7.1-18.3-4.2-35.7-8-32.1-34.7-87.8-60.6-126.3-6.3-9.4-13.1-20-13.6-21.5-.3-.7 2.6-7.8 6.4-15.7 10.8-21.9 21.1-48.3 29.1-74.3 1.4-4.4 8.9-35.5 9.4-39 .3-1.7 1.2-7.1 2-12 7.6-43.6 8.7-90.6 3.1-128.5-4.2-28.9-4.4-29.9-10.1-52.9-5.6-22.7-15.4-53-19.3-59.9-.6-1-2.3-5.1-3.9-9.2-2.5-6.6-15.4-33.1-19.5-40-.8-1.4-4-7-7.2-12.5-5.5-9.5-18.3-28.9-22.8-34.7-1.2-1.5-3.2-4.3-4.6-6.3-11.3-16.3-44.7-51.1-67.5-70.2-12.8-10.7-41.7-32-48.6-35.7-1.3-.8-6.4-3.7-11.4-6.6-24.9-14.6-46-24.7-70.6-33.8-13.7-5.1-19.1-6.9-35.4-11.5-19.3-5.5-18.6-5.3-37.5-8.8l-10-2c-2.5-.5-11.7-1.8-20.5-3-17.9-2.3-65.7-3.4-84-1.9zm-354 91.6c12.6 1.6 21.2 3.8 38.5 10 17.5 6.2 41.4 16.1 41.8 17.3.2.6-5.4 7.5-12.5 15.4-18.4 20.4-37.8 44.1-44.8 54.9-.5.8-3.9 5.7-7.4 10.9-7.8 11.4-9.8 15-29 49.9-1.5 2.7-4.2 1.6-6.6-2.6-1.3-2.3-4.8-8-7.8-12.5-2.9-4.6-6.2-10-7.3-11.9-1-1.9-2.4-4.2-3-5-2.2-2.8-15.3-28.5-18.9-37-10.5-24.6-14.2-40.7-13.1-58.2.5-8.1 1.1-10.6 3.7-15.8 8.5-16.6 25.5-20.5 66.4-15.4zm622 60.8c2.8.7 6.2 1.9 7.5 2.6 2.5 1.3 11 7.8 12 9.2.3.4 3.7 4 7.6 8 6.9 7.2 16.2 18.5 19.8 24.1 6 9.5 6.5 31.2 1 41.7-2.2 4.2-25.9 27.3-42.5 41.4-1.9 1.6-5.2 4.5-7.4 6.5-4.4 3.9-11.3 9.7-18.5 15.5-2.5 2-5.8 4.9-7.5 6.4-4.3 4.1-24.9 21-32.5 26.8-13.8 10.5-15.3 11.1-29.1 12.1-15.3 1-22.9-2.6-38-18.3-13.8-14.3-19.5-22-24.5-32.9-5.4-11.7-3.9-28.7 3.3-38.7 3.9-5.4 19.8-20.4 45.6-42.8 6-5.2 12.1-10.4 13.6-11.5 1.5-1.1 5.4-4.3 8.6-7 22.4-19 28.2-23.7 35.6-29.6 12.1-9.4 16.9-12.5 21.4-13.7 5.8-1.5 18.2-1.4 24 .2zm78.1 107.8c6.5 1.2 12.2 4.7 19.4 11.7 4.5 4.3 16.3 17.3 18.5 20.3.6.7 2.6 3.3 4.6 5.8 5.7 7.2 7.6 11.3 9 18.9 1.7 9.6 0 21.2-4.3 29.3-4.3 8.2-27.2 29.4-71.3 66.3-3.3 2.7-6.2 5.2-6.5 5.5-.3.3-2.7 2.3-5.5 4.5-2.7 2.1-6.1 4.9-7.5 6.1-11.7 10.3-25.1 20.6-30.2 23.4-5.6 2.9-14.8 4.1-23.4 2.9-8.8-1.2-17.4-5.5-24.4-12.2-5.8-5.5-22.4-25.4-26.2-31.2-6.5-10.2-7.2-12.5-7.3-22.5 0-17.9 4.8-26.3 26-44.8 7.2-6.2 14.4-12.7 16.2-14.4 1.8-1.6 4.8-4.2 6.6-5.7 1.9-1.4 11.5-9.4 21.3-17.6 9.8-8.3 18.4-15.3 18.9-15.7.6-.4 3.3-2.6 6-5 21.8-18.2 31.7-25.1 37.5-26.1 5.3-.9 16.9-.7 22.6.5zM861 425.6c5.2 2.7 9.5 6.3 17.7 14.7 19.8 20.5 25.3 30 25.3 44.3 0 7.7-2.4 17.5-5.4 22.2-3.7 6-26.7 27.9-45.4 43.3-20.3 16.8-25.4 19.2-40.7 19.3-9.4.1-10.4-.1-16.8-3.2-10.1-5-28.9-24.2-36.3-37.4-6.6-11.6-6.9-12.6-6.9-24.3.1-10.1.3-11.5 3-17 4.8-9.8 28-31.8 58-54.9 12.3-9.5 15.1-10.5 28.9-10.6 11.6 0 11.9.1 18.6 3.6zm36.6 269.7c1.1 1.8 4.3 6.6 7.1 10.7 19 27.8 34.8 58.5 43.3 83.8 4.6 13.9 6.3 32.7 3.7 42.2-3.1 11.3-11.3 20.6-21.7 24.4-15.3 5.6-47.2 2.8-78.1-6.9-12.3-3.8-36.8-13.3-50.6-19.6-2.4-1-4.5-1.9-4.9-1.9-1.4 0-23.4-11-23.4-11.8 0-.5 4.7-4.6 10.5-9.3 32.8-26.1 64.3-56.4 82-78.5 1.7-2.1 3.7-4.5 4.5-5.3 1.7-1.9 16.4-21.9 20-27.3 3-4.6 4.9-4.7 7.6-.5z" fill-rule="nonzero" stroke="#57C003" stroke-width="2" fill="none"/>
</svg>
