<?xml version="1.0" encoding="UTF-8"?>
<svg width="992px" height="909px" viewBox="0 0 992 909" version="1.1" xmlns="http://www.w3.org/2000/svg" xmlns:xlink="http://www.w3.org/1999/xlink">
    <!-- Generator: Sketch 51.2 (57519) - http://www.bohemiancoding.com/sketch -->
    <title>Thumb (1)</title>
    <desc>Created with Sketch.</desc>
    <defs></defs>
    <g id="Page-1" stroke="none" stroke-width="1" fill="none" fill-rule="evenodd">
        <g id="Thumb-(1)" transform="translate(1.000000, 1.000000)" fill-rule="nonzero" stroke="#57C003" stroke-width="2">
            <g id="Group" transform="translate(495.450000, 453.500000) scale(-1, 1) rotate(-180.000000) translate(-495.450000, -453.500000) translate(0.900000, 0.300000)">
                <path d="M487.6,905.7 C477,904.8 451,901.3 442.6,899.7 C439.9,899.2 435.1,898.3 432.1,897.7 C411.2,893.9 373.8,882.6 351.6,873.3 C349.4,872.4 345.8,870.9 343.6,869.9 C341.4,869 331.3,864.1 321.1,859 C298.9,847.9 273.6,832.7 258.5,821.1 C252.4,816.5 246.9,812.7 246.2,812.7 C245.2,812.7 228.8,819.7 215.6,825.7 C212.4,827.2 201.8,831.4 184.1,838.2 C154.9,849.4 123.2,858 96.6,861.9 C86.8,863.3 61.6,863.2 53.5,861.8 C25.1,856.6 8,841.5 2.1,816.3 C-0.1,806.8 -0.6,791.3 1,783 C1.6,780.4 2.5,775.5 3.1,772.2 C6.7,753.8 15,731 27.7,705.2 C33.2,694.1 44.2,673.4 48.7,666 C49.7,664.3 53.1,658.6 56.1,653.5 C59.1,648.4 66.2,637.2 72,628.7 C77.8,620.2 85.3,609 88.8,603.8 C93.5,596.9 95.1,593.8 94.6,592.3 C92.9,586.7 89.7,574.4 88.1,567.2 C87.1,562.8 85.6,555.8 84.6,551.7 C83.7,547.6 82.6,541.3 82.1,537.7 C81.7,534.1 80.6,526.3 79.8,520.2 C76.1,494.2 75.5,452.6 78.2,422.7 C80.3,399.4 85.1,371.7 90.2,352.7 C100.7,314 114.9,279.5 137.2,238.7 C144.5,225.5 167.7,191.3 171.2,188.7 C171.5,188.4 174.5,184.8 177.8,180.7 C188.1,167.8 221.7,133.1 227.9,129 C229.9,127.6 230.4,127.6 232.9,129.3 C234.4,130.2 236.1,131.6 236.6,132.2 C237.2,132.9 240.8,136 244.6,139.2 C248.5,142.4 252.1,145.6 252.6,146.3 C253.2,146.9 258.6,151.9 264.7,157.3 C276.7,168 296.4,186.1 307.6,196.6 C311.5,200.2 320.2,208.3 327.1,214.6 C334,220.9 340.1,226.6 340.6,227.1 C341.2,227.7 344.1,230.4 347.1,233.1 C366.3,250.4 398.1,280.9 398.1,282.1 C398.1,283.3 391.1,290.3 385.1,295.2 C380.9,298.5 373.3,305.1 354.5,321.7 C346.8,328.6 338.6,335.7 336.5,337.5 C334.4,339.4 328.3,345 323.1,350 C317.9,355.1 310.9,361.6 307.6,364.6 C292.7,378.1 240.7,430.4 221.1,451.6 C215.3,457.9 210.1,463.5 209.5,464.1 C207.7,466.1 193.7,481.8 189.1,487.1 C174.2,504.5 159.3,521.8 156.1,525.7 C154,528.2 148.5,534.7 143.9,540.2 C139.3,545.7 132.9,553.6 129.6,557.8 C126.3,562 120.9,568.7 117.6,572.7 C114.3,576.7 110.9,580.9 110.2,582.1 C109.4,583.2 106.7,586.6 104.3,589.5 L99.9,594.7 L101.1,600 C102.7,606.6 107.7,622 110.1,627.2 C111.1,629.4 113.3,634.2 115,638 C116.6,641.7 118.6,644.7 119.4,644.7 C120.1,644.7 122.5,642.2 124.7,639.2 C126.8,636.1 129.3,632.8 130.1,631.7 C130.9,630.7 134.3,626.1 137.6,621.6 C146,610 167.1,582.4 168.5,581.2 C169.1,580.7 171.4,577.9 173.6,575.2 C179.9,567.2 206.1,537 218.5,523.3 C236.7,503.3 262.3,476.6 282.2,456.8 C303.1,435.9 356.6,385.2 364.5,378.7 C365.5,377.9 368.4,375.4 371,373.1 C373.5,370.8 379.3,365.7 383.9,361.6 C388.5,357.5 394.8,352 397.9,349.3 C401,346.7 405.7,342.6 408.2,340.3 C417.6,331.8 436.4,316.2 437.5,315.9 C439,315.6 450,327.1 456.8,336.2 C462.7,344 468.1,354.5 470.5,362.6 C472.4,369.2 472.5,381.2 470.7,388.7 C468.8,396.4 461.3,411.9 455.2,420.7 C451.2,426.3 428.9,456.1 427.4,457.7 C424.7,460.5 409,482.2 402.4,492.1 C396.1,501.6 385,522.2 382.2,529.7 C381.5,531.6 378.3,540.7 375.1,550 C371.9,559.2 368.2,568.4 367,570.4 C361.5,579.2 333.3,608.5 316.5,622.7 C296.8,639.4 276.2,645.7 240.6,645.7 C227.6,645.7 222.9,646.4 215.8,649.5 C211.7,651.3 208.1,656.1 208.1,659.8 C208.1,663.9 212.7,672.4 217.5,677.1 C226,685.7 243.3,697.6 256.6,704.2 C272.8,712.2 281.7,714.6 298.6,715.4 C319.3,716.3 333,713.7 347.1,705.9 C354.1,702.1 373.9,689.1 375.6,687.3 C376.2,686.7 378.6,684.6 381.1,682.7 C404.4,664.7 441.2,630.5 457,612.2 C482.8,582.2 486.7,579.6 522.6,568.3 C559,556.8 588.4,539.1 614.7,513 C628.9,498.9 636.4,489.7 647.6,472.8 C656.9,458.7 672.1,429.4 672.1,425.5 C672.1,424.7 672.5,423.7 672.9,423.2 C674.1,421.9 677.1,413.5 681,400.7 C686,384.6 686.1,384.2 686.1,382.4 C686.1,381.5 687.6,375 689.3,368 L692.6,355.2 L692.4,320.5 C692.2,285.5 691.6,278.3 687.5,255.7 C683.3,232.9 677.2,213.4 668.2,194.2 C666.1,189.8 663.4,184.2 662.3,181.7 C661.1,179.2 658.1,173.4 655.6,168.8 C652.4,163.1 651.1,159.7 651.5,158.2 C652.1,156 657.6,152.2 676.1,141.4 C698.5,128.3 724.8,113.3 741.8,103.8 C752.4,98 761.1,92.7 761.1,92.1 C761.1,90.2 721.4,67.7 718,67.7 C713.7,67.7 651.4,102.5 629.5,117.1 C624.1,120.7 619.1,123.7 618.5,123.7 C617.9,123.7 614.7,120.9 611.4,117.5 C603.2,109.1 564.8,71.3 536.8,44.2 C524.3,32.1 514.1,21.7 514.1,21.1 C514.1,20.4 514.8,19.6 515.7,19.3 C518,18.4 556.1,19.5 567.1,20.8 C578.5,22.1 605,26.4 610.6,27.8 C612.8,28.3 616.6,29.2 619.1,29.7 C641.9,34.3 672.7,44.7 706.3,58.8 L717.9,63.8 L728.8,58.6 C753.9,46.6 767.5,40.6 795.4,29.1 C807.3,24.2 840.1,13.3 850.6,10.8 C853.4,10.1 858.1,8.9 861.1,8.1 C867.3,6.6 889.3,2.5 901.7,0.7 C917.1,-1.6 944.9,2.5 958,9 C965.2,12.6 974.6,20.7 979,27.2 C980.6,29.5 983.3,35.2 985.2,39.8 C988.3,47.8 988.5,49 988.9,63.7 C989.3,79.4 989,82 984.7,99.4 C976.7,131.5 950,187.2 924.1,225.7 C917.8,235.1 911,245.7 910.5,247.2 C910.2,247.9 913.1,255 916.9,262.9 C927.7,284.8 938,311.2 946,337.2 C947.4,341.6 954.9,372.7 955.4,376.2 C955.7,377.9 956.6,383.3 957.4,388.2 C965,431.8 966.1,478.8 960.5,516.7 C956.3,545.6 956.1,546.6 950.4,569.6 C944.8,592.3 935,622.6 931.1,629.5 C930.5,630.5 928.8,634.6 927.2,638.7 C924.7,645.3 911.8,671.8 907.7,678.7 C906.9,680.1 903.7,685.7 900.5,691.2 C895,700.7 882.2,720.1 877.7,725.9 C876.5,727.4 874.5,730.2 873.1,732.2 C861.8,748.5 828.4,783.3 805.6,802.4 C792.8,813.1 763.9,834.4 757,838.1 C755.7,838.9 750.6,841.8 745.6,844.7 C720.7,859.3 699.6,869.4 675,878.5 C661.3,883.6 655.9,885.4 639.6,890 C620.3,895.5 621,895.3 602.1,898.8 C599.1,899.4 594.6,900.3 592.1,900.8 C589.6,901.3 580.4,902.6 571.6,903.8 C553.7,906.1 505.9,907.2 487.6,905.7 Z M133.6,814.1 C146.2,812.5 154.8,810.3 172.1,804.1 C189.6,797.9 213.5,788 213.9,786.8 C214.1,786.2 208.5,779.3 201.4,771.4 C183,751 163.6,727.3 156.6,716.5 C156.1,715.7 152.7,710.8 149.2,705.6 C141.4,694.2 139.4,690.6 120.2,655.7 C118.7,653 116,654.1 113.6,658.3 C112.3,660.6 108.8,666.3 105.8,670.8 C102.9,675.4 99.6,680.8 98.5,682.7 C97.5,684.6 96.1,686.9 95.5,687.7 C93.3,690.5 80.2,716.2 76.6,724.7 C66.1,749.3 62.4,765.4 63.5,782.9 C64,791 64.6,793.5 67.2,798.7 C75.7,815.3 92.7,819.2 133.6,814.1 Z M755.6,753.3 C758.4,752.6 761.8,751.4 763.1,750.7 C765.6,749.4 774.1,742.9 775.1,741.5 C775.4,741.1 778.8,737.5 782.7,733.5 C789.6,726.3 798.9,715 802.5,709.4 C808.5,699.9 809,678.2 803.5,667.7 C801.3,663.5 777.6,640.4 761,626.3 C759.1,624.7 755.8,621.8 753.6,619.8 C749.2,615.9 742.3,610.1 735.1,604.3 C732.6,602.3 729.3,599.4 727.6,597.9 C723.3,593.8 702.7,576.9 695.1,571.1 C681.3,560.6 679.8,560 666,559 C650.7,558 643.1,561.6 628,577.3 C614.2,591.6 608.5,599.3 603.5,610.2 C598.1,621.9 599.6,638.9 606.8,648.9 C610.7,654.3 626.6,669.3 652.4,691.7 C658.4,696.9 664.5,702.1 666,703.2 C667.5,704.3 671.4,707.5 674.6,710.2 C697,729.2 702.8,733.9 710.2,739.8 C722.3,749.2 727.1,752.3 731.6,753.5 C737.4,755 749.8,754.9 755.6,753.3 Z M833.7,645.5 C840.2,644.3 845.9,640.8 853.1,633.8 C857.6,629.5 869.4,616.5 871.6,613.5 C872.2,612.8 874.2,610.2 876.2,607.7 C881.9,600.5 883.8,596.4 885.2,588.8 C886.9,579.2 885.2,567.6 880.9,559.5 C876.6,551.3 853.7,530.1 809.6,493.2 C806.3,490.5 803.4,488 803.1,487.7 C802.8,487.4 800.4,485.4 797.6,483.2 C794.9,481.1 791.5,478.3 790.1,477.1 C778.4,466.8 765,456.5 759.9,453.7 C754.3,450.8 745.1,449.6 736.5,450.8 C727.7,452 719.1,456.3 712.1,463 C706.3,468.5 689.7,488.4 685.9,494.2 C679.4,504.4 678.7,506.7 678.6,516.7 C678.6,534.6 683.4,543 704.6,561.5 C711.8,567.7 719,574.2 720.8,575.9 C722.6,577.5 725.6,580.1 727.4,581.6 C729.3,583 738.9,591 748.7,599.2 C758.5,607.5 767.1,614.5 767.6,614.9 C768.2,615.3 770.9,617.5 773.6,619.9 C795.4,638.1 805.3,645 811.1,646 C816.4,646.9 828,646.7 833.7,645.5 Z M859.1,482.1 C864.3,479.4 868.6,475.8 876.8,467.4 C896.6,446.9 902.1,437.4 902.1,423.1 C902.1,415.4 899.7,405.6 896.7,400.9 C893,394.9 870,373 851.3,357.6 C831,340.8 825.9,338.4 810.6,338.3 C801.2,338.2 800.2,338.4 793.8,341.5 C783.7,346.5 764.9,365.7 757.5,378.9 C750.9,390.5 750.6,391.5 750.6,403.2 C750.7,413.3 750.9,414.7 753.6,420.2 C758.4,430 781.6,452 811.6,475.1 C823.9,484.6 826.7,485.6 840.5,485.7 C852.1,485.7 852.4,485.6 859.1,482.1 Z M895.7,212.4 C896.8,210.6 900,205.8 902.8,201.7 C921.8,173.9 937.6,143.2 946.1,117.9 C950.7,104 952.4,85.2 949.8,75.7 C946.7,64.4 938.5,55.1 928.1,51.3 C912.8,45.7 880.9,48.5 850,58.2 C837.7,62 813.2,71.5 799.4,77.8 C797,78.8 794.9,79.7 794.5,79.7 C793.1,79.7 771.1,90.7 771.1,91.5 C771.1,92 775.8,96.1 781.6,100.8 C814.4,126.9 845.9,157.2 863.6,179.3 C865.3,181.4 867.3,183.8 868.1,184.6 C869.8,186.5 884.5,206.5 888.1,211.9 C891.1,216.5 893,216.6 895.7,212.4 Z" id="Shape"></path>
            </g>
        </g>
    </g>
</svg>