<svg width="821" height="719" viewBox="0 0 821 719" xmlns="http://www.w3.org/2000/svg">
  <title>
    towel
  </title>
  <path d="M474.3 2.1c-7.8 1.2-19.9 5.4-35.1 12.3-22.4 10.3-38.5 14.8-45.3 12.8-1.9-.6-6.2-2.2-9.6-3.7-8.5-3.5-19.8-4.8-32.3-3.6-13.7 1.3-20.9 4.6-30.1 14.1-7.2 7.2-10.5 12.7-13.4 22.2-2.2 6.8.2 6.3-35.5 7.9-28.8 1.3-164 1.8-168.3.6-1.5-.4-6.2-3.9-10.5-7.9C81.7 45.3 70.5 41 53.6 41c-17.1.1-29.6 4.9-40.2 15.7C3.2 67-.2 77.4 1.8 92.3c1.4 10.8 4.9 17.7 13 25.6 6.7 6.6 12.2 9.9 21.7 13 7.2 2.3 29.3 2.2 35.8-.2 9.1-3.3 16.2-7.6 23.2-14 3.2-3 6.6-4.4 12.5-5.1 17.3-2.2 39.2-4.6 51-5.5 35.8-2.8 128.9-8.1 137.6-7.9l9.8.3 1.3 4.5c2.5 8.5 3.8 40.3 2.5 60.8-4.3 68-19 127.6-57.3 232-17.4 47.7-23 62.2-30 77.9-14.9 33.3-14.6 31.9-8.1 35.2 6.8 3.4 46 15.3 61.2 18.5 4.1.9 14.3 2.3 22.5 3.1 16.4 1.6 26.4 3.4 31 5.6 4.8 2.3 4.4 7.1-2.5 30.9-1.1 3.6-3.9 13.7-6.4 22.5-11.2 39.7-17.5 55.6-33.5 83.5-11.9 20.7-13.7 28.6-8.4 36.8 3.9 6 8.9 8.2 18.9 8.2 14.2 0 25.3-3.8 58.7-19.9 10.3-5 21.5-10 24.8-11.1 7.2-2.5 10.5-2 27.9 3.7 9.5 3.1 11.4 3.4 20 3.1 7.6-.2 10.5-.8 14.5-2.7 5.8-2.9 15.7-12.6 26.9-26.5 14.3-17.6 19-20.1 35.4-19.3 9.3.5 12.8 1.2 26.7 5.7 19.6 6.2 27.6 8 36.5 8 11.5 0 20.9-3.6 33.5-13.1C615.7 636 621 634 646.3 629c30.1-6 36.2-9.5 46.6-27.1 3.9-6.6 15.4-19.2 23.1-25.4 20.5-16.4 31-27 34.8-35.4 2.1-4.5 2.7-7.5 3-15.3.5-11.8-.7-15.8-11.9-40.4-4.3-9.5-9.1-21.6-10.8-27.1-3.5-12-8.1-34.9-11.6-57.8-1.4-9.4-3.9-24.4-5.5-33.5-2.9-16.2-6.3-41.7-7.5-55.5-.3-3.9-1-12-1.6-18-.5-6.1-1.9-21.1-3-33.5-1-12.4-2.8-29.7-3.9-38.5-4.6-38.9-17-101.8-25.1-128.4-1.1-3.6-1.6-6.8-1.2-7.2.5-.5 14.5-1.1 31.3-1.4l30.5-.5 6.1 7.2c7.1 8.5 13.2 12.1 23.8 13.9 23.9 4 45.9-7 53.8-26.9 3.4-8.8 3.2-23.2-.5-33.3C810.4 27.7 795 17 776.6 17c-8.8.1-14.3 1.3-22.2 5-5.9 2.9-14.2 10.1-19.4 16.9l-2.5 3.3-33 1.9c-18.2 1-35.7 2.1-39 2.4l-6 .7-4.3-6c-11.3-15.8-24.3-25.1-39.9-28.8-9.7-2.3-26.1-1.3-42.8 2.6-16.9 3.9-18.9 3.8-26.7-.6-19.6-11.1-43.5-15.6-66.5-12.3zm31 10.4c10.6 1.8 18.2 4.6 27 9.9 6.4 3.8 15.4 11.7 20.3 17.6 7 8.7 14.8 25.2 21.4 45 11.6 34.8 29 110.8 29 126.3 0 8.8-3.2 16.2-8.8 20.5-3.6 2.7-3.6 2.7-19.6 2.6-14.7-.2-29-1.5-30.3-2.8-.3-.3-2.7-11-5.3-23.8-6.1-29.6-8.5-39.1-15.9-61.3-11.1-33.7-29-71.9-39.3-84.1-9.4-11-20.4-17.4-22.2-12.8-1.5 3.9-.3 6 7.8 13.8 4.6 4.5 10 10.8 12.1 14.1 8.1 12.8 23.7 48.2 31.6 71.4 10.4 31 21.8 80.6 19.2 83.2-.6.6-4.4 1.7-8.4 2.4-4.1.7-9.2 2.1-11.4 3-3.8 1.7-21 18-26.5 25.2-1.4 1.8-3 3.3-3.6 3.3-.7 0-1.5-5.9-2.3-16.3-2-27.3-5.6-54.4-10-75.7-10.6-51-30-96.9-53.7-126.8-3.6-4.6-6.4-8.9-6.1-9.6.3-.7 2.3-1.5 4.4-1.8 5.1-.7 15.9-5 35.8-14.3 8.7-4.1 14.8-6.2 22.5-7.9 14-2.9 20.5-3.2 32.3-1.1zm96.3 7.4c25 3.6 42.7 21.8 56.3 57.8 4.4 11.7 12.1 36.5 12.1 39 0 5.8-17.9 26.3-33 37.8-3.6 2.7-6.9 5.3-7.5 5.7-4.3 3.3-11.8 10.1-15.7 14.2-2.7 2.7-5.1 4.7-5.4 4.3-.3-.3-2.5-9.9-4.9-21.4-13.2-63-25.6-100.1-41.4-123.3-2.8-4.1-4.7-7.7-4.3-8.1.4-.4 6.6-1.8 13.7-3.2 19.3-3.9 21.2-4.1 30.1-2.8zm184.6 6.3c2 .6 5.8 2.7 8.5 4.7 9.5 7.2 14.7 18.6 14.7 32.1 0 14-6.4 24-19 30-19.7 9.5-40.4 2.7-49.3-16-2.2-4.6-2.6-6.9-2.6-14 0-7.2.4-9.4 2.8-14.5 4.8-10.3 16.3-19.6 28.7-23.1 4.6-1.3 9.7-1 16.2.8zM366 29.6c21.9 2.7 39.4 16.4 56.5 44.3C447 114 465.1 179.4 470 245.5c.6 8.2 1.5 18.8 2.1 23.5l1 8.5-5.8 5.3c-7.2 6.7-17.3 12.4-27.8 15.8-6.2 2-10.8 2.7-20.6 3.1-11.2.5-13.3.3-19.5-1.7-12.3-4-11.6-2.7-10.8-20.3.6-14.2-.1-37.2-2.6-86.2-.6-11-1.7-33.3-2.5-49.5-2-40.5-4.9-55.9-13.3-72.7-3.9-7.7-12.1-17.6-17.2-20.8-7.5-4.7-21.6-2.8-20.8 2.8.3 2 1.1 2.3 7.3 2.8 7.7.6 10.5 1.5 10.5 3.4 0 1.6-7.4 2.5-20.2 2.5-11.4 0-11.5-.1-6.8-8.9 4-7.4 12.8-17.2 18.6-20.6 4.7-2.8 12-4.5 16.4-3.9 1.4.1 5 .6 8 1zM63.8 50.1c9.2 2.1 18.3 7.5 25.6 15.3 12 12.8 11.8 30.7-.7 45.2-14.7 17-41.1 20.7-59.3 8.3-5.4-3.7-12-11.2-15-17.1-2-4-2.4-6.2-2.4-13.9 0-8.1.3-9.8 3-15.4 4.8-10.1 15.6-18.9 27-22.1 5.7-1.6 15.7-1.7 21.8-.3zm665.6 5c.3 1.7.6 6.6.6 10.9 0 5.9-.4 7.9-1.5 8.4-2.1.8-56.5 2.8-59.1 2.2-1.7-.5-3-2.7-5.8-9.7-2.1-5.1-3.3-9.6-2.9-10 .4-.4 12.1-1.5 25.8-2.4 13.8-.8 27-1.6 29.5-1.8 12.9-1 12.7-1 13.4 2.4zM361.5 75.2c1.3 2.9 2.7 6.5 3 8 .6 2.5.5 2.7-3.7 3.2-2.3.3-22.1 1.5-43.8 2.6-83.5 4.4-187.4 11.3-207.4 13.7l-4.8.6.8-5.4c.5-3 .8-9.5.7-14.5l-.3-9.1 79.8-.7c43.8-.4 95.2-1.3 114.2-2s40-1.4 46.8-1.4l12.3-.2 2.4 5.2zm7.4 21c1.9 5.3 5.6 44.1 4.4 46-.2.5-9.1.8-19.6.9-10.6 0-22.3.3-26 .8-3.8.4-7 .5-7.2.2-.9-1.6-1.5-45.7-.6-47.1 1-1.4 13.7-2.3 39.4-2.8 8.2-.2 8.8-.1 9.6 2zm306 39.9c2.6 8.7 4 19.5 3 23.8-2.2 9.8-6.1 15.2-25.4 35.1-20.9 21.6-22.6 24-27.9 39-4 11.4-3.7 10.8-4.7 8.3-2.1-5.6-5.9-29-5.9-36.7 0-9.3 2.3-18.4 5.9-23.5 1.3-1.7 8.9-8.6 16.9-15.3 15.3-12.7 30.6-27.3 33.5-32.1 2.3-3.7 3.2-3.4 4.6 1.4zm-300.5 19.6c.3 2.7.8 8.7 1.1 13.5.7 8.4.6 8.8-1.4 8.8-1.1 0-4-.8-6.3-1.7-3.3-1.4-7.2-1.7-16.8-1.7-10.6 0-13.8.5-21.3 2.7-4.8 1.5-8.9 2.7-9.2 2.7-.9 0-.5-17.8.4-20.3 1.7-4.4 20.7-8.5 40.3-8.6l12.6-.1.6 4.7zm310.5 27.7c3.6 20.9 9 69.6 12.6 115.1 2 24.5 5.8 55.6 8.9 72.6 1.4 7.4 4.3 24.4 6.6 37.9 3.7 22.6 7.5 43.2 8.6 47.1.3 1-2.2 4.6-6.6 9.4-7.6 8.3-14.8 19.4-22.5 34.5-15 29.5-22.2 37.1-40.8 43.4-3.3 1.1-8.4 1.6-17 1.6-15.8 0-18.6.6-25.7 4.9-9.7 5.9-16.5 12.7-27 26.5-5.5 7.2-11.5 14.1-13.4 15.3-5.2 3.4-11.4 3.7-26.6 1.4-22.8-3.5-24.8-3.2-48 8.1-9.1 4.4-18.3 8.7-20.5 9.5-2.2.8-10.7 1.8-19 2.3-18.6 1.2-25.3 2.8-32.5 8-18.9 13.6-26.1 16-51.5 16.7-20.2.6-27-.4-37.9-5.7-7.6-3.6-10.6-6.1-10.6-8.9 0-1.2 2.3-9.9 5.1-19.4 16.4-55.3 32.3-122.6 43.9-186 2.8-15.2 5.3-28.3 5.6-29.1.8-2 2.2-2.3 12.9-3.1 17.6-1.1 34.4-4.6 45-9.2 8.8-3.8 20.8-12.1 30.8-21.3 4.8-4.4 9.2-7.8 9.6-7.5.5.2 1.2 6.9 1.5 14.7.4 7.9 1.1 22.2 1.6 31.8.6 9.6 1.7 30.1 2.5 45.5 3.7 66.9 5.2 81.7 8.8 83.9 2.3 1.5 3.9-.9 3.2-4.7-1.7-9.4-9-175-7.9-181.2.6-3.6 2.9-6.3 21.8-25.1 11.6-11.5 23.1-22.7 25.5-24.7 4.1-3.5 8.6-5.5 9.7-4.5.6.7 5.6 40.4 10.4 83.3 2.2 19.8 4.5 38.7 5 42 .6 3.3 1.7 13 2.5 21.5 2.8 30.9 3.6 37.8 5.5 53.5 4.8 37.9 9 61.8 11.1 64 .6.5 1.3.5 2-.2s.3-6-1.5-18.4c-3.2-21.8-5.5-44.6-9.1-90.9-1.8-21.6-2.8-31.3-10-96.5-1.9-17.1-4.2-37.2-5.1-44.7-1-7.6-1.5-14.1-1.1-14.4.3-.4 4.6-.2 9.5.5 11.1 1.4 24.7 1.4 32.7 0 3.5-.6 9.7-2.7 13.8-4.8l7.6-3.7 1 4.6c.5 2.5 2.6 14.4 4.6 26.5 9.2 56.3 12.5 76.6 13.5 83.5.6 4.1 1.8 11.8 2.6 17 .8 5.2 2.3 15.8 3.4 23.5 2.1 13.8 2.6 17 7.4 47.5 1.3 8.5 2.7 18 3.1 21 1 8.2 5.5 33 6.6 36.8 1.3 3.9 2.6 4.1 3.5.6 1.3-5.2-1.1-34.7-4.6-55.9-2.5-15-4.2-26.8-7.5-51.5-2-14.6-5.1-35.5-7-46.5-1.8-11-4.3-26.3-5.5-34-3.3-22.1-9.9-61.3-11.5-68.9-1.9-8.7-1.9-13.3 0-17 .8-1.5 3.1-8.1 5.1-14.5 6.1-19.6 7.9-22.3 30.3-46 6.9-7.3 14.8-16.3 17.5-19.8 5.5-7.3 5.9-7.2 7.5 2.1zm-321.4 2c7.2 1.9 11.4 4.3 12.5 7.2.6 1.4 1 5.4 1 8.8v6.3l-14.7.1c-16.7 0-33.2 2.2-40 5.2-2.5 1.1-5 1.7-5.5 1.4-1-.6-.3-15 .9-18 .8-2.1 9.9-6.9 18.3-9.8 8.6-2.9 19.4-3.4 27.5-1.2zm11.9 30.6c2.1.8 2.6 1.6 2.6 4.5 0 4.3-2.3 5.5-10.3 5.5-2.9 0-10.8.9-17.7 2-31.4 5.1-36.6 5.8-37.3 5-1.6-1.5 1.3-5 6.1-7.4 6.4-3.2 18.4-7.5 25.7-9.1 7.1-1.5 27.3-1.9 30.9-.5zm2.3 47.7c-.8 39.6-4.1 74.6-11.7 123.3-2.7 16.9-8.6 50.2-11.3 63.5l-1.2 6-5.8.3c-10.7.6-40.3-6.7-53.4-13.1-12.4-6-30.3-17.2-35.7-22.2-2.3-2.1-2.5-2.7-1.5-5.2.6-1.5 4.4-12.3 8.6-23.8 11.6-32.6 12.4-34.9 13.2-37 4.2-10.5 21.4-68.8 25.6-86.5 4.4-18.5 5.5-22 7.3-22.9 3-1.5 27.3-6.9 40.7-9 7.2-1.1 14.1-2.2 15.5-2.4 1.4-.2 4.2-.5 6.4-.6l3.9-.1-.6 29.7zm233-15.6c2.7 14.3 2.8 13.3-.2 16.3-12.1 12.1-24.1 14-54.1 8.5-6.1-1.1-6.2-1.1-7.3-5.2-1-3.9-3.1-19.2-3.1-22.5 0-1.2 2.9-1.3 20.3-.7 24.2.9 29.6.1 35.8-5.1 2.3-1.9 4.7-3.3 5.3-3.1.6.2 2.1 5.5 3.3 11.8zm-74.8-1.9c.4 1.3 1.4 6.1 2 10.8.7 4.7 1.4 9.7 1.6 11.2.5 3.4-.3 5.8-2 5.8-3.6 0-15.6 10-33.3 27.8l-19.7 19.7-.6-5c-.4-2.8-.9-11.2-1.2-18.8l-.5-13.8 5.7-6.7c9.9-11.8 22.5-24.3 27.1-27 5.5-3.3 13.5-6.1 17.3-6.2 2 0 3 .6 3.6 2.2zm-62.6 51c.4 1.8.7 10.7.8 19.6l.3 16.4-10.5 10.3c-21.7 21.3-34.3 27.8-61.2 31.4-22.8 3.1-22.8 3.1-23.4 1.4-.3-.9.8-12.9 2.6-26.7 4.5-35.5 5.1-39.9 5.7-40.5.2-.3 4.2.3 8.7 1.2 24 5 52.4-.3 69.6-12.9 2.5-1.8 5.1-3.4 5.7-3.4.7 0 1.4 1.5 1.7 3.2zM257.2 434.4c20.9 14.2 46 24.3 70.7 28.6 6.2 1.1 13.8 2 16.8 2 3.6 0 5.5.4 5.9 1.4.6 1.7-2.1 12.5-3.5 13.9-2.3 2.3-21.5 0-36.6-4.4-18.4-5.4-41.3-15.6-53.9-24.1-7.6-5.2-8.6-6.2-8.6-8.6 0-2.3 1.9-8.2 3.3-10 1.3-1.7 1.9-1.6 5.9 1.2zm-6.3 27.1c26.3 15.4 60.6 27 83.5 28.2l10.8.6-.6 5.1c-.3 2.8-2.1 10.9-3.9 18.1-3.1 12.4-3.3 13-5.9 13.3-1.5.2-3.5-.1-4.5-.6-1-.6-7.4-1.7-14.3-2.7-26-3.5-37.9-5.8-56.4-11.2-21.8-6.2-33.7-10.1-34.9-11.2-1-1 1.3-7.5 9.2-25.6 3.4-7.7 6.6-15 7.1-16.3.5-1.2 1.3-2.2 1.6-2.2.4 0 4.1 2 8.3 4.5zm479.7 18.6c8.3 16.6 8 15 2.9 21.3-4 5-17.4 22.8-21.3 28.5-8.9 12.7-23.1 27.5-29.7 30.8-5.1 2.6-12.4 4-25 4.7-17.9 1.1-26.2 4.5-37 15.1-3.9 3.8-9.6 9.9-12.5 13.5-8.6 10.3-16.4 17.7-21.6 20.3-10 5-22.2 5.9-41.6 3-13.8-2-39.8-2.2-48.3-.4-7 1.6-9.1 2.5-25.6 11.3l-12.6 6.8h-12.1c-14.4 0-20.6 1.9-32.2 9.7-13.1 8.8-22.5 12.6-44 17.8-15.5 3.7-28.9 5.6-44.1 6.2-14.1.6-20.9-.5-20.9-3.2 0-.8 2-5.7 4.5-10.9 2.5-5.3 4.5-10 4.5-10.5 0-2.2 3.4-8.1 4.7-8.1.8 0 4 1.4 7.3 3 10.8 5.4 15.3 6.1 39 6.1 31.4 0 40.7-2.3 56.5-14 12.4-9.2 15.4-10.2 31.2-10.8 7.6-.3 16.5-1.2 19.8-2 3.3-.8 13-4.8 21.5-8.8 21.1-10 21.1-10 35.4-8.9 6.7.5 18 .9 25.1.9 12.3 0 13.2-.1 17.5-2.7 5.8-3.4 8.7-6.5 14.6-15.8 5.6-8.9 19.1-23.1 25.2-26.7 3.8-2.3 6.2-2.7 17.5-3.5 32.8-2.1 37.2-3.4 48.2-14.3 8.1-7.9 11.8-13.7 24.3-37.5 9.1-17.3 19.3-32 22.1-32 .6 0 3.6 5 6.7 11.1zm13.8 31.7c2.2 8.1 2.1 17.6-.4 23.1-3 6.5-11.6 15.8-25.9 27.9-17.2 14.6-25.9 23.5-30.4 31.4-5.3 9.2-9.9 14.2-16 17.6-7.3 4.2-12.5 5.7-28.9 8.7-23.5 4.1-30.9 6.7-42.6 14.8-14 9.7-15.7 10.8-20 12.8-8.1 3.6-20.6 2-40.1-5.1-22.2-8.2-38.1-10-50.4-5.9-12.5 4.2-19 9.4-30.3 24.7-4.8 6.4-10.4 13.4-12.6 15.4-3.8 3.6-12.9 7.8-17 7.8-1.2 0-9.2-1.8-17.7-4.1-14.2-3.7-16.4-4.1-24.6-3.6-10.5.5-13.9 1.7-40 14-32.8 15.5-48.5 19.5-57 14.5-5.6-3.3-5.8-6.9-1-16.3 2-4 4.9-8.7 6.5-10.7l2.8-3.4 6.9.7c33.2 3.7 89.1-7.6 111.7-22.6 10.6-7 16.8-9.2 27.9-9.9 15.3-1 19.4-2.1 30.3-8.2 19.7-11.1 29.7-12.7 61.4-9.9 11.9 1 25.4 1.6 31.7 1.3 10.1-.4 11.6-.7 18.8-4.1 12.1-5.8 14.3-7.7 29.1-25.3 16.2-19.3 22.5-22.8 43.6-24.3 15-1.1 22.2-3.1 30.8-8.8 9-5.9 19.6-17.8 34.5-38.7 8.2-11.5 14.7-19.6 15.6-19.6 1.1 0 2.1 1.8 3.3 5.8z" fill-rule="nonzero" stroke="#57C003" stroke-width="2" fill="none"/>
</svg>
