<?xml version="1.0" encoding="UTF-8"?>
<svg width="821px" height="719px" viewBox="0 0 821 719" version="1.1" xmlns="http://www.w3.org/2000/svg" xmlns:xlink="http://www.w3.org/1999/xlink">
    <!-- Generator: Sketch 51.2 (57519) - http://www.bohemiancoding.com/sketch -->
    <title>towel</title>
    <desc>Created with Sketch.</desc>
    <defs></defs>
    <g id="Page-1" stroke="none" stroke-width="1" fill="none" fill-rule="evenodd">
        <g id="towel" transform="translate(1.000000, 1.000000)" fill-rule="nonzero" stroke="#57C003" stroke-width="2">
            <g id="Group" transform="translate(409.450000, 358.500000) scale(-1, 1) rotate(-180.000000) translate(-409.450000, -358.500000) translate(0.200000, 0.000000)">
                <path d="M473.1,715.9 C465.3,714.7 453.2,710.5 438,703.6 C415.6,693.3 399.5,688.8 392.7,690.8 C390.8,691.4 386.5,693 383.1,694.5 C374.6,698 363.3,699.3 350.8,698.1 C337.1,696.8 329.9,693.5 320.7,684 C313.5,676.8 310.2,671.3 307.3,661.8 C305.1,655 307.5,655.5 271.8,653.9 C243,652.6 107.8,652.1 103.5,653.3 C102,653.7 97.3,657.2 93,661.2 C80.5,672.7 69.3,677 52.4,677 C35.3,676.9 22.8,672.1 12.2,661.3 C2,651 -1.4,640.6 0.6,625.7 C2,614.9 5.5,608 13.6,600.1 C20.3,593.5 25.8,590.2 35.3,587.1 C42.5,584.8 64.6,584.9 71.1,587.3 C80.2,590.6 87.3,594.9 94.3,601.3 C97.5,604.3 100.9,605.7 106.8,606.4 C124.1,608.6 146,611 157.8,611.9 C193.6,614.7 286.7,620 295.4,619.8 L305.2,619.5 L306.5,615 C309,606.5 310.3,574.7 309,554.2 C304.7,486.2 290,426.6 251.7,322.2 C234.3,274.5 228.7,260 221.7,244.3 C206.8,211 207.1,212.4 213.6,209.1 C220.4,205.7 259.6,193.8 274.8,190.6 C278.9,189.7 289.1,188.3 297.3,187.5 C313.7,185.9 323.7,184.1 328.3,181.9 C333.1,179.6 332.7,174.8 325.8,151 C324.7,147.4 321.9,137.3 319.4,128.5 C308.2,88.8 301.9,72.9 285.9,45 C274,24.3 272.2,16.4 277.5,8.2 C281.4,2.2 286.4,0 296.4,0 C310.6,0 321.7,3.8 355.1,19.9 C365.4,24.9 376.6,29.9 379.9,31 C387.1,33.5 390.4,33 407.8,27.3 C417.3,24.2 419.2,23.9 427.8,24.2 C435.4,24.4 438.3,25 442.3,26.9 C448.1,29.8 458,39.5 469.2,53.4 C483.5,71 488.2,73.5 504.6,72.7 C513.9,72.2 517.4,71.5 531.3,67 C550.9,60.8 558.9,59 567.8,59 C579.3,59 588.7,62.6 601.3,72.1 C614.5,82 619.8,84 645.1,89 C675.2,95 681.3,98.5 691.7,116.1 C695.6,122.7 707.1,135.3 714.8,141.5 C735.3,157.9 745.8,168.5 749.6,176.9 C751.7,181.4 752.3,184.4 752.6,192.2 C753.1,204 751.9,208 740.7,232.6 C736.4,242.1 731.6,254.2 729.9,259.7 C726.4,271.7 721.8,294.6 718.3,317.5 C716.9,326.9 714.4,341.9 712.8,351 C709.9,367.2 706.5,392.7 705.3,406.5 C705,410.4 704.3,418.5 703.7,424.5 C703.2,430.6 701.8,445.6 700.7,458 C699.7,470.4 697.9,487.7 696.8,496.5 C692.2,535.4 679.8,598.3 671.7,624.9 C670.6,628.5 670.1,631.7 670.5,632.1 C671,632.6 685,633.2 701.8,633.5 L732.3,634 L738.4,626.8 C745.5,618.3 751.6,614.7 762.2,612.9 C786.1,608.9 808.1,619.9 816,639.8 C819.4,648.6 819.2,663 815.5,673.1 C809.2,690.3 793.8,701 775.4,701 C766.6,700.9 761.1,699.7 753.2,696 C747.3,693.1 739,685.9 733.8,679.1 L731.3,675.8 L698.3,673.9 C680.1,672.9 662.6,671.8 659.3,671.5 L653.3,670.8 L649,676.8 C637.7,692.6 624.7,701.9 609.1,705.6 C599.4,707.9 583,706.9 566.3,703 C549.4,699.1 547.4,699.2 539.6,703.6 C520,714.7 496.1,719.2 473.1,715.9 Z M504.1,705.5 C514.7,703.7 522.3,700.9 531.1,695.6 C537.5,691.8 546.5,683.9 551.4,678 C558.4,669.3 566.2,652.8 572.8,633 C584.4,598.2 601.8,522.2 601.8,506.7 C601.8,497.9 598.6,490.5 593,486.2 C589.4,483.5 589.4,483.5 573.4,483.6 C558.7,483.8 544.4,485.1 543.1,486.4 C542.8,486.7 540.4,497.4 537.8,510.2 C531.7,539.8 529.3,549.3 521.9,571.5 C510.8,605.2 492.9,643.4 482.6,655.6 C473.2,666.6 462.2,673 460.4,668.4 C458.9,664.5 460.1,662.4 468.2,654.6 C472.8,650.1 478.2,643.8 480.3,640.5 C488.4,627.7 504,592.3 511.9,569.1 C522.3,538.1 533.7,488.5 531.1,485.9 C530.5,485.3 526.7,484.2 522.7,483.5 C518.6,482.8 513.5,481.4 511.3,480.5 C507.5,478.8 490.3,462.5 484.8,455.3 C483.4,453.5 481.8,452 481.2,452 C480.5,452 479.7,457.9 478.9,468.3 C476.9,495.6 473.3,522.7 468.9,544 C458.3,595 438.9,640.9 415.2,670.8 C411.6,675.4 408.8,679.7 409.1,680.4 C409.4,681.1 411.4,681.9 413.5,682.2 C418.6,682.9 429.4,687.2 449.3,696.5 C458,700.6 464.1,702.7 471.8,704.4 C485.8,707.3 492.3,707.6 504.1,705.5 Z M600.4,698.1 C625.4,694.5 643.1,676.3 656.7,640.3 C661.1,628.6 668.8,603.8 668.8,601.3 C668.8,595.5 650.9,575 635.8,563.5 C632.2,560.8 628.9,558.2 628.3,557.8 C624,554.5 616.5,547.7 612.6,543.6 C609.9,540.9 607.5,538.9 607.2,539.3 C606.9,539.6 604.7,549.2 602.3,560.7 C589.1,623.7 576.7,660.8 560.9,684 C558.1,688.1 556.2,691.7 556.6,692.1 C557,692.5 563.2,693.9 570.3,695.3 C589.6,699.2 591.5,699.4 600.4,698.1 Z M785,691.8 C787,691.2 790.8,689.1 793.5,687.1 C803,679.9 808.2,668.5 808.2,655 C808.2,641 801.8,631 789.2,625 C769.5,615.5 748.8,622.3 739.9,641 C737.7,645.6 737.3,647.9 737.3,655 C737.3,662.2 737.7,664.4 740.1,669.5 C744.9,679.8 756.4,689.1 768.8,692.6 C773.4,693.9 778.5,693.6 785,691.8 Z M364.8,688.4 C386.7,685.7 404.2,672 421.3,644.1 C445.8,604 463.9,538.6 468.8,472.5 C469.4,464.3 470.3,453.7 470.9,449 L471.9,440.5 L466.1,435.2 C458.9,428.5 448.8,422.8 438.3,419.4 C432.1,417.4 427.5,416.7 417.7,416.3 C406.5,415.8 404.4,416 398.2,418 C385.9,422 386.6,420.7 387.4,438.3 C388,452.5 387.3,475.5 384.8,524.5 C384.2,535.5 383.1,557.8 382.3,574 C380.3,614.5 377.4,629.9 369,646.7 C365.1,654.4 356.9,664.3 351.8,667.5 C344.3,672.2 330.2,670.3 331,664.7 C331.3,662.7 332.1,662.4 338.3,661.9 C346,661.3 348.8,660.4 348.8,658.5 C348.8,656.9 341.4,656 328.6,656 C317.2,656 317.1,656.1 321.8,664.9 C325.8,672.3 334.6,682.1 340.4,685.5 C345.1,688.3 352.4,690 356.8,689.4 C358.2,689.3 361.8,688.8 364.8,688.4 Z M62.6,667.9 C71.8,665.8 80.9,660.4 88.2,652.6 C100.2,639.8 100,621.9 87.5,607.4 C72.8,590.4 46.4,586.7 28.2,599.1 C22.8,602.8 16.2,610.3 13.2,616.2 C11.2,620.2 10.8,622.4 10.8,630.1 C10.8,638.2 11.1,639.9 13.8,645.5 C18.6,655.6 29.4,664.4 40.8,667.6 C46.5,669.2 56.5,669.3 62.6,667.9 Z M728.2,662.9 C728.5,661.2 728.8,656.3 728.8,652 C728.8,646.1 728.4,644.1 727.3,643.6 C725.2,642.8 670.8,640.8 668.2,641.4 C666.5,641.9 665.2,644.1 662.4,651.1 C660.3,656.2 659.1,660.7 659.5,661.1 C659.9,661.5 671.6,662.6 685.3,663.5 C699.1,664.3 712.3,665.1 714.8,665.3 C727.7,666.3 727.5,666.3 728.2,662.9 Z M360.3,642.8 C361.6,639.9 363,636.3 363.3,634.8 C363.9,632.3 363.8,632.1 359.6,631.6 C357.3,631.3 337.5,630.1 315.8,629 C232.3,624.6 128.4,617.7 108.4,615.3 L103.6,614.7 L104.4,620.1 C104.9,623.1 105.2,629.6 105.1,634.6 L104.8,643.7 L184.6,644.4 C228.4,644.8 279.8,645.7 298.8,646.4 C317.8,647.1 338.8,647.8 345.6,647.8 L357.9,648 L360.3,642.8 Z M367.7,621.8 C369.6,616.5 373.3,577.7 372.1,575.8 C371.9,575.3 363,575 352.5,574.9 C341.9,574.9 330.2,574.6 326.5,574.1 C322.7,573.7 319.5,573.6 319.3,573.9 C318.4,575.5 317.8,619.6 318.7,621 C319.7,622.4 332.4,623.3 358.1,623.8 C366.3,624 366.9,623.9 367.7,621.8 Z M673.7,581.9 C676.3,573.2 677.7,562.4 676.7,558.1 C674.5,548.3 670.6,542.9 651.3,523 C630.4,501.4 628.7,499 623.4,484 C619.4,472.6 619.7,473.2 618.7,475.7 C616.6,481.3 612.8,504.7 612.8,512.4 C612.8,521.7 615.1,530.8 618.7,535.9 C620,537.6 627.6,544.5 635.6,551.2 C650.9,563.9 666.2,578.5 669.1,583.3 C671.4,587 672.3,586.7 673.7,581.9 Z M373.2,562.3 C373.5,559.6 374,553.6 374.3,548.8 C375,540.4 374.9,540 372.9,540 C371.8,540 368.9,540.8 366.6,541.7 C363.3,543.1 359.4,543.4 349.8,543.4 C339.2,543.4 336,542.9 328.5,540.7 C323.7,539.2 319.6,538 319.3,538 C318.4,538 318.8,555.8 319.7,558.3 C321.4,562.7 340.4,566.8 360,566.9 L372.6,567 L373.2,562.3 Z M683.7,534.6 C687.3,513.7 692.7,465 696.3,419.5 C698.3,395 702.1,363.9 705.2,346.9 C706.6,339.5 709.5,322.5 711.8,309 C715.5,286.4 719.3,265.8 720.4,261.9 C720.7,260.9 718.2,257.3 713.8,252.5 C706.2,244.2 699,233.1 691.3,218 C676.3,188.5 669.1,180.9 650.5,174.6 C647.2,173.5 642.1,173 633.5,173 C617.7,173 614.9,172.4 607.8,168.1 C598.1,162.2 591.3,155.4 580.8,141.6 C575.3,134.4 569.3,127.5 567.4,126.3 C562.2,122.9 556,122.6 540.8,124.9 C518,128.4 516,128.1 492.8,116.8 C483.7,112.4 474.5,108.1 472.3,107.3 C470.1,106.5 461.6,105.5 453.3,105 C434.7,103.8 428,102.2 420.8,97 C401.9,83.4 394.7,81 369.3,80.3 C349.1,79.7 342.3,80.7 331.4,86 C323.8,89.6 320.8,92.1 320.8,94.9 C320.8,96.1 323.1,104.8 325.9,114.3 C342.3,169.6 358.2,236.9 369.8,300.3 C372.6,315.5 375.1,328.6 375.4,329.4 C376.2,331.4 377.6,331.7 388.3,332.5 C405.9,333.6 422.7,337.1 433.3,341.7 C442.1,345.5 454.1,353.8 464.1,363 C468.9,367.4 473.3,370.8 473.7,370.5 C474.2,370.3 474.9,363.6 475.2,355.8 C475.6,347.9 476.3,333.6 476.8,324 C477.4,314.4 478.5,293.9 479.3,278.5 C483,211.6 484.5,196.8 488.1,194.6 C490.4,193.1 492,195.5 491.3,199.3 C489.6,208.7 482.3,374.3 483.4,380.5 C484,384.1 486.3,386.8 505.2,405.6 C516.8,417.1 528.3,428.3 530.7,430.3 C534.8,433.8 539.3,435.8 540.4,434.8 C541,434.1 546,394.4 550.8,351.5 C553,331.7 555.3,312.8 555.8,309.5 C556.4,306.2 557.5,296.5 558.3,288 C561.1,257.1 561.9,250.2 563.8,234.5 C568.6,196.6 572.8,172.7 574.9,170.5 C575.5,170 576.2,170 576.9,170.7 C577.6,171.4 577.2,176.7 575.4,189.1 C572.2,210.9 569.9,233.7 566.3,280 C564.5,301.6 563.5,311.3 556.3,376.5 C554.4,393.6 552.1,413.7 551.2,421.2 C550.2,428.8 549.7,435.3 550.1,435.6 C550.4,436 554.7,435.8 559.6,435.1 C570.7,433.7 584.3,433.7 592.3,435.1 C595.8,435.7 602,437.8 606.1,439.9 L613.7,443.6 L614.7,439 C615.2,436.5 617.3,424.6 619.3,412.5 C628.5,356.2 631.8,335.9 632.8,329 C633.4,324.9 634.6,317.2 635.4,312 C636.2,306.8 637.7,296.2 638.8,288.5 C640.9,274.7 641.4,271.5 646.2,241 C647.5,232.5 648.9,223 649.3,220 C650.3,211.8 654.8,187 655.9,183.2 C657.2,179.3 658.5,179.1 659.4,182.6 C660.7,187.8 658.3,217.3 654.8,238.5 C652.3,253.5 650.6,265.3 647.3,290 C645.3,304.6 642.2,325.5 640.3,336.5 C638.5,347.5 636,362.8 634.8,370.5 C631.5,392.6 624.9,431.8 623.3,439.4 C621.4,448.1 621.4,452.7 623.3,456.4 C624.1,457.9 626.4,464.5 628.4,470.9 C634.5,490.5 636.3,493.2 658.7,516.9 C665.6,524.2 673.5,533.2 676.2,536.7 C681.7,544 682.1,543.9 683.7,534.6 Z M362.3,532.6 C369.5,530.7 373.7,528.3 374.8,525.4 C375.4,524 375.8,520 375.8,516.6 L375.8,510.3 L361.1,510.2 C344.4,510.2 327.9,508 321.1,505 C318.6,503.9 316.1,503.3 315.6,503.6 C314.6,504.2 315.3,518.6 316.5,521.6 C317.3,523.7 326.4,528.5 334.8,531.4 C343.4,534.3 354.2,534.8 362.3,532.6 Z M374.2,502 C376.3,501.2 376.8,500.4 376.8,497.5 C376.8,493.2 374.5,492 366.5,492 C363.6,492 355.7,491.1 348.8,490 C317.4,484.9 312.2,484.2 311.5,485 C309.9,486.5 312.8,490 317.6,492.4 C324,495.6 336,499.9 343.3,501.5 C350.4,503 370.6,503.4 374.2,502 Z M376.5,454.3 C375.7,414.7 372.4,379.7 364.8,331 C362.1,314.1 356.2,280.8 353.5,267.5 L352.3,261.5 L346.5,261.2 C335.8,260.6 306.2,267.9 293.1,274.3 C280.7,280.3 262.8,291.5 257.4,296.5 C255.1,298.6 254.9,299.2 255.9,301.7 C256.5,303.2 260.3,314 264.5,325.5 C276.1,358.1 276.9,360.4 277.7,362.5 C281.9,373 299.1,431.3 303.3,449 C307.7,467.5 308.8,471 310.6,471.9 C313.6,473.4 337.9,478.8 351.3,480.9 C358.5,482 365.4,483.1 366.8,483.3 C368.2,483.5 371,483.8 373.2,483.9 L377.1,484 L376.5,454.3 Z M609.5,469.9 C612.2,455.6 612.3,456.6 609.3,453.6 C597.2,441.5 585.2,439.6 555.2,445.1 C549.1,446.2 549,446.2 547.9,450.3 C546.9,454.2 544.8,469.5 544.8,472.8 C544.8,474 547.7,474.1 565.1,473.5 C589.3,472.6 594.7,473.4 600.9,478.6 C603.2,480.5 605.6,481.9 606.2,481.7 C606.8,481.5 608.3,476.2 609.5,469.9 Z M534.7,471.8 C535.1,470.5 536.1,465.7 536.7,461 C537.4,456.3 538.1,451.3 538.3,449.8 C538.8,446.4 538,444 536.3,444 C532.7,444 520.7,434 503,416.2 L483.3,396.5 L482.7,401.5 C482.3,404.3 481.8,412.7 481.5,420.3 L481,434.1 L486.7,440.8 C496.6,452.6 509.2,465.1 513.8,467.8 C519.3,471.1 527.3,473.9 531.1,474 C533.1,474 534.1,473.4 534.7,471.8 Z M472.1,420.8 C472.5,419 472.8,410.1 472.9,401.2 L473.2,384.8 L462.7,374.5 C441,353.2 428.4,346.7 401.5,343.1 C378.7,340 378.7,340 378.1,341.7 C377.8,342.6 378.9,354.6 380.7,368.4 C385.2,403.9 385.8,408.3 386.4,408.9 C386.6,409.2 390.6,408.6 395.1,407.7 C419.1,402.7 447.5,408 464.7,420.6 C467.2,422.4 469.8,424 470.4,424 C471.1,424 471.8,422.5 472.1,420.8 Z M256,283.6 C276.9,269.4 302,259.3 326.7,255 C332.9,253.9 340.5,253 343.5,253 C347.1,253 349,252.6 349.4,251.6 C350,249.9 347.3,239.1 345.9,237.7 C343.6,235.4 324.4,237.7 309.3,242.1 C290.9,247.5 268,257.7 255.4,266.2 C247.8,271.4 246.8,272.4 246.8,274.8 C246.8,277.1 248.7,283 250.1,284.8 C251.4,286.5 252,286.4 256,283.6 Z M249.7,256.5 C276,241.1 310.3,229.5 333.2,228.3 L344,227.7 L343.4,222.6 C343.1,219.8 341.3,211.7 339.5,204.5 C336.4,192.1 336.2,191.5 333.6,191.2 C332.1,191 330.1,191.3 329.1,191.8 C328.1,192.4 321.7,193.5 314.8,194.5 C288.8,198 276.9,200.3 258.4,205.7 C236.6,211.9 224.7,215.8 223.5,216.9 C222.5,217.9 224.8,224.4 232.7,242.5 C236.1,250.2 239.3,257.5 239.8,258.8 C240.3,260 241.1,261 241.4,261 C241.8,261 245.5,259 249.7,256.5 Z M729.4,237.9 C737.7,221.3 737.4,222.9 732.3,216.6 C728.3,211.6 714.9,193.8 711,188.1 C702.1,175.4 687.9,160.6 681.3,157.3 C676.2,154.7 668.9,153.3 656.3,152.6 C638.4,151.5 630.1,148.1 619.3,137.5 C615.4,133.7 609.7,127.6 606.8,124 C598.2,113.7 590.4,106.3 585.2,103.7 C575.2,98.7 563,97.8 543.6,100.7 C529.8,102.7 503.8,102.9 495.3,101.1 C488.3,99.5 486.2,98.6 469.7,89.8 L457.1,83 L445,83 C430.6,83 424.4,81.1 412.8,73.3 C399.7,64.5 390.3,60.7 368.8,55.5 C353.3,51.8 339.9,49.9 324.7,49.3 C310.6,48.7 303.8,49.8 303.8,52.5 C303.8,53.3 305.8,58.2 308.3,63.4 C310.8,68.7 312.8,73.4 312.8,73.9 C312.8,76.1 316.2,82 317.5,82 C318.3,82 321.5,80.6 324.8,79 C335.6,73.6 340.1,72.9 363.8,72.9 C395.2,72.9 404.5,75.2 420.3,86.9 C432.7,96.1 435.7,97.1 451.5,97.7 C459.1,98 468,98.9 471.3,99.7 C474.6,100.5 484.3,104.5 492.8,108.5 C513.9,118.5 513.9,118.5 528.2,117.4 C534.9,116.9 546.2,116.5 553.3,116.5 C565.6,116.5 566.5,116.6 570.8,119.2 C576.6,122.6 579.5,125.7 585.4,135 C591,143.9 604.5,158.1 610.6,161.7 C614.4,164 616.8,164.4 628.1,165.2 C660.9,167.3 665.3,168.6 676.3,179.5 C684.4,187.4 688.1,193.2 700.6,217 C709.7,234.3 719.9,249 722.7,249 C723.3,249 726.3,244 729.4,237.9 Z M743.2,206.2 C745.4,198.1 745.3,188.6 742.8,183.1 C739.8,176.6 731.2,167.3 716.9,155.2 C699.7,140.6 691,131.7 686.5,123.8 C681.2,114.6 676.6,109.6 670.5,106.2 C663.2,102 658,100.5 641.6,97.5 C618.1,93.4 610.7,90.8 599,82.7 C585,73 583.3,71.9 579,69.9 C570.9,66.3 558.4,67.9 538.9,75 C516.7,83.2 500.8,85 488.5,80.9 C476,76.7 469.5,71.5 458.2,56.2 C453.4,49.8 447.8,42.8 445.6,40.8 C441.8,37.2 432.7,33 428.6,33 C427.4,33 419.4,34.8 410.9,37.1 C396.7,40.8 394.5,41.2 386.3,40.7 C375.8,40.2 372.4,39 346.3,26.7 C313.5,11.2 297.8,7.2 289.3,12.2 C283.7,15.5 283.5,19.1 288.3,28.5 C290.3,32.5 293.2,37.2 294.8,39.2 L297.6,42.6 L304.5,41.9 C337.7,38.2 393.6,49.5 416.2,64.5 C426.8,71.5 433,73.7 444.1,74.4 C459.4,75.4 463.5,76.5 474.4,82.6 C494.1,93.7 504.1,95.3 535.8,92.5 C547.7,91.5 561.2,90.9 567.5,91.2 C577.6,91.6 579.1,91.9 586.3,95.3 C598.4,101.1 600.6,103 615.4,120.6 C631.6,139.9 637.9,143.4 659,144.9 C674,146 681.2,148 689.8,153.7 C698.8,159.6 709.4,171.5 724.3,192.4 C732.5,203.9 739,212 739.9,212 C741,212 742,210.2 743.2,206.2 Z" id="Shape"></path>
            </g>
        </g>
    </g>
</svg>