<?xml version="1.0" encoding="UTF-8"?>
<svg width="363px" height="1099px" viewBox="0 0 363 1099" version="1.1" xmlns="http://www.w3.org/2000/svg" xmlns:xlink="http://www.w3.org/1999/xlink">
    <!-- Generator: Sketch 51.2 (57519) - http://www.bohemiancoding.com/sketch -->
    <title>trillain</title>
    <desc>Created with Sketch.</desc>
    <defs></defs>
    <g id="Page-1" stroke="none" stroke-width="1" fill="none" fill-rule="evenodd">
        <g id="trillain" transform="translate(1.000000, 1.000000)" fill-rule="nonzero" stroke="#57C003" stroke-width="2">
            <g id="Group" transform="translate(181.000000, 548.500000) scale(-1, 1) rotate(-180.000000) translate(-181.000000, -548.500000) translate(0.500000, 0.000000)">
                <path d="M259.2,1095.8 C261.4,1092.3 275,1084 278.4,1084 C279,1084 279.5,1083.6 279.5,1083.1 C279.5,1082.6 281.3,1082 283.5,1081.6 C285.8,1081.3 288.4,1080.6 289.3,1080.1 C290.2,1079.6 293.3,1078.4 296,1077.4 C298.8,1076.5 301.2,1075.4 301.5,1075 C301.8,1074.7 303.5,1073.3 305.4,1072.1 C309.5,1069.2 315.5,1060 316.2,1055.5 C316.7,1052.2 316.8,1052.2 318.8,1054 C319.9,1055.1 322.6,1056.8 324.9,1057.8 C329.1,1059.7 336.5,1061.3 336.5,1060.3 C336.5,1060 335.6,1058.3 334.5,1056.5 C333.4,1054.7 332.2,1051.2 331.9,1048.7 C331.3,1044.4 331.4,1044.2 333.6,1044.7 C335.3,1045 337.2,1044.1 340.1,1041.6 C344.5,1037.9 346.5,1033 346.5,1026.2 C346.5,1020.6 351,1006.9 353.5,1004.7 C356.3,1002.4 355.2,1000.9 351.5,1002 C347.3,1003.2 346.3,1004 346.9,1005.6 C347.7,1007.7 345.8,1012 344,1012 C342.1,1012 342,1008.2 343.8,1005.5 C345,1003.8 345,1002.3 343.8,996 C343.1,991.9 342.4,982 342.2,974 C342,962.2 342.3,958.6 343.8,954.5 C346.5,947 353.6,940 358.7,940 C360.9,940 360.8,939.8 357.6,936.8 C355.6,935 352.7,933.4 350.3,933 C346.5,932.3 346.2,932.4 345.2,935 C343.3,940.1 336.5,941.3 336.5,936.5 C336.5,933.9 338,932.4 341.6,931.5 C343.7,931 344.3,930 345.4,925 C346.1,921.8 346.5,917 346.2,914.3 C346,911.7 345.2,904.2 344.5,897.7 C343.5,888.1 343.5,884.7 344.5,880.2 C346.3,872.1 349.4,866 352.7,864.1 C356.3,862 356.2,861.2 352,859.4 C346.2,857 338.5,857.9 336.3,861.4 C335.3,862.9 334.3,861.6 335,859.7 C335.4,858.9 336.7,857.9 338.1,857.6 C340.6,856.9 344.5,850.6 344.5,847.1 C344.5,846 343.7,844.6 342.7,844.1 C341.4,843.4 340.2,840.2 338.6,833.8 C336.2,823.6 329.6,804 328.6,804 C328.3,804 327.9,806.4 327.8,809.3 C327.2,820.2 326.2,828.6 324.9,832.4 C323.1,837.5 323.1,837.5 326.1,835.1 C329.5,832.4 331.4,832.4 329,835 C327.9,836.2 323.7,838.7 319.6,840.8 C312.3,844.4 311.8,844.5 301,844.5 C287.7,844.5 283.9,842.9 273.9,833.5 C270.4,830.2 267.5,827.8 267.5,828.2 C267.5,831.1 272.3,845.9 275.5,852.5 C277.5,856.9 279.6,861.6 280,863 C280.4,864.4 282.1,867 283.7,868.8 C286.9,872.6 286.9,874.3 283.7,874.8 C281.9,875.1 281.4,874.4 280.4,870.6 C279.4,866.5 278.7,865.7 271.1,860.9 C266.7,858 261.1,854.1 258.8,852.2 C256.4,850.3 254.5,849.1 254.5,849.4 C254.5,850.6 257.7,856.4 260.1,859.6 C261.4,861.3 262.5,863.1 262.5,863.7 C262.5,864.3 264.1,866.7 266,869.1 C267.9,871.5 269.5,874 269.5,874.6 C269.5,875.2 270.8,878.3 272.4,881.6 C274,884.8 276.7,891 278.4,895.3 C280.6,900.7 283.6,905.7 288.5,911.8 C292.4,916.5 295.8,921.4 296.1,922.6 C296.4,923.8 298.6,925.6 301.5,927.1 C305.7,929.2 306.8,930.3 309,935.3 C312.1,942 313.3,953.1 311.7,959.9 C311,962.6 311,965.2 311.6,966.6 C312,967.9 312.2,969 312,969 C311.4,969 307.5,965.2 307.5,964.7 C307.5,964.5 304.1,960.8 299.9,956.4 C295.7,952.1 290.8,946.7 289,944.5 C285.7,940.4 275.4,921.4 274.1,917 C273.4,914.6 273.4,914.6 272.6,916.5 C272.1,917.6 271.5,921.4 271.1,925 C270.5,930.5 270.9,933.3 273.5,943 C277.9,958.9 278.8,964.6 278,971.3 C277.4,977.4 274.5,985.1 272,987.6 C271.2,988.5 270.5,989.5 270.5,990 C270.5,991.4 260.6,1001 259.1,1001 C258.3,1001 257.4,1002.3 257,1003.8 C256.4,1006.8 251.6,1015.2 251.5,1013.4 C251.5,1012.9 252.3,1010.6 253.4,1008.4 C255.6,1003.7 257.5,995.4 257.5,990.1 L257.5,986.3 L250.3,986.7 C244.5,987.1 242.6,987.6 240.9,989.3 C239.8,990.5 237.7,992.2 236.4,993 C226.3,999 223.8,1002.2 224.3,1008.3 C224.5,1010.5 224.2,1012 223.6,1012 C222.9,1012 222.5,1009.9 222.5,1006.8 C222.5,1001.1 220,986 218.4,981.8 C216.7,977.7 212.5,972.3 212.5,974.3 C212.5,978 206,988.4 199.9,994.5 C198.8,995.6 197.4,997.2 196.9,998.1 C196.4,998.9 193.2,1001.7 189.8,1004.3 C186.4,1006.9 183.4,1009.4 183.1,1009.9 C182.8,1010.3 183,1012.4 183.6,1014.5 C185.4,1021 182.3,1026.2 178.7,1022.6 C177.5,1021.4 177.4,1020.4 178.6,1015.8 C179.3,1012.9 179.8,1008.5 179.6,1006 C179,996.4 170.7,982.4 161.6,975.7 C156.5,971.9 155.5,971.5 150,971.5 C144.8,971.5 143.2,972 138.5,975 L133,978.5 L137.3,979.1 C143.2,979.9 146.5,982.6 150.4,990.1 C153.5,996.1 153.7,997 153.2,1004 C152.5,1015.1 154.2,1028.3 157.6,1037 C159.9,1043 161.6,1045.6 166.2,1050.1 C171.9,1055.5 179.5,1061 181.4,1061 C181.9,1061 183,1061.6 183.7,1062.3 C184.4,1063.1 187.4,1064.5 190.4,1065.5 C197.2,1067.7 196.1,1068.9 185.2,1071.1 L177,1072.7 L181,1074.4 C183.1,1075.3 185.2,1076.4 185.5,1076.8 C186.7,1078.5 194.3,1081.2 201.9,1082.7 C214.4,1085.2 228.1,1084.8 239.5,1081.6 C244.7,1080.1 249.8,1078.9 250.7,1078.9 C251.7,1078.9 252.7,1078.5 253,1077.9 C253.4,1077.4 254.4,1077 255.3,1077 C256.2,1077 258.3,1076.3 259.9,1075.5 C261.5,1074.6 263,1074.1 263.2,1074.4 C263.4,1074.6 262.3,1077.7 260.7,1081.2 C257.5,1088.2 255.7,1097 257.4,1097 C257.9,1097 258.8,1096.4 259.2,1095.8 Z M190.6,1000.4 C195.3,997.2 207.2,982.9 209.6,977.6 C210.6,975.3 211.5,971.9 211.5,970 C211.6,967.9 211.9,967.1 212.3,968 C212.7,968.8 214.7,972.2 216.8,975.4 C220.6,981.3 223.4,990.4 223.6,998 C223.6,999.9 223.9,1000.9 224.2,1000.2 C224.5,999.5 228.2,996.4 232.6,993.4 C236.9,990.3 240.7,987.5 240.9,987.1 C241.2,986.7 239.2,985.6 236.6,984.6 C233.8,983.6 230.1,981.1 227.5,978.5 C223.8,974.7 223.4,973.9 224.5,972.5 C225.7,971.1 226.3,971.4 230.4,975.3 C235.7,980.4 240.7,983.3 243.7,982.8 C247.3,982.3 250,977.5 249.8,971.9 C249.8,969.2 250.1,967 250.6,967 C251.1,967 251.5,967.7 251.5,968.5 C251.5,969.3 252.2,970 253.1,970 C254,970 255.5,972 256.8,974.9 L258.8,979.8 L262.2,977.3 C266.5,974 266.8,976.4 262.6,981.2 C260.3,983.9 259.7,985.8 259.2,991.3 C258.9,995 258.8,998 259.1,998 C260,998 267.7,990 270.6,986 C273.2,982.5 276.5,971.5 276.5,966.3 C276.5,963.5 275.7,960.3 272,947.5 C270.7,943.2 270.2,937.7 270.1,928.5 C270,916.7 270.2,915.2 272.2,912 L274.4,908.6 L275.4,911.3 C276,912.8 276.8,915.3 277.1,916.8 C278.3,921.8 287.3,939.9 289.9,942.5 C291.3,943.9 292.5,945.4 292.5,945.7 C292.5,946.6 297.7,952 298.6,952 C300.2,952 300.3,947.4 298.8,944.8 C296.9,941.8 297.8,937.1 300.4,936.2 C301.4,935.9 301.2,936.6 299.9,938.9 C298.1,942 298.1,942.2 299.8,943.4 C301.6,944.8 302.1,949.5 300.6,951.9 C299.6,953.4 302.1,957 304.2,957 C306.1,957 306.5,954 305.6,948 C305.1,945 304.9,942.3 305.1,942.1 C306.3,940.8 307,944.1 307.2,951.3 C307.4,961.4 307.3,961 308.4,961 C308.9,961 309.8,958.9 310.4,956.3 C311.5,950.8 309.5,938.8 307,936 C306.2,935.1 305.5,934 305.5,933.6 C305.5,933.2 304.9,932.2 304.1,931.5 C302.9,930.3 302.6,930.4 302.2,932 C301.9,933.2 300.8,934 299.5,934 C297.6,934 297.3,933.6 297.7,930.5 C298.1,927.3 297.9,927 295.5,926.9 C294.1,926.9 293.6,926.6 294.2,926.3 C297,925.2 277.5,901.5 267,893.2 C258.5,886.6 233.7,873.7 226,872 C221.8,871.1 221,871.2 214.6,874.4 C204.5,879.5 199,883.5 191.1,891.5 C179.6,903 175.5,912.9 175.2,930.2 C175,938.3 175.2,939.5 176.7,939.8 C178.1,940.1 178.3,939.7 177.8,938.3 C177.3,936.8 177.5,936.7 178.6,937.8 C180.6,939.6 181.4,939.3 180.7,936.8 C180.2,934.6 180.3,934.6 182.2,936.3 C183.7,937.6 185.9,938 191.4,938 C197.6,938 198.9,938.3 201,940.4 C206.1,945.5 206.3,955.1 201.4,959.4 C196,964.2 183.9,966.1 179.8,962.8 C179,962.2 177.3,962.2 175,963 C171.6,964.1 171.4,964.4 171.7,968.2 C172.1,973.4 175.1,975.8 182.2,976.6 C189,977.5 191.3,976.8 197.6,972 C203.8,967.4 204.5,967.2 203.8,970.3 C201.6,979.3 183,984.5 174.1,978.5 C170.7,976.2 170.5,976.2 170.5,978.1 C170.5,979.1 171.5,981.7 172.8,983.8 C176.8,990.3 179.6,996.9 180.1,1000.7 C181,1007.2 181.2,1007.4 184.3,1005 C185.8,1003.9 188.6,1001.8 190.6,1000.4 Z M169.7,971 C169.8,967.2 169.9,963 169.9,961.8 C170,959.4 169.5,959.3 166,960.6 C164.2,961.3 164.2,961.2 165.4,959.7 C166.1,958.8 167.8,958 169.2,958 C170.7,958 171.4,957.6 170.9,956.9 C170.5,956.2 168.8,956.1 166.6,956.4 C164,956.9 163.4,956.8 164.5,956.1 C165.3,955.5 166.8,955 167.9,955 C170.9,955 167.8,952 164.6,952 C162.3,951.9 162.2,951.8 163.9,950.9 C165.2,950.1 166.4,950.1 168.2,950.9 C169.5,951.5 171,952 171.5,952 C172.1,952 172.5,946.5 172.5,938.8 C172.5,922.9 173.4,916.8 177.1,907.2 C179.2,902 181.6,898.1 185.8,893.5 C193.5,885.1 204.6,876.3 212.3,872.5 C215.7,870.9 218.5,868.9 218.5,868.2 C218.5,867.5 216.9,866.2 215,865.3 C213,864.3 211.2,862.6 210.9,861.3 C210.6,860.1 209.7,858.6 209,858 C207.3,856.6 185.8,853.7 182.8,854.5 C181.2,854.9 178.5,853.8 173.9,851 C170.3,848.8 167,847 166.6,847 C166.1,847 164.3,846.2 162.4,845.3 C157,842.6 143.4,843.3 137.9,846.5 C135.5,847.9 133.3,849.5 133,850 C132.6,850.6 134.2,852.8 136.5,854.9 C141.6,859.6 145.7,867.2 145.8,871.9 C145.8,873.9 145.5,878.7 145,882.6 C143.9,892.6 144.6,894.6 149.3,895.4 C153.3,896 162.8,902.1 160.8,902.7 C160.2,902.9 157.2,901.7 154.2,900 C149.3,897.3 148.1,897 143.6,897.6 C140.8,898 138.5,898.6 138.5,898.9 C138.5,899.3 139.9,900.9 141.6,902.6 C146.3,907 149.5,912.6 149.5,916.2 C149.5,918 148.8,922.2 147.9,925.5 C144.3,939.7 144.3,940 145.4,947.9 C146,952.1 147.7,958.3 149.2,961.7 C151.5,967.4 152.3,968.2 156.9,970.4 C159.7,971.7 163.1,974 164.4,975.4 C168.5,979.7 169.5,978.8 169.7,971 Z M199.1,959.1 C204.5,955.8 204.5,948.3 199.1,942.3 C197,939.8 192.7,939.3 189.2,941.1 C185.3,943.1 183.5,946.2 183.5,951.3 C183.5,955.8 183.6,956 185.5,954.8 C186.6,954.1 187.5,952.8 187.5,952 C187.5,949.7 190.4,946 192.2,946 C194.7,946 198.5,950 198.5,952.7 C198.5,953.9 197.6,955.5 196.5,956.2 C194.6,957.4 193.7,961 195.3,961 C195.7,961 197.4,960.1 199.1,959.1 Z M276.1,894.8 C275.4,893 272.8,887.5 270.4,882.6 C266.4,874.5 265.6,873.6 262,872.2 C259.8,871.4 254.4,869.4 250,867.8 C230.9,860.7 228.1,859.9 224.1,860.2 C220.1,860.5 220,860.5 220.1,864.3 C220.2,866.4 220.5,868.3 220.8,868.6 C221.1,869 224.2,869.8 227.7,870.6 C233,871.7 242.9,876.2 262.5,886.6 C263.9,887.3 267.5,890.2 270.5,892.9 C273.5,895.7 276.3,897.9 276.8,898 C277.2,898 276.9,896.5 276.1,894.8 Z M261,865 C256.3,856.7 250.9,848.6 248.8,846.8 C246.1,844.6 236,841.1 230.1,840.4 C223.3,839.6 214,841.5 211.4,844.3 C209.2,846.6 209.2,850.2 211.5,858.3 C212.8,862.6 214.7,863.1 218.2,859.8 C221.3,856.9 228.4,857.1 236.5,860.4 C240,861.8 243.4,863 244,863 C244.6,863 245.7,863.6 246.3,864.2 C247.5,865.4 260.7,870.6 263.2,870.9 C263.9,870.9 262.9,868.3 261,865 Z M207.8,850.7 C207.3,846.9 207.7,845.9 210,843.6 C213.8,839.8 216.3,839.1 226.8,838.8 C235.4,838.6 236.4,838.8 242.6,841.8 C246.3,843.5 249.7,845 250.2,845 C250.6,845 252.8,846 255,847.2 C259.7,849.7 273.7,855.1 274.3,854.6 C274.5,854.4 273.8,852.5 272.7,850.3 C271.6,848.2 270.2,844.7 269.5,842.5 C268.8,840.3 267.2,836.9 265.9,835 C263.1,830.7 261.4,823.3 261.6,816.6 C261.8,810.6 265,801.4 267,800.6 C268.9,799.9 269,793.7 267.3,791.8 C265.2,789.5 265.4,788.3 268.7,784.8 C270.9,782.5 271.8,780.7 271.6,778.8 C271.5,777.4 271.8,775.9 272.3,775.6 C272.9,775.3 273.1,774.2 272.8,773.2 C272.6,772.2 273,770.8 273.9,770.1 C274.7,769.4 275.1,768.2 274.8,767.4 C274.5,766.6 274.6,765.2 275,764.3 C275.6,762.7 275.9,757.1 275.6,753.2 C275.5,752.4 272.9,749.1 269.7,745.7 C266.5,742.3 261.7,736.7 259.1,733.3 C252.4,724.4 243.2,704.5 240.5,693.2 C238.6,684.8 238.4,683 239.4,675.5 C240.7,666.1 242.1,661.3 244.3,658.7 C245.1,657.8 245.6,656.8 245.3,656.5 C245,656.2 238.8,656.9 231.4,658 C224,659.2 214,660.3 209,660.6 C204.1,660.8 198.4,661.5 196.5,662 C194.6,662.6 188.5,663.3 183,663.6 C174.9,664.1 171,663.8 162.6,662.1 C156.9,661 152.1,660 151.9,660 C150.9,660 151.9,662.5 155.6,669 C159.3,675.6 159.6,676.6 159,681.4 C156.9,699.4 156.2,704.1 154.8,708.7 C154,711.6 153.6,714.4 154,715 C155,716.6 151,722.4 145.5,727.3 C139.4,732.8 133.1,741.7 130.4,748.9 C127.9,755.4 127.5,765.3 129.5,769 C130.3,770.4 130.8,772 130.7,772.6 C130.4,774.2 140,788.6 143.9,792.3 C147.3,795.6 157,809.3 160,815 C161.6,818 164.5,826.6 164.5,828.3 C164.5,828.7 164,829 163.4,829 C162.9,829 162.6,828.6 162.9,828.2 C163.2,827.7 162.8,826.2 162,824.7 C161.3,823.3 160.9,821.9 161.1,821.7 C161.4,821.4 159.1,817.5 156,813.1 C147.6,800.6 146.4,799 141,792.4 C136.7,787.2 130.3,777.6 130,776 C130,775.7 129.1,774 128.1,772.2 C127.2,770.3 126.6,768.2 126.9,767.4 C127.2,766.7 126.9,765.8 126.3,765.4 C124.7,764.4 126.1,752.1 128.6,746.6 C129.7,744 130.3,741.2 130,740.2 C129.7,739.3 125.9,734.8 121.7,730.2 L114,721.9 L109.6,725.9 C103.3,731.7 95.8,734.3 87.4,733.7 C83.7,733.4 80.4,733.4 80.1,733.8 C79,734.9 75.5,735 75.5,734 C75.5,733.4 76.4,733 77.5,733 C80.3,733 80,731.6 77,730.2 C75.6,729.6 74.5,728.6 74.5,728 C74.5,726.7 74.5,726.7 79.7,729 C86,731.7 93.8,731.8 100.4,729.2 C108.2,726.1 112.3,721.1 116.3,709.8 C118,704.7 119.5,700.1 119.5,699.5 C119.5,699 117.1,698.5 114.3,698.5 C103.4,698.5 87,687.1 78.2,673.5 C75.3,669 75,668.8 74.7,671 C74.6,672.4 74,675.4 73.4,677.8 C72.9,680.2 72.2,684.1 71.9,686.5 C71.6,689 70.7,694.3 69.9,698.2 C66.9,712.9 66.2,722 67.4,728.9 C69,737.4 70.5,740 77.8,747.4 C81.2,750.7 84.9,754.7 86.1,756 C87.2,757.4 89.9,760.8 92.1,763.5 C97.2,769.8 101.7,774.9 107.5,780.9 C110,783.4 115.2,789.2 119.2,793.7 C123.2,798.2 127.2,802.8 128.2,803.9 C129.2,805 132,808.6 134.5,812 C139.1,818.2 142.6,822.6 152.5,834.3 C157.6,840.3 164.7,845 168.8,845 C169.4,845 172,846.4 174.4,848 C176.8,849.7 179.5,851 180.4,851 C182.4,851.1 193.5,852.7 199.5,853.9 C208.3,855.6 208.3,855.5 207.8,850.7 Z M305.1,837.8 C305.1,834.9 305.5,824.6 306,814.9 C306.6,802.3 306.5,797.1 305.7,796.6 C305.1,796.2 304.8,795.3 305.2,794.5 C305.5,793.6 305.2,792.3 304.5,791.5 C303.8,790.7 303.6,790 304,790 C304.4,790 304.2,789.4 303.6,788.7 C303,787.9 302.7,787.1 303,786.8 C303.3,786.5 302.9,785.7 302,785 C300.8,784 300,784.1 298,785.4 C296.6,786.3 295.5,787.4 295.5,787.9 C295.5,789.1 291.9,793 290.7,793 C290.1,793 289.5,793.6 289.3,794.3 C289,795.1 286.1,795.5 279.8,795.5 L270.8,795.5 L269,802.8 C268,806.7 266.8,810 266.3,810 C265.9,810 265.5,809.6 265.5,809 C265.5,808.5 265.1,808 264.5,808 C263.7,808 263.7,826.3 264.5,828 C264.6,828.3 264.7,828.8 264.6,829.3 C264.6,829.7 264.9,830 265.4,830 C265.9,830 266,827.9 265.8,825.3 C265.2,819.8 264.8,819.6 273.4,829.7 C280.2,837.8 290.4,842.7 301,842.9 L305,843 L305.1,837.8 Z M313.3,840.2 C317.1,836.3 319.3,827.4 320.3,811.6 C321.2,796.7 320.7,795.4 314.6,796.4 C308.9,797.3 308.3,798.6 308.4,809.2 C308.5,814.4 308.1,823 307.5,828.4 C305.8,843.1 307.4,846.2 313.3,840.2 Z M348.1,839.9 C349.7,838.2 350,836.3 349.9,829.6 C349.8,821.8 348,814.5 343.9,805.4 C343.2,803.7 342.4,801.4 342.2,800.4 C341.9,798.8 339.9,794.3 338.9,793.1 C338.8,793 336.6,793.8 334.1,795.1 C329.8,797.2 329,798.8 330.7,801.5 C332.9,805 339.3,826.9 341,836.5 C342,842.3 344.7,843.6 348.1,839.9 Z M121.1,835.3 C122.5,832.1 123.9,826.8 124.2,823.5 C124.7,818 124.5,817.2 121.6,813.3 C119.5,810.3 117.7,809 116.1,809 C113.7,809 110.3,805.9 109.9,803.5 C109.6,801.3 111.3,801.7 112,804 C113.3,808.1 122.5,807.4 122.5,803.2 C122.5,801.3 116.9,794 115.4,794 C114.9,794 114.5,795.1 114.5,796.5 C114.5,797.9 114.1,799 113.5,799 C112.2,799 112.2,794.7 113.5,793.4 C114.1,792.8 110.9,788.7 104.5,782 C99,776.2 94.5,770.9 94.5,770.2 C94.5,769.4 93.9,769 93.3,769.2 C91.2,769.9 91.3,777.2 93.4,784.8 C94.5,788.8 95.1,792 94.8,792 C94.5,792 94.8,792.7 95.5,793.5 C96.2,794.3 96.4,795 96,795 C95.6,795 95.8,795.6 96.4,796.3 C97,797.1 97.3,797.9 97,798.2 C96.7,798.5 97.1,799.3 98,800 C98.8,800.7 99.5,802.4 99.5,803.7 C99.5,805.2 101,807.6 103.5,810.1 C108.1,814.7 108.6,817.6 105.3,822 C103.4,824.6 103.3,825.3 104.4,827.7 C106.3,831.8 114.7,840.8 116.8,840.9 C118,841 119.3,839.2 121.1,835.3 Z M57.8,802.3 C60.9,800.1 66.5,792 66.5,789.5 C66.6,789.2 67.4,787.1 68.4,784.8 C69.4,782.4 70.6,779.4 71,778 C71.8,775.1 77.5,768.9 78.6,769.6 C79,769.8 79.6,769.6 80,769 C80.9,767.5 85.8,767.8 88,769.4 C89.7,770.6 90.1,770.6 91.1,769.1 C93.8,765.5 85.2,760.9 79.9,763.1 C78.3,763.8 76.7,764.3 76.3,764.2 C74.9,763.9 68.7,772.6 68,776 C67.6,777.9 66.8,780.1 66.3,780.8 C65.7,781.4 65.5,782 65.9,782 C67.5,782 60.9,792.6 56.6,797.1 C51.7,802.2 51.7,802.2 46.1,801.8 C43,801.7 40.5,801.8 40.5,802.2 C40.5,803.7 44.2,804.9 48.9,805 C52.7,805 54.8,804.4 57.8,802.3 Z M311,795.4 C313.1,794 314.3,793.9 317.7,794.8 C321.4,795.8 322,795.7 323.3,793.9 C324.9,791.6 326.5,791.4 326.5,793.5 C326.5,795.4 327.5,795.4 331.1,793.5 C332.7,792.7 335,792 336.3,792 C338.5,792 339.1,791 337.8,789.6 C337.4,789.3 337,788.3 336.9,787.5 C336.7,786.4 337.3,786.2 339.1,786.6 L341.6,787.2 L339.3,783.7 C336.6,779.5 336.3,779.4 331,782 C328.8,783.1 325,783.9 322.5,783.9 C317.5,783.8 317.6,783.8 325.6,781.6 C328.7,780.7 332.3,779.1 333.8,778 C336.1,776.2 336.2,775.7 335.2,772.7 C333.7,768.4 333.8,768.5 332,770 C331.1,770.7 330.7,772.1 331,773.1 C331.4,774.2 331.2,775 330.5,775 C329.9,775 329.2,773.7 328.9,772.1 C328.5,770.4 327.7,768.9 327,768.6 C324.9,767.8 324.3,763 325.9,760.4 C326.9,759 327.1,757.9 326.5,757.5 C325.9,757.2 325.5,755.8 325.5,754.4 C325.5,753 324.8,750.4 324.1,748.5 C323.3,746.6 323,745 323.5,745 C324,745 325.2,747.5 326.2,750.6 C327.7,755.4 328.2,756 330,755.5 C331.1,755.1 333.6,754.5 335.5,754.3 C337.8,753.9 339.8,752.8 341.3,750.9 C343.7,748 343.7,747.9 342,743.7 C339.6,737.6 338,736.2 331.7,734.9 C320.1,732.5 306.9,736.3 302.6,743.3 C301,746 298.5,758.5 299.6,758.5 C299.8,758.5 299,759.9 297.8,761.6 C294.7,765.9 293.9,769.6 295.9,770.3 C297.8,771.1 299.9,775.7 299.6,778.4 C299.4,780 299.8,780.1 302.1,779.6 C304.5,779 304.7,779.1 303.5,780.5 C302.4,781.8 302.6,782.4 304.5,784.5 C305.8,785.9 306.5,787 306.1,787 C305.6,787 305.8,787.7 306.5,788.5 C307.2,789.4 307.5,790.3 307.2,790.7 C306.8,791 307,791.9 307.6,792.6 C308.2,793.4 308.5,794.7 308.1,795.5 C307.4,797.4 308,797.4 311,795.4 Z M286.4,792.4 C292.7,789.9 300.4,779.3 297.3,777.4 C296.9,777.1 296.5,776.1 296.5,775.1 C296.5,774.1 295.6,772.5 294.5,771.5 C292.5,769.7 292.4,769.7 289.6,772.6 C288,774.3 282.9,777.9 278.3,780.7 C267.2,787.5 266.5,788.4 269.6,791.5 C272.6,794.4 280.3,794.8 286.4,792.4 Z M347.9,784.5 C350.9,781.4 347.8,766 342.8,759.3 C340.1,755.6 336.7,755 331.8,757.5 C327.3,759.7 326.2,761.5 327,765 C327.6,767.8 328,768.1 330.8,767.8 C332.6,767.6 334.1,766.9 334.1,766.3 C334.4,763.3 334.5,763 335.5,763 C336,763 336.2,763.7 335.8,764.5 C335,766.7 337.5,778.1 339.1,780.1 C339.9,780.9 340.5,782.2 340.5,782.8 C340.5,784 343.3,785.9 345.2,786 C345.8,786 347,785.3 347.9,784.5 Z M279.7,777.8 C284.8,774.8 293.5,766.5 293.5,764.6 C293.5,764.1 294.1,762.9 294.9,762.1 C295.6,761.2 296.7,758.3 297.4,755.7 C298.5,751.2 298.4,750.7 296.5,749 C293.4,746.3 292.4,732.9 294.9,730.1 C296.9,727.9 296.9,727.7 293,711.5 C291.7,706 290.2,699.7 289.7,697.5 C288.9,693.7 288.8,694 287,704 C286,709.8 285.1,716.1 285,718 C284.8,719.9 283.8,726.2 282.7,732 C278.5,753.9 277.3,761.1 277.9,762.5 C278.2,763.3 278,764.2 277.4,764.6 C276.8,764.9 276.4,766.6 276.5,768.4 C276.6,770.1 276.6,771.8 276.5,772.3 C276.4,772.7 276.2,773.3 276.1,773.8 C276,774.2 275.6,775.1 275.1,775.8 C274.7,776.5 274.6,777.4 274.9,777.7 C275.2,778 275,778.9 274.4,779.7 C272.6,781.7 274,781.3 279.7,777.8 Z M355.4,773.4 C356.5,771.9 357.2,770.4 357,770 C356.7,769.5 356.9,768.9 357.4,768.6 C358.3,768 357.1,760 355.6,757.2 C354.4,754.9 349.4,750.4 347.4,749.7 C346.4,749.4 344.8,750.1 343.4,751.6 L341.2,754 L343.4,756.4 C345.7,758.8 350.5,770.9 350.5,774.3 C350.5,776.8 353.1,776.4 355.4,773.4 Z M277.9,748.7 C277.7,748 278.3,743.4 279.5,738.6 C280.6,733.8 281.5,728.5 281.5,726.8 C281.5,723.1 286.9,693.8 289,686 C291.2,677.8 291,676.6 286.9,674.7 C283.2,672.9 281.5,673.2 281.5,675.4 C281.5,676.2 280.6,677.8 279.6,679.1 C277.7,681.4 277.7,681.5 279.8,685.1 C281.6,688.2 281.7,689 280.6,690.4 C277.4,694.2 269.8,691 269.3,685.6 C269,683 269.5,682.5 273,681.1 C278.7,678.9 283.1,673 279,673 C276.9,673 276,668.2 277.4,664.3 C278.6,661.2 278.4,660.4 274.9,653.7 C272.9,649.7 269.4,644.5 267.1,642 L262.9,637.5 L261.3,640.9 C259.4,644.7 260.1,647 264.2,650.5 C265.4,651.6 266.5,652.9 266.5,653.3 C266.5,654.9 262.3,651.8 260.6,648.9 L258.8,645.9 L256.6,649.6 L254.4,653.3 L257.3,652.7 C259.4,652.3 260.4,652.6 261.3,654.1 C262.1,655.3 263.7,656 265.8,656.1 L269,656.2 L266.2,657.2 C264,658 263,657.9 261.7,656.7 C260.1,655.3 255.6,654.5 251.2,654.9 C249.7,655 249.6,655.3 250.6,657.3 C251.3,658.5 253.1,661.2 254.8,663.3 C257.4,666.7 258.3,667.1 261.2,666.8 C265,666.3 265.4,667 262.4,668.8 C259.5,670.6 256.5,677.7 256.5,682.7 C256.5,686 257,687.2 258.6,688.1 C260.4,689 261.1,688.8 263.6,686.4 C265.2,684.9 266.7,683.9 267.1,684.2 C268.1,685.2 260.1,691.9 257.9,692 C256.1,692 255.7,691.2 255.2,686.8 C254.5,681.2 255.6,674.5 257.4,672.7 C258,672.1 258.5,670.8 258.5,669.8 C258.5,668.5 257.7,668 255.4,668 C253.7,668 251.5,667.5 250.5,667 C249.2,666.3 248.4,666.3 248,667 C247.7,667.5 246.3,668 245.1,668 C242.6,668 242.4,668.4 241,679 C240.2,684.7 243.5,700.2 247,707.2 C255.5,724 259,729.4 271,743.1 C276.6,749.7 279,751.6 277.9,748.7 Z M300.5,743.8 C301.8,740 302.8,739.1 308.9,736 C315.4,732.7 316.3,732.5 325,732.7 C334.5,732.8 340,734.5 341.2,737.6 C342.1,739.9 343.2,739.2 343.9,735.9 C345.1,729.7 340.1,723 332.6,721 C330.6,720.5 325.8,719.9 322,719.8 C316.1,719.6 314,720 308.8,722.4 C300.9,726 297.5,729.6 296.4,735.6 C295.5,740.1 296.9,748 298.4,748 C298.8,748 299.7,746.1 300.5,743.8 Z M135.3,734.8 C136.8,733 140.7,728.6 144.1,725 C147.5,721.4 150.5,717.4 150.8,716 C155.3,695.2 156.5,688.5 156.5,682.9 C156.5,676.9 156,675.3 152.1,667.9 C146.4,657.1 144.2,656.2 139.3,662.9 C137.4,665.4 134.6,671.1 133.1,675.5 C131.5,679.9 129,686 127.5,689 C124.8,694.1 123.7,696.7 117.2,712.7 L114.7,718.8 L119.4,723.8 C121.9,726.6 125.7,730.9 127.8,733.4 C129.9,735.9 131.9,738 132.1,738 C132.4,738 133.8,736.5 135.3,734.8 Z M302.1,724.1 C307.8,718.6 322.6,715.7 331.1,718.5 C333,719.1 333.3,718.7 333.9,714.4 C335.3,703.9 334,685.2 331.3,678.5 C328.2,670.9 322.8,665.1 315.8,662 C312.3,660.5 310.9,660.3 308.2,661.2 C304.3,662.5 297,669.3 294.6,674 C290.8,681.3 290.4,695.2 293.6,707.7 C294.7,712 296.1,717.6 296.7,720.3 C297.8,724.9 299.7,726.3 302.1,724.1 Z M119.3,696.4 C120.7,696 122.3,694.1 123.5,691.4 C126.4,685 126.2,683.7 122.3,684.3 C117.6,685.2 111.2,683.7 107.5,680.9 C96,672.3 81.6,655.2 81.5,649.9 C81.4,649.1 80.9,647.5 80.2,646.2 C79,644.2 78.7,645 77.1,654.1 C75.2,664.2 75.2,664.3 77.3,668.4 C80.3,674.5 93.7,688.4 100.3,692.2 C107.6,696.4 113.9,697.8 119.3,696.4 Z M128.6,679.3 C129.1,677.7 130.2,675.2 131,673.5 C131.8,671.9 133.1,668.9 134,667 C134.8,665.1 136.5,662.2 137.7,660.7 C140,657.9 140,657.8 138,656.4 C135.9,654.8 132.5,653.8 123.3,652 C120.2,651.4 115.9,649.7 113.8,648.2 C111.7,646.7 108.8,644.9 107.4,644.2 C106,643.5 102.6,639.4 99.8,635.2 C91.7,623 85.1,600.8 84.5,583.5 C84.4,581.4 82.7,585.7 82.1,589.5 C81.3,594.8 80,624.2 80.1,635 C80.1,642.5 80.5,644.2 83.2,649.5 C85,652.8 87.5,657 88.9,658.9 C90.3,660.8 91.5,662.9 91.5,663.5 C91.5,665 99,672.1 104.8,675.9 C111.8,680.7 115.4,681.9 121.8,682 C127.2,682 127.6,681.8 128.6,679.3 Z M189.9,660.5 C194.3,659.6 198,658.9 198.1,658.7 C201.4,654.6 202.4,646.1 200.1,640.7 C197.3,634.1 196.4,633.8 177.8,633.5 C161,633.3 161,633.3 158.2,635.8 C156,637.9 155.6,639 156.1,641.6 C156.4,643.3 156.2,646.3 155.7,648.3 C154.8,651.4 155,652.3 157.3,655.4 C159.1,658 160.8,659.1 163.4,659.5 C165.4,659.9 167.9,660.5 169,661 C172.1,662.4 181.3,662.1 189.9,660.5 Z M219,657 C224,656.4 230.3,655.8 233,655.4 C235.8,655.1 241.1,654.2 245,653.5 C253,651.8 253.6,651.3 259.5,639.5 C263.4,631.6 264.1,628.8 262.9,625.6 C262.4,624.2 262.1,624.2 260.8,625.5 C260,626.3 258.4,627.2 257.2,627.4 C256,627.6 252.3,628.3 249,629 C245.7,629.7 241.2,630.4 239,630.5 C230.9,631.1 201,634.3 200.6,634.6 C200.4,634.7 201.1,636.9 202,639.3 C203.7,643.9 203.8,653.5 202.1,657.3 C201.3,659 201.6,659.1 205.6,658.5 C208,658.2 214.1,657.5 219,657 Z M150.2,653.3 C151.6,651.7 153.1,649.5 153.6,648.2 C154.6,645.7 154.8,641 154,641 C152.3,641 146.5,645.8 146.5,647.1 C146.5,648.6 145.8,648.6 140.3,646.6 C136.9,645.5 134,644 133.8,643.3 C133.5,642.6 134.7,642.6 137.6,643.7 C144.1,645.9 149.4,642.9 152.5,635.2 C154.1,631 153.4,621.4 151.2,619.3 C149.4,617.4 149.6,617.1 147.6,625.5 C147,628.3 145.5,631.3 144.4,632.3 C141.9,634.3 133.3,634.7 131.7,632.7 C130.8,631.7 131.7,631.4 136,631.4 C139,631.4 142,630.9 142.7,630.2 C146.2,626.7 147.7,613.3 144.9,610.6 C142.8,608.5 141.8,609.3 140.5,614 C138.9,619.8 136.1,622 130.4,622 C123.8,622 123.2,620.2 129.7,619.8 C134.9,619.5 135.1,619.4 137.3,615 C139.1,611.4 139.6,609.3 139.3,604.8 C139,601.6 138.6,598.7 138.2,598.4 C137.2,597.3 133.8,600.8 133,603.7 C132,607.8 129.4,611 127.1,611 C124.3,611 122.1,609.5 122.9,608.2 C123.9,606.6 119,603.7 116.7,604.5 C112.6,605.7 106,614.4 102.7,622.7 L99.4,630.9 L102.7,636 C104.5,638.7 106.2,641 106.6,641 C106.9,641 109.2,642.5 111.7,644.4 C115.7,647.5 123.9,650.9 124.9,649.9 C126,648.8 122.8,640.6 120.8,639.2 C118.2,637.6 117.7,635.5 120,636.4 C121.9,637.1 121.9,636.5 119.9,633.4 C119,632.1 118.5,630.7 118.8,630.4 C119.7,629.5 122.4,634.3 124.6,640.6 C127.3,648.2 127.7,648.7 136,652.7 C144.4,656.7 146.8,656.8 150.2,653.3 Z M221,630.1 C232.5,629.2 249,627.1 256.7,625.4 C260.8,624.6 264.8,616.7 270.3,599 C272.9,590.5 272.6,564 269.7,549.5 C268.5,543.5 267.4,537.2 267.2,535.5 C267,533.4 266.5,534.6 265.6,539.8 C264,548.1 262,549.7 263,541.8 C263.7,536.4 265.2,530.9 268.5,521 C271.4,512.7 272.3,508.3 273.4,499 C274.3,491.4 276,484.3 278.4,478.5 C278.9,477.4 280.9,472 283,466.5 C285,461 287.5,455.3 288.5,453.8 L290.5,451.1 L285.2,446.8 C276.4,439.4 270.8,436.3 252.5,428.3 C229.8,418.3 191.8,411.7 171,414 C153.7,415.9 140.6,418.5 133.5,421.5 C122.2,426.1 116.9,428.2 112.5,429.8 C110,430.8 106.7,432.4 105,433.6 C103.4,434.7 99.2,437.1 95.9,438.9 C92.5,440.7 88.3,443.6 86.6,445.4 L83.4,448.7 L87,455.5 C88.9,459.2 90.5,463 90.5,463.9 C90.5,464.8 91.1,466.4 91.8,467.5 C93.4,469.8 95,474.5 100.6,493.5 C102.9,501.1 105.1,508.1 105.5,509 C107.9,513.6 116.7,548.1 118.4,559.5 C119.1,563.9 120.7,572.9 122,579.5 C123.3,586.1 124.9,595.4 125.6,600.3 C126.3,605.1 127.1,609 127.5,609 C127.9,609 129.6,606 131.5,602.4 C133.3,598.8 135.4,595.6 136.2,595.3 C138.4,594.4 140.6,597.3 141.2,601.9 C141.5,604.1 142.1,606 142.5,606 C144.6,606 148.5,611.2 148.5,614 C148.5,616.2 149,617 150.3,617 C152.7,617 155.5,622 155.5,626.4 C155.5,629.3 155.9,630.1 157.9,630.6 C159.3,630.9 160.7,631 161.2,630.7 C161.6,630.5 164,630.6 166.5,630.9 C172.5,631.9 204.8,631.4 221,630.1 Z M106.5,430 C109.8,428.4 113.1,427 114,427 C115.9,427 115.9,426.8 113.8,417.8 C112.7,412.6 112.2,406 112.2,394.9 L112.3,379.2 L106.1,378 C102.8,377.3 99.1,376.3 98.1,375.8 C96.2,374.8 96.2,375.3 96.9,395.1 C97.5,413.7 99.2,433 100.2,433 C100.4,433 103.2,431.7 106.5,430 Z M272.7,427 C273.6,419.8 275.6,391.8 275.3,391.5 C275.1,391.3 270.7,392.3 265.5,393.7 C258.4,395.5 254.5,396 249.9,395.6 L243.7,395.1 L243.1,401.3 C242.8,404.7 242.2,410.7 241.9,414.6 L241.3,421.7 L250.1,424.9 C255,426.7 261.3,429.2 264,430.5 C271,433.9 271.9,433.5 272.7,427 Z M120.3,424 C127.6,419.9 160.5,412 170.3,412 C179.1,412 178.9,412.2 181.6,398.7 C184.3,384.9 184.3,384.1 181.1,370.9 C177.3,355.5 170,336.7 162.1,321.5 C158,313.8 154.4,305.7 154.1,303.5 L153.5,299.5 L155.4,304.5 C156.5,307.3 157.4,308.6 157.4,307.5 C157.5,306.4 158.1,304.6 158.9,303.5 C160.9,300.5 164.2,289.5 166.1,279.2 C167.6,271.1 167.7,268.6 166.7,261.7 C164.6,247 156.2,222 146.3,201 C140.7,189.1 136.2,176.4 133.1,163.5 C131.6,157.5 129.9,150.5 129.3,148.2 C127.3,140.4 127.8,119.7 130.3,108.4 C131.5,102.8 132.8,94.9 133.3,90.9 C134,83.8 133.3,72.1 132,70 C131.6,69.4 124.9,69 115.2,69 C100.5,68.9 98,68.6 88,66 C82,64.4 76.2,62.8 75.1,62.6 C74.1,62.3 72.2,61.4 70.9,60.5 C69.6,59.7 68.5,59.2 68.5,59.6 C68.5,60 67.8,59.7 67,59 C66.2,58.3 65.5,58.1 65.5,58.5 C65.5,58.8 63.9,58.2 62,57 C60.1,55.8 58.5,55.2 58.5,55.5 C58.5,55.9 57.8,55.7 57,55 C56.2,54.3 55.5,54.1 55.5,54.4 C55.5,54.8 54.9,54.8 54.3,54.3 C53.6,53.9 51.9,53.4 50.6,53.2 C49.3,53 46.6,52.2 44.6,51.4 C39.1,49.1 18.6,48.5 11.9,50.5 C6.6,52 6.4,52.3 3.3,58.7 L0.2,65.3 L2.4,66.9 C4.7,68.7 10.7,71.7 23.5,77.8 C33.5,82.5 41.7,87.6 49.4,94 C50.4,94.8 55.7,98.7 61,102.5 C66.4,106.4 73.1,111.7 75.9,114.3 C79.2,117.5 81.4,118.8 82.4,118.4 C83.3,118.1 86,117.5 88.5,117.3 C92.6,116.9 93.3,117.1 96.3,120.3 C100,124.2 103.9,134.4 105.5,144.8 C106.6,151.6 107.2,154.2 110.5,166.5 C118.3,195.3 125.6,250.4 125.5,280.2 C125.5,290.1 125.9,293.9 127.3,297.2 C128.5,300.3 129,304.2 129,311.5 C128.9,320.5 128.6,322.1 126.1,327 C121,336.9 117,339.6 105.8,340.7 C99.9,341.2 99.7,341.4 99.1,344.4 C98.7,346.1 98.2,353.2 97.8,360.2 L97.2,372.9 L100.1,374 C101.7,374.7 105.6,375.6 108.7,376.2 L114.5,377.2 L114.3,392.4 C114.1,408.8 116,425 118.1,425 C118.3,425 119.3,424.6 120.3,424 Z M239.5,416.8 C239.5,414.4 240,408.1 240.7,402.7 L241.9,392.9 L248.5,393.6 C256.2,394.3 269.6,391.9 273.5,389.1 C275.5,387.6 276.1,386.1 276.7,380.9 C277.1,377.4 277.2,374.4 276.9,374.1 C276.7,373.8 274.3,374.4 271.7,375.3 C264.4,377.8 245.5,378.5 237.2,376.6 C233.4,375.7 230,375 229.4,375 C228.9,375 228.5,377.4 228.5,380.3 C228.5,383.1 227.8,389.3 227,394 C226.2,398.7 225.4,405.6 225.3,409.4 L225,416.3 L229.7,417.9 C232.3,418.8 234.7,419.8 235.1,420.3 C235.5,420.7 236.7,421 237.7,421 C239.2,421 239.5,420.2 239.5,416.8 Z M223,410.3 C223.4,407.1 224.5,397.5 225.6,389 C226.6,380.5 227.5,373.2 227.5,372.8 C227.5,372.5 230.4,373.1 234,374.2 C239.4,375.8 242.8,376 253.3,375.7 C264.7,375.4 275.3,373.5 277.4,371.5 C279.3,369.6 277.2,335.9 274.3,322 L273.1,316 L276.6,312.2 C287.2,301.1 291.4,287.8 292,263 C292.8,233.8 295.4,196.6 296.9,194.2 C297.2,193.7 298.8,184.1 300.5,172.9 C302.2,161.7 304.2,149.6 305,146 C305.8,142.4 307.4,134.8 308.4,129 C310.7,116.9 314.7,105.8 319.7,97.4 C321.7,94.1 326.2,85.6 329.9,78.5 C337,64.4 337.4,62.6 335.5,51.4 C332.8,35.7 324.5,13.4 321.8,14.5 C316.6,16.4 310.2,15.8 302.4,12.6 C301.4,12.2 299.6,13 297.4,14.9 C295.5,16.6 293.5,18 292.9,18 C290.9,18 283.6,25 279.2,31.3 C265.9,50.2 264.7,54.9 266.7,83.8 C268.6,112.2 266.1,129.3 252.6,182.3 C250.4,190.9 248.1,198.8 247.6,199.8 C247.1,200.7 243.9,209.8 240.5,220 C237.1,230.2 232.9,241.9 231.3,246 C227.9,254.8 223.9,270.8 222.9,279.9 C222.1,287 223.9,298.3 226.6,304 L228.3,307.4 L229.9,303.6 C230.8,301.5 231.5,299.3 231.5,298.7 C231.5,298.2 232.9,295.3 234.6,292.2 C236.4,289.2 238.4,283.8 239.1,280.1 C239.7,276.5 241.3,269.7 242.4,265 C244.6,256.1 249,236.7 250.5,229 C251,226.5 252.8,218.4 254.6,211 C256.3,203.6 258.3,194 259.1,189.8 C259.9,185.5 261.6,177.7 263,172.4 C264.4,167.1 266.2,158.5 267.1,153.2 C269.7,137 270.3,133.6 271.5,130 C272.1,128.1 272.8,122.1 273.2,116.8 C273.9,106 273.9,106 280.2,108.5 C282.3,109.3 288.4,110.6 293.8,111.3 C299.1,112.1 303.8,113 304.2,113.4 C304.6,113.7 303.9,116.4 302.7,119.3 C301.6,122.1 300.1,127.2 299.5,130.5 C298.8,133.8 297.2,141 295.8,146.5 C292.3,160.6 289.6,172.7 288.6,178.5 C287.2,186.8 279.8,237.8 278.6,247.5 C275.3,273.9 274.3,281.4 272.6,290.6 C271.2,298.2 270.9,302.4 271.5,307.1 C273.5,323.6 267.2,337.2 256.1,340.4 C249.3,342.4 245.1,342.4 239.2,340.4 C230.1,337.3 225.3,327.4 227.5,316.1 C228,313.1 228.3,310.5 228.1,310.3 C227.4,309.5 220.9,315.9 217.9,320.2 C216.3,322.6 214.4,325.1 213.8,325.8 C212.3,327.4 206,338.1 201.7,346.5 C194.4,360.6 186.6,383.5 184,398 C183.3,402.1 182.4,406.7 182,408.3 C181.3,411 181.3,411 186.6,411 C192.1,411 199.6,412 212,414.4 C223,416.5 222.3,416.7 223,410.3 Z M114.8,336.5 C118.9,334.8 123.7,328.8 125.5,323 C126.4,320.4 127,314.8 126.9,309.5 C126.9,302.2 126.5,299.7 124.7,296.3 C121,289.2 112.7,282 108.2,282 C107.3,282 107,285.3 107,293.9 C107,300.5 107.1,305.7 107.2,305.6 C107.4,305.5 108.1,303.6 108.9,301.4 C109.7,299.3 110.4,298.3 110.4,299.4 C110.5,300.4 109.4,304.3 108,308.1 C104.9,316.7 100.5,333.6 100.5,336.8 C100.5,339.2 100.7,339.2 106.1,338.5 C109.1,338.2 113.1,337.2 114.8,336.5 Z M255.8,337.6 C263.3,335.7 267.3,329.3 269.2,316.4 C269.9,310.8 267.9,296 265.3,289.3 C263.5,284.4 262.7,283.6 258.8,281.8 C254.4,279.9 254.1,279.9 249.7,281.5 C241,284.9 238,288.9 232.6,304 C229.2,313.5 228.4,325.1 230.9,329.8 C232.7,333.3 237.4,337.7 240,338.3 C243.8,339.2 251,338.9 255.8,337.6 Z M271.5,282.5 C272.5,277.6 273.6,268.7 275.5,250.5 C277,236.5 279.4,220.4 282.5,203 C288,172.2 289.9,162.4 292.5,151.5 C294.1,144.9 295.8,137 296.4,134 C296.9,131 298.5,125.3 299.9,121.3 L302.3,114.1 L298.2,113.6 C295.9,113.3 291.7,112.8 288.8,112.5 C286,112.2 282,111.3 280.1,110.5 C278.2,109.7 276.4,109 276.1,109 C275.9,109 275.5,112.3 275.2,116.3 C274.9,120.2 273.7,128.9 272.5,135.5 C271.3,142.1 269.8,150.9 269.1,155 C268.4,159.1 267.3,164.3 266.7,166.5 C264.4,175 262.6,183 260.5,194.5 C259.3,201.1 257.3,210.6 256,215.5 C254.8,220.5 252.7,229.9 251.5,236.5 C250.3,243.1 247.6,255.3 245.5,263.5 C243.4,271.8 241.4,279.8 241.1,281.3 L240.4,284.2 L243.5,282 C245.5,280.6 248.7,279.6 252.5,279.3 C260.3,278.6 264.3,280.9 267.6,288.3 C269.8,293.2 270,293.4 270.2,290.5 C270.4,288.9 270.9,285.3 271.5,282.5 Z M122.5,260 C121.9,251.5 120.7,238.9 119.8,232 C119,225.1 117.9,215.7 117.5,211 C116.5,201.3 112.4,182.2 105.6,155.2 C104.4,150.6 103.5,145.9 103.5,144.7 C103.5,142.5 101.5,135.8 98.7,128.5 C96.7,123.3 92.7,119 89.9,119 C84.3,119 83.3,121.2 86.1,127.8 C87.6,131.5 90.9,147.4 94,167 C95,172.8 96.4,179.9 97.1,182.8 C98.9,189.4 103,228.6 104,249.5 C104.3,255.6 105,264.9 105.7,270.3 L106.8,280 L110.5,281 C114.5,282.1 119.1,285.2 121.5,288.5 C122.9,290.3 123,289.9 123.3,283 C123.5,278.9 123.1,268.5 122.5,260 Z M340.1,46 C339.5,39 334.6,22 331.3,15.5 C327.9,9 323.2,3.2 320,1.8 C310.8,-2.2 298.5,2.4 286.3,14.4 C282.3,18.3 277.6,23.6 275.9,26.1 C272.9,30.2 268.8,40.6 269.7,41.5 C269.9,41.8 271.2,40.1 272.6,37.9 C279,27.2 289.7,16.5 298.4,12 C301.9,10.3 302.4,10.2 305.1,11.6 C307,12.7 310.8,13.2 316.4,13.2 C323.7,13.2 324.8,13.4 325.2,15.1 C325.5,16.1 326.1,17 326.5,17 C327,17 327.9,18.7 328.6,20.8 C329.2,22.8 330.3,25.6 331.1,27 C333,30.8 337.5,51 337.6,56.6 L337.7,61.5 L339.2,57 C340.2,54 340.5,50.4 340.1,46 Z" id="Shape"></path>
                <path d="M254.5,968.5 C251.9,966.7 249.6,966.1 245.6,966.1 C239.1,966 232.7,963.2 229,958.8 C225.4,954.5 225.9,953 229.8,956.8 C234.3,961.2 235.5,961 234.2,956.1 C232.7,950.7 234.6,945 239,941.1 L242.5,938 L237.8,938.7 C235.1,939 232.2,939.7 231.3,940.2 C230.2,940.7 229.5,940.7 229.5,940.1 C229.5,938.8 231.3,938.3 238.9,937.5 C244.7,936.9 245.8,936.4 246.7,934.4 C247.3,933.1 248.2,932 248.7,932 C249.2,932 249.1,932.9 248.5,934.1 C246.8,937.2 248.2,937.7 251.1,934.9 L253.7,932.5 L253.1,934.8 C252.6,936.4 252.8,937 253.9,937 C254.7,937 255.7,936.6 256,936 C256.3,935.5 257.2,935 257.8,935 C258.5,935 257.7,936.2 256.2,937.5 L253.4,940 L255.8,942.9 C257.2,944.6 259.3,947.9 260.5,950.5 C262.3,954.2 263.1,954.9 264.7,954.4 C265.7,954.1 268.2,954.6 270.1,955.5 C274.4,957.5 273.9,958.8 269.6,957 C266.4,955.7 261.5,956.3 261.5,958 C261.5,958.6 262.1,959 262.8,959 C264.8,959 269.4,961.4 269.9,962.6 C270.2,963.4 269,963.3 266.5,962.3 C264.1,961.3 261.6,961 259.8,961.5 L257,962.2 L261.3,964.3 C265.2,966.3 266.8,968 264.5,968 C264,968 263.5,967.6 263.5,967.2 C263.5,966.1 255.8,964.2 254.5,965 C253.3,965.8 254.7,967.2 257.8,968.3 C259.4,968.9 260.3,971.1 258.8,970.9 C258.3,970.9 256.4,969.8 254.5,968.5 Z M253.2,961.8 C254.3,960.5 255.8,958.5 256.5,957.2 C259.5,951.3 253.4,940 247.3,940 C243.6,940 239,943.2 237,947 C235.4,950 234.9,956 236.3,956 C237.7,955.9 241.2,952.4 241.9,950.4 C242.2,949.2 243.6,947.7 245,947 C247,945.9 247.8,946 249.9,947.3 C253.5,949.7 254.1,952.7 251.6,955.9 C250.5,957.3 248.8,959.7 248,961.3 C246.5,963.9 246.5,964 248.8,964 C250.1,964 252.1,963 253.2,961.8 Z" id="Shape"></path>
                <path d="M242,911.1 C242.5,910.2 240.4,909.3 231.3,907 C226.3,905.7 206.6,906.1 203.3,907.5 C201.7,908.1 201.5,907.6 201.5,902.8 C201.5,887.2 216.2,876.3 230.2,881.5 C239.3,884.9 244,891.5 245.1,902.9 C245.5,906.2 246.2,908.7 246.6,908.4 C247.9,907.6 247.7,909.4 246.3,910.8 C244.9,912.2 241.1,912.4 242,911.1 Z M244.5,907.1 C244.5,902.4 233.2,899.6 216.5,900.2 C206.9,900.5 205.1,900.8 203.9,902.5 C203.1,903.5 202.5,904.7 202.5,905 C202.5,905.4 208.5,905.5 215.8,905.3 C226.6,905 230.2,905.3 235.5,906.9 C243.9,909.3 244.5,909.4 244.5,907.1 Z M235.9,893.9 C237.9,892.7 239.5,891.5 239.5,891.1 C239.5,889.9 234.2,885.3 231,883.8 C226,881.3 222.5,880.8 218.6,882.1 C214.3,883.5 207.5,888.6 207.5,890.5 C207.5,891.2 209.4,892.7 211.8,893.8 C217.9,896.8 231,896.8 235.9,893.9 Z" id="Shape"></path>
            </g>
        </g>
    </g>
</svg>