<?xml version="1.0" encoding="UTF-8"?>
<svg width="535px" height="238px" viewBox="0 0 535 238" version="1.1" xmlns="http://www.w3.org/2000/svg" xmlns:xlink="http://www.w3.org/1999/xlink">
    <!-- Generator: Sketch 51.2 (57519) - http://www.bohemiancoding.com/sketch -->
    <title>vogons</title>
    <desc>Created with Sketch.</desc>
    <defs></defs>
    <g id="Page-1" stroke="none" stroke-width="1" fill="none" fill-rule="evenodd">
        <g id="vogons" transform="translate(1.000000, 1.000000)" fill-rule="nonzero" stroke="#57C003" stroke-width="2">
            <g id="Group" transform="translate(266.500000, 118.000000) scale(-1, 1) rotate(-180.000000) translate(-266.500000, -118.000000) translate(0.000000, -0.000000)">
                <path d="M184.4,232.6 C196.7,227.9 217,217.1 218.2,214.5 C218.8,213.1 220.1,211.8 221.2,211.4 C222.2,211.1 224.4,209.1 226.1,207 C228.5,204.1 230.8,202.6 235.3,201.1 C244.6,197.9 252.5,192.4 254.5,187.5 C255.4,185.3 256.7,182.2 257.5,180.5 C258.4,178.8 259.1,173.3 259.3,167.5 C259.7,158 259.9,157.1 263.8,149.7 C266.1,145.4 268,140.6 268,139.2 C268,133.9 265.2,124.8 262.9,122.3 C258.7,117.8 250.9,114 246,114 C237.8,114 234.4,112.4 232.1,107.7 C230.9,105.3 230,102.7 230,101.9 C230,101.1 229.3,99.5 228.5,98.4 C227.7,97.4 227,94.9 227,93 C227,91.1 226.1,88.1 225.1,86.3 C224,84.6 222.8,81.4 222.4,79.3 C221.9,76.3 220.3,74.2 215.3,69.4 L208.9,63.3 L214.4,52.7 C220.6,40.8 221.4,35.7 218.4,28 C216.9,24.2 216.9,23.8 219.4,16.7 C222.2,8.8 223.1,2.3 221.5,1.8 C221,1.6 220.4,2.6 220.2,4 C219.4,11.7 215.7,21 213.5,21 C212.9,21 210.4,20 208,18.9 C204.6,17.2 202.5,16.9 198.6,17.3 C191.1,18.1 165.7,29.7 151.8,38.6 C141.9,45 124.7,58.4 117.5,65.3 L111.5,71.2 L120,64.3 C132.1,54.5 146.5,43.9 153.5,39.8 C162.6,34.3 176.8,27.5 177.6,28.2 C178.4,29.1 160.3,59.8 143.9,85.3 C140.3,90.9 134.7,99.8 131.6,105 C128.4,110.2 124.9,115.5 123.8,116.9 C120.2,121.6 91.7,150.5 89.6,151.7 C83.7,155.1 75.2,151.9 61.5,141.2 C39,123.6 18.2,95.9 15,79.3 C12,63.4 26.6,44.3 61.7,17.8 C71.2,10.7 79,4.4 79,3.8 C79,2.4 75.4,4.8 64.5,13.5 C59.6,17.4 52.8,22.6 49.5,25 C39.4,32.3 22.8,49.7 18.1,57.8 C15.8,61.7 13.5,65 13,65 C12.5,65 11.1,63.1 9.9,60.8 C5.5,52.2 3.8,45.6 3.3,35 C2.8,25.9 3.1,23.6 5,18 C6.2,14.5 8.1,10.3 9.1,8.8 C10.7,6.6 10.8,6 9.7,6 C7.6,6 6.7,7.6 3.6,16 C-1.2,29.2 -0.1,42.4 7.5,61.9 C9.3,66.6 11.4,73.6 12,77.5 C14,89.6 16.9,95.2 31.4,114.4 C45.4,132.8 69.5,153.3 80.6,156.1 L84.7,157.2 L85.4,164.2 C86.3,174.5 90.4,180.6 97.7,183.1 C100.3,183.9 101.2,184.9 102,188.1 C102.7,190.6 104.3,192.9 106.7,194.7 C108.6,196.3 111,198.4 111.9,199.5 C112.7,200.6 119.1,207.2 126.1,214.1 C136,224.1 140.1,227.4 145.4,230 C158.2,236.3 172.1,237.2 184.4,232.6 Z M431.1,232.1 C437.7,229.5 446.1,223.7 449.9,218.9 C451.8,216.6 456.4,210 460.3,204.1 C464.1,198.3 468.8,191.6 470.6,189.3 C475.4,183.5 478,177.3 478,171.8 C478,167.5 478.2,167.1 481.8,165.3 C485.7,163.3 490.9,155.4 491,151.5 C491,150.4 489.9,151.8 488.6,154.6 C486.2,159.7 481.6,164.4 479.6,163.7 C477.7,163.1 478.4,161 480.9,159.7 C483.9,158.2 487.2,149.9 486.8,145.1 C486.5,142 486,141.4 483.2,140.5 C480.3,139.7 479.9,139.2 480.2,136.5 C480.4,134.1 481,133.4 483.1,133.2 C486.9,132.8 489.9,135.8 490.9,141 C491.4,143.5 491.8,144.4 491.9,143.1 C492,141.8 491.5,139.1 490.9,137.1 C489.9,133.6 490,133 495.7,124 C501.4,114.9 504.5,108.2 503.5,107.2 C503.3,106.9 502.8,107.6 502.4,108.6 C501.2,112.3 497.1,119.4 493,125.2 C489.1,130.5 488.4,131 484.9,131 C481.9,131 481,130.6 481,129.3 C481,128.2 480.7,128 480.1,128.5 C478.5,130.1 476.1,153.8 476.3,165.5 C476.5,174.9 476.2,177 474.6,179.5 C472.9,182.1 472.6,182.2 471.5,180.7 C470.4,179.2 470.2,179.5 469.6,182.8 C469.1,186.5 457.1,206.5 450.7,214.5 C446.6,219.6 438.8,222.2 426.5,222.5 C410.7,222.8 407.6,223 408.3,223.6 C408.8,224.1 431.3,224.2 436.4,223.7 C440.2,223.3 439,226 434.2,228.4 C426.4,232.3 417.1,233.5 408.3,231.5 C404.3,230.6 400,229 398.8,228 L396.5,226.1 L398.8,226 C402.4,226 401.3,224.3 397.3,223.5 C389.1,222 385.6,219.6 376,208.5 C367.8,199 363.4,191.8 364.6,189.9 C365.1,189 374.5,190.7 380.1,192.7 C384.5,194.2 385,194.2 391,192.2 C395.8,190.6 397.7,190.3 398.7,191.1 C400.2,192.4 404,200.6 404,202.6 C404,204.7 400.7,206 391.2,207.5 L382.5,209 L392,208.4 C397.2,208.1 403.3,207.8 405.5,207.9 C433.8,208.5 435.1,208.4 443,205.1 C453.5,200.6 454.5,199.8 460.1,191.3 C464.5,184.5 466.4,179 464.2,179 C463.7,179 460.5,180.4 456.9,182.1 C438.3,191.1 436.4,191.5 430.3,187.1 C426.4,184.3 426.3,184 425.6,176.7 C424.8,168.1 425.6,161.6 427.7,159.9 C428.8,159 432.5,158.9 443.3,159.7 C457.1,160.8 457.6,160.7 459.8,158.7 C461.1,157.5 461.9,155.9 461.7,155 C461.4,154.2 461.1,152.8 460.9,152 C460.7,151.2 459.7,149.7 458.7,148.8 C457.6,147.9 457.1,146.6 457.5,146.1 C457.8,145.5 457.7,145 457.1,145 C456.6,145 455.1,143.6 453.9,141.9 C452.3,139.6 452,138.6 453,138 C455.6,136.4 448.5,136.2 445.8,137.8 C442.5,139.7 442.2,141 444.9,141 C446,141 447.2,141.5 447.5,142 C447.9,142.6 446.7,143 444.6,143 C442.7,143 439.9,143.5 438.3,144.1 C436.4,144.8 435.4,144.8 435.2,144.1 C435,143.5 433.8,143 432.5,143 C431.2,143 429.9,142.6 429.6,142.1 C428.7,140.6 430.9,135.7 433.3,133.7 C434.7,132.5 435.1,131.7 434.3,131.4 C433.5,131 433.6,129.7 434.7,126.4 C436.2,122.1 436.1,121.9 433.9,120.1 C432.6,119.1 429.5,117.5 426.8,116.5 C424.2,115.6 421.7,114.3 421.1,113.6 C419.2,111.4 405.8,113.5 399.6,117 C391.6,121.5 391.4,122 393.4,129.1 C394.6,133.6 394.8,135.6 394,136.5 C393.2,137.4 393.2,138 394,138.5 C394.5,138.8 395,139.8 395,140.6 C395,142.6 391,142.4 384.9,140 C380.1,138.1 379.5,138 376.5,139.5 C374.7,140.3 372.6,141 372,141 C371,141 371,141.3 371.9,142.4 C372.9,143.5 372.7,144 371.2,144.5 C369.3,145 367.5,149.1 367.9,151.7 C368,152.3 367.1,153.5 366,154.3 C364.9,155.1 364.2,156.4 364.5,157.1 C364.9,158.3 360.6,162 358.7,162 C358.1,162 357.1,147.1 356.4,126.9 C355.8,111.6 355.9,110 357.8,105.7 C360.2,100.4 361.7,99.7 362.3,103.8 C362.5,105.3 362.8,103.7 362.9,100.2 C362.9,96.8 363.6,92.4 364.4,90.5 C366.7,85 374.9,77 381,74.3 C387.8,71.3 395.8,70.1 397,72 C397.6,73 398.7,72.6 401.4,70.3 C405.2,66.9 414.3,64.3 418.1,65.5 C419.6,66 420,65.9 419.6,65.1 C418.5,63.4 410.1,63.9 404,66 C401,67 398.3,67.7 398.1,67.5 C397.2,66.5 399.1,64.2 403.1,61.5 C406.6,59 408.3,58.5 413.1,58.5 C418,58.5 419.4,58.9 422.7,61.6 C424.8,63.3 426.9,65.6 427.5,66.8 C428.2,68.4 429.4,69 431.6,69 C437.8,69 445.3,72.1 449.6,76.4 C453,79.8 453.8,81.4 454.4,85.8 C454.9,89.7 455.5,91 456.8,91.1 C457.9,91.1 459.8,93.8 462.2,98.8 C468.8,112.3 469.1,113.8 469.7,135.8 C470.1,147.4 470.7,156 471.3,156 C472.7,156 471.1,120.7 469.4,113.5 C467.3,104.5 457.1,81.4 453.2,76.9 C448.9,71.9 442.8,68.3 436.8,67.5 C433.3,67 430.9,65.8 427.8,63 C425.4,61 422.1,58.6 420.3,57.6 C413.4,54.1 404.6,56.5 397.5,63.9 C394.6,66.9 392,68.5 388,69.7 C375,73.4 366.9,80.6 360,94.5 L355.5,103.5 L355.4,130 C355.3,144.6 355.2,157.6 355.1,159 C354.8,161.4 354.8,161.4 353.9,158.5 C352.9,155.3 351.3,145.5 350.6,138 C350.4,135.5 349.7,132.2 349,130.5 C347.6,126.9 342.2,98.7 341.3,90.9 C340.1,79.1 345.2,57.9 352.1,46.5 C356.2,39.6 367.9,28.2 375.2,24 C381.6,20.4 393.4,16.5 401,15.5 C411.4,14.3 431,19.2 442.7,26.1 C450.7,30.8 462.9,43.2 467.4,51.2 C471,57.7 477,72.4 478.6,78.5 C479,80.2 479.5,80.8 479.7,80 C479.9,79.2 479.4,76.5 478.6,74 C471.2,51.2 462.8,38.2 449,28.2 C444.7,25.1 441.1,22.2 441.1,21.8 C441,20.7 448.1,23 456.7,27 C468.6,32.5 480.3,42.6 490.8,56.3 C492.3,58.3 494.3,61 495.3,62.2 C497.1,64.5 497.1,64.5 495.6,61.5 C491.8,53.5 477.9,38.2 468.5,31.5 C450,18.4 427.2,12 404.3,13.4 C396,13.9 391.8,14.8 382.3,18.1 C362.9,24.8 351.7,31.3 339.2,43.4 C326.3,55.7 318,74.5 318,91.1 C318,95.1 317.5,98.2 316.9,98.6 C314.3,100.2 307.8,88.4 304.3,76 C301.2,64.9 300.5,54.6 301.9,43.5 C303.8,29.3 308.7,19.5 320.1,6.7 C326,0.1 326.1,-2.2 320.3,3.6 C314.5,9.4 308.3,18 305,24.8 C300.1,35 298.7,42 298.9,56.3 C299,64.1 298.6,69 298,69 C296.5,69 292.4,60.1 291.1,54.2 C289.5,46.7 289.7,32.5 291.5,25.7 C293.5,17.9 296,13.3 301.5,7.2 C304.1,4.3 305.9,1.6 305.5,1.2 C304.3,-1.13631327e-13 296.5,9.4 292.6,16.9 C290.6,20.8 288.5,24 288,24 C286.7,24 284,15.2 283.3,8.7 C283,5.5 282.3,2.7 281.9,2.4 C280.1,1.3 281.4,9.4 285.4,24.5 C287,30.9 288,37.2 288,42 C288,53.8 291.4,64.3 298.1,73.5 C300,76.3 304,83.1 306.9,88.7 C309.8,94.3 313.9,100.9 316.1,103.4 C318.5,106.1 320.7,110 321.6,113.2 C323.6,119.9 327.1,126.1 332.6,132.7 C335,135.5 337,138.3 337,139 C337,139.6 338.2,139.2 339.6,138.1 C342.8,135.6 347.5,135.3 348.4,137.6 C349.1,139.5 347.4,142 345.4,142 C343.9,142 341,144.7 341,146.2 C341,146.8 341.9,146.5 342.9,145.6 C345.4,143.3 348.8,144.3 349.6,147.6 C349.9,148.9 349.7,150.7 349,151.5 C348.4,152.3 348.1,153.8 348.5,155 C349,156.6 348.7,157.3 347.1,157.7 C345.9,158 345,158.9 345,159.6 C345,161.3 343.8,161.4 342.2,159.8 C341.4,159 341,158.9 341,159.7 C341,161.8 344.1,164 347.1,164 C350.1,164 350.9,165.7 348.8,167.8 C347,169.6 344.2,169.3 340.7,166.9 L337.5,164.8 L340.9,167.9 C342.7,169.6 345.3,171 346.5,171 C348.9,171 350,172.7 350,176.1 C350,177.2 350.9,179.9 352.1,182.1 C355.3,188.4 385.3,222.3 391.3,226.4 C403.2,234.5 418.8,236.7 431.1,232.1 Z M511.5,96 C512.8,93.5 517.1,88.5 521.2,84.9 C525.2,81.3 529.6,76.4 530.8,74.1 C533.1,70.1 532.9,70.2 526.8,76.5 C523.3,80.1 519.9,83 519.4,83 C518.7,83 518.4,78.2 518.6,69.3 L518.8,55.5 L518,67 C517.6,73.3 516.7,80.1 516.1,82 C514.6,86.7 509.8,95.3 508.4,95.7 C507.7,95.9 507.1,93.9 506.7,90.6 C506.4,87.6 505.6,84.3 505,83.3 C504,81.7 504,81.7 504.5,83.5 C505.3,86.7 505.4,99.1 504.6,103 L503.9,106.5 L506.5,103.5 C507.9,101.9 510.2,98.5 511.5,96 Z" id="Shape"></path>
                <path d="M157,231.6 C146.7,228.8 140.8,224.8 127.8,212.1 C120.7,205.3 115,199.2 115,198.7 C115,198.1 118.7,198 124.8,198.3 L134.5,198.9 L123.3,196.6 C109,193.6 106.5,192.6 104.9,188.8 C103.7,185.8 104.1,182.6 106.5,176.5 C107.2,174.9 106.8,175 104.3,177.3 C99.2,182.1 93.1,180.1 89.1,172.3 C87.2,168.5 87.8,161.1 90.4,156.6 C91.8,154.3 97.2,148.9 102.7,144.5 C112.1,136.8 124,125.6 124,124.3 C124,124 121.7,125.9 118.9,128.5 C111.7,135.2 111.6,133.3 118.7,125.6 C123.9,120.1 127.9,114.2 138.5,96.4 C150.8,75.7 180.1,30.1 183.1,27 C191.6,18.3 201.2,16.5 209.6,22.3 C219.1,28.7 220.3,36.1 213.9,48.9 C211.7,53.3 208.7,58.4 207.3,60 L204.7,63.1 L207.4,65.9 C210.4,69 210.7,70.5 208.4,71.4 C205.6,72.5 208,73.8 211.9,73.3 C217.1,72.6 220.5,75.7 219.6,80.2 C219.1,82.7 219.6,83.9 222.1,86.7 C225.5,90.6 225.5,93 222.2,94.5 C219.2,95.8 219.6,99.6 222.7,99.3 C225.3,99 226.4,100.3 228,105.5 C228.7,107.7 230.1,110.7 231.2,112.2 C233,114.8 233,114.9 231.2,115.9 C229.1,117 227,115.7 227,113.2 C227,112.5 226,109.6 224.9,106.9 C223.4,103.6 222.2,102 220.9,102 C219.3,102 219.5,102.8 222.5,109.2 C226.2,116.9 227.1,124.1 224.8,127.3 C224.1,128.2 221.3,130.1 218.5,131.5 C215,133.2 214.2,134 215.7,134 C216.9,134 218.2,134.5 218.5,135 C218.9,135.6 217.4,136 214.8,136 C212.4,136.1 209.4,136.7 208,137.5 C206.6,138.3 204.7,138.9 203.6,139 C202.1,139 202,138.7 203,137.5 C203.7,136.6 204,135.7 203.7,135.4 C202.8,134.5 201,135.9 201,137.6 C201,138.4 200.6,139 200,139 C199.5,139 199,139.7 199,140.5 C199,141.3 198.4,142 197.8,142 C197.1,142 197.9,143.4 199.7,145 C201.8,146.9 203.5,147.7 204.9,147.3 C206,147 207.9,147.5 209.2,148.4 C210.4,149.3 212.7,150 214.2,150 C215.8,150 217,150.4 217,150.9 C217,152 213.5,153 209.6,153 C207.3,153 206.9,153.3 207.8,154.2 C208.7,155.1 212.3,154.9 223,153.7 C235.9,152.2 237.3,152.2 241,153.6 C243.3,154.5 245.5,156.1 246.1,157.2 C246.7,158.3 247.4,158.9 247.7,158.7 C247.9,158.4 247.4,157.1 246.6,155.7 C244.6,152.8 239.2,150.4 232.8,149.5 C229.2,149 227.5,148.2 225.5,145.8 C222.8,142.6 222.7,139.7 225.1,133.4 L226,130.9 L230.1,133 C235,135.5 236.1,135.2 232,132.5 C227.1,129.2 225.4,122.7 228.8,119.8 C232.9,116.1 235.2,116.7 250.5,125.5 C253.5,127.2 255,127.7 254.1,126.7 C253,125.3 253,124.7 254,123.5 C255.1,122.2 254.8,122 252.6,122 C249.5,122 244,119.4 244,118 C244,116 249.7,117.1 255.4,120.3 C262.8,124.3 266,129.5 266,137.5 C266,141.9 265.4,143.6 262.6,147.7 C259.1,152.9 257,158.5 257,163.2 C257,164.7 256.2,166.3 255.3,166.9 C253.8,167.7 253.8,168 255,169.5 C256.2,171 256.2,171.4 254.6,172.6 C252.9,173.8 252.9,174 254.3,174.6 C257.4,175.7 256.1,178.6 252.8,178.1 C252.4,178.1 252.5,179.2 253,180.5 C253.8,182.5 253.6,183.2 252.5,183.6 C251.7,184 251,185.1 251,186.2 C251,190.8 239.5,198.9 235.8,196.9 C234.8,196.4 234,196.3 234,196.7 C234,198.3 227.5,201 221.6,202 C214.4,203.1 213.2,204 218.8,204 C223.7,204 224.7,205.1 221.9,207.6 C220.1,209.2 217.6,209.6 206.1,210.1 L192.5,210.6 L203.7,210.8 C215.7,211 217.6,211.8 214.2,215.3 C212.6,216.9 210.3,217.5 204.8,217.9 C200.4,218.3 198.2,218.8 199.3,219.2 C202.4,220.5 201.1,221.9 193.8,225.6 C180,232.5 167.6,234.6 157,231.6 Z" id="Shape"></path>
                <path d="M422.4,204.6 C421.8,203 424.7,191.1 426.1,189.3 C426.8,188.5 428.7,188.9 433.1,190.8 C438.4,193.1 439.4,193.2 441.3,192.1 C445.8,189.2 459,183 460.4,183 C462.6,183 462.4,184.5 459.5,189.3 C455.4,196.4 451.4,199.7 442.9,202.9 C434,206.3 423.4,207.2 422.4,204.6 Z" id="Shape"></path>
                <path d="M407.3,201 C404.8,200 402.9,196.5 401,189.7 C399.4,183.7 400.2,182.8 405.9,184.1 C408.9,184.8 410.7,184.7 411.4,184 C412.1,183.3 411.5,183 409.3,183 C406.4,183 400.9,179.7 402,178.6 C402.3,178.4 404.5,178.6 406.9,179.1 C409.9,179.8 413,179.7 416.6,179 C419.6,178.4 422.4,178.1 422.9,178.5 C424.7,179.6 425.2,185.7 423.9,189.4 C422.4,193.5 419.1,196.1 414,197.1 C410.7,197.7 410.8,197.8 415.5,197.9 L420.5,198.1 L418.1,200 C415.7,202.1 411.1,202.5 407.3,201 Z" id="Shape"></path>
                <path d="M375.4,189.5 C367.8,187.9 363.8,185.9 361,182.3 C359.3,180.1 359,178.5 359.2,173.1 L359.5,166.5 L365.5,164.1 C372,161.6 385.8,159 393.2,159 L397.9,159 L398.7,163.8 C399.8,170.1 399.5,181.8 398.1,185.2 C397.3,187.3 395.9,188.3 391.9,189.4 C385.7,191.3 383.5,191.3 375.4,189.5 Z" id="Shape"></path>
                <path d="M403.5,170.7 C401,168.6 400.7,167.6 400,157.5 C398.9,143.4 397.5,133.7 396.1,131.2 C394.6,128.3 394.7,123 396.3,123 C397,123 398.6,123.7 399.8,124.6 C401.1,125.5 402.3,126 402.4,125.9 C402.6,125.7 403.9,123.6 405.4,121.2 C406.9,118.9 409.2,116.5 410.6,116 C414.2,114.6 419.4,117 421.1,120.9 C422.7,124.6 423,124.6 426.3,122 C432.1,117.4 434.4,123 430.7,132.3 C429.3,135.7 427.6,141.9 426.9,146 C426.3,150.1 425.3,155 424.8,156.8 C423.7,160.5 419.7,163 414.8,163 C412.3,163 411.9,163.3 413,164 C413.8,164.5 415.9,164.7 417.6,164.4 C419.4,164.1 421.1,164.3 421.4,164.9 C422.2,166.2 418.3,168 412.5,169 C408.8,169.7 409.1,169.8 415,169.9 C421.2,170.1 421.4,170.1 419,171.5 C414.9,173.8 406.6,173.4 403.5,170.7 Z" id="Shape"></path>
                <path d="M336.7,134.9 C334.7,133.7 328.7,125.3 325.6,119.1 C322.7,113.5 320,99.7 320,90.8 C320,84 323.2,70.6 326.2,64.6 C329.4,58.3 338.4,46.6 343.7,42.1 C350.3,36.3 358.4,31 358.8,32 C359,32.5 357.4,35.3 355.2,38.2 C342.6,55.3 336.7,79.3 340.5,98.1 C341.4,102.7 342.8,109.4 343.6,113 C345.5,122 347.2,132.1 346.8,132.5 C345.5,133.8 337.9,135.5 336.7,134.9 Z" id="Shape"></path>
            </g>
        </g>
    </g>
</svg>