<svg width="486" height="647" viewBox="0 0 486 647" xmlns="http://www.w3.org/2000/svg">
  <title>
    Zaphod
  </title>
  <g fill="#57C003" fill-rule="nonzero">
    <path d="M205.5.7c-8.6 2-21.9 6.9-30.3 11.1-4.6 2.3-5.5 3.3-7 7.4-.9 2.7-1.9 4.8-2.3 4.8-.3 0-1-1.4-1.5-3.2-1.1-3.8-4-5.4-3.1-1.7.3 1.3 1.2 5.2 2 8.7.8 3.5 1.8 6.6 2.1 7 1.1 1 2.3-1.6 2.9-6.3.4-2.4 1.3-6.1 2.2-8.3 1.4-3.5 2.5-4.4 9.3-7.5C186.6 9.5 202.1 4 212 1.2l3.5-1h-4c-2.2 0-4.9.2-6 .5zM219.8 14.6c-9.4 4.8-9.2 7.2.4 5.3 4.6-.9 7.1-.8 15.8 1 13.1 2.7 19.6 5.7 26.5 12.2 6 5.7 6.5 7.3 1.3 4.1-6.7-4.1-22.1-8-20.3-5.2.4.6 5 3.1 10.2 5.5 11.2 5.3 15.3 8.2 19.4 13.8 3.8 5.2 3.8 6.8-.1 6.1-1.6-.4-3.7-.3-4.7.1-3.5 1.5-6.6 1.1-7.1-.7-.6-2.3-1.3-2.3-4.6.3-1.4 1.1-3 1.9-3.5 1.7-.5-.2-3.2-2.5-6-5.1-3.4-3.2-5.4-6-5.8-8-.7-4-2.7-7.9-4.7-9.6-1.3-1.1-1.2-.3.4 3.2 2.6 5.8 2.2 17.2-.6 21.5-3 4.5-2.5 6 .7 2.2 1.7-1.9 3.3-4.7 3.6-6.3.3-1.5.8-2.7 1.1-2.7.3 0 1.8 1.5 3.3 3.2 2.4 2.9 2.5 3.4 1 4.5-1.4 1.1-1.1 1.2 1.7 1.3 2.2 0 3.5.6 3.9 1.7.4 1 1.7 2.9 3 4.2 2.7 2.8 3 4.4.6 3.7-6-1.7-15-2.6-31.3-3.1-14.3-.5-20.4-.3-27 .9-4.6.8-8.6 1.3-8.8 1.1-.2-.2.4-1.5 1.4-2.9 1.2-2 2.2-2.5 3.7-2 2 .6 2 .6.4-1.1-1.1-1.1-1.4-2.1-.9-2.9 1-1.2 5.2-13 5.2-14.6 0-2.6-2-.5-4.4 4.7-1.5 3.2-3.4 7.1-4.3 8.8-7.5 13.4-9 16.5-7.9 16.5.6 0 1.7-.5 2.4-1.2.9-.9 1.2-.8 1.2.4 0 2-2.6 4.4-3.2 2.8-.2-.7-1.4-.3-3.1 1-1.5 1.2-2.7 1.8-2.7 1.3 0-.4-.4-.2-.9.6-1.2 1.8-.2 5.1 1.5 5.1.8 0 3.1-.7 5.1-1.5 3.7-1.6 3.8-1.5 6.6 1.5 3.7 4 5.9 4.4 19.6 3.6 18.2-1.1 18-1.1 20.7-3.9 3.6-4 8.4-3.5 9.8.9.6 2-2.1 12.1-4.4 16.4-.6 1.1-.7 2-.2 2 1.8 0 4.1-3.7 5.3-8.5.6-2.8 1.3-5.1 1.3-5.2.1-.1 2 .4 4.1 1.2 2.2.8 5.6 1.4 7.7 1.5h3.6l-.3 17.8c-.1 12.9-.6 18.5-1.6 20.4-2.3 4.2-7.3 7.7-13.4 9.3-3.2.8-6 1.6-6.2 1.8-.2.3 1.3.7 3.3 1 6.6 1.1 16.6-4.2 19.1-10.1.8-1.9 1.6-3.2 1.9-3 .2.3.5 4.8.5 10.2 0 5.3.3 9.6.7 9.6 1.3 0 1.4-16.1.2-19.1-.9-2-.9-3.3-.2-4.2.7-.8.7-6.1 0-16.1-.7-10.7-.7-15.5.1-17.3 1.2-2.6 3.1-2.3 3.1.5 0 2.9 2.1 9.2 3 9.2.5 0 .6-3 .3-6.8-.5-6.1-.3-7.3 2.5-12.7 1.9-3.9 6.2-9.2 12.1-15.1 8.9-9 12.2-14.2 14.1-22.2 1.2-5-.6-3.8-3.4 2.4-3.1 6.8-4.6 8.7-15.4 19.7-5 5.2-8.8 8.4-9.1 7.6-.2-.7-1.3-2.2-2.5-3.3-3.5-3.4-7.8-10.7-7.2-12.2.9-2.4 5.6-3.6 14.4-3.7 7.3 0 8.2-.2 8.2-1.9 0-2.3-3.4-9.2-6.6-13.5-1.3-1.7-2.4-3.7-2.4-4.3 0-1.5-2.7-5.6-7.3-11.3l-4-4.8 2.9-3c1.5-1.6 4.2-3.4 6-4.1 1.8-.6 3.1-1.5 2.8-2-.3-.4.3-.8 1.3-.8s2.7-.8 3.8-1.7l2-1.6-2 .8c-1.1.4-4 1.4-6.4 2.2-2.4.9-6.2 3.4-8.4 5.6-3.8 3.8-4.1 3.9-6.6 2.5-4-2.4-11.7-4.6-21.5-6.3-8.6-1.5-11.5-2.4-8.5-2.6.8-.1 1.8-.1 2.2 0 .5.1.6-.3.2-.9-.3-.5-.7-1-.8-1-.1.1-3.2 1.7-6.9 3.6zM314.6 26.8c-.6 1.1 2.2 2.1 10.2 3.7 1.9.4 7.7 2.7 13 5.2 7.5 3.5 10.8 5.7 15.3 10.3 3.1 3.2 5.5 6 5.4 6.2-.2.2.3.9 1.1 1.6 5 4.6-3.2-8.3-9.1-14.4-7.4-7.6-33.4-16.7-35.9-12.6z"/>
    <path d="M308.7 46.9c.4 2.9-.1 5.4-2 9.5-2.6 5.5-9.6 13.6-12.9 14.9-1 .3-1.8 1.3-1.8 2.2 0 .8-.3 1.4-.7 1.3-.5-.1-1.9.4-3.2 1.1-1.3.7-3.4 1.1-4.7.8-2.9-.5-2.9-.3-.7 6.9 3.4 10.8 8.7 13.4 12.4 6.1l2.2-4.2 1.7 3.9c1.2 3 1.8 3.6 2.3 2.4.8-2.2-.8-7.6-2.9-9.9-2.7-3-7-2.5-8.6 1.1-1.6 3.7-2.6 3.8-3.9.3-.9-2.3-.6-3 1.7-5 3-2.5 6.7-3.8 8.2-2.9.5.3.9-.2.8-1.1 0-.9.9-2.2 2.2-2.8 2.9-1.6 10.1-11.7 11.3-16.1.6-1.9 1.4-3.4 1.8-3.4 1.3 0 3.1 8.2 3.1 14.2 0 6.9 1.5 9.5 2.4 4.1 1-5.6-2.3-19.3-4.5-19.3-.5 0-.9-.7-.9-1.5 0-1.9-2.1-6.5-3.1-6.5-.4 0-.5 1.8-.2 3.9zM131.8 53.6c-1.3 1.2-.9 5.6.8 10 1.5 3.9 1.5 4.4 0 6.5-1.2 1.8-1.6 4.9-1.6 13.4 0 7.2-.6 13-1.6 16.4-2.1 7.3-8 13.5-14.7 15.7-2.9.9-5.9 2.3-6.7 3.1-1.3 1.3-1.3 1.6.4 2.8 1.4 1.1 3.4 1.3 7.2.9l5.3-.7-3.9 4.2c-3.9 4.1-7 11.6-7 16.9 0 3.4 6.4 9.3 12.6 11.5 2.7.9 6 2.6 7.3 3.7 2.3 2 2.3 2.1.7 5.5-1 2.1-1.6 5.6-1.5 8.7.1 5.1-.4 7.9-4 19.8-1.4 4.9-2.2 5.9-7.6 9.6-3.3 2.3-11.6 6.6-18.5 9.6-11.9 5.1-12.6 5.6-17.7 11.8-2.9 3.6-7.2 9.3-9.5 12.8l-4.2 6.2-3.4-3.2c-4.9-4.8-7.9-10.6-8.7-16.8-1.1-9.4-3.4-18.3-6.1-23.8-2.3-4.6-2.5-5.7-1.4-7.7.8-1.4 1-3.5.6-5.2-.4-1.5-.9-5.9-1.2-9.8-.2-4.6-1.2-8.6-2.8-12-1.8-3.6-2.6-7.2-2.9-12.8-.4-6.8-.8-8.4-3.6-12.3-1.7-2.5-3.1-4.9-3.1-5.4 0-1.4-1.7-1.3-2.2.1-.3.8-2 .7-5.8-.5-8.5-2.5-8.4-2.3-7.1-10.3.9-6 .8-7.8-.9-13.9-2.1-7.3-2.5-11.4-1.2-11.4.4 0 2.9 1.3 5.4 2.9 6.5 4.1 10 11.7 10.6 22.8.2 4.6.8 8.3 1.2 8.3 2.8 0 2.8-15.9 0-23.4-2.5-6.6-9.2-13.2-14.4-14.1-7.6-1.5-8.7 1-5.8 12.4 1.3 5 2.2 11.7 2.2 15.8v7.3h-5.3c-7.2 0-8.6 1.3-9.6 8.5-1.2 8.5-.6 47.4.6 48.6.8.8 1.3-1.5 1.8-7.3.6-6.5 1.5-10 4.4-16.3 2.1-4.4 5-9.2 6.6-10.8 2.5-2.4 3.5-2.7 10.1-2.7 9.7 0 12.4 1.1 12.4 5 0 2.2-.5 3-1.7 3-3.1.1-10.5 3.9-9.8 5 .5.8 1.4.5 2.7-.6 4.5-4.1 11.6-.1 13.9 8 1.2 4.4.6 5.5-1.8 3.4-1-.9-3.5-1.8-5.5-2-3.4-.4-3.8-.2-3.8 1.9 0 1.4-.6 2.3-1.5 2.3-.8 0-1.5.4-1.5 1 0 1.3.1 1.3 4-.7 3.4-1.6 3.4-1.6 6 1.5 1.4 1.8 3.8 5.5 5.3 8.3 2.2 4.3 2.4 5.4 1.4 7.1-.9 1.6-.9 2.2.1 2.5.6.3 1.2 1.7 1.2 3.3 0 1.6.5 4.1 1.1 5.7 1.2 2.9 2.7 15.8 3.5 30.6.5 7.7.3 9.3-1.9 14-2.1 4.7-2.9 5.5-6.8 6.6-7.5 2.3-16.2 4-20.7 4.1-4 0-4.4-.3-5.8-3.5-.8-1.9-1.4-4.7-1.3-6.3 0-1.5-.4-4.6-1-6.9-.6-2.3-1.2-6.4-1.4-9.3l-.3-5.1 5.7.7c4.2.5 6.3.2 8.5-1 6-3.3 10.3-8.6 12.8-16 1.8-5.2 2.1-8 .7-5.7-1 1.5-1.5.8-2.4-3-.4-1.4-2.1-5.6-3.8-9.3-2.2-4.8-3.4-6.4-4-5.4-1.4 2.1-1 6.6.7 10 2.1 4.1 3 12.9 1.4 15.7-1.1 2.1-1 2.2.9 1.6 2.5-.8 2.6-.2.4 3.2-3.2 4.9-9.1 8.3-14.4 8.3h-4.8l-3.2-6.5C9.2 216.9 7.4 214 7 214c-1.8 0-4.2-8.5-3.5-12.6.3-2.3.2-4.5-.4-4.8-.8-.6-1.2 2.4-1.4 10.5 0 2.3.9 5 2.6 7.5 3.3 4.8 3.4 7.8.2 11.5-3.5 4.3-4.1 8.9-2 17.3 1.7 6.7 1.7 7.7.2 16.1-2.5 13.8-3 23.3-1.8 31.3 2.2 14 8 21.7 21.6 28.2 8 3.9 15.6 6 15.4 4.4 0-.5-4.1-2.8-9-5.2-12-5.8-19.1-12.6-21.5-20.8-2.3-7.7-2.2-24.8.1-36.7 1.7-9.2 1.4-14.2-1.1-20.3-2.2-5.3-1.6-14.4 1-14.4.7 0 1.3 1.5 1.4 3.2.7 10.4 3.2 25.9 4.6 28.6 2.2 4.3 7.4 5.8 14.5 4.3 2.9-.6 7-1.1 9.2-1.1 5.5 0 10.2-2.2 13.2-6.2 3.1-4 5.7-10.9 5.7-14.9 0-1.6.5-2.9 1-2.9.6 0 1 .4 1 .8s1.6 2.3 3.5 4.2c1.9 1.9 3.5 3.9 3.5 4.3 0 .4 1.6 2.2 3.7 4 3.7 3.3 8.3 11.6 8.3 15.2 0 1.4-1.9 3.1-6.1 5.5-7.8 4.4-17.6 14.9-18.5 19.7-.4 2-.4 6.9-.1 11 .7 9 3.1 13.5 11.4 21.4 7 6.7 14.5 17.4 20.1 28.5 4.3 8.6 5.2 9.6 15.1 17.5 7.1 5.6 9.8 6.9 14.2 6.9 2.8 0 3.9 1.3 2 2.4-1.6 1-12.2 17.6-14.1 22.1-4.2 9.8-3.1 20.7 2.8 27.6 4.7 5.6 19.8 14.7 29.2 17.5 4.7 1.5 10.3 3.4 12.5 4.4 2.2 1 5.7 2.5 7.9 3.4 2.8 1.2 3.7 2 3.2 3.2-.3.9-1.5 6.8-2.6 13.2-1.2 6.5-2.5 13.3-3 15.2-1.6 5.8-1.1 9.4 1.9 14.1 1.5 2.5 5 6.3 7.7 8.4 2.7 2.2 5.2 4.2 5.7 4.5.4.3 1.2 4.3 1.7 8.9 1.3 10.1-.3 38.4-2.5 45.1-2.1 6.2-20 29.2-22.2 28.5-.7-.3-1.3 0-1.3.6s-.4.8-.9.5c-1-.6-12 1.5-13.8 2.7-2.6 1.6-.9 14.8 2.9 24 2.3 5.3 3.6 5.9 11.3 5.5 4.5-.3 5-.1 5.3 2 .5 3.1 2.4 3.9 15 5.6 19.3 2.7 25.2 1.8 25.2-4.1v-2.6l-2.3 2.1c-2.5 2.4-5.4 2.7-15.8 1.5l-6.4-.8 8.8-.5c5.5-.4 9.1-1 9.6-1.8 1.9-3.1 11.2-.7 27.1 6.7 19.7 9.3 25 11.1 32.4 11.1 8.1 0 14.5-2 19.7-6.1 8.6-6.8 9.4-12.2 2.1-13.4-7.7-1.2-16.6-3.6-20.2-5.5-6.4-3.3-18.4-13.5-20.8-17.8-1.2-2.3-5.1-6.6-8.5-9.6l-6.3-5.5 1.2-11.3c1.7-14.5 2.7-18.4 7.6-29.3 6.7-14.9 9-22.3 9.7-31.9.6-8.8.6-9 3.5-9.7 3.4-1 4.6-2.4 4.6-6 0-3.3 1-4.1 9.2-7.4 9.3-3.7 9.8-4.5 10.8-16.7.9-10.1 3-21.9 4.8-26.8.9-2.5 1-2.5 2.6 1.4.9 2.1 1.6 4.1 1.6 4.5 0 .3 1.9 2.6 4.1 5l4.2 4.4-.5 9.3c-.5 9.8-.3 10.7 2.5 11.7 1.4.5 1.7 1.9 1.7 8.2 0 9.3-2.7 29.1-4.5 32.5-3 6-11 18.8-13.6 21.5-2.9 3.2-6.6 10.7-7.5 15.4-.4 1.8 0 3.8 1.1 5.4 2 3.1 1.3 4.7-2.1 4.7-3.2 0-4.8-4-3.9-9.8.5-3.3.3-4.3-.9-4.8-1.9-.7-2.1-2.4-.3-2.4 1.5-.1 5.2-2.8 4.6-3.4-.3-.3-2.4 0-4.8.6-5.4 1.4-6.1 3.1-5.4 13.7.5 7.2.9 8.4 3 9.8 2 1.3 3.2 1.4 8.4.4 3.4-.7 6.2-1.1 6.3-.9.1.2 1.7 2.5 3.4 5.3 6.7 10.4 7.9 11.2 20.7 12.1 9.1.7 11.5-.1 11.5-3.8 0-1.2.5-1.8 1.3-1.5.7.3 4.9 1.5 9.2 2.7 4.4 1.2 10.5 3.5 13.5 5.1 9 4.7 10.1 4.9 20.7 3.8 11.7-1.1 18-2.6 18.7-4.5.4-1.1.1-1.2-1.3-.5-1 .6-7.7 1.5-14.9 2.2l-13.1 1.1-4.3-2.5c-8.7-5.1-8.4-4.5-5.2-11.3 1.5-3.2 3.2-6.2 3.8-6.6.7-.5.5-.8-.5-.8-.9 0-3 2.6-5 6-2.3 4.1-3.9 5.9-4.9 5.5-.8-.2-6-2-11.5-3.9-5.5-1.8-13.5-4-17.9-4.7-7.4-1.3-8-1.2-11.7.8l-4 2.2-2.2-3.7c-1.3-2-3.8-6.3-5.6-9.5l-3.3-5.8 1.6-4.3c.9-2.4 3.1-6.1 5-8.2 2.9-3.4 5.7-7.9 14.3-22.3 2.5-4.2 4.4-17.2 4.7-31.7.1-8.7 0-9.1-2.7-11.5-2.7-2.4-2.7-2.4-1.8-9.9 1.7-12.3 1.5-13.2-2.8-18.1-2.1-2.4-5.1-7.5-6.6-11.2l-2.7-6.9 2.7-7.3 2.6-7.3 10.1-1.2c5.5-.7 11.2-1.9 12.7-2.7l2.6-1.4-3 .5c-1.6.3-6.9.8-11.7 1.2-7.2.5-8.8.4-8.8-.8 0-2.7 3.1-5.8 5.8-5.8 4.8 0 28.2-6.9 23.7-7-.5 0-4.6.9-9 2s-10.1 2.3-12.7 2.6l-4.7.6 2.5-7.2c4.6-13.7 2.2-14.6-3.5-1.3-1.9 4.3-4.2 8.5-5.2 9.4-1 .9-1.6 1.9-1.3 2.2.3.3-.4.3-1.6 0-1.7-.4-2.1-.2-1.8.8.3.8 1.2 1.3 2.2 1.1.9-.2 1.6.1 1.6.7 0 1.9-3.2 4.1-6 4.1-1.6 0-4.4.8-6.2 1.8-4.4 2.5-6.5 2.3-7.3-.5-.3-1.3-1.3-2.3-2.3-2.3-1 0-3.7-1.6-6-3.6-2.3-1.9-4.6-3.2-5.2-2.9-.6.4 1.3 2.4 4.3 4.6 9 6.4 8.8 9.6-.6 10.1-3.3.2-6.2.8-6.4 1.4-.2.7 1.6 2.3 4 3.7 6.1 3.6 7.3 5.2 5.8 8-.6 1.2-1.1 3.8-1 5.7.1 3-.6 7.5-1.1 7.5-.1 0-.3.9-.4 2-.2 1.1-.6 3.3-1 5-.5 2-.4 2.5.2 1.5 1.5-2.4 4.4-15.8 3.7-16.9-.3-.6-.3-1.1.2-1.1.4 0 1.9-.9 3.3-1.9l2.4-1.9-1.9-3.6c-1.1-2-2.7-3.6-3.6-3.6-.9 0-2.2-.7-2.9-1.5-1-1.2-.9-1.5.7-1.5 1.1 0 2.2.3 2.6.6.3.4 3.8.8 7.7 1 5.3.2 7 0 7-1 0-.8-.7-1.9-1.5-2.6-2.2-1.8-1.9-2.7 1.6-3.9 7.1-2.5 7.2-2.4 1.8 13.1-5 14.7-7.9 29-7.9 39 0 5.6-.1 5.8-3.7 7.6-2.1 1.1-5.4 2.5-7.4 3.1-4.1 1.3-6.3 3.4-8.7 8.2-2 3.9-6.2 6.4-12.3 7.3-2.4.4-6.3 1.2-8.6 1.7-3.4.9-5.8.7-13.5-1.1-7.6-1.8-11-2.1-18.4-1.6l-9.1.6-5.1-5.4c-2.8-3-5.4-6.5-5.7-7.8-.4-1.4 0-5.8.9-9.9.8-4.1 1.8-11.6 2.2-16.7.4-5.1 1-9.4 1.3-9.6.3-.2 4 .5 8.1 1.6 6.1 1.6 9.6 1.9 18.3 1.4 12.2-.5 14.2-1.4 17.8-7.3 5-8.4 26-37 28.2-38.5.1-.1 1.2.4 2.5 1.1 1.2.6 2.7.9 3.3.5 1.5-.9-.9-2.4-3.8-2.4-1.3 0-2.3-.6-2.3-1.3 0-1.5 3.7-8 11.3-20.2 8.4-13.5 7.2-12.5 15.7-13 14.6-.8 33.7-5 43.5-9.5 5.6-2.6 16.9-10 15.2-10-.4 0-4.7 2-9.5 4.4-10.6 5.3-19.6 8.1-31.7 9.7-10.7 1.4-9.9 1.5-10.4-.8-.5-2.6-2.1-3.3-4.8-2.2-1.4.5-3.4.9-4.5.9-1.9 0-2-.2-.6-1.8 1.6-1.9 4.8-8.5 4.8-9.9 0-.6.8-1.8 1.9-2.7 2.8-2.5 3.2-7.6 2-22l-1.1-12.8 2.4-2.5c2.3-2.2 3-2.4 8.4-1.8l5.9.7.1 10.8c0 6.2.5 11.4 1.1 12.2.6.7 1.7 3.3 2.4 5.6 1.4 4.9 3.5 6.2 10 6.2 3.7 0 3.9.2 3.3 2.4-.8 3.4 1.2 4.1 3.2 1.1 2.3-3.5 2.3-10 .1-12.2-1.6-1.6-1.7-1.6-1.8.7-.1 1.4-.1 3.3 0 4.2.2 1.9-3.1 2.4-7.6 1.2-2.9-.8-4.9-7.5-6.5-21.2-1.3-11.2-1-12.2 4-12.2 2 0 2.3.4 1.8 2.7-.9 4.4 1.1 6 8.2 6.5 3.4.2 5.7.1 5.1-.3-.8-.5-.5-.9.7-1.2 1-.3-.8-.5-4.2-.5-6.8.1-8.4-.5-8.4-3.1 0-2.9 3-4.7 11-6.6 4.1-.9 9.2-2.8 11.2-4.1 2.1-1.3 3.9-2.4 4.1-2.4.3 0 .7 7.3 1 16.2.6 16.5 2.2 26.9 5.8 36.6 2.5 6.8 2.4 8.6-.3 11.2-7.9 7.5-23.1 13.8-42.8 17.8-4.7.9-8.6 2-8.8 2.4-.2.4-.9.5-1.6.2-.7-.3-3.3 0-5.7.5-3.6.8-4.6.8-5.5-.5-1-1.3-1.2-1.3-1.8.1-.9 2.5-3.6 1.8-3.6-1 0-1.4-.4-2.5-.9-2.5-1.1 0-2.1 6.3-1.1 7.3 1.8 2 36.4-5 53.6-11 6.4-2.1 18.1-9.4 19.9-12.2 1.2-2 2.2-1.1 3.5 3.1.7 2.4 3.9 9.9 7.1 16.8 3.2 6.9 7.4 17 9.4 22.4l3.6 9.9-1.6 13.5c-.8 7.3-1.9 15.3-2.4 17.5-.5 2.3-1.3 7.9-1.7 12.5-.8 9.6-.1 9-16.2 17.2-8.7 4.5-12.2 7.2-12.2 9.3 0 .2 1.4.2 3-.1 2.1-.3 3 0 3 .9 0 1.5-5.5 16.6-9 24.4-2.9 6.7-5 18-5 27 0 7.2.1 7.6 4.3 12.7 2.3 2.9 5.4 6.9 6.9 8.9 4.4 5.9 13.8 12.4 20.9 14.4 3.5.9 7.7 2.8 9.2 4.1 1.6 1.3 3.9 2.7 5.3 3 1.3.3 2.4 1.3 2.4 2.1 0 2.3 2.5.9 2.8-1.5.3-1.7-.4-2.6-3-3.6-1.8-.8-4.5-2.4-6-3.5-1.5-1.2-5.2-3-8.2-4.1-3-1-6.3-2.3-7.3-2.9-4.3-2.3-12.4-10-17.3-16.5l-5.2-6.8.4-11.2c.4-8.6 1.1-12.7 3-18.1 1.5-3.9 4.2-11.3 6.1-16.5 1.9-5.2 4.1-11.3 4.9-13.5 1.3-3.3 2.7-4.6 8.9-8.3 10.3-6 11.9-8 11.9-15 0-3.1.7-10.2 1.5-15.7s1.5-13.3 1.5-17.3c0-3.9.4-7.2.9-7.2s2.6 4.1 4.8 9.2c2.1 5 4.5 9.4 5.2 9.6 2.5.8.5-8.1-4.3-19.7-2.5-5.8-6.1-15.1-8.2-20.6-2-5.5-4.6-11.8-5.7-14-1.1-2.3-2-6-2-9 0-2.7-.2-3.8-.4-2.3-.7 4.5-2.2 3.3-5.9-4.9-4.6-9.9-8.1-22.3-10.1-34.8-1.7-11.2-1.4-37.6.8-65.8l1.3-15.7h6.1c3.4 0 8.6-.5 11.6-1 6.3-1.2 7-.7 7.6 5.3.4 3.4-.1 5.8-2.1 10.3-1.4 3.3-4.2 11.3-6.1 17.9-3.8 12.6-6.7 18.6-11 22.6-1.4 1.3-3 3.2-3.6 4.2-.9 1.6-.8 1.7 1 .8 6.3-3.4 11.9-12.4 18.5-29.6 1.5-3.9 3.9-9.7 5.4-13 1.9-4.2 2.7-7.6 2.7-11.5-.1-6.1-2.5-11-5.6-11-2.5 0-3.2-1.5-1.4-3 3.4-2.8 1.2-2.9-2.2-.1-2.1 1.7-5.8 3.5-8.3 4-4.8 1.1-13 1.5-13 .5 0-.3-.5-3.6-1.1-7.4-.7-4.8-.7-8 0-10.7.8-2.7.8-5.4 0-9.4-1-5.3-.9-5.9 2-11.7 1.7-3.4 3.1-7.5 3.1-9.2 0-2.9.2-3 4.3-3 3.8 0 13.2 1.2 19.9 2.6 3.8.8 5.2 6.3 4.3 16.6-.4 4.6-.3 7.8.3 7.8 1.1 0 3.7-13.9 3.6-19.7-.1-2.3-.8-5.3-1.7-6.7-1-1.4-1.7-3.6-1.7-5 0-3.7-7.5-17.5-12.6-23.4-5.2-5.9-4.8-6.6 1.2-1.9 6.4 5 10.4 10.1 10.4 13.3 0 9.3 15.1 29.2 33.7 44.6 4 3.2 7.8 6.8 8.4 8 1.5 2.8-1.8 6-9 8.7-6.7 2.4-8.9 4.6-12.7 12.1-2 3.9-2.9 7.4-3.2 12.3-.4 6.3 1 12.7 2.7 12.7.4 0 .7-3.9.7-8.8-.1-7.1.4-9.7 2.3-14 2.9-6.4 7.6-10.7 12.7-11.6 2.2-.4 4.9-1.7 6.2-2.9 2.2-2 2.2-2 3.7-.1 2.1 2.7 3.6.2 2.4-4.1-.6-2.1-.6-4.3.1-6 1.4-3.7 1.3-4.1-1-2-1.9 1.7-2.1 1.7-7.2-3.2-2.9-2.7-8.2-7.6-11.7-10.9-11.4-10.5-22-26.8-23.5-36.1-.5-2.5-2-5.6-4.2-8.1-3.4-4-12.7-10.5-19.4-13.5-3.4-1.5-10-2.8-10-1.9 0 .2 3.2 3.8 7.1 8 9.1 9.8 21.2 28.3 19.5 29.9-.2.3-4.5 0-9.5-.7-9.1-1.2-16.5-.7-18.8 1.2-.7.6-2.5.7-4 .3-2.7-.6-2.7-.6-.9 1.4 1.1 1.2 2.5 2.1 3.3 2.1 2 0 1.6 1.5-2.1 9.9-3.5 7.6-3.5 7.6-2.1 13.5 1.8 7.5.5 10.9-5.3 15-2.3 1.6-4.2 3-4.2 3.2 0 .3 1.7-.3 3.8-1.2 2-.9 4.3-1.8 5-2.1.9-.4 1.2 1.1 1.2 5.5 0 3.6-.5 6.2-1.1 6.4-.9.3-.9 1 0 2.6.9 1.7.8 6.1-.5 19.9-.9 9.8-1.8 18.7-2 19.8-.9 5.1-19.2 10.7-39.6 12.1l-9.6.7 1.4-5.9c.7-3.2 1.3-8.2 1.3-10.9-.1-5.6-.2-5.5-3.3 8-.9 3.8-2.3 7.5-3.1 8.1-.8.6-1.5 1.9-1.5 2.8 0 .9-.4 1.6-.9 1.6s-1.6-4.2-2.6-9.3c-1-5-2.4-10.8-3.2-12.7-2.2-5.5-10-18.4-19.1-31.8-5.9-8.7-8.2-13-7.9-14.4.3-1.1.3-1.7 0-1.4-.3.3-1.3.1-2.2-.3-1.1-.6-2.3-.4-3.6.5-2.7 2-12.5 1.8-18.3-.4-9.1-3.5-18.1-10.9-22.7-18.8-2.6-4.4-7.9-19.3-7.2-20.1.3-.2 2.8.3 5.5 1.2 7.8 2.6 8.2 1.3.7-2.5-6.3-3.3-6.9-4-10.6-10.9-2.2-4.1-4.5-8.2-5.3-9-2.1-2.4-4.6-7.8-4.6-9.8 0-1 1.6-5.2 3.5-9.2 2-4.1 3.4-7.6 3.1-7.8-.2-.2-1.9 1.4-3.8 3.6-2.3 2.7-4 6.1-4.8 9.7-1.6 6.4-2.5 3.7 8.5 23.4 2.6 4.8 5.7 12.3 7.1 17.3 1.3 4.8 3.3 10.6 4.5 13 3.2 6.3 8.9 12.9 10.6 12.3.8-.3 1.1-.2.8.3-.8 1.3 5 5.5 11.4 8.2 5.5 2.3 12.8 3 18.8 1.7 3.1-.7 3.2-.6 6.7 6.5 2 4 5.9 10.3 8.7 14.2 2.7 3.8 6.1 9 7.5 11.5 1.4 2.5 4.1 7 6 10 4 6.3 5.5 11.1 9 27.7 3.4 16.4 3.3 28.8-.2 36.3-5.1 11-10.7 19.1-13.6 19.7-3.2.6-3.4 1.1-1.3 2.7 1.3.9.8 2.3-3.6 9.1-6.1 9.4-15.9 25.6-15.9 26.2 0 .6-9.4 14.4-16.2 23.6-3.5 4.8-7.4 10.5-8.8 12.8-1.4 2.3-3.5 4.5-4.8 5-6.3 2.4-29 .2-36.1-3.5-3.3-1.8-26.7-10.6-28-10.6-1.2 0-7.6-3.8-18-10.5-6-3.9-7.7-5.6-9.4-9.4-3.2-7.2-3.3-12.6-.4-19.6 2.7-6.6 12.7-24.1 15.1-26.5.8-.8 5.3-3.5 10-5.9l8.5-4.4 7 3.1c7.9 3.5 14.5 5 15.5 3.4.4-.6-1.7-1.7-5.1-2.7-3.2-.9-8.3-3-11.3-4.6-3-1.5-6.8-3.3-8.5-3.9-3.7-1.4-2.5-2.2 5.5-4 22-4.8 34.3-12.6 45-28.7 6.4-9.6 6.6-15.3.5-15.3-3.3 0-6.4-4.1-7.5-9.8-.5-2.9-1.8-6.3-2.7-7.7-2.1-2.8-6.4-5.5-8.8-5.5-1.6 0-1.7-.8-1.3-6.4.8-9 1.5-9.6 4.8-3.9 3.7 6.4 13.3 16.3 15.9 16.3 3.1 0 3.4-1.7.5-3.6-7.6-5.1-18.4-17.7-18.4-21.6 0-2.2 2.2-9.7 4.5-15.3.8-1.8.7-1.9-1-.5s-6.5 10.9-6.5 13c0 .5-.4 2-1 3.4-.9 2.4-1.1 2.5-3.7 1.1-3.4-1.8-9.4-1.8-14.8-.1-3.9 1.3-3.8 1.3 4 1.2 6-.1 8.7.3 10.6 1.6 2.5 1.6 2.6 1.8 1.5 7.7-.6 3.3-1.8 6.7-2.6 7.5-2.5 2.3-14 5.4-25.1 6.6-5.7.6-12.7 1.5-15.5 2.1-2.8.5-5.8.7-6.6.4-.9-.4-1.9-.2-2.3.4-.3.6-1.5 1.1-2.6 1.1-1 0-1.9.4-1.9.9 0 1 5.8 2.3 7.1 1.5.5-.3 3.2-.7 6.1-.8 18.9-1.3 41.3-6.5 44.4-10.5.9-1.2 1.7-1.1 4.8.8 4.1 2.6 6 5.7 7.1 11.6 1.1 6.4 3.3 9.5 8.1 11.6 2.4 1.1 4.4 2.6 4.4 3.3 0 2.3-10 14.8-15.4 19.4-2.8 2.4-7.8 5.6-11.1 7.2-6.2 3.1-26.1 8.7-49.8 14L98 363.1l-2.9-2c-1.8-1.3-4.6-5.5-7.1-10.6-2.3-4.7-6.2-11.2-8.6-14.5-3-4-3.9-6-2.9-6 2.2 0 1.8-1.8-.7-3.1-5.6-3-14-10.4-16.5-14.6-2.2-3.7-2.7-6.2-3.1-12.7l-.3-8.1 4.4-5.6c5.1-6.3 15.5-13.8 16.7-12 .5.9 1.1.7 2.1-.5 1.7-2.1 14.8-10.7 24.4-16 3.9-2.1 8.9-5.5 11.1-7.6 2.3-2.1 4.5-3.8 5-3.8 1.5 0 5.4 9.5 5.4 12.9 0 1.8-.7 6.2-1.5 9.9s-1.9 9.5-2.3 13c-1.4 10.3 1.2 5.6 5.3-9.7 4.2-15.2 4.1-17.5-.8-24.6l-3.2-4.7 5.7-5.7c3.1-3.1 8-9.4 10.8-14 4.3-6.9 5.4-9.6 6-14.9 1.2-9 3.6-11.3 12.1-11.7 3.9-.1 6.7.2 7.2.9.6.7.7.6.4-.4-.2-.8-.8-1.5-1.3-1.6-.5 0-1.6-.3-2.4-.7-.8-.3-2.6-.7-3.8-.9-1.9-.2-2.8-1.5-4.3-5.8-2.2-6.2-6.8-14.1-8.6-14.7-.7-.3.3 2.5 2.2 6.1 1.9 3.6 3.7 8.2 4.1 10.2.6 3.2.3 3.9-2.2 6-1.6 1.3-3.4 2.3-4 2.4-1.5 0-4.4 7.2-4.4 10.9 0 5.5-7 16.1-18.5 27.9-9.8 10.1-12.6 12.3-25.3 19.9-7.9 4.7-14.4 8.4-14.6 8.2-.2-.2-1.1-2.7-2-5.6-.9-2.8-3.5-7.2-5.7-9.6-2.1-2.5-3.9-4.8-3.9-5.2 0-1.9 17.5-23.7 20-25 1.6-.8 6.2-2.7 10.2-4.1 8.9-3.2 13.6-5.5 20.7-10.2 5.9-3.9 9.3-9.7 10.6-18.2.4-2.4 1.4-5.5 2.2-6.7 1-1.6 1.4-4.3 1.1-9l-.3-6.8 4.1-.3c2.5-.2 6.6.6 10 1.8 9.6 3.5 11.4 3.9 11.4 2.9 0-1.3-8.8-5.2-17.9-7.9-8.7-2.7-14.1-7.5-14.1-12.8 0-1.7-.4-3.2-1-3.2-.5 0-1 1.6-1 3.5s-.4 3.5-.9 3.5-3.1-1.5-5.7-3.3c-4.6-3-4.9-3.5-5.2-7.9-.5-7.8 4.8-15.3 16-22.8 5-3.3 5.3-5.4.5-2.9-2.4 1.4-11.9 4-12.4 3.5-.2-.2 1.6-1.5 4-2.9 5.1-3 9.9-9.9 11.7-16.7.9-3.1 1-8.5.6-17.3-.6-11.1-.5-12.7.8-12.7.9 0 2.5.9 3.6 2s2 1.6 2 1.2c0-.5-.9-1.7-2.1-2.8-3.1-2.8-5.2-7.3-5.8-12.2-.4-2.4-.9-4-1.3-3.6zM23.2 136.4c4.5 1.4 5.9 2.3 6.4 4.1.9 3.6-.2 4.5-6 4.5-4.9 0-5.7.3-9.1 3.7-2 2.1-4.8 5.9-6.1 8.5-1.3 2.7-2.7 4.8-3 4.8-.8 0-.3-18.6.6-19.9.4-.7 2.5-1.3 4.8-1.4 4.8-.1 3.4-1.7-1.5-1.7-2.5 0-3.3-.4-3.3-1.8 0-1 .3-2.2.8-2.6 1-1.1 9.8-.2 16.4 1.8zm107.3 225.8c1.4.6 2.5 1.5 2.5 1.9 0 1-12.6 7-16.9 8-2.4.5-4.6.3-7-.7-3.4-1.4-8.1-5.1-8.1-6.3 0-.3 1.9-.7 4.3-.9 2.3-.2 7.4-.9 11.2-1.6 9.3-1.8 11-1.8 14-.4zm64.7 148.2c8.1 1.7 9.1 1.7 15.1.2 3.5-.9 7.3-1.6 8.6-1.6 2.1 0 2.2.2 1.6 5.7-1 8.3-4.1 18.2-9.6 30.5-5.4 11.9-7.2 18.6-9 33.6-1.5 12.1-1.3 12.6 6.7 19.2 3 2.5 6.6 6.3 7.9 8.5 1.3 2.2 3.5 5.1 4.9 6.4l2.5 2.4-4.2 2.7c-4.5 2.8-9.7 7.6-9.7 8.8 0 .4-.4 1.3-.9 2-.7 1.1-2.3.7-8.2-1.9-10.1-4.4-19.3-5.1-26.7-1.9-4.8 2.1-5.8 2.2-12.6 1.1-4-.6-8.5-1.5-10-2L149 623v-28.1l5.4-5.7c6.4-6.9 14-17.7 15.4-22.4 1.4-4.3 3.2-20.9 3.2-29.5 0-3.8.4-6.3.9-5.8 1.5 1.8 3.1 15.3 3.1 27.4 0 12.7.4 15.1 2.6 15.1 1.6 0 1.6 0 1.8-5.6.2-2.2.6-4.6 1.1-5.3.4-.8.3-1.6-.4-2-.6-.4-1.5-5.2-2-10.7-1.1-11.4-3.7-23.1-5.9-25.6-.8-1-1.7-4-2-6.8-.4-4.8-.4-5 2.1-5 2.7 0 4.9-2.1 2.9-2.8-.7-.2-1.2-.8-1.2-1.4 0-1.3 8-.6 19.2 1.6zm37.3 111.8c6.5 4.8 12.3 7.3 20.5 8.9 8.1 1.6 8.9 2.3 6.2 5.2-1.2 1.3-2.2 2.8-2.2 3.4 0 1.5-8.7 3.3-15.9 3.3-5 0-7.5-.8-17.7-5.6-6.6-3.1-12.1-5.8-12.3-6-1.9-1.7 13-15.1 15.2-13.7.7.4 3.5 2.4 6.2 4.5z"/>
    <path d="M188.7 516.4c-.3.8-.4 4-.1 7 .3 4.6.2 5.6-1.1 5.6-.9 0-1.3.4-1 1 .3.5 1.7 1 3.1 1 1.7 0 2.4.6 2.4 1.8 0 2.8-1.1 3.4-2.6 1.4-1.2-1.5-1.3-1.5-1.4.9 0 2.9-2 5.1-4.1 4.7-1-.2-1.5.9-1.7 3.4-.2 2.2.1 3.8.7 3.8s1.1-1 1.1-2.3c0-2.8 1.8-4.7 3.7-4 .9.4 1.6-.3 2-1.7 1.2-4.4 2.3.5 2.3 10.2 0 5.9.4 9.9 1.1 10.4 1.3.8.9-38.9-.4-40.3-.5-.4-1.5.1-2.3 1.1-1.2 1.7-1.3 1.6-.9-1.7.5-3.8.1-4.8-.8-2.3zM163.9 73.2c-.1 4-.1 7.9 0 8.5.3 1.8-1.6 1.6-2.3-.2-.8-2.3-5.3-1.8-7 .7-1.1 1.5-1.6 4.5-1.6 9.3 0 5.6.5 7.9 2.5 11.4 1.6 2.7 2.5 5.7 2.3 7.6-.1 1.8.4 4 1.1 4.9.9 1.1 1 1.6.2 1.6s-.8.6.1 2c.8 1.2 2.4 2 4 2h2.7l.3 12.7c.3 11 .5 12.8 2 13.1 2.1.4 3.1-3.6 4.4-18.2.7-7.8-1-8.7-2.2-1.1-.3 2.6-1 4.2-1.6 3.9-.6-.4-.8-2.2-.5-4 .3-1.9.3-3.4-.1-3.4s-.7-2.8-.8-6.3c0-3.4-.5-10.7-1.1-16.2l-1-10-.2 8.7c0 4.9-.5 8.8-1 8.8-.4 0-2.1-1.9-3.7-4.2-2.5-3.5-2.9-5.2-3.2-11.7-.3-9.3.5-11 4.2-8.6 1.4 1 2.6 2.7 2.7 3.9 0 2 .1 2 .8.1 1.2-2.9 2.4-18.1 1.6-20.5-1.3-4.1-2.5-1.8-2.6 5.2zM276.5 87.2c-.4 1.3-3 16.1-4.5 25.8-1.1 7.3-2 9.6-3.1 7.8-.6-.8-.9.4-.9 3.2 0 3.7-2 22.4-3.2 30.4-.2 1 .2 2.1.9 2.3.7.3 1.4-1.6 1.8-5.4.4-3.2 1-6.9 1.5-8.3.7-2 .9-1.3.9 3.2.1 3.9.5 5.8 1.4 5.8.9 0 .8.3-.2.9-1 .7-1.1 1.3-.2 2.7.6 1.1 1.1 1.7 1.1 1.4.1-.3.3-5.2.5-11 .9-20.5 1.5-28.6 3-37.5 2.2-13.9 2.9-26.9 1-21.3zM317.7 92.2c-.9 7.2-2.5 13.5-4.7 17.7-2.5 5-2.5 5.4 0 4.1 1.2-.6 3.2-3.5 4.7-6.4l2.5-5.3 3.6 1.8c3.2 1.7 3.7 1.7 7.1.3 2-.9 4.2-1.8 4.9-2.1 1.2-.5 1.7-2.3.6-2.3-.3 0-1.2.7-2 1.5-.9.8-2.9 1.5-4.5 1.5-2.6 0-2.8-.2-2-1.8.5-1 1.1-3.1 1.3-4.6.2-1.4.7-2.6 1.1-2.6h1.5c.5 0 1.4 1 2 2.2 1.1 2.3 1.1 2.3.7-.2-.2-1.4-.4-2.8-.4-3.1-.1-.3-1.1-1.1-2.4-1.6-3.9-1.8-8.4.8-9.3 5.1-.3 2-1.1 3.9-1.7 4.3-.6.4-.7-.7-.3-3.1.8-4 0-9.6-1.4-9.6-.4 0-1 1.9-1.3 4.2z"/>
    <path d="M340 92.4c0 7.2-5.1 22.2-13.1 38.1-2.5 4.9-5.2 11.1-5.9 13.7-.8 2.8-2.2 5-3.4 5.6-1.4.6-1.6 1.1-.8 1.6.7.4 1.2.2 1.2-.3 0-.6.5-1.1 1.1-1.1.6 0 1.7-.7 2.6-1.5 1.8-1.9 7.3-12 7.3-13.6 0-.7.6-1.7 1.3-2.3 1.5-1.2 8.1-17.8 9.6-24.1 1.5-6.5 2.2-18.5 1.1-18.5-.5 0-1 1.1-1 2.4zM174 102.9c0 6.2 1 10 2.6 9.4 1.6-.6 3.4 3.4 3.4 7.3 0 3.3 4.4 10.8 7.5 12.8 2.2 1.4 2.5 2.4 2.5 7.4 0 7.1-.8 10.2-2.7 10.2-.8 0-1.1-.5-.8-1 .3-.6-.3-1-1.5-1-3.5 0-6 5.5-6 13.2 0 7 .6 9.8 2.1 9.8.5 0 .9-3.8.9-8.3 0-4.6.3-8.6.6-8.9.3-.4 2.1 0 4.1.8 4.2 1.8 31.5 3.2 41.7 2.2 8-.8 14.9-3.5 14.2-5.5-.7-1.8.8-1.6 3.2.4 1.9 1.6 2 2.3 1.1 6.8-1.2 5.8-.5 15.2 1.6 22.1 1.4 4.6 1.3 5-.8 8.1-3.5 5.1-7.3 6.2-23.9 6.6-8.1.2-15.1.6-15.4 1-1.4 1.3 5.3 1.9 18.4 1.5 15.2-.4 18.1-1.4 22.6-7 2.4-3.2 2.5-3.2 4.5-1.4 2.9 2.7 3 3.3-2.6-14.7-1.5-4.7-1.4-13.9.3-20.9.7-3.1-1.1-4.4-7.4-5.2-3.6-.4-4.2-.2-4.2 1.3s-1.1 2-4.7 2.6c-4.5.7-33.7-.1-39.9-1.1l-3.1-.4.9-4.6c.6-2.5.7-6.1.4-8-.9-4.6-.8-4.9 1.4-4.6 3.1.5 2.4-.4-2.4-3.2-4-2.4-4.5-3.1-5.2-7.4-1-6.8-2.6-10.2-7.2-15-2.6-2.7-4.2-5.3-4.2-6.8 0-1.3-.4-2.4-1-2.4-.5 0-1 1.7-1 3.9zM420.6 126.2c-4.4 4.5-7.1 8.3-9.1 13.1-2.9 6.6-3 6.7-6.1 6.1-3.6-.7-7.7.3-6.9 1.6.3.5 2.1.6 3.9.3 3.1-.5 3.6-.2 5 2.5.9 1.7 2.2 5.6 3 8.6 1.7 6.4 3.5 10.2 3.6 7.4 0-.9-.4-1.9-.9-2.2-.4-.3-.6-1.7-.3-3.1.2-1.4 0-2.5-.4-2.5-.5 0-.9-1.3-1-2.8-.1-2.2.5-3.1 2.8-4.1 1.5-.7 3.5-2.5 4.2-3.9.8-1.5 1.8-2.6 2.3-2.6.4.1 2.7-1.1 5-2.7 4.9-3.4 7.8-3.7 9.3-.9 1.2 2.2.3 2.8-6.2 4.9-7.4 2.4-10.9 7.1-7.3 10.1 2.1 1.7 1.9 5.7-.5 8.2-1.1 1.2-1.9 3.1-1.8 4.2.1 1.2-.5 3.9-1.2 6.1-.8 2.2-1.4 8.2-1.4 13.3l-.1 9.3-2.7-3.3c-3-3.6-6.4-13.4-7.4-21.1-.5-4.1-1.3-5.7-5.5-10-5.2-5.4-5.8-7.6-3.4-13.1.6-1.4.5-1.7-.6-1.4-.8.3-1.3 1.3-1.3 2.2.1.9-.2 1.6-.7 1.6-2 0 .3 8.6 3 11.5 4 4.2 5 6.4 6 14.1.6 3.8 2.3 9.5 4.1 13 3 6.2 9.7 13.4 12.5 13.4.8 0 1.5.8 1.5 1.7 0 1 .8 4 1.7 6.6 1.3 3.7 1.5 5.2.6 6.6-.6 1-1.4 4.4-1.8 7.7-.4 3.2-1.3 6.9-2.1 8.1-2.1 3.3-1.7 5.9 1.6 12.2 4.2 7.9 24 34 28.2 37.2 5.8 4.5 14.1 8.8 18.3 9.4 3.2.6 4.5.3 6.8-1.5 3.6-2.8 3.5-4.4-.3-2.5-4 2.1-6.3 1.9-11.8-.9-7-3.6-14-10.6-24.5-24.7-15.4-20.7-15.7-21.1-15-25.3.3-2 1-3.6 1.6-3.6.6 0 3 1.9 5.3 4.1 2.4 2.4 8.8 6.5 14.6 9.4l10.3 5.2-.1 3.9c0 2.2-.4 5.2-.9 6.9-.8 3-.8 3 1.3 1.1 1.1-1 2.2-2.7 2.4-3.7.4-2.6 2.2-2.5 2.6 0 .2 1.1.9 1.8 1.6 1.5 1.5-.6 13.5 14.5 17 21.5 4.4 8.6 3.5 11.2-6.2 17.5-9 5.8-11.3 8.6-12.3 14.3-.4 2.6-1.1 5.7-1.5 6.8-.7 1.9-.7 1.9 1.3.2 1.2-1 2.6-3.7 3.2-6.1 1.4-5.7 4-8.8 10.3-12.4 16.1-9.1 15.5-14.5-4.7-39.8l-9.4-11.9V244c0-5.2.6-11.8 1.3-14.5 1.3-4.4 1.2-5.1-.2-6.3-1.4-1.1-1.8-.3-3.3 7-1.2 5.8-1.4 8.7-.7 9.6 1.2 1.4.5 8.9-1 10.4-.6.6-3.5-.4-7.9-2.5-3.8-1.8-7.5-3.1-8.2-2.9-.8.3-1.1 0-.7-.7.4-.6.3-1.1-.3-1.1-.5 0-2.9-1.7-5.3-3.8-2.4-2-5.5-4.6-7-5.7-2.5-1.9-2.6-2.3-1.9-8 .8-5.6.9-5.8 1.6-2.8.8 3.5 2.2 4.3 3.2 1.7.5-1.3.8-1.3 2.7.4 4.2 3.9 9.1 6.2 13.3 6.2 5.6 0 6.3-1.5.8-1.7-5-.2-8.9-2-12.7-6-2.7-2.8-6.1-9.6-5.3-10.5.3-.2-.9-2-2.5-3.8-3.5-4-3.7-4.4-1-3.7 3.3.8 2.3-1.2-1.4-3-3.2-1.5-3.4-2-4.1-7.8-.6-5.5.2-13.6 2.3-26 .9-4.8 2.8-5.5 8.3-2.9 3.9 1.7 4.7 2.8 2.9 3.9-.5.3-1 1.6-1.1 2.8 0 2.2 0 2.2-1.7-.2-.9-1.4-2.5-3.4-3.5-4.5-1.8-2.1-1.8-2.1-1.2.9 1.2 5.7 6.2 15.1 12.7 23.7 4.5 5.9 6.7 9.9 7.2 12.6.6 3.9 3.9 9.2 5 8.2.3-.3-.1-2.8-.9-5.5-1.9-6.2-1.9-10.5.1-17.6.9-3.2 1.4-6.5 1.1-7.3-.3-.8-2.3-1.8-4.4-2.1-7.8-1.3-10.4-2.9-11.8-7.4-.7-2.2-.5-2.3 2.1-1.9 4.6.8 12.8 4.2 14 5.7.9 1.2 1.2 1.1 1.8-.4.5-1.5 1.4-1.7 5.4-1.2 4.3.6 4.5.5 2.8-.8-1.1-.8-3.2-1.5-4.7-1.5-2.1 0-2.9-.7-3.7-2.9-.9-2.7-1.4-2.9-8.3-3.5-4-.4-8.6-1.4-10.1-2.2-1.5-.8-3.8-1.5-5.2-1.6-1.3-.1-2.3-.5-2-.9.2-.4 0-1-.6-1.4-2.5-1.5.8-2.3 12.5-3 7-.4 12.4-1 12-1.3-1-1.1-5-1.5-15.9-1.6-7.9-.1-11-.5-11.4-1.4-.6-1.9 1.6-4 5.1-4.8 1.8-.3 5.9-2 9.2-3.7 3.3-1.7 7-3.2 8.2-3.2 2.9-.1 4.1-1.4 2.3-2.5-.9-.5-1.9-.5-2.6.1-2.7 2.2-6.5 2-9.4-.5-2-1.6-3.7-2.2-5.2-1.9-2.7.7-10.3 6.1-13.7 9.7-5.4 5.7-6.7 2-2.4-7 3.8-8 11.7-16.4 15.4-16.4 4.6 0 12.8 4.6 13.5 7.5.3 1.4 1.1 2.5 1.6 2.5 1.2 0 .2-4.8-1.4-6.7-1.7-2.1-11.1-6.3-14.1-6.3-2.2 0-4.3 1.5-9.1 6.2zM260.5 192c-.3.5-.3 1.5 0 2 .4.6.1 1.7-.5 2.5-.7.8-.9 2.6-.5 4.4 1.3 6.1-7.4 17.1-21.2 26.7-11.6 8-15.8 9.7-23.7 9.5-4.5-.1-5.7.2-4.9 1 1.7 1.7 10.2 2.3 15 1 4.7-1.3 20.1-11.2 25.8-16.6 2.1-1.9 4-3.5 4.3-3.5.2 0 .2 1.4-.2 3-.7 3.9-6.9 12.1-14.1 18.8-3.1 3-5.4 5.6-5.2 5.9 2.3 2.2 14.9-9.6 20.1-18.7l2.3-4 3.5 3.4c1.9 1.9 3.9 4.2 4.3 5.3.6 1.4.9 1.5 1.3.4.2-.8-.8-2.6-2.5-4-4.7-4.1-5.9-8.1-4.3-14.9.7-3.1 1.8-6.3 2.3-6.9.5-.7.6-4 .2-7.5-.3-3.5-.7-6.9-.7-7.6-.2-1.5-.5-1.5-1.3-.2zM190 246.8c0 4.3 6.3 16.3 10.4 19.9 3.4 3 4.9 3.7 10.1 4.5 1.2.2-.3 1.1-4 2.3-4.6 1.6-6.3 2.6-7.4 4.9-1.6 3.4-.8 5.7 4.9 13.1 2.1 2.7 4.9 7.3 6.4 10.2 1.4 2.8 3.5 5.8 4.7 6.6 1.1.8 1.9 2.3 1.7 3.3-.2 1.3.2 1.8 1.2 1.6.8-.2 4.5-.6 8.2-.9 8.3-.7 14.4 1.3 18.7 6.2 1.7 1.9 3.3 3 3.6 2.5.3-.5-.3-1.3-1.2-1.9-1-.6-1.4-1.1-.9-1.1 1.4 0-2.6-4-4.1-4-.7 0-1.3-.4-1.3-.9 0-1.7-6.3-3.1-14-3.1-8.8 0-9.6-.5-12.5-8.5-2.2-6.1-3.8-8.7-8.7-14.4-4-4.6-4.7-7.1-2.5-8.9.7-.6 6.5-2.6 12.8-4.4 6.4-1.9 10.4-3.4 9.2-3.6-3.4-.5-2.8-1.7 1.9-3.5 3.1-1.3 3.9-2 3.1-2.8-.8-.8-2.4-.7-5.9.5-2.6.9-7.9 1.6-11.7 1.6-6.7 0-7.1-.1-10.4-3.6-1.8-2-5.2-6.9-7.4-11-2.3-4.1-4.3-7.4-4.5-7.4-.2 0-.4 1.3-.4 2.8zM277 249.4c0 1.5.7 5.4 1.5 8.5 2.7 10.7 3.6 19.8 2.5 26.9-1.2 7.3-2.3 9.3-4.2 7.4-.7-.7-1.9-1.2-2.7-1.2-1.1 0-.5 1 1.6 3.2 3.1 3.1 3.3 3.1 5.2 1.4 2.8-2.6 4.4-11.6 3.8-21.1-.8-11.6-7.7-34.1-7.7-25.1zM365.1 254.5c-2.2 12.4-12.9 42.5-19.1 54.1-1.6 3.1-3 6.3-3 7 0 1.9 1.9 1.8 4.1-.2 1.7-1.5 2-1.1 5.9 6.7 5.4 10.6 13.1 23.1 18 28.9 2 2.5 6.5 9.7 9.8 16.1 3.3 6.4 6.7 12.8 7.7 14.2.9 1.5 1.5 3.2 1.3 3.9-.3.7.1 1.9.9 2.6.7.7 1.6 2.5 1.9 4 .3 1.5 1.2 4.1 1.9 5.7.8 1.7 2 5.2 2.7 7.9 1.2 4.5 1.1 5-1.5 9.9-3.6 6.9-8.8 13.1-16 19.2-3.3 2.7-7.1 6-8.6 7.3l-2.6 2.3 2.5-.7c3.4-.9 12-6.5 16.9-11 5.7-5.1 13.2-16.7 13.8-21.2 1.3-9.5-17.2-51-28.7-64.7-4.1-4.9-8.6-11.9-17.2-27.2-1.6-2.6-3.3-5.5-3.9-6.4-.9-1.2-.1-4.2 3.8-14.5 8.2-21 12.3-36.2 12.3-45.4 0-7-1.4-6.2-2.9 1.5zM157 300.8c-5.6 7.1-15.8 12.6-26.7 14.4-4 .7-7.5 1-7.7.7-.3-.2 0-2.3.6-4.6.6-2.6.6-4.7.1-5.8-.7-1.2-1.3-.2-2.7 4.6l-1.7 6.1-10.7-.6c-12-.8-12.2.2-.7 3 3.8.9 7.1 1.8 7.3 1.9 1.1.9-2.3 4.6-8.9 9.5-5.9 4.4-9.3 6.1-13.4 7-5 1-6.7 2.2-4.7 3.3.4.3 3.1.1 6-.3 7.2-1.2 19.9-10.2 24.9-17.8 1.2-1.7 2.5-2.2 6.2-2.2 16.5 0 33.7-10.4 37.5-22.8 1.2-3.7-.6-2.5-5.4 3.6zM219.4 322.3c-1.7.7-4.2 2-5.5 2.9l-2.4 1.8 2.9-1c4.4-1.6 19.7-2.4 23.7-1.3 4.2 1.2 15.6 9.7 13.5 10.1-.8.2-3.1-.5-5.3-1.4-2.7-1.2-6.8-1.8-14.3-1.9-10.7-.2-13 .1-13 1.5 0 .5 4.5.9 10.1.9 8.1.1 11.5.6 17.3 2.7 3.9 1.3 7.6 2.5 8.3 2.6 1.4.2.6 2.5-1.2 3.1-.7.3-4.4.1-8.2-.5-7.1-1.1-14.8-.4-13.8 1.3.4.5 3.6.9 7.3.9 7.4 0 10.8 1.3 8.2 3-.8.5-1 1-.4 1s2.2-.8 3.5-1.9c1.3-1 3.4-2.1 4.7-2.5 4.1-1.3 2.3-7.9-4.1-14.3-4-4.2-4-4.3-2.2-5.9 1.8-1.4 1.8-1.5.1-.6-1.2.6-3.4.5-6.4-.4-5.4-1.7-18.5-1.7-22.8-.1z"/>
    <path d="M449.1 325.9c-1.7 1.6-3.1 2.6-3.1 2.3 0-.4-.7.2-1.5 1.2-.8 1.1-1.5 1.7-1.5 1.3 0-.8 0-.8-7.2 5.2-5.8 4.8-10.9 6.1-27.8 6.8-10.3.4-14.3.1-22.7-1.6-11.6-2.4-11.6-2.4-10.8-1.2.3.5 3.1 1.8 6.3 2.8 4.7 1.5 9 1.8 24.7 1.7 21.8-.1 25.4-.9 31.7-7.3 2.1-2.2 3.8-3.7 3.8-3.5 0 .6 2-1 7.8-6.4 2.6-2.3 4.4-4.2 4-4.2-.3 0-2 1.3-3.7 2.9zM351 348.5c0 1 6.5 7.1 8.3 7.8 1.3.5 1.6 1.3 1.1 3.4-1.8 7.3-3.9 8-8 2.5-1.5-2-3.6-4.5-4.7-5.6-1.4-1.3-1.7-2.7-1.3-4.7.6-3.1-1-4.1-2.1-1.3-.8 2.2 3.2 9.5 8.3 15 4.2 4.5 6.4 5.5 6.4 2.9 0-.8.7-1.5 1.5-1.5s1.5.4 1.5.9 1.7 2.4 3.7 4.3c2 1.8 4.8 4.4 6.2 5.8 2.6 2.4 12 7.4 12.8 6.7.9-1-1.2-3.4-5.2-6-2.5-1.6-4.5-3.3-4.5-3.8s-.6-.9-1.3-.9c-3.2 0-6.8-7.6-4.4-9.2.7-.4.6-1.2-.2-2.2-2.1-2.5-3-1.9-2.4 1.8.6 4.1-.8 5.2-3.2 2.6-1.6-1.8-1.7-2.5-.6-6.1 1.4-4.8.9-5.8-5.8-10.1-4.4-2.7-6.1-3.4-6.1-2.3zM224.8 352.2c-2.3.6-5.2 2.6-7.6 5.2-6.2 6.8-14.4 12-22.2 14.2l-4.5 1.2 3.5.1c4.4.1 11-2.9 17.7-8 5.7-4.2 6.2-4 3.7 1.9-.8 2-1.6 6.4-1.8 9.7-.2 5.5-.7 6.7-6.1 14.5-3.2 4.7-7.6 12.3-9.7 17-2.2 4.7-4.6 9.8-5.4 11.5-.8 1.6-5.3 7-9.9 11.8l-8.5 8.8-4.7-.6c-6.8-.9-14.1-2.4-19.1-3.9-3.5-1.2-4.1-1.2-3.1 0 .6.7 2.5 1.7 4.2 2.3 6.1 1.9 21.7 4.3 24.1 3.7 1.3-.3 3.9-2.5 5.7-4.8 1.9-2.4 5.3-6.3 7.6-8.8 2.6-2.7 6.3-8.6 9.2-14.5 5.6-11.7 10.8-20 14.6-23.5 3.9-3.6 5.5-7.3 5.5-12.7 0-2.6 1-8.5 2.2-13.1 1.8-7 2.6-8.5 4.9-9.8 1.5-.8 3.5-1.4 4.4-1.4.9 0 1.3-.5 1-1-.7-1.1-.7-1.1-5.7.2z"/>
  </g>
</svg>
