<?xml version="1.0" encoding="UTF-8"?>
<svg width="365px" height="1032px" viewBox="0 0 365 1032" version="1.1" xmlns="http://www.w3.org/2000/svg" xmlns:xlink="http://www.w3.org/1999/xlink">
    <!-- Generator: Sketch 51.2 (57519) - http://www.bohemiancoding.com/sketch -->
    <title>zaphod</title>
    <desc>Created with Sketch.</desc>
    <defs></defs>
    <g id="Page-1" stroke="none" stroke-width="1" fill="none" fill-rule="evenodd">
        <g id="zaphod" transform="translate(1.000000, 1.000000)" fill-rule="nonzero" stroke="#57C003" stroke-width="2">
            <path d="M141.8,1028.70803 C139.1,1023.30803 137,1017.80803 137,1016.20803 C137,1014.40803 137.5,1014.50803 143.3,1017.70803 C146.8,1019.60803 153.6,1022.40803 158.4,1023.90803 C166.6,1026.60803 167.5,1026.70803 174.8,1025.60803 C179,1025.00803 184.5,1024.30803 187,1024.00803 C189.4,1023.70803 193.2,1022.80803 195.5,1021.80803 C197.7,1020.90803 200.6,1019.70803 202,1019.10803 L204.5,1018.10803 L201.5,1017.40803 C199.9,1017.00803 197.4,1016.10803 196,1015.40803 C193.6,1014.00803 193.6,1014.00803 199,1012.90803 C202,1012.30803 205.3,1011.30803 206.3,1010.80803 C208,1009.80803 207.9,1009.60803 205.4,1007.90803 C198.2,1003.20803 189.7,993.308033 191.4,991.608033 C191.7,991.308033 193,991.608033 194.3,992.208033 C195.5,992.808033 199,993.808033 202,994.508033 C209.9,996.208033 211,996.708033 207.2,997.208033 C205.4,997.408033 203.3,997.108033 202.7,996.608033 C202,996.108033 199.7,995.408033 197.5,995.008033 L193.5,994.308033 L199,999.908033 C202,1002.90803 206.6,1006.50803 209.1,1007.80803 C212.9,1009.90803 227.3,1013.70803 229.7,1013.30803 C232.6,1012.80803 238,1013.60803 238,1014.50803 C238,1015.80803 231,1022.20803 228.8,1023.00803 C225.7,1024.00803 226.9,1025.20803 232,1026.30803 C242.1,1028.50803 248.3,1027.50803 259.7,1021.80803 C262.5,1020.40803 265.6,1018.40803 266.6,1017.30803 C267.5,1016.30803 269,1015.40803 269.8,1015.40803 C270.9,1015.40803 270.6,1014.60803 268.7,1012.60803 C263.8,1007.50803 265.9,1007.10803 271.3,1012.20803 C281.7,1022.10803 284,1023.70803 290.8,1025.50803 C299,1027.80803 300.4,1027.80803 302.5,1025.70803 C304.1,1024.20803 304,1023.90803 300.6,1022.20803 C297.5,1020.60803 294.2,1016.80803 295.2,1015.90803 C295.4,1015.80803 298.2,1016.10803 301.6,1016.70803 C307.1,1017.60803 308.5,1017.50803 316.5,1015.00803 C323.1,1012.90803 326.2,1011.30803 329.3,1008.40803 L333.4,1004.60803 L327.8,1003.90803 C321.6,1003.10803 317.8,1001.20803 319.5,999.608033 C320.1,999.108033 322.3,998.108033 324.5,997.408033 C332.2,995.008033 336.7,991.708033 341.3,984.708033 C348.7,973.408033 352.6,964.008033 354,953.608033 C354.7,948.508033 355.1,944.108033 354.8,943.908033 C354.5,943.608033 353,945.208033 351.5,947.408033 C348.7,951.408033 346.1,952.908033 347.5,949.708033 C348.3,947.808033 349.3,936.008033 350.9,906.908033 C352,887.408033 353.4,881.108033 359,869.908033 C363.3,861.308033 363.8,859.508033 361.5,861.408033 C360.7,862.108033 360,862.408033 360,862.008033 C360,860.908033 351.9,866.408033 349.3,869.208033 C347.3,871.408033 347,871.508033 347.6,869.908033 C352.5,856.708033 352.3,857.608033 350.6,847.408033 C349.7,842.208033 349,835.908033 349,833.408033 C349,829.408033 350.9,816.908033 352.7,808.908033 L353.3,806.008033 L348.4,809.608033 C344.9,812.208033 343.2,814.408033 342.1,817.508033 C339.5,824.908033 339.7,819.008033 342.5,801.808033 C345.1,786.308033 350.1,764.908033 352,761.308033 C354.4,757.008033 352.9,756.508033 346.6,759.408033 C341.4,761.708033 334,769.708033 334,773.008033 C334,774.208033 333.5,775.608033 332.9,776.008033 C331.8,776.708033 332.3,751.408033 333.5,748.208033 C333.8,747.408033 334,746.308033 333.9,745.808033 C333.5,744.408033 335.1,736.508033 335.9,736.008033 C336.3,735.708033 336.7,734.108033 336.8,732.308033 C337,730.508033 337.7,727.708033 338.5,726.208033 C339.2,724.708033 339.5,723.408033 339.1,723.408033 C337.6,723.408033 329.3,732.008033 324.7,738.408033 C317,748.908033 312,756.208033 312,756.908033 C312,757.208033 310.5,760.808033 308.6,764.808033 C306.7,768.808033 304.3,775.208033 303.1,779.108033 C301,786.008033 300.3,795.408033 301.8,795.408033 C303.4,795.508033 309.7,802.108033 310.8,804.908033 C312.1,808.608033 313.7,816.308033 314.5,822.908033 C315.2,828.708033 316.6,836.408033 318.6,845.008033 C319.4,848.308033 320,852.708033 320,854.808033 C320,860.008033 315.4,865.708033 309.4,868.008033 C304.2,870.008033 303.9,872.108033 308.5,874.308033 C312.9,876.308033 315.5,878.908033 317.8,883.708033 C322.1,892.608033 322.9,897.708033 320.9,904.408033 C320,907.508033 320.1,909.108033 321.5,913.308033 C322.4,916.108033 322.8,918.908033 322.4,919.508033 C322,920.208033 319.7,915.308033 317.3,908.408033 C312.1,894.108033 308.3,887.808033 300.7,880.708033 C295.1,875.508033 287.9,870.208033 287.3,870.808033 C287.1,870.908033 288.1,873.708033 289.4,877.008033 C290.7,880.208033 292.1,885.008033 292.4,887.608033 C292.8,890.108033 293.7,892.808033 294.5,893.408033 C297.5,895.908033 294.7,896.308033 291,893.908033 C288.8,892.508033 287,891.608033 287,891.808033 C287,892.108033 288.4,894.308033 290,896.708033 C291.7,899.208033 293,902.008033 293,902.908033 C293,903.908033 293.7,908.208033 294.6,912.408033 C295.8,918.608033 295.9,921.708033 295.1,927.508033 C294.5,931.908033 294.5,935.408033 295,936.408033 C296.7,939.608033 294.8,939.308033 292.6,936.108033 C291.4,934.308033 289.6,932.908033 288.5,932.908033 C286.8,932.908033 286.4,933.908033 285.8,940.408033 C284.7,951.208033 284.5,951.508033 282.6,945.108033 C281.6,941.808033 279.5,937.808033 277.8,936.108033 L274.9,932.908033 L275.5,935.908033 C277.3,944.708033 277.2,950.108033 275,956.308033 C272.4,963.408033 271.9,963.908033 268.2,962.908033 L265.5,962.108033 L268,961.508033 C272.1,960.408033 274.5,954.908033 274.5,946.908033 C274.4,936.008033 273.5,932.708033 270.2,932.108033 C268.7,931.808033 264.4,930.608033 260.5,929.408033 C256.7,928.308033 252,927.508033 250.3,927.708033 C246.7,928.008033 246.5,927.708033 248.1,924.008033 C249.3,921.508033 253.5,919.408033 257.4,919.408033 C259.1,919.408033 259,919.108033 256.3,917.408033 C253.1,915.508033 251.9,913.408033 254,913.408033 C254.6,913.408033 255,913.808033 255,914.308033 C255,915.108033 263.1,919.408033 264.5,919.408033 C264.9,919.408033 264.4,918.408033 263.6,917.208033 C261.8,914.608033 261.5,908.208033 263,905.308033 C264.3,902.908033 262.5,902.808033 257.4,904.908033 C254.8,906.008033 254,906.008033 254.2,905.108033 C254.9,903.208033 260.9,901.508033 267.1,901.508033 C271.5,901.408033 273.1,901.808033 274.5,903.408033 C275.5,904.508033 276.8,905.408033 277.4,905.408033 C278,905.408033 279.9,906.508033 281.5,907.808033 L284.5,910.208033 L281.5,913.408033 C279.9,915.108033 275.9,917.708033 272.7,919.208033 L267,921.808033 L274.2,924.008033 C281.9,926.208033 283.9,926.108033 281.9,923.808033 C280.1,921.608033 281.6,921.008033 284.1,922.808033 C286.2,924.208033 286.5,924.208033 288.1,922.808033 C290.7,920.408033 292.3,922.008033 291.5,926.108033 C291.1,928.508033 291.2,929.408033 291.9,928.908033 C294.5,927.408033 292.3,907.108033 288.6,898.408033 C286.3,892.808033 273,886.208033 259.5,883.908033 C254.9,883.108033 250.4,881.008033 247.3,878.108033 C244,875.108033 244.5,874.308033 248.5,876.008033 C255.4,878.808033 261.7,877.308033 265,871.808033 C267,868.708033 267,868.408033 265.4,863.808033 C262.4,854.908033 257.2,850.208033 245.7,846.008033 C240.1,843.908033 236,844.508033 236,847.408033 C236,851.708033 228.2,852.808033 225.6,848.908033 C224.3,846.908033 223.3,846.508033 221.7,846.908033 C214.9,848.808033 213.9,850.308033 211.6,862.408033 C208.6,878.008033 208.6,878.108033 211.4,878.808033 C212.7,879.108033 215.1,878.908033 216.6,878.408033 C218.7,877.608033 219.5,877.708033 220.5,879.008033 C221.6,880.608033 221.9,880.608033 224.8,878.608033 C229.5,875.208033 229.8,876.008033 225.5,880.408033 C221.9,884.108033 221.5,884.308033 220.8,882.408033 C220.1,880.508033 220,880.508033 216.4,882.908033 C214.4,884.308033 211.7,885.408033 210.6,885.408033 C206.4,885.408033 204.8,887.608033 204.6,893.508033 C204.5,897.508033 206.9,909.208033 208.5,912.108033 C208.5,912.208033 210.4,911.708033 212.5,910.908033 C214.7,910.108033 217.5,909.508033 218.7,909.408033 C221.9,909.408033 224.8,913.008033 225.6,918.008033 C226,920.908033 226.6,922.108033 227.5,921.808033 C228.4,921.408033 228.9,922.708033 229.1,926.308033 C229.4,930.308033 229.2,931.408033 228,931.408033 C227.2,931.408033 223.9,933.508033 220.7,936.108033 C214.1,941.508033 214.1,941.308033 217.8,953.708033 C219.9,961.108033 222.5,964.508033 227.2,966.508033 C229.8,967.608033 230.4,967.508033 231.2,966.108033 C232.4,963.808033 233.9,964.008033 233.3,966.308033 C232.2,970.408033 225,969.508033 220.9,964.808033 C219.1,962.708033 213,947.408033 213,944.908033 C213,943.108033 211.6,942.908033 210.3,944.708033 C208.2,947.408033 206,955.208033 206,959.908033 C206,963.508033 205.7,964.508033 205,963.408033 C204.5,962.608033 204,960.708033 204,959.208033 C204,957.708033 202.9,954.108033 201.6,951.208033 C200.3,948.308033 199,945.208033 198.8,944.408033 C198.3,942.708033 194.8,950.008033 192.8,956.808033 C191.7,960.608033 191.6,960.708033 191.2,958.108033 C191,956.308033 192.3,952.308033 194.6,947.308033 C198,940.108033 198.5,939.408033 199.7,941.008033 C200.4,942.008033 201,943.708033 201,944.808033 C201.1,946.008033 201.9,948.508033 202.9,950.408033 L204.8,953.908033 L205.9,949.808033 C206.5,947.508033 207.7,945.108033 208.4,944.508033 C209.7,943.408033 209.7,942.808033 208.4,939.908033 C207.5,937.608033 207,932.708033 207,925.308033 C207,917.408033 206.4,911.708033 204.9,905.508033 C202.5,895.708033 202.7,890.408033 206.1,877.908033 C207.2,873.508033 209.5,862.708033 211.1,853.908033 C213.7,839.408033 213.8,837.808033 212.3,836.908033 C202.6,830.908033 198,821.208033 198,806.808033 C198,801.808033 197.4,795.708033 196.6,793.208033 C194.7,786.808033 187.9,777.108033 178.9,768.208033 C171.4,760.608033 168.1,758.508033 169.4,762.208033 C169.7,763.108033 171.6,768.608033 173.5,774.308033 C175.5,780.008033 177.5,787.908033 178,791.808033 C178.5,795.708033 179.6,802.908033 180.4,807.808033 C181.2,812.708033 181.7,817.108033 181.4,817.508033 C181.2,817.908033 179.1,817.408033 176.7,816.408033 C174.4,815.308033 171.7,814.408033 170.7,814.408033 C169.1,814.408033 169.2,814.808033 171.4,817.708033 C174.8,822.208033 180.5,838.308033 182,847.808033 C182.6,852.208033 183.8,856.408033 184.6,857.108033 C185.4,857.908033 185.8,859.008033 185.4,859.508033 C185.1,860.008033 183.7,859.008033 182.3,857.408033 C179.6,854.108033 176.2,852.108033 171.5,851.008033 C168.7,850.308033 168.6,850.308033 170.2,852.108033 C173.4,855.608033 176.8,870.708033 177.8,885.508033 C178.3,893.208033 179,896.708033 180.1,898.008033 C189.2,908.308033 192.2,935.208033 184.9,941.508033 C182.5,943.508033 178.4,944.008033 176,942.408033 C174.8,941.608033 174.4,942.208033 173.9,945.708033 C173.6,948.008033 173.2,941.808033 173.2,932.008033 C173.1,922.108033 172.5,910.208033 171.9,905.508033 C170.8,896.508033 167.2,880.608033 165.9,878.908033 C165.5,878.408033 164.4,875.208033 163.5,871.908033 C162.5,868.608033 160.2,863.108033 158.4,859.608033 C156.5,856.108033 155,852.508033 154.9,851.608033 C154.9,850.308033 154.7,850.408033 154,852.008033 C153.2,854.008033 154,863.808033 156,877.708033 C157.9,890.508033 156.9,913.308033 154.4,914.108033 C153.9,914.308033 152.4,912.208033 151.2,909.608033 C150,906.908033 148.2,904.008033 147.2,903.108033 C145.6,901.608033 145.5,902.208033 145.5,913.208033 C145.4,922.808033 145,926.208033 143,932.408033 C141.7,936.508033 139.8,941.208033 138.9,942.708033 L137.3,945.508033 L136.6,940.708033 C136.3,938.108033 135.5,935.208033 135,934.408033 C134.2,933.108033 133.9,933.208033 132.6,934.908033 C131.7,936.008033 131,938.108033 131,939.608033 C131,946.108033 128.7,952.708033 125.3,956.508033 C122.1,960.008033 121.3,960.408033 116.9,960.408033 C113.1,960.408033 111.8,960.008033 111,958.508033 C109.7,956.008033 109.7,954.308033 111.1,956.608033 C112.3,958.808033 118.5,960.008033 121.4,958.608033 C124.4,957.308033 127.6,950.408033 128.5,943.708033 C129.2,938.508033 129.1,938.408033 126.6,938.408033 C121.9,938.408033 116.6,935.408033 110,929.008033 C101.4,920.708033 97,917.308033 95.9,918.008033 C95.4,918.308033 95,918.108033 95,917.508033 C95,915.608033 100.8,913.308033 103.7,914.008033 C106.5,914.708033 106.5,914.708033 104.6,912.508033 C103.5,911.408033 103,910.108033 103.4,909.708033 C103.8,909.208033 104.6,909.708033 105.1,910.708033 C106.6,913.208033 107.8,912.808033 108.5,909.408033 C109,907.308033 110.3,905.708033 113,904.108033 L116.9,901.908033 L113.2,900.808033 C109.8,899.708033 109.7,899.608033 112.3,899.508033 C113.8,899.408033 116.8,900.308033 119,901.408033 C124.2,904.108033 125.4,909.008033 122,913.608033 L119.7,916.708033 L122.1,916.108033 C123.4,915.708033 125,915.408033 125.6,915.408033 C126.5,915.408033 126.5,914.308033 125.9,911.708033 C124.7,906.408033 124.8,905.708033 126.4,907.908033 C127.1,909.008033 128.1,911.408033 128.5,913.108033 C129.1,916.008033 128.9,916.508033 126.5,917.408033 C125.1,917.908033 121.6,918.408033 118.9,918.408033 C114,918.408033 112.3,919.708033 115.9,920.908033 C117,921.208033 118.1,922.108033 118.4,922.908033 C118.7,923.708033 120.8,925.308033 123.1,926.408033 L127.3,928.608033 L126.7,925.508033 C125.9,921.608033 127,921.608033 131.4,925.408033 C133.8,927.508033 135.3,930.208033 136.6,934.408033 C137.6,937.708033 138.5,940.208033 138.8,940.008033 C139,939.808033 140.2,935.608033 141.6,930.708033 C144.3,921.108033 145,905.308033 143,900.008033 C140.7,893.808033 142.3,894.308033 148,901.608033 C150.4,904.608033 152,905.908033 152,904.908033 C152,902.708033 137.7,888.708033 130.3,883.708033 C127.2,881.608033 123.1,877.708033 121.3,875.008033 C117.5,869.408033 117,867.108033 120.3,870.108033 C123.3,872.908033 126.5,874.508033 132,875.808033 C138,877.408033 141.8,876.508033 144.4,873.108033 C147.4,869.008033 147.4,856.608033 144.2,850.708033 C140.1,842.908033 132.4,839.908033 126.5,843.808033 C125.1,844.708033 123,845.208033 121.3,844.908033 C117.7,844.208033 114.6,846.508033 115.4,849.208033 C115.8,850.308033 118.7,852.408033 122.3,854.208033 C131.3,858.508033 138,865.608033 138,870.908033 C138,873.108033 137.1,872.808033 131,868.608033 C122.4,862.608033 114.5,859.108033 111.4,859.808033 C109,860.408033 108.9,860.808033 109.5,864.308033 C110.7,871.408033 105.9,876.408033 97.8,876.408033 C94.6,876.408033 94.3,885.208033 97.2,902.108033 L98.2,908.408033 L93.7,913.308033 C88.6,919.108033 88,921.608033 88,938.108033 C88,944.808033 87.6,948.308033 87,947.908033 C85.6,947.008033 85.7,925.408033 87.2,919.708033 C87.9,916.608033 89.6,913.908033 92.2,911.308033 L96,907.608033 L94.5,898.908033 C92.3,886.008033 92.5,879.008033 95.2,875.908033 C96.4,874.508033 98.3,873.408033 99.4,873.408033 C103.6,873.408033 105.9,872.108033 107.1,869.208033 C107.9,867.208033 108,866.008033 107.2,865.208033 C105.9,863.908033 104,865.008033 104,867.008033 C104,867.808033 103.3,868.408033 102.5,868.408033 C101.6,868.408033 100.7,869.108033 100.4,869.908033 C100,870.708033 99.4,871.408033 98.9,871.408033 C98.5,871.408033 97,872.408033 95.6,873.708033 C92.7,876.308033 91.4,877.308033 87.7,879.708033 C81,884.008033 81,884.008033 81,900.408033 C81,908.708033 80.7,915.408033 80.3,915.308033 C79.8,915.308033 77.8,913.108033 75.8,910.408033 C72.6,906.208033 66.5,901.108033 68.4,904.208033 C71.3,908.908033 71.9,933.708033 69.4,942.008033 C66.6,951.008033 66.1,957.808033 67.6,965.108033 C68.4,968.808033 69.7,972.208033 70.5,972.708033 C71.3,973.108033 72,974.108033 72,974.908033 C72,975.608033 73.4,977.408033 75.1,978.808033 C77.5,980.908033 78.5,981.208033 79.6,980.308033 C80.6,979.508033 81,979.508033 81,980.308033 C81,980.908033 79.9,982.108033 78.5,983.008033 C76.5,984.308033 75.2,984.408033 72,983.608033 C69.8,983.108033 68,982.908033 68,983.308033 C68,984.508033 72.3,988.208033 75,989.408033 C76.4,990.008033 78.6,991.208033 80,992.008033 C81.5,992.908033 84.4,993.308033 87.3,993.208033 C91.9,992.908033 92,993.008033 93.1,996.408033 C94.4,1000.30803 98.6,1009.10803 100.1,1010.80803 C100.6,1011.40803 101.7,1012.80803 102.4,1013.80803 C103.5,1015.50803 103.8,1015.10803 104.4,1010.10803 C104.9,1005.50803 104.6,1003.70803 103,1000.70803 C100.9,996.708033 101.3,994.708033 103.6,997.908033 C109.5,1006.30803 114.1,1011.20803 120.5,1015.80803 C124.5,1018.80803 128.6,1022.10803 129.6,1023.20803 C132.9,1026.60803 143,1031.10803 141.8,1028.70803 Z M183.4,939.908033 C186.4,936.908033 187.5,930.908033 186.7,920.908033 C185.5,904.708033 173,888.608033 173,903.208033 L173,908.108033 L176.3,907.808033 C179.1,907.508033 179.2,907.608033 177,908.208033 C174.1,909.108033 172.9,914.108033 175.2,915.908033 C176.9,917.108033 178.4,923.408033 177,923.408033 C176.5,923.408033 176,921.908033 175.8,920.208033 C175.6,918.408033 175.3,920.108033 175.2,923.908033 C175.1,930.908033 175.1,930.908033 178.6,933.208033 C180.6,934.508033 181.9,935.808033 181.6,936.208033 C181.2,936.508033 179.6,935.808033 178,934.508033 L175,932.308033 L175,936.208033 C175,939.208033 175.5,940.308033 177.3,941.208033 C180.4,942.708033 180.6,942.708033 183.4,939.908033 Z M128,933.908033 C128,932.108033 126.9,930.708033 123.8,928.708033 C121.4,927.208033 117.1,924.008033 114.3,921.608033 C105,913.808033 94.8,912.108033 103.1,919.808033 C105.5,922.008033 110.5,926.608033 114.3,930.108033 C119.9,935.308033 121.6,936.408033 124.5,936.408033 C127.6,936.408033 128,936.108033 128,933.908033 Z M283.5,929.908033 C283.5,928.308033 282.4,927.708033 278,926.708033 C275,926.008033 270,924.708033 267,923.808033 C258.4,921.208033 253.2,920.908033 250.9,922.908033 C248,925.708033 248.6,926.408033 253.9,926.408033 C256.5,926.408033 261.6,927.308033 265.1,928.408033 C269.9,930.008033 271.5,930.108033 272.1,929.208033 C272.7,928.308033 273.3,928.408033 274.7,929.608033 C278.6,932.908033 283.5,933.108033 283.5,929.908033 Z M154.1,878.908033 C151.6,859.908033 151.5,844.408033 153.9,845.808033 C154.3,846.108033 155.9,849.508033 157.4,853.308033 C160.5,861.108033 162.7,863.808033 161.5,858.308033 C160.3,852.408033 154.2,840.808033 150.7,837.708033 C146,833.608033 134,829.808033 129.3,831.008033 C125.3,832.008033 122.5,835.308033 121.5,840.208033 C120.9,842.908033 121.1,843.408033 122.7,843.408033 C123.7,843.408033 125.4,842.708033 126.4,841.908033 C127.5,841.108033 130.5,840.408033 133.2,840.408033 C138.9,840.408033 141.5,842.708033 146,851.808033 C149.4,858.408033 149.6,861.508033 147.5,869.308033 C145.7,876.208033 144.5,877.308033 138.4,878.008033 C134.5,878.508033 132.4,878.108033 127.6,876.008033 L121.8,873.308033 L124.1,876.208033 C125.4,877.708033 129.4,881.008033 132.9,883.508033 C143.1,890.408033 151.6,899.308033 153.2,904.508033 C154.5,908.908033 154.5,908.808033 154.8,897.908033 C155,891.908033 154.6,883.308033 154.1,878.908033 Z M318.1,891.208033 C316.9,887.708033 315.1,883.408033 314,881.608033 C311.8,878.108033 306.6,874.408033 303.6,874.408033 C302.3,874.408033 302,873.908033 302.4,872.708033 C302.9,871.508033 301.1,869.208033 296,864.308033 C288.5,857.008033 283,852.808033 283,854.108033 C283,854.508033 284.8,857.208033 287,860.108033 C289.1,863.008033 291.6,866.608033 292.4,868.308033 C294.1,871.608033 295.1,872.608033 300.5,876.908033 C302.6,878.608033 305.1,880.708033 306.1,881.708033 C307.2,882.608033 308.8,883.408033 309.7,883.408033 C310.9,883.408033 311.1,883.708033 310.3,884.508033 C309.5,885.308033 309.7,886.508033 311.2,889.008033 C313.5,892.908033 314.5,893.408033 313.5,890.308033 C313,889.008033 313.2,888.408033 313.8,888.808033 C314.3,889.108033 315.1,891.508033 315.5,894.108033 C315.9,896.808033 316.7,899.808033 317.3,900.908033 C318.3,902.808033 318.4,902.808033 319.2,900.208033 C319.9,898.108033 319.6,895.808033 318.1,891.208033 Z M48.6,897.108033 C55,895.208033 68.2,888.908033 78.4,882.808033 C79.7,882.008033 80.6,879.808033 81.2,875.908033 C81.7,872.708033 81.9,870.008033 81.7,869.808033 C80.6,868.708033 68.7,872.408033 64.5,875.208033 C53.8,882.208033 36,896.708033 36,898.508033 C36,900.008033 40.1,899.508033 48.6,897.108033 Z M176,889.608033 C176,875.408033 171.8,855.108033 168.3,852.208033 C167.5,851.608033 166.4,850.008033 166,848.808033 C165.1,846.408033 156,839.608033 156,841.308033 C156,841.808033 156.4,842.508033 156.9,842.808033 C158.7,844.008033 161.8,852.208033 163.4,860.408033 C166,873.508033 168.1,881.408033 169,881.408033 C170,881.408033 172,890.308033 172,894.508033 C172,897.208033 172.2,897.408033 174,896.408033 C175.6,895.508033 176,894.308033 176,889.608033 Z M48.5,883.708033 C52.4,880.408033 57.4,876.508033 59.8,874.908033 C62.1,873.408033 64,872.108033 64,872.008033 C64,872.008033 60.3,871.908033 55.8,871.908033 C51.2,871.908033 46.4,871.608033 45,871.208033 C42.6,870.508033 42.4,870.808033 38.8,882.208033 C36.7,888.708033 35,894.308033 35,894.808033 C35,895.308033 36.5,894.308033 38.3,892.608033 C40,890.908033 44.7,886.908033 48.5,883.708033 Z M289.6,884.408033 C288.9,881.408033 287.3,876.508033 286.1,873.608033 C283.4,866.808033 283.4,865.808033 286.6,867.808033 C290.6,870.508033 291.6,869.108033 288.3,865.408033 C286.7,863.508033 283.7,859.408033 281.6,856.208033 C273.7,844.108033 259.3,833.808033 247.6,831.808033 C239.2,830.308033 235.4,830.508033 226.8,832.908033 C217.9,835.308033 215.2,837.708033 214.4,843.608033 L213.7,848.308033 L217.8,846.708033 C222.6,844.908033 226.6,845.608033 227.5,848.408033 C228.6,852.008033 234.4,850.108033 235.2,845.908033 C235.4,844.408033 236.4,843.808033 239.4,843.608033 C242.9,843.308033 246.6,844.308033 253.8,847.708033 C258.2,849.808033 264.1,855.608033 266,859.908033 C268.5,865.508033 268.5,868.808033 266,872.908033 C263.7,876.608033 259.7,878.408033 253.6,878.408033 L249.5,878.508033 L253.1,880.308033 C255.1,881.308033 259,882.408033 261.7,882.808033 C267.3,883.508033 277.4,886.808033 280.8,889.108033 C282.1,889.908033 283.7,890.408033 284.3,890.108033 C285,889.908033 286.4,890.008033 287.5,890.408033 C290.6,891.608033 291,890.308033 289.6,884.408033 Z M85.8,878.708033 C87.3,877.708033 89.6,875.708033 90.8,874.208033 C92.1,872.608033 93.8,871.408033 94.6,871.408033 C95.4,871.408033 96,871.008033 96,870.408033 C96,869.908033 96.5,869.408033 97,869.408033 C97.6,869.408033 99.4,867.808033 101.1,865.908033 C102.8,864.008033 104.8,862.408033 105.6,862.408033 C106.4,862.408033 107,861.808033 107,861.008033 C107,860.208033 107.6,859.408033 108.3,859.108033 C108.9,858.908033 107.7,858.608033 105.5,858.608033 C100.5,858.508033 85,863.508033 85,865.208033 C85,865.808033 85.2,866.408033 85.5,866.408033 C86.7,866.408033 99.5,861.208033 100.6,860.308033 C101.3,859.708033 102.7,859.408033 103.7,859.608033 C105.1,860.008033 104.9,860.308033 102.5,861.508033 C100.9,862.208033 99.3,863.108033 99,863.508033 C98.7,863.808033 95.3,865.008033 91.4,866.208033 L84.4,868.308033 L83.4,874.408033 C82.8,877.708033 82.5,880.408033 82.7,880.408033 C82.9,880.408033 84.3,879.608033 85.8,878.708033 Z M75.9,866.508033 C81.4,864.008033 82.6,863.108033 82.8,860.908033 C83.1,858.408033 82.9,858.308033 80.3,858.808033 C78.8,859.108033 74.6,859.808033 71,860.408033 C57.9,862.708033 44.3,867.508033 45.6,869.508033 C46.1,870.408033 49.6,870.508033 57.8,870.008033 C67.4,869.508033 70.3,868.908033 75.9,866.508033 Z M136,868.408033 C136,866.308033 127.9,858.708033 123.8,856.908033 C113,852.208033 111.6,848.908033 117.5,842.308033 C119.5,840.008033 121,837.308033 121,835.908033 C121,834.108033 122.1,832.808033 124.7,831.108033 L128.3,828.808033 L128.2,815.308033 L128.1,801.908033 L122.3,799.208033 C119.1,797.708033 116.2,796.508033 115.8,796.408033 C115.4,796.408033 115,797.608033 114.8,799.208033 L114.4,801.908033 L113.6,798.908033 C109,780.108033 105.8,773.008033 98,764.208033 C93.1,758.608033 91.6,758.108033 93.4,762.708033 C95.4,767.408033 96.8,778.108033 97.5,793.108033 C98,804.008033 97.8,806.308033 96.7,805.908033 C96,805.608033 94.7,804.108033 93.8,802.608033 C91.6,799.008033 85,791.408033 84.1,791.408033 C83.6,791.408033 83.9,793.808033 84.7,796.708033 C86.3,802.708033 88,827.308033 87.7,838.908033 L87.5,846.808033 L96.5,848.408033 C101.5,849.308033 106.4,850.408033 107.5,850.808033 C113.1,853.008033 114,853.708033 113.4,855.908033 C113,857.708033 113.6,858.208033 118.7,859.808033 C121.9,860.708033 127,863.308033 130,865.408033 C136.5,869.908033 136,869.708033 136,868.408033 Z M307.4,866.008033 C309.2,865.308033 312.4,863.208033 314.4,861.308033 L318.2,858.008033 L317.6,851.908033 C317.2,848.608033 316.3,843.408033 315.6,840.408033 L314.2,834.908033 L314.1,840.508033 C314,844.408033 313.5,846.608033 312.4,847.508033 C310.9,848.708033 310.8,848.608033 311.6,846.408033 C312,845.008033 312.4,842.808033 312.3,841.408033 C312.2,840.008033 311.9,832.508033 311.6,824.608033 C311.1,813.208033 310.7,809.608033 309.1,806.508033 C306.8,802.108033 298.5,794.408033 296.1,794.408033 C295.1,794.408033 294,794.008033 293.5,793.508033 C292.9,792.908033 289.8,792.108033 286.5,791.508033 C281.3,790.708033 280.2,790.808033 278,792.408033 C276,793.808033 275.6,794.908033 275.8,798.008033 C275.9,800.208033 276.7,803.508033 277.4,805.408033 C278.2,807.308033 279.6,811.608033 280.5,814.908033 C281.4,818.208033 282.5,821.808033 283,823.008033 C284.4,826.508033 285.3,836.408033 284.2,836.408033 C283.7,836.408033 283,834.208033 282.6,831.608033 C282.3,828.908033 280.2,821.208033 278,814.408033 C275.8,807.608033 274,801.208033 274,800.308033 C274,797.908033 268,797.008033 261.1,798.408033 C258.1,798.908033 255.5,799.608033 255.3,799.808033 C255.1,800.008033 255.8,802.608033 256.9,805.508033 C257.9,808.508033 259.4,812.508033 260,814.408033 C262.3,820.708033 265.3,827.408033 266,827.408033 C266.4,827.408033 267.5,829.308033 268.4,831.708033 C269.3,834.008033 271.4,837.608033 273.1,839.708033 C276.1,843.308033 286.6,849.408033 289.9,849.408033 C291.7,849.408033 300.5,852.608033 301.6,853.708033 C302,854.108033 303.1,854.408033 304,854.408033 C305.8,854.408033 308.7,857.108033 307.8,857.908033 C307.5,858.208033 304.4,857.108033 300.9,855.508033 C297.4,853.908033 292.5,852.108033 290,851.408033 C287.5,850.808033 284.4,849.608033 283.2,848.708033 C278.6,845.808033 280,848.208033 285.2,852.208033 C288.1,854.408033 293.2,858.708033 296.5,861.808033 C299.8,864.808033 302.9,867.408033 303.3,867.408033 C303.7,867.408033 305.5,866.808033 307.4,866.008033 Z M51.5,862.908033 C55.7,861.108033 60.8,859.908033 74,857.808033 C79.2,857.008033 83.5,856.208033 83.6,856.108033 C83.7,856.008033 84,854.308033 84.4,852.308033 C85,848.808033 84.9,848.708033 81.3,847.608033 C63.5,842.508033 54.9,842.008033 54.1,845.908033 C53.9,847.008033 53.5,848.108033 53.1,848.408033 C52.7,848.708033 51.6,850.908033 50.6,853.408033 C48.8,857.808033 46.9,862.208033 46.2,863.708033 C45.7,864.808033 47.4,864.508033 51.5,862.908033 Z M180.4,850.708033 C180,849.108033 179.3,847.608033 178.7,847.308033 C178.2,846.908033 178.1,845.708033 178.4,844.608033 C179.4,841.708033 171.7,819.508033 169.1,817.408033 C167.7,816.308033 164.9,811.208033 165.4,810.708033 C165.7,810.408033 168.3,810.908033 171.2,811.808033 C174.1,812.708033 176.9,813.408033 177.5,813.408033 C178.8,813.408033 178.2,806.208033 176,795.708033 C174.4,787.708033 173.8,786.608033 170.3,783.708033 C168.2,781.908033 165.7,780.408033 164.8,780.408033 C163.8,780.408033 163,779.908033 163,779.408033 C163,777.608033 150.9,779.408033 147.1,781.708033 L143.6,783.808033 L147.1,784.708033 C151.8,785.908033 153,787.108033 155.6,793.008033 C157.8,798.008033 157.8,798.408033 156.4,804.508033 C155.6,808.008033 153.8,813.308033 152.5,816.208033 C149.1,823.308033 149,831.708033 152.3,834.508033 C158.7,839.908033 176.1,851.408033 180.8,853.308033 C180.9,853.408033 180.7,852.208033 180.4,850.708033 Z M44.8,843.108033 C47.3,839.408033 47.7,833.608033 45.9,825.508033 C44.3,817.908033 39.4,814.908033 36.6,819.908033 C36,821.008033 35.2,822.108033 34.8,822.408033 C34.4,822.708033 34,827.108033 33.8,832.008033 C33.6,839.308033 33.9,841.708033 35.3,843.808033 C37.8,847.608033 41.9,847.308033 44.8,843.108033 Z M85,818.408033 C83.8,801.708033 82.5,792.708033 80.9,790.808033 C80,789.708033 80.2,789.408033 82.2,789.408033 C84.7,789.408033 89.8,793.608033 93.7,798.908033 L95.9,801.908033 L95.5,798.908033 C95.3,797.308033 94.8,790.608033 94.5,784.008033 C94.1,774.408033 93.6,771.708033 92,769.408033 C90.2,766.808033 85.9,754.508033 84.5,748.208033 C84.2,746.608033 83.3,745.408033 82.5,745.408033 C81.7,745.408033 81.1,745.708033 81.1,746.208033 C81.2,746.608033 81.1,747.108033 81,747.408033 C80.9,747.708033 80.7,748.608033 80.5,749.408033 C76.5,767.508033 73.2,777.108033 69.2,782.608033 C66.4,786.308033 64.9,787.408033 61.9,787.908033 L58,788.608033 L60.2,792.708033 C62,796.308033 62.2,797.808033 61.6,804.408033 C59.5,827.408033 59.6,827.208033 57.1,829.308033 C55,831.108033 54.9,831.608033 56,834.808033 C56.6,836.708033 57.6,838.708033 58.3,839.208033 C59.3,840.108033 75.6,844.308033 82.5,845.608033 C84.3,845.908033 84.6,845.208033 85.2,838.908033 C85.6,835.108033 85.5,825.808033 85,818.408033 Z M267.9,835.308033 C264.3,829.108033 253,803.108033 253,800.908033 C253,800.108033 251.8,799.108033 250.3,798.808033 C247.6,798.108033 222.9,786.108033 212,780.208033 C207.7,777.808033 204.8,777.108033 198.7,776.708033 L190.9,776.108033 L194.5,782.708033 C199.4,791.608033 200.1,794.408033 200,805.408033 C200,817.608033 202.7,826.308033 208,831.708033 C211.7,835.308033 215.4,836.408033 217.6,834.608033 C218.4,833.808033 220.3,833.008033 227.4,830.408033 C230,829.408033 230.1,829.208033 228.7,827.608033 C227.9,826.708033 226.6,823.708033 225.9,820.908033 C225,817.308033 223.6,814.908033 220.8,812.308033 C218,809.608033 217,807.908033 217,805.608033 C217,803.208033 217.4,802.408033 218.8,802.408033 C221.7,802.408033 223.9,805.508033 225,811.008033 C226.9,820.308033 227.8,823.408033 229.4,825.908033 C230.3,827.308033 231.1,828.408033 231.3,828.508033 C231.4,828.508033 237.1,829.208033 243.9,829.908033 L256.4,831.208033 L263.4,836.208033 C267.3,838.908033 270.6,841.008033 270.8,840.908033 C271,840.808033 269.7,838.208033 267.9,835.308033 Z M31.3,836.008033 C31.6,835.208033 32.2,829.608033 32.6,823.508033 C33,817.408033 33.6,812.408033 34,812.408033 C35.5,812.408033 36,807.508033 34.8,804.908033 C32.3,799.308033 24.4,801.108033 22.4,807.908033 C20.9,812.908033 20.6,829.808033 22,832.408033 C23.1,834.408033 27.6,837.308033 29.6,837.408033 C30.3,837.408033 31,836.808033 31.3,836.008033 Z M147.4,828.608033 C146.9,825.908033 148.4,820.108033 151.4,813.308033 L152.9,809.608033 L148.2,807.908033 C145.6,807.008033 140.7,805.408033 137.3,804.408033 C131.9,802.808033 131.1,802.808033 130.6,804.108033 C129.8,806.008033 129.9,819.908033 130.6,824.508033 C131.2,828.008033 131.5,828.208033 136.9,829.408033 C140,830.008033 143.4,830.908033 144.5,831.408033 C147.3,832.508033 148,831.808033 147.4,828.608033 Z M58.4,817.808033 C58.7,814.008033 59.3,808.408033 59.6,805.408033 C60.1,800.908033 59.7,798.408033 57.4,791.908033 C55.9,787.508033 53.7,780.308033 52.5,776.008033 L50.3,768.008033 L44.9,765.308033 C40,762.708033 36.1,761.608033 25.9,759.908033 C22.5,759.308033 22.3,759.408033 18.7,764.808033 C16.7,767.908033 15,770.908033 15.1,771.608033 C15.1,772.608033 15.3,772.608033 15.7,771.708033 C16.2,770.208033 28,766.408033 32,766.408033 C35.3,766.408033 41,768.208033 42.8,769.908033 C43.9,770.908033 43,772.108033 38.1,776.308033 C33.2,780.508033 32,782.208033 32,784.508033 C32,787.808033 33.6,788.408033 34.5,785.408033 C34.8,784.308033 35.6,783.408033 36.1,783.408033 C37.4,783.408033 37.2,784.108033 35.3,787.008033 C33.7,789.508033 33.8,789.808033 38.3,798.708033 C40.8,803.808033 43.4,809.308033 44.1,810.908033 C45.1,813.308033 45.4,813.508033 45.7,812.108033 C46,811.108033 45,807.908033 43.7,805.108033 C40.4,798.408033 39,793.808033 39.1,790.508033 C39.2,788.608033 39.5,789.208033 40.5,792.608033 C41.9,797.908033 45.8,806.408033 46.8,806.408033 C47.2,806.408033 47.5,808.508033 47.6,811.208033 C47.8,817.908033 49.7,824.208033 52.6,827.108033 L55.2,829.608033 L56.4,827.208033 C57.1,825.808033 58,821.608033 58.4,817.808033 Z M19,818.108033 C19,810.708033 21.5,802.708033 24.4,800.308033 L26.5,798.608033 L24.1,796.508033 C22.8,795.308033 20.8,794.408033 19.7,794.408033 C17.3,794.408033 14,797.108033 14,799.108033 C14,799.808033 13.6,800.408033 13.1,800.408033 C11.6,800.408033 8.8,812.908033 9.5,816.808033 C10.3,820.708033 14,824.408033 17.1,824.408033 C18.8,824.408033 19,823.608033 19,818.108033 Z M41.4,808.808033 C38.9,803.908033 35.3,797.208033 33.4,793.808033 C28.4,784.908033 28.7,781.608033 35,776.208033 C37.7,773.808033 40,771.608033 40,771.308033 C40,770.108033 31.7,768.308033 28.7,768.908033 C23.9,769.908033 9.5,777.008033 7.1,779.508033 C5.9,780.808033 5,782.908033 5,784.208033 L5,786.608033 L14.4,785.908033 L23.7,785.208033 L26.2,788.508033 C27.6,790.408033 29.6,793.508033 30.5,795.408033 C31.5,797.308033 33.3,799.808033 34.5,800.908033 C35.8,802.008033 37.1,804.508033 37.5,806.408033 C38.5,811.808033 40.1,815.408033 41.5,815.408033 C42.2,815.408033 43.3,816.108033 44,816.908033 C46.8,820.208033 45.8,817.308033 41.4,808.808033 Z M13.5,795.808033 C15.3,793.908033 16.5,792.208033 16.2,791.908033 C15.2,790.908033 7.3,791.408033 5.7,792.708033 C3.8,794.108033 1,801.508033 1,805.308033 C1,808.408033 1.8,809.708033 4.5,811.208033 C6.3,812.208033 6.6,811.708033 8.4,805.708033 C9.6,801.608033 11.6,797.908033 13.5,795.808033 Z M153.8,806.208033 C155.8,804.208033 155.2,797.508033 152.8,793.508033 C148.9,787.208033 147.3,786.308033 138.3,786.008033 C133.8,785.908033 133.4,785.708033 131.2,781.708033 C127.8,775.508033 123.1,753.308033 123,743.308033 C123,740.808033 122.7,738.408033 122.3,738.108033 C121.9,737.708033 121.5,731.208033 121.3,723.608033 C121.2,716.108033 120.7,709.808033 120.3,709.708033 C119.8,709.508033 118.4,711.608033 117.1,714.308033 C114.9,718.808033 114.8,719.808033 115.4,730.008033 C115.8,736.008033 116.5,744.308033 117,748.408033 C117.5,752.508033 118.4,760.008033 119,764.908033 C119.6,769.908033 120.4,775.108033 120.6,776.708033 C120.9,778.208033 120.7,779.408033 120.2,779.408033 C119.6,779.408033 118.9,777.008033 118.5,774.208033 C118.1,771.308033 117.7,767.808033 117.5,766.408033 C115,750.308033 114.1,742.108033 113.8,732.708033 C113.6,726.508033 113.2,721.408033 112.9,721.408033 C112.6,721.408033 110.4,722.408033 107.9,723.508033 C104.6,725.208033 101.3,725.708033 94.5,725.908033 C85.8,726.108033 77,727.908033 77,729.508033 C77,729.908033 77.8,730.908033 78.9,731.608033 C79.9,732.308033 80.8,733.208033 80.9,733.708033 C80.9,734.108033 82.1,736.108033 83.5,738.208033 C84.9,740.308033 86.2,744.108033 86.6,746.908033 C87.2,752.708033 91,765.408033 92.1,765.408033 C92.9,765.408033 91.3,757.708033 89.9,755.208033 C88.1,751.708033 90.7,753.508033 96.6,759.708033 C104.7,768.108033 108.1,773.508033 111.5,783.008033 C114.4,791.208033 116.4,794.408033 118.7,794.408033 C119.4,794.408033 120,794.808033 120,795.308033 C120,795.808033 121,796.608033 122.3,796.908033 C123.5,797.308033 125.9,798.208033 127.5,799.008033 C130,800.108033 150.1,806.908033 152.1,807.308033 C152.4,807.408033 153.1,806.908033 153.8,806.208033 Z M266.9,795.808033 C272.2,795.608033 273.5,795.208033 274.8,793.208033 C275.7,791.908033 276.9,790.608033 277.4,790.208033 C279.2,788.908033 288.4,789.308033 293.6,790.908033 C296.3,791.708033 298.6,792.408033 298.6,792.408033 C298.7,792.408033 299,789.508033 299.4,786.008033 C299.7,782.508033 300.9,777.208033 301.9,774.308033 C303.7,769.108033 311.3,753.908033 314.6,748.808033 L316.2,746.408033 L310.5,746.408033 C303.2,746.408033 297.7,744.808033 292.3,741.208033 C288.7,738.808033 285.1,734.208033 284.4,731.208033 C284.3,730.708033 284.1,730.208033 284,729.908033 C283.9,729.608033 283.6,729.008033 283.5,728.408033 C283.4,727.908033 283.1,727.208033 283,726.908033 C282.9,726.608033 282.7,726.108033 282.6,725.708033 C282.5,725.208033 282.1,724.308033 281.6,723.608033 C281.2,722.908033 281.1,721.708033 281.4,720.908033 C281.7,720.108033 281.5,719.208033 281,718.908033 C278.3,717.208033 282.4,701.808033 286.5,697.908033 C292.3,692.408033 296,690.508033 305.3,688.308033 L314.9,686.008033 L314.3,683.008033 C313,675.108033 310.4,667.508033 307.6,662.708033 C304.3,656.908033 303,656.208033 302.9,659.708033 C302.8,661.608033 302.6,661.508033 301.4,658.708033 C300.7,657.008033 299.4,652.508033 298.6,648.708033 C296.7,639.508033 293.8,632.108033 290.3,627.808033 C282.5,617.708033 260.8,597.808033 252.6,593.208033 C248.3,590.708033 244.4,590.908033 228.9,594.808033 C214.9,598.208033 211.9,599.408033 208.5,602.508033 C207.4,603.508033 202.9,606.208033 198.5,608.408033 C194.1,610.708033 190.1,612.908033 189.5,613.308033 C189,613.708033 186.5,614.608033 184.1,615.308033 C179.3,616.708033 169.2,621.408033 161.7,625.808033 C157.8,628.108033 154,632.508033 154,634.708033 C154,635.308033 164.8,642.408033 165.7,642.408033 C166.2,642.408033 168.5,640.508033 171,638.308033 C173.5,636.108033 176.5,634.108033 177.8,633.708033 C185.4,631.808033 201.7,637.908033 212.2,646.608033 C216.3,650.008033 217,651.208033 218,656.208033 C218.7,659.308033 219.4,662.208033 219.7,662.608033 C220.3,663.708033 229.9,659.708033 235.5,656.008033 C243.2,650.908033 250,643.508033 253.1,636.908033 L256,630.908033 L255.4,635.708033 C254.8,640.508033 255.7,641.708033 258,638.908033 C258.7,638.108033 259.7,637.408033 260.3,637.408033 C262.4,637.408033 257.7,641.308033 254.9,641.908033 C253.3,642.308033 252,643.108033 252,643.708033 C252,645.708033 234.9,660.408033 232.5,660.408033 C232.2,660.408033 230.9,661.108033 229.6,661.908033 L227.2,663.508033 L229.1,668.308033 C231.5,674.908033 236.6,684.108033 240.1,688.508033 C243,692.208033 244.4,697.208033 241.8,694.608033 C239.5,692.308033 238.9,693.408033 239.6,698.708033 C240.4,705.208033 240.8,706.008033 247,713.008033 C249.8,716.208033 251.8,718.908033 251.5,719.208033 C251.3,719.508033 251.7,720.508033 252.4,721.608033 C253.2,722.708033 253.6,724.408033 253.3,725.508033 C253,726.508033 253.3,728.108033 254,728.908033 C254.7,729.708033 255,731.308033 254.7,732.408033 C254.4,733.508033 254.6,734.708033 255.2,735.008033 C255.7,735.308033 256,736.808033 255.9,738.208033 C255.7,739.708033 256.4,742.408033 257.3,744.208033 C258.3,746.008033 258.6,747.408033 258,747.408033 C257.4,747.408033 256.4,746.308033 255.8,744.908033 C255.2,743.508033 254.3,742.408033 253.8,742.408033 C253.3,742.408033 252.4,743.508033 251.8,744.908033 C251.2,746.308033 250.3,747.408033 249.8,747.408033 C248.7,747.408033 248.8,745.608033 250,744.908033 C250.6,744.508033 250.8,743.908033 250.5,743.408033 C250.3,743.008033 251,741.508033 252.1,740.008033 C253.3,738.508033 253.8,736.908033 253.3,736.208033 C252.9,735.508033 252.7,733.908033 252.9,732.608033 C253,731.308033 252.6,729.608033 252,728.908033 C251.3,728.108033 251,726.808033 251.3,726.008033 C251.6,725.308033 251.2,723.708033 250.4,722.508033 C249.6,721.408033 249.2,720.408033 249.6,720.408033 C250,720.408033 248.2,718.208033 245.6,715.508033 C241.8,711.408033 240.2,708.808033 237.4,702.708033 C237.4,702.508033 234.7,703.708033 231.4,705.208033 C226.2,707.708033 224.7,708.008033 218.1,707.608033 C210.1,707.108033 208.8,708.608033 216.1,709.808033 C221.5,710.708033 226.6,715.708033 226.4,720.008033 C226.1,727.208033 220.5,732.408033 213.1,732.408033 C209.7,732.408033 208.4,731.808033 205.4,728.708033 C202.8,725.908033 202,724.208033 202.2,722.208033 C202.6,719.608033 202.6,719.608033 197.6,720.108033 C190,720.908033 177.4,717.408033 168.7,712.308033 C164.7,710.008033 160.8,707.308033 160,706.408033 C157.5,703.608033 152.3,701.908033 150.5,703.408033 C148.7,704.908033 137.9,710.208033 133.1,712.008033 C131.3,712.708033 128.2,713.008033 126.3,712.708033 L122.8,712.108033 L123.3,724.008033 C123.5,730.508033 124,736.608033 124.3,737.408033 C124.6,738.208033 125.1,742.508033 125.4,746.908033 C126,755.108033 127.2,760.608033 131.6,775.308033 C134.1,783.508033 134.2,783.608033 137,783.108033 C138.5,782.708033 142.7,781.108033 146.3,779.408033 C149.8,777.808033 154.2,776.408033 156.1,776.408033 C161.8,776.308033 170.5,773.908033 170.8,772.308033 C170.9,771.408033 169.3,767.308033 167.2,763.108033 C163.7,756.208033 163.6,755.408033 165.4,756.008033 C171.4,757.808033 174.5,759.908033 181.5,766.608033 L189.3,773.908033 L197.4,773.908033 C205,773.908033 206.1,774.208033 214.5,778.308033 C219.5,780.808033 227.6,785.108033 232.7,788.008033 C243.5,794.208033 253.2,797.608033 257.5,796.808033 C259.2,796.408033 263.4,796.008033 266.9,795.808033 Z M64.7,784.908033 C65.9,784.108033 68.5,780.208033 70.4,776.208033 C73.7,769.708033 73.9,768.908033 72.5,767.308033 C69.9,764.508033 69.4,755.408033 71.6,750.808033 C73.7,746.308033 74.7,745.408033 77.6,745.408033 C78.7,745.408033 80.2,744.308033 80.9,743.008033 C82,741.008033 81.9,740.208033 79.7,736.808033 C76.4,731.508033 74.5,730.108033 72,730.908033 C69,731.908033 59.6,727.008033 56.4,722.808033 C54.9,720.908033 54,719.108033 54.3,718.808033 C54.5,718.508033 52.7,716.308033 50.1,714.008033 C44.4,708.708033 40.9,708.008033 26,709.408033 C14,710.508033 4.6,714.008033 3.4,717.708033 C3.1,718.808033 3.6,723.408033 4.5,727.908033 C6.2,735.908033 6.2,736.608033 4.5,744.108033 C3.5,748.408033 2.1,752.608033 1.3,753.508033 C0.6,754.308033 2.84217094e-14,757.108033 2.84217094e-14,759.608033 C2.84217094e-14,763.308033 0.6,764.708033 3.3,767.608033 C5,769.508033 7.7,771.608033 9.2,772.208033 C11.7,773.208033 12,773.108033 13.4,770.408033 C14.2,768.808033 14.5,767.508033 14.2,767.508033 C11.7,767.908033 8,765.408033 8,763.508033 C8,763.008033 10.8,761.408033 14.1,759.908033 C19.5,757.508033 21,757.308033 26.2,757.808033 C43.3,759.808033 65.4,772.608033 61,778.008033 C60.3,778.708033 59.4,779.108033 58.9,778.808033 C58.4,778.508033 57.4,778.708033 56.6,779.108033 C55.4,779.808033 55.4,780.408033 56.5,783.208033 C58.1,786.808033 61.1,787.408033 64.7,784.908033 Z M318.9,741.808033 C320.6,740.408033 321.8,738.908033 321.5,738.508033 C321.3,738.108033 323.5,735.308033 326.5,732.408033 C330.7,728.308033 331.7,726.708033 330.9,725.708033 C330.3,725.008033 330,723.108033 330.2,721.408033 C330.6,718.908033 330.4,718.508033 329,718.908033 C328,719.208033 326.7,718.808033 326,717.908033 C324.9,716.608033 325.1,716.408033 327.1,716.608033 C328.6,716.808033 329.4,716.408033 329.2,715.608033 C329.1,714.908033 328.8,713.608033 328.7,712.608033 C328.5,711.708033 327.5,708.808033 326.3,706.308033 C324.6,702.608033 323.6,701.608033 321,701.008033 C314.1,699.708033 311.2,700.308033 307.7,703.708033 C303.2,708.008033 302.3,711.008033 304.6,713.508033 C306.9,716.108033 305.8,717.008033 302.7,715.008033 C300.8,713.708033 299.7,713.608033 297.5,714.408033 C295.5,715.208033 294.9,715.108033 295.2,714.208033 C295.5,713.508033 296.6,712.808033 297.8,712.608033 C299.1,712.408033 300.3,711.108033 301,709.108033 C303.1,702.808033 308.5,698.408033 314.1,698.408033 C318.7,698.408033 319.1,697.908033 317.4,694.608033 C316.6,693.108033 316,691.108033 316,690.208033 C316,688.008033 316.3,688.008033 306,690.608033 C295.6,693.208033 291.1,696.108033 286.8,702.708033 C284.3,706.708033 283.5,709.108033 283.2,714.008033 C283,717.508033 283.1,721.208033 283.5,722.108033 C284,723.108033 284.4,724.408033 284.5,724.908033 C284.6,725.508033 284.8,726.208033 285,726.708033 C285.1,727.108033 285.3,727.708033 285.4,728.208033 C285.9,730.308033 289.2,735.208033 291.7,737.508033 C296.8,742.308033 301.9,744.308033 309.2,744.408033 C314.9,744.408033 316.3,744.008033 318.9,741.808033 Z M219.4,728.408033 C225,725.008033 226,720.008033 222,715.308033 C220,712.908033 218.5,712.208033 214.5,711.808033 C209.6,711.308033 209.5,711.408033 206.8,715.408033 C203.9,719.508033 203.4,721.508033 204.8,722.808033 C205.2,723.208033 205.5,724.108033 205.5,724.708033 C205.5,726.208033 211.8,730.408033 214.1,730.408033 C215.1,730.408033 217.4,729.508033 219.4,728.408033 Z M83,725.108033 C87.1,723.808033 92.3,721.508033 94.5,720.008033 C96.7,718.608033 99.3,716.808033 100.4,716.108033 C101.4,715.508033 103.3,714.108033 104.5,713.208033 C105.8,712.208033 107.2,711.408033 107.6,711.408033 C109.2,711.408033 103.5,716.408033 98.4,719.608033 C89.6,725.008033 91.4,725.808033 103.8,721.908033 C111.4,719.508033 111.8,719.208033 114.4,714.408033 L117.1,709.408033 L109,700.608033 C104.4,695.808033 100.3,690.908033 99.7,689.708033 C98.9,687.908033 97.8,687.408033 94.9,687.408033 C91.3,687.408033 74.2,684.208033 70.8,682.908033 C69.8,682.508033 66.7,683.008033 63.8,684.008033 C60.6,685.108033 55.2,685.908033 50,686.008033 C38.9,686.208033 39.3,686.008033 42,688.908033 C43.2,690.208033 47.2,692.308033 50.8,693.508033 C56.2,695.308033 58.6,695.608033 64.8,695.008033 C73.1,694.308033 73.6,695.308033 65.8,697.008033 C60.6,698.208033 55.2,697.508033 49.5,695.008033 C40.6,691.008033 38.5,692.708033 44.4,699.108033 C46.9,702.008033 49.8,703.608033 55.9,705.808033 C63.9,708.608033 64.1,708.608033 68.9,707.008033 C74.7,705.108033 75.3,705.108033 74.5,706.408033 C74.2,706.908033 71.5,708.108033 68.5,708.908033 C63.4,710.408033 62.9,710.408033 57.3,708.308033 C50.1,705.708033 46,704.908033 46,706.108033 C46,708.108033 55.7,716.108033 60.2,717.808033 C64.7,719.608033 65,719.608033 72.3,717.408033 C81.2,714.808033 84.9,715.208033 77,718.008033 C73.4,719.208033 68.8,719.908033 63.8,719.908033 L56.1,719.808033 L58.2,722.108033 C61.9,726.008033 69.7,729.408033 72.8,728.408033 C74.3,727.908033 78.9,726.408033 83,725.108033 Z M204.6,714.708033 C206,713.208033 207.8,710.708033 208.6,709.208033 C210,706.508033 210,706.408033 207.6,706.408033 C205.6,706.408033 205.2,706.808033 205.7,708.108033 C206.1,709.208033 206,709.508033 205.2,709.008033 C204.5,708.608033 204,708.908033 204,709.808033 C204,711.208033 202.8,711.808033 200.8,711.508033 C200.3,711.508033 200,712.408033 200,713.608033 C200,715.608033 199.9,715.708033 198.4,714.308033 C197.6,713.408033 196.8,712.108033 196.7,711.308033 C196.5,710.508033 196.1,709.308033 195.6,708.608033 C193.6,705.408033 192,696.308033 192,688.108033 C192,681.108033 192.6,677.808033 194.9,671.108033 C196.5,666.508033 198.5,661.408033 199.4,659.708033 C201.1,656.308033 205.9,652.408033 208.4,652.408033 C210.3,652.408033 214.4,660.008033 213.6,662.008033 C213.2,662.908033 213.8,663.408033 215.2,663.408033 C217.1,663.408033 217.2,663.008033 216.8,658.408033 C216.2,652.508033 214.8,650.708033 206,645.008033 C195.2,638.008033 181.6,633.508033 177.6,635.608033 C164.3,642.708033 153.2,670.408033 155.5,690.708033 C156,695.808033 156.8,697.608033 160.7,702.608033 C165.3,708.508033 168.3,710.208033 167.3,706.408033 C166,701.608033 171.5,700.108033 180.6,702.908033 C186.5,704.708033 190.5,709.808033 190.1,715.308033 L189.9,718.708033 L195.9,718.108033 C200.8,717.708033 202.4,717.108033 204.6,714.708033 Z M188,713.508033 C188,709.908033 183.6,705.808033 178.5,704.608033 C176.3,704.108033 173.8,703.308033 172.9,703.008033 C170.7,702.108033 168.6,704.808033 169.4,707.708033 C169.7,708.908033 171.3,711.008033 172.9,712.208033 C176,714.408033 185.8,717.608033 187.3,716.708033 C187.7,716.508033 188,715.008033 188,713.508033 Z M138,707.608033 C143.2,705.708033 149,702.508033 148.9,701.608033 C148.9,701.208033 146.1,698.708033 142.7,696.108033 L136.5,691.308033 L130.5,692.108033 C119.8,693.508033 111.9,693.008033 107.2,690.508033 C104.8,689.208033 102.6,688.408033 102.3,688.808033 C101.2,689.908033 116.1,704.208033 121.5,707.408033 C127,710.608033 129.7,710.608033 138,707.608033 Z M38.1,706.408033 C45.4,706.408033 46.1,704.808033 41.8,698.808033 C39,694.908033 38.7,694.008033 39.9,692.308033 C40.9,690.608033 40.9,689.908033 39.6,688.608033 C37.8,686.508033 39.2,683.408033 42,683.408033 C44.1,683.408033 44.5,682.408033 43.2,680.908033 C41.8,679.208033 38.9,670.708033 38.1,665.608033 L37.3,660.908033 L35.6,664.908033 C34.6,667.108033 32.3,672.108033 30.4,676.008033 C28.5,679.908033 27,683.508033 27,684.108033 C27,684.708033 26.6,685.408033 26,685.608033 C24.8,686.008033 20.8,705.208033 21.6,706.608033 C22,707.208033 24.3,707.408033 27.4,707.008033 C30.2,706.708033 35,706.408033 38.1,706.408033 Z M230.7,703.108033 C235.9,700.408033 237,698.708033 237,693.308033 C237,689.708033 236.1,686.608033 233.4,681.408033 C231.5,677.608033 229.5,674.208033 229,673.908033 C228.5,673.608033 227.9,672.108033 227.5,670.508033 C226.4,665.508033 225,665.008033 216.1,666.308033 C209.3,667.308033 207.7,667.308033 204.1,665.808033 C201.8,664.908033 199.6,664.408033 199.3,664.808033 C198.9,665.208033 197.8,668.008033 196.7,671.208033 C194.4,678.308033 193.4,698.608033 195.3,700.208033 C196.5,701.208033 206.8,703.908033 212.5,704.808033 C218,705.608033 227.6,704.708033 230.7,703.108033 Z M155.7,699.708033 C152.6,690.308033 152.6,689.508033 154.2,676.508033 C155.8,664.108033 159.3,652.108033 162.6,648.308033 C163.4,647.508033 164,646.208033 164,645.608033 C164,644.208033 149.3,634.408033 147.2,634.408033 C146.3,634.408033 143.4,633.308033 140.6,632.008033 C134.6,629.208033 121.4,627.708033 115.9,629.208033 C113.3,629.908033 110.4,629.808033 105.9,628.908033 C101.3,628.008033 100.4,627.608033 102.8,627.508033 C107.2,627.408033 106.8,626.208033 101.3,623.408033 C96.9,621.208033 96.4,621.208033 90.1,622.508033 C86.4,623.208033 79.6,623.708033 74.8,623.508033 C62.7,623.108033 56.2,624.708033 50.3,629.308033 C46.1,632.708033 45.4,633.908033 43.8,640.008033 C38.9,658.908033 39,668.308033 44.4,678.008033 L47.8,683.908033 L53.6,683.708033 C62.3,683.408033 68,680.508033 63.1,678.908033 C62,678.608033 59.8,676.808033 58.2,675.008033 C56.6,673.108033 54.3,671.308033 53.2,671.008033 C52.1,670.608033 50.6,669.608033 49.8,668.708033 C48.7,667.208033 48.8,667.108033 50.8,667.708033 C52.9,668.208033 53.1,668.008033 52.6,665.808033 C51.9,663.008033 53.6,662.508033 54.5,665.308033 C54.8,666.308033 56.4,669.108033 58.1,671.308033 C62.9,678.008033 74.7,682.908033 91.5,685.008033 L95.5,685.608033 L93,683.508033 C90.4,681.408033 91.6,680.608033 94.8,682.408033 C99.3,684.908033 111.4,689.508033 115.3,690.308033 C120.4,691.208033 130.8,690.608033 131.6,689.208033 C131.9,688.808033 131.1,687.508033 129.8,686.408033 C126.7,683.808033 129.6,683.808033 133,686.408033 C134.4,687.508033 135.8,688.408033 136.2,688.408033 C136.5,688.408033 140.7,691.308033 145.5,694.908033 C154.3,701.608033 156.7,702.708033 155.7,699.708033 Z M155.8,624.608033 C155.3,621.908033 149.4,619.108033 146,619.908033 C142.7,620.608033 139.3,623.608033 138,626.908033 C137.3,628.708033 138,629.108033 144.3,631.008033 L151.4,633.108033 L153.8,629.608033 C155,627.708033 156,625.508033 155.8,624.608033 Z M140.6,620.208033 C141.7,619.308033 144.4,618.208033 146.6,617.908033 C150.1,617.308033 151.1,617.608033 155.3,620.808033 C158.8,623.508033 160.1,624.008033 160.7,623.008033 C161.1,622.308033 162.9,621.208033 164.5,620.608033 C178.9,615.408033 202.4,604.308033 205.9,601.008033 C209.5,597.708033 216,594.608033 221.2,593.808033 C223.5,593.408033 228,592.508033 231,591.708033 C234,590.808033 238,589.908033 239.7,589.708033 C242.4,589.308033 243,588.708033 243.4,586.008033 C243.7,584.308033 244.4,579.308033 245,574.908033 C245.7,570.508033 246.7,564.408033 247.3,561.408033 C248.1,557.708033 248.5,541.008033 248.5,510.908033 C248.6,458.808033 249.3,449.108033 254.1,433.108033 C256.1,426.508033 256.1,426.108033 254.5,419.308033 C251.8,408.308033 250.9,409.608033 245.4,433.908033 C241.4,451.708033 240.2,458.308033 238.7,469.908033 C237.2,481.108033 237.3,483.008033 239.2,494.408033 C240.9,504.608033 242.1,537.908033 241,545.408033 C240.5,548.608033 240.7,548.908033 242.8,548.608033 C247,548.008033 245,550.208033 240.3,551.308033 C237.6,551.908033 233.9,553.108033 232,553.808033 C227.6,555.508033 212.2,559.408033 205.5,560.508033 C171.3,566.108033 147.1,567.208033 132.1,564.008033 C124.8,562.408033 123.6,562.408033 122.3,563.708033 C119.9,566.108033 120.4,574.908033 123.8,590.908033 C125.6,599.208033 127.4,610.108033 127.7,615.208033 C128.3,624.808033 128.9,626.008033 133,626.608033 C134.8,626.808033 135.9,626.208033 137.1,624.408033 C138,623.008033 139.6,621.108033 140.6,620.208033 Z M126,621.508033 C126,616.208033 122.2,591.108033 120,581.608033 C117.6,571.608033 117.5,568.808033 119.5,565.008033 C120.4,563.408033 120.9,562.008033 120.8,561.908033 C120.6,561.708033 118.3,560.908033 115.5,559.908033 C110.1,558.108033 107,555.908033 107,553.708033 C107,552.108033 108.7,552.008033 109.4,553.708033 C111.3,558.108033 106.7,528.308033 103.8,517.908033 C103.2,515.708033 102.4,509.208033 102,503.408033 C101.5,496.508033 101.3,502.908033 101.5,522.408033 C101.8,552.308033 102.5,561.108033 105.3,567.408033 C111.8,582.108033 117.4,600.608033 119.6,614.408033 C121.6,626.508033 121.5,626.308033 123.9,625.708033 C125.5,625.308033 126,624.408033 126,621.508033 Z M106.3,620.508033 C95.4,611.208033 92,608.708033 87.7,606.708033 C81.6,603.808033 80.2,603.808033 74.3,606.708033 C68.3,609.508033 66.8,610.808033 61.9,617.008033 C57.9,622.208033 57,624.108033 59.2,622.808033 C59.9,622.308033 66.5,621.608033 74,621.208033 C81.4,620.708033 90,620.108033 93.1,619.808033 C97.6,619.308033 99.6,619.708033 102.8,621.308033 C105,622.408033 107.2,623.908033 107.6,624.608033 C108.2,625.508033 108.5,625.508033 108.8,624.408033 C109.1,623.708033 107.9,621.908033 106.3,620.508033 Z M174.5,562.508033 C181.7,561.808033 190.2,560.708033 193.5,560.108033 L199.5,558.908033 L200.1,552.908033 C201.2,543.408033 205.5,527.808033 208.2,523.708033 C209.6,521.608033 212.6,517.808033 215,515.208033 C219.8,509.808033 225.8,507.408033 234.3,507.408033 C239.1,507.408033 239.2,507.408033 238.5,504.708033 C237.9,502.308033 237,495.108033 235.3,480.808033 C234.9,477.208033 235.9,470.008033 238.9,454.308033 C241.2,442.608033 243.5,431.508033 244,429.808033 C244.5,428.208033 245.4,424.808033 246,422.308033 C246.5,419.908033 247.6,415.208033 248.3,411.908033 C249.3,407.608033 249.6,401.608033 249.2,390.808033 C248.7,376.208033 248.8,375.508033 251.5,368.808033 C253,365.008033 256.5,357.608033 259.2,352.408033 C265.5,340.508033 266.3,334.408033 263.1,321.308033 C261.9,316.508033 261,310.208033 261,307.308033 L261,302.008033 L257,305.908033 C254.8,308.008033 253,309.308033 253,308.708033 C253,308.008033 258.1,302.408033 264.3,296.108033 C276.8,283.408033 277.1,283.208033 278.9,278.708033 C281.3,272.708033 277.5,251.108033 273.1,246.608033 C269.1,242.508033 266.9,241.008033 263,239.508033 C261.1,238.808033 258.6,237.808033 257.5,237.408033 C249,233.808033 222.6,231.308033 214.1,233.408033 C207.8,234.908033 198.9,242.008033 191.9,251.208033 C184.2,261.308033 183.3,270.608033 188,292.408033 C190.2,303.208033 190.4,305.408033 189,305.408033 C188.5,305.408033 188,303.908033 187.9,302.208033 C187.9,298.708033 186.2,293.608033 186.1,296.408033 C186,297.208033 185.3,299.308033 184.4,300.908033 C183.5,302.608033 181.9,306.208033 180.8,308.908033 C179.7,311.708033 178.2,315.308033 177.5,316.908033 C173.4,325.808033 172.6,330.808033 172.5,347.908033 C172.3,359.508033 171.8,367.008033 170.7,371.408033 C168.4,380.908033 164,395.508033 162.8,397.808033 C161.2,400.908033 159.3,410.008033 158,420.908033 C156.6,434.008033 153.2,457.908033 152.1,462.708033 C151.7,464.708033 151.6,466.408033 152,466.408033 C152.5,466.408033 155.4,464.308033 158.5,461.808033 C161.6,459.308033 164.4,457.408033 164.7,457.708033 C164.9,458.008033 164.1,459.108033 162.8,460.208033 C161.6,461.308033 158.4,464.008033 155.8,466.208033 C153.2,468.408033 150.7,470.408033 150.2,470.508033 C149.2,470.908033 146,487.708033 146,492.608033 C146,496.308033 147.2,496.208033 155.6,492.008033 C159.4,490.108033 162.6,488.708033 162.8,488.908033 C163.5,489.608033 154.7,494.608033 150.6,495.808033 L146.5,497.008033 L145.8,503.908033 C144.8,514.008033 145.6,549.808033 147,557.108033 C147.8,561.308033 148.7,563.408033 149.8,563.808033 C151.8,564.308033 156.9,564.108033 174.5,562.508033 Z M145.6,561.208033 C144,555.508033 142.3,530.908033 142.8,520.508033 L143.3,509.208033 L140.9,509.908033 C137.6,510.908033 132.2,516.108033 129.7,520.908033 C127.6,524.608033 127.5,526.108033 127.8,542.308033 C127.9,551.908033 128.2,559.908033 128.4,560.108033 C128.8,560.608033 141.9,563.208033 144.4,563.308033 C145.8,563.408033 146.1,562.908033 145.6,561.208033 Z M125.8,542.208033 C125.5,525.008033 125.6,523.708033 127.7,519.808033 C130.2,515.108033 136.1,509.608033 140.2,508.208033 C142.7,507.308033 143,506.708033 143,503.008033 L143,498.708033 L136,497.508033 C132.2,496.808033 128.7,495.708033 128.3,495.208033 C127.9,494.408033 128.5,494.308033 130.1,494.808033 C131.4,495.108033 135.1,495.708033 138.3,496.108033 C143.4,496.608033 144,496.508033 144,494.808033 C144,491.608033 145.9,476.308033 146.5,474.308033 C147.1,472.508033 147,472.508033 142.8,474.408033 C140.1,475.608033 136.4,476.308033 133,476.308033 C129,476.308033 128.1,476.008033 129.5,475.408033 C130.6,474.908033 132.7,474.508033 134.1,474.508033 C135.5,474.408033 139.4,473.108033 142.7,471.408033 L148.7,468.408033 L149.8,461.708033 C153.1,441.908033 155,429.108033 155.5,421.908033 C156.1,414.008033 157.5,407.908033 161.1,397.408033 C162.1,394.408033 163.7,388.808033 164.6,384.908033 C165.5,381.108033 166.6,377.508033 167,376.908033 C168.2,375.208033 171.1,362.408033 170.5,361.308033 C170.1,360.808033 168.7,356.508033 167.3,351.608033 C164.7,342.608033 163.4,340.008033 161.9,341.008033 C160.3,341.908033 160.9,338.508033 163.5,332.208033 C166.2,325.508033 166.8,317.008033 164.9,309.908033 C164.3,307.708033 163.3,303.308033 162.6,300.108033 C162,296.908033 161.1,294.608033 160.7,295.008033 C160.3,295.408033 160,294.908033 160,293.808033 C160,292.708033 161.6,289.408033 163.5,286.408033 C170.3,275.708033 171.2,272.908033 170.5,266.108033 C169.5,257.308033 165.6,242.108033 163.4,238.308033 C160.9,234.008033 156.1,231.708033 146,229.908033 C129.5,227.008033 117.9,228.308033 105.9,234.408033 C98,238.508033 85.8,255.308033 83.1,265.808033 C81.7,271.508033 83.2,282.408033 86,286.908033 C87.1,288.608033 88.7,291.408033 89.7,293.208033 C91.6,296.808033 92.6,297.208033 93.4,294.708033 C93.7,293.708033 93.8,294.908033 93.5,297.308033 C93.3,299.708033 92,305.308033 90.6,309.808033 C85.4,326.708033 85.3,337.408033 90.2,358.908033 L92.4,368.908033 L94.6,361.908033 C96.3,356.708033 96.8,355.708033 96.9,357.908033 C96.9,359.608033 95.2,366.008033 93,372.308033 C87.9,387.008033 86.1,402.008033 88.5,411.008033 C89.3,414.208033 90,417.608033 90,418.608033 C90,419.608033 90.4,420.408033 90.9,420.408033 C91.4,420.408033 92.1,422.508033 92.4,425.208033 C92.8,427.808033 93.8,432.408033 94.6,435.408033 C98.8,450.708033 100,454.008033 101,452.308033 C102.1,450.708033 102.9,461.508033 103.5,486.908033 C103.9,500.308033 104.6,510.908033 105.5,513.908033 C107.4,521.108033 109.9,535.308033 111.3,546.908033 L112.5,556.908033 L117.5,558.608033 C126.6,561.708033 126.1,562.908033 125.8,542.208033 Z M214.5,556.008033 C217.8,555.208033 224.4,553.608033 229.1,552.408033 L237.6,550.208033 L238.8,543.008033 C240,536.108033 239,515.308033 237.4,511.008033 C236.6,508.908033 232,508.908033 225.2,510.908033 C220.6,512.308033 219.4,513.308033 215.4,518.708033 C212.8,522.108033 209.7,527.308033 208.3,530.208033 C205.8,535.408033 203.1,547.908033 203,554.208033 C203,557.008033 203.3,557.408033 205.8,557.408033 C207.3,557.308033 211.2,556.708033 214.5,556.008033 Z M277.8,233.908033 C280.2,227.908033 282.2,212.308033 281.9,201.108033 C281.7,191.608033 284.2,164.908033 287.1,145.408033 C290.2,125.208033 293.6,112.008033 298.6,100.908033 C301.1,95.4080326 304.8,87.3080326 306.7,82.9080326 C308.6,78.5080326 312.4,70.2080326 315.1,64.4080326 C317.8,58.6080326 321.1,50.6080326 322.5,46.5080326 C325.5,37.7080326 325.2,36.3080326 318.3,27.2080326 C308.5,14.4080326 298.8,11.3080326 279,14.8080326 C270.9,16.3080326 265.3,18.2080326 263.2,20.2080326 C262.5,20.8080326 261.5,21.4080326 261,21.4080326 C258.3,21.4080326 254.9,26.5080326 253.9,32.0080326 C252.6,38.8080326 253.2,66.2080326 254.8,73.9080326 C257.5,86.8080326 258.2,96.9080326 257,102.908033 C255.5,110.208033 244.1,145.108033 241,151.908033 C238.9,156.508033 233.1,170.408033 226.6,186.408033 C225.2,190.008033 222,196.808033 219.5,201.508033 C214.1,212.108033 212.3,217.108033 211.4,225.008033 L210.8,231.108033 L222.1,230.708033 C236.7,230.108033 249.7,232.408033 265.5,238.308033 C274.6,241.608033 274.5,241.708033 277.8,233.908033 Z M116,228.508033 C124.3,225.608033 133.2,225.608033 146.5,228.308033 C152,229.508033 157.5,230.708033 158.8,231.008033 C162.7,232.108033 162.3,228.108033 156.5,207.408033 C149.1,181.008033 145.2,165.208033 144,156.408033 C143.4,151.708033 142.4,145.008033 141.9,141.408033 C138.9,122.608033 139.1,106.508033 142.5,94.4080326 C145.6,83.3080326 147.8,71.7080326 148.2,64.3080326 L148.7,56.6080326 L145.1,55.1080326 C143.1,54.3080326 140.2,53.3080326 138.5,53.0080326 C136.9,52.6080326 133.7,51.9080326 131.5,51.3080326 C129.3,50.7080326 124.1,50.1080326 120,49.8080326 C112.3,49.3080326 107.1,48.0080326 103.5,45.9080326 C98.3,42.7080326 72.5,35.4080326 58.1,32.9080326 C41.9,30.1080326 24.3,30.8080326 13.2,34.7080326 C11.3,35.3080326 9,37.2080326 7.9,39.1080326 C6.1,42.0080326 6,42.6080326 7.3,45.6080326 C9.7,51.2080326 13.4,53.8080326 31.5,62.0080326 C33.7,63.0080326 35.7,64.1080326 36,64.4080326 C36.3,64.7080326 44.3,68.9080326 53.9,73.7080326 C63.4,78.5080326 73.1,83.7080326 75.4,85.3080326 C79.2,87.9080326 88.7,93.3080326 93.7,95.8080326 C97.1,97.5080326 97.7,99.6080326 99.9,116.408033 C103.2,141.808033 103.8,167.308033 102,197.408033 C101.5,205.908033 100.8,217.108033 100.5,222.308033 C100.1,227.508033 99.8,232.008033 99.8,232.308033 C99.6,234.908033 100.4,235.008033 104.8,233.008033 C107.4,231.708033 112.4,229.708033 116,228.508033 Z M147.8,44.9080326 C147.2,40.0080326 146.1,34.9080326 145.2,33.7080326 C142.4,29.3080326 114.8,22.8080326 109.5,25.2080326 C107.5,26.1080326 107,26.9080326 107.5,28.2080326 C108.8,31.0080326 109.3,35.7080326 108.4,35.2080326 C97.1,29.8080326 91.2,27.7080326 85,26.9080326 C82.5,26.5080326 77.4,25.4080326 73.5,24.4080326 C60.6,21.0080326 49.4,20.0080326 39.4,21.2080326 C34.4,21.9080326 28.6,22.4080326 26.4,22.4080326 C24.3,22.4080326 21.3,23.0080326 19.8,23.8080326 C18.4,24.6080326 15.5,25.7080326 13.5,26.4080326 C9.6,27.7080326 6,32.3080326 6,35.9080326 C6.1,37.8080326 6.1,37.8080326 7.1,36.1080326 C8.8,33.2080326 14.3,31.4080326 25.7,29.9080326 C39.3,28.1080326 59.8,30.1080326 77,34.9080326 C82.2,36.3080326 88.8,37.9080326 91.5,38.5080326 C94.3,39.0080326 99.7,40.9080326 103.5,42.8080326 C108.7,45.2080326 113,46.4080326 120,47.2080326 C130.4,48.5080326 146,52.0080326 147.4,53.5080326 C147.9,54.0080326 148.5,54.3080326 148.6,54.1080326 C148.7,54.0080326 148.4,49.9080326 147.8,44.9080326 Z M328.6,22.2080326 C328.1,19.9080326 326.7,18.1080326 323.9,16.1080326 C321.7,14.6080326 319.5,12.3080326 319,10.9080326 C317.9,8.0080326 311.5,3.6080326 306.6,2.3080326 C304.6,1.8080326 301.3,1.0080326 299.3,0.408032597 C295.6,-0.491967403 288.6,0.208032597 278.5,2.3080326 C273.1,3.4080326 263,8.3080326 262.3,10.0080326 C262,10.8080326 261.2,11.4080326 260.6,11.4080326 C259.2,11.4080326 255.4,21.2080326 256.4,22.1080326 C256.7,22.5080326 257,22.3080326 257,21.7080326 C257,20.3080326 268.9,14.6080326 276,12.7080326 C284.4,10.4080326 295.2,10.6080326 303.6,13.2080326 C309.4,15.0080326 311.5,16.2080326 314.5,19.7080326 C316.5,22.0080326 319.7,25.6080326 321.6,27.7080326 C323.5,29.8080326 325,32.1080326 325,32.8080326 C325,33.5080326 325.3,34.4080326 325.7,34.8080326 C326.9,36.0080326 329.3,25.7080326 328.6,22.2080326 Z" id="Shape" transform="translate(181.427174, 514.704016) scale(-1, 1) rotate(-180.000000) translate(-181.427174, -514.704016) "></path>
            <path d="M218,169.543481 C218,166.343481 218.4,163.243481 218.8,162.743481 C220.4,160.543481 224.8,158.443481 231.8,156.743481 C245.6,153.443481 255,156.143481 260.2,164.843481 C261.4,166.943481 262.7,167.943481 263.6,167.543481 C265.6,166.843481 265.3,168.643481 263.2,170.543481 C260.9,172.643481 260.3,172.643481 258.2,170.643481 C255.7,168.143481 233.3,169.143481 227,172.043481 C218,176.143481 218,176.143481 218,169.543481 Z M246.2,167.843481 C261,167.743481 260.5,168.043481 255.6,162.543481 C254.1,160.743481 252.5,160.243481 248.6,160.143481 C244.4,160.043481 244,159.843481 246.5,159.343481 C249,158.843481 249.2,158.543481 247.7,157.943481 C243.3,156.243481 232.6,157.643481 224.3,161.043481 C220.2,162.643481 218.1,165.743481 221.8,164.643481 C223,164.243481 222.8,164.643481 221.3,165.843481 C219.8,166.843481 219,168.543481 219,170.343481 L219,173.243481 L225.8,170.543481 C231.9,168.143481 233.7,167.843481 246.2,167.843481 Z" id="Shape" transform="translate(241.474333, 165.121740) scale(-1, 1) rotate(-180.000000) translate(-241.474333, -165.121740) "></path>
            <path d="M136.6,272.351502 C131.5,266.851502 134.8,257.551502 142.4,256.251502 C146.6,255.551502 149.7,257.151502 153.3,262.051502 C155,264.351502 155.1,264.951502 153.9,267.351502 C152,271.251502 148,273.851502 143.2,274.551502 C139.7,275.051502 138.8,274.751502 136.6,272.351502 Z M148.8,271.251502 C150.1,270.451502 151.6,268.551502 152.3,267.151502 C153.3,264.851502 153.1,264.351502 150,261.751502 C145.6,258.051502 139.9,257.751502 137.6,261.051502 C135.2,264.351502 135.6,268.551502 138.6,271.451502 C141.3,274.251502 144.2,274.151502 148.8,271.251502 Z" id="Shape" transform="translate(144.425672, 265.425751) scale(-1, 1) rotate(-180.000000) translate(-144.425672, -265.425751) "></path>
            <path d="M216.5,279.968555 C213.1,278.668555 210.2,274.668555 209.2,270.168555 C208.3,266.368555 208.4,265.668555 210.9,263.168555 C218,255.468555 233.5,260.568555 231.6,270.068555 C230.7,274.468555 227.5,278.668555 224.3,279.368555 C222.7,279.768555 220.8,280.268555 220,280.468555 C219.2,280.668555 217.6,280.468555 216.5,279.968555 Z M223.1,277.968555 C223.7,277.968555 225.4,276.468555 227.1,274.768555 C230.9,270.568555 230.9,266.768555 227.3,263.368555 C224.9,261.168555 223.8,260.868555 220.2,261.268555 C214.5,261.868555 210.6,265.368555 211.4,269.168555 C212.5,274.868555 217.3,279.568555 220.8,278.368555 C221.6,278.168555 222.6,277.968555 223.1,277.968555 Z" id="Shape" transform="translate(220.221099, 269.984277) scale(-1, 1) rotate(-180.000000) translate(-220.221099, -269.984277) "></path>
            <path d="M132.4,311.737539 C128.9,309.237539 126,304.737539 126,301.837539 C126,295.537539 132.5,290.337539 139.2,291.237539 C151,292.837539 153.1,307.437539 142.2,312.037539 C136.7,314.437539 136.1,314.437539 132.4,311.737539 Z M141,309.937539 C144.6,308.137539 147.3,305.037539 147.5,302.437539 C147.8,299.737539 144.7,296.037539 141,294.537539 C135.4,292.337539 134.5,292.437539 131.6,296.237539 C127.8,301.137539 128.2,304.937539 132.7,308.837539 C134.7,310.537539 136.5,311.937539 136.7,311.937539 C136.9,311.937539 138.8,311.037539 141,309.937539 Z" id="Shape" transform="translate(137.659671, 302.468770) scale(-1, 1) rotate(-180.000000) translate(-137.659671, -302.468770) "></path>
            <path d="M185.9,452.742627 C182.7,449.742627 181.8,448.242627 181.7,445.342627 C181.5,438.542627 187.2,433.142627 194.8,433.142627 C198.9,433.042627 199.6,433.342627 201.8,436.542627 C206,442.742627 203.3,452.242627 196.5,455.142627 C191.5,457.242627 190.3,456.942627 185.9,452.742627 Z M198.4,451.142627 C201.5,448.242627 202,447.142627 202,443.242627 C202,439.542627 201.5,438.342627 199.4,436.642627 C196.3,434.242627 194.2,434.042627 190.3,435.742627 C183.3,438.942627 181.9,445.742627 187.2,451.242627 C191.2,455.442627 193.9,455.442627 198.4,451.142627 Z" id="Shape" transform="translate(192.749796, 444.771314) scale(-1, 1) rotate(-180.000000) translate(-192.749796, -444.771314) "></path>
            <path d="M134.9,454.038869 C131.7,452.338869 129,448.338869 129,445.538869 C129,438.138869 138.7,431.838869 145.1,435.038869 C148.7,436.938869 150,439.338869 150,444.038869 C150,452.738869 142.1,457.938869 134.9,454.038869 Z M146.1,450.338869 C148.7,446.738869 149,441.138869 146.7,438.838869 C145.9,438.038869 143.4,437.138869 141.1,436.838869 C137.3,436.338869 136.7,436.538869 134,439.538869 C130.7,443.238869 130.4,444.838869 132.2,448.738869 C133.6,451.738869 136.4,453.238869 140.7,453.438869 C143.2,453.538869 144.3,452.838869 146.1,450.338869 Z" id="Shape" transform="translate(139.500000, 444.769435) scale(-1, 1) rotate(-180.000000) translate(-139.500000, -444.769435) "></path>
        </g>
    </g>
</svg>