<?xml version="1.0" encoding="UTF-8"?>
<svg width="486px" height="647px" viewBox="0 0 486 647" version="1.1" xmlns="http://www.w3.org/2000/svg" xmlns:xlink="http://www.w3.org/1999/xlink">
    <!-- Generator: Sketch 51.2 (57519) - http://www.bohemiancoding.com/sketch -->
    <title>Zaphod</title>
    <desc>Created with Sketch.</desc>
    <defs></defs>
    <g id="Page-1" stroke="none" stroke-width="1" fill="none" fill-rule="evenodd">
        <g id="Zaphod" fill="#57C003" fill-rule="nonzero">
            <g id="zaphod">
                <path d="M205.5,34.5125374 C196.9,32.5125374 183.6,27.6125374 175.2,23.4125374 C170.6,21.1125374 169.7,20.1125374 168.2,16.0125374 C167.3,13.3125374 166.3,11.2125374 165.9,11.2125374 C165.6,11.2125374 164.9,12.6125374 164.4,14.4125374 C163.3,18.2125374 160.4,19.8125374 161.3,16.1125374 C161.6,14.8125374 162.5,10.9125374 163.3,7.41253737 C164.1,3.91253737 165.1,0.812537366 165.4,0.412537366 C166.5,-0.587462634 167.7,2.01253737 168.3,6.71253737 C168.7,9.11253737 169.6,12.8125374 170.5,15.0125374 C171.9,18.5125374 173,19.4125374 179.8,22.5125374 C186.6,25.7125374 202.1,31.2125374 212,34.0125374 L215.5,35.0125374 L211.5,35.0125374 C209.3,35.0125374 206.6,34.8125374 205.5,34.5125374 Z" id="Shape" transform="translate(188.314673, 17.606269) scale(-1, 1) rotate(-180.000000) translate(-188.314673, -17.606269) "></path>
                <path d="M219.8,149.1 C210.4,144.3 210.6,141.9 220.2,143.8 C224.8,144.7 227.3,144.6 236,142.8 C249.1,140.1 255.6,137.1 262.5,130.6 C268.5,124.9 269,123.3 263.8,126.5 C257.1,130.6 241.7,134.5 243.5,131.7 C243.9,131.1 248.5,128.6 253.7,126.2 C264.9,120.9 269,118 273.1,112.4 C276.9,107.2 276.9,105.6 273,106.3 C271.4,106.7 269.3,106.6 268.3,106.2 C264.8,104.7 261.7,105.1 261.2,106.9 C260.6,109.2 259.9,109.2 256.6,106.6 C255.2,105.5 253.6,104.7 253.1,104.9 C252.6,105.1 249.9,107.4 247.1,110 C243.7,113.2 241.7,116 241.3,118 C240.6,122 238.6,125.9 236.6,127.6 C235.3,128.7 235.4,127.9 237,124.4 C239.6,118.6 239.2,107.2 236.4,102.9 C233.4,98.4 233.9,96.9 237.1,100.7 C238.8,102.6 240.4,105.4 240.7,107 C241,108.5 241.5,109.7 241.8,109.7 C242.1,109.7 243.6,108.2 245.1,106.5 C247.5,103.6 247.6,103.1 246.1,102 C244.7,100.9 245,100.8 247.8,100.7 C250,100.7 251.3,100.1 251.7,99 C252.1,98 253.4,96.1 254.7,94.8 C257.4,92 257.7,90.4 255.3,91.1 C249.3,92.8 240.3,93.7 224,94.2 C209.7,94.7 203.6,94.5 197,93.3 C192.4,92.5 188.4,92 188.2,92.2 C188,92.4 188.6,93.7 189.6,95.1 C190.8,97.1 191.8,97.6 193.3,97.1 C195.3,96.5 195.3,96.5 193.7,98.2 C192.6,99.3 192.3,100.3 192.8,101.1 C193.8,102.3 198,114.1 198,115.7 C198,118.3 196,116.2 193.6,111 C192.1,107.8 190.2,103.9 189.3,102.2 C181.8,88.8 180.3,85.7 181.4,85.7 C182,85.7 183.1,86.2 183.8,86.9 C184.7,87.8 185,87.7 185,86.5 C185,84.5 182.4,82.1 181.8,83.7 C181.6,84.4 180.4,84 178.7,82.7 C177.2,81.5 176,80.9 176,81.4 C176,81.8 175.6,81.6 175.1,80.8 C173.9,79 174.9,75.7 176.6,75.7 C177.4,75.7 179.7,76.4 181.7,77.2 C185.4,78.8 185.5,78.7 188.3,75.7 C192,71.7 194.2,71.3 207.9,72.1 C226.1,73.2 225.9,73.2 228.6,76 C232.2,80 237,79.5 238.4,75.1 C239,73.1 236.3,63 234,58.7 C233.4,57.6 233.3,56.7 233.8,56.7 C235.6,56.7 237.9,60.4 239.1,65.2 C239.7,68 240.4,70.3 240.4,70.4 C240.5,70.5 242.4,70 244.5,69.2 C246.7,68.4 250.1,67.8 252.2,67.7 L255.8,67.7 L255.5,49.9 C255.4,37 254.9,31.4 253.9,29.5 C251.6,25.3 246.6,21.8 240.5,20.2 C237.3,19.4 234.5,18.6 234.3,18.4 C234.1,18.1 235.6,17.7 237.6,17.4 C244.2,16.3 254.2,21.6 256.7,27.5 C257.5,29.4 258.3,30.7 258.6,30.5 C258.8,30.2 259.1,25.7 259.1,20.3 C259.1,15 259.4,10.7 259.8,10.7 C261.1,10.7 261.2,26.8 260,29.8 C259.1,31.8 259.1,33.1 259.8,34 C260.5,34.8 260.5,40.1 259.8,50.1 C259.1,60.8 259.1,65.6 259.9,67.4 C261.1,70 263,69.7 263,66.9 C263,64 265.1,57.7 266,57.7 C266.5,57.7 266.6,60.7 266.3,64.5 C265.8,70.6 266,71.8 268.8,77.2 C270.7,81.1 275,86.4 280.9,92.3 C289.8,101.3 293.1,106.5 295,114.5 C296.2,119.5 294.4,118.3 291.6,112.1 C288.5,105.3 287,103.4 276.2,92.4 C271.2,87.2 267.4,84 267.1,84.8 C266.9,85.5 265.8,87 264.6,88.1 C261.1,91.5 256.8,98.8 257.4,100.3 C258.3,102.7 263,103.9 271.8,104 C279.1,104 280,104.2 280,105.9 C280,108.2 276.6,115.1 273.4,119.4 C272.1,121.1 271,123.1 271,123.7 C271,125.2 268.3,129.3 263.7,135 L259.7,139.8 L262.6,142.8 C264.1,144.4 266.8,146.2 268.6,146.9 C270.4,147.5 271.7,148.4 271.4,148.9 C271.1,149.3 271.7,149.7 272.7,149.7 C273.7,149.7 275.4,150.5 276.5,151.4 L278.5,153 L276.5,152.2 C275.4,151.8 272.5,150.8 270.1,150 C267.7,149.1 263.9,146.6 261.7,144.4 C257.9,140.6 257.6,140.5 255.1,141.9 C251.1,144.3 243.4,146.5 233.6,148.2 C225,149.7 222.1,150.6 225.1,150.8 C225.9,150.9 226.9,150.9 227.3,150.8 C227.8,150.7 227.9,151.1 227.5,151.7 C227.2,152.2 226.8,152.7 226.7,152.7 C226.6,152.6 223.5,151 219.8,149.1 Z" id="Shape" transform="translate(234.975628, 81.850000) scale(-1, 1) rotate(-180.000000) translate(-234.975628, -81.850000) "></path>
                <path d="M314.6,53.7524621 C314,52.6524621 316.8,51.6524621 324.8,50.0524621 C326.7,49.6524621 332.5,47.3524621 337.8,44.8524621 C345.3,41.3524621 348.6,39.1524621 353.1,34.5524621 C356.2,31.3524621 358.6,28.5524621 358.5,28.3524621 C358.3,28.1524621 358.8,27.4524621 359.6,26.7524621 C364.6,22.1524621 356.4,35.0524621 350.5,41.1524621 C343.1,48.7524621 317.1,57.8524621 314.6,53.7524621 Z" id="Shape" transform="translate(337.835221, 40.276231) scale(-1, 1) rotate(-180.000000) translate(-337.835221, -40.276231) "></path>
                <path d="M308.7,89.9266398 C309.1,87.0266398 308.6,84.5266398 306.7,80.4266398 C304.1,74.9266398 297.1,66.8266398 293.8,65.5266398 C292.8,65.2266398 292,64.2266398 292,63.3266398 C292,62.5266398 291.7,61.9266398 291.3,62.0266398 C290.8,62.1266398 289.4,61.6266398 288.1,60.9266398 C286.8,60.2266398 284.7,59.8266398 283.4,60.1266398 C280.5,60.6266398 280.5,60.4266398 282.7,53.2266398 C286.1,42.4266398 291.4,39.8266398 295.1,47.1266398 L297.3,51.3266398 L299,47.4266398 C300.2,44.4266398 300.8,43.8266398 301.3,45.0266398 C302.1,47.2266398 300.5,52.6266398 298.4,54.9266398 C295.7,57.9266398 291.4,57.4266398 289.8,53.8266398 C288.2,50.1266398 287.2,50.0266398 285.9,53.5266398 C285,55.8266398 285.3,56.5266398 287.6,58.5266398 C290.6,61.0266398 294.3,62.3266398 295.8,61.4266398 C296.3,61.1266398 296.7,61.6266398 296.6,62.5266398 C296.6,63.4266398 297.5,64.7266398 298.8,65.3266398 C301.7,66.9266398 308.9,77.0266398 310.1,81.4266398 C310.7,83.3266398 311.5,84.8266398 311.9,84.8266398 C313.2,84.8266398 315,76.6266398 315,70.6266398 C315,63.7266398 316.5,61.1266398 317.4,66.5266398 C318.4,72.1266398 315.1,85.8266398 312.9,85.8266398 C312.4,85.8266398 312,86.5266398 312,87.3266398 C312,89.2266398 309.9,93.8266398 308.9,93.8266398 C308.5,93.8266398 308.4,92.0266398 308.7,89.9266398 Z" id="Shape" transform="translate(299.356233, 68.413320) scale(-1, 1) rotate(-180.000000) translate(-299.356233, -68.413320) "></path>
                <path d="M131.8,646.938743 C130.5,645.738743 130.9,641.338743 132.6,636.938743 C134.1,633.038743 134.1,632.538743 132.6,630.438743 C131.4,628.638743 131,625.538743 131,617.038743 C131,609.838743 130.4,604.038743 129.4,600.638743 C127.3,593.338743 121.4,587.138743 114.7,584.938743 C111.8,584.038743 108.8,582.638743 108,581.838743 C106.7,580.538743 106.7,580.238743 108.4,579.038743 C109.8,577.938743 111.8,577.738743 115.6,578.138743 L120.9,578.838743 L117,574.638743 C113.1,570.538743 110,563.038743 110,557.738743 C110,554.338743 116.4,548.438743 122.6,546.238743 C125.3,545.338743 128.6,543.638743 129.9,542.538743 C132.2,540.538743 132.2,540.438743 130.6,537.038743 C129.6,534.938743 129,531.438743 129.1,528.338743 C129.2,523.238743 128.7,520.438743 125.1,508.538743 C123.7,503.638743 122.9,502.638743 117.5,498.938743 C114.2,496.638743 105.9,492.338743 99,489.338743 C87.1,484.238743 86.4,483.738743 81.3,477.538743 C78.4,473.938743 74.1,468.238743 71.8,464.738743 L67.6,458.538743 L64.2,461.738743 C59.3,466.538743 56.3,472.338743 55.5,478.538743 C54.4,487.938743 52.1,496.838743 49.4,502.338743 C47.1,506.938743 46.9,508.038743 48,510.038743 C48.8,511.438743 49,513.538743 48.6,515.238743 C48.2,516.738743 47.7,521.138743 47.4,525.038743 C47.2,529.638743 46.2,533.638743 44.6,537.038743 C42.8,540.638743 42,544.238743 41.7,549.838743 C41.3,556.638743 40.9,558.238743 38.1,562.138743 C36.4,564.638743 35,567.038743 35,567.538743 C35,568.938743 33.3,568.838743 32.8,567.438743 C32.5,566.638743 30.8,566.738743 27,567.938743 C18.5,570.438743 18.6,570.238743 19.9,578.238743 C20.8,584.238743 20.7,586.038743 19,592.138743 C16.9,599.438743 16.5,603.538743 17.8,603.538743 C18.2,603.538743 20.7,602.238743 23.2,600.638743 C29.7,596.538743 33.2,588.938743 33.8,577.838743 C34,573.238743 34.6,569.538743 35,569.538743 C37.8,569.538743 37.8,585.438743 35,592.938743 C32.5,599.538743 25.8,606.138743 20.6,607.038743 C13,608.538743 11.9,606.038743 14.8,594.638743 C16.1,589.638743 17,582.938743 17,578.838743 L17,571.538743 L11.7,571.538743 C4.5,571.538743 3.1,570.238743 2.1,563.038743 C0.9,554.538743 1.5,515.638743 2.7,514.438743 C3.5,513.638743 4,515.938743 4.5,521.738743 C5.1,528.238743 6,531.738743 8.9,538.038743 C11,542.438743 13.9,547.238743 15.5,548.838743 C18,551.238743 19,551.538743 25.6,551.538743 C35.3,551.538743 38,550.438743 38,546.538743 C38,544.338743 37.5,543.538743 36.3,543.538743 C33.2,543.438743 25.8,539.638743 26.5,538.538743 C27,537.738743 27.9,538.038743 29.2,539.138743 C33.7,543.238743 40.8,539.238743 43.1,531.138743 C44.3,526.738743 43.7,525.638743 41.3,527.738743 C40.3,528.638743 37.8,529.538743 35.8,529.738743 C32.4,530.138743 32,529.938743 32,527.838743 C32,526.438743 31.4,525.538743 30.5,525.538743 C29.7,525.538743 29,525.138743 29,524.538743 C29,523.238743 29.1,523.238743 33,525.238743 C36.4,526.838743 36.4,526.838743 39,523.738743 C40.4,521.938743 42.8,518.238743 44.3,515.438743 C46.5,511.138743 46.7,510.038743 45.7,508.338743 C44.8,506.738743 44.8,506.138743 45.8,505.838743 C46.4,505.538743 47,504.138743 47,502.538743 C47,500.938743 47.5,498.438743 48.1,496.838743 C49.3,493.938743 50.8,481.038743 51.6,466.238743 C52.1,458.538743 51.9,456.938743 49.7,452.238743 C47.6,447.538743 46.8,446.738743 42.9,445.638743 C35.4,443.338743 26.7,441.638743 22.2,441.538743 C18.2,441.538743 17.8,441.838743 16.4,445.038743 C15.6,446.938743 15,449.738743 15.1,451.338743 C15.1,452.838743 14.7,455.938743 14.1,458.238743 C13.5,460.538743 12.9,464.638743 12.7,467.538743 L12.4,472.638743 L18.1,471.938743 C22.3,471.438743 24.4,471.738743 26.6,472.938743 C32.6,476.238743 36.9,481.538743 39.4,488.938743 C41.2,494.138743 41.5,496.938743 40.1,494.638743 C39.1,493.138743 38.6,493.838743 37.7,497.638743 C37.3,499.038743 35.6,503.238743 33.9,506.938743 C31.7,511.738743 30.5,513.338743 29.9,512.338743 C28.5,510.238743 28.9,505.738743 30.6,502.338743 C32.7,498.238743 33.6,489.438743 32,486.638743 C30.9,484.538743 31,484.438743 32.9,485.038743 C35.4,485.838743 35.5,485.238743 33.3,481.838743 C30.1,476.938743 24.2,473.538743 18.9,473.538743 L14.1,473.538743 L10.9,480.038743 C9.2,483.638743 7.4,486.538743 7,486.538743 C5.2,486.538743 2.8,495.038743 3.5,499.138743 C3.8,501.438743 3.7,503.638743 3.1,503.938743 C2.3,504.538743 1.9,501.538743 1.7,493.438743 C1.7,491.138743 2.6,488.438743 4.3,485.938743 C7.6,481.138743 7.7,478.138743 4.5,474.438743 C1,470.138743 0.4,465.538743 2.5,457.138743 C4.2,450.438743 4.2,449.438743 2.7,441.038743 C0.2,427.238743 -0.3,417.738743 0.9,409.738743 C3.1,395.738743 8.9,388.038743 22.5,381.538743 C30.5,377.638743 38.1,375.538743 37.9,377.138743 C37.9,377.638743 33.8,379.938743 28.9,382.338743 C16.9,388.138743 9.8,394.938743 7.4,403.138743 C5.1,410.838743 5.2,427.938743 7.5,439.838743 C9.2,449.038743 8.9,454.038743 6.4,460.138743 C4.2,465.438743 4.8,474.538743 7.4,474.538743 C8.1,474.538743 8.7,473.038743 8.8,471.338743 C9.5,460.938743 12,445.438743 13.4,442.738743 C15.6,438.438743 20.8,436.938743 27.9,438.438743 C30.8,439.038743 34.9,439.538743 37.1,439.538743 C42.6,439.538743 47.3,441.738743 50.3,445.738743 C53.4,449.738743 56,456.638743 56,460.638743 C56,462.238743 56.5,463.538743 57,463.538743 C57.6,463.538743 58,463.138743 58,462.738743 C58,462.338743 59.6,460.438743 61.5,458.538743 C63.4,456.638743 65,454.638743 65,454.238743 C65,453.838743 66.6,452.038743 68.7,450.238743 C72.4,446.938743 77,438.638743 77,435.038743 C77,433.638743 75.1,431.938743 70.9,429.538743 C63.1,425.138743 53.3,414.638743 52.4,409.838743 C52,407.838743 52,402.938743 52.3,398.838743 C53,389.838743 55.4,385.338743 63.7,377.438743 C70.7,370.738743 78.2,360.038743 83.8,348.938743 C88.1,340.338743 89,339.338743 98.9,331.438743 C106,325.838743 108.7,324.538743 113.1,324.538743 C115.9,324.538743 117,323.238743 115.1,322.138743 C113.5,321.138743 102.9,304.538743 101,300.038743 C96.8,290.238743 97.9,279.338743 103.8,272.438743 C108.5,266.838743 123.6,257.738743 133,254.938743 C137.7,253.438743 143.3,251.538743 145.5,250.538743 C147.7,249.538743 151.2,248.038743 153.4,247.138743 C156.2,245.938743 157.1,245.138743 156.6,243.938743 C156.3,243.038743 155.1,237.138743 154,230.738743 C152.8,224.238743 151.5,217.438743 151,215.538743 C149.4,209.738743 149.9,206.138743 152.9,201.438743 C154.4,198.938743 157.9,195.138743 160.6,193.038743 C163.3,190.838743 165.8,188.838743 166.3,188.538743 C166.7,188.238743 167.5,184.238743 168,179.638743 C169.3,169.538743 167.7,141.238743 165.5,134.538743 C163.4,128.338743 145.5,105.338743 143.3,106.038743 C142.6,106.338743 142,106.038743 142,105.438743 C142,104.838743 141.6,104.638743 141.1,104.938743 C140.1,105.538743 129.1,103.438743 127.3,102.238743 C124.7,100.638743 126.4,87.4387425 130.2,78.2387425 C132.5,72.9387425 133.8,72.3387425 141.5,72.7387425 C146,73.0387425 146.5,72.8387425 146.8,70.7387425 C147.3,67.6387425 149.2,66.8387425 161.8,65.1387425 C181.1,62.4387425 187,63.3387425 187,69.2387425 L187,71.8387425 L184.7,69.7387425 C182.2,67.3387425 179.3,67.0387425 168.9,68.2387425 L162.5,69.0387425 L171.3,69.5387425 C176.8,69.9387425 180.4,70.5387425 180.9,71.3387425 C182.8,74.4387425 192.1,72.0387425 208,64.6387425 C227.7,55.3387425 233,53.5387425 240.4,53.5387425 C248.5,53.5387425 254.9,55.5387425 260.1,59.6387425 C268.7,66.4387425 269.5,71.8387425 262.2,73.0387425 C254.5,74.2387425 245.6,76.6387425 242,78.5387425 C235.6,81.8387425 223.6,92.0387425 221.2,96.3387425 C220,98.6387425 216.1,102.938743 212.7,105.938743 L206.4,111.438743 L207.6,122.738743 C209.3,137.238743 210.3,141.138743 215.2,152.038743 C221.9,166.938743 224.2,174.338743 224.9,183.938743 C225.5,192.738743 225.5,192.938743 228.4,193.638743 C231.8,194.638743 233,196.038743 233,199.638743 C233,202.938743 234,203.738743 242.2,207.038743 C251.5,210.738743 252,211.538743 253,223.738743 C253.9,233.838743 256,245.638743 257.8,250.538743 C258.7,253.038743 258.8,253.038743 260.4,249.138743 C261.3,247.038743 262,245.038743 262,244.638743 C262,244.338743 263.9,242.038743 266.1,239.638743 L270.3,235.238743 L269.8,225.938743 C269.3,216.138743 269.5,215.238743 272.3,214.238743 C273.7,213.738743 274,212.338743 274,206.038743 C274,196.738743 271.3,176.938743 269.5,173.538743 C266.5,167.538743 258.5,154.738743 255.9,152.038743 C253,148.838743 249.3,141.338743 248.4,136.638743 C248,134.838743 248.4,132.838743 249.5,131.238743 C251.5,128.138743 250.8,126.538743 247.4,126.538743 C244.2,126.538743 242.6,130.538743 243.5,136.338743 C244,139.638743 243.8,140.638743 242.6,141.138743 C240.7,141.838743 240.5,143.538743 242.3,143.538743 C243.8,143.638743 247.5,146.338743 246.9,146.938743 C246.6,147.238743 244.5,146.938743 242.1,146.338743 C236.7,144.938743 236,143.238743 236.7,132.638743 C237.2,125.438743 237.6,124.238743 239.7,122.838743 C241.7,121.538743 242.9,121.438743 248.1,122.438743 C251.5,123.138743 254.3,123.538743 254.4,123.338743 C254.5,123.138743 256.1,120.838743 257.8,118.038743 C264.5,107.638743 265.7,106.838743 278.5,105.938743 C287.6,105.238743 290,106.038743 290,109.738743 C290,110.938743 290.5,111.538743 291.3,111.238743 C292,110.938743 296.2,109.738743 300.5,108.538743 C304.9,107.338743 311,105.038743 314,103.438743 C323,98.7387425 324.1,98.5387425 334.7,99.6387425 C346.4,100.738743 352.7,102.238743 353.4,104.138743 C353.8,105.238743 353.5,105.338743 352.1,104.638743 C351.1,104.038743 344.4,103.138743 337.2,102.438743 L324.1,101.338743 L319.8,103.838743 C311.1,108.938743 311.4,108.338743 314.6,115.138743 C316.1,118.338743 317.8,121.338743 318.4,121.738743 C319.1,122.238743 318.9,122.538743 317.9,122.538743 C317,122.538743 314.9,119.938743 312.9,116.538743 C310.6,112.438743 309,110.638743 308,111.038743 C307.2,111.238743 302,113.038743 296.5,114.938743 C291,116.738743 283,118.938743 278.6,119.638743 C271.2,120.938743 270.6,120.838743 266.9,118.838743 L262.9,116.638743 L260.7,120.338743 C259.4,122.338743 256.9,126.638743 255.1,129.838743 L251.8,135.638743 L253.4,139.938743 C254.3,142.338743 256.5,146.038743 258.4,148.138743 C261.3,151.538743 264.1,156.038743 272.7,170.438743 C275.2,174.638743 277.1,187.638743 277.4,202.138743 C277.5,210.838743 277.4,211.238743 274.7,213.638743 C272,216.038743 272,216.038743 272.9,223.538743 C274.6,235.838743 274.4,236.738743 270.1,241.638743 C268,244.038743 265,249.138743 263.5,252.838743 L260.8,259.738743 L263.5,267.038743 L266.1,274.338743 L276.2,275.538743 C281.7,276.238743 287.4,277.438743 288.9,278.238743 L291.5,279.638743 L288.5,279.138743 C286.9,278.838743 281.6,278.338743 276.8,277.938743 C269.6,277.438743 268,277.538743 268,278.738743 C268,281.438743 271.1,284.538743 273.8,284.538743 C278.6,284.538743 302,291.438743 297.5,291.538743 C297,291.538743 292.9,290.638743 288.5,289.538743 C284.1,288.438743 278.4,287.238743 275.8,286.938743 L271.1,286.338743 L273.6,293.538743 C278.2,307.238743 275.8,308.138743 270.1,294.838743 C268.2,290.538743 265.9,286.338743 264.9,285.438743 C263.9,284.538743 263.3,283.538743 263.6,283.238743 C263.9,282.938743 263.2,282.938743 262,283.238743 C260.3,283.638743 259.9,283.438743 260.2,282.438743 C260.5,281.638743 261.4,281.138743 262.4,281.338743 C263.3,281.538743 264,281.238743 264,280.638743 C264,278.738743 260.8,276.538743 258,276.538743 C256.4,276.538743 253.6,275.738743 251.8,274.738743 C247.4,272.238743 245.3,272.438743 244.5,275.238743 C244.2,276.538743 243.2,277.538743 242.2,277.538743 C241.2,277.538743 238.5,279.138743 236.2,281.138743 C233.9,283.038743 231.6,284.338743 231,284.038743 C230.4,283.638743 232.3,281.638743 235.3,279.438743 C244.3,273.038743 244.1,269.838743 234.7,269.338743 C231.4,269.138743 228.5,268.538743 228.3,267.938743 C228.1,267.238743 229.9,265.638743 232.3,264.238743 C238.4,260.638743 239.6,259.038743 238.1,256.238743 C237.5,255.038743 237,252.438743 237.1,250.538743 C237.2,247.538743 236.5,243.038743 236,243.038743 C235.9,243.038743 235.7,242.138743 235.6,241.038743 C235.4,239.938743 235,237.738743 234.6,236.038743 C234.1,234.038743 234.2,233.538743 234.8,234.538743 C236.3,236.938743 239.2,250.338743 238.5,251.438743 C238.2,252.038743 238.2,252.538743 238.7,252.538743 C239.1,252.538743 240.6,253.438743 242,254.438743 L244.4,256.338743 L242.5,259.938743 C241.4,261.938743 239.8,263.538743 238.9,263.538743 C238,263.538743 236.7,264.238743 236,265.038743 C235,266.238743 235.1,266.538743 236.7,266.538743 C237.8,266.538743 238.9,266.238743 239.3,265.938743 C239.6,265.538743 243.1,265.138743 247,264.938743 C252.3,264.738743 254,264.938743 254,265.938743 C254,266.738743 253.3,267.838743 252.5,268.538743 C250.3,270.338743 250.6,271.238743 254.1,272.438743 C261.2,274.938743 261.3,274.838743 255.9,259.338743 C250.9,244.638743 248,230.338743 248,220.338743 C248,214.738743 247.9,214.538743 244.3,212.738743 C242.2,211.638743 238.9,210.238743 236.9,209.638743 C232.8,208.338743 230.6,206.238743 228.2,201.438743 C226.2,197.538743 222,195.038743 215.9,194.138743 C213.5,193.738743 209.6,192.938743 207.3,192.438743 C203.9,191.538743 201.5,191.738743 193.8,193.538743 C186.2,195.338743 182.8,195.638743 175.4,195.138743 L166.3,194.538743 L161.2,199.938743 C158.4,202.938743 155.8,206.438743 155.5,207.738743 C155.1,209.138743 155.5,213.538743 156.4,217.638743 C157.2,221.738743 158.2,229.238743 158.6,234.338743 C159,239.438743 159.6,243.738743 159.9,243.938743 C160.2,244.138743 163.9,243.438743 168,242.338743 C174.1,240.738743 177.6,240.438743 186.3,240.938743 C198.5,241.438743 200.5,242.338743 204.1,248.238743 C209.1,256.638743 230.1,285.238743 232.3,286.738743 C232.4,286.838743 233.5,286.338743 234.8,285.638743 C236,285.038743 237.5,284.738743 238.1,285.138743 C239.6,286.038743 237.2,287.538743 234.3,287.538743 C233,287.538743 232,288.138743 232,288.838743 C232,290.338743 235.7,296.838743 243.3,309.038743 C251.7,322.538743 250.5,321.538743 259,322.038743 C273.6,322.838743 292.7,327.038743 302.5,331.538743 C308.1,334.138743 319.4,341.538743 317.7,341.538743 C317.3,341.538743 313,339.538743 308.2,337.138743 C297.6,331.838743 288.6,329.038743 276.5,327.438743 C265.8,326.038743 266.6,325.938743 266.1,328.238743 C265.6,330.838743 264,331.538743 261.3,330.438743 C259.9,329.938743 257.9,329.538743 256.8,329.538743 C254.9,329.538743 254.8,329.738743 256.2,331.338743 C257.8,333.238743 261,339.838743 261,341.238743 C261,341.838743 261.8,343.038743 262.9,343.938743 C265.7,346.438743 266.1,351.538743 264.9,365.938743 L263.8,378.738743 L266.2,381.238743 C268.5,383.438743 269.2,383.638743 274.6,383.038743 L280.5,382.338743 L280.6,371.538743 C280.6,365.338743 281.1,360.138743 281.7,359.338743 C282.3,358.638743 283.4,356.038743 284.1,353.738743 C285.5,348.838743 287.6,347.538743 294.1,347.538743 C297.8,347.538743 298,347.338743 297.4,345.138743 C296.6,341.738743 298.6,341.038743 300.6,344.038743 C302.9,347.538743 302.9,354.038743 300.7,356.238743 C299.1,357.838743 299,357.838743 298.9,355.538743 C298.8,354.138743 298.8,352.238743 298.9,351.338743 C299.1,349.438743 295.8,348.938743 291.3,350.138743 C288.4,350.938743 286.4,357.638743 284.8,371.338743 C283.5,382.538743 283.8,383.538743 288.8,383.538743 C290.8,383.538743 291.1,383.138743 290.6,380.838743 C289.7,376.438743 291.7,374.838743 298.8,374.338743 C302.2,374.138743 304.5,374.238743 303.9,374.638743 C303.1,375.138743 303.4,375.538743 304.6,375.838743 C305.6,376.138743 303.8,376.338743 300.4,376.338743 C293.6,376.238743 292,376.838743 292,379.438743 C292,382.338743 295,384.138743 303,386.038743 C307.1,386.938743 312.2,388.838743 314.2,390.138743 C316.3,391.438743 318.1,392.538743 318.3,392.538743 C318.6,392.538743 319,385.238743 319.3,376.338743 C319.9,359.838743 321.5,349.438743 325.1,339.738743 C327.6,332.938743 327.5,331.138743 324.8,328.538743 C316.9,321.038743 301.7,314.738743 282,310.738743 C277.3,309.838743 273.4,308.738743 273.2,308.338743 C273,307.938743 272.3,307.838743 271.6,308.138743 C270.9,308.438743 268.3,308.138743 265.9,307.638743 C262.3,306.838743 261.3,306.838743 260.4,308.138743 C259.4,309.438743 259.2,309.438743 258.6,308.038743 C257.7,305.538743 255,306.238743 255,309.038743 C255,310.438743 254.6,311.538743 254.1,311.538743 C253,311.538743 252,305.238743 253,304.238743 C254.8,302.238743 289.4,309.238743 306.6,315.238743 C313,317.338743 324.7,324.638743 326.5,327.438743 C327.7,329.438743 328.7,328.538743 330,324.338743 C330.7,321.938743 333.9,314.438743 337.1,307.538743 C340.3,300.638743 344.5,290.538743 346.5,285.138743 L350.1,275.238743 L348.5,261.738743 C347.7,254.438743 346.6,246.438743 346.1,244.238743 C345.6,241.938743 344.8,236.338743 344.4,231.738743 C343.6,222.138743 344.3,222.738743 328.2,214.538743 C319.5,210.038743 316,207.338743 316,205.238743 C316,205.038743 317.4,205.038743 319,205.338743 C321.1,205.638743 322,205.338743 322,204.438743 C322,202.938743 316.5,187.838743 313,180.038743 C310.1,173.338743 308,162.038743 308,153.038743 C308,145.838743 308.1,145.438743 312.3,140.338743 C314.6,137.438743 317.7,133.438743 319.2,131.438743 C323.6,125.538743 333,119.038743 340.1,117.038743 C343.6,116.138743 347.8,114.238743 349.3,112.938743 C350.9,111.638743 353.2,110.238743 354.6,109.938743 C355.9,109.638743 357,108.638743 357,107.838743 C357,105.538743 359.5,106.938743 359.8,109.338743 C360.1,111.038743 359.4,111.938743 356.8,112.938743 C355,113.738743 352.3,115.338743 350.8,116.438743 C349.3,117.638743 345.6,119.438743 342.6,120.538743 C339.6,121.538743 336.3,122.838743 335.3,123.438743 C331,125.738743 322.9,133.438743 318,139.938743 L312.8,146.738743 L313.2,157.938743 C313.6,166.538743 314.3,170.638743 316.2,176.038743 C317.7,179.938743 320.4,187.338743 322.3,192.538743 C324.2,197.738743 326.4,203.838743 327.2,206.038743 C328.5,209.338743 329.9,210.638743 336.1,214.338743 C346.4,220.338743 348,222.338743 348,229.338743 C348,232.438743 348.7,239.538743 349.5,245.038743 C350.3,250.538743 351,258.338743 351,262.338743 C351,266.238743 351.4,269.538743 351.9,269.538743 C352.4,269.538743 354.5,265.438743 356.7,260.338743 C358.8,255.338743 361.2,250.938743 361.9,250.738743 C364.4,249.938743 362.4,258.838743 357.6,270.438743 C355.1,276.238743 351.5,285.538743 349.4,291.038743 C347.4,296.538743 344.8,302.838743 343.7,305.038743 C342.6,307.338743 341.7,311.038743 341.7,314.038743 C341.7,316.738743 341.5,317.838743 341.3,316.338743 C340.6,311.838743 339.1,313.038743 335.4,321.238743 C330.8,331.138743 327.3,343.538743 325.3,356.038743 C323.6,367.238743 323.9,393.638743 326.1,421.838743 L327.4,437.538743 L333.5,437.538743 C336.9,437.538743 342.1,438.038743 345.1,438.538743 C351.4,439.738743 352.1,439.238743 352.7,433.238743 C353.1,429.838743 352.6,427.438743 350.6,422.938743 C349.2,419.638743 346.4,411.638743 344.5,405.038743 C340.7,392.438743 337.8,386.438743 333.5,382.438743 C332.1,381.138743 330.5,379.238743 329.9,378.238743 C329,376.638743 329.1,376.538743 330.9,377.438743 C337.2,380.838743 342.8,389.838743 349.4,407.038743 C350.9,410.938743 353.3,416.738743 354.8,420.038743 C356.7,424.238743 357.5,427.638743 357.5,431.538743 C357.4,437.638743 355,442.538743 351.9,442.538743 C349.4,442.538743 348.7,444.038743 350.5,445.538743 C353.9,448.338743 351.7,448.438743 348.3,445.638743 C346.2,443.938743 342.5,442.138743 340,441.638743 C335.2,440.538743 327,440.138743 327,441.138743 C327,441.438743 326.5,444.738743 325.9,448.538743 C325.2,453.338743 325.2,456.538743 325.9,459.238743 C326.7,461.938743 326.7,464.638743 325.9,468.638743 C324.9,473.938743 325,474.538743 327.9,480.338743 C329.6,483.738743 331,487.838743 331,489.538743 C331,492.438743 331.2,492.538743 335.3,492.538743 C339.1,492.538743 348.5,491.338743 355.2,489.938743 C359,489.138743 360.4,483.638743 359.5,473.338743 C359.1,468.738743 359.2,465.538743 359.8,465.538743 C360.9,465.538743 363.5,479.438743 363.4,485.238743 C363.3,487.538743 362.6,490.538743 361.7,491.938743 C360.7,493.338743 360,495.538743 360,496.938743 C360,500.638743 352.5,514.438743 347.4,520.338743 C342.2,526.238743 342.6,526.938743 348.6,522.238743 C355,517.238743 359,512.138743 359,508.938743 C359,499.638743 374.1,479.738743 392.7,464.338743 C396.7,461.138743 400.5,457.538743 401.1,456.338743 C402.6,453.538743 399.3,450.338743 392.1,447.638743 C385.4,445.238743 383.2,443.038743 379.4,435.538743 C377.4,431.638743 376.5,428.138743 376.2,423.238743 C375.8,416.938743 377.2,410.538743 378.9,410.538743 C379.3,410.538743 379.6,414.438743 379.6,419.338743 C379.5,426.438743 380,429.038743 381.9,433.338743 C384.8,439.738743 389.5,444.038743 394.6,444.938743 C396.8,445.338743 399.5,446.638743 400.8,447.838743 C403,449.838743 403,449.838743 404.5,447.938743 C406.6,445.238743 408.1,447.738743 406.9,452.038743 C406.3,454.138743 406.3,456.338743 407,458.038743 C408.4,461.738743 408.3,462.138743 406,460.038743 C404.1,458.338743 403.9,458.338743 398.8,463.238743 C395.9,465.938743 390.6,470.838743 387.1,474.138743 C375.7,484.638743 365.1,500.938743 363.6,510.238743 C363.1,512.738743 361.6,515.838743 359.4,518.338743 C356,522.338743 346.7,528.838743 340,531.838743 C336.6,533.338743 330,534.638743 330,533.738743 C330,533.538743 333.2,529.938743 337.1,525.738743 C346.2,515.938743 358.3,497.438743 356.6,495.838743 C356.4,495.538743 352.1,495.838743 347.1,496.538743 C338,497.738743 330.6,497.238743 328.3,495.338743 C327.6,494.738743 325.8,494.638743 324.3,495.038743 C321.6,495.638743 321.6,495.638743 323.4,493.638743 C324.5,492.438743 325.9,491.538743 326.7,491.538743 C328.7,491.538743 328.3,490.038743 324.6,481.638743 C321.1,474.038743 321.1,474.038743 322.5,468.138743 C324.3,460.638743 323,457.238743 317.2,453.138743 C314.9,451.538743 313,450.138743 313,449.938743 C313,449.638743 314.7,450.238743 316.8,451.138743 C318.8,452.038743 321.1,452.938743 321.8,453.238743 C322.7,453.638743 323,452.138743 323,447.738743 C323,444.138743 322.5,441.538743 321.9,441.338743 C321,441.038743 321,440.338743 321.9,438.738743 C322.8,437.038743 322.7,432.638743 321.4,418.838743 C320.5,409.038743 319.6,400.138743 319.4,399.038743 C318.5,393.938743 300.2,388.338743 279.8,386.938743 L270.2,386.238743 L271.6,392.138743 C272.3,395.338743 272.9,400.338743 272.9,403.038743 C272.8,408.638743 272.7,408.538743 269.6,395.038743 C268.7,391.238743 267.3,387.538743 266.5,386.938743 C265.7,386.338743 265,385.038743 265,384.138743 C265,383.238743 264.6,382.538743 264.1,382.538743 C263.6,382.538743 262.5,386.738743 261.5,391.838743 C260.5,396.838743 259.1,402.638743 258.3,404.538743 C256.1,410.038743 248.3,422.938743 239.2,436.338743 C233.3,445.038743 231,449.338743 231.3,450.738743 C231.6,451.838743 231.6,452.438743 231.3,452.138743 C231,451.838743 230,452.038743 229.1,452.438743 C228,453.038743 226.8,452.838743 225.5,451.938743 C222.8,449.938743 213,450.138743 207.2,452.338743 C198.1,455.838743 189.1,463.238743 184.5,471.138743 C181.9,475.538743 176.6,490.438743 177.3,491.238743 C177.6,491.438743 180.1,490.938743 182.8,490.038743 C190.6,487.438743 191,488.738743 183.5,492.538743 C177.2,495.838743 176.6,496.538743 172.9,503.438743 C170.7,507.538743 168.4,511.638743 167.6,512.438743 C165.5,514.838743 163,520.238743 163,522.238743 C163,523.238743 164.6,527.438743 166.5,531.438743 C168.5,535.538743 169.9,539.038743 169.6,539.238743 C169.4,539.438743 167.7,537.838743 165.8,535.638743 C163.5,532.938743 161.8,529.538743 161,525.938743 C159.4,519.538743 158.5,522.238743 169.5,502.538743 C172.1,497.738743 175.2,490.238743 176.6,485.238743 C177.9,480.438743 179.9,474.638743 181.1,472.238743 C184.3,465.938743 190,459.338743 191.7,459.938743 C192.5,460.238743 192.8,460.138743 192.5,459.638743 C191.7,458.338743 197.5,454.138743 203.9,451.438743 C209.4,449.138743 216.7,448.438743 222.7,449.738743 C225.8,450.438743 225.9,450.338743 229.4,443.238743 C231.4,439.238743 235.3,432.938743 238.1,429.038743 C240.8,425.238743 244.2,420.038743 245.6,417.538743 C247,415.038743 249.7,410.538743 251.6,407.538743 C255.6,401.238743 257.1,396.438743 260.6,379.838743 C264,363.438743 263.9,351.038743 260.4,343.538743 C255.3,332.538743 249.7,324.438743 246.8,323.838743 C243.6,323.238743 243.4,322.738743 245.5,321.138743 C246.8,320.238743 246.3,318.838743 241.9,312.038743 C235.8,302.638743 226,286.438743 226,285.838743 C226,285.238743 216.6,271.438743 209.8,262.238743 C206.3,257.438743 202.4,251.738743 201,249.438743 C199.6,247.138743 197.5,244.938743 196.2,244.438743 C189.9,242.038743 167.2,244.238743 160.1,247.938743 C156.8,249.738743 133.4,258.538743 132.1,258.538743 C130.9,258.538743 124.5,262.338743 114.1,269.038743 C108.1,272.938743 106.4,274.638743 104.7,278.438743 C101.5,285.638743 101.4,291.038743 104.3,298.038743 C107,304.638743 117,322.138743 119.4,324.538743 C120.2,325.338743 124.7,328.038743 129.4,330.438743 L137.9,334.838743 L144.9,331.738743 C152.8,328.238743 159.4,326.738743 160.4,328.338743 C160.8,328.938743 158.7,330.038743 155.3,331.038743 C152.1,331.938743 147,334.038743 144,335.638743 C141,337.138743 137.2,338.938743 135.5,339.538743 C131.8,340.938743 133,341.738743 141,343.538743 C163,348.338743 175.3,356.138743 186,372.238743 C192.4,381.838743 192.6,387.538743 186.5,387.538743 C183.2,387.538743 180.1,391.638743 179,397.338743 C178.5,400.238743 177.2,403.638743 176.3,405.038743 C174.2,407.838743 169.9,410.538743 167.5,410.538743 C165.9,410.538743 165.8,411.338743 166.2,416.938743 C167,425.938743 167.7,426.538743 171,420.838743 C174.7,414.438743 184.3,404.538743 186.9,404.538743 C190,404.538743 190.3,406.238743 187.4,408.138743 C179.8,413.238743 169,425.838743 169,429.738743 C169,431.938743 171.2,439.438743 173.5,445.038743 C174.3,446.838743 174.2,446.938743 172.5,445.538743 C170.8,444.138743 166,434.638743 166,432.538743 C166,432.038743 165.6,430.538743 165,429.138743 C164.1,426.738743 163.9,426.638743 161.3,428.038743 C157.9,429.838743 151.9,429.838743 146.5,428.138743 C142.6,426.838743 142.7,426.838743 150.5,426.938743 C156.5,427.038743 159.2,426.638743 161.1,425.338743 C163.6,423.738743 163.7,423.538743 162.6,417.638743 C162,414.338743 160.8,410.938743 160,410.138743 C157.5,407.838743 146,404.738743 134.9,403.538743 C129.2,402.938743 122.2,402.038743 119.4,401.438743 C116.6,400.938743 113.6,400.738743 112.8,401.038743 C111.9,401.438743 110.9,401.238743 110.5,400.638743 C110.2,400.038743 109,399.538743 107.9,399.538743 C106.9,399.538743 106,399.138743 106,398.638743 C106,397.638743 111.8,396.338743 113.1,397.138743 C113.6,397.438743 116.3,397.838743 119.2,397.938743 C138.1,399.238743 160.5,404.438743 163.6,408.438743 C164.5,409.638743 165.3,409.538743 168.4,407.638743 C172.5,405.038743 174.4,401.938743 175.5,396.038743 C176.6,389.638743 178.8,386.538743 183.6,384.438743 C186,383.338743 188,381.838743 188,381.138743 C188,378.838743 178,366.338743 172.6,361.738743 C169.8,359.338743 164.8,356.138743 161.5,354.538743 C155.3,351.438743 135.4,345.838743 111.7,340.538743 L98,337.438743 L95.1,339.438743 C93.3,340.738743 90.5,344.938743 88,350.038743 C85.7,354.738743 81.8,361.238743 79.4,364.538743 C76.4,368.538743 75.5,370.538743 76.5,370.538743 C78.7,370.538743 78.3,372.338743 75.8,373.638743 C70.2,376.638743 61.8,384.038743 59.3,388.238743 C57.1,391.938743 56.6,394.438743 56.2,400.938743 L55.9,409.038743 L60.3,414.638743 C65.4,420.938743 75.8,428.438743 77,426.638743 C77.5,425.738743 78.1,425.938743 79.1,427.138743 C80.8,429.238743 93.9,437.838743 103.5,443.138743 C107.4,445.238743 112.4,448.638743 114.6,450.738743 C116.9,452.838743 119.1,454.538743 119.6,454.538743 C121.1,454.538743 125,445.038743 125,441.638743 C125,439.838743 124.3,435.438743 123.5,431.738743 C122.7,428.038743 121.6,422.238743 121.2,418.738743 C119.8,408.438743 122.4,413.138743 126.5,428.438743 C130.7,443.638743 130.6,445.938743 125.7,453.038743 L122.5,457.738743 L128.2,463.438743 C131.3,466.538743 136.2,472.838743 139,477.438743 C143.3,484.338743 144.4,487.038743 145,492.338743 C146.2,501.338743 148.6,503.638743 157.1,504.038743 C161,504.138743 163.8,503.838743 164.3,503.138743 C164.9,502.438743 165,502.538743 164.7,503.538743 C164.5,504.338743 163.9,505.038743 163.4,505.138743 C162.9,505.138743 161.8,505.438743 161,505.838743 C160.2,506.138743 158.4,506.538743 157.2,506.738743 C155.3,506.938743 154.4,508.238743 152.9,512.538743 C150.7,518.738743 146.1,526.638743 144.3,527.238743 C143.6,527.538743 144.6,524.738743 146.5,521.138743 C148.4,517.538743 150.2,512.938743 150.6,510.938743 C151.2,507.738743 150.9,507.038743 148.4,504.938743 C146.8,503.638743 145,502.638743 144.4,502.538743 C142.9,502.538743 140,495.338743 140,491.638743 C140,486.138743 133,475.538743 121.5,463.738743 C111.7,453.638743 108.9,451.438743 96.2,443.838743 C88.3,439.138743 81.8,435.438743 81.6,435.638743 C81.4,435.838743 80.5,438.338743 79.6,441.238743 C78.7,444.038743 76.1,448.438743 73.9,450.838743 C71.8,453.338743 70,455.638743 70,456.038743 C70,457.938743 87.5,479.738743 90,481.038743 C91.6,481.838743 96.2,483.738743 100.2,485.138743 C109.1,488.338743 113.8,490.638743 120.9,495.338743 C126.8,499.238743 130.2,505.038743 131.5,513.538743 C131.9,515.938743 132.9,519.038743 133.7,520.238743 C134.7,521.838743 135.1,524.538743 134.8,529.238743 L134.5,536.038743 L138.6,536.338743 C141.1,536.538743 145.2,535.738743 148.6,534.538743 C158.2,531.038743 160,530.638743 160,531.638743 C160,532.938743 151.2,536.838743 142.1,539.538743 C133.4,542.238743 128,547.038743 128,552.338743 C128,554.038743 127.6,555.538743 127,555.538743 C126.5,555.538743 126,553.938743 126,552.038743 C126,550.138743 125.6,548.538743 125.1,548.538743 C124.6,548.538743 122,550.038743 119.4,551.838743 C114.8,554.838743 114.5,555.338743 114.2,559.738743 C113.7,567.538743 119,575.038743 130.2,582.538743 C135.2,585.838743 135.5,587.938743 130.7,585.438743 C128.3,584.038743 118.8,581.438743 118.3,581.938743 C118.1,582.138743 119.9,583.438743 122.3,584.838743 C127.4,587.838743 132.2,594.738743 134,601.538743 C134.9,604.638743 135,610.038743 134.6,618.838743 C134,629.938743 134.1,631.538743 135.4,631.538743 C136.3,631.538743 137.9,630.638743 139,629.538743 C140.1,628.438743 141,627.938743 141,628.338743 C141,628.838743 140.1,630.038743 138.9,631.138743 C135.8,633.938743 133.7,638.438743 133.1,643.338743 C132.7,645.738743 132.2,647.338743 131.8,646.938743 Z M23.2,564.138743 C27.7,562.738743 29.1,561.838743 29.6,560.038743 C30.5,556.438743 29.4,555.538743 23.6,555.538743 C18.7,555.538743 17.9,555.238743 14.5,551.838743 C12.5,549.738743 9.7,545.938743 8.4,543.338743 C7.1,540.638743 5.7,538.538743 5.4,538.538743 C4.6,538.538743 5.1,557.138743 6,558.438743 C6.4,559.138743 8.5,559.738743 10.8,559.838743 C15.6,559.938743 14.2,561.538743 9.3,561.538743 C6.8,561.538743 6,561.938743 6,563.338743 C6,564.338743 6.3,565.538743 6.8,565.938743 C7.8,567.038743 16.6,566.138743 23.2,564.138743 Z M130.5,338.338743 C131.9,337.738743 133,336.838743 133,336.438743 C133,335.438743 120.4,329.438743 116.1,328.438743 C113.7,327.938743 111.5,328.138743 109.1,329.138743 C105.7,330.538743 101,334.238743 101,335.438743 C101,335.738743 102.9,336.138743 105.3,336.338743 C107.6,336.538743 112.7,337.238743 116.5,337.938743 C125.8,339.738743 127.5,339.738743 130.5,338.338743 Z M195.2,190.138743 C203.3,188.438743 204.3,188.438743 210.3,189.938743 C213.8,190.838743 217.6,191.538743 218.9,191.538743 C221,191.538743 221.1,191.338743 220.5,185.838743 C219.5,177.538743 216.4,167.638743 210.9,155.338743 C205.5,143.438743 203.7,136.738743 201.9,121.738743 C200.4,109.638743 200.6,109.138743 208.6,102.538743 C211.6,100.038743 215.2,96.2387425 216.5,94.0387425 C217.8,91.8387425 220,88.9387425 221.4,87.6387425 L223.9,85.2387425 L219.7,82.5387425 C215.2,79.7387425 210,74.9387425 210,73.7387425 C210,73.3387425 209.6,72.4387425 209.1,71.7387425 C208.4,70.6387425 206.8,71.0387425 200.9,73.6387425 C190.8,78.0387425 181.6,78.7387425 174.2,75.5387425 C169.4,73.4387425 168.4,73.3387425 161.6,74.4387425 C157.6,75.0387425 153.1,75.9387425 151.6,76.4387425 L149,77.5387425 L149,91.5387425 L149,105.638743 L154.4,111.338743 C160.8,118.238743 168.4,129.038743 169.8,133.738743 C171.2,138.038743 173,154.638743 173,163.238743 C173,167.038743 173.4,169.538743 173.9,169.038743 C175.4,167.238743 177,153.738743 177,141.638743 C177,128.938743 177.4,126.538743 179.6,126.538743 C181.2,126.538743 181.2,126.538743 181.4,132.138743 C181.6,134.338743 182,136.738743 182.5,137.438743 C182.9,138.238743 182.8,139.038743 182.1,139.438743 C181.5,139.838743 180.6,144.638743 180.1,150.138743 C179,161.538743 176.4,173.238743 174.2,175.738743 C173.4,176.738743 172.5,179.738743 172.2,182.538743 C171.8,187.338743 171.8,187.538743 174.3,187.538743 C177,187.538743 179.2,189.638743 177.2,190.338743 C176.5,190.538743 176,191.138743 176,191.738743 C176,193.038743 184,192.338743 195.2,190.138743 Z M232.5,78.3387425 C239,73.5387425 244.8,71.0387425 253,69.4387425 C261.1,67.8387425 261.9,67.1387425 259.2,64.2387425 C258,62.9387425 257,61.4387425 257,60.8387425 C257,59.3387425 248.3,57.5387425 241.1,57.5387425 C236.1,57.5387425 233.6,58.3387425 223.4,63.1387425 C216.8,66.2387425 211.3,68.9387425 211.1,69.1387425 C209.2,70.8387425 224.1,84.2387425 226.3,82.8387425 C227,82.4387425 229.8,80.4387425 232.5,78.3387425 Z" id="Shape" transform="translate(204.097884, 350.269371) scale(-1, 1) rotate(-180.000000) translate(-204.097884, -350.269371) "></path>
                <path d="M188.7,558.238914 C188.4,557.438914 188.3,554.238914 188.6,551.238914 C188.9,546.638914 188.8,545.638914 187.5,545.638914 C186.6,545.638914 186.2,545.238914 186.5,544.638914 C186.8,544.138914 188.2,543.638914 189.6,543.638914 C191.3,543.638914 192,543.038914 192,541.838914 C192,539.038914 190.9,538.438914 189.4,540.438914 C188.2,541.938914 188.1,541.938914 188,539.538914 C188,536.638914 186,534.438914 183.9,534.838914 C182.9,535.038914 182.4,533.938914 182.2,531.438914 C182,529.238914 182.3,527.638914 182.9,527.638914 C183.5,527.638914 184,528.638914 184,529.938914 C184,532.738914 185.8,534.638914 187.7,533.938914 C188.6,533.538914 189.3,534.238914 189.7,535.638914 C190.9,540.038914 192,535.138914 192,525.438914 C192,519.538914 192.4,515.538914 193.1,515.038914 C194.4,514.238914 194,553.938914 192.7,555.338914 C192.2,555.738914 191.2,555.238914 190.4,554.238914 C189.2,552.538914 189.1,552.638914 189.5,555.938914 C190,559.738914 189.6,560.738914 188.7,558.238914 Z" id="Shape" transform="translate(188.018010, 537.319457) scale(-1, 1) rotate(-180.000000) translate(-188.018010, -537.319457) "></path>
                <path d="M163.9,139.597024 C163.8,135.597024 163.8,131.697024 163.9,131.097024 C164.2,129.297024 162.3,129.497024 161.6,131.297024 C160.8,133.597024 156.3,133.097024 154.6,130.597024 C153.5,129.097024 153,126.097024 153,121.297024 C153,115.697024 153.5,113.397024 155.5,109.897024 C157.1,107.197024 158,104.197024 157.8,102.297024 C157.7,100.497024 158.2,98.2970236 158.9,97.3970236 C159.8,96.2970236 159.9,95.7970236 159.1,95.7970236 C158.3,95.7970236 158.3,95.1970236 159.2,93.7970236 C160,92.5970236 161.6,91.7970236 163.2,91.7970236 L165.9,91.7970236 L166.2,79.0970236 C166.5,68.0970236 166.7,66.2970236 168.2,65.9970236 C170.3,65.5970236 171.3,69.5970236 172.6,84.1970236 C173.3,91.9970236 171.6,92.8970236 170.4,85.2970236 C170.1,82.6970236 169.4,81.0970236 168.8,81.3970236 C168.2,81.7970236 168,83.5970236 168.3,85.3970236 C168.6,87.2970236 168.6,88.7970236 168.2,88.7970236 C167.8,88.7970236 167.5,91.5970236 167.4,95.0970236 C167.4,98.4970236 166.9,105.797024 166.3,111.297024 L165.3,121.297024 L165.1,112.597024 C165.1,107.697024 164.6,103.797024 164.1,103.797024 C163.7,103.797024 162,105.697024 160.4,107.997024 C157.9,111.497024 157.5,113.197024 157.2,119.697024 C156.9,128.997024 157.7,130.697024 161.4,128.297024 C162.8,127.297024 164,125.597024 164.1,124.397024 C164.1,122.397024 164.2,122.397024 164.9,124.297024 C166.1,127.197024 167.3,142.397024 166.5,144.797024 C165.2,148.897024 164,146.597024 163.9,139.597024 Z" id="Shape" transform="translate(162.881787, 106.398512) scale(-1, 1) rotate(-180.000000) translate(-162.881787, -106.398512) "></path>
                <path d="M276.5,155.744457 C276.1,154.444457 273.5,139.644457 272,129.944457 C270.9,122.644457 270,120.344457 268.9,122.144457 C268.3,122.944457 268,121.744457 268,118.944457 C268,115.244457 266,96.5444569 264.8,88.5444569 C264.6,87.5444569 265,86.4444569 265.7,86.2444569 C266.4,85.9444569 267.1,87.8444569 267.5,91.6444569 C267.9,94.8444569 268.5,98.5444569 269,99.9444569 C269.7,101.944457 269.9,101.244457 269.9,96.7444569 C270,92.8444569 270.4,90.9444569 271.3,90.9444569 C272.2,90.9444569 272.1,90.6444569 271.1,90.0444569 C270.1,89.3444569 270,88.7444569 270.9,87.3444569 C271.5,86.2444569 272,85.6444569 272,85.9444569 C272.1,86.2444569 272.3,91.1444569 272.5,96.9444569 C273.4,117.444457 274,125.544457 275.5,134.444457 C277.7,148.344457 278.4,161.344457 276.5,155.744457 Z" id="Shape" transform="translate(271.175461, 121.472228) scale(-1, 1) rotate(-180.000000) translate(-271.175461, -121.472228) "></path>
                <path d="M317.7,110.432805 C316.8,103.232805 315.2,96.9328052 313,92.7328052 C310.5,87.7328052 310.5,87.3328052 313,88.6328052 C314.2,89.2328052 316.2,92.1328052 317.7,95.0328052 L320.2,100.332805 L323.8,98.5328052 C327,96.8328052 327.5,96.8328052 330.9,98.2328052 C332.9,99.1328052 335.1,100.032805 335.8,100.332805 C337,100.832805 337.5,102.632805 336.4,102.632805 C336.1,102.632805 335.2,101.932805 334.4,101.132805 C333.5,100.332805 331.5,99.6328052 329.9,99.6328052 C327.3,99.6328052 327.1,99.8328052 327.9,101.432805 C328.4,102.432805 329,104.532805 329.2,106.032805 C329.4,107.432805 329.9,108.632805 330.3,108.632805 C330.7,108.632805 331.4,108.632805 331.8,108.632805 C332.3,108.632805 333.2,107.632805 333.8,106.432805 C334.9,104.132805 334.9,104.132805 334.5,106.632805 C334.3,108.032805 334.1,109.432805 334.1,109.732805 C334,110.032805 333,110.832805 331.7,111.332805 C327.8,113.132805 323.3,110.532805 322.4,106.232805 C322.1,104.232805 321.3,102.332805 320.7,101.932805 C320.1,101.532805 320,102.632805 320.4,105.032805 C321.2,109.032805 320.4,114.632805 319,114.632805 C318.6,114.632805 318,112.732805 317.7,110.432805 Z" id="Shape" transform="translate(324.067691, 101.316403) scale(-1, 1) rotate(-180.000000) translate(-324.067691, -101.316403) "></path>
                <path d="M340,149.212789 C340,142.012789 334.9,127.012789 326.9,111.112789 C324.4,106.212789 321.7,100.012789 321,97.4127891 C320.2,94.6127891 318.8,92.4127891 317.6,91.8127891 C316.2,91.2127891 316,90.7127891 316.8,90.2127891 C317.5,89.8127891 318,90.0127891 318,90.5127891 C318,91.1127891 318.5,91.6127891 319.1,91.6127891 C319.7,91.6127891 320.8,92.3127891 321.7,93.1127891 C323.5,95.0127891 329,105.112789 329,106.712789 C329,107.412789 329.6,108.412789 330.3,109.012789 C331.8,110.212789 338.4,126.812789 339.9,133.112789 C341.4,139.612789 342.1,151.612789 341,151.612789 C340.5,151.612789 340,150.512789 340,149.212789 Z" id="Shape" transform="translate(328.934594, 120.806395) scale(-1, 1) rotate(-180.000000) translate(-328.934594, -120.806395) "></path>
                <path d="M174,194.022515 C174,187.822515 175,184.022515 176.6,184.622515 C178.2,185.222515 180,181.222515 180,177.322515 C180,174.022515 184.4,166.522515 187.5,164.522515 C189.7,163.122515 190,162.122515 190,157.122515 C190,150.022515 189.2,146.922515 187.3,146.922515 C186.5,146.922515 186.2,147.422515 186.5,147.922515 C186.8,148.522515 186.2,148.922515 185,148.922515 C181.5,148.922515 179,143.422515 179,135.722515 C179,128.722515 179.6,125.922515 181.1,125.922515 C181.6,125.922515 182,129.722515 182,134.222515 C182,138.822515 182.3,142.822515 182.6,143.122515 C182.9,143.522515 184.7,143.122515 186.7,142.322515 C190.9,140.522515 218.2,139.122515 228.4,140.122515 C236.4,140.922515 243.3,143.622515 242.6,145.622515 C241.9,147.422515 243.4,147.222515 245.8,145.222515 C247.7,143.622515 247.8,142.922515 246.9,138.422515 C245.7,132.622515 246.4,123.222515 248.5,116.322515 C249.9,111.722515 249.8,111.322515 247.7,108.222515 C244.2,103.122515 240.4,102.022515 223.8,101.622515 C215.7,101.422515 208.7,101.022515 208.4,100.622515 C207,99.322515 213.7,98.722515 226.8,99.122515 C242,99.522515 244.9,100.522515 249.4,106.122515 C251.8,109.322515 251.9,109.322515 253.9,107.522515 C256.8,104.822515 256.9,104.222515 251.3,122.222515 C249.8,126.922515 249.9,136.122515 251.6,143.122515 C252.3,146.222515 250.5,147.522515 244.2,148.322515 C240.6,148.722515 240,148.522515 240,147.022515 C240,145.522515 238.9,145.022515 235.3,144.422515 C230.8,143.722515 201.6,144.522515 195.4,145.522515 L192.3,145.922515 L193.2,150.522515 C193.8,153.022515 193.9,156.622515 193.6,158.522515 C192.7,163.122515 192.8,163.422515 195,163.122515 C198.1,162.622515 197.4,163.522515 192.6,166.322515 C188.6,168.722515 188.1,169.422515 187.4,173.722515 C186.4,180.522515 184.8,183.922515 180.2,188.722515 C177.6,191.422515 176,194.022515 176,195.522515 C176,196.822515 175.6,197.922515 175,197.922515 C174.5,197.922515 174,196.222515 174,194.022515 Z" id="Shape" transform="translate(214.928816, 148.461257) scale(-1, 1) rotate(-180.000000) translate(-214.928816, -148.461257) "></path>
                <path d="M420.6,318.751042 C416.2,314.251042 413.5,310.451042 411.5,305.651042 C408.6,299.051042 408.5,298.951042 405.4,299.551042 C401.8,300.251042 397.7,299.251042 398.5,297.951042 C398.8,297.451042 400.6,297.351042 402.4,297.651042 C405.5,298.151042 406,297.851042 407.4,295.151042 C408.3,293.451042 409.6,289.551042 410.4,286.551042 C412.1,280.151042 413.9,276.351042 414,279.151042 C414,280.051042 413.6,281.051042 413.1,281.351042 C412.7,281.651042 412.5,283.051042 412.8,284.451042 C413,285.851042 412.8,286.951042 412.4,286.951042 C411.9,286.951042 411.5,288.251042 411.4,289.751042 C411.3,291.951042 411.9,292.851042 414.2,293.851042 C415.7,294.551042 417.7,296.351042 418.4,297.751042 C419.2,299.251042 420.2,300.351042 420.7,300.351042 C421.1,300.251042 423.4,301.451042 425.7,303.051042 C430.6,306.451042 433.5,306.751042 435,303.951042 C436.2,301.751042 435.3,301.151042 428.8,299.051042 C421.4,296.651042 417.9,291.951042 421.5,288.951042 C423.6,287.251042 423.4,283.251042 421,280.751042 C419.9,279.551042 419.1,277.651042 419.2,276.551042 C419.3,275.351042 418.7,272.651042 418,270.451042 C417.2,268.251042 416.6,262.251042 416.6,257.151042 L416.5,247.851042 L413.8,251.151042 C410.8,254.751042 407.4,264.551042 406.4,272.251042 C405.9,276.351042 405.1,277.951042 400.9,282.251042 C395.7,287.651042 395.1,289.851042 397.5,295.351042 C398.1,296.751042 398,297.051042 396.9,296.751042 C396.1,296.451042 395.6,295.451042 395.6,294.551042 C395.7,293.651042 395.4,292.951042 394.9,292.951042 C392.9,292.951042 395.2,284.351042 397.9,281.451042 C401.9,277.251042 402.9,275.051042 403.9,267.351042 C404.5,263.551042 406.2,257.851042 408,254.351042 C411,248.151042 417.7,240.951042 420.5,240.951042 C421.3,240.951042 422,240.151042 422,239.251042 C422,238.251042 422.8,235.251042 423.7,232.651042 C425,228.951042 425.2,227.451042 424.3,226.051042 C423.7,225.051042 422.9,221.651042 422.5,218.351042 C422.1,215.151042 421.2,211.451042 420.4,210.251042 C418.3,206.951042 418.7,204.351042 422,198.051042 C426.2,190.151042 446,164.051042 450.2,160.851042 C456,156.351042 464.3,152.051042 468.5,151.451042 C471.7,150.851042 473,151.151042 475.3,152.951042 C478.9,155.751042 478.8,157.351042 475,155.451042 C471,153.351042 468.7,153.551042 463.2,156.351042 C456.2,159.951042 449.2,166.951042 438.7,181.051042 C423.3,201.751042 423,202.151042 423.7,206.351042 C424,208.351042 424.7,209.951042 425.3,209.951042 C425.9,209.951042 428.3,208.051042 430.6,205.851042 C433,203.451042 439.4,199.351042 445.2,196.451042 L455.5,191.251042 L455.4,187.351042 C455.4,185.151042 455,182.151042 454.5,180.451042 C453.7,177.451042 453.7,177.451042 455.8,179.351042 C456.9,180.351042 458,182.051042 458.2,183.051042 C458.6,185.651042 460.4,185.551042 460.8,183.051042 C461,181.951042 461.7,181.251042 462.4,181.551042 C463.9,182.151042 475.9,167.051042 479.4,160.051042 C483.8,151.451042 482.9,148.851042 473.2,142.551042 C464.2,136.751042 461.9,133.951042 460.9,128.251042 C460.5,125.651042 459.8,122.551042 459.4,121.451042 C458.7,119.551042 458.7,119.551042 460.7,121.251042 C461.9,122.251042 463.3,124.951042 463.9,127.351042 C465.3,133.051042 467.9,136.151042 474.2,139.751042 C490.3,148.851042 489.7,154.251042 469.5,179.551042 L460.1,191.451042 L460.1,200.951042 C460.1,206.151042 460.7,212.751042 461.4,215.451042 C462.7,219.851042 462.6,220.551042 461.2,221.751042 C459.8,222.851042 459.4,222.051042 457.9,214.751042 C456.7,208.951042 456.5,206.051042 457.2,205.151042 C458.4,203.751042 457.7,196.251042 456.2,194.751042 C455.6,194.151042 452.7,195.151042 448.3,197.251042 C444.5,199.051042 440.8,200.351042 440.1,200.151042 C439.3,199.851042 439,200.151042 439.4,200.851042 C439.8,201.451042 439.7,201.951042 439.1,201.951042 C438.6,201.951042 436.2,203.651042 433.8,205.751042 C431.4,207.751042 428.3,210.351042 426.8,211.451042 C424.3,213.351042 424.2,213.751042 424.9,219.451042 C425.7,225.051042 425.8,225.251042 426.5,222.251042 C427.3,218.751042 428.7,217.951042 429.7,220.551042 C430.2,221.851042 430.5,221.851042 432.4,220.151042 C436.6,216.251042 441.5,213.951042 445.7,213.951042 C451.3,213.951042 452,215.451042 446.5,215.651042 C441.5,215.851042 437.6,217.651042 433.8,221.651042 C431.1,224.451042 427.7,231.251042 428.5,232.151042 C428.8,232.351042 427.6,234.151042 426,235.951042 C422.5,239.951042 422.3,240.351042 425,239.651042 C428.3,238.851042 427.3,240.851042 423.6,242.651042 C420.4,244.151042 420.2,244.651042 419.5,250.451042 C418.9,255.951042 419.7,264.051042 421.8,276.451042 C422.7,281.251042 424.6,281.951042 430.1,279.351042 C434,277.651042 434.8,276.551042 433,275.451042 C432.5,275.151042 432,273.851042 431.9,272.651042 C431.9,270.451042 431.9,270.451042 430.2,272.851042 C429.3,274.251042 427.7,276.251042 426.7,277.351042 C424.9,279.451042 424.9,279.451042 425.5,276.451042 C426.7,270.751042 431.7,261.351042 438.2,252.751042 C442.7,246.851042 444.9,242.851042 445.4,240.151042 C446,236.251042 449.3,230.951042 450.4,231.951042 C450.7,232.251042 450.3,234.751042 449.5,237.451042 C447.6,243.651042 447.6,247.951042 449.6,255.051042 C450.5,258.251042 451,261.551042 450.7,262.351042 C450.4,263.151042 448.4,264.151042 446.3,264.451042 C438.5,265.751042 435.9,267.351042 434.5,271.851042 C433.8,274.051042 434,274.151042 436.6,273.751042 C441.2,272.951042 449.4,269.551042 450.6,268.051042 C451.5,266.851042 451.8,266.951042 452.4,268.451042 C452.9,269.951042 453.8,270.151042 457.8,269.651042 C462.1,269.051042 462.3,269.151042 460.6,270.451042 C459.5,271.251042 457.4,271.951042 455.9,271.951042 C453.8,271.951042 453,272.651042 452.2,274.851042 C451.3,277.551042 450.8,277.751042 443.9,278.351042 C439.9,278.751042 435.3,279.751042 433.8,280.551042 C432.3,281.351042 430,282.051042 428.6,282.151042 C427.3,282.251042 426.3,282.651042 426.6,283.051042 C426.8,283.451042 426.6,284.051042 426,284.451042 C423.5,285.951042 426.8,286.751042 438.5,287.451042 C445.5,287.851042 450.9,288.451042 450.5,288.751042 C449.5,289.851042 445.5,290.251042 434.6,290.351042 C426.7,290.451042 423.6,290.851042 423.2,291.751042 C422.6,293.651042 424.8,295.751042 428.3,296.551042 C430.1,296.851042 434.2,298.551042 437.5,300.251042 C440.8,301.951042 444.5,303.451042 445.7,303.451042 C448.6,303.551042 449.8,304.851042 448,305.951042 C447.1,306.451042 446.1,306.451042 445.4,305.851042 C442.7,303.651042 438.9,303.851042 436,306.351042 C434,307.951042 432.3,308.551042 430.8,308.251042 C428.1,307.551042 420.5,302.151042 417.1,298.551042 C411.7,292.851042 410.4,296.551042 414.7,305.551042 C418.5,313.551042 426.4,321.951042 430.1,321.951042 C434.7,321.951042 442.9,317.351042 443.6,314.451042 C443.9,313.051042 444.7,311.951042 445.2,311.951042 C446.4,311.951042 445.4,316.751042 443.8,318.651042 C442.1,320.751042 432.7,324.951042 429.7,324.951042 C427.5,324.951042 425.4,323.451042 420.6,318.751042 Z" id="Shape" transform="translate(439.839254, 222.475521) scale(-1, 1) rotate(-180.000000) translate(-439.839254, -222.475521) "></path>
                <path d="M260.5,246.016675 C260.2,245.516675 260.2,244.516675 260.5,244.016675 C260.9,243.416675 260.6,242.316675 260,241.516675 C259.3,240.716675 259.1,238.916675 259.5,237.116675 C260.8,231.016675 252.1,220.016675 238.3,210.416675 C226.7,202.416675 222.5,200.716675 214.6,200.916675 C210.1,201.016675 208.9,200.716675 209.7,199.916675 C211.4,198.216675 219.9,197.616675 224.7,198.916675 C229.4,200.216675 244.8,210.116675 250.5,215.516675 C252.6,217.416675 254.5,219.016675 254.8,219.016675 C255,219.016675 255,217.616675 254.6,216.016675 C253.9,212.116675 247.7,203.916675 240.5,197.216675 C237.4,194.216675 235.1,191.616675 235.3,191.316675 C237.6,189.116675 250.2,200.916675 255.4,210.016675 L257.7,214.016675 L261.2,210.616675 C263.1,208.716675 265.1,206.416675 265.5,205.316675 C266.1,203.916675 266.4,203.816675 266.8,204.916675 C267,205.716675 266,207.516675 264.3,208.916675 C259.6,213.016675 258.4,217.016675 260,223.816675 C260.7,226.916675 261.8,230.116675 262.3,230.716675 C262.8,231.416675 262.9,234.716675 262.5,238.216675 C262.2,241.716675 261.8,245.116675 261.8,245.816675 C261.6,247.316675 261.3,247.316675 260.5,246.016675 Z" id="Shape" transform="translate(238.147399, 219.008338) scale(-1, 1) rotate(-180.000000) translate(-238.147399, -219.008338) "></path>
                <path d="M190,318.320433 C190,314.020433 196.3,302.020433 200.4,298.420433 C203.8,295.420433 205.3,294.720433 210.5,293.920433 C211.7,293.720433 210.2,292.820433 206.5,291.620433 C201.9,290.020433 200.2,289.020433 199.1,286.720433 C197.5,283.320433 198.3,281.020433 204,273.620433 C206.1,270.920433 208.9,266.320433 210.4,263.420433 C211.8,260.620433 213.9,257.620433 215.1,256.820433 C216.2,256.020433 217,254.520433 216.8,253.520433 C216.6,252.220433 217,251.720433 218,251.920433 C218.8,252.120433 222.5,252.520433 226.2,252.820433 C234.5,253.520433 240.6,251.520433 244.9,246.620433 C246.6,244.720433 248.2,243.620433 248.5,244.120433 C248.8,244.620433 248.2,245.420433 247.3,246.020433 C246.3,246.620433 245.9,247.120433 246.4,247.120433 C247.8,247.120433 243.8,251.120433 242.3,251.120433 C241.6,251.120433 241,251.520433 241,252.020433 C241,253.720433 234.7,255.120433 227,255.120433 C218.2,255.120433 217.4,255.620433 214.5,263.620433 C212.3,269.720433 210.7,272.320433 205.8,278.020433 C201.8,282.620433 201.1,285.120433 203.3,286.920433 C204,287.520433 209.8,289.520433 216.1,291.320433 C222.5,293.220433 226.5,294.720433 225.3,294.920433 C221.9,295.420433 222.5,296.620433 227.2,298.420433 C230.3,299.720433 231.1,300.420433 230.3,301.220433 C229.5,302.020433 227.9,301.920433 224.4,300.720433 C221.8,299.820433 216.5,299.120433 212.7,299.120433 C206,299.120433 205.6,299.220433 202.3,302.720433 C200.5,304.720433 197.1,309.620433 194.9,313.720433 C192.6,317.820433 190.6,321.120433 190.4,321.120433 C190.2,321.120433 190,319.820433 190,318.320433 Z" id="Shape" transform="translate(219.289019, 282.560217) scale(-1, 1) rotate(-180.000000) translate(-219.289019, -282.560217) "></path>
                <path d="M277,294.664371 C277,293.164371 277.7,289.264371 278.5,286.164371 C281.2,275.464371 282.1,266.364371 281,259.264371 C279.8,251.964371 278.7,249.964371 276.8,251.864371 C276.1,252.564371 274.9,253.064371 274.1,253.064371 C273,253.064371 273.6,252.064371 275.7,249.864371 C278.8,246.764371 279,246.764371 280.9,248.464371 C283.7,251.064371 285.3,260.064371 284.7,269.564371 C283.9,281.164371 277,303.664371 277,294.664371 Z" id="Shape" transform="translate(279.192296, 272.032185) scale(-1, 1) rotate(-180.000000) translate(-279.192296, -272.032185) "></path>
                <path d="M365.1,437.803816 C362.9,425.403816 352.2,395.303816 346,383.703816 C344.4,380.603816 343,377.403816 343,376.703816 C343,374.803816 344.9,374.903816 347.1,376.903816 C348.8,378.403816 349.1,378.003816 353,370.203816 C358.4,359.603816 366.1,347.103816 371,341.303816 C373,338.803816 377.5,331.603816 380.8,325.203816 C384.1,318.803816 387.5,312.403816 388.5,311.003816 C389.4,309.503816 390,307.803816 389.8,307.103816 C389.5,306.403816 389.9,305.203816 390.7,304.503816 C391.4,303.803816 392.3,302.003816 392.6,300.503816 C392.9,299.003816 393.8,296.403816 394.5,294.803816 C395.3,293.103816 396.5,289.603816 397.2,286.903816 C398.4,282.403816 398.3,281.903816 395.7,277.003816 C392.1,270.103816 386.9,263.903816 379.7,257.803816 C376.4,255.103816 372.6,251.803816 371.1,250.503816 L368.5,248.203816 L371,248.903816 C374.4,249.803816 383,255.403816 387.9,259.903816 C393.6,265.003816 401.1,276.603816 401.7,281.103816 C403,290.603816 384.5,332.103816 373,345.803816 C368.9,350.703816 364.4,357.703816 355.8,373.003816 C354.2,375.603816 352.5,378.503816 351.9,379.403816 C351,380.603816 351.8,383.603816 355.7,393.903816 C363.9,414.903816 368,430.103816 368,439.303816 C368,446.303816 366.6,445.503816 365.1,437.803816 Z" id="Shape" transform="translate(372.382498, 346.151908) scale(-1, 1) rotate(-180.000000) translate(-372.382498, -346.151908) "></path>
                <path d="M157,334.749036 C151.4,327.649036 141.2,322.149036 130.3,320.349036 C126.3,319.649036 122.8,319.349036 122.6,319.649036 C122.3,319.849036 122.6,321.949036 123.2,324.249036 C123.8,326.849036 123.8,328.949036 123.3,330.049036 C122.6,331.249036 122,330.249036 120.6,325.449036 L118.9,319.349036 L108.2,319.949036 C96.2,320.749036 96,319.749036 107.5,316.949036 C111.3,316.049036 114.6,315.149036 114.8,315.049036 C115.9,314.149036 112.5,310.449036 105.9,305.549036 C100,301.149036 96.6,299.449036 92.5,298.549036 C87.5,297.549036 85.8,296.349036 87.8,295.249036 C88.2,294.949036 90.9,295.149036 93.8,295.549036 C101,296.749036 113.7,305.749036 118.7,313.349036 C119.9,315.049036 121.2,315.549036 124.9,315.549036 C141.4,315.549036 158.6,325.949036 162.4,338.349036 C163.6,342.049036 161.8,340.849036 157,334.749036 Z" id="Shape" transform="translate(124.870557, 317.774518) scale(-1, 1) rotate(-180.000000) translate(-124.870557, -317.774518) "></path>
                <path d="M219.4,346.812216 C217.7,346.112216 215.2,344.812216 213.9,343.912216 L211.5,342.112216 L214.4,343.112216 C218.8,344.712216 234.1,345.512216 238.1,344.412216 C242.3,343.212216 253.7,334.712216 251.6,334.312216 C250.8,334.112216 248.5,334.812216 246.3,335.712216 C243.6,336.912216 239.5,337.512216 232,337.612216 C221.3,337.812216 219,337.512216 219,336.112216 C219,335.612216 223.5,335.212216 229.1,335.212216 C237.2,335.112216 240.6,334.612216 246.4,332.512216 C250.3,331.212216 254,330.012216 254.7,329.912216 C256.1,329.712216 255.3,327.412216 253.5,326.812216 C252.8,326.512216 249.1,326.712216 245.3,327.312216 C238.2,328.412216 230.5,327.712216 231.5,326.012216 C231.9,325.512216 235.1,325.112216 238.8,325.112216 C246.2,325.112216 249.6,323.812216 247,322.112216 C246.2,321.612216 246,321.112216 246.6,321.112216 C247.2,321.112216 248.8,321.912216 250.1,323.012216 C251.4,324.012216 253.5,325.112216 254.8,325.512216 C258.9,326.812216 257.1,333.412216 250.7,339.812216 C246.7,344.012216 246.7,344.112216 248.5,345.712216 C250.3,347.112216 250.3,347.212216 248.6,346.312216 C247.4,345.712216 245.2,345.812216 242.2,346.712216 C236.8,348.412216 223.7,348.412216 219.4,346.812216 Z" id="Shape" transform="translate(234.247395, 334.556108) scale(-1, 1) rotate(-180.000000) translate(-234.247395, -334.556108) "></path>
                <path d="M449.1,341.517423 C447.4,339.917423 446,338.917423 446,339.217423 C446,339.617423 445.3,339.017423 444.5,338.017423 C443.7,336.917423 443,336.317423 443,336.717423 C443,337.517423 443,337.517423 435.8,331.517423 C430,326.717423 424.9,325.417423 408,324.717423 C397.7,324.317423 393.7,324.617423 385.3,326.317423 C373.7,328.717423 373.7,328.717423 374.5,327.517423 C374.8,327.017423 377.6,325.717423 380.8,324.717423 C385.5,323.217423 389.8,322.917423 405.5,323.017423 C427.3,323.117423 430.9,323.917423 437.2,330.317423 C439.3,332.517423 441,334.017423 441,333.817423 C441,333.217423 443,334.817423 448.8,340.217423 C451.4,342.517423 453.2,344.417423 452.8,344.417423 C452.5,344.417423 450.8,343.117423 449.1,341.517423 Z" id="Shape" transform="translate(413.528734, 333.708712) scale(-1, 1) rotate(-180.000000) translate(-413.528734, -333.708712) "></path>
                <path d="M351,384.267935 C351,383.267935 357.5,377.167935 359.3,376.467935 C360.6,375.967935 360.9,375.167935 360.4,373.067935 C358.6,365.767935 356.5,365.067935 352.4,370.567935 C350.9,372.567935 348.8,375.067935 347.7,376.167935 C346.3,377.467935 346,378.867935 346.4,380.867935 C347,383.967935 345.4,384.967935 344.3,382.167935 C343.5,379.967935 347.5,372.667935 352.6,367.167935 C356.8,362.667935 359,361.667935 359,364.267935 C359,365.067935 359.7,365.767935 360.5,365.767935 C361.3,365.767935 362,365.367935 362,364.867935 C362,364.367935 363.7,362.467935 365.7,360.567935 C367.7,358.767935 370.5,356.167935 371.9,354.767935 C374.5,352.367935 383.9,347.367935 384.7,348.067935 C385.6,349.067935 383.5,351.467935 379.5,354.067935 C377,355.667935 375,357.367935 375,357.867935 C375,358.367935 374.4,358.767935 373.7,358.767935 C370.5,358.767935 366.9,366.367935 369.3,367.967935 C370,368.367935 369.9,369.167935 369.1,370.167935 C367,372.667935 366.1,372.067935 366.7,368.367935 C367.3,364.267935 365.9,363.167935 363.5,365.767935 C361.9,367.567935 361.8,368.267935 362.9,371.867935 C364.3,376.667935 363.8,377.667935 357.1,381.967935 C352.7,384.667935 351,385.367935 351,384.267935 Z" id="Shape" transform="translate(364.552062, 366.383968) scale(-1, 1) rotate(-180.000000) translate(-364.552062, -366.383968) "></path>
                <path d="M224.8,440.692283 C222.5,440.092283 219.6,438.092283 217.2,435.492283 C211,428.692283 202.8,423.492283 195,421.292283 L190.5,420.092283 L194,419.992283 C198.4,419.892283 205,422.892283 211.7,427.992283 C217.4,432.192283 217.9,431.992283 215.4,426.092283 C214.6,424.092283 213.8,419.692283 213.6,416.392283 C213.4,410.892283 212.9,409.692283 207.5,401.892283 C204.3,397.192283 199.9,389.592283 197.8,384.892283 C195.6,380.192283 193.2,375.092283 192.4,373.392283 C191.6,371.792283 187.1,366.392283 182.5,361.592283 L174,352.792283 L169.3,353.392283 C162.5,354.292283 155.2,355.792283 150.2,357.292283 C146.7,358.492283 146.1,358.492283 147.1,357.292283 C147.7,356.592283 149.6,355.592283 151.3,354.992283 C157.4,353.092283 173,350.692283 175.4,351.292283 C176.7,351.592283 179.3,353.792283 181.1,356.092283 C183,358.492283 186.4,362.392283 188.7,364.892283 C191.3,367.592283 195,373.492283 197.9,379.392283 C203.5,391.092283 208.7,399.392283 212.5,402.892283 C216.4,406.492283 218,410.192283 218,415.592283 C218,418.192283 219,424.092283 220.2,428.692283 C222,435.692283 222.8,437.192283 225.1,438.492283 C226.6,439.292283 228.6,439.892283 229.5,439.892283 C230.4,439.892283 230.8,440.392283 230.5,440.892283 C229.8,441.992283 229.8,441.992283 224.8,440.692283 Z" id="Shape" transform="translate(188.631674, 396.446142) scale(-1, 1) rotate(-180.000000) translate(-188.631674, -396.446142) "></path>
            </g>
        </g>
    </g>
</svg>