<svg width="365" height="1032" viewBox="0 0 365 1032" xmlns="http://www.w3.org/2000/svg">
  <title>
    zaphod
  </title>
  <g fill-rule="nonzero" stroke="#57C003" stroke-width="2" fill="none">
    <path d="M142.8 1.7c-2.7 5.4-4.8 10.9-4.8 12.5 0 1.8.5 1.7 6.3-1.5 3.5-1.9 10.3-4.7 15.1-6.2 8.2-2.7 9.1-2.8 16.4-1.7 4.2.6 9.7 1.3 12.2 1.6 2.4.3 6.2 1.2 8.5 2.2 2.2.9 5.1 2.1 6.5 2.7l2.5 1-3 .7c-1.6.4-4.1 1.3-5.5 2-2.4 1.4-2.4 1.4 3 2.5 3 .6 6.3 1.6 7.3 2.1 1.7 1 1.6 1.2-.9 2.9-7.2 4.7-15.7 14.6-14 16.3.3.3 1.6 0 2.9-.6 1.2-.6 4.7-1.6 7.7-2.3 7.9-1.7 9-2.2 5.2-2.7-1.8-.2-3.9.1-4.5.6-.7.5-3 1.2-5.2 1.6l-4 .7 5.5-5.6c3-3 7.6-6.6 10.1-7.9 3.8-2.1 18.2-5.9 20.6-5.5 2.9.5 8.3-.3 8.3-1.2 0-1.3-7-7.7-9.2-8.5-3.1-1-1.9-2.2 3.2-3.3 10.1-2.2 16.3-1.2 27.7 4.5 2.8 1.4 5.9 3.4 6.9 4.5.9 1 2.4 1.9 3.2 1.9 1.1 0 .8.8-1.1 2.8-4.9 5.1-2.8 5.5 2.6.4C282.7 8.3 285 6.7 291.8 4.9c8.2-2.3 9.6-2.3 11.7-.2 1.6 1.5 1.5 1.8-1.9 3.5-3.1 1.6-6.4 5.4-5.4 6.3.2.1 3-.2 6.4-.8 5.5-.9 6.9-.8 14.9 1.7 6.6 2.1 9.7 3.7 12.8 6.6l4.1 3.8-5.6.7c-6.2.8-10 2.7-8.3 4.3.6.5 2.8 1.5 5 2.2 7.7 2.4 12.2 5.7 16.8 12.7 7.4 11.3 11.3 20.7 12.7 31.1.7 5.1 1.1 9.5.8 9.7-.3.3-1.8-1.3-3.3-3.5-2.8-4-5.4-5.5-4-2.3.8 1.9 1.8 13.7 3.4 42.8 1.1 19.5 2.5 25.8 8.1 37 4.3 8.6 4.8 10.4 2.5 8.5-.8-.7-1.5-1-1.5-.6 0 1.1-8.1-4.4-10.7-7.2-2-2.2-2.3-2.3-1.7-.7 4.9 13.2 4.7 12.3 3 22.5-.9 5.2-1.6 11.5-1.6 14 0 4 1.9 16.5 3.7 24.5l.6 2.9-4.9-3.6c-3.5-2.6-5.2-4.8-6.3-7.9-2.6-7.4-2.4-1.5.4 15.7 2.6 15.5 7.6 36.9 9.5 40.5 2.4 4.3.9 4.8-5.4 1.9-5.2-2.3-12.6-10.3-12.6-13.6 0-1.2-.5-2.6-1.1-3-1.1-.7-.6 24.6.6 27.8.3.8.5 1.9.4 2.4-.4 1.4 1.2 9.3 2 9.8.4.3.8 1.9.9 3.7.2 1.8.9 4.6 1.7 6.1.7 1.5 1 2.8.6 2.8-1.5 0-9.8-8.6-14.4-15-7.7-10.5-12.7-17.8-12.7-18.5 0-.3-1.5-3.9-3.4-7.9s-4.3-10.4-5.5-14.3c-2.1-6.9-2.8-16.3-1.3-16.3 1.6-.1 7.9-6.7 9-9.5 1.3-3.7 2.9-11.4 3.7-18 .7-5.8 2.1-13.5 4.1-22.1.8-3.3 1.4-7.7 1.4-9.8 0-5.2-4.6-10.9-10.6-13.2-5.2-2-5.5-4.1-.9-6.3 4.4-2 7-4.6 9.3-9.4 4.3-8.9 5.1-14 3.1-20.7-.9-3.1-.8-4.7.6-8.9.9-2.8 1.3-5.6.9-6.2-.4-.7-2.7 4.2-5.1 11.1-5.2 14.3-9 20.6-16.6 27.7-5.6 5.2-12.8 10.5-13.4 9.9-.2-.1.8-2.9 2.1-6.2 1.3-3.2 2.7-8 3-10.6.4-2.5 1.3-5.2 2.1-5.8 3-2.5.2-2.9-3.5-.5-2.2 1.4-4 2.3-4 2.1 0-.3 1.4-2.5 3-4.9 1.7-2.5 3-5.3 3-6.2 0-1 .7-5.3 1.6-9.5 1.2-6.2 1.3-9.3.5-15.1-.6-4.4-.6-7.9-.1-8.9 1.7-3.2-.2-2.9-2.4.3-1.2 1.8-3 3.2-4.1 3.2-1.7 0-2.1-1-2.7-7.5-1.1-10.8-1.3-11.1-3.2-4.7-1 3.3-3.1 7.3-4.8 9l-2.9 3.2.6-3c1.8-8.8 1.7-14.2-.5-20.4-2.6-7.1-3.1-7.6-6.8-6.6l-2.7.8 2.5.6c4.1 1.1 6.5 6.6 6.5 14.6-.1 10.9-1 14.2-4.3 14.8-1.5.3-5.8 1.5-9.7 2.7-3.8 1.1-8.5 1.9-10.2 1.7-3.6-.3-3.8 0-2.2 3.7 1.2 2.5 5.4 4.6 9.3 4.6 1.7 0 1.6.3-1.1 2-3.2 1.9-4.4 4-2.3 4 .6 0 1-.4 1-.9 0-.8 8.1-5.1 9.5-5.1.4 0-.1 1-.9 2.2-1.8 2.6-2.1 9-.6 11.9 1.3 2.4-.5 2.5-5.6.4-2.6-1.1-3.4-1.1-3.2-.2.7 1.9 6.7 3.6 12.9 3.6 4.4.1 6-.3 7.4-1.9 1-1.1 2.3-2 2.9-2 .6 0 2.5-1.1 4.1-2.4l3-2.4-3-3.2c-1.6-1.7-5.6-4.3-8.8-5.8l-5.7-2.6 7.2-2.2c7.7-2.2 9.7-2.1 7.7.2-1.8 2.2-.3 2.8 2.2 1 2.1-1.4 2.4-1.4 4 0 2.6 2.4 4.2.8 3.4-3.3-.4-2.4-.3-3.3.4-2.8 2.6 1.5.4 21.8-3.3 30.5-2.3 5.6-15.6 12.2-29.1 14.5-4.6.8-9.1 2.9-12.2 5.8-3.3 3-2.8 3.8 1.2 2.1 6.9-2.8 13.2-1.3 16.5 4.2 2 3.1 2 3.4.4 8-3 8.9-8.2 13.6-19.7 17.8-5.6 2.1-9.7 1.5-9.7-1.4 0-4.3-7.8-5.4-10.4-1.5-1.3 2-2.3 2.4-3.9 2-6.8-1.9-7.8-3.4-10.1-15.5-3-15.6-3-15.7-.2-16.4 1.3-.3 3.7-.1 5.2.4 2.1.8 2.9.7 3.9-.6 1.1-1.6 1.4-1.6 4.3.4 4.7 3.4 5 2.6.7-1.8-3.6-3.7-4-3.9-4.7-2-.7 1.9-.8 1.9-4.4-.5-2-1.4-4.7-2.5-5.8-2.5-4.2 0-5.8-2.2-6-8.1-.1-4 2.3-15.7 3.9-18.6 0-.1 1.9.4 4 1.2 2.2.8 5 1.4 6.2 1.5 3.2 0 6.1-3.6 6.9-8.6.4-2.9 1-4.1 1.9-3.8.9.4 1.4-.9 1.6-4.5.3-4 .1-5.1-1.1-5.1-.8 0-4.1-2.1-7.3-4.7-6.6-5.4-6.6-5.2-2.9-17.6 2.1-7.4 4.7-10.8 9.4-12.8 2.6-1.1 3.2-1 4 .4 1.2 2.3 2.7 2.1 2.1-.2-1.1-4.1-8.3-3.2-12.4 1.5-1.8 2.1-7.9 17.4-7.9 19.9 0 1.8-1.4 2-2.7.2-2.1-2.7-4.3-10.5-4.3-15.2 0-3.6-.3-4.6-1-3.5-.5.8-1 2.7-1 4.2s-1.1 5.1-2.4 8c-1.3 2.9-2.6 6-2.8 6.8-.5 1.7-4-5.6-6-12.4-1.1-3.8-1.2-3.9-1.6-1.3-.2 1.8 1.1 5.8 3.4 10.8 3.4 7.2 3.9 7.9 5.1 6.3.7-1 1.3-2.7 1.3-3.8.1-1.2.9-3.7 1.9-5.6l1.9-3.5 1.1 4.1c.6 2.3 1.8 4.7 2.5 5.3 1.3 1.1 1.3 1.7 0 4.6-.9 2.3-1.4 7.2-1.4 14.6 0 7.9-.6 13.6-2.1 19.8-2.4 9.8-2.2 15.1 1.2 27.6 1.1 4.4 3.4 15.2 5 24 2.6 14.5 2.7 16.1 1.2 17-9.7 6-14.3 15.7-14.3 30.1 0 5-.6 11.1-1.4 13.6-1.9 6.4-8.7 16.1-17.7 25-7.5 7.6-10.8 9.7-9.5 6 .3-.9 2.2-6.4 4.1-12.1 2-5.7 4-13.6 4.5-17.5.5-3.9 1.6-11.1 2.4-16 .8-4.9 1.3-9.3 1-9.7-.2-.4-2.3.1-4.7 1.1-2.3 1.1-5 2-6 2-1.6 0-1.5-.4.7-3.3 3.4-4.5 9.1-20.6 10.6-30.1.6-4.4 1.8-8.6 2.6-9.3.8-.8 1.2-1.9.8-2.4-.3-.5-1.7.5-3.1 2.1-2.7 3.3-6.1 5.3-10.8 6.4-2.8.7-2.9.7-1.3-1.1 3.2-3.5 6.6-18.6 7.6-33.4.5-7.7 1.2-11.2 2.3-12.5 9.1-10.3 12.1-37.2 4.8-43.5-2.4-2-6.5-2.5-8.9-.9-1.2.8-1.6.2-2.1-3.3-.3-2.3-.7 3.9-.7 13.7-.1 9.9-.7 21.8-1.3 26.5-1.1 9-4.7 24.9-6 26.6-.4.5-1.5 3.7-2.4 7-1 3.3-3.3 8.8-5.1 12.3-1.9 3.5-3.4 7.1-3.5 8 0 1.3-.2 1.2-.9-.4-.8-2 0-11.8 2-25.7 1.9-12.8.9-35.6-1.6-36.4-.5-.2-2 1.9-3.2 4.5-1.2 2.7-3 5.6-4 6.5-1.6 1.5-1.7.9-1.7-10.1-.1-9.6-.5-13-2.5-19.2-1.3-4.1-3.2-8.8-4.1-10.3l-1.6-2.8-.7 4.8c-.3 2.6-1.1 5.5-1.6 6.3-.8 1.3-1.1 1.2-2.4-.5-.9-1.1-1.6-3.2-1.6-4.7 0-6.5-2.3-13.1-5.7-16.9-3.2-3.5-4-3.9-8.4-3.9-3.8 0-5.1.4-5.9 1.9-1.3 2.5-1.3 4.2.1 1.9 1.2-2.2 7.4-3.4 10.3-2 3 1.3 6.2 8.2 7.1 14.9.7 5.2.6 5.3-1.9 5.3-4.7 0-10 3-16.6 9.4-8.6 8.3-13 11.7-14.1 11-.5-.3-.9-.1-.9.5 0 1.9 5.8 4.2 8.7 3.5 2.8-.7 2.8-.7.9 1.5-1.1 1.1-1.6 2.4-1.2 2.8.4.5 1.2 0 1.7-1 1.5-2.5 2.7-2.1 3.4 1.3.5 2.1 1.8 3.7 4.5 5.3l3.9 2.2-3.7 1.1c-3.4 1.1-3.5 1.2-.9 1.3 1.5.1 4.5-.8 6.7-1.9 5.2-2.7 6.4-7.6 3-12.2l-2.3-3.1 2.4.6c1.3.4 2.9.7 3.5.7.9 0 .9 1.1.3 3.7-1.2 5.3-1.1 6 .5 3.8.7-1.1 1.7-3.5 2.1-5.2.6-2.9.4-3.4-2-4.3-1.4-.5-4.9-1-7.6-1-4.9 0-6.6-1.3-3-2.5 1.1-.3 2.2-1.2 2.5-2 .3-.8 2.4-2.4 4.7-3.5l4.2-2.2-.6 3.1c-.8 3.9.3 3.9 4.7.1 2.4-2.1 3.9-4.8 5.2-9 1-3.3 1.9-5.8 2.2-5.6.2.2 1.4 4.4 2.8 9.3 2.7 9.6 3.4 25.4 1.4 30.7-2.3 6.2-.7 5.7 5-1.6 2.4-3 4-4.3 4-3.3 0 2.2-14.3 16.2-21.7 21.2-3.1 2.1-7.2 6-9 8.7-3.8 5.6-4.3 7.9-1 4.9 3-2.8 6.2-4.4 11.7-5.7 6-1.6 9.8-.7 12.4 2.7 3 4.1 3 16.5-.2 22.4-4.1 7.8-11.8 10.8-17.7 6.9-1.4-.9-3.5-1.4-5.2-1.1-3.6.7-6.7-1.6-5.9-4.3.4-1.1 3.3-3.2 6.9-5 9-4.3 15.7-11.4 15.7-16.7 0-2.2-.9-1.9-7 2.3-8.6 6-16.5 9.5-19.6 8.8-2.4-.6-2.5-1-1.9-4.5 1.2-7.1-3.6-12.1-11.7-12.1-3.2 0-3.5-8.8-.6-25.7l1-6.3-4.5-4.9c-5.1-5.8-5.7-8.3-5.7-24.8 0-6.7-.4-10.2-1-9.8-1.4.9-1.3 22.5.2 28.2.7 3.1 2.4 5.8 5 8.4l3.8 3.7-1.5 8.7c-2.2 12.9-2 19.9.7 23 1.2 1.4 3.1 2.5 4.2 2.5 4.2 0 6.5 1.3 7.7 4.2.8 2 .9 3.2.1 4-1.3 1.3-3.2.2-3.2-1.8 0-.8-.7-1.4-1.5-1.4-.9 0-1.8-.7-2.1-1.5-.4-.8-1-1.5-1.5-1.5-.4 0-1.9-1-3.3-2.3-2.9-2.6-4.2-3.6-7.9-6-6.7-4.3-6.7-4.3-6.7-20.7 0-8.3-.3-15-.7-14.9-.5 0-2.5 2.2-4.5 4.9-3.2 4.2-9.3 9.3-7.4 6.2 2.9-4.7 3.5-29.5 1-37.8-2.8-9-3.3-15.8-1.8-23.1.8-3.7 2.1-7.1 2.9-7.6.8-.4 1.5-1.4 1.5-2.2 0-.7 1.4-2.5 3.1-3.9 2.4-2.1 3.4-2.4 4.5-1.5 1 .8 1.4.8 1.4 0 0-.6-1.1-1.8-2.5-2.7-2-1.3-3.3-1.4-6.5-.6-2.2.5-4 .7-4 .3 0-1.2 4.3-4.9 7-6.1 1.4-.6 3.6-1.8 5-2.6 1.5-.9 4.4-1.3 7.3-1.2 4.6.3 4.7.2 5.8-3.2 1.3-3.9 5.5-12.7 7-14.4.5-.6 1.6-2 2.3-3 1.1-1.7 1.4-1.3 2 3.7.5 4.6.2 6.4-1.4 9.4-2.1 4-1.7 6 .6 2.8 5.9-8.4 10.5-13.3 16.9-17.9 4-3 8.1-6.3 9.1-7.4 3.3-3.4 13.4-7.9 12.2-5.5zm41.6 88.8c3 3 4.1 9 3.3 19-1.2 16.2-13.7 32.3-13.7 17.7v-4.9l3.3.3c2.8.3 2.9.2.7-.4-2.9-.9-4.1-5.9-1.8-7.7 1.7-1.2 3.2-7.5 1.8-7.5-.5 0-1 1.5-1.2 3.2-.2 1.8-.5.1-.6-3.7-.1-7-.1-7 3.4-9.3 2-1.3 3.3-2.6 3-3-.4-.3-2 .4-3.6 1.7l-3 2.2v-3.9c0-3 .5-4.1 2.3-5 3.1-1.5 3.3-1.5 6.1 1.3zm-55.4 6c0 1.8-1.1 3.2-4.2 5.2-2.4 1.5-6.7 4.7-9.5 7.1-9.3 7.8-19.5 9.5-11.2 1.8 2.4-2.2 7.4-6.8 11.2-10.3 5.6-5.2 7.3-6.3 10.2-6.3 3.1 0 3.5.3 3.5 2.5zm155.5 4c0 1.6-1.1 2.2-5.5 3.2-3 .7-8 2-11 2.9-8.6 2.6-13.8 2.9-16.1.9-2.9-2.8-2.3-3.5 3-3.5 2.6 0 7.7-.9 11.2-2 4.8-1.6 6.4-1.7 7-.8.6.9 1.2.8 2.6-.4 3.9-3.3 8.8-3.5 8.8-.3zm-129.4 51c-2.5 19-2.6 34.5-.2 33.1.4-.3 2-3.7 3.5-7.5 3.1-7.8 5.3-10.5 4.1-5-1.2 5.9-7.3 17.5-10.8 20.6-4.7 4.1-16.7 7.9-21.4 6.7-4-1-6.8-4.3-7.8-9.2-.6-2.7-.4-3.2 1.2-3.2 1 0 2.7.7 3.7 1.5 1.1.8 4.1 1.5 6.8 1.5 5.7 0 8.3-2.3 12.8-11.4 3.4-6.6 3.6-9.7 1.5-17.5-1.8-6.9-3-8-9.1-8.7-3.9-.5-6-.1-10.8 2l-5.8 2.7 2.3-2.9c1.3-1.5 5.3-4.8 8.8-7.3 10.2-6.9 18.7-15.8 20.3-21 1.3-4.4 1.3-4.3 1.6 6.6.2 6-.2 14.6-.7 19zm164-12.3c-1.2 3.5-3 7.8-4.1 9.6-2.2 3.5-7.4 7.2-10.4 7.2-1.3 0-1.6.5-1.2 1.7.5 1.2-1.3 3.5-6.4 8.4-7.5 7.3-13 11.5-13 10.2 0-.4 1.8-3.1 4-6 2.1-2.9 4.6-6.5 5.4-8.2 1.7-3.3 2.7-4.3 8.1-8.6 2.1-1.7 4.6-3.8 5.6-4.8 1.1-.9 2.7-1.7 3.6-1.7 1.2 0 1.4-.3.6-1.1-.8-.8-.6-2 .9-4.5 2.3-3.9 3.3-4.4 2.3-1.3-.5 1.3-.3 1.9.3 1.5.5-.3 1.3-2.7 1.7-5.3.4-2.7 1.2-5.7 1.8-6.8 1-1.9 1.1-1.9 1.9.7.7 2.1.4 4.4-1.1 9zm-269.5-5.9c6.4 1.9 19.6 8.2 29.8 14.3 1.3.8 2.2 3 2.8 6.9.5 3.2.7 5.9.5 6.1-1.1 1.1-13-2.6-17.2-5.4-10.7-7-28.5-21.5-28.5-23.3 0-1.5 4.1-1 12.6 1.4zm127.4 7.5c0 14.2-4.2 34.5-7.7 37.4-.8.6-1.9 2.2-2.3 3.4-.9 2.4-10 9.2-10 7.5 0-.5.4-1.2.9-1.5 1.8-1.2 4.9-9.4 6.5-17.6 2.6-13.1 4.7-21 5.6-21 1 0 3-8.9 3-13.1 0-2.7.2-2.9 2-1.9 1.6.9 2 2.1 2 6.8zm-127.5 5.9c3.9 3.3 8.9 7.2 11.3 8.8 2.3 1.5 4.2 2.8 4.2 2.9 0 0-3.7.1-8.2.1-4.6 0-9.4.3-10.8.7-2.4.7-2.6.4-6.2-11-2.1-6.5-3.8-12.1-3.8-12.6s1.5.5 3.3 2.2c1.7 1.7 6.4 5.7 10.2 8.9zm241.1-.7c-.7 3-2.3 7.9-3.5 10.8-2.7 6.8-2.7 7.8.5 5.8 4-2.7 5-1.3 1.7 2.4-1.6 1.9-4.6 6-6.7 9.2-7.9 12.1-22.3 22.4-34 24.4-8.4 1.5-12.2 1.3-20.8-1.1-8.9-2.4-11.6-4.8-12.4-10.7l-.7-4.7 4.1 1.6c4.8 1.8 8.8 1.1 9.7-1.7 1.1-3.6 6.9-1.7 7.7 2.5.2 1.5 1.2 2.1 4.2 2.3 3.5.3 7.2-.7 14.4-4.1 4.4-2.1 10.3-7.9 12.2-12.2 2.5-5.6 2.5-8.9 0-13-2.3-3.7-6.3-5.5-12.4-5.5l-4.1-.1 3.6-1.8c2-1 5.9-2.1 8.6-2.5 5.6-.7 15.7-4 19.1-6.3 1.3-.8 2.9-1.3 3.5-1 .7.2 2.1.1 3.2-.3 3.1-1.2 3.5.1 2.1 6zm-203.8 5.7c1.5 1 3.8 3 5 4.5 1.3 1.6 3 2.8 3.8 2.8.8 0 1.4.4 1.4 1 0 .5.5 1 1 1 .6 0 2.4 1.6 4.1 3.5 1.7 1.9 3.7 3.5 4.5 3.5.8 0 1.4.6 1.4 1.4 0 .8.6 1.6 1.3 1.9.6.2-.6.5-2.8.5-5 .1-20.5-4.9-20.5-6.6 0-.6.2-1.2.5-1.2 1.2 0 14 5.2 15.1 6.1.7.6 2.1.9 3.1.7 1.4-.4 1.2-.7-1.2-1.9-1.6-.7-3.2-1.6-3.5-2-.3-.3-3.7-1.5-7.6-2.7l-7-2.1-1-6.1c-.6-3.3-.9-6-.7-6 .2 0 1.6.8 3.1 1.7zm-9.9 12.2c5.5 2.5 6.7 3.4 6.9 5.6.3 2.5.1 2.6-2.5 2.1-1.5-.3-5.7-1-9.3-1.6-13.1-2.3-26.7-7.1-25.4-9.1.5-.9 4-1 12.2-.5 9.6.5 12.5 1.1 18.1 3.5zM137 162c0 2.1-8.1 9.7-12.2 11.5-10.8 4.7-12.2 8-6.3 14.6 2 2.3 3.5 5 3.5 6.4 0 1.8 1.1 3.1 3.7 4.8l3.6 2.3-.1 13.5-.1 13.4-5.8 2.7c-3.2 1.5-6.1 2.7-6.5 2.8-.4 0-.8-1.2-1-2.8l-.4-2.7-.8 3c-4.6 18.8-7.8 25.9-15.6 34.7-4.9 5.6-6.4 6.1-4.6 1.5 2-4.7 3.4-15.4 4.1-30.4.5-10.9.3-13.2-.8-12.8-.7.3-2 1.8-2.9 3.3-2.2 3.6-8.8 11.2-9.7 11.2-.5 0-.2-2.4.6-5.3 1.6-6 3.3-30.6 3-42.2l-.2-7.9 9-1.6c5-.9 9.9-2 11-2.4 5.6-2.2 6.5-2.9 5.9-5.1-.4-1.8.2-2.3 5.3-3.9 3.2-.9 8.3-3.5 11.3-5.6 6.5-4.5 6-4.3 6-3zm171.4 2.4c1.8.7 5 2.8 7 4.7l3.8 3.3-.6 6.1c-.4 3.3-1.3 8.5-2 11.5l-1.4 5.5-.1-5.6c-.1-3.9-.6-6.1-1.7-7-1.5-1.2-1.6-1.1-.8 1.1.4 1.4.8 3.6.7 5-.1 1.4-.4 8.9-.7 16.8-.5 11.4-.9 15-2.5 18.1-2.3 4.4-10.6 12.1-13 12.1-1 0-2.1.4-2.6.9-.6.6-3.7 1.4-7 2-5.2.8-6.3.7-8.5-.9-2-1.4-2.4-2.5-2.2-5.6.1-2.2.9-5.5 1.6-7.4.8-1.9 2.2-6.2 3.1-9.5.9-3.3 2-6.9 2.5-8.1 1.4-3.5 2.3-13.4 1.2-13.4-.5 0-1.2 2.2-1.6 4.8-.3 2.7-2.4 10.4-4.6 17.2-2.2 6.8-4 13.2-4 14.1 0 2.4-6 3.3-12.9 1.9-3-.5-5.6-1.2-5.8-1.4-.2-.2.5-2.8 1.6-5.7 1-3 2.5-7 3.1-8.9 2.3-6.3 5.3-13 6-13 .4 0 1.5-1.9 2.4-4.3.9-2.3 3-5.9 4.7-8 3-3.6 13.5-9.7 16.8-9.7 1.8 0 10.6-3.2 11.7-4.3.4-.4 1.5-.7 2.4-.7 1.8 0 4.7-2.7 3.8-3.5-.3-.3-3.4.8-6.9 2.4-3.5 1.6-8.4 3.4-10.9 4.1-2.5.6-5.6 1.8-6.8 2.7-4.6 2.9-3.2.5 2-3.5 2.9-2.2 8-6.5 11.3-9.6 3.3-3 6.4-5.6 6.8-5.6.4 0 2.2.6 4.1 1.4zm-255.9 3.1c4.2 1.8 9.3 3 22.5 5.1 5.2.8 9.5 1.6 9.6 1.7.1.1.4 1.8.8 3.8.6 3.5.5 3.6-3.1 4.7-17.8 5.1-26.4 5.6-27.2 1.7-.2-1.1-.6-2.2-1-2.5-.4-.3-1.5-2.5-2.5-5-1.8-4.4-3.7-8.8-4.4-10.3-.5-1.1 1.2-.8 5.3.8zm128.9 12.2c-.4 1.6-1.1 3.1-1.7 3.4-.5.4-.6 1.6-.3 2.7 1 2.9-6.7 25.1-9.3 27.2-1.4 1.1-4.2 6.2-3.7 6.7.3.3 2.9-.2 5.8-1.1 2.9-.9 5.7-1.6 6.3-1.6 1.3 0 .7 7.2-1.5 17.7-1.6 8-2.2 9.1-5.7 12-2.1 1.8-4.6 3.3-5.5 3.3-1 0-1.8.5-1.8 1 0 1.8-12.1 0-15.9-2.3l-3.5-2.1 3.5-.9c4.7-1.2 5.9-2.4 8.5-8.3 2.2-5 2.2-5.4.8-11.5-.8-3.5-2.6-8.8-3.9-11.7-3.4-7.1-3.5-15.5-.2-18.3 6.4-5.4 23.8-16.9 28.5-18.8.1-.1-.1 1.1-.4 2.6zm-135.6 7.6c2.5 3.7 2.9 9.5 1.1 17.6-1.6 7.6-6.5 10.6-9.3 5.6-.6-1.1-1.4-2.2-1.8-2.5-.4-.3-.8-4.7-1-9.6-.2-7.3.1-9.7 1.5-11.8 2.5-3.8 6.6-3.5 9.5.7zM86 212c-1.2 16.7-2.5 25.7-4.1 27.6-.9 1.1-.7 1.4 1.3 1.4 2.5 0 7.6-4.2 11.5-9.5l2.2-3-.4 3c-.2 1.6-.7 8.3-1 14.9-.4 9.6-.9 12.3-2.5 14.6-1.8 2.6-6.1 14.9-7.5 21.2-.3 1.6-1.2 2.8-2 2.8s-1.4-.3-1.4-.8c.1-.4 0-.9-.1-1.2-.1-.3-.3-1.2-.5-2-4-18.1-7.3-27.7-11.3-33.2-2.8-3.7-4.3-4.8-7.3-5.3l-3.9-.7 2.2-4.1c1.8-3.6 2-5.1 1.4-11.7-2.1-23-2-22.8-4.5-24.9-2.1-1.8-2.2-2.3-1.1-5.5.6-1.9 1.6-3.9 2.3-4.4 1-.9 17.3-5.1 24.2-6.4 1.8-.3 2.1.4 2.7 6.7.4 3.8.3 13.1-.2 20.5zm182.9-16.9c-3.6 6.2-14.9 32.2-14.9 34.4 0 .8-1.2 1.8-2.7 2.1-2.7.7-27.4 12.7-38.3 18.6-4.3 2.4-7.2 3.1-13.3 3.5l-7.8.6 3.6-6.6c4.9-8.9 5.6-11.7 5.5-22.7 0-12.2 2.7-20.9 8-26.3 3.7-3.6 7.4-4.7 9.6-2.9.8.8 2.7 1.6 9.8 4.2 2.6 1 2.7 1.2 1.3 2.8-.8.9-2.1 3.9-2.8 6.7-.9 3.6-2.3 6-5.1 8.6-2.8 2.7-3.8 4.4-3.8 6.7 0 2.4.4 3.2 1.8 3.2 2.9 0 5.1-3.1 6.2-8.6 1.9-9.3 2.8-12.4 4.4-14.9.9-1.4 1.7-2.5 1.9-2.6.1 0 5.8-.7 12.6-1.4l12.5-1.3 7-5c3.9-2.7 7.2-4.8 7.4-4.7.2.1-1.1 2.7-2.9 5.6zm-236.6-.7c.3.8.9 6.4 1.3 12.5s1 11.1 1.4 11.1c1.5 0 2 4.9.8 7.5-2.5 5.6-10.4 3.8-12.4-3-1.5-5-1.8-21.9-.4-24.5 1.1-2 5.6-4.9 7.6-5 .7 0 1.4.6 1.7 1.4zm116.1 7.4c-.5 2.7 1 8.5 4 15.3l1.5 3.7-4.7 1.7c-2.6.9-7.5 2.5-10.9 3.5-5.4 1.6-6.2 1.6-6.7.3-.8-1.9-.7-15.8 0-20.4.6-3.5.9-3.7 6.3-4.9 3.1-.6 6.5-1.5 7.6-2 2.8-1.1 3.5-.4 2.9 2.8zm-89 10.8c.3 3.8.9 9.4 1.2 12.4.5 4.5.1 7-2.2 13.5-1.5 4.4-3.7 11.6-4.9 15.9l-2.2 8-5.4 2.7c-4.9 2.6-8.8 3.7-19 5.4-3.4.6-3.6.5-7.2-4.9-2-3.1-3.7-6.1-3.6-6.8 0-1 .2-1 .6-.1.5 1.5 12.3 5.3 16.3 5.3 3.3 0 9-1.8 10.8-3.5 1.1-1 .2-2.2-4.7-6.4s-6.1-5.9-6.1-8.2c0-3.3 1.6-3.9 2.5-.9.3 1.1 1.1 2 1.6 2 1.3 0 1.1-.7-.8-3.6-1.6-2.5-1.5-2.8 3-11.7 2.5-5.1 5.1-10.6 5.8-12.2 1-2.4 1.3-2.6 1.6-1.2.3 1-.7 4.2-2 7-3.3 6.7-4.7 11.3-4.6 14.6.1 1.9.4 1.3 1.4-2.1 1.4-5.3 5.3-13.8 6.3-13.8.4 0 .7-2.1.8-4.8.2-6.7 2.1-13 5-15.9l2.6-2.5 1.2 2.4c.7 1.4 1.6 5.6 2 9.4zm-39.4-.3c0 7.4 2.5 15.4 5.4 17.8l2.1 1.7-2.4 2.1c-1.3 1.2-3.3 2.1-4.4 2.1-2.4 0-5.7-2.7-5.7-4.7 0-.7-.4-1.3-.9-1.3-1.5 0-4.3-12.5-3.6-16.4.8-3.9 4.5-7.6 7.6-7.6 1.7 0 1.9.8 1.9 6.3zm22.4 9.3c-2.5 4.9-6.1 11.6-8 15-5 8.9-4.7 12.2 1.6 17.6 2.7 2.4 5 4.6 5 4.9 0 1.2-8.3 3-11.3 2.4-4.8-1-19.2-8.1-21.6-10.6-1.2-1.3-2.1-3.4-2.1-4.7v-2.4l9.4.7 9.3.7 2.5-3.3c1.4-1.9 3.4-5 4.3-6.9 1-1.9 2.8-4.4 4-5.5 1.3-1.1 2.6-3.6 3-5.5 1-5.4 2.6-9 4-9 .7 0 1.8-.7 2.5-1.5 2.8-3.3 1.8-.4-2.6 8.1zm-27.9 13c1.8 1.9 3 3.6 2.7 3.9-1 1-8.9.5-10.5-.8-1.9-1.4-4.7-8.8-4.7-12.6 0-3.1.8-4.4 3.5-5.9 1.8-1 2.1-.5 3.9 5.5 1.2 4.1 3.2 7.8 5.1 9.9zm140.3-10.4c2 2 1.4 8.7-1 12.7-3.9 6.3-5.5 7.2-14.5 7.5-4.5.1-4.9.3-7.1 4.3-3.4 6.2-8.1 28.4-8.2 38.4 0 2.5-.3 4.9-.7 5.2-.4.4-.8 6.9-1 14.5-.1 7.5-.6 13.8-1 13.9-.5.2-1.9-1.9-3.2-4.6-2.2-4.5-2.3-5.5-1.7-15.7.4-6 1.1-14.3 1.6-18.4.5-4.1 1.4-11.6 2-16.5.6-5 1.4-10.2 1.6-11.8.3-1.5.1-2.7-.4-2.7-.6 0-1.3 2.4-1.7 5.2-.4 2.9-.8 6.4-1 7.8-2.5 16.1-3.4 24.3-3.7 33.7-.2 6.2-.6 11.3-.9 11.3-.3 0-2.5-1-5-2.1-3.3-1.7-6.6-2.2-13.4-2.4-8.7-.2-17.5-2-17.5-3.6 0-.4.8-1.4 1.9-2.1 1-.7 1.9-1.6 2-2.1 0-.4 1.2-2.4 2.6-4.5 1.4-2.1 2.7-5.9 3.1-8.7.6-5.8 4.4-18.5 5.5-18.5.8 0-.8 7.7-2.2 10.2-1.8 3.5.8 1.7 6.7-4.5 8.1-8.4 11.5-13.8 14.9-23.3 2.9-8.2 4.9-11.4 7.2-11.4.7 0 1.3-.4 1.3-.9s1-1.3 2.3-1.6c1.2-.4 3.6-1.3 5.2-2.1 2.5-1.1 22.6-7.9 24.6-8.3.3-.1 1 .4 1.7 1.1zm113.1 10.4c5.3.2 6.6.6 7.9 2.6.9 1.3 2.1 2.6 2.6 3 1.8 1.3 11 .9 16.2-.7 2.7-.8 5-1.5 5-1.5.1 0 .4 2.9.8 6.4.3 3.5 1.5 8.8 2.5 11.7 1.8 5.2 9.4 20.4 12.7 25.5l1.6 2.4h-5.7c-7.3 0-12.8 1.6-18.2 5.2-3.6 2.4-7.2 7-7.9 10-.1.5-.3 1-.4 1.3-.1.3-.4.9-.5 1.5-.1.5-.4 1.2-.5 1.5-.1.3-.3.8-.4 1.2-.1.5-.5 1.4-1 2.1-.4.7-.5 1.9-.2 2.7.3.8.1 1.7-.4 2-2.7 1.7 1.4 17.1 5.5 21 5.8 5.5 9.5 7.4 18.8 9.6l9.6 2.3-.6 3c-1.3 7.9-3.9 15.5-6.7 20.3-3.3 5.8-4.6 6.5-4.7 3-.1-1.9-.3-1.8-1.5 1-.7 1.7-2 6.2-2.8 10-1.9 9.2-4.8 16.6-8.3 20.9-7.8 10.1-29.5 30-37.7 34.6-4.3 2.5-8.2 2.3-23.7-1.6-14-3.4-17-4.6-20.4-7.7-1.1-1-5.6-3.7-10-5.9-4.4-2.3-8.4-4.5-9-4.9-.5-.4-3-1.3-5.4-2-4.8-1.4-14.9-6.1-22.4-10.5-3.9-2.3-7.7-6.7-7.7-8.9 0-.6 10.8-7.7 11.7-7.7.5 0 2.8 1.9 5.3 4.1 2.5 2.2 5.5 4.2 6.8 4.6 7.6 1.9 23.9-4.2 34.4-12.9 4.1-3.4 4.8-4.6 5.8-9.6.7-3.1 1.4-6 1.7-6.4.6-1.1 10.2 2.9 15.8 6.6 7.7 5.1 14.5 12.5 17.6 19.1l2.9 6-.6-4.8c-.6-4.8.3-6 2.6-3.2.7.8 1.7 1.5 2.3 1.5 2.1 0-2.6-3.9-5.4-4.5-1.6-.4-2.9-1.2-2.9-1.8 0-2-17.1-16.7-19.5-16.7-.3 0-1.6-.7-2.9-1.5l-2.4-1.6 1.9-4.8c2.4-6.6 7.5-15.8 11-20.2 2.9-3.7 4.3-8.7 1.7-6.1-2.3 2.3-2.9 1.2-2.2-4.1.8-6.5 1.2-7.3 7.4-14.3 2.8-3.2 4.8-5.9 4.5-6.2-.2-.3.2-1.3.9-2.4.8-1.1 1.2-2.8.9-3.9-.3-1 0-2.6.7-3.4.7-.8 1-2.4.7-3.5-.3-1.1-.1-2.3.5-2.6.5-.3.8-1.8.7-3.2-.2-1.5.5-4.2 1.4-6 1-1.8 1.3-3.2.7-3.2-.6 0-1.6 1.1-2.2 2.5-.6 1.4-1.5 2.5-2 2.5s-1.4-1.1-2-2.5c-.6-1.4-1.5-2.5-2-2.5-1.1 0-1 1.8.2 2.5.6.4.8 1 .5 1.5-.2.4.5 1.9 1.6 3.4 1.2 1.5 1.7 3.1 1.2 3.8-.4.7-.6 2.3-.4 3.6.1 1.3-.3 3-.9 3.7-.7.8-1 2.1-.7 2.9.3.7-.1 2.3-.9 3.5-.8 1.1-1.2 2.1-.8 2.1.4 0-1.4 2.2-4 4.9-3.8 4.1-5.4 6.7-8.2 12.8 0 .2-2.7-1-6-2.5-5.2-2.5-6.7-2.8-13.3-2.4-8 .5-9.3-1-2-2.2 5.4-.9 10.5-5.9 10.3-10.2-.3-7.2-5.9-12.4-13.3-12.4-3.4 0-4.7.6-7.7 3.7-2.6 2.8-3.4 4.5-3.2 6.5.4 2.6.4 2.6-4.6 2.1-7.6-.8-20.2 2.7-28.9 7.8-4 2.3-7.9 5-8.7 5.9-2.5 2.8-7.7 4.5-9.5 3-1.8-1.5-12.6-6.8-17.4-8.6-1.8-.7-4.9-1-6.8-.7l-3.5.6.5-11.9c.2-6.5.7-12.6 1-13.4.3-.8.8-5.1 1.1-9.5.6-8.2 1.8-13.7 6.2-28.4 2.5-8.2 2.6-8.3 5.4-7.8 1.5.4 5.7 2 9.3 3.7 3.5 1.6 7.9 3 9.8 3 5.7.1 14.4 2.5 14.7 4.1.1.9-1.5 5-3.6 9.2-3.5 6.9-3.6 7.7-1.8 7.1 6-1.8 9.1-3.9 16.1-10.6l7.8-7.3h8.1c7.6 0 8.7-.3 17.1-4.4 5-2.5 13.1-6.8 18.2-9.7 10.8-6.2 20.5-9.6 24.8-8.8 1.7.4 5.9.8 9.4 1zM65.7 245.5c1.2.8 3.8 4.7 5.7 8.7 3.3 6.5 3.5 7.3 2.1 8.9-2.6 2.8-3.1 11.9-.9 16.5 2.1 4.5 3.1 5.4 6 5.4 1.1 0 2.6 1.1 3.3 2.4 1.1 2 1 2.8-1.2 6.2-3.3 5.3-5.2 6.7-7.7 5.9-3-1-12.4 3.9-15.6 8.1-1.5 1.9-2.4 3.7-2.1 4 .2.3-1.6 2.5-4.2 4.8-5.7 5.3-9.2 6-24.1 4.6-12-1.1-21.4-4.6-22.6-8.3-.3-1.1.2-5.7 1.1-10.2 1.7-8 1.7-8.7 0-16.2-1-4.3-2.4-8.5-3.2-9.4-.7-.8-1.3-3.6-1.3-6.1 0-3.7.6-5.1 3.3-8 1.7-1.9 4.4-4 5.9-4.6 2.5-1 2.8-.9 4.2 1.8.8 1.6 1.1 2.9.8 2.9-2.5-.4-6.2 2.1-6.2 4 0 .5 2.8 2.1 6.1 3.6 5.4 2.4 6.9 2.6 12.1 2.1 17.1-2 39.2-14.8 34.8-20.2-.7-.7-1.6-1.1-2.1-.8-.5.3-1.5.1-2.3-.3-1.2-.7-1.2-1.3-.1-4.1 1.6-3.6 4.6-4.2 8.2-1.7zm254.2 43.1c1.7 1.4 2.9 2.9 2.6 3.3-.2.4 2 3.2 5 6.1 4.2 4.1 5.2 5.7 4.4 6.7-.6.7-.9 2.6-.7 4.3.4 2.5.2 2.9-1.2 2.5-1-.3-2.3.1-3 1-1.1 1.3-.9 1.5 1.1 1.3 1.5-.2 2.3.2 2.1 1-.1.7-.4 2-.5 3-.2.9-1.2 3.8-2.4 6.3-1.7 3.7-2.7 4.7-5.3 5.3-6.9 1.3-9.8.7-13.3-2.7-4.5-4.3-5.4-7.3-3.1-9.8 2.3-2.6 1.2-3.5-1.9-1.5-1.9 1.3-3 1.4-5.2.6-2-.8-2.6-.7-2.3.2.3.7 1.4 1.4 2.6 1.6 1.3.2 2.5 1.5 3.2 3.5 2.1 6.3 7.5 10.7 13.1 10.7 4.6 0 5 .5 3.3 3.8-.8 1.5-1.4 3.5-1.4 4.4 0 2.2.3 2.2-10-.4-10.4-2.6-14.9-5.5-19.2-12.1-2.5-4-3.3-6.4-3.6-11.3-.2-3.5-.1-7.2.3-8.1.5-1 .9-2.3 1-2.8.1-.6.3-1.3.5-1.8.1-.4.3-1 .4-1.5.5-2.1 3.8-7 6.3-9.3 5.1-4.8 10.2-6.8 17.5-6.9 5.7 0 7.1.4 9.7 2.6zM220.4 302c5.6 3.4 6.6 8.4 2.6 13.1-2 2.4-3.5 3.1-7.5 3.5-4.9.5-5 .4-7.7-3.6-2.9-4.1-3.4-6.1-2-7.4.4-.4.7-1.3.7-1.9 0-1.5 6.3-5.7 8.6-5.7 1 0 3.3.9 5.3 2zM84 305.3c4.1 1.3 9.3 3.6 11.5 5.1 2.2 1.4 4.8 3.2 5.9 3.9 1 .6 2.9 2 4.1 2.9 1.3 1 2.7 1.8 3.1 1.8 1.6 0-4.1-5-9.2-8.2-8.8-5.4-7-6.2 5.4-2.3 7.6 2.4 8 2.7 10.6 7.5l2.7 5-8.1 8.8c-4.6 4.8-8.7 9.7-9.3 10.9-.8 1.8-1.9 2.3-4.8 2.3-3.6 0-20.7 3.2-24.1 4.5-1 .4-4.1-.1-7-1.1-3.2-1.1-8.6-1.9-13.8-2-11.1-.2-10.7 0-8-2.9 1.2-1.3 5.2-3.4 8.8-4.6 5.4-1.8 7.8-2.1 14-1.5 8.3.7 8.8-.3 1-2-5.2-1.2-10.6-.5-16.3 2-8.9 4-11 2.3-5.1-4.1 2.5-2.9 5.4-4.5 11.5-6.7 8-2.8 8.2-2.8 13-1.2 5.8 1.9 6.4 1.9 5.6.6-.3-.5-3-1.7-6-2.5-5.1-1.5-5.6-1.5-11.2.6-7.2 2.6-11.3 3.4-11.3 2.2 0-2 9.7-10 14.2-11.7 4.5-1.8 4.8-1.8 12.1.4 8.9 2.6 12.6 2.2 4.7-.6-3.6-1.2-8.2-1.9-13.2-1.9l-7.7.1 2.1-2.3c3.7-3.9 11.5-7.3 14.6-6.3 1.5.5 6.1 2 10.2 3.3zm121.6 10.4c1.4 1.5 3.2 4 4 5.5 1.4 2.7 1.4 2.8-1 2.8-2 0-2.4-.4-1.9-1.7.4-1.1.3-1.4-.5-.9-.7.4-1.2.1-1.2-.8 0-1.4-1.2-2-3.2-1.7-.5 0-.8-.9-.8-2.1 0-2-.1-2.1-1.6-.7-.8.9-1.6 2.2-1.7 3-.2.8-.6 2-1.1 2.7-2 3.2-3.6 12.3-3.6 20.5 0 7 .6 10.3 2.9 17 1.6 4.6 3.6 9.7 4.5 11.4 1.7 3.4 6.5 7.3 9 7.3 1.9 0 6-7.6 5.2-9.6-.4-.9.2-1.4 1.6-1.4 1.9 0 2 .4 1.6 5-.6 5.9-2 7.7-10.8 13.4-10.8 7-24.4 11.5-28.4 9.4-13.3-7.1-24.4-34.8-22.1-55.1.5-5.1 1.3-6.9 5.2-11.9 4.6-5.9 7.6-7.6 6.6-3.8-1.3 4.8 4.2 6.3 13.3 3.5 5.9-1.8 9.9-6.9 9.5-12.4l-.2-3.4 6 .6c4.9.4 6.5 1 8.7 3.4zm-16.6 1.2c0 3.6-4.4 7.7-9.5 8.9-2.2.5-4.7 1.3-5.6 1.6-2.2.9-4.3-1.8-3.5-4.7.3-1.2 1.9-3.3 3.5-4.5 3.1-2.2 12.9-5.4 14.4-4.5.4.2.7 1.7.7 3.2zm-50 5.9c5.2 1.9 11 5.1 10.9 6 0 .4-2.8 2.9-6.2 5.5l-6.2 4.8-6-.8c-10.7-1.4-18.6-.9-23.3 1.6-2.4 1.3-4.6 2.1-4.9 1.7-1.1-1.1 13.8-15.4 19.2-18.6 5.5-3.2 8.2-3.2 16.5-.2zM39.1 324c7.3 0 8 1.6 3.7 7.6-2.8 3.9-3.1 4.8-1.9 6.5 1 1.7 1 2.4-.3 3.7-1.8 2.1-.4 5.2 2.4 5.2 2.1 0 2.5 1 1.2 2.5-1.4 1.7-4.3 10.2-5.1 15.3l-.8 4.7-1.7-4c-1-2.2-3.3-7.2-5.2-11.1-1.9-3.9-3.4-7.5-3.4-8.1 0-.6-.4-1.3-1-1.5-1.2-.4-5.2-19.6-4.4-21 .4-.6 2.7-.8 5.8-.4 2.8.3 7.6.6 10.7.6zm192.6 3.3c5.2 2.7 6.3 4.4 6.3 9.8 0 3.6-.9 6.7-3.6 11.9-1.9 3.8-3.9 7.2-4.4 7.5-.5.3-1.1 1.8-1.5 3.4-1.1 5-2.5 5.5-11.4 4.2-6.8-1-8.4-1-12 .5-2.3.9-4.5 1.4-4.8 1-.4-.4-1.5-3.2-2.6-6.4-2.3-7.1-3.3-27.4-1.4-29 1.2-1 11.5-3.7 17.2-4.6 5.5-.8 15.1.1 18.2 1.7zm-75 3.4c-3.1 9.4-3.1 10.2-1.5 23.2 1.6 12.4 5.1 24.4 8.4 28.2.8.8 1.4 2.1 1.4 2.7 0 1.4-14.7 11.2-16.8 11.2-.9 0-3.8 1.1-6.6 2.4-6 2.8-19.2 4.3-24.7 2.8-2.6-.7-5.5-.6-10 .3-4.6.9-5.5 1.3-3.1 1.4 4.4.1 4 1.3-1.5 4.1-4.4 2.2-4.9 2.2-11.2.9-3.7-.7-10.5-1.2-15.3-1-12.1.4-18.6-1.2-24.5-5.8-4.2-3.4-4.9-4.6-6.5-10.7-4.9-18.9-4.8-28.3.6-38l3.4-5.9 5.8.2c8.7.3 14.4 3.2 9.5 4.8-1.1.3-3.3 2.1-4.9 3.9-1.6 1.9-3.9 3.7-5 4-1.1.4-2.6 1.4-3.4 2.3-1.1 1.5-1 1.6 1 1 2.1-.5 2.3-.3 1.8 1.9-.7 2.8 1 3.3 1.9.5.3-1 1.9-3.8 3.6-6 4.8-6.7 16.6-11.6 33.4-13.7l4-.6-2.5 2.1c-2.6 2.1-1.4 2.9 1.8 1.1 4.5-2.5 16.6-7.1 20.5-7.9 5.1-.9 15.5-.3 16.3 1.1.3.4-.5 1.7-1.8 2.8-3.1 2.6-.2 2.6 3.2 0 1.4-1.1 2.8-2 3.2-2 .3 0 4.5-2.9 9.3-6.5 8.8-6.7 11.2-7.8 10.2-4.8zm.1 75.1c-.5 2.7-6.4 5.5-9.8 4.7-3.3-.7-6.7-3.7-8-7-.7-1.8 0-2.2 6.3-4.1l7.1-2.1 2.4 3.5c1.2 1.9 2.2 4.1 2 5zm-15.2 4.4c1.1.9 3.8 2 6 2.3 3.5.6 4.5.3 8.7-2.9 3.5-2.7 4.8-3.2 5.4-2.2.4.7 2.2 1.8 3.8 2.4 14.4 5.2 37.9 16.3 41.4 19.6 3.6 3.3 10.1 6.4 15.3 7.2 2.3.4 6.8 1.3 9.8 2.1 3 .9 7 1.8 8.7 2 2.7.4 3.3 1 3.7 3.7.3 1.7 1 6.7 1.6 11.1.7 4.4 1.7 10.5 2.3 13.5.8 3.7 1.2 20.4 1.2 50.5.1 52.1.8 61.8 5.6 77.8 2 6.6 2 7 .4 13.8-2.7 11-3.6 9.7-9.1-14.6-4-17.8-5.2-24.4-6.7-36-1.5-11.2-1.4-13.1.5-24.5 1.7-10.2 2.9-43.5 1.8-51-.5-3.2-.3-3.5 1.8-3.2 4.2.6 2.2-1.6-2.5-2.7-2.7-.6-6.4-1.8-8.3-2.5-4.4-1.7-19.8-5.6-26.5-6.7-34.2-5.6-58.4-6.7-73.4-3.5-7.3 1.6-8.5 1.6-9.8.3-2.4-2.4-1.9-11.2 1.5-27.2 1.8-8.3 3.6-19.2 3.9-24.3.6-9.6 1.2-10.8 5.3-11.4 1.8-.2 2.9.4 4.1 2.2.9 1.4 2.5 3.3 3.5 4.2zm-14.6-1.3c0 5.3-3.8 30.4-6 39.9-2.4 10-2.5 12.8-.5 16.6.9 1.6 1.4 3 1.3 3.1-.2.2-2.5 1-5.3 2-5.4 1.8-8.5 4-8.5 6.2 0 1.6 1.7 1.7 2.4 0 1.9-4.4-2.7 25.4-5.6 35.8-.6 2.2-1.4 8.7-1.8 14.5-.5 6.9-.7.5-.5-19 .3-29.9 1-38.7 3.8-45 6.5-14.7 12.1-33.2 14.3-47 2-12.1 1.9-11.9 4.3-11.3 1.6.4 2.1 1.3 2.1 4.2zm-19.7 1c-10.9 9.3-14.3 11.8-18.6 13.8-6.1 2.9-7.5 2.9-13.4 0-6-2.8-7.5-4.1-12.4-10.3-4-5.2-4.9-7.1-2.7-5.8.7.5 7.3 1.2 14.8 1.6 7.4.5 16 1.1 19.1 1.4 4.5.5 6.5.1 9.7-1.5 2.2-1.1 4.4-2.6 4.8-3.3.6-.9.9-.9 1.2.2.3.7-.9 2.5-2.5 3.9zm68.2 58c7.2.7 15.7 1.8 19 2.4l6 1.2.6 6c1.1 9.5 5.4 25.1 8.1 29.2 1.4 2.1 4.4 5.9 6.8 8.5 4.8 5.4 10.8 7.8 19.3 7.8 4.8 0 4.9 0 4.2 2.7-.6 2.4-1.5 9.6-3.2 23.9-.4 3.6.6 10.8 3.6 26.5 2.3 11.7 4.6 22.8 5.1 24.5.5 1.6 1.4 5 2 7.5.5 2.4 1.6 7.1 2.3 10.4 1 4.3 1.3 10.3.9 21.1-.5 14.6-.4 15.3 2.3 22 1.5 3.8 5 11.2 7.7 16.4 6.3 11.9 7.1 18 3.9 31.1-1.2 4.8-2.1 11.1-2.1 14v5.3l-4-3.9c-2.2-2.1-4-3.4-4-2.8 0 .7 5.1 6.3 11.3 12.6 12.5 12.7 12.8 12.9 14.6 17.4 2.4 6-1.4 27.6-5.8 32.1-4 4.1-6.2 5.6-10.1 7.1-1.9.7-4.4 1.7-5.5 2.1-8.5 3.6-34.9 6.1-43.4 4-6.3-1.5-15.2-8.6-22.2-17.8-7.7-10.1-8.6-19.4-3.9-41.2 2.2-10.8 2.4-13 1-13-.5 0-1 1.5-1.1 3.2 0 3.5-1.7 8.6-1.8 5.8-.1-.8-.8-2.9-1.7-4.5-.9-1.7-2.5-5.3-3.6-8-1.1-2.8-2.6-6.4-3.3-8-4.1-8.9-4.9-13.9-5-31-.2-11.6-.7-19.1-1.8-23.5-2.3-9.5-6.7-24.1-7.9-26.4-1.6-3.1-3.5-12.2-4.8-23.1-1.4-13.1-4.8-37-5.9-41.8-.4-2-.5-3.7-.1-3.7.5 0 3.4 2.1 6.5 4.6 3.1 2.5 5.9 4.4 6.2 4.1.2-.3-.6-1.4-1.9-2.5-1.2-1.1-4.4-3.8-7-6-2.6-2.2-5.1-4.2-5.6-4.3-1-.4-4.2-17.2-4.2-22.1 0-3.7 1.2-3.6 9.6.6 3.8 1.9 7 3.3 7.2 3.1.7-.7-8.1-5.7-12.2-6.9l-4.1-1.2-.7-6.9c-1-10.1-.2-45.9 1.2-53.2.8-4.2 1.7-6.3 2.8-6.7 2-.5 7.1-.3 24.7 1.3zm-28.9 1.3c-1.6 5.7-3.3 30.3-2.8 40.7l.5 11.3-2.4-.7c-3.3-1-8.7-6.2-11.2-11-2.1-3.7-2.2-5.2-1.9-21.4.1-9.6.4-17.6.6-17.8.4-.5 13.5-3.1 16-3.2 1.4-.1 1.7.4 1.2 2.1zm-19.8 19c-.3 17.2-.2 18.5 1.9 22.4 2.5 4.7 8.4 10.2 12.5 11.6 2.5.9 2.8 1.5 2.8 5.2v4.3l-7 1.2c-3.8.7-7.3 1.8-7.7 2.3-.4.8.2.9 1.8.4 1.3-.3 5-.9 8.2-1.3 5.1-.5 5.7-.4 5.7 1.3 0 3.2 1.9 18.5 2.5 20.5.6 1.8.5 1.8-3.7-.1-2.7-1.2-6.4-1.9-9.8-1.9-4 0-4.9.3-3.5.9 1.1.5 3.2.9 4.6.9 1.4.1 5.3 1.4 8.6 3.1l6 3 1.1 6.7c3.3 19.8 5.2 32.6 5.7 39.8.6 7.9 2 14 5.6 24.5 1 3 2.6 8.6 3.5 12.5.9 3.8 2 7.4 2.4 8 1.2 1.7 4.1 14.5 3.5 15.6-.4.5-1.8 4.8-3.2 9.7-2.6 9-3.9 11.6-5.4 10.6-1.6-.9-1 2.5 1.6 8.8 2.7 6.7 3.3 15.2 1.4 22.3-.6 2.2-1.6 6.6-2.3 9.8-.6 3.2-1.5 5.5-1.9 5.1-.4-.4-.7.1-.7 1.2 0 1.1 1.6 4.4 3.5 7.4 6.8 10.7 7.7 13.5 7 20.3-1 8.8-4.9 24-7.1 27.8-2.5 4.3-7.3 6.6-17.4 8.4-16.5 2.9-28.1 1.6-40.1-4.5-7.9-4.1-20.1-20.9-22.8-31.4-1.4-5.7.1-16.6 2.9-21.1 1.1-1.7 2.7-4.5 3.7-6.3 1.9-3.6 2.9-4 3.7-1.5.3 1 .4-.2.1-2.6-.2-2.4-1.5-8-2.9-12.5-5.2-16.9-5.3-27.6-.4-49.1l2.2-10 2.2 7c1.7 5.2 2.2 6.2 2.3 4 0-1.7-1.7-8.1-3.9-14.4-5.1-14.7-6.9-29.7-4.5-38.7.8-3.2 1.5-6.6 1.5-7.6s.4-1.8.9-1.8 1.2-2.1 1.5-4.8c.4-2.6 1.4-7.2 2.2-10.2 4.2-15.3 5.4-18.6 6.4-16.9 1.1 1.6 1.9-9.2 2.5-34.6.4-13.4 1.1-24 2-27 1.9-7.2 4.4-21.4 5.8-33l1.2-10 5-1.7c9.1-3.1 8.6-4.3 8.3 16.4zm88.7-13.8c3.3.8 9.9 2.4 14.6 3.6l8.5 2.2 1.2 7.2c1.2 6.9.2 27.7-1.4 32-.8 2.1-5.4 2.1-12.2.1-4.6-1.4-5.8-2.4-9.8-7.8-2.6-3.4-5.7-8.6-7.1-11.5-2.5-5.2-5.2-17.7-5.3-24 0-2.8.3-3.2 2.8-3.2 1.5.1 5.4.7 8.7 1.4zm63.3 322.1c2.4 6 4.4 21.6 4.1 32.8-.2 9.5 2.3 36.2 5.2 55.7 3.1 20.2 6.5 33.4 11.5 44.5 2.5 5.5 6.2 13.6 8.1 18 1.9 4.4 5.7 12.7 8.4 18.5 2.7 5.8 6 13.8 7.4 17.9 3 8.8 2.7 10.2-4.2 19.3-9.8 12.8-19.5 15.9-39.3 12.4-8.1-1.5-13.7-3.4-15.8-5.4-.7-.6-1.7-1.2-2.2-1.2-2.7 0-6.1-5.1-7.1-10.6-1.3-6.8-.7-34.2.9-41.9 2.7-12.9 3.4-23 2.2-29-1.5-7.3-12.9-42.2-16-49-2.1-4.6-7.9-18.5-14.4-34.5-1.4-3.6-4.6-10.4-7.1-15.1-5.4-10.6-7.2-15.6-8.1-23.5l-.6-6.1 11.3.4c14.6.6 27.6-1.7 43.4-7.6 9.1-3.3 9-3.4 12.3 4.4zM117 801.9c8.3 2.9 17.2 2.9 30.5.2 5.5-1.2 11-2.4 12.3-2.7 3.9-1.1 3.5 2.9-2.3 23.6-7.4 26.4-11.3 42.2-12.5 51-.6 4.7-1.6 11.4-2.1 15-3 18.8-2.8 34.9.6 47 3.1 11.1 5.3 22.7 5.7 30.1l.5 7.7-3.6 1.5c-2 .8-4.9 1.8-6.6 2.1-1.6.4-4.8 1.1-7 1.7-2.2.6-7.4 1.2-11.5 1.5-7.7.5-12.9 1.8-16.5 3.9-5.2 3.2-31 10.5-45.4 13-16.2 2.8-33.8 2.1-44.9-1.8-1.9-.6-4.2-2.5-5.3-4.4-1.8-2.9-1.9-3.5-.6-6.5 2.4-5.6 6.1-8.2 24.2-16.4 2.2-1 4.2-2.1 4.5-2.4.3-.3 8.3-4.5 17.9-9.3 9.5-4.8 19.2-10 21.5-11.6 3.8-2.6 13.3-8 18.3-10.5 3.4-1.7 4-3.8 6.2-20.6 3.3-25.4 3.9-50.9 2.1-81-.5-8.5-1.2-19.7-1.5-24.9-.4-5.2-.7-9.7-.7-10-.2-2.6.6-2.7 5-.7 2.6 1.3 7.6 3.3 11.2 4.5zm31.8 183.6c-.6 4.9-1.7 10-2.6 11.2-2.8 4.4-30.4 10.9-35.7 8.5-2-.9-2.5-1.7-2-3 1.3-2.8 1.8-7.5.9-7-11.3 5.4-17.2 7.5-23.4 8.3-2.5.4-7.6 1.5-11.5 2.5-12.9 3.4-24.1 4.4-34.1 3.2-5-.7-10.8-1.2-13-1.2-2.1 0-5.1-.6-6.6-1.4-1.4-.8-4.3-1.9-6.3-2.6-3.9-1.3-7.5-5.9-7.5-9.5.1-1.9.1-1.9 1.1-.2 1.7 2.9 7.2 4.7 18.6 6.2 13.6 1.8 34.1-.2 51.3-5 5.2-1.4 11.8-3 14.5-3.6 2.8-.5 8.2-2.4 12-4.3 5.2-2.4 9.5-3.6 16.5-4.4 10.4-1.3 26-4.8 27.4-6.3.5-.5 1.1-.8 1.2-.6.1.1-.2 4.2-.8 9.2zm180.8 22.7c-.5 2.3-1.9 4.1-4.7 6.1-2.2 1.5-4.4 3.8-4.9 5.2-1.1 2.9-7.5 7.3-12.4 8.6-2 .5-5.3 1.3-7.3 1.9-3.7.9-10.7.2-20.8-1.9-5.4-1.1-15.5-6-16.2-7.7-.3-.8-1.1-1.4-1.7-1.4-1.4 0-5.2-9.8-4.2-10.7.3-.4.6-.2.6.4 0 1.4 11.9 7.1 19 9 8.4 2.3 19.2 2.1 27.6-.5 5.8-1.8 7.9-3 10.9-6.5 2-2.3 5.2-5.9 7.1-8 1.9-2.1 3.4-4.4 3.4-5.1 0-.7.3-1.6.7-2 1.2-1.2 3.6 9.1 2.9 12.6z"/>
    <path d="M219 161.7c0 3.2.4 6.3.8 6.8 1.6 2.2 6 4.3 13 6 13.8 3.3 23.2.6 28.4-8.1 1.2-2.1 2.5-3.1 3.4-2.7 2 .7 1.7-1.1-.4-3-2.3-2.1-2.9-2.1-5-.1-2.5 2.5-24.9 1.5-31.2-1.4-9-4.1-9-4.1-9 2.5zm28.2 1.7c14.8.1 14.3-.2 9.4 5.3-1.5 1.8-3.1 2.3-7 2.4-4.2.1-4.6.3-2.1.8 2.5.5 2.7.8 1.2 1.4-4.4 1.7-15.1.3-23.4-3.1-4.1-1.6-6.2-4.7-2.5-3.6 1.2.4 1 0-.5-1.2-1.5-1-2.3-2.7-2.3-4.5V158l6.8 2.7c6.1 2.4 7.9 2.7 20.4 2.7zM137.6 259.5c-5.1 5.5-1.8 14.8 5.8 16.1 4.2.7 7.3-.9 10.9-5.8 1.7-2.3 1.8-2.9.6-5.3-1.9-3.9-5.9-6.5-10.7-7.2-3.5-.5-4.4-.2-6.6 2.2zm12.2 1.1c1.3.8 2.8 2.7 3.5 4.1 1 2.3.8 2.8-2.3 5.4-4.4 3.7-10.1 4-12.4.7-2.4-3.3-2-7.5 1-10.4 2.7-2.8 5.6-2.7 10.2.2zM217.5 261c-3.4 1.3-6.3 5.3-7.3 9.8-.9 3.8-.8 4.5 1.7 7 7.1 7.7 22.6 2.6 20.7-6.9-.9-4.4-4.1-8.6-7.3-9.3-1.6-.4-3.5-.9-4.3-1.1-.8-.2-2.4 0-3.5.5zm6.6 2c.6 0 2.3 1.5 4 3.2 3.8 4.2 3.8 8 .2 11.4-2.4 2.2-3.5 2.5-7.1 2.1-5.7-.6-9.6-4.1-8.8-7.9 1.1-5.7 5.9-10.4 9.4-9.2.8.2 1.8.4 2.3.4zM133.4 294.2c-3.5 2.5-6.4 7-6.4 9.9 0 6.3 6.5 11.5 13.2 10.6 11.8-1.6 13.9-16.2 3-20.8-5.5-2.4-6.1-2.4-9.8.3zm8.6 1.8c3.6 1.8 6.3 4.9 6.5 7.5.3 2.7-2.8 6.4-6.5 7.9-5.6 2.2-6.5 2.1-9.4-1.7-3.8-4.9-3.4-8.7 1.1-12.6 2-1.7 3.8-3.1 4-3.1.2 0 2.1.9 4.3 2zM186.9 437.8c-3.2 3-4.1 4.5-4.2 7.4-.2 6.8 5.5 12.2 13.1 12.2 4.1.1 4.8-.2 7-3.4 4.2-6.2 1.5-15.7-5.3-18.6-5-2.1-6.2-1.8-10.6 2.4zm12.5 1.6c3.1 2.9 3.6 4 3.6 7.9 0 3.7-.5 4.9-2.6 6.6-3.1 2.4-5.2 2.6-9.1.9-7-3.2-8.4-10-3.1-15.5 4-4.2 6.7-4.2 11.2.1zM135.9 436.5c-3.2 1.7-5.9 5.7-5.9 8.5 0 7.4 9.7 13.7 16.1 10.5 3.6-1.9 4.9-4.3 4.9-9 0-8.7-7.9-13.9-15.1-10zm11.2 3.7c2.6 3.6 2.9 9.2.6 11.5-.8.8-3.3 1.7-5.6 2-3.8.5-4.4.3-7.1-2.7-3.3-3.7-3.6-5.3-1.8-9.2 1.4-3 4.2-4.5 8.5-4.7 2.5-.1 3.6.6 5.4 3.1z"/>
  </g>
</svg>
