<?xml version="1.0" encoding="UTF-8"?>
<svg width="365px" height="1032px" viewBox="0 0 365 1032" version="1.1" xmlns="http://www.w3.org/2000/svg" xmlns:xlink="http://www.w3.org/1999/xlink">
    <!-- Generator: Sketch 51.2 (57519) - http://www.bohemiancoding.com/sketch -->
    <title>Zaphod</title>
    <desc>Created with Sketch.</desc>
    <defs>
        <path d="M142.3,1029.3 C139.6,1023.9 137.5,1018.4 137.5,1016.8 C137.5,1015 138,1015.1 143.8,1018.3 C147.3,1020.2 154.1,1023 158.9,1024.5 C167.1,1027.2 168,1027.3 175.3,1026.2 C179.5,1025.6 185,1024.9 187.5,1024.6 C189.9,1024.3 193.7,1023.4 196,1022.4 C198.2,1021.5 201.1,1020.3 202.5,1019.7 L205,1018.7 L202,1018 C200.4,1017.6 197.9,1016.7 196.5,1016 C194.1,1014.6 194.1,1014.6 199.5,1013.5 C202.5,1012.9 205.8,1011.9 206.8,1011.4 C208.5,1010.4 208.4,1010.2 205.9,1008.5 C198.7,1003.8 190.2,993.9 191.9,992.2 C192.2,991.9 193.5,992.2 194.8,992.8 C196,993.4 199.5,994.4 202.5,995.1 C210.4,996.8 211.5,997.3 207.7,997.8 C205.9,998 203.8,997.7 203.2,997.2 C202.5,996.7 200.2,996 198,995.6 L194,994.9 L199.5,1000.5 C202.5,1003.5 207.1,1007.1 209.6,1008.4 C213.4,1010.5 227.8,1014.3 230.2,1013.9 C233.1,1013.4 238.5,1014.2 238.5,1015.1 C238.5,1016.4 231.5,1022.8 229.3,1023.6 C226.2,1024.6 227.4,1025.8 232.5,1026.9 C242.6,1029.1 248.8,1028.1 260.2,1022.4 C263,1021 266.1,1019 267.1,1017.9 C268,1016.9 269.5,1016 270.3,1016 C271.4,1016 271.1,1015.2 269.2,1013.2 C264.3,1008.1 266.4,1007.7 271.8,1012.8 C282.2,1022.7 284.5,1024.3 291.3,1026.1 C299.5,1028.4 300.9,1028.4 303,1026.3 C304.6,1024.8 304.5,1024.5 301.1,1022.8 C298,1021.2 294.7,1017.4 295.7,1016.5 C295.9,1016.4 298.7,1016.7 302.1,1017.3 C307.6,1018.2 309,1018.1 317,1015.6 C323.6,1013.5 326.7,1011.9 329.8,1009 L333.9,1005.2 L328.3,1004.5 C322.1,1003.7 318.3,1001.8 320,1000.2 C320.6,999.7 322.8,998.7 325,998 C332.7,995.6 337.2,992.3 341.8,985.3 C349.2,974 353.1,964.6 354.5,954.2 C355.2,949.1 355.6,944.7 355.3,944.5 C355,944.2 353.5,945.8 352,948 C349.2,952 346.6,953.5 348,950.3 C348.8,948.4 349.8,936.6 351.4,907.5 C352.5,888 353.9,881.7 359.5,870.5 C363.8,861.9 364.3,860.1 362,862 C361.2,862.7 360.5,863 360.5,862.6 C360.5,861.5 352.4,867 349.8,869.8 C347.8,872 347.5,872.1 348.1,870.5 C353,857.3 352.8,858.2 351.1,848 C350.2,842.8 349.5,836.5 349.5,834 C349.5,830 351.4,817.5 353.2,809.5 L353.8,806.6 L348.9,810.2 C345.4,812.8 343.7,815 342.6,818.1 C340,825.5 340.2,819.6 343,802.4 C345.6,786.9 350.6,765.5 352.5,761.9 C354.9,757.6 353.4,757.1 347.1,760 C341.9,762.3 334.5,770.3 334.5,773.6 C334.5,774.8 334,776.2 333.4,776.6 C332.3,777.3 332.8,752 334,748.8 C334.3,748 334.5,746.9 334.4,746.4 C334,745 335.6,737.1 336.4,736.6 C336.8,736.3 337.2,734.7 337.3,732.9 C337.5,731.1 338.2,728.3 339,726.8 C339.7,725.3 340,724 339.6,724 C338.1,724 329.8,732.6 325.2,739 C317.5,749.5 312.5,756.8 312.5,757.5 C312.5,757.8 311,761.4 309.1,765.4 C307.2,769.4 304.8,775.8 303.6,779.7 C301.5,786.6 300.8,796 302.3,796 C303.9,796.1 310.2,802.7 311.3,805.5 C312.6,809.2 314.2,816.9 315,823.5 C315.7,829.3 317.1,837 319.1,845.6 C319.9,848.9 320.5,853.3 320.5,855.4 C320.5,860.6 315.9,866.3 309.9,868.6 C304.7,870.6 304.4,872.7 309,874.9 C313.4,876.9 316,879.5 318.3,884.3 C322.6,893.2 323.4,898.3 321.4,905 C320.5,908.1 320.6,909.7 322,913.9 C322.9,916.7 323.3,919.5 322.9,920.1 C322.5,920.8 320.2,915.9 317.8,909 C312.6,894.7 308.8,888.4 301.2,881.3 C295.6,876.1 288.4,870.8 287.8,871.4 C287.6,871.5 288.6,874.3 289.9,877.6 C291.2,880.8 292.6,885.6 292.9,888.2 C293.3,890.7 294.2,893.4 295,894 C298,896.5 295.2,896.9 291.5,894.5 C289.3,893.1 287.5,892.2 287.5,892.4 C287.5,892.7 288.9,894.9 290.5,897.3 C292.2,899.8 293.5,902.6 293.5,903.5 C293.5,904.5 294.2,908.8 295.1,913 C296.3,919.2 296.4,922.3 295.6,928.1 C295,932.5 295,936 295.5,937 C297.2,940.2 295.3,939.9 293.1,936.7 C291.9,934.9 290.1,933.5 289,933.5 C287.3,933.5 286.9,934.5 286.3,941 C285.2,951.8 285,952.1 283.1,945.7 C282.1,942.4 280,938.4 278.3,936.7 L275.4,933.5 L276,936.5 C277.8,945.3 277.7,950.7 275.5,956.9 C272.9,964 272.4,964.5 268.7,963.5 L266,962.7 L268.5,962.1 C272.6,961 275,955.5 275,947.5 C274.9,936.6 274,933.3 270.7,932.7 C269.2,932.4 264.9,931.2 261,930 C257.2,928.9 252.5,928.1 250.8,928.3 C247.2,928.6 247,928.3 248.6,924.6 C249.8,922.1 254,920 257.9,920 C259.6,920 259.5,919.7 256.8,918 C253.6,916.1 252.4,914 254.5,914 C255.1,914 255.5,914.4 255.5,914.9 C255.5,915.7 263.6,920 265,920 C265.4,920 264.9,919 264.1,917.8 C262.3,915.2 262,908.8 263.5,905.9 C264.8,903.5 263,903.4 257.9,905.5 C255.3,906.6 254.5,906.6 254.7,905.7 C255.4,903.8 261.4,902.1 267.6,902.1 C272,902 273.6,902.4 275,904 C276,905.1 277.3,906 277.9,906 C278.5,906 280.4,907.1 282,908.4 L285,910.8 L282,914 C280.4,915.7 276.4,918.3 273.2,919.8 L267.5,922.4 L274.7,924.6 C282.4,926.8 284.4,926.7 282.4,924.4 C280.6,922.2 282.1,921.6 284.6,923.4 C286.7,924.8 287,924.8 288.6,923.4 C291.2,921 292.8,922.6 292,926.7 C291.6,929.1 291.7,930 292.4,929.5 C295,928 292.8,907.7 289.1,899 C286.8,893.4 273.5,886.8 260,884.5 C255.4,883.7 250.9,881.6 247.8,878.7 C244.5,875.7 245,874.9 249,876.6 C255.9,879.4 262.2,877.9 265.5,872.4 C267.5,869.3 267.5,869 265.9,864.4 C262.9,855.5 257.7,850.8 246.2,846.6 C240.6,844.5 236.5,845.1 236.5,848 C236.5,852.3 228.7,853.4 226.1,849.5 C224.8,847.5 223.8,847.1 222.2,847.5 C215.4,849.4 214.4,850.9 212.1,863 C209.1,878.6 209.1,878.7 211.9,879.4 C213.2,879.7 215.6,879.5 217.1,879 C219.2,878.2 220,878.3 221,879.6 C222.1,881.2 222.4,881.2 225.3,879.2 C230,875.8 230.3,876.6 226,881 C222.4,884.7 222,884.9 221.3,883 C220.6,881.1 220.5,881.1 216.9,883.5 C214.9,884.9 212.2,886 211.1,886 C206.9,886 205.3,888.2 205.1,894.1 C205,898.1 207.4,909.8 209,912.7 C209,912.8 210.9,912.3 213,911.5 C215.2,910.7 218,910.1 219.2,910 C222.4,910 225.3,913.6 226.1,918.6 C226.5,921.5 227.1,922.7 228,922.4 C228.9,922 229.4,923.3 229.6,926.9 C229.9,930.9 229.7,932 228.5,932 C227.7,932 224.4,934.1 221.2,936.7 C214.6,942.1 214.6,941.9 218.3,954.3 C220.4,961.7 223,965.1 227.7,967.1 C230.3,968.2 230.9,968.1 231.7,966.7 C232.9,964.4 234.4,964.6 233.8,966.9 C232.7,971 225.5,970.1 221.4,965.4 C219.6,963.3 213.5,948 213.5,945.5 C213.5,943.7 212.1,943.5 210.8,945.3 C208.7,948 206.5,955.8 206.5,960.5 C206.5,964.1 206.2,965.1 205.5,964 C205,963.2 204.5,961.3 204.5,959.8 C204.5,958.3 203.4,954.7 202.1,951.8 C200.8,948.9 199.5,945.8 199.3,945 C198.8,943.3 195.3,950.6 193.3,957.4 C192.2,961.2 192.1,961.3 191.7,958.7 C191.5,956.9 192.8,952.9 195.1,947.9 C198.5,940.7 199,940 200.2,941.6 C200.9,942.6 201.5,944.3 201.5,945.4 C201.6,946.6 202.4,949.1 203.4,951 L205.3,954.5 L206.4,950.4 C207,948.1 208.2,945.7 208.9,945.1 C210.2,944 210.2,943.4 208.9,940.5 C208,938.2 207.5,933.3 207.5,925.9 C207.5,918 206.9,912.3 205.4,906.1 C203,896.3 203.2,891 206.6,878.5 C207.7,874.1 210,863.3 211.6,854.5 C214.2,840 214.3,838.4 212.8,837.5 C203.1,831.5 198.5,821.8 198.5,807.4 C198.5,802.4 197.9,796.3 197.1,793.8 C195.2,787.4 188.4,777.7 179.4,768.8 C171.9,761.2 168.6,759.1 169.9,762.8 C170.2,763.7 172.1,769.2 174,774.9 C176,780.6 178,788.5 178.5,792.4 C179,796.3 180.1,803.5 180.9,808.4 C181.7,813.3 182.2,817.7 181.9,818.1 C181.7,818.5 179.6,818 177.2,817 C174.9,815.9 172.2,815 171.2,815 C169.6,815 169.7,815.4 171.9,818.3 C175.3,822.8 181,838.9 182.5,848.4 C183.1,852.8 184.3,857 185.1,857.7 C185.9,858.5 186.3,859.6 185.9,860.1 C185.6,860.6 184.2,859.6 182.8,858 C180.1,854.7 176.7,852.7 172,851.6 C169.2,850.9 169.1,850.9 170.7,852.7 C173.9,856.2 177.3,871.3 178.3,886.1 C178.8,893.8 179.5,897.3 180.6,898.6 C189.7,908.9 192.7,935.8 185.4,942.1 C183,944.1 178.9,944.6 176.5,943 C175.3,942.2 174.9,942.8 174.4,946.3 C174.1,948.6 173.7,942.4 173.7,932.6 C173.6,922.7 173,910.8 172.4,906.1 C171.3,897.1 167.7,881.2 166.4,879.5 C166,879 164.9,875.8 164,872.5 C163,869.2 160.7,863.7 158.9,860.2 C157,856.7 155.5,853.1 155.4,852.2 C155.4,850.9 155.2,851 154.5,852.6 C153.7,854.6 154.5,864.4 156.5,878.3 C158.4,891.1 157.4,913.9 154.9,914.7 C154.4,914.9 152.9,912.8 151.7,910.2 C150.5,907.5 148.7,904.6 147.7,903.7 C146.1,902.2 146,902.8 146,913.8 C145.9,923.4 145.5,926.8 143.5,933 C142.2,937.1 140.3,941.8 139.4,943.3 L137.8,946.1 L137.1,941.3 C136.8,938.7 136,935.8 135.5,935 C134.7,933.7 134.4,933.8 133.1,935.5 C132.2,936.6 131.5,938.7 131.5,940.2 C131.5,946.7 129.2,953.3 125.8,957.1 C122.6,960.6 121.8,961 117.4,961 C113.6,961 112.3,960.6 111.5,959.1 C110.2,956.6 110.2,954.9 111.6,957.2 C112.8,959.4 119,960.6 121.9,959.2 C124.9,957.9 128.1,951 129,944.3 C129.7,939.1 129.6,939 127.1,939 C122.4,939 117.1,936 110.5,929.6 C101.9,921.3 97.5,917.9 96.4,918.6 C95.9,918.9 95.5,918.7 95.5,918.1 C95.5,916.2 101.3,913.9 104.2,914.6 C107,915.3 107,915.3 105.1,913.1 C104,912 103.5,910.7 103.9,910.3 C104.3,909.8 105.1,910.3 105.6,911.3 C107.1,913.8 108.3,913.4 109,910 C109.5,907.9 110.8,906.3 113.5,904.7 L117.4,902.5 L113.7,901.4 C110.3,900.3 110.2,900.2 112.8,900.1 C114.3,900 117.3,900.9 119.5,902 C124.7,904.7 125.9,909.6 122.5,914.2 L120.2,917.3 L122.6,916.7 C123.9,916.3 125.5,916 126.1,916 C127,916 127,914.9 126.4,912.3 C125.2,907 125.3,906.3 126.9,908.5 C127.6,909.6 128.6,912 129,913.7 C129.6,916.6 129.4,917.1 127,918 C125.6,918.5 122.1,919 119.4,919 C114.5,919 112.8,920.3 116.4,921.5 C117.5,921.8 118.6,922.7 118.9,923.5 C119.2,924.3 121.3,925.9 123.6,927 L127.8,929.2 L127.2,926.1 C126.4,922.2 127.5,922.2 131.9,926 C134.3,928.1 135.8,930.8 137.1,935 C138.1,938.3 139,940.8 139.3,940.6 C139.5,940.4 140.7,936.2 142.1,931.3 C144.8,921.7 145.5,905.9 143.5,900.6 C141.2,894.4 142.8,894.9 148.5,902.2 C150.9,905.2 152.5,906.5 152.5,905.5 C152.5,903.3 138.2,889.3 130.8,884.3 C127.7,882.2 123.6,878.3 121.8,875.6 C118,870 117.5,867.7 120.8,870.7 C123.8,873.5 127,875.1 132.5,876.4 C138.5,878 142.3,877.1 144.9,873.7 C147.9,869.6 147.9,857.2 144.7,851.3 C140.6,843.5 132.9,840.5 127,844.4 C125.6,845.3 123.5,845.8 121.8,845.5 C118.2,844.8 115.1,847.1 115.9,849.8 C116.3,850.9 119.2,853 122.8,854.8 C131.8,859.1 138.5,866.2 138.5,871.5 C138.5,873.7 137.6,873.4 131.5,869.2 C122.9,863.2 115,859.7 111.9,860.4 C109.5,861 109.4,861.4 110,864.9 C111.2,872 106.4,877 98.3,877 C95.1,877 94.8,885.8 97.7,902.7 L98.7,909 L94.2,913.9 C89.1,919.7 88.5,922.2 88.5,938.7 C88.5,945.4 88.1,948.9 87.5,948.5 C86.1,947.6 86.2,926 87.7,920.3 C88.4,917.2 90.1,914.5 92.7,911.9 L96.5,908.2 L95,899.5 C92.8,886.6 93,879.6 95.7,876.5 C96.9,875.1 98.8,874 99.9,874 C104.1,874 106.4,872.7 107.6,869.8 C108.4,867.8 108.5,866.6 107.7,865.8 C106.4,864.5 104.5,865.6 104.5,867.6 C104.5,868.4 103.8,869 103,869 C102.1,869 101.2,869.7 100.9,870.5 C100.5,871.3 99.9,872 99.4,872 C99,872 97.5,873 96.1,874.3 C93.2,876.9 91.9,877.9 88.2,880.3 C81.5,884.6 81.5,884.6 81.5,901 C81.5,909.3 81.2,916 80.8,915.9 C80.3,915.9 78.3,913.7 76.3,911 C73.1,906.8 67,901.7 68.9,904.8 C71.8,909.5 72.4,934.3 69.9,942.6 C67.1,951.6 66.6,958.4 68.1,965.7 C68.9,969.4 70.2,972.8 71,973.3 C71.8,973.7 72.5,974.7 72.5,975.5 C72.5,976.2 73.9,978 75.6,979.4 C78,981.5 79,981.8 80.1,980.9 C81.1,980.1 81.5,980.1 81.5,980.9 C81.5,981.5 80.4,982.7 79,983.6 C77,984.9 75.7,985 72.5,984.2 C70.3,983.7 68.5,983.5 68.5,983.9 C68.5,985.1 72.8,988.8 75.5,990 C76.9,990.6 79.1,991.8 80.5,992.6 C82,993.5 84.9,993.9 87.8,993.8 C92.4,993.5 92.5,993.6 93.6,997 C94.9,1000.9 99.1,1009.7 100.6,1011.4 C101.1,1012 102.2,1013.4 102.9,1014.4 C104,1016.1 104.3,1015.7 104.9,1010.7 C105.4,1006.1 105.1,1004.3 103.5,1001.3 C101.4,997.3 101.8,995.3 104.1,998.5 C110,1006.9 114.6,1011.8 121,1016.4 C125,1019.4 129.1,1022.7 130.1,1023.8 C133.4,1027.2 143.5,1031.7 142.3,1029.3 Z M183.9,940.5 C186.9,937.5 188,931.5 187.2,921.5 C186,905.3 173.5,889.2 173.5,903.8 L173.5,908.7 L176.8,908.4 C179.6,908.1 179.7,908.2 177.5,908.8 C174.6,909.7 173.4,914.7 175.7,916.5 C177.4,917.7 178.9,924 177.5,924 C177,924 176.5,922.5 176.3,920.8 C176.1,919 175.8,920.7 175.7,924.5 C175.6,931.5 175.6,931.5 179.1,933.8 C181.1,935.1 182.4,936.4 182.1,936.8 C181.7,937.1 180.1,936.4 178.5,935.1 L175.5,932.9 L175.5,936.8 C175.5,939.8 176,940.9 177.8,941.8 C180.9,943.3 181.1,943.3 183.9,940.5 Z M128.5,934.5 C128.5,932.7 127.4,931.3 124.3,929.3 C121.9,927.8 117.6,924.6 114.8,922.2 C105.5,914.4 95.3,912.7 103.6,920.4 C106,922.6 111,927.2 114.8,930.7 C120.4,935.9 122.1,937 125,937 C128.1,937 128.5,936.7 128.5,934.5 Z M284,930.5 C284,928.9 282.9,928.3 278.5,927.3 C275.5,926.6 270.5,925.3 267.5,924.4 C258.9,921.8 253.7,921.5 251.4,923.5 C248.5,926.3 249.1,927 254.4,927 C257,927 262.1,927.9 265.6,929 C270.4,930.6 272,930.7 272.6,929.8 C273.2,928.9 273.8,929 275.2,930.2 C279.1,933.5 284,933.7 284,930.5 Z M154.6,879.5 C152.1,860.5 152,845 154.4,846.4 C154.8,846.7 156.4,850.1 157.9,853.9 C161,861.7 163.2,864.4 162,858.9 C160.8,853 154.7,841.4 151.2,838.3 C146.5,834.2 134.5,830.4 129.8,831.6 C125.8,832.6 123,835.9 122,840.8 C121.4,843.5 121.6,844 123.2,844 C124.2,844 125.9,843.3 126.9,842.5 C128,841.7 131,841 133.7,841 C139.4,841 142,843.3 146.5,852.4 C149.9,859 150.1,862.1 148,869.9 C146.2,876.8 145,877.9 138.9,878.6 C135,879.1 132.9,878.7 128.1,876.6 L122.3,873.9 L124.6,876.8 C125.9,878.3 129.9,881.6 133.4,884.1 C143.6,891 152.1,899.9 153.7,905.1 C155,909.5 155,909.4 155.3,898.5 C155.5,892.5 155.1,883.9 154.6,879.5 Z M318.6,891.8 C317.4,888.3 315.6,884 314.5,882.2 C312.3,878.7 307.1,875 304.1,875 C302.8,875 302.5,874.5 302.9,873.3 C303.4,872.1 301.6,869.8 296.5,864.9 C289,857.6 283.5,853.4 283.5,854.7 C283.5,855.1 285.3,857.8 287.5,860.7 C289.6,863.6 292.1,867.2 292.9,868.9 C294.6,872.2 295.6,873.2 301,877.5 C303.1,879.2 305.6,881.3 306.6,882.3 C307.7,883.2 309.3,884 310.2,884 C311.4,884 311.6,884.3 310.8,885.1 C310,885.9 310.2,887.1 311.7,889.6 C314,893.5 315,894 314,890.9 C313.5,889.6 313.7,889 314.3,889.4 C314.8,889.7 315.6,892.1 316,894.7 C316.4,897.4 317.2,900.4 317.8,901.5 C318.8,903.4 318.9,903.4 319.7,900.8 C320.4,898.7 320.1,896.4 318.6,891.8 Z M49.1,897.7 C55.5,895.8 68.7,889.5 78.9,883.4 C80.2,882.6 81.1,880.4 81.7,876.5 C82.2,873.3 82.4,870.6 82.2,870.4 C81.1,869.3 69.2,873 65,875.8 C54.3,882.8 36.5,897.3 36.5,899.1 C36.5,900.6 40.6,900.1 49.1,897.7 Z M176.5,890.2 C176.5,876 172.3,855.7 168.8,852.8 C168,852.2 166.9,850.6 166.5,849.4 C165.6,847 156.5,840.2 156.5,841.9 C156.5,842.4 156.9,843.1 157.4,843.4 C159.2,844.6 162.3,852.8 163.9,861 C166.5,874.1 168.6,882 169.5,882 C170.5,882 172.5,890.9 172.5,895.1 C172.5,897.8 172.7,898 174.5,897 C176.1,896.1 176.5,894.9 176.5,890.2 Z M49,884.3 C52.9,881 57.9,877.1 60.3,875.5 C62.6,874 64.5,872.7 64.5,872.6 C64.5,872.6 60.8,872.5 56.3,872.5 C51.7,872.5 46.9,872.2 45.5,871.8 C43.1,871.1 42.9,871.4 39.3,882.8 C37.2,889.3 35.5,894.9 35.5,895.4 C35.5,895.9 37,894.9 38.8,893.2 C40.5,891.5 45.2,887.5 49,884.3 Z M290.1,885 C289.4,882 287.8,877.1 286.6,874.2 C283.9,867.4 283.9,866.4 287.1,868.4 C291.1,871.1 292.1,869.7 288.8,866 C287.2,864.1 284.2,860 282.1,856.8 C274.2,844.7 259.8,834.4 248.1,832.4 C239.7,830.9 235.9,831.1 227.3,833.5 C218.4,835.9 215.7,838.3 214.9,844.2 L214.2,848.9 L218.3,847.3 C223.1,845.5 227.1,846.2 228,849 C229.1,852.6 234.9,850.7 235.7,846.5 C235.9,845 236.9,844.4 239.9,844.2 C243.4,843.9 247.1,844.9 254.3,848.3 C258.7,850.4 264.6,856.2 266.5,860.5 C269,866.1 269,869.4 266.5,873.5 C264.2,877.2 260.2,879 254.1,879 L250,879.1 L253.6,880.9 C255.6,881.9 259.5,883 262.2,883.4 C267.8,884.1 277.9,887.4 281.3,889.7 C282.6,890.5 284.2,891 284.8,890.7 C285.5,890.5 286.9,890.6 288,891 C291.1,892.2 291.5,890.9 290.1,885 Z M86.3,879.3 C87.8,878.3 90.1,876.3 91.3,874.8 C92.6,873.2 94.3,872 95.1,872 C95.9,872 96.5,871.6 96.5,871 C96.5,870.5 97,870 97.5,870 C98.1,870 99.9,868.4 101.6,866.5 C103.3,864.6 105.3,863 106.1,863 C106.9,863 107.5,862.4 107.5,861.6 C107.5,860.8 108.1,860 108.8,859.7 C109.4,859.5 108.2,859.2 106,859.2 C101,859.1 85.5,864.1 85.5,865.8 C85.5,866.4 85.7,867 86,867 C87.2,867 100,861.8 101.1,860.9 C101.8,860.3 103.2,860 104.2,860.2 C105.6,860.6 105.4,860.9 103,862.1 C101.4,862.8 99.8,863.7 99.5,864.1 C99.2,864.4 95.8,865.6 91.9,866.8 L84.9,868.9 L83.9,875 C83.3,878.3 83,881 83.2,881 C83.4,881 84.8,880.2 86.3,879.3 Z M76.4,867.1 C81.9,864.6 83.1,863.7 83.3,861.5 C83.6,859 83.4,858.9 80.8,859.4 C79.3,859.7 75.1,860.4 71.5,861 C58.4,863.3 44.8,868.1 46.1,870.1 C46.6,871 50.1,871.1 58.3,870.6 C67.9,870.1 70.8,869.5 76.4,867.1 Z M136.5,869 C136.5,866.9 128.4,859.3 124.3,857.5 C113.5,852.8 112.1,849.5 118,842.9 C120,840.6 121.5,837.9 121.5,836.5 C121.5,834.7 122.6,833.4 125.2,831.7 L128.8,829.4 L128.7,815.9 L128.6,802.5 L122.8,799.8 C119.6,798.3 116.7,797.1 116.3,797 C115.9,797 115.5,798.2 115.3,799.8 L114.9,802.5 L114.1,799.5 C109.5,780.7 106.3,773.6 98.5,764.8 C93.6,759.2 92.1,758.7 93.9,763.3 C95.9,768 97.3,778.7 98,793.7 C98.5,804.6 98.3,806.9 97.2,806.5 C96.5,806.2 95.2,804.7 94.3,803.2 C92.1,799.6 85.5,792 84.6,792 C84.1,792 84.4,794.4 85.2,797.3 C86.8,803.3 88.5,827.9 88.2,839.5 L88,847.4 L97,849 C102,849.9 106.9,851 108,851.4 C113.6,853.6 114.5,854.3 113.9,856.5 C113.5,858.3 114.1,858.8 119.2,860.4 C122.4,861.3 127.5,863.9 130.5,866 C137,870.5 136.5,870.3 136.5,869 Z M307.9,866.6 C309.7,865.9 312.9,863.8 314.9,861.9 L318.7,858.6 L318.1,852.5 C317.7,849.2 316.8,844 316.1,841 L314.7,835.5 L314.6,841.1 C314.5,845 314,847.2 312.9,848.1 C311.4,849.3 311.3,849.2 312.1,847 C312.5,845.6 312.9,843.4 312.8,842 C312.7,840.6 312.4,833.1 312.1,825.2 C311.6,813.8 311.2,810.2 309.6,807.1 C307.3,802.7 299,795 296.6,795 C295.6,795 294.5,794.6 294,794.1 C293.4,793.5 290.3,792.7 287,792.1 C281.8,791.3 280.7,791.4 278.5,793 C276.5,794.4 276.1,795.5 276.3,798.6 C276.4,800.8 277.2,804.1 277.9,806 C278.7,807.9 280.1,812.2 281,815.5 C281.9,818.8 283,822.4 283.5,823.6 C284.9,827.1 285.8,837 284.7,837 C284.2,837 283.5,834.8 283.1,832.2 C282.8,829.5 280.7,821.8 278.5,815 C276.3,808.2 274.5,801.8 274.5,800.9 C274.5,798.5 268.5,797.6 261.6,799 C258.6,799.5 256,800.2 255.8,800.4 C255.6,800.6 256.3,803.2 257.4,806.1 C258.4,809.1 259.9,813.1 260.5,815 C262.8,821.3 265.8,828 266.5,828 C266.9,828 268,829.9 268.9,832.3 C269.8,834.6 271.9,838.2 273.6,840.3 C276.6,843.9 287.1,850 290.4,850 C292.2,850 301,853.2 302.1,854.3 C302.5,854.7 303.6,855 304.5,855 C306.3,855 309.2,857.7 308.3,858.5 C308,858.8 304.9,857.7 301.4,856.1 C297.9,854.5 293,852.7 290.5,852 C288,851.4 284.9,850.2 283.7,849.3 C279.1,846.4 280.5,848.8 285.7,852.8 C288.6,855 293.7,859.3 297,862.4 C300.3,865.4 303.4,868 303.8,868 C304.2,868 306,867.4 307.9,866.6 Z M52,863.5 C56.2,861.7 61.3,860.5 74.5,858.4 C79.7,857.6 84,856.8 84.1,856.7 C84.2,856.6 84.5,854.9 84.9,852.9 C85.5,849.4 85.4,849.3 81.8,848.2 C64,843.1 55.4,842.6 54.6,846.5 C54.4,847.6 54,848.7 53.6,849 C53.2,849.3 52.1,851.5 51.1,854 C49.3,858.4 47.4,862.8 46.7,864.3 C46.2,865.4 47.9,865.1 52,863.5 Z M180.9,851.3 C180.5,849.7 179.8,848.2 179.2,847.9 C178.7,847.5 178.6,846.3 178.9,845.2 C179.9,842.3 172.2,820.1 169.6,818 C168.2,816.9 165.4,811.8 165.9,811.3 C166.2,811 168.8,811.5 171.7,812.4 C174.6,813.3 177.4,814 178,814 C179.3,814 178.7,806.8 176.5,796.3 C174.9,788.3 174.3,787.2 170.8,784.3 C168.7,782.5 166.2,781 165.3,781 C164.3,781 163.5,780.5 163.5,780 C163.5,778.2 151.4,780 147.6,782.3 L144.1,784.4 L147.6,785.3 C152.3,786.5 153.5,787.7 156.1,793.6 C158.3,798.6 158.3,799 156.9,805.1 C156.1,808.6 154.3,813.9 153,816.8 C149.6,823.9 149.5,832.3 152.8,835.1 C159.2,840.5 176.6,852 181.3,853.9 C181.4,854 181.2,852.8 180.9,851.3 Z M45.3,843.7 C47.8,840 48.2,834.2 46.4,826.1 C44.8,818.5 39.9,815.5 37.1,820.5 C36.5,821.6 35.7,822.7 35.3,823 C34.9,823.3 34.5,827.7 34.3,832.6 C34.1,839.9 34.4,842.3 35.8,844.4 C38.3,848.2 42.4,847.9 45.3,843.7 Z M85.5,819 C84.3,802.3 83,793.3 81.4,791.4 C80.5,790.3 80.7,790 82.7,790 C85.2,790 90.3,794.2 94.2,799.5 L96.4,802.5 L96,799.5 C95.8,797.9 95.3,791.2 95,784.6 C94.6,775 94.1,772.3 92.5,770 C90.7,767.4 86.4,755.1 85,748.8 C84.7,747.2 83.8,746 83,746 C82.2,746 81.6,746.3 81.6,746.8 C81.7,747.2 81.6,747.7 81.5,748 C81.4,748.3 81.2,749.2 81,750 C77,768.1 73.7,777.7 69.7,783.2 C66.9,786.9 65.4,788 62.4,788.5 L58.5,789.2 L60.7,793.3 C62.5,796.9 62.7,798.4 62.1,805 C60,828 60.1,827.8 57.6,829.9 C55.5,831.7 55.4,832.2 56.5,835.4 C57.1,837.3 58.1,839.3 58.8,839.8 C59.8,840.7 76.1,844.9 83,846.2 C84.8,846.5 85.1,845.8 85.7,839.5 C86.1,835.7 86,826.4 85.5,819 Z M268.4,835.9 C264.8,829.7 253.5,803.7 253.5,801.5 C253.5,800.7 252.3,799.7 250.8,799.4 C248.1,798.7 223.4,786.7 212.5,780.8 C208.2,778.4 205.3,777.7 199.2,777.3 L191.4,776.7 L195,783.3 C199.9,792.2 200.6,795 200.5,806 C200.5,818.2 203.2,826.9 208.5,832.3 C212.2,835.9 215.9,837 218.1,835.2 C218.9,834.4 220.8,833.6 227.9,831 C230.5,830 230.6,829.8 229.2,828.2 C228.4,827.3 227.1,824.3 226.4,821.5 C225.5,817.9 224.1,815.5 221.3,812.9 C218.5,810.2 217.5,808.5 217.5,806.2 C217.5,803.8 217.9,803 219.3,803 C222.2,803 224.4,806.1 225.5,811.6 C227.4,820.9 228.3,824 229.9,826.5 C230.8,827.9 231.6,829 231.8,829.1 C231.9,829.1 237.6,829.8 244.4,830.5 L256.9,831.8 L263.9,836.8 C267.8,839.5 271.1,841.6 271.3,841.5 C271.5,841.4 270.2,838.8 268.4,835.9 Z M31.8,836.6 C32.1,835.8 32.7,830.2 33.1,824.1 C33.5,818 34.1,813 34.5,813 C36,813 36.5,808.1 35.3,805.5 C32.8,799.9 24.9,801.7 22.9,808.5 C21.4,813.5 21.1,830.4 22.5,833 C23.6,835 28.1,837.9 30.1,838 C30.8,838 31.5,837.4 31.8,836.6 Z M147.9,829.2 C147.4,826.5 148.9,820.7 151.9,813.9 L153.4,810.2 L148.7,808.5 C146.1,807.6 141.2,806 137.8,805 C132.4,803.4 131.6,803.4 131.1,804.7 C130.3,806.6 130.4,820.5 131.1,825.1 C131.7,828.6 132,828.8 137.4,830 C140.5,830.6 143.9,831.5 145,832 C147.8,833.1 148.5,832.4 147.9,829.2 Z M58.9,818.4 C59.2,814.6 59.8,809 60.1,806 C60.6,801.5 60.2,799 57.9,792.5 C56.4,788.1 54.2,780.9 53,776.6 L50.8,768.6 L45.4,765.9 C40.5,763.3 36.6,762.2 26.4,760.5 C23,759.9 22.8,760 19.2,765.4 C17.2,768.5 15.5,771.5 15.6,772.2 C15.6,773.2 15.8,773.2 16.2,772.3 C16.7,770.8 28.5,767 32.5,767 C35.8,767 41.5,768.8 43.3,770.5 C44.4,771.5 43.5,772.7 38.6,776.9 C33.7,781.1 32.5,782.8 32.5,785.1 C32.5,788.4 34.1,789 35,786 C35.3,784.9 36.1,784 36.6,784 C37.9,784 37.7,784.7 35.8,787.6 C34.2,790.1 34.3,790.4 38.8,799.3 C41.3,804.4 43.9,809.9 44.6,811.5 C45.6,813.9 45.9,814.1 46.2,812.7 C46.5,811.7 45.5,808.5 44.2,805.7 C40.9,799 39.5,794.4 39.6,791.1 C39.7,789.2 40,789.8 41,793.2 C42.4,798.5 46.3,807 47.3,807 C47.7,807 48,809.1 48.1,811.8 C48.3,818.5 50.2,824.8 53.1,827.7 L55.7,830.2 L56.9,827.8 C57.6,826.4 58.5,822.2 58.9,818.4 Z M19.5,818.7 C19.5,811.3 22,803.3 24.9,800.9 L27,799.2 L24.6,797.1 C23.3,795.9 21.3,795 20.2,795 C17.8,795 14.5,797.7 14.5,799.7 C14.5,800.4 14.1,801 13.6,801 C12.1,801 9.3,813.5 10,817.4 C10.8,821.3 14.5,825 17.6,825 C19.3,825 19.5,824.2 19.5,818.7 Z M41.9,809.4 C39.4,804.5 35.8,797.8 33.9,794.4 C28.9,785.5 29.2,782.2 35.5,776.8 C38.2,774.4 40.5,772.2 40.5,771.9 C40.5,770.7 32.2,768.9 29.2,769.5 C24.4,770.5 10,777.6 7.6,780.1 C6.4,781.4 5.5,783.5 5.5,784.8 L5.5,787.2 L14.9,786.5 L24.2,785.8 L26.7,789.1 C28.1,791 30.1,794.1 31,796 C32,797.9 33.8,800.4 35,801.5 C36.3,802.6 37.6,805.1 38,807 C39,812.4 40.6,816 42,816 C42.7,816 43.8,816.7 44.5,817.5 C47.3,820.8 46.3,817.9 41.9,809.4 Z M14,796.4 C15.8,794.5 17,792.8 16.7,792.5 C15.7,791.5 7.8,792 6.2,793.3 C4.3,794.7 1.5,802.1 1.5,805.9 C1.5,809 2.3,810.3 5,811.8 C6.8,812.8 7.1,812.3 8.9,806.3 C10.1,802.2 12.1,798.5 14,796.4 Z M154.3,806.8 C156.3,804.8 155.7,798.1 153.3,794.1 C149.4,787.8 147.8,786.9 138.8,786.6 C134.3,786.5 133.9,786.3 131.7,782.3 C128.3,776.1 123.6,753.9 123.5,743.9 C123.5,741.4 123.2,739 122.8,738.7 C122.4,738.3 122,731.8 121.8,724.2 C121.7,716.7 121.2,710.4 120.8,710.3 C120.3,710.1 118.9,712.2 117.6,714.9 C115.4,719.4 115.3,720.4 115.9,730.6 C116.3,736.6 117,744.9 117.5,749 C118,753.1 118.9,760.6 119.5,765.5 C120.1,770.5 120.9,775.7 121.1,777.3 C121.4,778.8 121.2,780 120.7,780 C120.1,780 119.4,777.6 119,774.8 C118.6,771.9 118.2,768.4 118,767 C115.5,750.9 114.6,742.7 114.3,733.3 C114.1,727.1 113.7,722 113.4,722 C113.1,722 110.9,723 108.4,724.1 C105.1,725.8 101.8,726.3 95,726.5 C86.3,726.7 77.5,728.5 77.5,730.1 C77.5,730.5 78.3,731.5 79.4,732.2 C80.4,732.9 81.3,733.8 81.4,734.3 C81.4,734.7 82.6,736.7 84,738.8 C85.4,740.9 86.7,744.7 87.1,747.5 C87.7,753.3 91.5,766 92.6,766 C93.4,766 91.8,758.3 90.4,755.8 C88.6,752.3 91.2,754.1 97.1,760.3 C105.2,768.7 108.6,774.1 112,783.6 C114.9,791.8 116.9,795 119.2,795 C119.9,795 120.5,795.4 120.5,795.9 C120.5,796.4 121.5,797.2 122.8,797.5 C124,797.9 126.4,798.8 128,799.6 C130.5,800.7 150.6,807.5 152.6,807.9 C152.9,808 153.6,807.5 154.3,806.8 Z M267.4,796.4 C272.7,796.2 274,795.8 275.3,793.8 C276.2,792.5 277.4,791.2 277.9,790.8 C279.7,789.5 288.9,789.9 294.1,791.5 C296.8,792.3 299.1,793 299.1,793 C299.2,793 299.5,790.1 299.9,786.6 C300.2,783.1 301.4,777.8 302.4,774.9 C304.2,769.7 311.8,754.5 315.1,749.4 L316.7,747 L311,747 C303.7,747 298.2,745.4 292.8,741.8 C289.2,739.4 285.6,734.8 284.9,731.8 C284.8,731.3 284.6,730.8 284.5,730.5 C284.4,730.2 284.1,729.6 284,729 C283.9,728.5 283.6,727.8 283.5,727.5 C283.4,727.2 283.2,726.7 283.1,726.3 C283,725.8 282.6,724.9 282.1,724.2 C281.7,723.5 281.6,722.3 281.9,721.5 C282.2,720.7 282,719.8 281.5,719.5 C278.8,717.8 282.9,702.4 287,698.5 C292.8,693 296.5,691.1 305.8,688.9 L315.4,686.6 L314.8,683.6 C313.5,675.7 310.9,668.1 308.1,663.3 C304.8,657.5 303.5,656.8 303.4,660.3 C303.3,662.2 303.1,662.1 301.9,659.3 C301.2,657.6 299.9,653.1 299.1,649.3 C297.2,640.1 294.3,632.7 290.8,628.4 C283,618.3 261.3,598.4 253.1,593.8 C248.8,591.3 244.9,591.5 229.4,595.4 C215.4,598.8 212.4,600 209,603.1 C207.9,604.1 203.4,606.8 199,609 C194.6,611.3 190.6,613.5 190,613.9 C189.5,614.3 187,615.2 184.6,615.9 C179.8,617.3 169.7,622 162.2,626.4 C158.3,628.7 154.5,633.1 154.5,635.3 C154.5,635.9 165.3,643 166.2,643 C166.7,643 169,641.1 171.5,638.9 C174,636.7 177,634.7 178.3,634.3 C185.9,632.4 202.2,638.5 212.7,647.2 C216.8,650.6 217.5,651.8 218.5,656.8 C219.2,659.9 219.9,662.8 220.2,663.2 C220.8,664.3 230.4,660.3 236,656.6 C243.7,651.5 250.5,644.1 253.6,637.5 L256.5,631.5 L255.9,636.3 C255.3,641.1 256.2,642.3 258.5,639.5 C259.2,638.7 260.2,638 260.8,638 C262.9,638 258.2,641.9 255.4,642.5 C253.8,642.9 252.5,643.7 252.5,644.3 C252.5,646.3 235.4,661 233,661 C232.7,661 231.4,661.7 230.1,662.5 L227.7,664.1 L229.6,668.9 C232,675.5 237.1,684.7 240.6,689.1 C243.5,692.8 244.9,697.8 242.3,695.2 C240,692.9 239.4,694 240.1,699.3 C240.9,705.8 241.3,706.6 247.5,713.6 C250.3,716.8 252.3,719.5 252,719.8 C251.8,720.1 252.2,721.1 252.9,722.2 C253.7,723.3 254.1,725 253.8,726.1 C253.5,727.1 253.8,728.7 254.5,729.5 C255.2,730.3 255.5,731.9 255.2,733 C254.9,734.1 255.1,735.3 255.7,735.6 C256.2,735.9 256.5,737.4 256.4,738.8 C256.2,740.3 256.9,743 257.8,744.8 C258.8,746.6 259.1,748 258.5,748 C257.9,748 256.9,746.9 256.3,745.5 C255.7,744.1 254.8,743 254.3,743 C253.8,743 252.9,744.1 252.3,745.5 C251.7,746.9 250.8,748 250.3,748 C249.2,748 249.3,746.2 250.5,745.5 C251.1,745.1 251.3,744.5 251,744 C250.8,743.6 251.5,742.1 252.6,740.6 C253.8,739.1 254.3,737.5 253.8,736.8 C253.4,736.1 253.2,734.5 253.4,733.2 C253.5,731.9 253.1,730.2 252.5,729.5 C251.8,728.7 251.5,727.4 251.8,726.6 C252.1,725.9 251.7,724.3 250.9,723.1 C250.1,722 249.7,721 250.1,721 C250.5,721 248.7,718.8 246.1,716.1 C242.3,712 240.7,709.4 237.9,703.3 C237.9,703.1 235.2,704.3 231.9,705.8 C226.7,708.3 225.2,708.6 218.6,708.2 C210.6,707.7 209.3,709.2 216.6,710.4 C222,711.3 227.1,716.3 226.9,720.6 C226.6,727.8 221,733 213.6,733 C210.2,733 208.9,732.4 205.9,729.3 C203.3,726.5 202.5,724.8 202.7,722.8 C203.1,720.2 203.1,720.2 198.1,720.7 C190.5,721.5 177.9,718 169.2,712.9 C165.2,710.6 161.3,707.9 160.5,707 C158,704.2 152.8,702.5 151,704 C149.2,705.5 138.4,710.8 133.6,712.6 C131.8,713.3 128.7,713.6 126.8,713.3 L123.3,712.7 L123.8,724.6 C124,731.1 124.5,737.2 124.8,738 C125.1,738.8 125.6,743.1 125.9,747.5 C126.5,755.7 127.7,761.2 132.1,775.9 C134.6,784.1 134.7,784.2 137.5,783.7 C139,783.3 143.2,781.7 146.8,780 C150.3,778.4 154.7,777 156.6,777 C162.3,776.9 171,774.5 171.3,772.9 C171.4,772 169.8,767.9 167.7,763.7 C164.2,756.8 164.1,756 165.9,756.6 C171.9,758.4 175,760.5 182,767.2 L189.8,774.5 L197.9,774.5 C205.5,774.5 206.6,774.8 215,778.9 C220,781.4 228.1,785.7 233.2,788.6 C244,794.8 253.7,798.2 258,797.4 C259.7,797 263.9,796.6 267.4,796.4 Z M65.2,785.5 C66.4,784.7 69,780.8 70.9,776.8 C74.2,770.3 74.4,769.5 73,767.9 C70.4,765.1 69.9,756 72.1,751.4 C74.2,746.9 75.2,746 78.1,746 C79.2,746 80.7,744.9 81.4,743.6 C82.5,741.6 82.4,740.8 80.2,737.4 C76.9,732.1 75,730.7 72.5,731.5 C69.5,732.5 60.1,727.6 56.9,723.4 C55.4,721.5 54.5,719.7 54.8,719.4 C55,719.1 53.2,716.9 50.6,714.6 C44.9,709.3 41.4,708.6 26.5,710 C14.5,711.1 5.1,714.6 3.9,718.3 C3.6,719.4 4.1,724 5,728.5 C6.7,736.5 6.7,737.2 5,744.7 C4,749 2.6,753.2 1.8,754.1 C1.1,754.9 0.5,757.7 0.5,760.2 C0.5,763.9 1.1,765.3 3.8,768.2 C5.5,770.1 8.2,772.2 9.7,772.8 C12.2,773.8 12.5,773.7 13.9,771 C14.7,769.4 15,768.1 14.7,768.1 C12.2,768.5 8.5,766 8.5,764.1 C8.5,763.6 11.3,762 14.6,760.5 C20,758.1 21.5,757.9 26.7,758.4 C43.8,760.4 65.9,773.2 61.5,778.6 C60.8,779.3 59.9,779.7 59.4,779.4 C58.9,779.1 57.9,779.3 57.1,779.7 C55.9,780.4 55.9,781 57,783.8 C58.6,787.4 61.6,788 65.2,785.5 Z M319.4,742.4 C321.1,741 322.3,739.5 322,739.1 C321.8,738.7 324,735.9 327,733 C331.2,728.9 332.2,727.3 331.4,726.3 C330.8,725.6 330.5,723.7 330.7,722 C331.1,719.5 330.9,719.1 329.5,719.5 C328.5,719.8 327.2,719.4 326.5,718.5 C325.4,717.2 325.6,717 327.6,717.2 C329.1,717.4 329.9,717 329.7,716.2 C329.6,715.5 329.3,714.2 329.2,713.2 C329,712.3 328,709.4 326.8,706.9 C325.1,703.2 324.1,702.2 321.5,701.6 C314.6,700.3 311.7,700.9 308.2,704.3 C303.7,708.6 302.8,711.6 305.1,714.1 C307.4,716.7 306.3,717.6 303.2,715.6 C301.3,714.3 300.2,714.2 298,715 C296,715.8 295.4,715.7 295.7,714.8 C296,714.1 297.1,713.4 298.3,713.2 C299.6,713 300.8,711.7 301.5,709.7 C303.6,703.4 309,699 314.6,699 C319.2,699 319.6,698.5 317.9,695.2 C317.1,693.7 316.5,691.7 316.5,690.8 C316.5,688.6 316.8,688.6 306.5,691.2 C296.1,693.8 291.6,696.7 287.3,703.3 C284.8,707.3 284,709.7 283.7,714.6 C283.5,718.1 283.6,721.8 284,722.7 C284.5,723.7 284.9,725 285,725.5 C285.1,726.1 285.3,726.8 285.5,727.3 C285.6,727.7 285.8,728.3 285.9,728.8 C286.4,730.9 289.7,735.8 292.2,738.1 C297.3,742.9 302.4,744.9 309.7,745 C315.4,745 316.8,744.6 319.4,742.4 Z M219.9,729 C225.5,725.6 226.5,720.6 222.5,715.9 C220.5,713.5 219,712.8 215,712.4 C210.1,711.9 210,712 207.3,716 C204.4,720.1 203.9,722.1 205.3,723.4 C205.7,723.8 206,724.7 206,725.3 C206,726.8 212.3,731 214.6,731 C215.6,731 217.9,730.1 219.9,729 Z M83.5,725.7 C87.6,724.4 92.8,722.1 95,720.6 C97.2,719.2 99.8,717.4 100.9,716.7 C101.9,716.1 103.8,714.7 105,713.8 C106.3,712.8 107.7,712 108.1,712 C109.7,712 104,717 98.9,720.2 C90.1,725.6 91.9,726.4 104.3,722.5 C111.9,720.1 112.3,719.8 114.9,715 L117.6,710 L109.5,701.2 C104.9,696.4 100.8,691.5 100.2,690.3 C99.4,688.5 98.3,688 95.4,688 C91.8,688 74.7,684.8 71.3,683.5 C70.3,683.1 67.2,683.6 64.3,684.6 C61.1,685.7 55.7,686.5 50.5,686.6 C39.4,686.8 39.8,686.6 42.5,689.5 C43.7,690.8 47.7,692.9 51.3,694.1 C56.7,695.9 59.1,696.2 65.3,695.6 C73.6,694.9 74.1,695.9 66.3,697.6 C61.1,698.8 55.7,698.1 50,695.6 C41.1,691.6 39,693.3 44.9,699.7 C47.4,702.6 50.3,704.2 56.4,706.4 C64.4,709.2 64.6,709.2 69.4,707.6 C75.2,705.7 75.8,705.7 75,707 C74.7,707.5 72,708.7 69,709.5 C63.9,711 63.4,711 57.8,708.9 C50.6,706.3 46.5,705.5 46.5,706.7 C46.5,708.7 56.2,716.7 60.7,718.4 C65.2,720.2 65.5,720.2 72.8,718 C81.7,715.4 85.4,715.8 77.5,718.6 C73.9,719.8 69.3,720.5 64.3,720.5 L56.6,720.4 L58.7,722.7 C62.4,726.6 70.2,730 73.3,729 C74.8,728.5 79.4,727 83.5,725.7 Z M205.1,715.3 C206.5,713.8 208.3,711.3 209.1,709.8 C210.5,707.1 210.5,707 208.1,707 C206.1,707 205.7,707.4 206.2,708.7 C206.6,709.8 206.5,710.1 205.7,709.6 C205,709.2 204.5,709.5 204.5,710.4 C204.5,711.8 203.3,712.4 201.3,712.1 C200.8,712.1 200.5,713 200.5,714.2 C200.5,716.2 200.4,716.3 198.9,714.9 C198.1,714 197.3,712.7 197.2,711.9 C197,711.1 196.6,709.9 196.1,709.2 C194.1,706 192.5,696.9 192.5,688.7 C192.5,681.7 193.1,678.4 195.4,671.7 C197,667.1 199,662 199.9,660.3 C201.6,656.9 206.4,653 208.9,653 C210.8,653 214.9,660.6 214.1,662.6 C213.7,663.5 214.3,664 215.7,664 C217.6,664 217.7,663.6 217.3,659 C216.7,653.1 215.3,651.3 206.5,645.6 C195.7,638.6 182.1,634.1 178.1,636.2 C164.8,643.3 153.7,671 156,691.3 C156.5,696.4 157.3,698.2 161.2,703.2 C165.8,709.1 168.8,710.8 167.8,707 C166.5,702.2 172,700.7 181.1,703.5 C187,705.3 191,710.4 190.6,715.9 L190.4,719.3 L196.4,718.7 C201.3,718.3 202.9,717.7 205.1,715.3 Z M188.5,714.1 C188.5,710.5 184.1,706.4 179,705.2 C176.8,704.7 174.3,703.9 173.4,703.6 C171.2,702.7 169.1,705.4 169.9,708.3 C170.2,709.5 171.8,711.6 173.4,712.8 C176.5,715 186.3,718.2 187.8,717.3 C188.2,717.1 188.5,715.6 188.5,714.1 Z M138.5,708.2 C143.7,706.3 149.5,703.1 149.4,702.2 C149.4,701.8 146.6,699.3 143.2,696.7 L137,691.9 L131,692.7 C120.3,694.1 112.4,693.6 107.7,691.1 C105.3,689.8 103.1,689 102.8,689.4 C101.7,690.5 116.6,704.8 122,708 C127.5,711.2 130.2,711.2 138.5,708.2 Z M38.6,707 C45.9,707 46.6,705.4 42.3,699.4 C39.5,695.5 39.2,694.6 40.4,692.9 C41.4,691.2 41.4,690.5 40.1,689.2 C38.3,687.1 39.7,684 42.5,684 C44.6,684 45,683 43.7,681.5 C42.3,679.8 39.4,671.3 38.6,666.2 L37.8,661.5 L36.1,665.5 C35.1,667.7 32.8,672.7 30.9,676.6 C29,680.5 27.5,684.1 27.5,684.7 C27.5,685.3 27.1,686 26.5,686.2 C25.3,686.6 21.3,705.8 22.1,707.2 C22.5,707.8 24.8,708 27.9,707.6 C30.7,707.3 35.5,707 38.6,707 Z M231.2,703.7 C236.4,701 237.5,699.3 237.5,693.9 C237.5,690.3 236.6,687.2 233.9,682 C232,678.2 230,674.8 229.5,674.5 C229,674.2 228.4,672.7 228,671.1 C226.9,666.1 225.5,665.6 216.6,666.9 C209.8,667.9 208.2,667.9 204.6,666.4 C202.3,665.5 200.1,665 199.8,665.4 C199.4,665.8 198.3,668.6 197.2,671.8 C194.9,678.9 193.9,699.2 195.8,700.8 C197,701.8 207.3,704.5 213,705.4 C218.5,706.2 228.1,705.3 231.2,703.7 Z M156.2,700.3 C153.1,690.9 153.1,690.1 154.7,677.1 C156.3,664.7 159.8,652.7 163.1,648.9 C163.9,648.1 164.5,646.8 164.5,646.2 C164.5,644.8 149.8,635 147.7,635 C146.8,635 143.9,633.9 141.1,632.6 C135.1,629.8 121.9,628.3 116.4,629.8 C113.8,630.5 110.9,630.4 106.4,629.5 C101.8,628.6 100.9,628.2 103.3,628.1 C107.7,628 107.3,626.8 101.8,624 C97.4,621.8 96.9,621.8 90.6,623.1 C86.9,623.8 80.1,624.3 75.3,624.1 C63.2,623.7 56.7,625.3 50.8,629.9 C46.6,633.3 45.9,634.5 44.3,640.6 C39.4,659.5 39.5,668.9 44.9,678.6 L48.3,684.5 L54.1,684.3 C62.8,684 68.5,681.1 63.6,679.5 C62.5,679.2 60.3,677.4 58.7,675.6 C57.1,673.7 54.8,671.9 53.7,671.6 C52.6,671.2 51.1,670.2 50.3,669.3 C49.2,667.8 49.3,667.7 51.3,668.3 C53.4,668.8 53.6,668.6 53.1,666.4 C52.4,663.6 54.1,663.1 55,665.9 C55.3,666.9 56.9,669.7 58.6,671.9 C63.4,678.6 75.2,683.5 92,685.6 L96,686.2 L93.5,684.1 C90.9,682 92.1,681.2 95.3,683 C99.8,685.5 111.9,690.1 115.8,690.9 C120.9,691.8 131.3,691.2 132.1,689.8 C132.4,689.4 131.6,688.1 130.3,687 C127.2,684.4 130.1,684.4 133.5,687 C134.9,688.1 136.3,689 136.7,689 C137,689 141.2,691.9 146,695.5 C154.8,702.2 157.2,703.3 156.2,700.3 Z M156.3,625.2 C155.8,622.5 149.9,619.7 146.5,620.5 C143.2,621.2 139.8,624.2 138.5,627.5 C137.8,629.3 138.5,629.7 144.8,631.6 L151.9,633.7 L154.3,630.2 C155.5,628.3 156.5,626.1 156.3,625.2 Z M141.1,620.8 C142.2,619.9 144.9,618.8 147.1,618.5 C150.6,617.9 151.6,618.2 155.8,621.4 C159.3,624.1 160.6,624.6 161.2,623.6 C161.6,622.9 163.4,621.8 165,621.2 C179.4,616 202.9,604.9 206.4,601.6 C210,598.3 216.5,595.2 221.7,594.4 C224,594 228.5,593.1 231.5,592.3 C234.5,591.4 238.5,590.5 240.2,590.3 C242.9,589.9 243.5,589.3 243.9,586.6 C244.2,584.9 244.9,579.9 245.5,575.5 C246.2,571.1 247.2,565 247.8,562 C248.6,558.3 249,541.6 249,511.5 C249.1,459.4 249.8,449.7 254.6,433.7 C256.6,427.1 256.6,426.7 255,419.9 C252.3,408.9 251.4,410.2 245.9,434.5 C241.9,452.3 240.7,458.9 239.2,470.5 C237.7,481.7 237.8,483.6 239.7,495 C241.4,505.2 242.6,538.5 241.5,546 C241,549.2 241.2,549.5 243.3,549.2 C247.5,548.6 245.5,550.8 240.8,551.9 C238.1,552.5 234.4,553.7 232.5,554.4 C228.1,556.1 212.7,560 206,561.1 C171.8,566.7 147.6,567.8 132.6,564.6 C125.3,563 124.1,563 122.8,564.3 C120.4,566.7 120.9,575.5 124.3,591.5 C126.1,599.8 127.9,610.7 128.2,615.8 C128.8,625.4 129.4,626.6 133.5,627.2 C135.3,627.4 136.4,626.8 137.6,625 C138.5,623.6 140.1,621.7 141.1,620.8 Z M126.5,622.1 C126.5,616.8 122.7,591.7 120.5,582.2 C118.1,572.2 118,569.4 120,565.6 C120.9,564 121.4,562.6 121.3,562.5 C121.1,562.3 118.8,561.5 116,560.5 C110.6,558.7 107.5,556.5 107.5,554.3 C107.5,552.7 109.2,552.6 109.9,554.3 C111.8,558.7 107.2,528.9 104.3,518.5 C103.7,516.3 102.9,509.8 102.5,504 C102,497.1 101.8,503.5 102,523 C102.3,552.9 103,561.7 105.8,568 C112.3,582.7 117.9,601.2 120.1,615 C122.1,627.1 122,626.9 124.4,626.3 C126,625.9 126.5,625 126.5,622.1 Z M106.8,621.1 C95.9,611.8 92.5,609.3 88.2,607.3 C82.1,604.4 80.7,604.4 74.8,607.3 C68.8,610.1 67.3,611.4 62.4,617.6 C58.4,622.8 57.5,624.7 59.7,623.4 C60.4,622.9 67,622.2 74.5,621.8 C81.9,621.3 90.5,620.7 93.6,620.4 C98.1,619.9 100.1,620.3 103.3,621.9 C105.5,623 107.7,624.5 108.1,625.2 C108.7,626.1 109,626.1 109.3,625 C109.6,624.3 108.4,622.5 106.8,621.1 Z M175,563.1 C182.2,562.4 190.7,561.3 194,560.7 L200,559.5 L200.6,553.5 C201.7,544 206,528.4 208.7,524.3 C210.1,522.2 213.1,518.4 215.5,515.8 C220.3,510.4 226.3,508 234.8,508 C239.6,508 239.7,508 239,505.3 C238.4,502.9 237.5,495.7 235.8,481.4 C235.4,477.8 236.4,470.6 239.4,454.9 C241.7,443.2 244,432.1 244.5,430.4 C245,428.8 245.9,425.4 246.5,422.9 C247,420.5 248.1,415.8 248.8,412.5 C249.8,408.2 250.1,402.2 249.7,391.4 C249.2,376.8 249.3,376.1 252,369.4 C253.5,365.6 257,358.2 259.7,353 C266,341.1 266.8,335 263.6,321.9 C262.4,317.1 261.5,310.8 261.5,307.9 L261.5,302.6 L257.5,306.5 C255.3,308.6 253.5,309.9 253.5,309.3 C253.5,308.6 258.6,303 264.8,296.7 C277.3,284 277.6,283.8 279.4,279.3 C281.8,273.3 278,251.7 273.6,247.2 C269.6,243.1 267.4,241.6 263.5,240.1 C261.6,239.4 259.1,238.4 258,238 C249.5,234.4 223.1,231.9 214.6,234 C208.3,235.5 199.4,242.6 192.4,251.8 C184.7,261.9 183.8,271.2 188.5,293 C190.7,303.8 190.9,306 189.5,306 C189,306 188.5,304.5 188.4,302.8 C188.4,299.3 186.7,294.2 186.6,297 C186.5,297.8 185.8,299.9 184.9,301.5 C184,303.2 182.4,306.8 181.3,309.5 C180.2,312.3 178.7,315.9 178,317.5 C173.9,326.4 173.1,331.4 173,348.5 C172.8,360.1 172.3,367.6 171.2,372 C168.9,381.5 164.5,396.1 163.3,398.4 C161.7,401.5 159.8,410.6 158.5,421.5 C157.1,434.6 153.7,458.5 152.6,463.3 C152.2,465.3 152.1,467 152.5,467 C153,467 155.9,464.9 159,462.4 C162.1,459.9 164.9,458 165.2,458.3 C165.4,458.6 164.6,459.7 163.3,460.8 C162.1,461.9 158.9,464.6 156.3,466.8 C153.7,469 151.2,471 150.7,471.1 C149.7,471.5 146.5,488.3 146.5,493.2 C146.5,496.9 147.7,496.8 156.1,492.6 C159.9,490.7 163.1,489.3 163.3,489.5 C164,490.2 155.2,495.2 151.1,496.4 L147,497.6 L146.3,504.5 C145.3,514.6 146.1,550.4 147.5,557.7 C148.3,561.9 149.2,564 150.3,564.4 C152.3,564.9 157.4,564.7 175,563.1 Z M146.1,561.8 C144.5,556.1 142.8,531.5 143.3,521.1 L143.8,509.8 L141.4,510.5 C138.1,511.5 132.7,516.7 130.2,521.5 C128.1,525.2 128,526.7 128.3,542.9 C128.4,552.5 128.7,560.5 128.9,560.7 C129.3,561.2 142.4,563.8 144.9,563.9 C146.3,564 146.6,563.5 146.1,561.8 Z M126.3,542.8 C126,525.6 126.1,524.3 128.2,520.4 C130.7,515.7 136.6,510.2 140.7,508.8 C143.2,507.9 143.5,507.3 143.5,503.6 L143.5,499.3 L136.5,498.1 C132.7,497.4 129.2,496.3 128.8,495.8 C128.4,495 129,494.9 130.6,495.4 C131.9,495.7 135.6,496.3 138.8,496.7 C143.9,497.2 144.5,497.1 144.5,495.4 C144.5,492.2 146.4,476.9 147,474.9 C147.6,473.1 147.5,473.1 143.3,475 C140.6,476.2 136.9,476.9 133.5,476.9 C129.5,476.9 128.6,476.6 130,476 C131.1,475.5 133.2,475.1 134.6,475.1 C136,475 139.9,473.7 143.2,472 L149.2,469 L150.3,462.3 C153.6,442.5 155.5,429.7 156,422.5 C156.6,414.6 158,408.5 161.6,398 C162.6,395 164.2,389.4 165.1,385.5 C166,381.7 167.1,378.1 167.5,377.5 C168.7,375.8 171.6,363 171,361.9 C170.6,361.4 169.2,357.1 167.8,352.2 C165.2,343.2 163.9,340.6 162.4,341.6 C160.8,342.5 161.4,339.1 164,332.8 C166.7,326.1 167.3,317.6 165.4,310.5 C164.8,308.3 163.8,303.9 163.1,300.7 C162.5,297.5 161.6,295.2 161.2,295.6 C160.8,296 160.5,295.5 160.5,294.4 C160.5,293.3 162.1,290 164,287 C170.8,276.3 171.7,273.5 171,266.7 C170,257.9 166.1,242.7 163.9,238.9 C161.4,234.6 156.6,232.3 146.5,230.5 C130,227.6 118.4,228.9 106.4,235 C98.5,239.1 86.3,255.9 83.6,266.4 C82.2,272.1 83.7,283 86.5,287.5 C87.6,289.2 89.2,292 90.2,293.8 C92.1,297.4 93.1,297.8 93.9,295.3 C94.2,294.3 94.3,295.5 94,297.9 C93.8,300.3 92.5,305.9 91.1,310.4 C85.9,327.3 85.8,338 90.7,359.5 L92.9,369.5 L95.1,362.5 C96.8,357.3 97.3,356.3 97.4,358.5 C97.4,360.2 95.7,366.6 93.5,372.9 C88.4,387.6 86.6,402.6 89,411.6 C89.8,414.8 90.5,418.2 90.5,419.2 C90.5,420.2 90.9,421 91.4,421 C91.9,421 92.6,423.1 92.9,425.8 C93.3,428.4 94.3,433 95.1,436 C99.3,451.3 100.5,454.6 101.5,452.9 C102.6,451.3 103.4,462.1 104,487.5 C104.4,500.9 105.1,511.5 106,514.5 C107.9,521.7 110.4,535.9 111.8,547.5 L113,557.5 L118,559.2 C127.1,562.3 126.6,563.5 126.3,542.8 Z M215,556.6 C218.3,555.8 224.9,554.2 229.6,553 L238.1,550.8 L239.3,543.6 C240.5,536.7 239.5,515.9 237.9,511.6 C237.1,509.5 232.5,509.5 225.7,511.5 C221.1,512.9 219.9,513.9 215.9,519.3 C213.3,522.7 210.2,527.9 208.8,530.8 C206.3,536 203.6,548.5 203.5,554.8 C203.5,557.6 203.8,558 206.3,558 C207.8,557.9 211.7,557.3 215,556.6 Z M278.3,234.5 C280.7,228.5 282.7,212.9 282.4,201.7 C282.2,192.2 284.7,165.5 287.6,146 C290.7,125.8 294.1,112.6 299.1,101.5 C301.6,96 305.3,87.9 307.2,83.5 C309.1,79.1 312.9,70.8 315.6,65 C318.3,59.2 321.6,51.2 323,47.1 C326,38.3 325.7,36.9 318.8,27.8 C309,15 299.3,11.9 279.5,15.4 C271.4,16.9 265.8,18.8 263.7,20.8 C263,21.4 262,22 261.5,22 C258.8,22 255.4,27.1 254.4,32.6 C253.1,39.4 253.7,66.8 255.3,74.5 C258,87.4 258.7,97.5 257.5,103.5 C256,110.8 244.6,145.7 241.5,152.5 C239.4,157.1 233.6,171 227.1,187 C225.7,190.6 222.5,197.4 220,202.1 C214.6,212.7 212.8,217.7 211.9,225.6 L211.3,231.7 L222.6,231.3 C237.2,230.7 250.2,233 266,238.9 C275.1,242.2 275,242.3 278.3,234.5 Z M116.5,229.1 C124.8,226.2 133.7,226.2 147,228.9 C152.5,230.1 158,231.3 159.3,231.6 C163.2,232.7 162.8,228.7 157,208 C149.6,181.6 145.7,165.8 144.5,157 C143.9,152.3 142.9,145.6 142.4,142 C139.4,123.2 139.6,107.1 143,95 C146.1,83.9 148.3,72.3 148.7,64.9 L149.2,57.2 L145.6,55.7 C143.6,54.9 140.7,53.9 139,53.6 C137.4,53.2 134.2,52.5 132,51.9 C129.8,51.3 124.6,50.7 120.5,50.4 C112.8,49.9 107.6,48.6 104,46.5 C98.8,43.3 73,36 58.6,33.5 C42.4,30.7 24.8,31.4 13.7,35.3 C11.8,35.9 9.5,37.8 8.4,39.7 C6.6,42.6 6.5,43.2 7.8,46.2 C10.2,51.8 13.9,54.4 32,62.6 C34.2,63.6 36.2,64.7 36.5,65 C36.8,65.3 44.8,69.5 54.4,74.3 C63.9,79.1 73.6,84.3 75.9,85.9 C79.7,88.5 89.2,93.9 94.2,96.4 C97.6,98.1 98.2,100.2 100.4,117 C103.7,142.4 104.3,167.9 102.5,198 C102,206.5 101.3,217.7 101,222.9 C100.6,228.1 100.3,232.6 100.3,232.9 C100.1,235.5 100.9,235.6 105.3,233.6 C107.9,232.3 112.9,230.3 116.5,229.1 Z M148.3,45.5 C147.7,40.6 146.6,35.5 145.7,34.3 C142.9,29.9 115.3,23.4 110,25.8 C108,26.7 107.5,27.5 108,28.8 C109.3,31.6 109.8,36.3 108.9,35.8 C97.6,30.4 91.7,28.3 85.5,27.5 C83,27.1 77.9,26 74,25 C61.1,21.6 49.9,20.6 39.9,21.8 C34.9,22.5 29.1,23 26.9,23 C24.8,23 21.8,23.6 20.3,24.4 C18.9,25.2 16,26.3 14,27 C10.1,28.3 6.5,32.9 6.5,36.5 C6.6,38.4 6.6,38.4 7.6,36.7 C9.3,33.8 14.8,32 26.2,30.5 C39.8,28.7 60.3,30.7 77.5,35.5 C82.7,36.9 89.3,38.5 92,39.1 C94.8,39.6 100.2,41.5 104,43.4 C109.2,45.8 113.5,47 120.5,47.8 C130.9,49.1 146.5,52.6 147.9,54.1 C148.4,54.6 149,54.9 149.1,54.7 C149.2,54.6 148.9,50.5 148.3,45.5 Z M329.1,22.8 C328.6,20.5 327.2,18.7 324.4,16.7 C322.2,15.2 320,12.9 319.5,11.5 C318.4,8.6 312,4.2 307.1,2.9 C305.1,2.4 301.8,1.6 299.8,1 C296.1,0.1 289.1,0.8 279,2.9 C273.6,4 263.5,8.9 262.8,10.6 C262.5,11.4 261.7,12 261.1,12 C259.7,12 255.9,21.8 256.9,22.7 C257.2,23.1 257.5,22.9 257.5,22.3 C257.5,20.9 269.4,15.2 276.5,13.3 C284.9,11 295.7,11.2 304.1,13.8 C309.9,15.6 312,16.8 315,20.3 C317,22.6 320.2,26.2 322.1,28.3 C324,30.4 325.5,32.7 325.5,33.4 C325.5,34.1 325.8,35 326.2,35.4 C327.4,36.6 329.8,26.3 329.1,22.8 Z" id="path-1"></path>
    </defs>
    <g id="Page-1" stroke="none" stroke-width="1" fill="none" fill-rule="evenodd">
        <g id="Zaphod" transform="translate(0.000000, 1.000000)" fill-rule="nonzero" stroke="#57C003" stroke-width="2">
            <g id="Group" transform="translate(182.500000, 515.000000) scale(-1, 1) rotate(-180.000000) translate(-182.500000, -515.000000) translate(0.500000, 0.000000)">
                <g id="Shape">
                    <use xlink:href="#path-1"></use>
                    <use xlink:href="#path-1"></use>
                    <use xlink:href="#path-1"></use>
                    <use xlink:href="#path-1"></use>
                    <use xlink:href="#path-1"></use>
                    <use xlink:href="#path-1"></use>
                    <use xlink:href="#path-1"></use>
                    <use xlink:href="#path-1"></use>
                    <use xlink:href="#path-1"></use>
                    <use xlink:href="#path-1"></use>
                    <use xlink:href="#path-1"></use>
                    <use xlink:href="#path-1"></use>
                    <use xlink:href="#path-1"></use>
                    <use xlink:href="#path-1"></use>
                    <use xlink:href="#path-1"></use>
                    <use xlink:href="#path-1"></use>
                    <use xlink:href="#path-1"></use>
                    <use xlink:href="#path-1"></use>
                    <use xlink:href="#path-1"></use>
                    <use xlink:href="#path-1"></use>
                    <use xlink:href="#path-1"></use>
                    <use xlink:href="#path-1"></use>
                    <use xlink:href="#path-1"></use>
                    <use xlink:href="#path-1"></use>
                    <use xlink:href="#path-1"></use>
                    <use xlink:href="#path-1"></use>
                    <use xlink:href="#path-1"></use>
                    <use xlink:href="#path-1"></use>
                    <use xlink:href="#path-1"></use>
                    <use xlink:href="#path-1"></use>
                    <use xlink:href="#path-1"></use>
                    <use xlink:href="#path-1"></use>
                    <use xlink:href="#path-1"></use>
                    <use xlink:href="#path-1"></use>
                    <use xlink:href="#path-1"></use>
                    <use xlink:href="#path-1"></use>
                    <use xlink:href="#path-1"></use>
                    <use xlink:href="#path-1"></use>
                    <use xlink:href="#path-1"></use>
                    <use xlink:href="#path-1"></use>
                    <use xlink:href="#path-1"></use>
                    <use xlink:href="#path-1"></use>
                    <use xlink:href="#path-1"></use>
                    <use xlink:href="#path-1"></use>
                    <use xlink:href="#path-1"></use>
                    <use xlink:href="#path-1"></use>
                    <use xlink:href="#path-1"></use>
                    <use xlink:href="#path-1"></use>
                    <use xlink:href="#path-1"></use>
                    <use xlink:href="#path-1"></use>
                    <use xlink:href="#path-1"></use>
                </g>
                <path d="M218.5,869.3 C218.5,866.1 218.9,863 219.3,862.5 C220.9,860.3 225.3,858.2 232.3,856.5 C246.1,853.2 255.5,855.9 260.7,864.6 C261.9,866.7 263.2,867.7 264.1,867.3 C266.1,866.6 265.8,868.4 263.7,870.3 C261.4,872.4 260.8,872.4 258.7,870.4 C256.2,867.9 233.8,868.9 227.5,871.8 C218.5,875.9 218.5,875.9 218.5,869.3 Z M246.7,867.6 C261.5,867.5 261,867.8 256.1,862.3 C254.6,860.5 253,860 249.1,859.9 C244.9,859.8 244.5,859.6 247,859.1 C249.5,858.6 249.7,858.3 248.2,857.7 C243.8,856 233.1,857.4 224.8,860.8 C220.7,862.4 218.6,865.5 222.3,864.4 C223.5,864 223.3,864.4 221.8,865.6 C220.3,866.6 219.5,868.3 219.5,870.1 L219.5,873 L226.3,870.3 C232.4,867.9 234.2,867.6 246.7,867.6 Z" id="Shape"></path>
                <path d="M137.1,771.5 C132,766 135.3,756.7 142.9,755.4 C147.1,754.7 150.2,756.3 153.8,761.2 C155.5,763.5 155.6,764.1 154.4,766.5 C152.5,770.4 148.5,773 143.7,773.7 C140.2,774.2 139.3,773.9 137.1,771.5 Z M149.3,770.4 C150.6,769.6 152.1,767.7 152.8,766.3 C153.8,764 153.6,763.5 150.5,760.9 C146.1,757.2 140.4,756.9 138.1,760.2 C135.7,763.5 136.1,767.7 139.1,770.6 C141.8,773.4 144.7,773.3 149.3,770.4 Z" id="Shape"></path>
                <path d="M217,770 C213.6,768.7 210.7,764.7 209.7,760.2 C208.8,756.4 208.9,755.7 211.4,753.2 C218.5,745.5 234,750.6 232.1,760.1 C231.2,764.5 228,768.7 224.8,769.4 C223.2,769.8 221.3,770.3 220.5,770.5 C219.7,770.7 218.1,770.5 217,770 Z M223.6,768 C224.2,768 225.9,766.5 227.6,764.8 C231.4,760.6 231.4,756.8 227.8,753.4 C225.4,751.2 224.3,750.9 220.7,751.3 C215,751.9 211.1,755.4 211.9,759.2 C213,764.9 217.8,769.6 221.3,768.4 C222.1,768.2 223.1,768 223.6,768 Z" id="Shape"></path>
                <path d="M132.9,736.8 C129.4,734.3 126.5,729.8 126.5,726.9 C126.5,720.6 133,715.4 139.7,716.3 C151.5,717.9 153.6,732.5 142.7,737.1 C137.2,739.5 136.6,739.5 132.9,736.8 Z M141.5,735 C145.1,733.2 147.8,730.1 148,727.5 C148.3,724.8 145.2,721.1 141.5,719.6 C135.9,717.4 135,717.5 132.1,721.3 C128.3,726.2 128.7,730 133.2,733.9 C135.2,735.6 137,737 137.2,737 C137.4,737 139.3,736.1 141.5,735 Z" id="Shape"></path>
                <path d="M186.4,593.2 C183.2,590.2 182.3,588.7 182.2,585.8 C182,579 187.7,573.6 195.3,573.6 C199.4,573.5 200.1,573.8 202.3,577 C206.5,583.2 203.8,592.7 197,595.6 C192,597.7 190.8,597.4 186.4,593.2 Z M198.9,591.6 C202,588.7 202.5,587.6 202.5,583.7 C202.5,580 202,578.8 199.9,577.1 C196.8,574.7 194.7,574.5 190.8,576.2 C183.8,579.4 182.4,586.2 187.7,591.7 C191.7,595.9 194.4,595.9 198.9,591.6 Z" id="Shape"></path>
                <path d="M135.4,594.5 C132.2,592.8 129.5,588.8 129.5,586 C129.5,578.6 139.2,572.3 145.6,575.5 C149.2,577.4 150.5,579.8 150.5,584.5 C150.5,593.2 142.6,598.4 135.4,594.5 Z M146.6,590.8 C149.2,587.2 149.5,581.6 147.2,579.3 C146.4,578.5 143.9,577.6 141.6,577.3 C137.8,576.8 137.2,577 134.5,580 C131.2,583.7 130.9,585.3 132.7,589.2 C134.1,592.2 136.9,593.7 141.2,593.9 C143.7,594 144.8,593.3 146.6,590.8 Z" id="Shape"></path>
            </g>
        </g>
    </g>
</svg>